<?xml version="1.0" encoding="UTF-8" standalone="no"?>
<!DOCTYPE svg PUBLIC "-//W3C//DTD SVG 1.1//EN"
 "http://www.w3.org/Graphics/SVG/1.1/DTD/svg11.dtd">
<!-- Generated by graphviz version 2.43.0 (0)
 -->
<!-- Title: Galaxy::noitifyVoteState Pages: 1 -->
<svg width="373pt" height="66pt"
 viewBox="0.00 0.00 373.00 66.00" xmlns="http://www.w3.org/2000/svg" xmlns:xlink="http://www.w3.org/1999/xlink">
<g id="graph0" class="graph" transform="scale(1 1) rotate(0) translate(4 62)">
<title>Galaxy::noitifyVoteState</title>
<polygon fill="white" stroke="transparent" points="-4,4 -4,-62 369,-62 369,4 -4,4"/>
<!-- Node1 -->
<g id="node1" class="node">
<title>Node1</title>
<g id="a_node1"><a xlink:title=" ">
<polygon fill="#bfbfbf" stroke="black" points="231,-19.5 231,-38.5 365,-38.5 365,-19.5 231,-19.5"/>
<text text-anchor="middle" x="298" y="-26.5" font-family="Helvetica,sans-Serif" font-size="10.00">Galaxy::noitifyVoteState</text>
</a>
</g>
</g>
<!-- Node2 -->
<g id="node2" class="node">
<title>Node2</title>
<g id="a_node2"><a xlink:href="classNewGamePoll.html#a17992fb86dd5c97ccc605f9bc30c2344" target="_top" xlink:title=" ">
<polygon fill="white" stroke="black" points="0,-38.5 0,-57.5 195,-57.5 195,-38.5 0,-38.5"/>
<text text-anchor="middle" x="97.5" y="-45.5" font-family="Helvetica,sans-Serif" font-size="10.00">NewGamePoll::registerNegativeVote</text>
</a>
</g>
</g>
<!-- Node1&#45;&gt;Node2 -->
<g id="edge1" class="edge">
<title>Node1&#45;&gt;Node2</title>
<path fill="none" stroke="midnightblue" d="M220.78,-36.3C212.36,-37.1 203.72,-37.93 195.1,-38.75"/>
<polygon fill="midnightblue" stroke="midnightblue" points="221.28,-39.76 230.9,-35.33 220.61,-32.8 221.28,-39.76"/>
</g>
<!-- Node3 -->
<g id="node3" class="node">
<title>Node3</title>
<g id="a_node3"><a xlink:href="classNewGamePoll.html#a9e280458b11fd4597cbc996d7c6025bc" target="_top" xlink:title=" ">
<polygon fill="white" stroke="black" points="2.5,-0.5 2.5,-19.5 192.5,-19.5 192.5,-0.5 2.5,-0.5"/>
<text text-anchor="middle" x="97.5" y="-7.5" font-family="Helvetica,sans-Serif" font-size="10.00">NewGamePoll::registerPositiveVote</text>
</a>
</g>
</g>
<!-- Node1&#45;&gt;Node3 -->
<g id="edge2" class="edge">
<title>Node1&#45;&gt;Node3</title>
<path fill="none" stroke="midnightblue" d="M220.66,-21.69C211.48,-20.81 202.01,-19.91 192.61,-19.01"/>
<polygon fill="midnightblue" stroke="midnightblue" points="220.61,-25.2 230.9,-22.67 221.28,-18.24 220.61,-25.2"/>
</g>
</g>
</svg>
