<?xml version="1.0" encoding="UTF-8" standalone="no"?>
<!DOCTYPE svg PUBLIC "-//W3C//DTD SVG 1.1//EN"
 "http://www.w3.org/Graphics/SVG/1.1/DTD/svg11.dtd">
<!-- Generated by graphviz version 2.43.0 (0)
 -->
<!-- Title: GameChange Pages: 1 -->
<svg width="1745pt" height="171pt"
 viewBox="0.00 0.00 1745.00 170.50" xmlns="http://www.w3.org/2000/svg" xmlns:xlink="http://www.w3.org/1999/xlink">
<g id="graph0" class="graph" transform="scale(1 1) rotate(0) translate(4 166.5)">
<title>GameChange</title>
<polygon fill="white" stroke="transparent" points="-4,4 -4,-166.5 1741,-166.5 1741,4 -4,4"/>
<!-- Node1 -->
<g id="node1" class="node">
<title>Node1</title>
<g id="a_node1"><a xlink:title="Represents an atomic change to the gamestate. Can be reverted, once applied.">
<polygon fill="#bfbfbf" stroke="black" points="628,-115.5 628,-134.5 711,-134.5 711,-115.5 628,-115.5"/>
<text text-anchor="middle" x="669.5" y="-122.5" font-family="Helvetica,sans-Serif" font-size="10.00">GameChange</text>
</a>
</g>
</g>
<!-- Node6 -->
<g id="node6" class="node">
<title>Node6</title>
<g id="a_node6"><a xlink:title=" ">
<polygon fill="white" stroke="#bfbfbf" points="764,-115.5 764,-134.5 935,-134.5 935,-115.5 764,-115.5"/>
<text text-anchor="middle" x="849.5" y="-122.5" font-family="Helvetica,sans-Serif" font-size="10.00">std::weak_ptr&lt; GameChange &gt;</text>
</a>
</g>
</g>
<!-- Node1&#45;&gt;Node6 -->
<g id="edge6" class="edge">
<title>Node1&#45;&gt;Node6</title>
<path fill="none" stroke="#9a32cd" stroke-dasharray="5,2" d="M721.63,-125C734.86,-125 749.47,-125 763.92,-125"/>
<polygon fill="#9a32cd" stroke="#9a32cd" points="721.34,-121.5 711.34,-125 721.34,-128.5 721.34,-121.5"/>
<text text-anchor="middle" x="737.5" y="-128" font-family="Helvetica,sans-Serif" font-size="10.00"> ptr</text>
</g>
<!-- Node2 -->
<g id="node2" class="node">
<title>Node2</title>
<g id="a_node2"><a xlink:title=" ">
<polygon fill="white" stroke="#bfbfbf" points="401,-132 401,-162 558,-162 558,-132 401,-132"/>
<text text-anchor="start" x="409" y="-150" font-family="Helvetica,sans-Serif" font-size="10.00">std::enable_shared</text>
<text text-anchor="middle" x="479.5" y="-139" font-family="Helvetica,sans-Serif" font-size="10.00">_from_this&lt; GameChange &gt;</text>
</a>
</g>
</g>
<!-- Node2&#45;&gt;Node1 -->
<g id="edge1" class="edge">
<title>Node2&#45;&gt;Node1</title>
<path fill="none" stroke="midnightblue" d="M568.23,-136.73C589.08,-134.29 610.34,-131.81 627.89,-129.75"/>
<polygon fill="midnightblue" stroke="midnightblue" points="567.58,-133.29 558.05,-137.92 568.39,-140.24 567.58,-133.29"/>
</g>
<!-- Node3 -->
<g id="node3" class="node">
<title>Node3</title>
<g id="a_node3"><a xlink:title=" ">
<polygon fill="white" stroke="#bfbfbf" points="1134,-94.5 1134,-113.5 1269,-113.5 1269,-94.5 1134,-94.5"/>
<text text-anchor="middle" x="1201.5" y="-101.5" font-family="Helvetica,sans-Serif" font-size="10.00">std::shared_ptr&lt; Field &gt;</text>
</a>
</g>
</g>
<!-- Node3&#45;&gt;Node1 -->
<g id="edge2" class="edge">
<title>Node3&#45;&gt;Node1</title>
<path fill="none" stroke="#9a32cd" stroke-dasharray="5,2" d="M1161.64,-116.42C1138.49,-123.14 1108.38,-130.72 1081,-134 941.04,-150.75 904.73,-152.02 764,-144 748.37,-143.11 744.4,-142.84 729,-140 720.96,-138.52 712.39,-136.54 704.35,-134.52"/>
<polygon fill="#9a32cd" stroke="#9a32cd" points="1162.84,-119.71 1171.42,-113.5 1160.84,-113 1162.84,-119.71"/>
<text text-anchor="middle" x="988" y="-149" font-family="Helvetica,sans-Serif" font-size="10.00"> affected_field</text>
</g>
<!-- Node9 -->
<g id="node9" class="node">
<title>Node9</title>
<g id="a_node9"><a xlink:title=" ">
<polygon fill="white" stroke="#bfbfbf" points="1331,-86.5 1331,-105.5 1455,-105.5 1455,-86.5 1331,-86.5"/>
<text text-anchor="middle" x="1393" y="-93.5" font-family="Helvetica,sans-Serif" font-size="10.00">std::set&lt; field_ptr_t &gt;</text>
</a>
</g>
</g>
<!-- Node3&#45;&gt;Node9 -->
<g id="edge11" class="edge">
<title>Node3&#45;&gt;Node9</title>
<path fill="none" stroke="#9a32cd" stroke-dasharray="5,2" d="M1279.04,-100.77C1296.22,-100.04 1314.23,-99.28 1330.69,-98.59"/>
<polygon fill="#9a32cd" stroke="#9a32cd" points="1278.89,-97.27 1269.04,-101.19 1279.18,-104.27 1278.89,-97.27"/>
<text text-anchor="middle" x="1300" y="-104" font-family="Helvetica,sans-Serif" font-size="10.00"> keys</text>
</g>
<!-- Node4 -->
<g id="node4" class="node">
<title>Node4</title>
<g id="a_node4"><a xlink:href="classField.html" target="_top" xlink:title="represents a Field in the game">
<polygon fill="white" stroke="black" points="1041,-105.5 1041,-124.5 1081,-124.5 1081,-105.5 1041,-105.5"/>
<text text-anchor="middle" x="1061" y="-112.5" font-family="Helvetica,sans-Serif" font-size="10.00">Field</text>
</a>
</g>
</g>
<!-- Node4&#45;&gt;Node3 -->
<g id="edge3" class="edge">
<title>Node4&#45;&gt;Node3</title>
<path fill="none" stroke="#9a32cd" stroke-dasharray="5,2" d="M1091.46,-112.66C1103.91,-111.67 1118.96,-110.48 1133.85,-109.29"/>
<polygon fill="#9a32cd" stroke="#9a32cd" points="1090.95,-109.19 1081.26,-113.47 1091.5,-116.17 1090.95,-109.19"/>
<text text-anchor="middle" x="1107.5" y="-116" font-family="Helvetica,sans-Serif" font-size="10.00"> ptr</text>
</g>
<!-- Node5 -->
<g id="node5" class="node">
<title>Node5</title>
<g id="a_node5"><a xlink:href="structpos__type.html" target="_top" xlink:title="simple position type for 2 dimensions. sortable">
<polygon fill="white" stroke="black" points="819,-63.5 819,-82.5 880,-82.5 880,-63.5 819,-63.5"/>
<text text-anchor="middle" x="849.5" y="-70.5" font-family="Helvetica,sans-Serif" font-size="10.00">pos_type</text>
</a>
</g>
</g>
<!-- Node5&#45;&gt;Node4 -->
<g id="edge4" class="edge">
<title>Node5&#45;&gt;Node4</title>
<path fill="none" stroke="#9a32cd" stroke-dasharray="5,2" d="M890.47,-77.74C925.7,-82.39 978.23,-90.46 1023,-102 1028.93,-103.53 1035.27,-105.59 1040.99,-107.62"/>
<polygon fill="#9a32cd" stroke="#9a32cd" points="890.49,-74.22 880.12,-76.41 889.59,-81.16 890.49,-74.22"/>
<text text-anchor="middle" x="988" y="-105" font-family="Helvetica,sans-Serif" font-size="10.00"> position</text>
</g>
<!-- Node8 -->
<g id="node8" class="node">
<title>Node8</title>
<g id="a_node8"><a xlink:href="classDot.html" target="_top" xlink:title="Represents the center of the galaxy.">
<polygon fill="white" stroke="black" points="1521,-63.5 1521,-82.5 1555,-82.5 1555,-63.5 1521,-63.5"/>
<text text-anchor="middle" x="1538" y="-70.5" font-family="Helvetica,sans-Serif" font-size="10.00">Dot</text>
</a>
</g>
</g>
<!-- Node5&#45;&gt;Node8 -->
<g id="edge9" class="edge">
<title>Node5&#45;&gt;Node8</title>
<path fill="none" stroke="#9a32cd" stroke-dasharray="5,2" d="M890.41,-68.44C932.51,-64.03 1000.84,-58 1060,-58 1060,-58 1060,-58 1394,-58 1440.18,-58 1494.3,-65.83 1520.76,-70.18"/>
<polygon fill="#9a32cd" stroke="#9a32cd" points="889.86,-64.98 880.29,-69.52 890.6,-71.94 889.86,-64.98"/>
<text text-anchor="middle" x="1201.5" y="-61" font-family="Helvetica,sans-Serif" font-size="10.00"> position</text>
</g>
<!-- Node6&#45;&gt;Node4 -->
<g id="edge5" class="edge">
<title>Node6&#45;&gt;Node4</title>
<path fill="none" stroke="#9a32cd" stroke-dasharray="5,2" d="M945.19,-120.48C981.14,-118.76 1018.69,-116.97 1040.68,-115.92"/>
<polygon fill="#9a32cd" stroke="#9a32cd" points="944.93,-116.99 935.11,-120.96 945.26,-123.98 944.93,-116.99"/>
<text text-anchor="middle" x="988" y="-123" font-family="Helvetica,sans-Serif" font-size="10.00"> last_change</text>
</g>
<!-- Node7 -->
<g id="node7" class="node">
<title>Node7</title>
<g id="a_node7"><a xlink:title=" ">
<polygon fill="white" stroke="#bfbfbf" points="1611.5,-83.5 1611.5,-102.5 1733.5,-102.5 1733.5,-83.5 1611.5,-83.5"/>
<text text-anchor="middle" x="1672.5" y="-90.5" font-family="Helvetica,sans-Serif" font-size="10.00">std::weak_ptr&lt; Dot &gt;</text>
</a>
</g>
</g>
<!-- Node7&#45;&gt;Node4 -->
<g id="edge7" class="edge">
<title>Node7&#45;&gt;Node4</title>
<path fill="none" stroke="#9a32cd" stroke-dasharray="5,2" d="M1647.57,-107.71C1621.75,-122.14 1578.97,-142 1539,-142 1200.5,-142 1200.5,-142 1200.5,-142 1154.96,-142 1143.26,-138.71 1099,-128 1093.18,-126.59 1086.98,-124.61 1081.37,-122.63"/>
<polygon fill="#9a32cd" stroke="#9a32cd" points="1649.36,-110.71 1656.27,-102.68 1645.86,-104.65 1649.36,-110.71"/>
<text text-anchor="middle" x="1393" y="-145" font-family="Helvetica,sans-Serif" font-size="10.00"> assigned_dot</text>
</g>
<!-- Node8&#45;&gt;Node7 -->
<g id="edge8" class="edge">
<title>Node8&#45;&gt;Node7</title>
<path fill="none" stroke="#9a32cd" stroke-dasharray="5,2" d="M1565.45,-76.99C1578.63,-78.98 1595.16,-81.48 1611.21,-83.9"/>
<polygon fill="#9a32cd" stroke="#9a32cd" points="1565.66,-73.48 1555.25,-75.45 1564.61,-80.41 1565.66,-73.48"/>
<text text-anchor="middle" x="1581.5" y="-84" font-family="Helvetica,sans-Serif" font-size="10.00"> ptr</text>
</g>
<!-- Node10 -->
<g id="node10" class="node">
<title>Node10</title>
<g id="a_node10"><a xlink:title=" ">
<polygon fill="white" stroke="#bfbfbf" points="1608,-31.5 1608,-50.5 1737,-50.5 1737,-31.5 1608,-31.5"/>
<text text-anchor="middle" x="1672.5" y="-38.5" font-family="Helvetica,sans-Serif" font-size="10.00">std::shared_ptr&lt; Dot &gt;</text>
</a>
</g>
</g>
<!-- Node8&#45;&gt;Node10 -->
<g id="edge13" class="edge">
<title>Node8&#45;&gt;Node10</title>
<path fill="none" stroke="#9a32cd" stroke-dasharray="5,2" d="M1565.18,-65.99C1567.82,-65.31 1570.46,-64.63 1573,-64 1591.4,-59.42 1611.81,-54.61 1629.25,-50.58"/>
<polygon fill="#9a32cd" stroke="#9a32cd" points="1564.01,-62.67 1555.23,-68.6 1565.79,-69.45 1564.01,-62.67"/>
<text text-anchor="middle" x="1581.5" y="-67" font-family="Helvetica,sans-Serif" font-size="10.00"> ptr</text>
</g>
<!-- Node9&#45;&gt;Node8 -->
<g id="edge10" class="edge">
<title>Node9&#45;&gt;Node8</title>
<path fill="none" stroke="#9a32cd" stroke-dasharray="5,2" d="M1463.55,-84.81C1485.02,-81.36 1506.72,-77.87 1520.91,-75.59"/>
<polygon fill="#9a32cd" stroke="#9a32cd" points="1462.72,-81.4 1453.4,-86.45 1463.83,-88.31 1462.72,-81.4"/>
<text text-anchor="middle" x="1488" y="-87" font-family="Helvetica,sans-Serif" font-size="10.00"> fields</text>
</g>
<!-- Node10&#45;&gt;Node1 -->
<g id="edge12" class="edge">
<title>Node10&#45;&gt;Node1</title>
<path fill="none" stroke="#9a32cd" stroke-dasharray="5,2" d="M1643.87,-27.13C1617.58,-15.24 1576.58,0 1539,0 848.5,0 848.5,0 848.5,0 768.45,0 698.91,-85.72 677.37,-115.19"/>
<polygon fill="#9a32cd" stroke="#9a32cd" points="1642.64,-30.42 1653.18,-31.49 1645.61,-24.08 1642.64,-30.42"/>
<text text-anchor="middle" x="1201.5" y="-14" font-family="Helvetica,sans-Serif" font-size="10.00"> old_assoziation</text>
<text text-anchor="middle" x="1201.5" y="-3" font-family="Helvetica,sans-Serif" font-size="10.00">new_assoziation</text>
</g>
<!-- Node11 -->
<g id="node11" class="node">
<title>Node11</title>
<g id="a_node11"><a xlink:title=" ">
<polygon fill="white" stroke="#bfbfbf" points="411.5,-93.5 411.5,-112.5 547.5,-112.5 547.5,-93.5 411.5,-93.5"/>
<text text-anchor="middle" x="479.5" y="-100.5" font-family="Helvetica,sans-Serif" font-size="10.00">std::weak_ptr&lt; Player &gt;</text>
</a>
</g>
</g>
<!-- Node11&#45;&gt;Node1 -->
<g id="edge14" class="edge">
<title>Node11&#45;&gt;Node1</title>
<path fill="none" stroke="#9a32cd" stroke-dasharray="5,2" d="M557.76,-110.99C574.97,-112.87 593.11,-114.93 610,-117 615.8,-117.71 621.92,-118.5 627.92,-119.3"/>
<polygon fill="#9a32cd" stroke="#9a32cd" points="558.07,-107.5 547.75,-109.91 557.32,-114.46 558.07,-107.5"/>
<text text-anchor="middle" x="593" y="-120" font-family="Helvetica,sans-Serif" font-size="10.00"> player</text>
</g>
<!-- Node12 -->
<g id="node12" class="node">
<title>Node12</title>
<g id="a_node12"><a xlink:href="classPlayer.html" target="_top" xlink:title="represents a individual player/client">
<polygon fill="white" stroke="black" points="301,-93.5 301,-112.5 348,-112.5 348,-93.5 301,-93.5"/>
<text text-anchor="middle" x="324.5" y="-100.5" font-family="Helvetica,sans-Serif" font-size="10.00">Player</text>
</a>
</g>
</g>
<!-- Node12&#45;&gt;Node11 -->
<g id="edge15" class="edge">
<title>Node12&#45;&gt;Node11</title>
<path fill="none" stroke="#9a32cd" stroke-dasharray="5,2" d="M358.21,-103C373.77,-103 392.97,-103 411.43,-103"/>
<polygon fill="#9a32cd" stroke="#9a32cd" points="358.08,-99.5 348.08,-103 358.08,-106.5 358.08,-99.5"/>
<text text-anchor="middle" x="374.5" y="-106" font-family="Helvetica,sans-Serif" font-size="10.00"> ptr</text>
</g>
<!-- Node13 -->
<g id="node13" class="node">
<title>Node13</title>
<g id="a_node13"><a xlink:title="STL class.">
<polygon fill="white" stroke="#bfbfbf" points="141,-93.5 141,-112.5 206,-112.5 206,-93.5 141,-93.5"/>
<text text-anchor="middle" x="173.5" y="-100.5" font-family="Helvetica,sans-Serif" font-size="10.00">std::string</text>
</a>
</g>
</g>
<!-- Node13&#45;&gt;Node12 -->
<g id="edge16" class="edge">
<title>Node13&#45;&gt;Node12</title>
<path fill="none" stroke="#9a32cd" stroke-dasharray="5,2" d="M216.18,-103C243.54,-103 278.27,-103 300.69,-103"/>
<polygon fill="#9a32cd" stroke="#9a32cd" points="216.1,-99.5 206.1,-103 216.1,-106.5 216.1,-99.5"/>
<text text-anchor="middle" x="253.5" y="-117" font-family="Helvetica,sans-Serif" font-size="10.00"> passphrase</text>
<text text-anchor="middle" x="253.5" y="-106" font-family="Helvetica,sans-Serif" font-size="10.00">name</text>
</g>
<!-- Node14 -->
<g id="node14" class="node">
<title>Node14</title>
<g id="a_node14"><a xlink:title="STL class.">
<polygon fill="white" stroke="#bfbfbf" points="0,-88 0,-118 104,-118 104,-88 0,-88"/>
<text text-anchor="start" x="8" y="-106" font-family="Helvetica,sans-Serif" font-size="10.00">std::basic_string&lt;</text>
<text text-anchor="middle" x="52" y="-95" font-family="Helvetica,sans-Serif" font-size="10.00"> char &gt;</text>
</a>
</g>
</g>
<!-- Node14&#45;&gt;Node13 -->
<g id="edge17" class="edge">
<title>Node14&#45;&gt;Node13</title>
<path fill="none" stroke="midnightblue" d="M114.1,-103C123.41,-103 132.68,-103 141,-103"/>
<polygon fill="midnightblue" stroke="midnightblue" points="114.03,-99.5 104.03,-103 114.03,-106.5 114.03,-99.5"/>
</g>
</g>
</svg>
