<?xml version="1.0" encoding="UTF-8" standalone="no"?>
<!DOCTYPE svg PUBLIC "-//W3C//DTD SVG 1.1//EN"
 "http://www.w3.org/Graphics/SVG/1.1/DTD/svg11.dtd">
<!-- Generated by graphviz version 2.43.0 (0)
 -->
<!-- Title: Network Pages: 1 -->
<!--zoomable 525 -->
<svg id="main" version="1.1" xmlns="http://www.w3.org/2000/svg" xmlns:xlink="http://www.w3.org/1999/xlink" xml:space="preserve" onload="init(evt)">
<style type="text/css"><![CDATA[
.edge:hover path { stroke: red; }
.edge:hover polygon { stroke: red; fill: red; }
]]></style>
<script type="text/javascript"><![CDATA[
var edges = document.getElementsByTagName('g');
if (edges && edges.length) {
  for (var i=0;i<edges.length;i++) {
    if (edges[i].id.substr(0,4)=='edge') {
      edges[i].setAttribute('class','edge');
    }
  }
}
]]></script>
        <defs>
                <circle id="rim" cx="0" cy="0" r="7"/>
                <circle id="rim2" cx="0" cy="0" r="3.5"/>
                <g id="zoomPlus">
                        <use xlink:href="#rim" fill="#404040">
                                <set attributeName="fill" to="#808080" begin="zoomplus.mouseover" end="zoomplus.mouseout"/>
                        </use>
                        <path d="M-4,0h8M0,-4v8" fill="none" stroke="white" stroke-width="1.5" pointer-events="none"/>
                </g>
                <g id="zoomMin">
                        <use xlink:href="#rim" fill="#404040">
                                <set attributeName="fill" to="#808080" begin="zoomminus.mouseover" end="zoomminus.mouseout"/>
                        </use>
                        <path d="M-4,0h8" fill="none" stroke="white" stroke-width="1.5" pointer-events="none"/>
                </g>
                <g id="dirArrow">
                        <path fill="none" stroke="white" stroke-width="1.5" d="M0,-3.0v7 M-2.5,-0.5L0,-3.0L2.5,-0.5"/>
                </g>
               <g id="resetDef">
                       <use xlink:href="#rim2" fill="#404040">
                               <set attributeName="fill" to="#808080" begin="reset.mouseover" end="reset.mouseout"/>
                       </use>
               </g>
        </defs>

<script type="text/javascript">
var viewWidth = 3221;
var viewHeight = 525;
var sectionId = 'dynsection-0';
</script>
<script xlink:href="svgpan.js"/>
<svg id="graph" class="graph">
<g id="viewport">
<title>Network</title>
<polygon fill="white" stroke="transparent" points="-4,4 -4,-521.3 3217,-521.3 3217,4 -4,4"/>
<!-- Node1 -->
<g id="node1" class="node">
<title>Node1</title>
<g id="a_node1"><a xlink:title="Manages the Websocket connection.">
<polygon fill="#bfbfbf" stroke="black" points="2550,-429 2550,-448 2608,-448 2608,-429 2550,-429"/>
<text text-anchor="middle" x="2579" y="-436" font-family="Helvetica,sans-Serif" font-size="10.00">Network</text>
</a>
</g>
</g>
<!-- Node6 -->
<g id="node6" class="node">
<title>Node6</title>
<g id="a_node6"><a xlink:href="classGalaxy.html" target="_top" xlink:title="Main class of this project. Manages all ressources.">
<polygon fill="white" stroke="black" points="2812.5,-247 2812.5,-266 2863.5,-266 2863.5,-247 2812.5,-247"/>
<text text-anchor="middle" x="2838" y="-254" font-family="Helvetica,sans-Serif" font-size="10.00">Galaxy</text>
</a>
</g>
</g>
<!-- Node1&#45;&gt;Node6 -->
<g id="edge31" class="edge">
<title>Node1&#45;&gt;Node6</title>
<path fill="none" stroke="#9a32cd" stroke-dasharray="5,2" d="M2618.39,-445.55C2662.75,-451.39 2735.56,-453.6 2782,-416.5 2830.42,-377.81 2836.39,-294.21 2836.99,-266.01"/>
<polygon fill="#9a32cd" stroke="#9a32cd" points="2618.7,-442.06 2608.3,-444.09 2617.7,-448.99 2618.7,-442.06"/>
<text text-anchor="middle" x="2728" y="-451.5" font-family="Helvetica,sans-Serif" font-size="10.00"> net</text>
</g>
<!-- Node2 -->
<g id="node2" class="node">
<title>Node2</title>
<g id="a_node2"><a xlink:title=" ">
<polygon fill="white" stroke="#bfbfbf" points="2245.5,-391 2245.5,-410 2373.5,-410 2373.5,-391 2245.5,-391"/>
<text text-anchor="middle" x="2309.5" y="-398" font-family="Helvetica,sans-Serif" font-size="10.00">std::list&lt; message_t &gt;</text>
</a>
</g>
</g>
<!-- Node2&#45;&gt;Node1 -->
<g id="edge1" class="edge">
<title>Node2&#45;&gt;Node1</title>
<path fill="none" stroke="#9a32cd" stroke-dasharray="5,2" d="M2383.87,-409.79C2414.8,-413.82 2451.18,-418.71 2484,-423.5 2506.08,-426.72 2531.01,-430.72 2549.65,-433.78"/>
<polygon fill="#9a32cd" stroke="#9a32cd" points="2383.97,-406.27 2373.6,-408.46 2383.07,-413.21 2383.97,-406.27"/>
<text text-anchor="middle" x="2441.5" y="-426.5" font-family="Helvetica,sans-Serif" font-size="10.00"> to_process</text>
</g>
<!-- Node3 -->
<g id="node3" class="node">
<title>Node3</title>
<g id="a_node3"><a xlink:href="structmessage__t.html" target="_top" xlink:title="simple message type that stores relevant information about a message">
<polygon fill="white" stroke="black" points="2053.5,-398 2053.5,-417 2123.5,-417 2123.5,-398 2053.5,-398"/>
<text text-anchor="middle" x="2088.5" y="-405" font-family="Helvetica,sans-Serif" font-size="10.00">message_t</text>
</a>
</g>
</g>
<!-- Node3&#45;&gt;Node2 -->
<g id="edge2" class="edge">
<title>Node3&#45;&gt;Node2</title>
<path fill="none" stroke="#9a32cd" stroke-dasharray="5,2" d="M2134.12,-406.07C2166.17,-405.05 2209.84,-403.65 2245.45,-402.52"/>
<polygon fill="#9a32cd" stroke="#9a32cd" points="2133.6,-402.59 2123.72,-406.41 2133.83,-409.58 2133.6,-402.59"/>
<text text-anchor="middle" x="2195.5" y="-408.5" font-family="Helvetica,sans-Serif" font-size="10.00"> elements</text>
</g>
<!-- Node4 -->
<g id="node4" class="node">
<title>Node4</title>
<g id="a_node4"><a xlink:title="STL class.">
<polygon fill="white" stroke="#bfbfbf" points="2275,-429 2275,-448 2344,-448 2344,-429 2275,-429"/>
<text text-anchor="middle" x="2309.5" y="-436" font-family="Helvetica,sans-Serif" font-size="10.00">std::mutex</text>
</a>
</g>
</g>
<!-- Node4&#45;&gt;Node1 -->
<g id="edge3" class="edge">
<title>Node4&#45;&gt;Node1</title>
<path fill="none" stroke="#9a32cd" stroke-dasharray="5,2" d="M2354.29,-438.5C2409.52,-438.5 2502.91,-438.5 2549.62,-438.5"/>
<polygon fill="#9a32cd" stroke="#9a32cd" points="2354.11,-435 2344.11,-438.5 2354.11,-442 2354.11,-435"/>
<text text-anchor="middle" x="2441.5" y="-441.5" font-family="Helvetica,sans-Serif" font-size="10.00"> message_mutex</text>
</g>
<!-- Node4&#45;&gt;Node6 -->
<g id="edge30" class="edge">
<title>Node4&#45;&gt;Node6</title>
<path fill="none" stroke="#9a32cd" stroke-dasharray="5,2" d="M2353.88,-428.9C2363,-426.31 2372.45,-423.18 2381,-419.5 2389.61,-415.8 2390.47,-412.4 2399,-408.5 2561.5,-334.28 2617.72,-356.7 2782,-286.5 2795.6,-280.69 2810.27,-272.58 2821.04,-266.26"/>
<polygon fill="#9a32cd" stroke="#9a32cd" points="2352.91,-425.54 2344.16,-431.51 2354.72,-432.3 2352.91,-425.54"/>
<text text-anchor="middle" x="2579" y="-372.5" font-family="Helvetica,sans-Serif" font-size="10.00"> my_mutex</text>
</g>
<!-- Node35 -->
<g id="node35" class="node">
<title>Node35</title>
<g id="a_node35"><a xlink:href="classNewGamePoll.html" target="_top" xlink:title=" ">
<polygon fill="white" stroke="black" points="2922,-229 2922,-248 3008,-248 3008,-229 2922,-229"/>
<text text-anchor="middle" x="2965" y="-236" font-family="Helvetica,sans-Serif" font-size="10.00">NewGamePoll</text>
</a>
</g>
</g>
<!-- Node4&#45;&gt;Node35 -->
<g id="edge48" class="edge">
<title>Node4&#45;&gt;Node35</title>
<path fill="none" stroke="#9a32cd" stroke-dasharray="5,2" d="M2353.71,-445.95C2363.13,-448.69 2372.74,-452.43 2381,-457.5 2391.19,-463.76 2388.08,-472.63 2399,-477.5 2470.01,-509.13 2603.18,-554.06 2782,-463.5 2880.16,-413.79 2943.57,-284.47 2959.84,-248.13"/>
<polygon fill="#9a32cd" stroke="#9a32cd" points="2354.58,-442.56 2344.02,-443.43 2352.82,-449.33 2354.58,-442.56"/>
<text text-anchor="middle" x="2728" y="-506.5" font-family="Helvetica,sans-Serif" font-size="10.00"> set_mutex</text>
</g>
<!-- Node5 -->
<g id="node5" class="node">
<title>Node5</title>
<g id="a_node5"><a xlink:title="STL class.">
<polygon fill="white" stroke="#bfbfbf" points="2275,-467 2275,-486 2344,-486 2344,-467 2275,-467"/>
<text text-anchor="middle" x="2309.5" y="-474" font-family="Helvetica,sans-Serif" font-size="10.00">std::thread</text>
</a>
</g>
</g>
<!-- Node5&#45;&gt;Node1 -->
<g id="edge4" class="edge">
<title>Node5&#45;&gt;Node1</title>
<path fill="none" stroke="#9a32cd" stroke-dasharray="5,2" d="M2354.29,-470.28C2409.52,-462.43 2502.91,-449.17 2549.62,-442.53"/>
<polygon fill="#9a32cd" stroke="#9a32cd" points="2353.52,-466.85 2344.11,-471.73 2354.5,-473.78 2353.52,-466.85"/>
<text text-anchor="middle" x="2441.5" y="-465.5" font-family="Helvetica,sans-Serif" font-size="10.00"> process_thread</text>
</g>
<!-- Node6&#45;&gt;Node1 -->
<g id="edge5" class="edge">
<title>Node6&#45;&gt;Node1</title>
<path fill="none" stroke="#9a32cd" stroke-dasharray="5,2" d="M2834.08,-276.37C2828.85,-304.48 2815.15,-355.44 2782,-382.5 2743.98,-413.53 2721.25,-392.23 2674,-405.5 2650.02,-412.23 2623.28,-421.83 2604.46,-428.94"/>
<polygon fill="#9a32cd" stroke="#9a32cd" points="2837.58,-276.61 2835.78,-266.17 2830.68,-275.46 2837.58,-276.61"/>
<text text-anchor="middle" x="2728" y="-408.5" font-family="Helvetica,sans-Serif" font-size="10.00"> galaxy</text>
</g>
<!-- Node6&#45;&gt;Node35 -->
<g id="edge49" class="edge">
<title>Node6&#45;&gt;Node35</title>
<path fill="none" stroke="#9a32cd" stroke-dasharray="5,2" d="M2873.95,-251.47C2888.74,-249.34 2906.11,-246.84 2921.63,-244.6"/>
<polygon fill="#9a32cd" stroke="#9a32cd" points="2873.1,-248.05 2863.7,-252.94 2874.09,-254.98 2873.1,-248.05"/>
<text text-anchor="middle" x="2899" y="-252.5" font-family="Helvetica,sans-Serif" font-size="10.00"> g</text>
</g>
<!-- Node7 -->
<g id="node7" class="node">
<title>Node7</title>
<g id="a_node7"><a xlink:title=" ">
<polygon fill="white" stroke="#bfbfbf" points="2516.5,-160.5 2516.5,-190.5 2641.5,-190.5 2641.5,-160.5 2516.5,-160.5"/>
<text text-anchor="start" x="2524.5" y="-178.5" font-family="Helvetica,sans-Serif" font-size="10.00">std::enable_shared</text>
<text text-anchor="middle" x="2579" y="-167.5" font-family="Helvetica,sans-Serif" font-size="10.00">_from_this&lt; Galaxy &gt;</text>
</a>
</g>
</g>
<!-- Node7&#45;&gt;Node6 -->
<g id="edge6" class="edge">
<title>Node7&#45;&gt;Node6</title>
<path fill="none" stroke="midnightblue" d="M2651.37,-193.09C2690.37,-203.34 2739.3,-217.24 2782,-232.5 2793.77,-236.71 2806.59,-242.24 2816.89,-246.94"/>
<polygon fill="midnightblue" stroke="midnightblue" points="2652.24,-189.7 2641.68,-190.57 2650.47,-196.48 2652.24,-189.7"/>
</g>
<!-- Node8 -->
<g id="node8" class="node">
<title>Node8</title>
<g id="a_node8"><a xlink:title=" ">
<polygon fill="white" stroke="#bfbfbf" points="2502,-210 2502,-251 2656,-251 2656,-210 2502,-210"/>
<text text-anchor="start" x="2510" y="-239" font-family="Helvetica,sans-Serif" font-size="10.00">std::map&lt; web_con,</text>
<text text-anchor="start" x="2510" y="-228" font-family="Helvetica,sans-Serif" font-size="10.00"> shared_player, std</text>
<text text-anchor="middle" x="2579" y="-217" font-family="Helvetica,sans-Serif" font-size="10.00">::owner_less&lt; web_con &gt; &gt;</text>
</a>
</g>
</g>
<!-- Node8&#45;&gt;Node6 -->
<g id="edge7" class="edge">
<title>Node8&#45;&gt;Node6</title>
<path fill="none" stroke="#9a32cd" stroke-dasharray="5,2" d="M2666.85,-235.45C2702.6,-237.99 2744.38,-241.6 2782,-246.5 2792.01,-247.8 2802.96,-249.7 2812.44,-251.49"/>
<polygon fill="#9a32cd" stroke="#9a32cd" points="2666.66,-231.93 2656.45,-234.73 2666.18,-238.91 2666.66,-231.93"/>
<text text-anchor="middle" x="2728" y="-249.5" font-family="Helvetica,sans-Serif" font-size="10.00"> players</text>
</g>
<!-- Node9 -->
<g id="node9" class="node">
<title>Node9</title>
<g id="a_node9"><a xlink:title="STL class.">
<polygon fill="white" stroke="#bfbfbf" points="2250.5,-75 2250.5,-94 2368.5,-94 2368.5,-75 2250.5,-75"/>
<text text-anchor="middle" x="2309.5" y="-82" font-family="Helvetica,sans-Serif" font-size="10.00">std::shared_ptr&lt; T &gt;</text>
</a>
</g>
</g>
<!-- Node9&#45;&gt;Node8 -->
<g id="edge8" class="edge">
<title>Node9&#45;&gt;Node8</title>
<path fill="none" stroke="#9a32cd" stroke-dasharray="5,2" d="M2341.4,-98.55C2377.36,-115.61 2437.71,-146.49 2484,-181.5 2493.02,-188.33 2492.58,-193.24 2502,-199.5 2507.7,-203.28 2513.93,-206.74 2520.3,-209.86"/>
<polygon fill="#9a32cd" stroke="#9a32cd" points="2342.48,-95.19 2331.94,-94.11 2339.5,-101.53 2342.48,-95.19"/>
<text text-anchor="middle" x="2441.5" y="-184.5" font-family="Helvetica,sans-Serif" font-size="10.00"> elements</text>
</g>
<!-- Node36 -->
<g id="node36" class="node">
<title>Node36</title>
<g id="a_node36"><a xlink:title=" ">
<polygon fill="white" stroke="#bfbfbf" points="2674,-0.5 2674,-30.5 2782,-30.5 2782,-0.5 2674,-0.5"/>
<text text-anchor="start" x="2682" y="-18.5" font-family="Helvetica,sans-Serif" font-size="10.00">std::unordered_set</text>
<text text-anchor="middle" x="2728" y="-7.5" font-family="Helvetica,sans-Serif" font-size="10.00">&lt; shared_player &gt;</text>
</a>
</g>
</g>
<!-- Node9&#45;&gt;Node36 -->
<g id="edge51" class="edge">
<title>Node9&#45;&gt;Node36</title>
<path fill="none" stroke="#9a32cd" stroke-dasharray="5,2" d="M2378,-73.32C2460.48,-59.65 2598.33,-36.82 2673.74,-24.32"/>
<polygon fill="#9a32cd" stroke="#9a32cd" points="2377.27,-69.89 2367.98,-74.98 2378.41,-76.8 2377.27,-69.89"/>
<text text-anchor="middle" x="2441.5" y="-73.5" font-family="Helvetica,sans-Serif" font-size="10.00"> keys</text>
</g>
<!-- Node10 -->
<g id="node10" class="node">
<title>Node10</title>
<g id="a_node10"><a xlink:title=" ">
<polygon fill="white" stroke="#bfbfbf" points="2074,-75 2074,-94 2103,-94 2103,-75 2074,-75"/>
<text text-anchor="middle" x="2088.5" y="-82" font-family="Helvetica,sans-Serif" font-size="10.00">T</text>
</a>
</g>
</g>
<!-- Node10&#45;&gt;Node9 -->
<g id="edge9" class="edge">
<title>Node10&#45;&gt;Node9</title>
<path fill="none" stroke="#9a32cd" stroke-dasharray="5,2" d="M2113.58,-84.5C2146.27,-84.5 2205.74,-84.5 2250.43,-84.5"/>
<polygon fill="#9a32cd" stroke="#9a32cd" points="2113.2,-81 2103.2,-84.5 2113.2,-88 2113.2,-81"/>
<text text-anchor="middle" x="2195.5" y="-87.5" font-family="Helvetica,sans-Serif" font-size="10.00"> ptr</text>
</g>
<!-- Node11 -->
<g id="node11" class="node">
<title>Node11</title>
<g id="a_node11"><a xlink:title=" ">
<polygon fill="white" stroke="#bfbfbf" points="1235,-72.5 1235,-102.5 1370,-102.5 1370,-72.5 1235,-72.5"/>
<text text-anchor="start" x="1243" y="-90.5" font-family="Helvetica,sans-Serif" font-size="10.00">std::list&lt; std::shared</text>
<text text-anchor="middle" x="1302.5" y="-79.5" font-family="Helvetica,sans-Serif" font-size="10.00">_ptr&lt; GameChange &gt; &gt;</text>
</a>
</g>
</g>
<!-- Node11&#45;&gt;Node6 -->
<g id="edge10" class="edge">
<title>Node11&#45;&gt;Node6</title>
<path fill="none" stroke="#9a32cd" stroke-dasharray="5,2" d="M1380.26,-91.29C1566.18,-100.35 2036.87,-122.5 2194.5,-122.5 2194.5,-122.5 2194.5,-122.5 2580,-122.5 2675.61,-122.5 2702.55,-143.3 2782,-196.5 2802.67,-210.34 2820.91,-233.51 2830.3,-246.64"/>
<polygon fill="#9a32cd" stroke="#9a32cd" points="1380.19,-87.78 1370.03,-90.79 1379.85,-94.78 1380.19,-87.78"/>
<text text-anchor="middle" x="1987.5" y="-121.5" font-family="Helvetica,sans-Serif" font-size="10.00"> history</text>
</g>
<!-- Node12 -->
<g id="node12" class="node">
<title>Node12</title>
<g id="a_node12"><a xlink:title=" ">
<polygon fill="white" stroke="#bfbfbf" points="893,-83 893,-102 1071,-102 1071,-83 893,-83"/>
<text text-anchor="middle" x="982" y="-90" font-family="Helvetica,sans-Serif" font-size="10.00">std::shared_ptr&lt; GameChange &gt;</text>
</a>
</g>
</g>
<!-- Node12&#45;&gt;Node11 -->
<g id="edge11" class="edge">
<title>Node12&#45;&gt;Node11</title>
<path fill="none" stroke="#9a32cd" stroke-dasharray="5,2" d="M1081.45,-90.95C1131.25,-90.17 1190.38,-89.24 1234.8,-88.55"/>
<polygon fill="#9a32cd" stroke="#9a32cd" points="1081.24,-87.46 1071.3,-91.11 1081.35,-94.46 1081.24,-87.46"/>
<text text-anchor="middle" x="1124" y="-94.5" font-family="Helvetica,sans-Serif" font-size="10.00"> elements</text>
</g>
<!-- Node13 -->
<g id="node13" class="node">
<title>Node13</title>
<g id="a_node13"><a xlink:href="classGameChange.html" target="_top" xlink:title="Represents an atomic change to the gamestate. Can be reverted, once applied.">
<polygon fill="white" stroke="black" points="757,-123 757,-142 840,-142 840,-123 757,-123"/>
<text text-anchor="middle" x="798.5" y="-130" font-family="Helvetica,sans-Serif" font-size="10.00">GameChange</text>
</a>
</g>
</g>
<!-- Node13&#45;&gt;Node12 -->
<g id="edge12" class="edge">
<title>Node13&#45;&gt;Node12</title>
<path fill="none" stroke="#9a32cd" stroke-dasharray="5,2" d="M827.57,-118.6C837.03,-114.43 847.79,-110.25 858,-107.5 869.11,-104.51 880.96,-102.12 892.73,-100.2"/>
<polygon fill="#9a32cd" stroke="#9a32cd" points="825.88,-115.53 818.25,-122.88 828.8,-121.89 825.88,-115.53"/>
<text text-anchor="middle" x="866.5" y="-110.5" font-family="Helvetica,sans-Serif" font-size="10.00"> ptr</text>
</g>
<!-- Node18 -->
<g id="node18" class="node">
<title>Node18</title>
<g id="a_node18"><a xlink:title=" ">
<polygon fill="white" stroke="#bfbfbf" points="896.5,-251 896.5,-270 1067.5,-270 1067.5,-251 896.5,-251"/>
<text text-anchor="middle" x="982" y="-258" font-family="Helvetica,sans-Serif" font-size="10.00">std::weak_ptr&lt; GameChange &gt;</text>
</a>
</g>
</g>
<!-- Node13&#45;&gt;Node18 -->
<g id="edge18" class="edge">
<title>Node13&#45;&gt;Node18</title>
<path fill="none" stroke="#9a32cd" stroke-dasharray="5,2" d="M811.38,-151.18C822.05,-166.79 838.95,-188.78 858,-203.5 886.5,-225.52 924.87,-241.58 951.13,-250.93"/>
<polygon fill="#9a32cd" stroke="#9a32cd" points="814.01,-148.82 805.57,-142.41 808.18,-152.68 814.01,-148.82"/>
<text text-anchor="middle" x="866.5" y="-217.5" font-family="Helvetica,sans-Serif" font-size="10.00"> ptr</text>
</g>
<!-- Node14 -->
<g id="node14" class="node">
<title>Node14</title>
<g id="a_node14"><a xlink:title=" ">
<polygon fill="white" stroke="#bfbfbf" points="530,-75.5 530,-105.5 687,-105.5 687,-75.5 530,-75.5"/>
<text text-anchor="start" x="538" y="-93.5" font-family="Helvetica,sans-Serif" font-size="10.00">std::enable_shared</text>
<text text-anchor="middle" x="608.5" y="-82.5" font-family="Helvetica,sans-Serif" font-size="10.00">_from_this&lt; GameChange &gt;</text>
</a>
</g>
</g>
<!-- Node14&#45;&gt;Node13 -->
<g id="edge13" class="edge">
<title>Node14&#45;&gt;Node13</title>
<path fill="none" stroke="midnightblue" d="M686.68,-107.74C710.75,-113.12 736.33,-118.84 756.85,-123.42"/>
<polygon fill="midnightblue" stroke="midnightblue" points="687.36,-104.31 676.84,-105.54 685.84,-111.14 687.36,-104.31"/>
</g>
<!-- Node15 -->
<g id="node15" class="node">
<title>Node15</title>
<g id="a_node15"><a xlink:title=" ">
<polygon fill="white" stroke="#bfbfbf" points="1388,-232 1388,-251 1523,-251 1523,-232 1388,-232"/>
<text text-anchor="middle" x="1455.5" y="-239" font-family="Helvetica,sans-Serif" font-size="10.00">std::shared_ptr&lt; Field &gt;</text>
</a>
</g>
</g>
<!-- Node15&#45;&gt;Node13 -->
<g id="edge14" class="edge">
<title>Node15&#45;&gt;Node13</title>
<path fill="none" stroke="#9a32cd" stroke-dasharray="5,2" d="M1377.53,-231.17C1263.57,-215.45 1043.44,-183.4 858,-146.5 851.34,-145.18 844.29,-143.62 837.48,-142.04"/>
<polygon fill="#9a32cd" stroke="#9a32cd" points="1377.17,-234.66 1387.56,-232.55 1378.13,-227.72 1377.17,-234.66"/>
<text text-anchor="middle" x="1124" y="-202.5" font-family="Helvetica,sans-Serif" font-size="10.00"> affected_field</text>
</g>
<!-- Node21 -->
<g id="node21" class="node">
<title>Node21</title>
<g id="a_node21"><a xlink:title=" ">
<polygon fill="white" stroke="#bfbfbf" points="1629.5,-237 1629.5,-256 1753.5,-256 1753.5,-237 1629.5,-237"/>
<text text-anchor="middle" x="1691.5" y="-244" font-family="Helvetica,sans-Serif" font-size="10.00">std::set&lt; field_ptr_t &gt;</text>
</a>
</g>
</g>
<!-- Node15&#45;&gt;Node21 -->
<g id="edge23" class="edge">
<title>Node15&#45;&gt;Node21</title>
<path fill="none" stroke="#9a32cd" stroke-dasharray="5,2" d="M1533.47,-241.52C1554.7,-241.67 1577.75,-241.96 1599,-242.5 1608.86,-242.75 1619.3,-243.11 1629.48,-243.52"/>
<polygon fill="#9a32cd" stroke="#9a32cd" points="1533.22,-238.02 1523.2,-241.46 1533.18,-245.02 1533.22,-238.02"/>
<text text-anchor="middle" x="1570" y="-245.5" font-family="Helvetica,sans-Serif" font-size="10.00"> keys</text>
</g>
<!-- Node30 -->
<g id="node30" class="node">
<title>Node30</title>
<g id="a_node30"><a xlink:title=" ">
<polygon fill="white" stroke="#bfbfbf" points="1617,-369.5 1617,-399.5 1766,-399.5 1766,-369.5 1617,-369.5"/>
<text text-anchor="start" x="1625" y="-387.5" font-family="Helvetica,sans-Serif" font-size="10.00">std::map&lt; pos_type,</text>
<text text-anchor="middle" x="1691.5" y="-376.5" font-family="Helvetica,sans-Serif" font-size="10.00"> std::shared_ptr&lt; Field &gt; &gt;</text>
</a>
</g>
</g>
<!-- Node15&#45;&gt;Node30 -->
<g id="edge37" class="edge">
<title>Node15&#45;&gt;Node30</title>
<path fill="none" stroke="#9a32cd" stroke-dasharray="5,2" d="M1476.21,-257.6C1505.56,-281.06 1563.12,-325.03 1617,-354.5 1627.04,-359.99 1638.29,-365.07 1648.92,-369.44"/>
<polygon fill="#9a32cd" stroke="#9a32cd" points="1478.35,-254.83 1468.37,-251.29 1473.96,-260.29 1478.35,-254.83"/>
<text text-anchor="middle" x="1570" y="-347.5" font-family="Helvetica,sans-Serif" font-size="10.00"> elements</text>
</g>
<!-- Node33 -->
<g id="node33" class="node">
<title>Node33</title>
<g id="a_node33"><a xlink:title=" ">
<polygon fill="white" stroke="#bfbfbf" points="1784,-228 1784,-269 1899,-269 1899,-228 1784,-228"/>
<text text-anchor="start" x="1792" y="-257" font-family="Helvetica,sans-Serif" font-size="10.00">std::map&lt; unsigned</text>
<text text-anchor="start" x="1792" y="-246" font-family="Helvetica,sans-Serif" font-size="10.00"> int, std::shared_ptr</text>
<text text-anchor="middle" x="1841.5" y="-235" font-family="Helvetica,sans-Serif" font-size="10.00">&lt; Field &gt; &gt;</text>
</a>
</g>
</g>
<!-- Node15&#45;&gt;Node33 -->
<g id="edge45" class="edge">
<title>Node15&#45;&gt;Node33</title>
<path fill="none" stroke="#9a32cd" stroke-dasharray="5,2" d="M1515.41,-230.47C1523.97,-229.24 1532.69,-228.18 1541,-227.5 1640.66,-219.3 1666.94,-213.81 1766,-227.5 1771.86,-228.31 1777.9,-229.46 1783.9,-230.81"/>
<polygon fill="#9a32cd" stroke="#9a32cd" points="1514.84,-227.02 1505.48,-231.99 1515.89,-233.94 1514.84,-227.02"/>
<text text-anchor="middle" x="1570" y="-230.5" font-family="Helvetica,sans-Serif" font-size="10.00"> elements</text>
</g>
<!-- Node16 -->
<g id="node16" class="node">
<title>Node16</title>
<g id="a_node16"><a xlink:href="classField.html" target="_top" xlink:title="represents a Field in the game">
<polygon fill="white" stroke="black" points="1177,-281 1177,-300 1217,-300 1217,-281 1177,-281"/>
<text text-anchor="middle" x="1197" y="-288" font-family="Helvetica,sans-Serif" font-size="10.00">Field</text>
</a>
</g>
</g>
<!-- Node16&#45;&gt;Node15 -->
<g id="edge15" class="edge">
<title>Node16&#45;&gt;Node15</title>
<path fill="none" stroke="#9a32cd" stroke-dasharray="5,2" d="M1226.93,-278.92C1229.63,-278.03 1232.35,-277.2 1235,-276.5 1285.53,-263.06 1344.06,-254.04 1387.97,-248.53"/>
<polygon fill="#9a32cd" stroke="#9a32cd" points="1225.59,-275.68 1217.34,-282.33 1227.94,-282.27 1225.59,-275.68"/>
<text text-anchor="middle" x="1302.5" y="-279.5" font-family="Helvetica,sans-Serif" font-size="10.00"> ptr</text>
</g>
<!-- Node17 -->
<g id="node17" class="node">
<title>Node17</title>
<g id="a_node17"><a xlink:href="structpos__type.html" target="_top" xlink:title="simple position type for 2 dimensions. sortable">
<polygon fill="white" stroke="black" points="951.5,-305 951.5,-324 1012.5,-324 1012.5,-305 951.5,-305"/>
<text text-anchor="middle" x="982" y="-312" font-family="Helvetica,sans-Serif" font-size="10.00">pos_type</text>
</a>
</g>
</g>
<!-- Node17&#45;&gt;Node16 -->
<g id="edge16" class="edge">
<title>Node17&#45;&gt;Node16</title>
<path fill="none" stroke="#9a32cd" stroke-dasharray="5,2" d="M1022.8,-310.02C1068.65,-304.85 1142.11,-296.57 1176.75,-292.67"/>
<polygon fill="#9a32cd" stroke="#9a32cd" points="1022.16,-306.57 1012.62,-311.16 1022.95,-313.52 1022.16,-306.57"/>
<text text-anchor="middle" x="1124" y="-305.5" font-family="Helvetica,sans-Serif" font-size="10.00"> position</text>
</g>
<!-- Node20 -->
<g id="node20" class="node">
<title>Node20</title>
<g id="a_node20"><a xlink:href="classDot.html" target="_top" xlink:title="Represents the center of the galaxy.">
<polygon fill="white" stroke="black" points="1917,-195 1917,-214 1951,-214 1951,-195 1917,-195"/>
<text text-anchor="middle" x="1934" y="-202" font-family="Helvetica,sans-Serif" font-size="10.00">Dot</text>
</a>
</g>
</g>
<!-- Node17&#45;&gt;Node20 -->
<g id="edge21" class="edge">
<title>Node17&#45;&gt;Node20</title>
<path fill="none" stroke="#9a32cd" stroke-dasharray="5,2" d="M1021.77,-301.44C1037.45,-295.56 1055.48,-288.02 1071,-279.5 1079.65,-274.75 1079.93,-270.38 1089,-266.5 1374.5,-144.55 1473.6,-202.38 1784,-196.5 1835.1,-195.53 1848.23,-190.61 1899,-196.5 1904.9,-197.19 1911.27,-198.52 1916.88,-199.9"/>
<polygon fill="#9a32cd" stroke="#9a32cd" points="1020.54,-298.17 1012.35,-304.88 1022.95,-304.74 1020.54,-298.17"/>
<text text-anchor="middle" x="1455.5" y="-193.5" font-family="Helvetica,sans-Serif" font-size="10.00"> position</text>
</g>
<!-- Node17&#45;&gt;Node30 -->
<g id="edge38" class="edge">
<title>Node17&#45;&gt;Node30</title>
<path fill="none" stroke="#9a32cd" stroke-dasharray="5,2" d="M1012.46,-328.07C1033.35,-337.01 1062.3,-348.03 1089,-353.5 1276.21,-391.84 1502.66,-391.24 1616.92,-387.76"/>
<polygon fill="#9a32cd" stroke="#9a32cd" points="1013.75,-324.81 1003.18,-324.01 1010.94,-331.22 1013.75,-324.81"/>
<text text-anchor="middle" x="1302.5" y="-389.5" font-family="Helvetica,sans-Serif" font-size="10.00"> keys</text>
</g>
<!-- Node32 -->
<g id="node32" class="node">
<title>Node32</title>
<g id="a_node32"><a xlink:title=" ">
<polygon fill="white" stroke="#bfbfbf" points="2238,-283.5 2238,-313.5 2381,-313.5 2381,-283.5 2238,-283.5"/>
<text text-anchor="start" x="2246" y="-301.5" font-family="Helvetica,sans-Serif" font-size="10.00">std::map&lt; pos_type,</text>
<text text-anchor="middle" x="2309.5" y="-290.5" font-family="Helvetica,sans-Serif" font-size="10.00"> std::shared_ptr&lt; Dot &gt; &gt;</text>
</a>
</g>
</g>
<!-- Node17&#45;&gt;Node32 -->
<g id="edge42" class="edge">
<title>Node17&#45;&gt;Node32</title>
<path fill="none" stroke="#9a32cd" stroke-dasharray="5,2" d="M1022.47,-321.93C1065.11,-329.3 1135.12,-339.5 1196,-339.5 1196,-339.5 1196,-339.5 1571,-339.5 1816.25,-339.5 2106.67,-316.62 2237.89,-305.04"/>
<polygon fill="#9a32cd" stroke="#9a32cd" points="1022.96,-318.46 1012.51,-320.17 1021.75,-325.36 1022.96,-318.46"/>
<text text-anchor="middle" x="1691.5" y="-342.5" font-family="Helvetica,sans-Serif" font-size="10.00"> keys</text>
</g>
<!-- Node18&#45;&gt;Node16 -->
<g id="edge17" class="edge">
<title>Node18&#45;&gt;Node16</title>
<path fill="none" stroke="#9a32cd" stroke-dasharray="5,2" d="M1077.57,-268.59C1104.04,-271.58 1132.75,-275.49 1159,-280.5 1164.88,-281.62 1171.2,-283.19 1176.92,-284.75"/>
<polygon fill="#9a32cd" stroke="#9a32cd" points="1077.86,-265.11 1067.54,-267.5 1077.1,-272.06 1077.86,-265.11"/>
<text text-anchor="middle" x="1124" y="-283.5" font-family="Helvetica,sans-Serif" font-size="10.00"> last_change</text>
</g>
<!-- Node19 -->
<g id="node19" class="node">
<title>Node19</title>
<g id="a_node19"><a xlink:title=" ">
<polygon fill="white" stroke="#bfbfbf" points="2027.5,-199 2027.5,-218 2149.5,-218 2149.5,-199 2027.5,-199"/>
<text text-anchor="middle" x="2088.5" y="-206" font-family="Helvetica,sans-Serif" font-size="10.00">std::weak_ptr&lt; Dot &gt;</text>
</a>
</g>
</g>
<!-- Node19&#45;&gt;Node16 -->
<g id="edge19" class="edge">
<title>Node19&#45;&gt;Node16</title>
<path fill="none" stroke="#9a32cd" stroke-dasharray="5,2" d="M2052.54,-221.65C1999.13,-241.7 1902.95,-277.73 1899,-278.5 1763.11,-305.03 1315.14,-293.88 1217.08,-291.07"/>
<polygon fill="#9a32cd" stroke="#9a32cd" points="2053.85,-224.89 2061.98,-218.1 2051.39,-218.34 2053.85,-224.89"/>
<text text-anchor="middle" x="1691.5" y="-298.5" font-family="Helvetica,sans-Serif" font-size="10.00"> assigned_dot</text>
</g>
<!-- Node20&#45;&gt;Node19 -->
<g id="edge20" class="edge">
<title>Node20&#45;&gt;Node19</title>
<path fill="none" stroke="#9a32cd" stroke-dasharray="5,2" d="M1961.15,-205.19C1979.35,-205.66 2004.38,-206.32 2027.37,-206.92"/>
<polygon fill="#9a32cd" stroke="#9a32cd" points="1961.12,-201.68 1951.03,-204.92 1960.94,-208.68 1961.12,-201.68"/>
<text text-anchor="middle" x="1987.5" y="-209.5" font-family="Helvetica,sans-Serif" font-size="10.00"> ptr</text>
</g>
<!-- Node22 -->
<g id="node22" class="node">
<title>Node22</title>
<g id="a_node22"><a xlink:title=" ">
<polygon fill="white" stroke="#bfbfbf" points="2024,-161 2024,-180 2153,-180 2153,-161 2024,-161"/>
<text text-anchor="middle" x="2088.5" y="-168" font-family="Helvetica,sans-Serif" font-size="10.00">std::shared_ptr&lt; Dot &gt;</text>
</a>
</g>
</g>
<!-- Node20&#45;&gt;Node22 -->
<g id="edge25" class="edge">
<title>Node20&#45;&gt;Node22</title>
<path fill="none" stroke="#9a32cd" stroke-dasharray="5,2" d="M1960.87,-193.16C1963.59,-192.17 1966.33,-191.26 1969,-190.5 1986.55,-185.47 2005.95,-181.55 2023.88,-178.56"/>
<polygon fill="#9a32cd" stroke="#9a32cd" points="1959.36,-189.99 1951.34,-196.91 1961.93,-196.5 1959.36,-189.99"/>
<text text-anchor="middle" x="1987.5" y="-193.5" font-family="Helvetica,sans-Serif" font-size="10.00"> ptr</text>
</g>
<!-- Node21&#45;&gt;Node20 -->
<g id="edge22" class="edge">
<title>Node21&#45;&gt;Node20</title>
<path fill="none" stroke="#9a32cd" stroke-dasharray="5,2" d="M1718.56,-232.21C1736.4,-223.24 1760.92,-212.46 1784,-207.5 1831.3,-197.34 1889,-200.42 1916.67,-202.82"/>
<polygon fill="#9a32cd" stroke="#9a32cd" points="1716.66,-229.26 1709.39,-236.96 1719.88,-235.47 1716.66,-229.26"/>
<text text-anchor="middle" x="1841.5" y="-210.5" font-family="Helvetica,sans-Serif" font-size="10.00"> fields</text>
</g>
<!-- Node22&#45;&gt;Node13 -->
<g id="edge24" class="edge">
<title>Node22&#45;&gt;Node13</title>
<path fill="none" stroke="#9a32cd" stroke-dasharray="5,2" d="M2054.49,-157.32C2023.99,-146.35 1977.16,-132.5 1935,-132.5 981,-132.5 981,-132.5 981,-132.5 932.63,-132.5 877.01,-132.5 840.23,-132.5"/>
<polygon fill="#9a32cd" stroke="#9a32cd" points="2053.58,-160.72 2064.18,-160.91 2056.01,-154.16 2053.58,-160.72"/>
<text text-anchor="middle" x="1455.5" y="-146.5" font-family="Helvetica,sans-Serif" font-size="10.00"> old_assoziation</text>
<text text-anchor="middle" x="1455.5" y="-135.5" font-family="Helvetica,sans-Serif" font-size="10.00">new_assoziation</text>
</g>
<!-- Node31 -->
<g id="node31" class="node">
<title>Node31</title>
<g id="a_node31"><a xlink:title=" ">
<polygon fill="white" stroke="#bfbfbf" points="2252,-169 2252,-210 2367,-210 2367,-169 2252,-169"/>
<text text-anchor="start" x="2260" y="-198" font-family="Helvetica,sans-Serif" font-size="10.00">std::map&lt; unsigned</text>
<text text-anchor="start" x="2260" y="-187" font-family="Helvetica,sans-Serif" font-size="10.00"> int, std::shared_ptr</text>
<text text-anchor="middle" x="2309.5" y="-176" font-family="Helvetica,sans-Serif" font-size="10.00">&lt; Dot &gt; &gt;</text>
</a>
</g>
</g>
<!-- Node22&#45;&gt;Node31 -->
<g id="edge40" class="edge">
<title>Node22&#45;&gt;Node31</title>
<path fill="none" stroke="#9a32cd" stroke-dasharray="5,2" d="M2163.19,-176.89C2192.11,-179.4 2224.77,-182.24 2251.79,-184.58"/>
<polygon fill="#9a32cd" stroke="#9a32cd" points="2163.4,-173.4 2153.14,-176.02 2162.8,-180.37 2163.4,-173.4"/>
<text text-anchor="middle" x="2195.5" y="-185.5" font-family="Helvetica,sans-Serif" font-size="10.00"> elements</text>
</g>
<!-- Node22&#45;&gt;Node32 -->
<g id="edge43" class="edge">
<title>Node22&#45;&gt;Node32</title>
<path fill="none" stroke="#9a32cd" stroke-dasharray="5,2" d="M2138.27,-183.33C2143.33,-185.18 2148.33,-187.24 2153,-189.5 2207.3,-215.8 2263.43,-260.2 2291.02,-283.38"/>
<polygon fill="#9a32cd" stroke="#9a32cd" points="2139.12,-179.93 2128.53,-180.03 2136.87,-186.55 2139.12,-179.93"/>
<text text-anchor="middle" x="2195.5" y="-229.5" font-family="Helvetica,sans-Serif" font-size="10.00"> elements</text>
</g>
<!-- Node23 -->
<g id="node23" class="node">
<title>Node23</title>
<g id="a_node23"><a xlink:title=" ">
<polygon fill="white" stroke="#bfbfbf" points="540.5,-125 540.5,-144 676.5,-144 676.5,-125 540.5,-125"/>
<text text-anchor="middle" x="608.5" y="-132" font-family="Helvetica,sans-Serif" font-size="10.00">std::weak_ptr&lt; Player &gt;</text>
</a>
</g>
</g>
<!-- Node23&#45;&gt;Node13 -->
<g id="edge26" class="edge">
<title>Node23&#45;&gt;Node13</title>
<path fill="none" stroke="#9a32cd" stroke-dasharray="5,2" d="M686.75,-133.68C710.75,-133.42 736.26,-133.15 756.73,-132.93"/>
<polygon fill="#9a32cd" stroke="#9a32cd" points="686.54,-130.18 676.58,-133.79 686.61,-137.18 686.54,-130.18"/>
<text text-anchor="middle" x="722" y="-136.5" font-family="Helvetica,sans-Serif" font-size="10.00"> player</text>
</g>
<!-- Node24 -->
<g id="node24" class="node">
<title>Node24</title>
<g id="a_node24"><a xlink:href="classPlayer.html" target="_top" xlink:title="represents a individual player/client">
<polygon fill="white" stroke="black" points="389.5,-123 389.5,-142 436.5,-142 436.5,-123 389.5,-123"/>
<text text-anchor="middle" x="413" y="-130" font-family="Helvetica,sans-Serif" font-size="10.00">Player</text>
</a>
</g>
</g>
<!-- Node24&#45;&gt;Node23 -->
<g id="edge27" class="edge">
<title>Node24&#45;&gt;Node23</title>
<path fill="none" stroke="#9a32cd" stroke-dasharray="5,2" d="M446.82,-132.84C472.37,-133.1 508.68,-133.48 540.33,-133.81"/>
<polygon fill="#9a32cd" stroke="#9a32cd" points="446.61,-129.34 436.58,-132.73 446.54,-136.34 446.61,-129.34"/>
<text text-anchor="middle" x="503.5" y="-136.5" font-family="Helvetica,sans-Serif" font-size="10.00"> ptr</text>
</g>
<!-- Node25 -->
<g id="node25" class="node">
<title>Node25</title>
<g id="a_node25"><a xlink:title="STL class.">
<polygon fill="white" stroke="#bfbfbf" points="165,-100 165,-119 230,-119 230,-100 165,-100"/>
<text text-anchor="middle" x="197.5" y="-107" font-family="Helvetica,sans-Serif" font-size="10.00">std::string</text>
</a>
</g>
</g>
<!-- Node25&#45;&gt;Node24 -->
<g id="edge28" class="edge">
<title>Node25&#45;&gt;Node24</title>
<path fill="none" stroke="#9a32cd" stroke-dasharray="5,2" d="M240.22,-113.99C284.78,-118.79 353.76,-126.23 389.22,-130.05"/>
<polygon fill="#9a32cd" stroke="#9a32cd" points="240.32,-110.49 230,-112.89 239.57,-117.44 240.32,-110.49"/>
<text text-anchor="middle" x="301.5" y="-138.5" font-family="Helvetica,sans-Serif" font-size="10.00"> passphrase</text>
<text text-anchor="middle" x="301.5" y="-127.5" font-family="Helvetica,sans-Serif" font-size="10.00">name</text>
</g>
<!-- Node27 -->
<g id="node27" class="node">
<title>Node27</title>
<g id="a_node27"><a xlink:title=" ">
<polygon fill="white" stroke="#bfbfbf" points="349,-41.5 349,-71.5 477,-71.5 477,-41.5 349,-41.5"/>
<text text-anchor="start" x="357" y="-59.5" font-family="Helvetica,sans-Serif" font-size="10.00">std::map&lt; std::string,</text>
<text text-anchor="middle" x="413" y="-48.5" font-family="Helvetica,sans-Serif" font-size="10.00"> command_mapping &gt;</text>
</a>
</g>
</g>
<!-- Node25&#45;&gt;Node27 -->
<g id="edge34" class="edge">
<title>Node25&#45;&gt;Node27</title>
<path fill="none" stroke="#9a32cd" stroke-dasharray="5,2" d="M239.81,-99.25C271.43,-91.4 315.53,-80.45 351.19,-71.6"/>
<polygon fill="#9a32cd" stroke="#9a32cd" points="238.86,-95.87 230,-101.68 240.55,-102.67 238.86,-95.87"/>
<text text-anchor="middle" x="301.5" y="-94.5" font-family="Helvetica,sans-Serif" font-size="10.00"> keys</text>
</g>
<!-- Node26 -->
<g id="node26" class="node">
<title>Node26</title>
<g id="a_node26"><a xlink:title="STL class.">
<polygon fill="white" stroke="#bfbfbf" points="0,-94.5 0,-124.5 104,-124.5 104,-94.5 0,-94.5"/>
<text text-anchor="start" x="8" y="-112.5" font-family="Helvetica,sans-Serif" font-size="10.00">std::basic_string&lt;</text>
<text text-anchor="middle" x="52" y="-101.5" font-family="Helvetica,sans-Serif" font-size="10.00"> char &gt;</text>
</a>
</g>
</g>
<!-- Node26&#45;&gt;Node25 -->
<g id="edge29" class="edge">
<title>Node26&#45;&gt;Node25</title>
<path fill="none" stroke="midnightblue" d="M114.45,-109.5C131.74,-109.5 149.84,-109.5 164.63,-109.5"/>
<polygon fill="midnightblue" stroke="midnightblue" points="114.4,-106 104.4,-109.5 114.4,-113 114.4,-106"/>
</g>
<!-- Node27&#45;&gt;Node6 -->
<g id="edge32" class="edge">
<title>Node27&#45;&gt;Node6</title>
<path fill="none" stroke="#9a32cd" stroke-dasharray="5,2" d="M487.12,-50.94C523.32,-48.64 567.68,-46.5 607.5,-46.5 607.5,-46.5 607.5,-46.5 2580,-46.5 2677.58,-46.5 2712.49,-64.02 2782,-132.5 2790.81,-141.18 2822.18,-219.06 2833.16,-246.77"/>
<polygon fill="#9a32cd" stroke="#9a32cd" points="486.89,-47.44 477.14,-51.59 487.35,-54.43 486.89,-47.44"/>
<text text-anchor="middle" x="1570" y="-49.5" font-family="Helvetica,sans-Serif" font-size="10.00"> commands</text>
</g>
<!-- Node28 -->
<g id="node28" class="node">
<title>Node28</title>
<g id="a_node28"><a xlink:href="structcommand__mapping.html" target="_top" xlink:title=" ">
<polygon fill="white" stroke="black" points="141,-47 141,-66 254,-66 254,-47 141,-47"/>
<text text-anchor="middle" x="197.5" y="-54" font-family="Helvetica,sans-Serif" font-size="10.00">command_mapping</text>
</a>
</g>
</g>
<!-- Node28&#45;&gt;Node27 -->
<g id="edge33" class="edge">
<title>Node28&#45;&gt;Node27</title>
<path fill="none" stroke="#9a32cd" stroke-dasharray="5,2" d="M264.14,-56.5C291.08,-56.5 322.14,-56.5 348.82,-56.5"/>
<polygon fill="#9a32cd" stroke="#9a32cd" points="264.04,-53 254.04,-56.5 264.04,-60 264.04,-53"/>
<text text-anchor="middle" x="301.5" y="-59.5" font-family="Helvetica,sans-Serif" font-size="10.00"> elements</text>
</g>
<!-- Node29 -->
<g id="node29" class="node">
<title>Node29</title>
<g id="a_node29"><a xlink:href="classGameState.html" target="_top" xlink:title="Represents the current state of the game.">
<polygon fill="white" stroke="black" points="2543.5,-270 2543.5,-289 2614.5,-289 2614.5,-270 2543.5,-270"/>
<text text-anchor="middle" x="2579" y="-277" font-family="Helvetica,sans-Serif" font-size="10.00">GameState</text>
</a>
</g>
</g>
<!-- Node29&#45;&gt;Node6 -->
<g id="edge35" class="edge">
<title>Node29&#45;&gt;Node6</title>
<path fill="none" stroke="#9a32cd" stroke-dasharray="5,2" d="M2624.73,-275.5C2679.22,-270.62 2769.33,-262.56 2812.48,-258.69"/>
<polygon fill="#9a32cd" stroke="#9a32cd" points="2624.31,-272.02 2614.66,-276.4 2624.93,-278.99 2624.31,-272.02"/>
<text text-anchor="middle" x="2728" y="-274.5" font-family="Helvetica,sans-Serif" font-size="10.00"> current_state</text>
</g>
<!-- Node30&#45;&gt;Node29 -->
<g id="edge36" class="edge">
<title>Node30&#45;&gt;Node29</title>
<path fill="none" stroke="#9a32cd" stroke-dasharray="5,2" d="M1776.26,-378.45C1906.03,-368.73 2163.41,-348.12 2381,-322.5 2426.94,-317.09 2438.82,-317.46 2484,-307.5 2506.45,-302.55 2531.36,-295.03 2549.9,-289.03"/>
<polygon fill="#9a32cd" stroke="#9a32cd" points="1775.71,-374.98 1766,-379.21 1776.23,-381.96 1775.71,-374.98"/>
<text text-anchor="middle" x="2088.5" y="-361.5" font-family="Helvetica,sans-Serif" font-size="10.00"> fields</text>
</g>
<!-- Node31&#45;&gt;Node29 -->
<g id="edge39" class="edge">
<title>Node31&#45;&gt;Node29</title>
<path fill="none" stroke="#9a32cd" stroke-dasharray="5,2" d="M2377.28,-192.36C2411.94,-196.76 2453.32,-206.87 2484,-229.5 2496.82,-238.96 2489.27,-250.92 2502,-260.5 2513.85,-269.41 2529.38,-274.18 2543.32,-276.71"/>
<polygon fill="#9a32cd" stroke="#9a32cd" points="2377.56,-188.87 2367.23,-191.22 2376.77,-195.82 2377.56,-188.87"/>
<text text-anchor="middle" x="2441.5" y="-232.5" font-family="Helvetica,sans-Serif" font-size="10.00"> dots_by_id</text>
</g>
<!-- Node32&#45;&gt;Node29 -->
<g id="edge41" class="edge">
<title>Node32&#45;&gt;Node29</title>
<path fill="none" stroke="#9a32cd" stroke-dasharray="5,2" d="M2391.13,-292.77C2441.97,-289.16 2505.04,-284.68 2543.37,-281.96"/>
<polygon fill="#9a32cd" stroke="#9a32cd" points="2390.86,-289.28 2381.13,-293.48 2391.36,-296.27 2390.86,-289.28"/>
<text text-anchor="middle" x="2441.5" y="-295.5" font-family="Helvetica,sans-Serif" font-size="10.00"> dots</text>
</g>
<!-- Node33&#45;&gt;Node29 -->
<g id="edge44" class="edge">
<title>Node33&#45;&gt;Node29</title>
<path fill="none" stroke="#9a32cd" stroke-dasharray="5,2" d="M1909.42,-252.45C1933.69,-253.57 1961.32,-254.5 1986.5,-254.5 1986.5,-254.5 1986.5,-254.5 2310.5,-254.5 2394.46,-254.5 2492.6,-266.86 2543.47,-274.2"/>
<polygon fill="#9a32cd" stroke="#9a32cd" points="1909.4,-248.94 1899.24,-251.96 1909.06,-255.93 1909.4,-248.94"/>
<text text-anchor="middle" x="2088.5" y="-257.5" font-family="Helvetica,sans-Serif" font-size="10.00"> fields_by_id</text>
</g>
<!-- Node34 -->
<g id="node34" class="node">
<title>Node34</title>
<g id="a_node34"><a xlink:title=" ">
<polygon fill="white" stroke="#bfbfbf" points="3061,-182.5 3061,-212.5 3213,-212.5 3213,-182.5 3061,-182.5"/>
<text text-anchor="start" x="3069" y="-200.5" font-family="Helvetica,sans-Serif" font-size="10.00">std::unique_ptr&lt; NewGame</text>
<text text-anchor="middle" x="3137" y="-189.5" font-family="Helvetica,sans-Serif" font-size="10.00">Poll &gt;</text>
</a>
</g>
</g>
<!-- Node34&#45;&gt;Node6 -->
<g id="edge46" class="edge">
<title>Node34&#45;&gt;Node6</title>
<path fill="none" stroke="#9a32cd" stroke-dasharray="5,2" d="M3050.55,-192.78C3010.74,-192.87 2963.18,-196.31 2922,-208.5 2894.71,-216.58 2866.84,-235.28 2851.35,-246.81"/>
<polygon fill="#9a32cd" stroke="#9a32cd" points="3050.75,-196.28 3060.77,-192.83 3050.78,-189.28 3050.75,-196.28"/>
<text text-anchor="middle" x="2965" y="-211.5" font-family="Helvetica,sans-Serif" font-size="10.00"> poll</text>
</g>
<!-- Node35&#45;&gt;Node34 -->
<g id="edge47" class="edge">
<title>Node35&#45;&gt;Node34</title>
<path fill="none" stroke="#9a32cd" stroke-dasharray="5,2" d="M3015.23,-226.63C3033.42,-222.24 3054.27,-217.21 3073.48,-212.58"/>
<polygon fill="#9a32cd" stroke="#9a32cd" points="3014.33,-223.24 3005.43,-228.99 3015.97,-230.05 3014.33,-223.24"/>
<text text-anchor="middle" x="3034.5" y="-226.5" font-family="Helvetica,sans-Serif" font-size="10.00"> ptr</text>
</g>
<!-- Node36&#45;&gt;Node35 -->
<g id="edge50" class="edge">
<title>Node36&#45;&gt;Node35</title>
<path fill="none" stroke="#9a32cd" stroke-dasharray="5,2" d="M2784.29,-36.63C2860.33,-91.07 2859.48,-129.26 2922,-196.5 2932.53,-207.83 2945.14,-220.3 2953.78,-228.69"/>
<polygon fill="#9a32cd" stroke="#9a32cd" points="2785.86,-33.47 2775.66,-30.62 2781.86,-39.21 2785.86,-33.47"/>
<text text-anchor="middle" x="2838" y="-150.5" font-family="Helvetica,sans-Serif" font-size="10.00"> positive_votes</text>
<text text-anchor="middle" x="2838" y="-139.5" font-family="Helvetica,sans-Serif" font-size="10.00">negative_votes</text>
</g>
</g>
</svg>
        <g id="navigator" transform="translate(0 0)" fill="#404254">
                <rect fill="#f2f5e9" fill-opacity="0.5" stroke="#606060" stroke-width=".5" x="0" y="0" width="60" height="60"/>
                <use id="zoomplus" xlink:href="#zoomPlus" x="17" y="9" onmousedown="handleZoom(evt,'in')"/>
                <use id="zoomminus" xlink:href="#zoomMin" x="42" y="9" onmousedown="handleZoom(evt,'out')"/>
                <use id="reset" xlink:href="#resetDef" x="30" y="36" onmousedown="handleReset()"/>
                <g id="arrowUp" xlink:href="#dirArrow" transform="translate(30 24)" onmousedown="handlePan(0,-1)">
                  <use xlink:href="#rim" fill="#404040">
                        <set attributeName="fill" to="#808080" begin="arrowUp.mouseover" end="arrowUp.mouseout"/>
                  </use>
                  <path fill="none" stroke="white" stroke-width="1.5" d="M0,-3.0v7 M-2.5,-0.5L0,-3.0L2.5,-0.5"/>
                </g>
                <g id="arrowRight" xlink:href="#dirArrow" transform="rotate(90) translate(36 -43)" onmousedown="handlePan(1,0)">
                  <use xlink:href="#rim" fill="#404040">
                        <set attributeName="fill" to="#808080" begin="arrowRight.mouseover" end="arrowRight.mouseout"/>
                  </use>
                  <path fill="none" stroke="white" stroke-width="1.5" d="M0,-3.0v7 M-2.5,-0.5L0,-3.0L2.5,-0.5"/>
                </g>
                <g id="arrowDown" xlink:href="#dirArrow" transform="rotate(180) translate(-30 -48)" onmousedown="handlePan(0,1)">
                  <use xlink:href="#rim" fill="#404040">
                        <set attributeName="fill" to="#808080" begin="arrowDown.mouseover" end="arrowDown.mouseout"/>
                  </use>
                  <path fill="none" stroke="white" stroke-width="1.5" d="M0,-3.0v7 M-2.5,-0.5L0,-3.0L2.5,-0.5"/>
                </g>
                <g id="arrowLeft" xlink:href="#dirArrow" transform="rotate(270) translate(-36 17)" onmousedown="handlePan(-1,0)">
                  <use xlink:href="#rim" fill="#404040">
                        <set attributeName="fill" to="#808080" begin="arrowLeft.mouseover" end="arrowLeft.mouseout"/>
                  </use>
                  <path fill="none" stroke="white" stroke-width="1.5" d="M0,-3.0v7 M-2.5,-0.5L0,-3.0L2.5,-0.5"/>
                </g>
        </g>
        <svg viewBox="0 0 15 15" width="100%" height="30px" preserveAspectRatio="xMaxYMin meet">
         <g id="arrow_out" transform="scale(0.3 0.3)">
          <a xlink:href="classNetwork__coll__graph_org.svg" target="_base">
           <rect id="button" ry="5" rx="5" y="6" x="6" height="38" width="38"
                fill="#f2f5e9" fill-opacity="0.5" stroke="#606060" stroke-width="1.0"/>
           <path id="arrow"
             d="M 11.500037,31.436501 C 11.940474,20.09759 22.043105,11.32322 32.158766,21.979434 L 37.068811,17.246167 C 37.068811,17.246167 37.088388,32 37.088388,32 L 22.160133,31.978069 C 22.160133,31.978069 26.997745,27.140456 26.997745,27.140456 C 18.528582,18.264221 13.291696,25.230495 11.500037,31.436501 z"
             style="fill:#404040;"/>
          </a>
         </g>
        </svg>
</svg>
