<?xml version="1.0" encoding="UTF-8" standalone="no"?>
<!DOCTYPE svg PUBLIC "-//W3C//DTD SVG 1.1//EN"
 "http://www.w3.org/Graphics/SVG/1.1/DTD/svg11.dtd">
<!-- Generated by graphviz version 2.43.0 (0)
 -->
<!-- Title: Galaxy::toJson Pages: 1 -->
<svg width="397pt" height="66pt"
 viewBox="0.00 0.00 397.00 66.00" xmlns="http://www.w3.org/2000/svg" xmlns:xlink="http://www.w3.org/1999/xlink">
<g id="graph0" class="graph" transform="scale(1 1) rotate(0) translate(4 62)">
<title>Galaxy::toJson</title>
<polygon fill="white" stroke="transparent" points="-4,4 -4,-62 393,-62 393,4 -4,4"/>
<!-- Node1 -->
<g id="node1" class="node">
<title>Node1</title>
<g id="a_node1"><a xlink:title="generates a json object of the current state of the galaxy">
<polygon fill="#bfbfbf" stroke="black" points="303,-19.5 303,-38.5 389,-38.5 389,-19.5 303,-19.5"/>
<text text-anchor="middle" x="346" y="-26.5" font-family="Helvetica,sans-Serif" font-size="10.00">Galaxy::toJson</text>
</a>
</g>
</g>
<!-- Node2 -->
<g id="node2" class="node">
<title>Node2</title>
<g id="a_node2"><a xlink:href="classGalaxy.html#aabdcaeeeee79d265ed8f2b656e0f8e21" target="_top" xlink:title="generates a new Game">
<polygon fill="white" stroke="black" points="156.5,-38.5 156.5,-57.5 262.5,-57.5 262.5,-38.5 156.5,-38.5"/>
<text text-anchor="middle" x="209.5" y="-45.5" font-family="Helvetica,sans-Serif" font-size="10.00">Galaxy::newGame</text>
</a>
</g>
</g>
<!-- Node1&#45;&gt;Node2 -->
<g id="edge1" class="edge">
<title>Node1&#45;&gt;Node2</title>
<path fill="none" stroke="midnightblue" d="M292.8,-36.37C283.01,-37.76 272.76,-39.2 262.96,-40.59"/>
<polygon fill="midnightblue" stroke="midnightblue" points="293.4,-39.82 302.81,-34.96 292.42,-32.89 293.4,-39.82"/>
</g>
<!-- Node4 -->
<g id="node4" class="node">
<title>Node4</title>
<g id="a_node4"><a xlink:href="classGalaxy.html#a4a3100bfbe43c0ac7243decec3753a35" target="_top" xlink:title=" ">
<polygon fill="white" stroke="black" points="152,-0.5 152,-19.5 267,-19.5 267,-0.5 152,-0.5"/>
<text text-anchor="middle" x="209.5" y="-7.5" font-family="Helvetica,sans-Serif" font-size="10.00">Galaxy::playerSetup</text>
</a>
</g>
</g>
<!-- Node1&#45;&gt;Node4 -->
<g id="edge3" class="edge">
<title>Node1&#45;&gt;Node4</title>
<path fill="none" stroke="midnightblue" d="M292.82,-21.63C284.47,-20.45 275.79,-19.22 267.33,-18.03"/>
<polygon fill="midnightblue" stroke="midnightblue" points="292.42,-25.11 302.81,-23.04 293.4,-18.18 292.42,-25.11"/>
</g>
<!-- Node3 -->
<g id="node3" class="node">
<title>Node3</title>
<g id="a_node3"><a xlink:href="classNewGamePoll.html#a21cbd2f6e503256b0f57010b4b63f6a6" target="_top" xlink:title=" ">
<polygon fill="white" stroke="black" points="0,-38.5 0,-57.5 116,-57.5 116,-38.5 0,-38.5"/>
<text text-anchor="middle" x="58" y="-45.5" font-family="Helvetica,sans-Serif" font-size="10.00">NewGamePoll::reset</text>
</a>
</g>
</g>
<!-- Node2&#45;&gt;Node3 -->
<g id="edge2" class="edge">
<title>Node2&#45;&gt;Node3</title>
<path fill="none" stroke="midnightblue" d="M146.02,-48C136.1,-48 125.88,-48 116.1,-48"/>
<polygon fill="midnightblue" stroke="midnightblue" points="146.21,-51.5 156.21,-48 146.21,-44.5 146.21,-51.5"/>
</g>
<!-- Node5 -->
<g id="node5" class="node">
<title>Node5</title>
<g id="a_node5"><a xlink:href="classGalaxy.html#aac431eec66d158f5f82cdbc3eec39586" target="_top" xlink:title="Construct a new Galaxy object with a default GameState of 10 x 10 Fields.">
<polygon fill="white" stroke="black" points="12.5,-0.5 12.5,-19.5 103.5,-19.5 103.5,-0.5 12.5,-0.5"/>
<text text-anchor="middle" x="58" y="-7.5" font-family="Helvetica,sans-Serif" font-size="10.00">Galaxy::Galaxy</text>
</a>
</g>
</g>
<!-- Node4&#45;&gt;Node5 -->
<g id="edge4" class="edge">
<title>Node4&#45;&gt;Node5</title>
<path fill="none" stroke="midnightblue" d="M141.81,-10C129,-10 115.87,-10 103.96,-10"/>
<polygon fill="midnightblue" stroke="midnightblue" points="141.98,-13.5 151.98,-10 141.98,-6.5 141.98,-13.5"/>
</g>
</g>
</svg>
