<?xml version="1.0" encoding="UTF-8" standalone="no"?>
<!DOCTYPE svg PUBLIC "-//W3C//DTD SVG 1.1//EN"
 "http://www.w3.org/Graphics/SVG/1.1/DTD/svg11.dtd">
<!-- Generated by graphviz version 2.43.0 (0)
 -->
<!-- Title: Galaxy::Galaxy Pages: 1 -->
<svg width="575pt" height="161pt"
 viewBox="0.00 0.00 575.00 161.00" xmlns="http://www.w3.org/2000/svg" xmlns:xlink="http://www.w3.org/1999/xlink">
<g id="graph0" class="graph" transform="scale(1 1) rotate(0) translate(4 157)">
<title>Galaxy::Galaxy</title>
<polygon fill="white" stroke="transparent" points="-4,4 -4,-157 571,-157 571,4 -4,4"/>
<!-- Node1 -->
<g id="node1" class="node">
<title>Node1</title>
<g id="a_node1"><a xlink:title="Construct a new Galaxy object with a default GameState of 10 x 10 Fields.">
<polygon fill="#bfbfbf" stroke="black" points="0,-76.5 0,-95.5 91,-95.5 91,-76.5 0,-76.5"/>
<text text-anchor="middle" x="45.5" y="-83.5" font-family="Helvetica,sans-Serif" font-size="10.00">Galaxy::Galaxy</text>
</a>
</g>
</g>
<!-- Node2 -->
<g id="node2" class="node">
<title>Node2</title>
<g id="a_node2"><a xlink:href="classGalaxy.html#a2e2b85249f4321c2e365e6800cea2a7f" target="_top" xlink:title=" ">
<polygon fill="white" stroke="black" points="152.5,-133.5 152.5,-152.5 250.5,-152.5 250.5,-133.5 152.5,-133.5"/>
<text text-anchor="middle" x="201.5" y="-140.5" font-family="Helvetica,sans-Serif" font-size="10.00">Galaxy::castVote</text>
</a>
</g>
</g>
<!-- Node1&#45;&gt;Node2 -->
<g id="edge1" class="edge">
<title>Node1&#45;&gt;Node2</title>
<path fill="none" stroke="midnightblue" d="M64.31,-95.6C80.35,-103.96 104.76,-115.96 127,-124 133.82,-126.47 141.1,-128.75 148.33,-130.81"/>
<polygon fill="midnightblue" stroke="midnightblue" points="147.54,-134.23 158.11,-133.49 149.39,-127.47 147.54,-134.23"/>
</g>
<!-- Node3 -->
<g id="node3" class="node">
<title>Node3</title>
<g id="a_node3"><a xlink:href="classGalaxy.html#aabe9c4c5e1f5db027b2296b10d3da11e" target="_top" xlink:title="converts data from the client into a GameChange and applies it">
<polygon fill="white" stroke="black" points="127,-95.5 127,-114.5 276,-114.5 276,-95.5 127,-95.5"/>
<text text-anchor="middle" x="201.5" y="-102.5" font-family="Helvetica,sans-Serif" font-size="10.00">Galaxy::makeGameChange</text>
</a>
</g>
</g>
<!-- Node1&#45;&gt;Node3 -->
<g id="edge2" class="edge">
<title>Node1&#45;&gt;Node3</title>
<path fill="none" stroke="midnightblue" d="M91.04,-91.5C99.18,-92.5 107.9,-93.58 116.74,-94.67"/>
<polygon fill="midnightblue" stroke="midnightblue" points="116.4,-98.15 126.75,-95.9 117.26,-91.2 116.4,-98.15"/>
</g>
<!-- Node5 -->
<g id="node5" class="node">
<title>Node5</title>
<g id="a_node5"><a xlink:href="classGalaxy.html#a0b74cf01c87755dac2f6b545f0871530" target="_top" xlink:title=" ">
<polygon fill="white" stroke="black" points="151,-57.5 151,-76.5 252,-76.5 252,-57.5 151,-57.5"/>
<text text-anchor="middle" x="201.5" y="-64.5" font-family="Helvetica,sans-Serif" font-size="10.00">Galaxy::makePoll</text>
</a>
</g>
</g>
<!-- Node1&#45;&gt;Node5 -->
<g id="edge4" class="edge">
<title>Node1&#45;&gt;Node5</title>
<path fill="none" stroke="midnightblue" d="M91.04,-80.5C106.57,-78.59 124.24,-76.41 140.79,-74.37"/>
<polygon fill="midnightblue" stroke="midnightblue" points="141.43,-77.81 150.92,-73.12 140.57,-70.87 141.43,-77.81"/>
</g>
<!-- Node6 -->
<g id="node6" class="node">
<title>Node6</title>
<g id="a_node6"><a xlink:href="classGalaxy.html#a4a3100bfbe43c0ac7243decec3753a35" target="_top" xlink:title=" ">
<polygon fill="white" stroke="black" points="144,-19.5 144,-38.5 259,-38.5 259,-19.5 144,-19.5"/>
<text text-anchor="middle" x="201.5" y="-26.5" font-family="Helvetica,sans-Serif" font-size="10.00">Galaxy::playerSetup</text>
</a>
</g>
</g>
<!-- Node1&#45;&gt;Node6 -->
<g id="edge5" class="edge">
<title>Node1&#45;&gt;Node6</title>
<path fill="none" stroke="midnightblue" d="M64.31,-76.4C80.35,-68.04 104.76,-56.04 127,-48 133.82,-45.53 141.1,-43.25 148.33,-41.19"/>
<polygon fill="midnightblue" stroke="midnightblue" points="149.39,-44.53 158.11,-38.51 147.54,-37.77 149.39,-44.53"/>
</g>
<!-- Node4 -->
<g id="node4" class="node">
<title>Node4</title>
<g id="a_node4"><a xlink:href="classNetwork.html#a57f3c2d8b53d214d26822a52b899d69f" target="_top" xlink:title="broadcast to all players">
<polygon fill="white" stroke="black" points="312,-85.5 312,-104.5 424,-104.5 424,-85.5 312,-85.5"/>
<text text-anchor="middle" x="368" y="-92.5" font-family="Helvetica,sans-Serif" font-size="10.00">Network::broadcast</text>
</a>
</g>
</g>
<!-- Node3&#45;&gt;Node4 -->
<g id="edge3" class="edge">
<title>Node3&#45;&gt;Node4</title>
<path fill="none" stroke="midnightblue" d="M276.09,-100.53C284.6,-100.01 293.24,-99.48 301.64,-98.97"/>
<polygon fill="midnightblue" stroke="midnightblue" points="301.96,-102.46 311.73,-98.36 301.54,-95.47 301.96,-102.46"/>
</g>
<!-- Node6&#45;&gt;Node4 -->
<g id="edge6" class="edge">
<title>Node6&#45;&gt;Node4</title>
<path fill="none" stroke="midnightblue" d="M246.17,-38.5C256.12,-41.16 266.54,-44.34 276,-48 292.87,-54.53 295.94,-58.67 312,-67 320.8,-71.56 330.43,-76.49 339.13,-80.91"/>
<polygon fill="midnightblue" stroke="midnightblue" points="337.63,-84.07 348.13,-85.48 340.79,-77.83 337.63,-84.07"/>
</g>
<!-- Node7 -->
<g id="node7" class="node">
<title>Node7</title>
<g id="a_node7"><a xlink:href="classNetwork.html#ad25ed6c4d5a404ed6ca66ecec14b569a" target="_top" xlink:title="send a message to a player">
<polygon fill="white" stroke="black" points="324.5,-38.5 324.5,-57.5 411.5,-57.5 411.5,-38.5 324.5,-38.5"/>
<text text-anchor="middle" x="368" y="-45.5" font-family="Helvetica,sans-Serif" font-size="10.00">Network::send</text>
</a>
</g>
</g>
<!-- Node6&#45;&gt;Node7 -->
<g id="edge7" class="edge">
<title>Node6&#45;&gt;Node7</title>
<path fill="none" stroke="midnightblue" d="M259.11,-35.54C276.98,-37.6 296.64,-39.87 314.23,-41.91"/>
<polygon fill="midnightblue" stroke="midnightblue" points="313.98,-45.4 324.32,-43.07 314.79,-38.45 313.98,-45.4"/>
</g>
<!-- Node8 -->
<g id="node8" class="node">
<title>Node8</title>
<g id="a_node8"><a xlink:href="classGalaxy.html#ad74f8049b46bdd7c1aafbc0225eaaae1" target="_top" xlink:title="generates a json object of the current state of the galaxy">
<polygon fill="white" stroke="black" points="325,-0.5 325,-19.5 411,-19.5 411,-0.5 325,-0.5"/>
<text text-anchor="middle" x="368" y="-7.5" font-family="Helvetica,sans-Serif" font-size="10.00">Galaxy::toJson</text>
</a>
</g>
</g>
<!-- Node6&#45;&gt;Node8 -->
<g id="edge8" class="edge">
<title>Node6&#45;&gt;Node8</title>
<path fill="none" stroke="midnightblue" d="M259.11,-22.46C277.14,-20.38 296.98,-18.09 314.69,-16.04"/>
<polygon fill="midnightblue" stroke="midnightblue" points="315.31,-19.49 324.84,-14.87 314.5,-12.54 315.31,-19.49"/>
</g>
<!-- Node9 -->
<g id="node9" class="node">
<title>Node9</title>
<g id="a_node9"><a xlink:href="classGameState.html#a77597717c0d0b6d4e93c7f299cf3f315" target="_top" xlink:title=" ">
<polygon fill="white" stroke="black" points="460,-0.5 460,-19.5 567,-19.5 567,-0.5 460,-0.5"/>
<text text-anchor="middle" x="513.5" y="-7.5" font-family="Helvetica,sans-Serif" font-size="10.00">GameState::toJson</text>
</a>
</g>
</g>
<!-- Node8&#45;&gt;Node9 -->
<g id="edge9" class="edge">
<title>Node8&#45;&gt;Node9</title>
<path fill="none" stroke="midnightblue" d="M411.28,-10C423.28,-10 436.62,-10 449.56,-10"/>
<polygon fill="midnightblue" stroke="midnightblue" points="449.83,-13.5 459.83,-10 449.83,-6.5 449.83,-13.5"/>
</g>
</g>
</svg>
