<?xml version="1.0" encoding="UTF-8" standalone="no"?>
<!DOCTYPE svg PUBLIC "-//W3C//DTD SVG 1.1//EN"
 "http://www.w3.org/Graphics/SVG/1.1/DTD/svg11.dtd">
<!-- Generated by graphviz version 2.43.0 (0)
 -->
<!-- Title: GameGen::generateDots Pages: 1 -->
<!--zoomable 218 -->
<svg id="main" version="1.1" xmlns="http://www.w3.org/2000/svg" xmlns:xlink="http://www.w3.org/1999/xlink" xml:space="preserve" onload="init(evt)">
<style type="text/css"><![CDATA[
.edge:hover path { stroke: red; }
.edge:hover polygon { stroke: red; fill: red; }
]]></style>
<script type="text/javascript"><![CDATA[
var edges = document.getElementsByTagName('g');
if (edges && edges.length) {
  for (var i=0;i<edges.length;i++) {
    if (edges[i].id.substr(0,4)=='edge') {
      edges[i].setAttribute('class','edge');
    }
  }
}
]]></script>
        <defs>
                <circle id="rim" cx="0" cy="0" r="7"/>
                <circle id="rim2" cx="0" cy="0" r="3.5"/>
                <g id="zoomPlus">
                        <use xlink:href="#rim" fill="#404040">
                                <set attributeName="fill" to="#808080" begin="zoomplus.mouseover" end="zoomplus.mouseout"/>
                        </use>
                        <path d="M-4,0h8M0,-4v8" fill="none" stroke="white" stroke-width="1.5" pointer-events="none"/>
                </g>
                <g id="zoomMin">
                        <use xlink:href="#rim" fill="#404040">
                                <set attributeName="fill" to="#808080" begin="zoomminus.mouseover" end="zoomminus.mouseout"/>
                        </use>
                        <path d="M-4,0h8" fill="none" stroke="white" stroke-width="1.5" pointer-events="none"/>
                </g>
                <g id="dirArrow">
                        <path fill="none" stroke="white" stroke-width="1.5" d="M0,-3.0v7 M-2.5,-0.5L0,-3.0L2.5,-0.5"/>
                </g>
               <g id="resetDef">
                       <use xlink:href="#rim2" fill="#404040">
                               <set attributeName="fill" to="#808080" begin="reset.mouseover" end="reset.mouseout"/>
                       </use>
               </g>
        </defs>

<script type="text/javascript">
var viewWidth = 1036;
var viewHeight = 218;
var sectionId = 'dynsection-5';
</script>
<script xlink:href="svgpan.js"/>
<svg id="graph" class="graph">
<g id="viewport">
<title>GameGen::generateDots</title>
<polygon fill="white" stroke="transparent" points="-4,4 -4,-214 1032,-214 1032,4 -4,4"/>
<!-- Node1 -->
<g id="node1" class="node">
<title>Node1</title>
<g id="a_node1"><a xlink:title=" ">
<polygon fill="#bfbfbf" stroke="black" points="0,-76.5 0,-95.5 137,-95.5 137,-76.5 0,-76.5"/>
<text text-anchor="middle" x="68.5" y="-83.5" font-family="Helvetica,sans-Serif" font-size="10.00">GameGen::generateDots</text>
</a>
</g>
</g>
<!-- Node2 -->
<g id="node2" class="node">
<title>Node2</title>
<g id="a_node2"><a xlink:href="classGameGen.html#a089409f51b983de8bb697d1fe0654f52" target="_top" xlink:title=" ">
<polygon fill="white" stroke="black" points="175,-133.5 175,-152.5 332,-152.5 332,-133.5 175,-133.5"/>
<text text-anchor="middle" x="253.5" y="-140.5" font-family="Helvetica,sans-Serif" font-size="10.00">GameGen::countEmptySpots</text>
</a>
</g>
</g>
<!-- Node1&#45;&gt;Node2 -->
<g id="edge1" class="edge">
<title>Node1&#45;&gt;Node2</title>
<path fill="none" stroke="midnightblue" d="M93.08,-95.55C113.88,-103.77 145.15,-115.59 173,-124 181.2,-126.48 189.96,-128.84 198.55,-131.01"/>
<polygon fill="midnightblue" stroke="midnightblue" points="197.97,-134.47 208.52,-133.46 199.64,-127.67 197.97,-134.47"/>
</g>
<!-- Node3 -->
<g id="node3" class="node">
<title>Node3</title>
<g id="a_node3"><a xlink:href="classGameGen.html#a9c5f9fb6e374bcb13bbba2497f8d30cb" target="_top" xlink:title=" ">
<polygon fill="white" stroke="black" points="173,-95.5 173,-114.5 334,-114.5 334,-95.5 173,-95.5"/>
<text text-anchor="middle" x="253.5" y="-102.5" font-family="Helvetica,sans-Serif" font-size="10.00">GameGen::generateNextDots</text>
</a>
</g>
</g>
<!-- Node1&#45;&gt;Node3 -->
<g id="edge2" class="edge">
<title>Node1&#45;&gt;Node3</title>
<path fill="none" stroke="midnightblue" d="M137.12,-93.02C145.47,-93.89 154.09,-94.78 162.7,-95.68"/>
<polygon fill="midnightblue" stroke="midnightblue" points="162.47,-99.17 172.78,-96.72 163.19,-92.21 162.47,-99.17"/>
</g>
<!-- Node13 -->
<g id="node13" class="node">
<title>Node13</title>
<g id="a_node13"><a xlink:href="classGameGen.html#adf0f3f49cf25c9d3af2f66928bc059d3" target="_top" xlink:title=" ">
<polygon fill="white" stroke="black" points="190,-57.5 190,-76.5 317,-76.5 317,-57.5 190,-57.5"/>
<text text-anchor="middle" x="253.5" y="-64.5" font-family="Helvetica,sans-Serif" font-size="10.00">GameGen::getPatterns</text>
</a>
</g>
</g>
<!-- Node1&#45;&gt;Node13 -->
<g id="edge16" class="edge">
<title>Node1&#45;&gt;Node13</title>
<path fill="none" stroke="midnightblue" d="M137.12,-78.98C150.97,-77.54 165.6,-76.02 179.62,-74.57"/>
<polygon fill="midnightblue" stroke="midnightblue" points="180.12,-78.03 189.7,-73.52 179.39,-71.07 180.12,-78.03"/>
</g>
<!-- Node14 -->
<g id="node14" class="node">
<title>Node14</title>
<g id="a_node14"><a xlink:href="classGameGen.html#ac0bebf96b2d23f9d06cd8ca1c8b80e55" target="_top" xlink:title=" ">
<polygon fill="white" stroke="black" points="183.5,-19.5 183.5,-38.5 323.5,-38.5 323.5,-19.5 183.5,-19.5"/>
<text text-anchor="middle" x="253.5" y="-26.5" font-family="Helvetica,sans-Serif" font-size="10.00">GameGen::printDotSpace</text>
</a>
</g>
</g>
<!-- Node1&#45;&gt;Node14 -->
<g id="edge17" class="edge">
<title>Node1&#45;&gt;Node14</title>
<path fill="none" stroke="midnightblue" d="M93.08,-76.45C113.88,-68.23 145.15,-56.41 173,-48 181.2,-45.52 189.96,-43.16 198.55,-40.99"/>
<polygon fill="midnightblue" stroke="midnightblue" points="199.64,-44.33 208.52,-38.54 197.97,-37.53 199.64,-44.33"/>
</g>
<!-- Node4 -->
<g id="node4" class="node">
<title>Node4</title>
<g id="a_node4"><a xlink:href="classGameGen.html#a7f1de577fbe021ce42b1851ce313a53c" target="_top" xlink:title=" ">
<polygon fill="white" stroke="black" points="370,-95.5 370,-114.5 561,-114.5 561,-95.5 370,-95.5"/>
<text text-anchor="middle" x="465.5" y="-102.5" font-family="Helvetica,sans-Serif" font-size="10.00">GameGen::generateGalaxyFromDot</text>
</a>
</g>
</g>
<!-- Node3&#45;&gt;Node4 -->
<g id="edge3" class="edge">
<title>Node3&#45;&gt;Node4</title>
<path fill="none" stroke="midnightblue" d="M334.19,-105C342.53,-105 351.1,-105 359.66,-105"/>
<polygon fill="midnightblue" stroke="midnightblue" points="359.7,-108.5 369.7,-105 359.7,-101.5 359.7,-108.5"/>
</g>
<!-- Node9 -->
<g id="node9" class="node">
<title>Node9</title>
<g id="a_node9"><a xlink:href="classGameGen.html#a0ac01e2e7044e85842deff2d1925138f" target="_top" xlink:title=" ">
<polygon fill="white" stroke="black" points="385,-33 385,-63 546,-63 546,-33 385,-33"/>
<text text-anchor="start" x="393" y="-51" font-family="Helvetica,sans-Serif" font-size="10.00">GameGen::generateNextDots</text>
<text text-anchor="middle" x="465.5" y="-40" font-family="Helvetica,sans-Serif" font-size="10.00">ByPattern</text>
</a>
</g>
</g>
<!-- Node3&#45;&gt;Node9 -->
<g id="edge9" class="edge">
<title>Node3&#45;&gt;Node9</title>
<path fill="none" stroke="midnightblue" d="M296.27,-95.42C308.46,-92.52 321.79,-89.23 334,-86 357.45,-79.79 383.1,-72.44 405.42,-65.87"/>
<polygon fill="midnightblue" stroke="midnightblue" points="406.49,-69.2 415.08,-63.01 404.5,-62.49 406.49,-69.2"/>
</g>
<!-- Node11 -->
<g id="node11" class="node">
<title>Node11</title>
<g id="a_node11"><a xlink:href="classGameGen.html#a79ecced48a44e20cb7ebfb96b8d89648" target="_top" xlink:title=" ">
<polygon fill="white" stroke="black" points="379,-147 379,-177 552,-177 552,-147 379,-147"/>
<text text-anchor="start" x="387" y="-165" font-family="Helvetica,sans-Serif" font-size="10.00">GameGen::generateRandomDot</text>
<text text-anchor="middle" x="465.5" y="-154" font-family="Helvetica,sans-Serif" font-size="10.00">InEmptySpot</text>
</a>
</g>
</g>
<!-- Node3&#45;&gt;Node11 -->
<g id="edge12" class="edge">
<title>Node3&#45;&gt;Node11</title>
<path fill="none" stroke="midnightblue" d="M296.27,-114.58C308.46,-117.48 321.79,-120.77 334,-124 357.45,-130.21 383.1,-137.56 405.42,-144.13"/>
<polygon fill="midnightblue" stroke="midnightblue" points="404.5,-147.51 415.08,-146.99 406.49,-140.8 404.5,-147.51"/>
</g>
<!-- Node5 -->
<g id="node5" class="node">
<title>Node5</title>
<g id="a_node5"><a xlink:href="classGameGen.html#a4d7754bc07fc51f98c7d1855f242cb6d" target="_top" xlink:title=" ">
<polygon fill="white" stroke="black" points="618,-114.5 618,-133.5 776,-133.5 776,-114.5 618,-114.5"/>
<text text-anchor="middle" x="697" y="-121.5" font-family="Helvetica,sans-Serif" font-size="10.00">GameGen::addFieldToGalaxy</text>
</a>
</g>
</g>
<!-- Node4&#45;&gt;Node5 -->
<g id="edge4" class="edge">
<title>Node4&#45;&gt;Node5</title>
<path fill="none" stroke="midnightblue" d="M561.17,-112.84C576.52,-114.11 592.36,-115.42 607.56,-116.68"/>
<polygon fill="midnightblue" stroke="midnightblue" points="607.7,-120.2 617.96,-117.54 608.28,-113.23 607.7,-120.2"/>
</g>
<!-- Node7 -->
<g id="node7" class="node">
<title>Node7</title>
<g id="a_node7"><a xlink:href="classGameGen.html#ae65dd677544a65013b8a1e42ea0f6a4f" target="_top" xlink:title=" ">
<polygon fill="white" stroke="black" points="853.5,-76.5 853.5,-95.5 1007.5,-95.5 1007.5,-76.5 853.5,-76.5"/>
<text text-anchor="middle" x="930.5" y="-83.5" font-family="Helvetica,sans-Serif" font-size="10.00">GameGen::markAsOccupied</text>
</a>
</g>
</g>
<!-- Node4&#45;&gt;Node7 -->
<g id="edge8" class="edge">
<title>Node4&#45;&gt;Node7</title>
<path fill="none" stroke="midnightblue" d="M561.03,-101.12C643.84,-97.72 763.17,-92.83 843.38,-89.53"/>
<polygon fill="midnightblue" stroke="midnightblue" points="843.6,-93.03 853.45,-89.12 843.32,-86.03 843.6,-93.03"/>
</g>
<!-- Node6 -->
<g id="node6" class="node">
<title>Node6</title>
<g id="a_node6"><a xlink:href="classGameGen.html#a94a31b172f9dec5fb0b889201deedd94" target="_top" xlink:title=" ">
<polygon fill="white" stroke="black" points="850.5,-177 850.5,-207 1010.5,-207 1010.5,-177 850.5,-177"/>
<text text-anchor="start" x="858.5" y="-195" font-family="Helvetica,sans-Serif" font-size="10.00">GameGen::calculateNeighbor</text>
<text text-anchor="middle" x="930.5" y="-184" font-family="Helvetica,sans-Serif" font-size="10.00">Weight</text>
</a>
</g>
</g>
<!-- Node5&#45;&gt;Node6 -->
<g id="edge5" class="edge">
<title>Node5&#45;&gt;Node6</title>
<path fill="none" stroke="midnightblue" d="M730.68,-133.6C766.37,-144.08 824.32,-161.11 868.48,-174.08"/>
<polygon fill="midnightblue" stroke="midnightblue" points="867.66,-177.48 878.24,-176.94 869.64,-170.77 867.66,-177.48"/>
</g>
<!-- Node5&#45;&gt;Node7 -->
<g id="edge6" class="edge">
<title>Node5&#45;&gt;Node7</title>
<path fill="none" stroke="midnightblue" d="M756.12,-114.46C788.04,-109.22 827.82,-102.69 861.21,-97.21"/>
<polygon fill="midnightblue" stroke="midnightblue" points="862.06,-100.62 871.36,-95.54 860.92,-93.71 862.06,-100.62"/>
</g>
<!-- Node8 -->
<g id="node8" class="node">
<title>Node8</title>
<g id="a_node8"><a xlink:href="classGameGen.html#a02490de53b4901bde30c6600dadf33c0" target="_top" xlink:title=" ">
<polygon fill="white" stroke="black" points="833,-130.5 833,-149.5 1028,-149.5 1028,-130.5 833,-130.5"/>
<text text-anchor="middle" x="930.5" y="-137.5" font-family="Helvetica,sans-Serif" font-size="10.00">GameGen::printDotSpaceCandidates</text>
</a>
</g>
</g>
<!-- Node5&#45;&gt;Node8 -->
<g id="edge7" class="edge">
<title>Node5&#45;&gt;Node8</title>
<path fill="none" stroke="midnightblue" d="M776.05,-129.39C791.02,-130.43 806.93,-131.53 822.62,-132.61"/>
<polygon fill="midnightblue" stroke="midnightblue" points="822.67,-136.13 832.89,-133.32 823.16,-129.14 822.67,-136.13"/>
</g>
<!-- Node9&#45;&gt;Node7 -->
<g id="edge11" class="edge">
<title>Node9&#45;&gt;Node7</title>
<path fill="none" stroke="midnightblue" d="M546.09,-54.53C628.83,-61.32 757.91,-71.92 843.09,-78.91"/>
<polygon fill="midnightblue" stroke="midnightblue" points="843,-82.41 853.25,-79.74 843.57,-75.44 843,-82.41"/>
</g>
<!-- Node10 -->
<g id="node10" class="node">
<title>Node10</title>
<g id="a_node10"><a xlink:href="classGameGen.html#a63a2ff5e0ad3f88436c8ee9584ddeb40" target="_top" xlink:title=" ">
<polygon fill="white" stroke="black" points="636,-0.5 636,-19.5 758,-19.5 758,-0.5 636,-0.5"/>
<text text-anchor="middle" x="697" y="-7.5" font-family="Helvetica,sans-Serif" font-size="10.00">GameGen::addBorder</text>
</a>
</g>
</g>
<!-- Node9&#45;&gt;Node10 -->
<g id="edge10" class="edge">
<title>Node9&#45;&gt;Node10</title>
<path fill="none" stroke="midnightblue" d="M546.12,-34.82C572.98,-30.37 602.68,-25.45 628.51,-21.17"/>
<polygon fill="midnightblue" stroke="midnightblue" points="629.28,-24.59 638.58,-19.51 628.14,-17.69 629.28,-24.59"/>
</g>
<!-- Node11&#45;&gt;Node8 -->
<g id="edge15" class="edge">
<title>Node11&#45;&gt;Node8</title>
<path fill="none" stroke="midnightblue" d="M552.23,-157.93C628.52,-154.3 740.4,-148.99 822.53,-145.08"/>
<polygon fill="midnightblue" stroke="midnightblue" points="822.82,-148.57 832.64,-144.6 822.49,-141.58 822.82,-148.57"/>
</g>
<!-- Node12 -->
<g id="node12" class="node">
<title>Node12</title>
<g id="a_node12"><a xlink:href="classGameGen.html#aadd8ef21319cbd62abfb20303783641a" target="_top" xlink:title=" ">
<polygon fill="white" stroke="black" points="597,-190.5 597,-209.5 797,-209.5 797,-190.5 597,-190.5"/>
<text text-anchor="middle" x="697" y="-197.5" font-family="Helvetica,sans-Serif" font-size="10.00">GameGen::getRandomDotCandidates</text>
</a>
</g>
</g>
<!-- Node11&#45;&gt;Node12 -->
<g id="edge13" class="edge">
<title>Node11&#45;&gt;Node12</title>
<path fill="none" stroke="midnightblue" d="M552.28,-176.2C577.46,-180.37 604.63,-184.87 628.49,-188.82"/>
<polygon fill="midnightblue" stroke="midnightblue" points="628.07,-192.3 638.5,-190.48 629.21,-185.39 628.07,-192.3"/>
</g>
<!-- Node12&#45;&gt;Node6 -->
<g id="edge14" class="edge">
<title>Node12&#45;&gt;Node6</title>
<path fill="none" stroke="midnightblue" d="M797.18,-196.57C811.5,-196.08 826.17,-195.57 840.28,-195.08"/>
<polygon fill="midnightblue" stroke="midnightblue" points="840.57,-198.58 850.44,-194.73 840.32,-191.58 840.57,-198.58"/>
</g>
</g>
</svg>
        <g id="navigator" transform="translate(0 0)" fill="#404254">
                <rect fill="#f2f5e9" fill-opacity="0.5" stroke="#606060" stroke-width=".5" x="0" y="0" width="60" height="60"/>
                <use id="zoomplus" xlink:href="#zoomPlus" x="17" y="9" onmousedown="handleZoom(evt,'in')"/>
                <use id="zoomminus" xlink:href="#zoomMin" x="42" y="9" onmousedown="handleZoom(evt,'out')"/>
                <use id="reset" xlink:href="#resetDef" x="30" y="36" onmousedown="handleReset()"/>
                <g id="arrowUp" xlink:href="#dirArrow" transform="translate(30 24)" onmousedown="handlePan(0,-1)">
                  <use xlink:href="#rim" fill="#404040">
                        <set attributeName="fill" to="#808080" begin="arrowUp.mouseover" end="arrowUp.mouseout"/>
                  </use>
                  <path fill="none" stroke="white" stroke-width="1.5" d="M0,-3.0v7 M-2.5,-0.5L0,-3.0L2.5,-0.5"/>
                </g>
                <g id="arrowRight" xlink:href="#dirArrow" transform="rotate(90) translate(36 -43)" onmousedown="handlePan(1,0)">
                  <use xlink:href="#rim" fill="#404040">
                        <set attributeName="fill" to="#808080" begin="arrowRight.mouseover" end="arrowRight.mouseout"/>
                  </use>
                  <path fill="none" stroke="white" stroke-width="1.5" d="M0,-3.0v7 M-2.5,-0.5L0,-3.0L2.5,-0.5"/>
                </g>
                <g id="arrowDown" xlink:href="#dirArrow" transform="rotate(180) translate(-30 -48)" onmousedown="handlePan(0,1)">
                  <use xlink:href="#rim" fill="#404040">
                        <set attributeName="fill" to="#808080" begin="arrowDown.mouseover" end="arrowDown.mouseout"/>
                  </use>
                  <path fill="none" stroke="white" stroke-width="1.5" d="M0,-3.0v7 M-2.5,-0.5L0,-3.0L2.5,-0.5"/>
                </g>
                <g id="arrowLeft" xlink:href="#dirArrow" transform="rotate(270) translate(-36 17)" onmousedown="handlePan(-1,0)">
                  <use xlink:href="#rim" fill="#404040">
                        <set attributeName="fill" to="#808080" begin="arrowLeft.mouseover" end="arrowLeft.mouseout"/>
                  </use>
                  <path fill="none" stroke="white" stroke-width="1.5" d="M0,-3.0v7 M-2.5,-0.5L0,-3.0L2.5,-0.5"/>
                </g>
        </g>
        <svg viewBox="0 0 15 15" width="100%" height="30px" preserveAspectRatio="xMaxYMin meet">
         <g id="arrow_out" transform="scale(0.3 0.3)">
          <a xlink:href="classGameGen_a0ce6a9241bfbb198b0ba80ed8ea306eb_cgraph_org.svg" target="_base">
           <rect id="button" ry="5" rx="5" y="6" x="6" height="38" width="38"
                fill="#f2f5e9" fill-opacity="0.5" stroke="#606060" stroke-width="1.0"/>
           <path id="arrow"
             d="M 11.500037,31.436501 C 11.940474,20.09759 22.043105,11.32322 32.158766,21.979434 L 37.068811,17.246167 C 37.068811,17.246167 37.088388,32 37.088388,32 L 22.160133,31.978069 C 22.160133,31.978069 26.997745,27.140456 26.997745,27.140456 C 18.528582,18.264221 13.291696,25.230495 11.500037,31.436501 z"
             style="fill:#404040;"/>
          </a>
         </g>
        </svg>
</svg>
