<?xml version="1.0" encoding="UTF-8" standalone="no"?>
<!DOCTYPE svg PUBLIC "-//W3C//DTD SVG 1.1//EN"
 "http://www.w3.org/Graphics/SVG/1.1/DTD/svg11.dtd">
<!-- Generated by graphviz version 2.43.0 (0)
 -->
<!-- Title: Field Pages: 1 -->
<!--zoomable 286 -->
<svg id="main" version="1.1" xmlns="http://www.w3.org/2000/svg" xmlns:xlink="http://www.w3.org/1999/xlink" xml:space="preserve" onload="init(evt)">
<style type="text/css"><![CDATA[
.edge:hover path { stroke: red; }
.edge:hover polygon { stroke: red; fill: red; }
]]></style>
<script type="text/javascript"><![CDATA[
var edges = document.getElementsByTagName('g');
if (edges && edges.length) {
  for (var i=0;i<edges.length;i++) {
    if (edges[i].id.substr(0,4)=='edge') {
      edges[i].setAttribute('class','edge');
    }
  }
}
]]></script>
        <defs>
                <circle id="rim" cx="0" cy="0" r="7"/>
                <circle id="rim2" cx="0" cy="0" r="3.5"/>
                <g id="zoomPlus">
                        <use xlink:href="#rim" fill="#404040">
                                <set attributeName="fill" to="#808080" begin="zoomplus.mouseover" end="zoomplus.mouseout"/>
                        </use>
                        <path d="M-4,0h8M0,-4v8" fill="none" stroke="white" stroke-width="1.5" pointer-events="none"/>
                </g>
                <g id="zoomMin">
                        <use xlink:href="#rim" fill="#404040">
                                <set attributeName="fill" to="#808080" begin="zoomminus.mouseover" end="zoomminus.mouseout"/>
                        </use>
                        <path d="M-4,0h8" fill="none" stroke="white" stroke-width="1.5" pointer-events="none"/>
                </g>
                <g id="dirArrow">
                        <path fill="none" stroke="white" stroke-width="1.5" d="M0,-3.0v7 M-2.5,-0.5L0,-3.0L2.5,-0.5"/>
                </g>
               <g id="resetDef">
                       <use xlink:href="#rim2" fill="#404040">
                               <set attributeName="fill" to="#808080" begin="reset.mouseover" end="reset.mouseout"/>
                       </use>
               </g>
        </defs>

<script type="text/javascript">
var viewWidth = 1362;
var viewHeight = 286;
var sectionId = 'dynsection-0';
</script>
<script xlink:href="svgpan.js"/>
<svg id="graph" class="graph">
<g id="viewport">
<title>Field</title>
<polygon fill="white" stroke="transparent" points="-4,4 -4,-282 1358,-282 1358,4 -4,4"/>
<!-- Node1 -->
<g id="node1" class="node">
<title>Node1</title>
<g id="a_node1"><a xlink:title="represents a Field in the game">
<polygon fill="#bfbfbf" stroke="black" points="140,-56.5 140,-75.5 180,-75.5 180,-56.5 140,-56.5"/>
<text text-anchor="middle" x="160" y="-63.5" font-family="Helvetica,sans-Serif" font-size="10.00">Field</text>
</a>
</g>
</g>
<!-- Node6 -->
<g id="node6" class="node">
<title>Node6</title>
<g id="a_node6"><a xlink:title=" ">
<polygon fill="white" stroke="#bfbfbf" points="233,-82.5 233,-101.5 368,-101.5 368,-82.5 233,-82.5"/>
<text text-anchor="middle" x="300.5" y="-89.5" font-family="Helvetica,sans-Serif" font-size="10.00">std::shared_ptr&lt; Field &gt;</text>
</a>
</g>
</g>
<!-- Node1&#45;&gt;Node6 -->
<g id="edge6" class="edge">
<title>Node1&#45;&gt;Node6</title>
<path fill="none" stroke="#9a32cd" stroke-dasharray="5,2" d="M190.14,-71.47C207.14,-74.66 229.06,-78.78 248.8,-82.48"/>
<polygon fill="#9a32cd" stroke="#9a32cd" points="190.73,-68.02 180.26,-69.62 189.44,-74.9 190.73,-68.02"/>
<text text-anchor="middle" x="206.5" y="-79" font-family="Helvetica,sans-Serif" font-size="10.00"> ptr</text>
</g>
<!-- Node2 -->
<g id="node2" class="node">
<title>Node2</title>
<g id="a_node2"><a xlink:href="structpos__type.html" target="_top" xlink:title="simple position type for 2 dimensions. sortable">
<polygon fill="white" stroke="black" points="0,-120.5 0,-139.5 61,-139.5 61,-120.5 0,-120.5"/>
<text text-anchor="middle" x="30.5" y="-127.5" font-family="Helvetica,sans-Serif" font-size="10.00">pos_type</text>
</a>
</g>
</g>
<!-- Node2&#45;&gt;Node1 -->
<g id="edge1" class="edge">
<title>Node2&#45;&gt;Node1</title>
<path fill="none" stroke="#9a32cd" stroke-dasharray="5,2" d="M59.68,-115.85C84.01,-103.64 118.51,-86.33 139.78,-75.65"/>
<polygon fill="#9a32cd" stroke="#9a32cd" points="57.96,-112.8 50.59,-120.42 61.1,-119.06 57.96,-112.8"/>
<text text-anchor="middle" x="100.5" y="-109" font-family="Helvetica,sans-Serif" font-size="10.00"> position</text>
</g>
<!-- Node8 -->
<g id="node8" class="node">
<title>Node8</title>
<g id="a_node8"><a xlink:href="classDot.html" target="_top" xlink:title="Represents the center of the galaxy.">
<polygon fill="white" stroke="black" points="667,-139.5 667,-158.5 701,-158.5 701,-139.5 667,-139.5"/>
<text text-anchor="middle" x="684" y="-146.5" font-family="Helvetica,sans-Serif" font-size="10.00">Dot</text>
</a>
</g>
</g>
<!-- Node2&#45;&gt;Node8 -->
<g id="edge9" class="edge">
<title>Node2&#45;&gt;Node8</title>
<path fill="none" stroke="#9a32cd" stroke-dasharray="5,2" d="M60.23,-143.75C85.6,-154.63 123.93,-168 159,-168 159,-168 159,-168 493,-168 557.64,-168 634.05,-156.98 666.79,-151.72"/>
<polygon fill="#9a32cd" stroke="#9a32cd" points="61.4,-140.45 50.84,-139.59 58.56,-146.84 61.4,-140.45"/>
<text text-anchor="middle" x="300.5" y="-171" font-family="Helvetica,sans-Serif" font-size="10.00"> position</text>
</g>
<!-- Node3 -->
<g id="node3" class="node">
<title>Node3</title>
<g id="a_node3"><a xlink:title=" ">
<polygon fill="white" stroke="#bfbfbf" points="1183,-6.5 1183,-25.5 1354,-25.5 1354,-6.5 1183,-6.5"/>
<text text-anchor="middle" x="1268.5" y="-13.5" font-family="Helvetica,sans-Serif" font-size="10.00">std::weak_ptr&lt; GameChange &gt;</text>
</a>
</g>
</g>
<!-- Node3&#45;&gt;Node1 -->
<g id="edge2" class="edge">
<title>Node3&#45;&gt;Node1</title>
<path fill="none" stroke="#9a32cd" stroke-dasharray="5,2" d="M1184.48,-5.43C1154.59,-2.45 1120.58,0 1089.5,0 299.5,0 299.5,0 299.5,0 247.83,0 194.93,-37.9 172.34,-56.26"/>
<polygon fill="#9a32cd" stroke="#9a32cd" points="1184.15,-8.92 1194.45,-6.46 1184.87,-1.95 1184.15,-8.92"/>
<text text-anchor="middle" x="684" y="-3" font-family="Helvetica,sans-Serif" font-size="10.00"> last_change</text>
</g>
<!-- Node4 -->
<g id="node4" class="node">
<title>Node4</title>
<g id="a_node4"><a xlink:href="classGameChange.html" target="_top" xlink:title="Represents an atomic change to the gamestate. Can be reverted, once applied.">
<polygon fill="white" stroke="black" points="1047,-158.5 1047,-177.5 1130,-177.5 1130,-158.5 1047,-158.5"/>
<text text-anchor="middle" x="1088.5" y="-165.5" font-family="Helvetica,sans-Serif" font-size="10.00">GameChange</text>
</a>
</g>
</g>
<!-- Node4&#45;&gt;Node3 -->
<g id="edge3" class="edge">
<title>Node4&#45;&gt;Node3</title>
<path fill="none" stroke="#9a32cd" stroke-dasharray="5,2" d="M1108.69,-151.61C1145.9,-119.84 1226.78,-50.77 1256.37,-25.5"/>
<polygon fill="#9a32cd" stroke="#9a32cd" points="1105.97,-149.34 1100.63,-158.49 1110.51,-154.66 1105.97,-149.34"/>
<text text-anchor="middle" x="1156.5" y="-118" font-family="Helvetica,sans-Serif" font-size="10.00"> ptr</text>
</g>
<!-- Node5 -->
<g id="node5" class="node">
<title>Node5</title>
<g id="a_node5"><a xlink:title=" ">
<polygon fill="white" stroke="#bfbfbf" points="772,-197 772,-227 929,-227 929,-197 772,-197"/>
<text text-anchor="start" x="780" y="-215" font-family="Helvetica,sans-Serif" font-size="10.00">std::enable_shared</text>
<text text-anchor="middle" x="850.5" y="-204" font-family="Helvetica,sans-Serif" font-size="10.00">_from_this&lt; GameChange &gt;</text>
</a>
</g>
</g>
<!-- Node5&#45;&gt;Node4 -->
<g id="edge4" class="edge">
<title>Node5&#45;&gt;Node4</title>
<path fill="none" stroke="midnightblue" d="M939.42,-208.62C968.31,-206.05 1000.35,-201.61 1029,-194 1043.29,-190.2 1058.52,-183.34 1069.86,-177.61"/>
<polygon fill="midnightblue" stroke="midnightblue" points="939.02,-205.14 929.34,-209.45 939.6,-212.12 939.02,-205.14"/>
</g>
<!-- Node6&#45;&gt;Node4 -->
<g id="edge5" class="edge">
<title>Node6&#45;&gt;Node4</title>
<path fill="none" stroke="#9a32cd" stroke-dasharray="5,2" d="M378.16,-92C412.65,-92 453.87,-92 491,-92 491,-92 491,-92 851.5,-92 937.16,-92 1032.25,-137.92 1070.35,-158.37"/>
<polygon fill="#9a32cd" stroke="#9a32cd" points="378.15,-88.5 368.15,-92 378.15,-95.5 378.15,-88.5"/>
<text text-anchor="middle" x="684" y="-95" font-family="Helvetica,sans-Serif" font-size="10.00"> affected_field</text>
</g>
<!-- Node9 -->
<g id="node9" class="node">
<title>Node9</title>
<g id="a_node9"><a xlink:title=" ">
<polygon fill="white" stroke="#bfbfbf" points="430,-120.5 430,-139.5 554,-139.5 554,-120.5 430,-120.5"/>
<text text-anchor="middle" x="492" y="-127.5" font-family="Helvetica,sans-Serif" font-size="10.00">std::set&lt; field_ptr_t &gt;</text>
</a>
</g>
</g>
<!-- Node6&#45;&gt;Node9 -->
<g id="edge11" class="edge">
<title>Node6&#45;&gt;Node9</title>
<path fill="none" stroke="#9a32cd" stroke-dasharray="5,2" d="M359.39,-103.61C386.35,-109.01 418.01,-115.36 443.53,-120.48"/>
<polygon fill="#9a32cd" stroke="#9a32cd" points="359.81,-100.12 349.32,-101.59 358.44,-106.99 359.81,-100.12"/>
<text text-anchor="middle" x="399" y="-117" font-family="Helvetica,sans-Serif" font-size="10.00"> keys</text>
</g>
<!-- Node7 -->
<g id="node7" class="node">
<title>Node7</title>
<g id="a_node7"><a xlink:title=" ">
<polygon fill="white" stroke="#bfbfbf" points="786,-158.5 786,-177.5 915,-177.5 915,-158.5 786,-158.5"/>
<text text-anchor="middle" x="850.5" y="-165.5" font-family="Helvetica,sans-Serif" font-size="10.00">std::shared_ptr&lt; Dot &gt;</text>
</a>
</g>
</g>
<!-- Node7&#45;&gt;Node4 -->
<g id="edge7" class="edge">
<title>Node7&#45;&gt;Node4</title>
<path fill="none" stroke="#9a32cd" stroke-dasharray="5,2" d="M925.08,-168C965.24,-168 1013.45,-168 1046.86,-168"/>
<polygon fill="#9a32cd" stroke="#9a32cd" points="925.05,-164.5 915.05,-168 925.05,-171.5 925.05,-164.5"/>
<text text-anchor="middle" x="988" y="-182" font-family="Helvetica,sans-Serif" font-size="10.00"> old_assoziation</text>
<text text-anchor="middle" x="988" y="-171" font-family="Helvetica,sans-Serif" font-size="10.00">new_assoziation</text>
</g>
<!-- Node8&#45;&gt;Node7 -->
<g id="edge8" class="edge">
<title>Node8&#45;&gt;Node7</title>
<path fill="none" stroke="#9a32cd" stroke-dasharray="5,2" d="M711.02,-152C731.12,-154.33 759.83,-157.64 785.91,-160.65"/>
<polygon fill="#9a32cd" stroke="#9a32cd" points="711.41,-148.53 701.07,-150.86 710.6,-155.48 711.41,-148.53"/>
<text text-anchor="middle" x="745.5" y="-160" font-family="Helvetica,sans-Serif" font-size="10.00"> ptr</text>
</g>
<!-- Node14 -->
<g id="node14" class="node">
<title>Node14</title>
<g id="a_node14"><a xlink:title=" ">
<polygon fill="white" stroke="#bfbfbf" points="789.5,-120.5 789.5,-139.5 911.5,-139.5 911.5,-120.5 789.5,-120.5"/>
<text text-anchor="middle" x="850.5" y="-127.5" font-family="Helvetica,sans-Serif" font-size="10.00">std::weak_ptr&lt; Dot &gt;</text>
</a>
</g>
</g>
<!-- Node8&#45;&gt;Node14 -->
<g id="edge17" class="edge">
<title>Node8&#45;&gt;Node14</title>
<path fill="none" stroke="#9a32cd" stroke-dasharray="5,2" d="M711.47,-144.64C719.64,-143.37 728.68,-142.05 737,-141 753.94,-138.87 772.36,-136.92 789.3,-135.27"/>
<polygon fill="#9a32cd" stroke="#9a32cd" points="710.69,-141.22 701.36,-146.25 711.79,-148.13 710.69,-141.22"/>
<text text-anchor="middle" x="745.5" y="-144" font-family="Helvetica,sans-Serif" font-size="10.00"> ptr</text>
</g>
<!-- Node9&#45;&gt;Node8 -->
<g id="edge10" class="edge">
<title>Node9&#45;&gt;Node8</title>
<path fill="none" stroke="#9a32cd" stroke-dasharray="5,2" d="M564.19,-136.42C585.67,-138.43 609.31,-140.73 631,-143 642.93,-144.25 656.38,-145.81 666.62,-147.02"/>
<polygon fill="#9a32cd" stroke="#9a32cd" points="564.45,-132.93 554.17,-135.48 563.8,-139.9 564.45,-132.93"/>
<text text-anchor="middle" x="601.5" y="-146" font-family="Helvetica,sans-Serif" font-size="10.00"> fields</text>
</g>
<!-- Node10 -->
<g id="node10" class="node">
<title>Node10</title>
<g id="a_node10"><a xlink:title=" ">
<polygon fill="white" stroke="#bfbfbf" points="782.5,-246.5 782.5,-265.5 918.5,-265.5 918.5,-246.5 782.5,-246.5"/>
<text text-anchor="middle" x="850.5" y="-253.5" font-family="Helvetica,sans-Serif" font-size="10.00">std::weak_ptr&lt; Player &gt;</text>
</a>
</g>
</g>
<!-- Node10&#45;&gt;Node4 -->
<g id="edge12" class="edge">
<title>Node10&#45;&gt;Node4</title>
<path fill="none" stroke="#9a32cd" stroke-dasharray="5,2" d="M929.03,-245.89C961.08,-239.75 997.93,-230.08 1029,-215 1048.46,-205.56 1067.28,-188.6 1078.11,-177.84"/>
<polygon fill="#9a32cd" stroke="#9a32cd" points="928.01,-242.52 918.8,-247.76 929.27,-249.41 928.01,-242.52"/>
<text text-anchor="middle" x="988" y="-245" font-family="Helvetica,sans-Serif" font-size="10.00"> player</text>
</g>
<!-- Node11 -->
<g id="node11" class="node">
<title>Node11</title>
<g id="a_node11"><a xlink:href="classPlayer.html" target="_top" xlink:title="represents a individual player/client">
<polygon fill="white" stroke="black" points="660.5,-246.5 660.5,-265.5 707.5,-265.5 707.5,-246.5 660.5,-246.5"/>
<text text-anchor="middle" x="684" y="-253.5" font-family="Helvetica,sans-Serif" font-size="10.00">Player</text>
</a>
</g>
</g>
<!-- Node11&#45;&gt;Node10 -->
<g id="edge13" class="edge">
<title>Node11&#45;&gt;Node10</title>
<path fill="none" stroke="#9a32cd" stroke-dasharray="5,2" d="M717.73,-256C736.18,-256 759.92,-256 782.16,-256"/>
<polygon fill="#9a32cd" stroke="#9a32cd" points="717.53,-252.5 707.53,-256 717.53,-259.5 717.53,-252.5"/>
<text text-anchor="middle" x="745.5" y="-259" font-family="Helvetica,sans-Serif" font-size="10.00"> ptr</text>
</g>
<!-- Node12 -->
<g id="node12" class="node">
<title>Node12</title>
<g id="a_node12"><a xlink:title="STL class.">
<polygon fill="white" stroke="#bfbfbf" points="459.5,-246.5 459.5,-265.5 524.5,-265.5 524.5,-246.5 459.5,-246.5"/>
<text text-anchor="middle" x="492" y="-253.5" font-family="Helvetica,sans-Serif" font-size="10.00">std::string</text>
</a>
</g>
</g>
<!-- Node12&#45;&gt;Node11 -->
<g id="edge14" class="edge">
<title>Node12&#45;&gt;Node11</title>
<path fill="none" stroke="#9a32cd" stroke-dasharray="5,2" d="M535.21,-256C573.84,-256 629.54,-256 660.35,-256"/>
<polygon fill="#9a32cd" stroke="#9a32cd" points="534.8,-252.5 524.8,-256 534.8,-259.5 534.8,-252.5"/>
<text text-anchor="middle" x="601.5" y="-270" font-family="Helvetica,sans-Serif" font-size="10.00"> passphrase</text>
<text text-anchor="middle" x="601.5" y="-259" font-family="Helvetica,sans-Serif" font-size="10.00">name</text>
</g>
<!-- Node13 -->
<g id="node13" class="node">
<title>Node13</title>
<g id="a_node13"><a xlink:title="STL class.">
<polygon fill="white" stroke="#bfbfbf" points="248.5,-241 248.5,-271 352.5,-271 352.5,-241 248.5,-241"/>
<text text-anchor="start" x="256.5" y="-259" font-family="Helvetica,sans-Serif" font-size="10.00">std::basic_string&lt;</text>
<text text-anchor="middle" x="300.5" y="-248" font-family="Helvetica,sans-Serif" font-size="10.00"> char &gt;</text>
</a>
</g>
</g>
<!-- Node13&#45;&gt;Node12 -->
<g id="edge15" class="edge">
<title>Node13&#45;&gt;Node12</title>
<path fill="none" stroke="midnightblue" d="M362.99,-256C395.12,-256 433.1,-256 459.3,-256"/>
<polygon fill="midnightblue" stroke="midnightblue" points="362.78,-252.5 352.78,-256 362.78,-259.5 362.78,-252.5"/>
</g>
<!-- Node14&#45;&gt;Node1 -->
<g id="edge16" class="edge">
<title>Node14&#45;&gt;Node1</title>
<path fill="none" stroke="#9a32cd" stroke-dasharray="5,2" d="M831.72,-113.74C803.07,-89.32 743.96,-46 685,-46 299.5,-46 299.5,-46 299.5,-46 256.5,-46 206.75,-55.56 180.14,-61.46"/>
<polygon fill="#9a32cd" stroke="#9a32cd" points="829.45,-116.41 839.28,-120.36 834.06,-111.14 829.45,-116.41"/>
<text text-anchor="middle" x="492" y="-49" font-family="Helvetica,sans-Serif" font-size="10.00"> assigned_dot</text>
</g>
</g>
</svg>
        <g id="navigator" transform="translate(0 0)" fill="#404254">
                <rect fill="#f2f5e9" fill-opacity="0.5" stroke="#606060" stroke-width=".5" x="0" y="0" width="60" height="60"/>
                <use id="zoomplus" xlink:href="#zoomPlus" x="17" y="9" onmousedown="handleZoom(evt,'in')"/>
                <use id="zoomminus" xlink:href="#zoomMin" x="42" y="9" onmousedown="handleZoom(evt,'out')"/>
                <use id="reset" xlink:href="#resetDef" x="30" y="36" onmousedown="handleReset()"/>
                <g id="arrowUp" xlink:href="#dirArrow" transform="translate(30 24)" onmousedown="handlePan(0,-1)">
                  <use xlink:href="#rim" fill="#404040">
                        <set attributeName="fill" to="#808080" begin="arrowUp.mouseover" end="arrowUp.mouseout"/>
                  </use>
                  <path fill="none" stroke="white" stroke-width="1.5" d="M0,-3.0v7 M-2.5,-0.5L0,-3.0L2.5,-0.5"/>
                </g>
                <g id="arrowRight" xlink:href="#dirArrow" transform="rotate(90) translate(36 -43)" onmousedown="handlePan(1,0)">
                  <use xlink:href="#rim" fill="#404040">
                        <set attributeName="fill" to="#808080" begin="arrowRight.mouseover" end="arrowRight.mouseout"/>
                  </use>
                  <path fill="none" stroke="white" stroke-width="1.5" d="M0,-3.0v7 M-2.5,-0.5L0,-3.0L2.5,-0.5"/>
                </g>
                <g id="arrowDown" xlink:href="#dirArrow" transform="rotate(180) translate(-30 -48)" onmousedown="handlePan(0,1)">
                  <use xlink:href="#rim" fill="#404040">
                        <set attributeName="fill" to="#808080" begin="arrowDown.mouseover" end="arrowDown.mouseout"/>
                  </use>
                  <path fill="none" stroke="white" stroke-width="1.5" d="M0,-3.0v7 M-2.5,-0.5L0,-3.0L2.5,-0.5"/>
                </g>
                <g id="arrowLeft" xlink:href="#dirArrow" transform="rotate(270) translate(-36 17)" onmousedown="handlePan(-1,0)">
                  <use xlink:href="#rim" fill="#404040">
                        <set attributeName="fill" to="#808080" begin="arrowLeft.mouseover" end="arrowLeft.mouseout"/>
                  </use>
                  <path fill="none" stroke="white" stroke-width="1.5" d="M0,-3.0v7 M-2.5,-0.5L0,-3.0L2.5,-0.5"/>
                </g>
        </g>
        <svg viewBox="0 0 15 15" width="100%" height="30px" preserveAspectRatio="xMaxYMin meet">
         <g id="arrow_out" transform="scale(0.3 0.3)">
          <a xlink:href="classField__coll__graph_org.svg" target="_base">
           <rect id="button" ry="5" rx="5" y="6" x="6" height="38" width="38"
                fill="#f2f5e9" fill-opacity="0.5" stroke="#606060" stroke-width="1.0"/>
           <path id="arrow"
             d="M 11.500037,31.436501 C 11.940474,20.09759 22.043105,11.32322 32.158766,21.979434 L 37.068811,17.246167 C 37.068811,17.246167 37.088388,32 37.088388,32 L 22.160133,31.978069 C 22.160133,31.978069 26.997745,27.140456 26.997745,27.140456 C 18.528582,18.264221 13.291696,25.230495 11.500037,31.436501 z"
             style="fill:#404040;"/>
          </a>
         </g>
        </svg>
</svg>
