<?xml version="1.0" encoding="UTF-8" standalone="no"?>
<!DOCTYPE svg PUBLIC "-//W3C//DTD SVG 1.1//EN"
 "http://www.w3.org/Graphics/SVG/1.1/DTD/svg11.dtd">
<!-- Generated by graphviz version 2.43.0 (0)
 -->
<!-- Title: NewGamePoll Pages: 1 -->
<svg width="3238pt" height="673pt"
 viewBox="0.00 0.00 3238.00 673.00" xmlns="http://www.w3.org/2000/svg" xmlns:xlink="http://www.w3.org/1999/xlink">
<g id="graph0" class="graph" transform="scale(1 1) rotate(0) translate(4 669)">
<title>NewGamePoll</title>
<polygon fill="white" stroke="transparent" points="-4,4 -4,-669 3234,-669 3234,4 -4,4"/>
<!-- Node1 -->
<g id="node1" class="node">
<title>Node1</title>
<g id="a_node1"><a xlink:title=" ">
<polygon fill="#bfbfbf" stroke="black" points="2467.5,-453.5 2467.5,-472.5 2553.5,-472.5 2553.5,-453.5 2467.5,-453.5"/>
<text text-anchor="middle" x="2510.5" y="-460.5" font-family="Helvetica,sans-Serif" font-size="10.00">NewGamePoll</text>
</a>
</g>
</g>
<!-- Node35 -->
<g id="node35" class="node">
<title>Node35</title>
<g id="a_node35"><a xlink:title=" ">
<polygon fill="white" stroke="#bfbfbf" points="2674,-473 2674,-503 2826,-503 2826,-473 2674,-473"/>
<text text-anchor="start" x="2682" y="-491" font-family="Helvetica,sans-Serif" font-size="10.00">std::unique_ptr&lt; NewGame</text>
<text text-anchor="middle" x="2750" y="-480" font-family="Helvetica,sans-Serif" font-size="10.00">Poll &gt;</text>
</a>
</g>
</g>
<!-- Node1&#45;&gt;Node35 -->
<g id="edge49" class="edge">
<title>Node1&#45;&gt;Node35</title>
<path fill="none" stroke="#9a32cd" stroke-dasharray="5,2" d="M2563.79,-468.5C2596.01,-471.9 2637.85,-476.3 2673.61,-480.06"/>
<polygon fill="#9a32cd" stroke="#9a32cd" points="2564,-465.01 2553.69,-467.44 2563.27,-471.97 2564,-465.01"/>
<text text-anchor="middle" x="2628" y="-480" font-family="Helvetica,sans-Serif" font-size="10.00"> ptr</text>
</g>
<!-- Node2 -->
<g id="node2" class="node">
<title>Node2</title>
<g id="a_node2"><a xlink:title="STL class.">
<polygon fill="white" stroke="#bfbfbf" points="2150,-560.5 2150,-579.5 2219,-579.5 2219,-560.5 2150,-560.5"/>
<text text-anchor="middle" x="2184.5" y="-567.5" font-family="Helvetica,sans-Serif" font-size="10.00">std::mutex</text>
</a>
</g>
</g>
<!-- Node2&#45;&gt;Node1 -->
<g id="edge1" class="edge">
<title>Node2&#45;&gt;Node1</title>
<path fill="none" stroke="#9a32cd" stroke-dasharray="5,2" d="M2224.11,-557.25C2289.8,-535.56 2421.86,-491.94 2480.41,-472.61"/>
<polygon fill="#9a32cd" stroke="#9a32cd" points="2222.94,-553.95 2214.54,-560.41 2225.13,-560.6 2222.94,-553.95"/>
<text text-anchor="middle" x="2344" y="-544" font-family="Helvetica,sans-Serif" font-size="10.00"> set_mutex</text>
</g>
<!-- Node3 -->
<g id="node3" class="node">
<title>Node3</title>
<g id="a_node3"><a xlink:href="classGalaxy.html" target="_top" xlink:title="Main class of this project. Manages all ressources.">
<polygon fill="white" stroke="black" points="2968.5,-445.5 2968.5,-464.5 3019.5,-464.5 3019.5,-445.5 2968.5,-445.5"/>
<text text-anchor="middle" x="2994" y="-452.5" font-family="Helvetica,sans-Serif" font-size="10.00">Galaxy</text>
</a>
</g>
</g>
<!-- Node2&#45;&gt;Node3 -->
<g id="edge27" class="edge">
<title>Node2&#45;&gt;Node3</title>
<path fill="none" stroke="#9a32cd" stroke-dasharray="5,2" d="M2229.42,-573C2367.4,-581.74 2790.19,-603.09 2912,-546 2949.54,-528.41 2977.08,-484.41 2987.92,-464.75"/>
<polygon fill="#9a32cd" stroke="#9a32cd" points="2229.43,-569.49 2219.23,-572.34 2228.99,-576.48 2229.43,-569.49"/>
<text text-anchor="middle" x="2628" y="-586" font-family="Helvetica,sans-Serif" font-size="10.00"> my_mutex</text>
</g>
<!-- Node24 -->
<g id="node24" class="node">
<title>Node24</title>
<g id="a_node24"><a xlink:href="classNetwork.html" target="_top" xlink:title="Manages the Websocket connection.">
<polygon fill="white" stroke="black" points="3172,-479.5 3172,-498.5 3230,-498.5 3230,-479.5 3172,-479.5"/>
<text text-anchor="middle" x="3201" y="-486.5" font-family="Helvetica,sans-Serif" font-size="10.00">Network</text>
</a>
</g>
</g>
<!-- Node2&#45;&gt;Node24 -->
<g id="edge31" class="edge">
<title>Node2&#45;&gt;Node24</title>
<path fill="none" stroke="#9a32cd" stroke-dasharray="5,2" d="M2216.48,-583.66C2273.36,-607.46 2398.77,-654 2509.5,-654 2509.5,-654 2509.5,-654 2995,-654 3075.77,-654 3095.95,-622.16 3154,-566 3174.82,-545.86 3189.67,-514.34 3196.23,-498.61"/>
<polygon fill="#9a32cd" stroke="#9a32cd" points="2217.57,-580.32 2207,-579.64 2214.84,-586.76 2217.57,-580.32"/>
<text text-anchor="middle" x="2750" y="-657" font-family="Helvetica,sans-Serif" font-size="10.00"> message_mutex</text>
</g>
<!-- Node3&#45;&gt;Node1 -->
<g id="edge2" class="edge">
<title>Node3&#45;&gt;Node1</title>
<path fill="none" stroke="#9a32cd" stroke-dasharray="5,2" d="M2957.96,-453.93C2899.23,-452.34 2777.18,-449.83 2674,-453 2633.03,-454.26 2586.34,-457.3 2553.55,-459.7"/>
<polygon fill="#9a32cd" stroke="#9a32cd" points="2958.08,-457.44 2968.17,-454.22 2958.28,-450.44 2958.08,-457.44"/>
<text text-anchor="middle" x="2750" y="-456" font-family="Helvetica,sans-Serif" font-size="10.00"> g</text>
</g>
<!-- Node3&#45;&gt;Node24 -->
<g id="edge33" class="edge">
<title>Node3&#45;&gt;Node24</title>
<path fill="none" stroke="#9a32cd" stroke-dasharray="5,2" d="M3029.8,-448.41C3062.72,-443.65 3113.05,-440.19 3154,-454 3168.83,-459 3182.67,-470.9 3191.22,-479.44"/>
<polygon fill="#9a32cd" stroke="#9a32cd" points="3029.09,-444.98 3019.76,-449.99 3030.18,-451.9 3029.09,-444.98"/>
<text text-anchor="middle" x="3115" y="-457" font-family="Helvetica,sans-Serif" font-size="10.00"> galaxy</text>
</g>
<!-- Node4 -->
<g id="node4" class="node">
<title>Node4</title>
<g id="a_node4"><a xlink:title=" ">
<polygon fill="white" stroke="#bfbfbf" points="2687.5,-338 2687.5,-368 2812.5,-368 2812.5,-338 2687.5,-338"/>
<text text-anchor="start" x="2695.5" y="-356" font-family="Helvetica,sans-Serif" font-size="10.00">std::enable_shared</text>
<text text-anchor="middle" x="2750" y="-345" font-family="Helvetica,sans-Serif" font-size="10.00">_from_this&lt; Galaxy &gt;</text>
</a>
</g>
</g>
<!-- Node4&#45;&gt;Node3 -->
<g id="edge3" class="edge">
<title>Node4&#45;&gt;Node3</title>
<path fill="none" stroke="midnightblue" d="M2823.05,-350.95C2853.65,-353.69 2887.77,-362.01 2912,-383 2930.8,-399.29 2912.11,-418.72 2930,-436 2940.27,-445.92 2955.53,-450.68 2968.46,-452.96"/>
<polygon fill="midnightblue" stroke="midnightblue" points="2823.05,-347.44 2812.83,-350.23 2822.56,-354.43 2823.05,-347.44"/>
</g>
<!-- Node5 -->
<g id="node5" class="node">
<title>Node5</title>
<g id="a_node5"><a xlink:title=" ">
<polygon fill="white" stroke="#bfbfbf" points="2267,-288.5 2267,-329.5 2421,-329.5 2421,-288.5 2267,-288.5"/>
<text text-anchor="start" x="2275" y="-317.5" font-family="Helvetica,sans-Serif" font-size="10.00">std::map&lt; web_con,</text>
<text text-anchor="start" x="2275" y="-306.5" font-family="Helvetica,sans-Serif" font-size="10.00"> shared_player, std</text>
<text text-anchor="middle" x="2344" y="-295.5" font-family="Helvetica,sans-Serif" font-size="10.00">::owner_less&lt; web_con &gt; &gt;</text>
</a>
</g>
</g>
<!-- Node5&#45;&gt;Node3 -->
<g id="edge4" class="edge">
<title>Node5&#45;&gt;Node3</title>
<path fill="none" stroke="#9a32cd" stroke-dasharray="5,2" d="M2431.28,-306.96C2527.94,-305.93 2689.02,-308 2826,-328 2865.04,-333.7 2884.72,-321.49 2912,-350 2939,-378.22 2903.61,-407.22 2930,-436 2939.73,-446.61 2955.14,-451.38 2968.29,-453.48"/>
<polygon fill="#9a32cd" stroke="#9a32cd" points="2431.22,-303.46 2421.27,-307.08 2431.31,-310.46 2431.22,-303.46"/>
<text text-anchor="middle" x="2628" y="-315" font-family="Helvetica,sans-Serif" font-size="10.00"> players</text>
</g>
<!-- Node6 -->
<g id="node6" class="node">
<title>Node6</title>
<g id="a_node6"><a xlink:title="STL class.">
<polygon fill="white" stroke="#bfbfbf" points="1917,-327.5 1917,-346.5 2035,-346.5 2035,-327.5 1917,-327.5"/>
<text text-anchor="middle" x="1976" y="-334.5" font-family="Helvetica,sans-Serif" font-size="10.00">std::shared_ptr&lt; T &gt;</text>
</a>
</g>
</g>
<!-- Node6&#45;&gt;Node5 -->
<g id="edge5" class="edge">
<title>Node6&#45;&gt;Node5</title>
<path fill="none" stroke="#9a32cd" stroke-dasharray="5,2" d="M2045.25,-329.7C2047.86,-329.46 2050.46,-329.22 2053,-329 2125.52,-322.68 2208.39,-317.14 2266.92,-313.5"/>
<polygon fill="#9a32cd" stroke="#9a32cd" points="2044.69,-326.23 2035.07,-330.67 2045.36,-333.2 2044.69,-326.23"/>
<text text-anchor="middle" x="2077.5" y="-332" font-family="Helvetica,sans-Serif" font-size="10.00"> elements</text>
</g>
<!-- Node36 -->
<g id="node36" class="node">
<title>Node36</title>
<g id="a_node36"><a xlink:title=" ">
<polygon fill="white" stroke="#bfbfbf" points="2130.5,-338 2130.5,-368 2238.5,-368 2238.5,-338 2130.5,-338"/>
<text text-anchor="start" x="2138.5" y="-356" font-family="Helvetica,sans-Serif" font-size="10.00">std::unordered_set</text>
<text text-anchor="middle" x="2184.5" y="-345" font-family="Helvetica,sans-Serif" font-size="10.00">&lt; shared_player &gt;</text>
</a>
</g>
</g>
<!-- Node6&#45;&gt;Node36 -->
<g id="edge51" class="edge">
<title>Node6&#45;&gt;Node36</title>
<path fill="none" stroke="#9a32cd" stroke-dasharray="5,2" d="M2045.11,-342.28C2072.86,-344.43 2104.46,-346.88 2130.45,-348.89"/>
<polygon fill="#9a32cd" stroke="#9a32cd" points="2045.31,-338.78 2035.07,-341.5 2044.77,-345.76 2045.31,-338.78"/>
<text text-anchor="middle" x="2077.5" y="-350" font-family="Helvetica,sans-Serif" font-size="10.00"> keys</text>
</g>
<!-- Node7 -->
<g id="node7" class="node">
<title>Node7</title>
<g id="a_node7"><a xlink:title=" ">
<polygon fill="white" stroke="#bfbfbf" points="1677,-327.5 1677,-346.5 1706,-346.5 1706,-327.5 1677,-327.5"/>
<text text-anchor="middle" x="1691.5" y="-334.5" font-family="Helvetica,sans-Serif" font-size="10.00">T</text>
</a>
</g>
</g>
<!-- Node7&#45;&gt;Node6 -->
<g id="edge6" class="edge">
<title>Node7&#45;&gt;Node6</title>
<path fill="none" stroke="#9a32cd" stroke-dasharray="5,2" d="M1716.38,-337C1760.27,-337 1854.94,-337 1916.75,-337"/>
<polygon fill="#9a32cd" stroke="#9a32cd" points="1716.13,-333.5 1706.13,-337 1716.13,-340.5 1716.13,-333.5"/>
<text text-anchor="middle" x="1841.5" y="-340" font-family="Helvetica,sans-Serif" font-size="10.00"> ptr</text>
</g>
<!-- Node8 -->
<g id="node8" class="node">
<title>Node8</title>
<g id="a_node8"><a xlink:title=" ">
<polygon fill="white" stroke="#bfbfbf" points="1235,-376 1235,-406 1370,-406 1370,-376 1235,-376"/>
<text text-anchor="start" x="1243" y="-394" font-family="Helvetica,sans-Serif" font-size="10.00">std::list&lt; std::shared</text>
<text text-anchor="middle" x="1302.5" y="-383" font-family="Helvetica,sans-Serif" font-size="10.00">_ptr&lt; GameChange &gt; &gt;</text>
</a>
</g>
</g>
<!-- Node8&#45;&gt;Node3 -->
<g id="edge7" class="edge">
<title>Node8&#45;&gt;Node3</title>
<path fill="none" stroke="#9a32cd" stroke-dasharray="5,2" d="M1380.06,-393.65C1433.09,-395.25 1505.33,-397 1569,-397 1569,-397 1569,-397 2751,-397 2793.88,-397 2915.76,-431.87 2968.35,-447.54"/>
<polygon fill="#9a32cd" stroke="#9a32cd" points="1380.15,-390.15 1370.05,-393.34 1379.94,-397.14 1380.15,-390.15"/>
<text text-anchor="middle" x="2077.5" y="-400" font-family="Helvetica,sans-Serif" font-size="10.00"> history</text>
</g>
<!-- Node9 -->
<g id="node9" class="node">
<title>Node9</title>
<g id="a_node9"><a xlink:title=" ">
<polygon fill="white" stroke="#bfbfbf" points="893,-340.5 893,-359.5 1071,-359.5 1071,-340.5 893,-340.5"/>
<text text-anchor="middle" x="982" y="-347.5" font-family="Helvetica,sans-Serif" font-size="10.00">std::shared_ptr&lt; GameChange &gt;</text>
</a>
</g>
</g>
<!-- Node9&#45;&gt;Node8 -->
<g id="edge8" class="edge">
<title>Node9&#45;&gt;Node8</title>
<path fill="none" stroke="#9a32cd" stroke-dasharray="5,2" d="M1066.83,-360.79C1119.29,-367.54 1185.95,-376.13 1234.8,-382.41"/>
<polygon fill="#9a32cd" stroke="#9a32cd" points="1067.24,-357.31 1056.87,-359.51 1066.34,-364.26 1067.24,-357.31"/>
<text text-anchor="middle" x="1124" y="-376" font-family="Helvetica,sans-Serif" font-size="10.00"> elements</text>
</g>
<!-- Node10 -->
<g id="node10" class="node">
<title>Node10</title>
<g id="a_node10"><a xlink:href="classGameChange.html" target="_top" xlink:title="Represents an atomic change to the gamestate. Can be reverted, once applied.">
<polygon fill="white" stroke="black" points="757,-257.5 757,-276.5 840,-276.5 840,-257.5 757,-257.5"/>
<text text-anchor="middle" x="798.5" y="-264.5" font-family="Helvetica,sans-Serif" font-size="10.00">GameChange</text>
</a>
</g>
</g>
<!-- Node10&#45;&gt;Node9 -->
<g id="edge9" class="edge">
<title>Node10&#45;&gt;Node9</title>
<path fill="none" stroke="#9a32cd" stroke-dasharray="5,2" d="M829.58,-280.76C866.48,-297.63 928.07,-325.79 960.14,-340.46"/>
<polygon fill="#9a32cd" stroke="#9a32cd" points="830.87,-277.5 820.32,-276.52 827.96,-283.86 830.87,-277.5"/>
<text text-anchor="middle" x="866.5" y="-305" font-family="Helvetica,sans-Serif" font-size="10.00"> ptr</text>
</g>
<!-- Node15 -->
<g id="node15" class="node">
<title>Node15</title>
<g id="a_node15"><a xlink:title=" ">
<polygon fill="white" stroke="#bfbfbf" points="896.5,-219.5 896.5,-238.5 1067.5,-238.5 1067.5,-219.5 896.5,-219.5"/>
<text text-anchor="middle" x="982" y="-226.5" font-family="Helvetica,sans-Serif" font-size="10.00">std::weak_ptr&lt; GameChange &gt;</text>
</a>
</g>
</g>
<!-- Node10&#45;&gt;Node15 -->
<g id="edge15" class="edge">
<title>Node10&#45;&gt;Node15</title>
<path fill="none" stroke="#9a32cd" stroke-dasharray="5,2" d="M827.32,-253.1C836.84,-248.9 847.69,-244.68 858,-242 870.26,-238.81 883.4,-236.4 896.37,-234.58"/>
<polygon fill="#9a32cd" stroke="#9a32cd" points="825.58,-250.05 817.97,-257.42 828.51,-256.41 825.58,-250.05"/>
<text text-anchor="middle" x="866.5" y="-245" font-family="Helvetica,sans-Serif" font-size="10.00"> ptr</text>
</g>
<!-- Node11 -->
<g id="node11" class="node">
<title>Node11</title>
<g id="a_node11"><a xlink:title=" ">
<polygon fill="white" stroke="#bfbfbf" points="530,-296 530,-326 687,-326 687,-296 530,-296"/>
<text text-anchor="start" x="538" y="-314" font-family="Helvetica,sans-Serif" font-size="10.00">std::enable_shared</text>
<text text-anchor="middle" x="608.5" y="-303" font-family="Helvetica,sans-Serif" font-size="10.00">_from_this&lt; GameChange &gt;</text>
</a>
</g>
</g>
<!-- Node11&#45;&gt;Node10 -->
<g id="edge10" class="edge">
<title>Node11&#45;&gt;Node10</title>
<path fill="none" stroke="midnightblue" d="M688.24,-293.77C705.02,-289.99 722.61,-285.93 739,-282 746.14,-280.29 753.74,-278.39 761.03,-276.54"/>
<polygon fill="midnightblue" stroke="midnightblue" points="687.47,-290.36 678.48,-295.97 689,-297.19 687.47,-290.36"/>
</g>
<!-- Node12 -->
<g id="node12" class="node">
<title>Node12</title>
<g id="a_node12"><a xlink:title=" ">
<polygon fill="white" stroke="#bfbfbf" points="1388,-219.5 1388,-238.5 1523,-238.5 1523,-219.5 1388,-219.5"/>
<text text-anchor="middle" x="1455.5" y="-226.5" font-family="Helvetica,sans-Serif" font-size="10.00">std::shared_ptr&lt; Field &gt;</text>
</a>
</g>
</g>
<!-- Node12&#45;&gt;Node10 -->
<g id="edge11" class="edge">
<title>Node12&#45;&gt;Node10</title>
<path fill="none" stroke="#9a32cd" stroke-dasharray="5,2" d="M1397.19,-240.25C1388.12,-241.72 1378.83,-243.04 1370,-244 1172.16,-265.45 933.78,-267.4 840.1,-267.25"/>
<polygon fill="#9a32cd" stroke="#9a32cd" points="1398.01,-243.66 1407.29,-238.54 1396.85,-236.76 1398.01,-243.66"/>
<text text-anchor="middle" x="1124" y="-266" font-family="Helvetica,sans-Serif" font-size="10.00"> affected_field</text>
</g>
<!-- Node18 -->
<g id="node18" class="node">
<title>Node18</title>
<g id="a_node18"><a xlink:title=" ">
<polygon fill="white" stroke="#bfbfbf" points="1629.5,-196.5 1629.5,-215.5 1753.5,-215.5 1753.5,-196.5 1629.5,-196.5"/>
<text text-anchor="middle" x="1691.5" y="-203.5" font-family="Helvetica,sans-Serif" font-size="10.00">std::set&lt; field_ptr_t &gt;</text>
</a>
</g>
</g>
<!-- Node12&#45;&gt;Node18 -->
<g id="edge20" class="edge">
<title>Node12&#45;&gt;Node18</title>
<path fill="none" stroke="#9a32cd" stroke-dasharray="5,2" d="M1504.66,-217.21C1516.48,-214.74 1529.14,-212.45 1541,-211 1569.87,-207.47 1602.09,-206.07 1629.21,-205.62"/>
<polygon fill="#9a32cd" stroke="#9a32cd" points="1503.57,-213.86 1494.54,-219.41 1505.05,-220.71 1503.57,-213.86"/>
<text text-anchor="middle" x="1570" y="-214" font-family="Helvetica,sans-Serif" font-size="10.00"> keys</text>
</g>
<!-- Node31 -->
<g id="node31" class="node">
<title>Node31</title>
<g id="a_node31"><a xlink:title=" ">
<polygon fill="white" stroke="#bfbfbf" points="1617,-109 1617,-139 1766,-139 1766,-109 1617,-109"/>
<text text-anchor="start" x="1625" y="-127" font-family="Helvetica,sans-Serif" font-size="10.00">std::map&lt; pos_type,</text>
<text text-anchor="middle" x="1691.5" y="-116" font-family="Helvetica,sans-Serif" font-size="10.00"> std::shared_ptr&lt; Field &gt; &gt;</text>
</a>
</g>
</g>
<!-- Node12&#45;&gt;Node31 -->
<g id="edge39" class="edge">
<title>Node12&#45;&gt;Node31</title>
<path fill="none" stroke="#9a32cd" stroke-dasharray="5,2" d="M1486.96,-215.33C1530.79,-195.66 1611.37,-159.51 1656.89,-139.08"/>
<polygon fill="#9a32cd" stroke="#9a32cd" points="1485.37,-212.21 1477.68,-219.5 1488.24,-218.6 1485.37,-212.21"/>
<text text-anchor="middle" x="1570" y="-192" font-family="Helvetica,sans-Serif" font-size="10.00"> elements</text>
</g>
<!-- Node34 -->
<g id="node34" class="node">
<title>Node34</title>
<g id="a_node34"><a xlink:title=" ">
<polygon fill="white" stroke="#bfbfbf" points="1784,-221.5 1784,-262.5 1899,-262.5 1899,-221.5 1784,-221.5"/>
<text text-anchor="start" x="1792" y="-250.5" font-family="Helvetica,sans-Serif" font-size="10.00">std::map&lt; unsigned</text>
<text text-anchor="start" x="1792" y="-239.5" font-family="Helvetica,sans-Serif" font-size="10.00"> int, std::shared_ptr</text>
<text text-anchor="middle" x="1841.5" y="-228.5" font-family="Helvetica,sans-Serif" font-size="10.00">&lt; Field &gt; &gt;</text>
</a>
</g>
</g>
<!-- Node12&#45;&gt;Node34 -->
<g id="edge47" class="edge">
<title>Node12&#45;&gt;Node34</title>
<path fill="none" stroke="#9a32cd" stroke-dasharray="5,2" d="M1533.58,-231.61C1607.53,-234.11 1717.48,-237.84 1783.75,-240.08"/>
<polygon fill="#9a32cd" stroke="#9a32cd" points="1533.5,-228.1 1523.39,-231.26 1533.26,-235.1 1533.5,-228.1"/>
<text text-anchor="middle" x="1570" y="-237" font-family="Helvetica,sans-Serif" font-size="10.00"> elements</text>
</g>
<!-- Node13 -->
<g id="node13" class="node">
<title>Node13</title>
<g id="a_node13"><a xlink:href="classField.html" target="_top" xlink:title="represents a Field in the game">
<polygon fill="white" stroke="black" points="1177,-219.5 1177,-238.5 1217,-238.5 1217,-219.5 1177,-219.5"/>
<text text-anchor="middle" x="1197" y="-226.5" font-family="Helvetica,sans-Serif" font-size="10.00">Field</text>
</a>
</g>
</g>
<!-- Node13&#45;&gt;Node12 -->
<g id="edge12" class="edge">
<title>Node13&#45;&gt;Node12</title>
<path fill="none" stroke="#9a32cd" stroke-dasharray="5,2" d="M1227.38,-229C1266.23,-229 1335.84,-229 1387.79,-229"/>
<polygon fill="#9a32cd" stroke="#9a32cd" points="1227.28,-225.5 1217.28,-229 1227.28,-232.5 1227.28,-225.5"/>
<text text-anchor="middle" x="1302.5" y="-232" font-family="Helvetica,sans-Serif" font-size="10.00"> ptr</text>
</g>
<!-- Node14 -->
<g id="node14" class="node">
<title>Node14</title>
<g id="a_node14"><a xlink:href="structpos__type.html" target="_top" xlink:title="simple position type for 2 dimensions. sortable">
<polygon fill="white" stroke="black" points="951.5,-131.5 951.5,-150.5 1012.5,-150.5 1012.5,-131.5 951.5,-131.5"/>
<text text-anchor="middle" x="982" y="-138.5" font-family="Helvetica,sans-Serif" font-size="10.00">pos_type</text>
</a>
</g>
</g>
<!-- Node14&#45;&gt;Node13 -->
<g id="edge13" class="edge">
<title>Node14&#45;&gt;Node13</title>
<path fill="none" stroke="#9a32cd" stroke-dasharray="5,2" d="M1015.52,-154.43C1060.53,-173.03 1140.4,-206.03 1176.87,-221.1"/>
<polygon fill="#9a32cd" stroke="#9a32cd" points="1016.78,-151.17 1006.2,-150.59 1014.11,-157.64 1016.78,-151.17"/>
<text text-anchor="middle" x="1124" y="-216" font-family="Helvetica,sans-Serif" font-size="10.00"> position</text>
</g>
<!-- Node17 -->
<g id="node17" class="node">
<title>Node17</title>
<g id="a_node17"><a xlink:href="classDot.html" target="_top" xlink:title="Represents the center of the galaxy.">
<polygon fill="white" stroke="black" points="1959,-167.5 1959,-186.5 1993,-186.5 1993,-167.5 1959,-167.5"/>
<text text-anchor="middle" x="1976" y="-174.5" font-family="Helvetica,sans-Serif" font-size="10.00">Dot</text>
</a>
</g>
</g>
<!-- Node14&#45;&gt;Node17 -->
<g id="edge18" class="edge">
<title>Node14&#45;&gt;Node17</title>
<path fill="none" stroke="#9a32cd" stroke-dasharray="5,2" d="M1022.6,-145.82C1042.49,-148.06 1066.99,-150.55 1089,-152 1440.24,-175.15 1871.19,-176.89 1958.96,-177"/>
<polygon fill="#9a32cd" stroke="#9a32cd" points="1022.98,-142.34 1012.65,-144.68 1022.18,-149.3 1022.98,-142.34"/>
<text text-anchor="middle" x="1455.5" y="-174" font-family="Helvetica,sans-Serif" font-size="10.00"> position</text>
</g>
<!-- Node14&#45;&gt;Node31 -->
<g id="edge40" class="edge">
<title>Node14&#45;&gt;Node31</title>
<path fill="none" stroke="#9a32cd" stroke-dasharray="5,2" d="M1023.04,-140.04C1137.66,-137.28 1468.33,-129.34 1616.8,-125.77"/>
<polygon fill="#9a32cd" stroke="#9a32cd" points="1022.86,-136.54 1012.95,-140.28 1023.03,-143.54 1022.86,-136.54"/>
<text text-anchor="middle" x="1302.5" y="-138" font-family="Helvetica,sans-Serif" font-size="10.00"> keys</text>
</g>
<!-- Node33 -->
<g id="node33" class="node">
<title>Node33</title>
<g id="a_node33"><a xlink:title=" ">
<polygon fill="white" stroke="#bfbfbf" points="2439,-64 2439,-94 2582,-94 2582,-64 2439,-64"/>
<text text-anchor="start" x="2447" y="-82" font-family="Helvetica,sans-Serif" font-size="10.00">std::map&lt; pos_type,</text>
<text text-anchor="middle" x="2510.5" y="-71" font-family="Helvetica,sans-Serif" font-size="10.00"> std::shared_ptr&lt; Dot &gt; &gt;</text>
</a>
</g>
</g>
<!-- Node14&#45;&gt;Node33 -->
<g id="edge44" class="edge">
<title>Node14&#45;&gt;Node33</title>
<path fill="none" stroke="#9a32cd" stroke-dasharray="5,2" d="M1011.29,-127.19C1051.39,-108.92 1127.51,-79 1196,-79 1196,-79 1196,-79 2185.5,-79 2272.69,-79 2373.07,-79 2438.71,-79"/>
<polygon fill="#9a32cd" stroke="#9a32cd" points="1009.72,-124.06 1002.13,-131.45 1012.67,-130.41 1009.72,-124.06"/>
<text text-anchor="middle" x="1691.5" y="-82" font-family="Helvetica,sans-Serif" font-size="10.00"> keys</text>
</g>
<!-- Node15&#45;&gt;Node13 -->
<g id="edge14" class="edge">
<title>Node15&#45;&gt;Node13</title>
<path fill="none" stroke="#9a32cd" stroke-dasharray="5,2" d="M1078.22,-229C1115.43,-229 1154.49,-229 1176.97,-229"/>
<polygon fill="#9a32cd" stroke="#9a32cd" points="1077.8,-225.5 1067.8,-229 1077.8,-232.5 1077.8,-225.5"/>
<text text-anchor="middle" x="1124" y="-232" font-family="Helvetica,sans-Serif" font-size="10.00"> last_change</text>
</g>
<!-- Node16 -->
<g id="node16" class="node">
<title>Node16</title>
<g id="a_node16"><a xlink:title=" ">
<polygon fill="white" stroke="#bfbfbf" points="2123.5,-259.5 2123.5,-278.5 2245.5,-278.5 2245.5,-259.5 2123.5,-259.5"/>
<text text-anchor="middle" x="2184.5" y="-266.5" font-family="Helvetica,sans-Serif" font-size="10.00">std::weak_ptr&lt; Dot &gt;</text>
</a>
</g>
</g>
<!-- Node16&#45;&gt;Node13 -->
<g id="edge16" class="edge">
<title>Node16&#45;&gt;Node13</title>
<path fill="none" stroke="#9a32cd" stroke-dasharray="5,2" d="M2112.83,-269.97C2032.98,-270.84 1899.14,-271.62 1784,-269 1539.81,-263.44 1473.61,-296.19 1235,-244 1229.04,-242.7 1222.81,-240.52 1217.19,-238.22"/>
<polygon fill="#9a32cd" stroke="#9a32cd" points="2113.29,-273.47 2123.25,-269.85 2113.22,-266.47 2113.29,-273.47"/>
<text text-anchor="middle" x="1691.5" y="-274" font-family="Helvetica,sans-Serif" font-size="10.00"> assigned_dot</text>
</g>
<!-- Node17&#45;&gt;Node16 -->
<g id="edge17" class="edge">
<title>Node17&#45;&gt;Node16</title>
<path fill="none" stroke="#9a32cd" stroke-dasharray="5,2" d="M2002.52,-188.37C2043.56,-206.65 2123.52,-242.28 2161.91,-259.38"/>
<polygon fill="#9a32cd" stroke="#9a32cd" points="2003.76,-185.09 1993.2,-184.22 2000.91,-191.49 2003.76,-185.09"/>
<text text-anchor="middle" x="2077.5" y="-235" font-family="Helvetica,sans-Serif" font-size="10.00"> ptr</text>
</g>
<!-- Node19 -->
<g id="node19" class="node">
<title>Node19</title>
<g id="a_node19"><a xlink:title=" ">
<polygon fill="white" stroke="#bfbfbf" points="2120,-25.5 2120,-44.5 2249,-44.5 2249,-25.5 2120,-25.5"/>
<text text-anchor="middle" x="2184.5" y="-32.5" font-family="Helvetica,sans-Serif" font-size="10.00">std::shared_ptr&lt; Dot &gt;</text>
</a>
</g>
</g>
<!-- Node17&#45;&gt;Node19 -->
<g id="edge22" class="edge">
<title>Node17&#45;&gt;Node19</title>
<path fill="none" stroke="#9a32cd" stroke-dasharray="5,2" d="M1999.18,-161.75C2041.82,-132.43 2134.15,-68.93 2169.42,-44.68"/>
<polygon fill="#9a32cd" stroke="#9a32cd" points="1997.13,-158.91 1990.87,-167.46 2001.09,-164.68 1997.13,-158.91"/>
<text text-anchor="middle" x="2077.5" y="-126" font-family="Helvetica,sans-Serif" font-size="10.00"> ptr</text>
</g>
<!-- Node18&#45;&gt;Node17 -->
<g id="edge19" class="edge">
<title>Node18&#45;&gt;Node17</title>
<path fill="none" stroke="#9a32cd" stroke-dasharray="5,2" d="M1764.09,-198.65C1829.73,-191.91 1922.14,-182.43 1958.95,-178.65"/>
<polygon fill="#9a32cd" stroke="#9a32cd" points="1763.39,-195.2 1753.8,-199.71 1764.1,-202.17 1763.39,-195.2"/>
<text text-anchor="middle" x="1841.5" y="-199" font-family="Helvetica,sans-Serif" font-size="10.00"> fields</text>
</g>
<!-- Node19&#45;&gt;Node10 -->
<g id="edge21" class="edge">
<title>Node19&#45;&gt;Node10</title>
<path fill="none" stroke="#9a32cd" stroke-dasharray="5,2" d="M2109.74,-31.82C2070.36,-30.38 2021.05,-29 1977,-29 981,-29 981,-29 981,-29 864.08,-29 812.48,-212.85 801.7,-257.38"/>
<polygon fill="#9a32cd" stroke="#9a32cd" points="2109.67,-35.32 2119.79,-32.19 2109.93,-28.32 2109.67,-35.32"/>
<text text-anchor="middle" x="1455.5" y="-43" font-family="Helvetica,sans-Serif" font-size="10.00"> old_assoziation</text>
<text text-anchor="middle" x="1455.5" y="-32" font-family="Helvetica,sans-Serif" font-size="10.00">new_assoziation</text>
</g>
<!-- Node32 -->
<g id="node32" class="node">
<title>Node32</title>
<g id="a_node32"><a xlink:title=" ">
<polygon fill="white" stroke="#bfbfbf" points="2453,-0.5 2453,-41.5 2568,-41.5 2568,-0.5 2453,-0.5"/>
<text text-anchor="start" x="2461" y="-29.5" font-family="Helvetica,sans-Serif" font-size="10.00">std::map&lt; unsigned</text>
<text text-anchor="start" x="2461" y="-18.5" font-family="Helvetica,sans-Serif" font-size="10.00"> int, std::shared_ptr</text>
<text text-anchor="middle" x="2510.5" y="-7.5" font-family="Helvetica,sans-Serif" font-size="10.00">&lt; Dot &gt; &gt;</text>
</a>
</g>
</g>
<!-- Node19&#45;&gt;Node32 -->
<g id="edge42" class="edge">
<title>Node19&#45;&gt;Node32</title>
<path fill="none" stroke="#9a32cd" stroke-dasharray="5,2" d="M2239.16,-23.69C2248.41,-22.16 2257.95,-20.83 2267,-20 2330.31,-14.22 2403.3,-15.61 2452.53,-17.72"/>
<polygon fill="#9a32cd" stroke="#9a32cd" points="2238.53,-20.25 2229.29,-25.43 2239.74,-27.15 2238.53,-20.25"/>
<text text-anchor="middle" x="2344" y="-23" font-family="Helvetica,sans-Serif" font-size="10.00"> elements</text>
</g>
<!-- Node19&#45;&gt;Node33 -->
<g id="edge45" class="edge">
<title>Node19&#45;&gt;Node33</title>
<path fill="none" stroke="#9a32cd" stroke-dasharray="5,2" d="M2259.18,-37.26C2305.85,-39.59 2367.31,-44.35 2421,-54 2434.67,-56.46 2449.27,-60.13 2462.59,-63.91"/>
<polygon fill="#9a32cd" stroke="#9a32cd" points="2259.31,-33.76 2249.15,-36.78 2258.97,-40.75 2259.31,-33.76"/>
<text text-anchor="middle" x="2344" y="-57" font-family="Helvetica,sans-Serif" font-size="10.00"> elements</text>
</g>
<!-- Node20 -->
<g id="node20" class="node">
<title>Node20</title>
<g id="a_node20"><a xlink:title=" ">
<polygon fill="white" stroke="#bfbfbf" points="540.5,-257.5 540.5,-276.5 676.5,-276.5 676.5,-257.5 540.5,-257.5"/>
<text text-anchor="middle" x="608.5" y="-264.5" font-family="Helvetica,sans-Serif" font-size="10.00">std::weak_ptr&lt; Player &gt;</text>
</a>
</g>
</g>
<!-- Node20&#45;&gt;Node10 -->
<g id="edge23" class="edge">
<title>Node20&#45;&gt;Node10</title>
<path fill="none" stroke="#9a32cd" stroke-dasharray="5,2" d="M686.75,-267C710.75,-267 736.26,-267 756.73,-267"/>
<polygon fill="#9a32cd" stroke="#9a32cd" points="686.58,-263.5 676.58,-267 686.58,-270.5 686.58,-263.5"/>
<text text-anchor="middle" x="722" y="-270" font-family="Helvetica,sans-Serif" font-size="10.00"> player</text>
</g>
<!-- Node21 -->
<g id="node21" class="node">
<title>Node21</title>
<g id="a_node21"><a xlink:href="classPlayer.html" target="_top" xlink:title="represents a individual player/client">
<polygon fill="white" stroke="black" points="389.5,-323.5 389.5,-342.5 436.5,-342.5 436.5,-323.5 389.5,-323.5"/>
<text text-anchor="middle" x="413" y="-330.5" font-family="Helvetica,sans-Serif" font-size="10.00">Player</text>
</a>
</g>
</g>
<!-- Node21&#45;&gt;Node20 -->
<g id="edge24" class="edge">
<title>Node21&#45;&gt;Node20</title>
<path fill="none" stroke="#9a32cd" stroke-dasharray="5,2" d="M444.33,-319.3C467.47,-309.2 500.33,-295.59 530,-286 540.81,-282.51 552.64,-279.3 563.74,-276.56"/>
<polygon fill="#9a32cd" stroke="#9a32cd" points="442.78,-316.16 435.04,-323.4 445.6,-322.57 442.78,-316.16"/>
<text text-anchor="middle" x="503.5" y="-301" font-family="Helvetica,sans-Serif" font-size="10.00"> ptr</text>
</g>
<!-- Node22 -->
<g id="node22" class="node">
<title>Node22</title>
<g id="a_node22"><a xlink:title="STL class.">
<polygon fill="white" stroke="#bfbfbf" points="165,-430.5 165,-449.5 230,-449.5 230,-430.5 165,-430.5"/>
<text text-anchor="middle" x="197.5" y="-437.5" font-family="Helvetica,sans-Serif" font-size="10.00">std::string</text>
</a>
</g>
</g>
<!-- Node22&#45;&gt;Node21 -->
<g id="edge25" class="edge">
<title>Node22&#45;&gt;Node21</title>
<path fill="none" stroke="#9a32cd" stroke-dasharray="5,2" d="M226.87,-425.78C271.06,-403.63 355.17,-361.48 392.87,-342.59"/>
<polygon fill="#9a32cd" stroke="#9a32cd" points="225.2,-422.71 217.82,-430.32 228.33,-428.96 225.2,-422.71"/>
<text text-anchor="middle" x="301.5" y="-417" font-family="Helvetica,sans-Serif" font-size="10.00"> passphrase</text>
<text text-anchor="middle" x="301.5" y="-406" font-family="Helvetica,sans-Serif" font-size="10.00">name</text>
</g>
<!-- Node28 -->
<g id="node28" class="node">
<title>Node28</title>
<g id="a_node28"><a xlink:title=" ">
<polygon fill="white" stroke="#bfbfbf" points="349,-508 349,-538 477,-538 477,-508 349,-508"/>
<text text-anchor="start" x="357" y="-526" font-family="Helvetica,sans-Serif" font-size="10.00">std::map&lt; std::string,</text>
<text text-anchor="middle" x="413" y="-515" font-family="Helvetica,sans-Serif" font-size="10.00"> command_mapping &gt;</text>
</a>
</g>
</g>
<!-- Node22&#45;&gt;Node28 -->
<g id="edge36" class="edge">
<title>Node22&#45;&gt;Node28</title>
<path fill="none" stroke="#9a32cd" stroke-dasharray="5,2" d="M232.68,-453.29C271.08,-468.22 333.28,-492.4 373.4,-507.99"/>
<polygon fill="#9a32cd" stroke="#9a32cd" points="233.58,-449.88 222.99,-449.52 231.04,-456.41 233.58,-449.88"/>
<text text-anchor="middle" x="301.5" y="-494" font-family="Helvetica,sans-Serif" font-size="10.00"> keys</text>
</g>
<!-- Node23 -->
<g id="node23" class="node">
<title>Node23</title>
<g id="a_node23"><a xlink:title="STL class.">
<polygon fill="white" stroke="#bfbfbf" points="0,-425 0,-455 104,-455 104,-425 0,-425"/>
<text text-anchor="start" x="8" y="-443" font-family="Helvetica,sans-Serif" font-size="10.00">std::basic_string&lt;</text>
<text text-anchor="middle" x="52" y="-432" font-family="Helvetica,sans-Serif" font-size="10.00"> char &gt;</text>
</a>
</g>
</g>
<!-- Node23&#45;&gt;Node22 -->
<g id="edge26" class="edge">
<title>Node23&#45;&gt;Node22</title>
<path fill="none" stroke="midnightblue" d="M114.45,-440C131.74,-440 149.84,-440 164.63,-440"/>
<polygon fill="midnightblue" stroke="midnightblue" points="114.4,-436.5 104.4,-440 114.4,-443.5 114.4,-436.5"/>
</g>
<!-- Node24&#45;&gt;Node3 -->
<g id="edge28" class="edge">
<title>Node24&#45;&gt;Node3</title>
<path fill="none" stroke="#9a32cd" stroke-dasharray="5,2" d="M3161.89,-482.68C3120.34,-475.79 3055.07,-464.96 3019.73,-459.1"/>
<polygon fill="#9a32cd" stroke="#9a32cd" points="3161.47,-486.16 3171.91,-484.34 3162.61,-479.25 3161.47,-486.16"/>
<text text-anchor="middle" x="3115" y="-483" font-family="Helvetica,sans-Serif" font-size="10.00"> net</text>
</g>
<!-- Node25 -->
<g id="node25" class="node">
<title>Node25</title>
<g id="a_node25"><a xlink:title=" ">
<polygon fill="white" stroke="#bfbfbf" points="2930,-585.5 2930,-604.5 3058,-604.5 3058,-585.5 2930,-585.5"/>
<text text-anchor="middle" x="2994" y="-592.5" font-family="Helvetica,sans-Serif" font-size="10.00">std::list&lt; message_t &gt;</text>
</a>
</g>
</g>
<!-- Node25&#45;&gt;Node24 -->
<g id="edge29" class="edge">
<title>Node25&#45;&gt;Node24</title>
<path fill="none" stroke="#9a32cd" stroke-dasharray="5,2" d="M3022.49,-580.79C3064.87,-558.87 3145.06,-517.41 3181.34,-498.65"/>
<polygon fill="#9a32cd" stroke="#9a32cd" points="3020.83,-577.7 3013.55,-585.41 3024.04,-583.92 3020.83,-577.7"/>
<text text-anchor="middle" x="3115" y="-554" font-family="Helvetica,sans-Serif" font-size="10.00"> to_process</text>
</g>
<!-- Node26 -->
<g id="node26" class="node">
<title>Node26</title>
<g id="a_node26"><a xlink:href="structmessage__t.html" target="_top" xlink:title="simple message type that stores relevant information about a message">
<polygon fill="white" stroke="black" points="2715,-598.5 2715,-617.5 2785,-617.5 2785,-598.5 2715,-598.5"/>
<text text-anchor="middle" x="2750" y="-605.5" font-family="Helvetica,sans-Serif" font-size="10.00">message_t</text>
</a>
</g>
</g>
<!-- Node26&#45;&gt;Node25 -->
<g id="edge30" class="edge">
<title>Node26&#45;&gt;Node25</title>
<path fill="none" stroke="#9a32cd" stroke-dasharray="5,2" d="M2795.29,-605.62C2832.89,-603.6 2887.3,-600.68 2929.53,-598.41"/>
<polygon fill="#9a32cd" stroke="#9a32cd" points="2794.96,-602.13 2785.16,-606.16 2795.33,-609.12 2794.96,-602.13"/>
<text text-anchor="middle" x="2878" y="-605" font-family="Helvetica,sans-Serif" font-size="10.00"> elements</text>
</g>
<!-- Node27 -->
<g id="node27" class="node">
<title>Node27</title>
<g id="a_node27"><a xlink:title="STL class.">
<polygon fill="white" stroke="#bfbfbf" points="2959.5,-407.5 2959.5,-426.5 3028.5,-426.5 3028.5,-407.5 2959.5,-407.5"/>
<text text-anchor="middle" x="2994" y="-414.5" font-family="Helvetica,sans-Serif" font-size="10.00">std::thread</text>
</a>
</g>
</g>
<!-- Node27&#45;&gt;Node24 -->
<g id="edge32" class="edge">
<title>Node27&#45;&gt;Node24</title>
<path fill="none" stroke="#9a32cd" stroke-dasharray="5,2" d="M3038.95,-411.44C3072.46,-409.29 3118.7,-410.94 3154,-430 3174.57,-441.11 3188.96,-465.76 3195.68,-479.42"/>
<polygon fill="#9a32cd" stroke="#9a32cd" points="3038.24,-407.99 3028.54,-412.26 3038.79,-414.97 3038.24,-407.99"/>
<text text-anchor="middle" x="3115" y="-433" font-family="Helvetica,sans-Serif" font-size="10.00"> process_thread</text>
</g>
<!-- Node28&#45;&gt;Node3 -->
<g id="edge34" class="edge">
<title>Node28&#45;&gt;Node3</title>
<path fill="none" stroke="#9a32cd" stroke-dasharray="5,2" d="M487.59,-528.03C523.71,-530.09 567.86,-532 607.5,-532 607.5,-532 607.5,-532 2751,-532 2838.96,-532 2936.79,-485.24 2975.69,-464.6"/>
<polygon fill="#9a32cd" stroke="#9a32cd" points="487.33,-524.51 477.15,-527.42 486.93,-531.5 487.33,-524.51"/>
<text text-anchor="middle" x="1570" y="-535" font-family="Helvetica,sans-Serif" font-size="10.00"> commands</text>
</g>
<!-- Node29 -->
<g id="node29" class="node">
<title>Node29</title>
<g id="a_node29"><a xlink:href="structcommand__mapping.html" target="_top" xlink:title=" ">
<polygon fill="white" stroke="black" points="141,-513.5 141,-532.5 254,-532.5 254,-513.5 141,-513.5"/>
<text text-anchor="middle" x="197.5" y="-520.5" font-family="Helvetica,sans-Serif" font-size="10.00">command_mapping</text>
</a>
</g>
</g>
<!-- Node29&#45;&gt;Node28 -->
<g id="edge35" class="edge">
<title>Node29&#45;&gt;Node28</title>
<path fill="none" stroke="#9a32cd" stroke-dasharray="5,2" d="M264.14,-523C291.08,-523 322.14,-523 348.82,-523"/>
<polygon fill="#9a32cd" stroke="#9a32cd" points="264.04,-519.5 254.04,-523 264.04,-526.5 264.04,-519.5"/>
<text text-anchor="middle" x="301.5" y="-526" font-family="Helvetica,sans-Serif" font-size="10.00"> elements</text>
</g>
<!-- Node30 -->
<g id="node30" class="node">
<title>Node30</title>
<g id="a_node30"><a xlink:href="classGameState.html" target="_top" xlink:title="Represents the current state of the game.">
<polygon fill="white" stroke="black" points="2714.5,-128.5 2714.5,-147.5 2785.5,-147.5 2785.5,-128.5 2714.5,-128.5"/>
<text text-anchor="middle" x="2750" y="-135.5" font-family="Helvetica,sans-Serif" font-size="10.00">GameState</text>
</a>
</g>
</g>
<!-- Node30&#45;&gt;Node3 -->
<g id="edge37" class="edge">
<title>Node30&#45;&gt;Node3</title>
<path fill="none" stroke="#9a32cd" stroke-dasharray="5,2" d="M2776.77,-152.91C2813.75,-175.86 2880.84,-223.56 2912,-284 2943.17,-344.46 2886.29,-383.88 2930,-436 2939.32,-447.12 2954.9,-451.88 2968.23,-453.86"/>
<polygon fill="#9a32cd" stroke="#9a32cd" points="2778.43,-149.82 2768.06,-147.62 2774.79,-155.81 2778.43,-149.82"/>
<text text-anchor="middle" x="2878" y="-287" font-family="Helvetica,sans-Serif" font-size="10.00"> current_state</text>
</g>
<!-- Node31&#45;&gt;Node30 -->
<g id="edge38" class="edge">
<title>Node31&#45;&gt;Node30</title>
<path fill="none" stroke="#9a32cd" stroke-dasharray="5,2" d="M1776.46,-130.34C1832.62,-134.05 1908.2,-138 1975,-138 1975,-138 1975,-138 2511.5,-138 2583.66,-138 2668.15,-138 2714.39,-138"/>
<polygon fill="#9a32cd" stroke="#9a32cd" points="1776.42,-126.83 1766.21,-129.65 1775.95,-133.82 1776.42,-126.83"/>
<text text-anchor="middle" x="2184.5" y="-141" font-family="Helvetica,sans-Serif" font-size="10.00"> fields</text>
</g>
<!-- Node32&#45;&gt;Node30 -->
<g id="edge41" class="edge">
<title>Node32&#45;&gt;Node30</title>
<path fill="none" stroke="#9a32cd" stroke-dasharray="5,2" d="M2570.72,-45.62C2597.11,-57.01 2628.4,-71.07 2656,-85 2683.71,-98.98 2714.84,-117.28 2733.14,-128.31"/>
<polygon fill="#9a32cd" stroke="#9a32cd" points="2571.8,-42.28 2561.23,-41.56 2569.05,-48.71 2571.8,-42.28"/>
<text text-anchor="middle" x="2628" y="-88" font-family="Helvetica,sans-Serif" font-size="10.00"> dots_by_id</text>
</g>
<!-- Node33&#45;&gt;Node30 -->
<g id="edge43" class="edge">
<title>Node33&#45;&gt;Node30</title>
<path fill="none" stroke="#9a32cd" stroke-dasharray="5,2" d="M2587.44,-96.39C2609.58,-101.59 2633.79,-107.4 2656,-113 2675.45,-117.9 2697.11,-123.7 2714.62,-128.48"/>
<polygon fill="#9a32cd" stroke="#9a32cd" points="2587.96,-92.92 2577.43,-94.05 2586.37,-99.74 2587.96,-92.92"/>
<text text-anchor="middle" x="2628" y="-116" font-family="Helvetica,sans-Serif" font-size="10.00"> dots</text>
</g>
<!-- Node34&#45;&gt;Node30 -->
<g id="edge46" class="edge">
<title>Node34&#45;&gt;Node30</title>
<path fill="none" stroke="#9a32cd" stroke-dasharray="5,2" d="M1909.04,-230.64C1955.75,-223.64 2019.76,-216 2076.5,-216 2076.5,-216 2076.5,-216 2511.5,-216 2598.3,-216 2694.43,-168.39 2732.34,-147.56"/>
<polygon fill="#9a32cd" stroke="#9a32cd" points="1908.4,-227.2 1899.05,-232.17 1909.46,-234.12 1908.4,-227.2"/>
<text text-anchor="middle" x="2184.5" y="-219" font-family="Helvetica,sans-Serif" font-size="10.00"> fields_by_id</text>
</g>
<!-- Node35&#45;&gt;Node3 -->
<g id="edge48" class="edge">
<title>Node35&#45;&gt;Node3</title>
<path fill="none" stroke="#9a32cd" stroke-dasharray="5,2" d="M2836.38,-476.36C2883.06,-469.99 2937.51,-462.57 2968.35,-458.36"/>
<polygon fill="#9a32cd" stroke="#9a32cd" points="2835.68,-472.92 2826.24,-477.74 2836.62,-479.86 2835.68,-472.92"/>
<text text-anchor="middle" x="2878" y="-478" font-family="Helvetica,sans-Serif" font-size="10.00"> poll</text>
</g>
<!-- Node36&#45;&gt;Node1 -->
<g id="edge50" class="edge">
<title>Node36&#45;&gt;Node1</title>
<path fill="none" stroke="#9a32cd" stroke-dasharray="5,2" d="M2239.35,-371.28C2308.93,-394.91 2427.51,-435.16 2481.38,-453.45"/>
<polygon fill="#9a32cd" stroke="#9a32cd" points="2240.47,-367.97 2229.87,-368.06 2238.22,-374.59 2240.47,-367.97"/>
<text text-anchor="middle" x="2344" y="-445" font-family="Helvetica,sans-Serif" font-size="10.00"> positive_votes</text>
<text text-anchor="middle" x="2344" y="-434" font-family="Helvetica,sans-Serif" font-size="10.00">negative_votes</text>
</g>
</g>
</svg>
