<?xml version="1.0" encoding="UTF-8" standalone="no"?>
<!DOCTYPE svg PUBLIC "-//W3C//DTD SVG 1.1//EN"
 "http://www.w3.org/Graphics/SVG/1.1/DTD/svg11.dtd">
<!-- Generated by graphviz version 2.43.0 (0)
 -->
<!-- Title: Network::broadcast Pages: 1 -->
<!--zoomable 218 -->
<svg id="main" version="1.1" xmlns="http://www.w3.org/2000/svg" xmlns:xlink="http://www.w3.org/1999/xlink" xml:space="preserve" onload="init(evt)">
<style type="text/css"><![CDATA[
.edge:hover path { stroke: red; }
.edge:hover polygon { stroke: red; fill: red; }
]]></style>
<script type="text/javascript"><![CDATA[
var edges = document.getElementsByTagName('g');
if (edges && edges.length) {
  for (var i=0;i<edges.length;i++) {
    if (edges[i].id.substr(0,4)=='edge') {
      edges[i].setAttribute('class','edge');
    }
  }
}
]]></script>
        <defs>
                <circle id="rim" cx="0" cy="0" r="7"/>
                <circle id="rim2" cx="0" cy="0" r="3.5"/>
                <g id="zoomPlus">
                        <use xlink:href="#rim" fill="#404040">
                                <set attributeName="fill" to="#808080" begin="zoomplus.mouseover" end="zoomplus.mouseout"/>
                        </use>
                        <path d="M-4,0h8M0,-4v8" fill="none" stroke="white" stroke-width="1.5" pointer-events="none"/>
                </g>
                <g id="zoomMin">
                        <use xlink:href="#rim" fill="#404040">
                                <set attributeName="fill" to="#808080" begin="zoomminus.mouseover" end="zoomminus.mouseout"/>
                        </use>
                        <path d="M-4,0h8" fill="none" stroke="white" stroke-width="1.5" pointer-events="none"/>
                </g>
                <g id="dirArrow">
                        <path fill="none" stroke="white" stroke-width="1.5" d="M0,-3.0v7 M-2.5,-0.5L0,-3.0L2.5,-0.5"/>
                </g>
               <g id="resetDef">
                       <use xlink:href="#rim2" fill="#404040">
                               <set attributeName="fill" to="#808080" begin="reset.mouseover" end="reset.mouseout"/>
                       </use>
               </g>
        </defs>

<script type="text/javascript">
var viewWidth = 837;
var viewHeight = 218;
var sectionId = 'dynsection-2';
</script>
<script xlink:href="svgpan.js"/>
<svg id="graph" class="graph">
<g id="viewport">
<title>Network::broadcast</title>
<polygon fill="white" stroke="transparent" points="-4,4 -4,-214 833,-214 833,4 -4,4"/>
<!-- Node1 -->
<g id="node1" class="node">
<title>Node1</title>
<g id="a_node1"><a xlink:title="broadcast to all players">
<polygon fill="#bfbfbf" stroke="black" points="717,-114.5 717,-133.5 829,-133.5 829,-114.5 717,-114.5"/>
<text text-anchor="middle" x="773" y="-121.5" font-family="Helvetica,sans-Serif" font-size="10.00">Network::broadcast</text>
</a>
</g>
</g>
<!-- Node2 -->
<g id="node2" class="node">
<title>Node2</title>
<g id="a_node2"><a xlink:href="classGalaxy.html#a60e26c21a827518c37d85d8d7bd8e1b5" target="_top" xlink:title="needs to be called when Player disconnects from server">
<polygon fill="white" stroke="black" points="547.5,-190.5 547.5,-209.5 665.5,-209.5 665.5,-190.5 547.5,-190.5"/>
<text text-anchor="middle" x="606.5" y="-197.5" font-family="Helvetica,sans-Serif" font-size="10.00">Galaxy::deletePlayer</text>
</a>
</g>
</g>
<!-- Node1&#45;&gt;Node2 -->
<g id="edge1" class="edge">
<title>Node1&#45;&gt;Node2</title>
<path fill="none" stroke="midnightblue" d="M750.98,-139.79C733.16,-152.51 706.52,-170.02 681,-181 672.28,-184.75 662.66,-187.89 653.32,-190.48"/>
<polygon fill="midnightblue" stroke="midnightblue" points="753.41,-142.35 759.43,-133.64 749.29,-136.69 753.41,-142.35"/>
</g>
<!-- Node7 -->
<g id="node7" class="node">
<title>Node7</title>
<g id="a_node7"><a xlink:href="classGalaxy.html#aabe9c4c5e1f5db027b2296b10d3da11e" target="_top" xlink:title="converts data from the client into a GameChange and applies it">
<polygon fill="white" stroke="black" points="532,-152.5 532,-171.5 681,-171.5 681,-152.5 532,-152.5"/>
<text text-anchor="middle" x="606.5" y="-159.5" font-family="Helvetica,sans-Serif" font-size="10.00">Galaxy::makeGameChange</text>
</a>
</g>
</g>
<!-- Node1&#45;&gt;Node7 -->
<g id="edge6" class="edge">
<title>Node1&#45;&gt;Node7</title>
<path fill="none" stroke="midnightblue" d="M720.5,-135.9C697.38,-141.24 670.47,-147.45 648.71,-152.48"/>
<polygon fill="midnightblue" stroke="midnightblue" points="721.53,-139.25 730.49,-133.59 719.96,-132.43 721.53,-139.25"/>
</g>
<!-- Node9 -->
<g id="node9" class="node">
<title>Node9</title>
<g id="a_node9"><a xlink:href="classGalaxy.html#aabdcaeeeee79d265ed8f2b656e0f8e21" target="_top" xlink:title="generates a new Game">
<polygon fill="white" stroke="black" points="553.5,-76.5 553.5,-95.5 659.5,-95.5 659.5,-76.5 553.5,-76.5"/>
<text text-anchor="middle" x="606.5" y="-83.5" font-family="Helvetica,sans-Serif" font-size="10.00">Galaxy::newGame</text>
</a>
</g>
</g>
<!-- Node1&#45;&gt;Node9 -->
<g id="edge8" class="edge">
<title>Node1&#45;&gt;Node9</title>
<path fill="none" stroke="midnightblue" d="M720.5,-112.1C697.38,-106.76 670.47,-100.55 648.71,-95.52"/>
<polygon fill="midnightblue" stroke="midnightblue" points="719.96,-115.57 730.49,-114.41 721.53,-108.75 719.96,-115.57"/>
</g>
<!-- Node11 -->
<g id="node11" class="node">
<title>Node11</title>
<g id="a_node11"><a xlink:href="classGalaxy.html#a643ab9dcd2440fe6c4335eff121718ae" target="_top" xlink:title=" ">
<polygon fill="white" stroke="black" points="539.5,-38.5 539.5,-57.5 673.5,-57.5 673.5,-38.5 539.5,-38.5"/>
<text text-anchor="middle" x="606.5" y="-45.5" font-family="Helvetica,sans-Serif" font-size="10.00">Galaxy::noitifyVoteState</text>
</a>
</g>
</g>
<!-- Node1&#45;&gt;Node11 -->
<g id="edge10" class="edge">
<title>Node1&#45;&gt;Node11</title>
<path fill="none" stroke="midnightblue" d="M750.98,-108.21C733.16,-95.49 706.52,-77.98 681,-67 672.28,-63.25 662.66,-60.11 653.32,-57.52"/>
<polygon fill="midnightblue" stroke="midnightblue" points="749.29,-111.31 759.43,-114.36 753.41,-105.65 749.29,-111.31"/>
</g>
<!-- Node14 -->
<g id="node14" class="node">
<title>Node14</title>
<g id="a_node14"><a xlink:href="classGalaxy.html#a4a3100bfbe43c0ac7243decec3753a35" target="_top" xlink:title=" ">
<polygon fill="white" stroke="black" points="549,-114.5 549,-133.5 664,-133.5 664,-114.5 549,-114.5"/>
<text text-anchor="middle" x="606.5" y="-121.5" font-family="Helvetica,sans-Serif" font-size="10.00">Galaxy::playerSetup</text>
</a>
</g>
</g>
<!-- Node1&#45;&gt;Node14 -->
<g id="edge13" class="edge">
<title>Node1&#45;&gt;Node14</title>
<path fill="none" stroke="midnightblue" d="M706.7,-124C692.67,-124 677.95,-124 664.27,-124"/>
<polygon fill="midnightblue" stroke="midnightblue" points="706.77,-127.5 716.77,-124 706.77,-120.5 706.77,-127.5"/>
</g>
<!-- Node3 -->
<g id="node3" class="node">
<title>Node3</title>
<g id="a_node3"><a xlink:href="classNetwork.html#a356c8c0ec32e2795bd754b067838fd89" target="_top" xlink:title="prozesses all incoming messages">
<polygon fill="white" stroke="black" points="323.5,-190.5 323.5,-209.5 473.5,-209.5 473.5,-190.5 323.5,-190.5"/>
<text text-anchor="middle" x="398.5" y="-197.5" font-family="Helvetica,sans-Serif" font-size="10.00">Network::processMessages</text>
</a>
</g>
</g>
<!-- Node2&#45;&gt;Node3 -->
<g id="edge2" class="edge">
<title>Node2&#45;&gt;Node3</title>
<path fill="none" stroke="midnightblue" d="M537.18,-200C516.84,-200 494.46,-200 473.76,-200"/>
<polygon fill="midnightblue" stroke="midnightblue" points="537.29,-203.5 547.29,-200 537.29,-196.5 537.29,-203.5"/>
</g>
<!-- Node4 -->
<g id="node4" class="node">
<title>Node4</title>
<g id="a_node4"><a xlink:href="classNetwork.html#a7d9b412cc58237783bd431544374e11a" target="_top" xlink:title="starts server and prozessing thread">
<polygon fill="white" stroke="black" points="185,-190.5 185,-209.5 265,-209.5 265,-190.5 185,-190.5"/>
<text text-anchor="middle" x="225" y="-197.5" font-family="Helvetica,sans-Serif" font-size="10.00">Network::run</text>
</a>
</g>
</g>
<!-- Node3&#45;&gt;Node4 -->
<g id="edge3" class="edge">
<title>Node3&#45;&gt;Node4</title>
<path fill="none" stroke="midnightblue" d="M312.95,-200C296.33,-200 279.64,-200 265.4,-200"/>
<polygon fill="midnightblue" stroke="midnightblue" points="313.28,-203.5 323.28,-200 313.28,-196.5 313.28,-203.5"/>
</g>
<!-- Node5 -->
<g id="node5" class="node">
<title>Node5</title>
<g id="a_node5"><a xlink:href="classGalaxy.html#a06c64a89d3bd684797c725c8419c10ca" target="_top" xlink:title="starts the &quot;game loop&quot;. this blocks the thread until server stops.">
<polygon fill="white" stroke="black" points="77,-190.5 77,-209.5 149,-209.5 149,-190.5 77,-190.5"/>
<text text-anchor="middle" x="113" y="-197.5" font-family="Helvetica,sans-Serif" font-size="10.00">Galaxy::run</text>
</a>
</g>
</g>
<!-- Node4&#45;&gt;Node5 -->
<g id="edge4" class="edge">
<title>Node4&#45;&gt;Node5</title>
<path fill="none" stroke="midnightblue" d="M174.64,-200C166.1,-200 157.37,-200 149.3,-200"/>
<polygon fill="midnightblue" stroke="midnightblue" points="174.91,-203.5 184.91,-200 174.91,-196.5 174.91,-203.5"/>
</g>
<!-- Node6 -->
<g id="node6" class="node">
<title>Node6</title>
<g id="a_node6"><a xlink:href="main_8cpp.html#a3c04138a5bfe5d72780bb7e82a18e627" target="_top" xlink:title=" ">
<polygon fill="white" stroke="black" points="0,-190.5 0,-209.5 41,-209.5 41,-190.5 0,-190.5"/>
<text text-anchor="middle" x="20.5" y="-197.5" font-family="Helvetica,sans-Serif" font-size="10.00">main</text>
</a>
</g>
</g>
<!-- Node5&#45;&gt;Node6 -->
<g id="edge5" class="edge">
<title>Node5&#45;&gt;Node6</title>
<path fill="none" stroke="midnightblue" d="M66.67,-200C57.67,-200 48.68,-200 41.11,-200"/>
<polygon fill="midnightblue" stroke="midnightblue" points="66.75,-203.5 76.75,-200 66.75,-196.5 66.75,-203.5"/>
</g>
<!-- Node8 -->
<g id="node8" class="node">
<title>Node8</title>
<g id="a_node8"><a xlink:href="classGalaxy.html#aac431eec66d158f5f82cdbc3eec39586" target="_top" xlink:title="Construct a new Galaxy object with a default GameState of 10 x 10 Fields.">
<polygon fill="white" stroke="black" points="353,-133.5 353,-152.5 444,-152.5 444,-133.5 353,-133.5"/>
<text text-anchor="middle" x="398.5" y="-140.5" font-family="Helvetica,sans-Serif" font-size="10.00">Galaxy::Galaxy</text>
</a>
</g>
</g>
<!-- Node7&#45;&gt;Node8 -->
<g id="edge7" class="edge">
<title>Node7&#45;&gt;Node8</title>
<path fill="none" stroke="midnightblue" d="M521.63,-154.26C495.06,-151.81 466.72,-149.2 444.04,-147.11"/>
<polygon fill="midnightblue" stroke="midnightblue" points="521.43,-157.76 531.71,-155.19 522.07,-150.79 521.43,-157.76"/>
</g>
<!-- Node10 -->
<g id="node10" class="node">
<title>Node10</title>
<g id="a_node10"><a xlink:href="classNewGamePoll.html#a21cbd2f6e503256b0f57010b4b63f6a6" target="_top" xlink:title=" ">
<polygon fill="white" stroke="black" points="340.5,-76.5 340.5,-95.5 456.5,-95.5 456.5,-76.5 340.5,-76.5"/>
<text text-anchor="middle" x="398.5" y="-83.5" font-family="Helvetica,sans-Serif" font-size="10.00">NewGamePoll::reset</text>
</a>
</g>
</g>
<!-- Node9&#45;&gt;Node10 -->
<g id="edge9" class="edge">
<title>Node9&#45;&gt;Node10</title>
<path fill="none" stroke="midnightblue" d="M542.98,-86C515.55,-86 483.57,-86 456.77,-86"/>
<polygon fill="midnightblue" stroke="midnightblue" points="543.25,-89.5 553.25,-86 543.25,-82.5 543.25,-89.5"/>
</g>
<!-- Node12 -->
<g id="node12" class="node">
<title>Node12</title>
<g id="a_node12"><a xlink:href="classNewGamePoll.html#a17992fb86dd5c97ccc605f9bc30c2344" target="_top" xlink:title=" ">
<polygon fill="white" stroke="black" points="301,-38.5 301,-57.5 496,-57.5 496,-38.5 301,-38.5"/>
<text text-anchor="middle" x="398.5" y="-45.5" font-family="Helvetica,sans-Serif" font-size="10.00">NewGamePoll::registerNegativeVote</text>
</a>
</g>
</g>
<!-- Node11&#45;&gt;Node12 -->
<g id="edge11" class="edge">
<title>Node11&#45;&gt;Node12</title>
<path fill="none" stroke="midnightblue" d="M529.3,-48C518.55,-48 507.38,-48 496.3,-48"/>
<polygon fill="midnightblue" stroke="midnightblue" points="529.47,-51.5 539.47,-48 529.47,-44.5 529.47,-51.5"/>
</g>
<!-- Node13 -->
<g id="node13" class="node">
<title>Node13</title>
<g id="a_node13"><a xlink:href="classNewGamePoll.html#a9e280458b11fd4597cbc996d7c6025bc" target="_top" xlink:title=" ">
<polygon fill="white" stroke="black" points="303.5,-0.5 303.5,-19.5 493.5,-19.5 493.5,-0.5 303.5,-0.5"/>
<text text-anchor="middle" x="398.5" y="-7.5" font-family="Helvetica,sans-Serif" font-size="10.00">NewGamePoll::registerPositiveVote</text>
</a>
</g>
</g>
<!-- Node11&#45;&gt;Node13 -->
<g id="edge12" class="edge">
<title>Node11&#45;&gt;Node13</title>
<path fill="none" stroke="midnightblue" d="M543.6,-36.58C514.13,-31.14 479.28,-24.72 451.24,-19.54"/>
<polygon fill="midnightblue" stroke="midnightblue" points="543.31,-40.09 553.78,-38.46 544.58,-33.2 543.31,-40.09"/>
</g>
<!-- Node14&#45;&gt;Node8 -->
<g id="edge14" class="edge">
<title>Node14&#45;&gt;Node8</title>
<path fill="none" stroke="midnightblue" d="M538.65,-130.17C507.72,-133.02 471.79,-136.33 444.19,-138.88"/>
<polygon fill="midnightblue" stroke="midnightblue" points="539.3,-133.62 548.94,-129.22 538.66,-126.65 539.3,-133.62"/>
</g>
</g>
</svg>
        <g id="navigator" transform="translate(0 0)" fill="#404254">
                <rect fill="#f2f5e9" fill-opacity="0.5" stroke="#606060" stroke-width=".5" x="0" y="0" width="60" height="60"/>
                <use id="zoomplus" xlink:href="#zoomPlus" x="17" y="9" onmousedown="handleZoom(evt,'in')"/>
                <use id="zoomminus" xlink:href="#zoomMin" x="42" y="9" onmousedown="handleZoom(evt,'out')"/>
                <use id="reset" xlink:href="#resetDef" x="30" y="36" onmousedown="handleReset()"/>
                <g id="arrowUp" xlink:href="#dirArrow" transform="translate(30 24)" onmousedown="handlePan(0,-1)">
                  <use xlink:href="#rim" fill="#404040">
                        <set attributeName="fill" to="#808080" begin="arrowUp.mouseover" end="arrowUp.mouseout"/>
                  </use>
                  <path fill="none" stroke="white" stroke-width="1.5" d="M0,-3.0v7 M-2.5,-0.5L0,-3.0L2.5,-0.5"/>
                </g>
                <g id="arrowRight" xlink:href="#dirArrow" transform="rotate(90) translate(36 -43)" onmousedown="handlePan(1,0)">
                  <use xlink:href="#rim" fill="#404040">
                        <set attributeName="fill" to="#808080" begin="arrowRight.mouseover" end="arrowRight.mouseout"/>
                  </use>
                  <path fill="none" stroke="white" stroke-width="1.5" d="M0,-3.0v7 M-2.5,-0.5L0,-3.0L2.5,-0.5"/>
                </g>
                <g id="arrowDown" xlink:href="#dirArrow" transform="rotate(180) translate(-30 -48)" onmousedown="handlePan(0,1)">
                  <use xlink:href="#rim" fill="#404040">
                        <set attributeName="fill" to="#808080" begin="arrowDown.mouseover" end="arrowDown.mouseout"/>
                  </use>
                  <path fill="none" stroke="white" stroke-width="1.5" d="M0,-3.0v7 M-2.5,-0.5L0,-3.0L2.5,-0.5"/>
                </g>
                <g id="arrowLeft" xlink:href="#dirArrow" transform="rotate(270) translate(-36 17)" onmousedown="handlePan(-1,0)">
                  <use xlink:href="#rim" fill="#404040">
                        <set attributeName="fill" to="#808080" begin="arrowLeft.mouseover" end="arrowLeft.mouseout"/>
                  </use>
                  <path fill="none" stroke="white" stroke-width="1.5" d="M0,-3.0v7 M-2.5,-0.5L0,-3.0L2.5,-0.5"/>
                </g>
        </g>
        <svg viewBox="0 0 15 15" width="100%" height="30px" preserveAspectRatio="xMaxYMin meet">
         <g id="arrow_out" transform="scale(0.3 0.3)">
          <a xlink:href="classNetwork_a57f3c2d8b53d214d26822a52b899d69f_icgraph_org.svg" target="_base">
           <rect id="button" ry="5" rx="5" y="6" x="6" height="38" width="38"
                fill="#f2f5e9" fill-opacity="0.5" stroke="#606060" stroke-width="1.0"/>
           <path id="arrow"
             d="M 11.500037,31.436501 C 11.940474,20.09759 22.043105,11.32322 32.158766,21.979434 L 37.068811,17.246167 C 37.068811,17.246167 37.088388,32 37.088388,32 L 22.160133,31.978069 C 22.160133,31.978069 26.997745,27.140456 26.997745,27.140456 C 18.528582,18.264221 13.291696,25.230495 11.500037,31.436501 z"
             style="fill:#404040;"/>
          </a>
         </g>
        </svg>
</svg>
