<?xml version="1.0" encoding="UTF-8" standalone="no"?>
<!DOCTYPE svg PUBLIC "-//W3C//DTD SVG 1.1//EN"
 "http://www.w3.org/Graphics/SVG/1.1/DTD/svg11.dtd">
<!-- Generated by graphviz version 2.43.0 (0)
 -->
<!-- Title: NewGamePoll::registerNegativeVote Pages: 1 -->
<svg width="521pt" height="28pt"
 viewBox="0.00 0.00 521.00 28.00" xmlns="http://www.w3.org/2000/svg" xmlns:xlink="http://www.w3.org/1999/xlink">
<g id="graph0" class="graph" transform="scale(1 1) rotate(0) translate(4 24)">
<title>NewGamePoll::registerNegativeVote</title>
<polygon fill="white" stroke="transparent" points="-4,4 -4,-24 517,-24 517,4 -4,4"/>
<!-- Node1 -->
<g id="node1" class="node">
<title>Node1</title>
<g id="a_node1"><a xlink:title=" ">
<polygon fill="#bfbfbf" stroke="black" points="0,-0.5 0,-19.5 195,-19.5 195,-0.5 0,-0.5"/>
<text text-anchor="middle" x="97.5" y="-7.5" font-family="Helvetica,sans-Serif" font-size="10.00">NewGamePoll::registerNegativeVote</text>
</a>
</g>
</g>
<!-- Node2 -->
<g id="node2" class="node">
<title>Node2</title>
<g id="a_node2"><a xlink:href="classGalaxy.html#a643ab9dcd2440fe6c4335eff121718ae" target="_top" xlink:title=" ">
<polygon fill="white" stroke="black" points="231,-0.5 231,-19.5 365,-19.5 365,-0.5 231,-0.5"/>
<text text-anchor="middle" x="298" y="-7.5" font-family="Helvetica,sans-Serif" font-size="10.00">Galaxy::noitifyVoteState</text>
</a>
</g>
</g>
<!-- Node1&#45;&gt;Node2 -->
<g id="edge1" class="edge">
<title>Node1&#45;&gt;Node2</title>
<path fill="none" stroke="midnightblue" d="M195.13,-10C203.76,-10 212.4,-10 220.82,-10"/>
<polygon fill="midnightblue" stroke="midnightblue" points="220.95,-13.5 230.95,-10 220.95,-6.5 220.95,-13.5"/>
</g>
<!-- Node3 -->
<g id="node3" class="node">
<title>Node3</title>
<g id="a_node3"><a xlink:href="classNetwork.html#a57f3c2d8b53d214d26822a52b899d69f" target="_top" xlink:title="broadcast to all players">
<polygon fill="white" stroke="black" points="401,-0.5 401,-19.5 513,-19.5 513,-0.5 401,-0.5"/>
<text text-anchor="middle" x="457" y="-7.5" font-family="Helvetica,sans-Serif" font-size="10.00">Network::broadcast</text>
</a>
</g>
</g>
<!-- Node2&#45;&gt;Node3 -->
<g id="edge2" class="edge">
<title>Node2&#45;&gt;Node3</title>
<path fill="none" stroke="midnightblue" d="M365.13,-10C373.59,-10 382.24,-10 390.69,-10"/>
<polygon fill="midnightblue" stroke="midnightblue" points="390.86,-13.5 400.86,-10 390.86,-6.5 390.86,-13.5"/>
</g>
</g>
</svg>
