<?xml version="1.0" encoding="UTF-8" standalone="no"?>
<!DOCTYPE svg PUBLIC "-//W3C//DTD SVG 1.1//EN"
 "http://www.w3.org/Graphics/SVG/1.1/DTD/svg11.dtd">
<!-- Generated by graphviz version 2.43.0 (0)
 -->
<!-- Title: Network::processMessages Pages: 1 -->
<svg width="488pt" height="104pt"
 viewBox="0.00 0.00 488.00 104.00" xmlns="http://www.w3.org/2000/svg" xmlns:xlink="http://www.w3.org/1999/xlink">
<g id="graph0" class="graph" transform="scale(1 1) rotate(0) translate(4 100)">
<title>Network::processMessages</title>
<polygon fill="white" stroke="transparent" points="-4,4 -4,-100 484,-100 484,4 -4,4"/>
<!-- Node1 -->
<g id="node1" class="node">
<title>Node1</title>
<g id="a_node1"><a xlink:title="prozesses all incoming messages">
<polygon fill="#bfbfbf" stroke="black" points="0,-38.5 0,-57.5 150,-57.5 150,-38.5 0,-38.5"/>
<text text-anchor="middle" x="75" y="-45.5" font-family="Helvetica,sans-Serif" font-size="10.00">Network::processMessages</text>
</a>
</g>
</g>
<!-- Node2 -->
<g id="node2" class="node">
<title>Node2</title>
<g id="a_node2"><a xlink:href="classGalaxy.html#a60e26c21a827518c37d85d8d7bd8e1b5" target="_top" xlink:title="needs to be called when Player disconnects from server">
<polygon fill="white" stroke="black" points="200,-76.5 200,-95.5 318,-95.5 318,-76.5 200,-76.5"/>
<text text-anchor="middle" x="259" y="-83.5" font-family="Helvetica,sans-Serif" font-size="10.00">Galaxy::deletePlayer</text>
</a>
</g>
</g>
<!-- Node1&#45;&gt;Node2 -->
<g id="edge1" class="edge">
<title>Node1&#45;&gt;Node2</title>
<path fill="none" stroke="midnightblue" d="M121.93,-57.59C146.38,-62.69 176.63,-69.01 202.4,-74.39"/>
<polygon fill="midnightblue" stroke="midnightblue" points="201.9,-77.86 212.4,-76.48 203.33,-71.01 201.9,-77.86"/>
</g>
<!-- Node4 -->
<g id="node4" class="node">
<title>Node4</title>
<g id="a_node4"><a xlink:href="classGalaxy.html#a13dbcec35a2b7615acb153d7ca33bce3" target="_top" xlink:title="central method that manages incomming messages from clients">
<polygon fill="white" stroke="black" points="186.5,-38.5 186.5,-57.5 331.5,-57.5 331.5,-38.5 186.5,-38.5"/>
<text text-anchor="middle" x="259" y="-45.5" font-family="Helvetica,sans-Serif" font-size="10.00">Galaxy::executeCommand</text>
</a>
</g>
</g>
<!-- Node1&#45;&gt;Node4 -->
<g id="edge3" class="edge">
<title>Node1&#45;&gt;Node4</title>
<path fill="none" stroke="midnightblue" d="M150.03,-48C158.66,-48 167.5,-48 176.22,-48"/>
<polygon fill="midnightblue" stroke="midnightblue" points="176.4,-51.5 186.4,-48 176.4,-44.5 176.4,-51.5"/>
</g>
<!-- Node5 -->
<g id="node5" class="node">
<title>Node5</title>
<g id="a_node5"><a xlink:href="classGalaxy.html#ab70919238d14bc1c16435f477966e159" target="_top" xlink:title="needs to be called when a new Player connects to the server">
<polygon fill="white" stroke="black" points="186,-0.5 186,-19.5 332,-19.5 332,-0.5 186,-0.5"/>
<text text-anchor="middle" x="259" y="-7.5" font-family="Helvetica,sans-Serif" font-size="10.00">Galaxy::registerNewPlayer</text>
</a>
</g>
</g>
<!-- Node1&#45;&gt;Node5 -->
<g id="edge4" class="edge">
<title>Node1&#45;&gt;Node5</title>
<path fill="none" stroke="midnightblue" d="M121.93,-38.41C146.38,-33.31 176.63,-26.99 202.4,-21.61"/>
<polygon fill="midnightblue" stroke="midnightblue" points="203.33,-24.99 212.4,-19.52 201.9,-18.14 203.33,-24.99"/>
</g>
<!-- Node3 -->
<g id="node3" class="node">
<title>Node3</title>
<g id="a_node3"><a xlink:href="classNetwork.html#a57f3c2d8b53d214d26822a52b899d69f" target="_top" xlink:title="broadcast to all players">
<polygon fill="white" stroke="black" points="368,-76.5 368,-95.5 480,-95.5 480,-76.5 368,-76.5"/>
<text text-anchor="middle" x="424" y="-83.5" font-family="Helvetica,sans-Serif" font-size="10.00">Network::broadcast</text>
</a>
</g>
</g>
<!-- Node2&#45;&gt;Node3 -->
<g id="edge2" class="edge">
<title>Node2&#45;&gt;Node3</title>
<path fill="none" stroke="midnightblue" d="M318.39,-86C331.07,-86 344.57,-86 357.51,-86"/>
<polygon fill="midnightblue" stroke="midnightblue" points="357.74,-89.5 367.74,-86 357.74,-82.5 357.74,-89.5"/>
</g>
</g>
</svg>
