<?xml version="1.0" encoding="UTF-8" standalone="no"?>
<!DOCTYPE svg PUBLIC "-//W3C//DTD SVG 1.1//EN"
 "http://www.w3.org/Graphics/SVG/1.1/DTD/svg11.dtd">
<!-- Generated by graphviz version 2.43.0 (0)
 -->
<!-- Title: GameState Pages: 1 -->
<!--zoomable 443 -->
<svg id="main" version="1.1" xmlns="http://www.w3.org/2000/svg" xmlns:xlink="http://www.w3.org/1999/xlink" xml:space="preserve" onload="init(evt)">
<style type="text/css"><![CDATA[
.edge:hover path { stroke: red; }
.edge:hover polygon { stroke: red; fill: red; }
]]></style>
<script type="text/javascript"><![CDATA[
var edges = document.getElementsByTagName('g');
if (edges && edges.length) {
  for (var i=0;i<edges.length;i++) {
    if (edges[i].id.substr(0,4)=='edge') {
      edges[i].setAttribute('class','edge');
    }
  }
}
]]></script>
        <defs>
                <circle id="rim" cx="0" cy="0" r="7"/>
                <circle id="rim2" cx="0" cy="0" r="3.5"/>
                <g id="zoomPlus">
                        <use xlink:href="#rim" fill="#404040">
                                <set attributeName="fill" to="#808080" begin="zoomplus.mouseover" end="zoomplus.mouseout"/>
                        </use>
                        <path d="M-4,0h8M0,-4v8" fill="none" stroke="white" stroke-width="1.5" pointer-events="none"/>
                </g>
                <g id="zoomMin">
                        <use xlink:href="#rim" fill="#404040">
                                <set attributeName="fill" to="#808080" begin="zoomminus.mouseover" end="zoomminus.mouseout"/>
                        </use>
                        <path d="M-4,0h8" fill="none" stroke="white" stroke-width="1.5" pointer-events="none"/>
                </g>
                <g id="dirArrow">
                        <path fill="none" stroke="white" stroke-width="1.5" d="M0,-3.0v7 M-2.5,-0.5L0,-3.0L2.5,-0.5"/>
                </g>
               <g id="resetDef">
                       <use xlink:href="#rim2" fill="#404040">
                               <set attributeName="fill" to="#808080" begin="reset.mouseover" end="reset.mouseout"/>
                       </use>
               </g>
        </defs>

<script type="text/javascript">
var viewWidth = 1585;
var viewHeight = 443;
var sectionId = 'dynsection-0';
</script>
<script xlink:href="svgpan.js"/>
<svg id="graph" class="graph">
<g id="viewport">
<title>GameState</title>
<polygon fill="white" stroke="transparent" points="-4,4 -4,-438.5 1581,-438.5 1581,4 -4,4"/>
<!-- Node1 -->
<g id="node1" class="node">
<title>Node1</title>
<g id="a_node1"><a xlink:title="Represents the current state of the game.">
<polygon fill="#bfbfbf" stroke="black" points="1318,-215 1318,-234 1389,-234 1389,-215 1318,-215"/>
<text text-anchor="middle" x="1353.5" y="-222" font-family="Helvetica,sans-Serif" font-size="10.00">GameState</text>
</a>
</g>
</g>
<!-- Node2 -->
<g id="node2" class="node">
<title>Node2</title>
<g id="a_node2"><a xlink:title=" ">
<polygon fill="white" stroke="#bfbfbf" points="495,-133.5 495,-163.5 644,-163.5 644,-133.5 495,-133.5"/>
<text text-anchor="start" x="503" y="-151.5" font-family="Helvetica,sans-Serif" font-size="10.00">std::map&lt; pos_type,</text>
<text text-anchor="middle" x="569.5" y="-140.5" font-family="Helvetica,sans-Serif" font-size="10.00"> std::shared_ptr&lt; Field &gt; &gt;</text>
</a>
</g>
</g>
<!-- Node2&#45;&gt;Node1 -->
<g id="edge1" class="edge">
<title>Node2&#45;&gt;Node1</title>
<path fill="none" stroke="#9a32cd" stroke-dasharray="5,2" d="M654.34,-145.46C769.86,-142.7 984.12,-142.7 1164,-171.5 1223.08,-180.96 1290.02,-202.46 1326.09,-214.98"/>
<polygon fill="#9a32cd" stroke="#9a32cd" points="654.06,-141.97 644.15,-145.72 654.24,-148.96 654.06,-141.97"/>
<text text-anchor="middle" x="942" y="-156.5" font-family="Helvetica,sans-Serif" font-size="10.00"> fields</text>
</g>
<!-- Node3 -->
<g id="node3" class="node">
<title>Node3</title>
<g id="a_node3"><a xlink:title=" ">
<polygon fill="white" stroke="#bfbfbf" points="0,-265 0,-284 135,-284 135,-265 0,-265"/>
<text text-anchor="middle" x="67.5" y="-272" font-family="Helvetica,sans-Serif" font-size="10.00">std::shared_ptr&lt; Field &gt;</text>
</a>
</g>
</g>
<!-- Node3&#45;&gt;Node2 -->
<g id="edge2" class="edge">
<title>Node3&#45;&gt;Node2</title>
<path fill="none" stroke="#9a32cd" stroke-dasharray="5,2" d="M91.41,-259.36C120.26,-240.96 171.87,-210.19 220,-192.5 310.73,-159.16 422.7,-150.24 494.83,-148.28"/>
<polygon fill="#9a32cd" stroke="#9a32cd" points="89.39,-256.5 82.88,-264.87 93.18,-262.39 89.39,-256.5"/>
<text text-anchor="middle" x="282" y="-195.5" font-family="Helvetica,sans-Serif" font-size="10.00"> elements</text>
</g>
<!-- Node7 -->
<g id="node7" class="node">
<title>Node7</title>
<g id="a_node7"><a xlink:href="classGameChange.html" target="_top" xlink:title="Represents an atomic change to the gamestate. Can be reverted, once applied.">
<polygon fill="white" stroke="black" points="1051,-94 1051,-113 1134,-113 1134,-94 1051,-94"/>
<text text-anchor="middle" x="1092.5" y="-101" font-family="Helvetica,sans-Serif" font-size="10.00">GameChange</text>
</a>
</g>
</g>
<!-- Node3&#45;&gt;Node7 -->
<g id="edge8" class="edge">
<title>Node3&#45;&gt;Node7</title>
<path fill="none" stroke="#9a32cd" stroke-dasharray="5,2" d="M79.27,-256.22C106.79,-212.12 184.38,-103.5 281,-103.5 281,-103.5 281,-103.5 785.5,-103.5 880.59,-103.5 992.31,-103.5 1050.91,-103.5"/>
<polygon fill="#9a32cd" stroke="#9a32cd" points="76.25,-254.46 74.03,-264.82 82.23,-258.1 76.25,-254.46"/>
<text text-anchor="middle" x="569.5" y="-106.5" font-family="Helvetica,sans-Serif" font-size="10.00"> affected_field</text>
</g>
<!-- Node11 -->
<g id="node11" class="node">
<title>Node11</title>
<g id="a_node11"><a xlink:title=" ">
<polygon fill="white" stroke="#bfbfbf" points="220,-265 220,-284 344,-284 344,-265 220,-265"/>
<text text-anchor="middle" x="282" y="-272" font-family="Helvetica,sans-Serif" font-size="10.00">std::set&lt; field_ptr_t &gt;</text>
</a>
</g>
</g>
<!-- Node3&#45;&gt;Node11 -->
<g id="edge13" class="edge">
<title>Node3&#45;&gt;Node11</title>
<path fill="none" stroke="#9a32cd" stroke-dasharray="5,2" d="M145.18,-274.5C169.78,-274.5 196.68,-274.5 220,-274.5"/>
<polygon fill="#9a32cd" stroke="#9a32cd" points="145.15,-271 135.15,-274.5 145.15,-278 145.15,-271"/>
<text text-anchor="middle" x="177.5" y="-277.5" font-family="Helvetica,sans-Serif" font-size="10.00"> keys</text>
</g>
<!-- Node19 -->
<g id="node19" class="node">
<title>Node19</title>
<g id="a_node19"><a xlink:title=" ">
<polygon fill="white" stroke="#bfbfbf" points="362,-351 362,-392 477,-392 477,-351 362,-351"/>
<text text-anchor="start" x="370" y="-380" font-family="Helvetica,sans-Serif" font-size="10.00">std::map&lt; unsigned</text>
<text text-anchor="start" x="370" y="-369" font-family="Helvetica,sans-Serif" font-size="10.00"> int, std::shared_ptr</text>
<text text-anchor="middle" x="419.5" y="-358" font-family="Helvetica,sans-Serif" font-size="10.00">&lt; Field &gt; &gt;</text>
</a>
</g>
</g>
<!-- Node3&#45;&gt;Node19 -->
<g id="edge27" class="edge">
<title>Node3&#45;&gt;Node19</title>
<path fill="none" stroke="#9a32cd" stroke-dasharray="5,2" d="M112.7,-286.75C175.97,-304.28 292.36,-336.54 361.86,-355.8"/>
<polygon fill="#9a32cd" stroke="#9a32cd" points="113.59,-283.36 103.02,-284.07 111.72,-290.11 113.59,-283.36"/>
<text text-anchor="middle" x="177.5" y="-314.5" font-family="Helvetica,sans-Serif" font-size="10.00"> elements</text>
</g>
<!-- Node4 -->
<g id="node4" class="node">
<title>Node4</title>
<g id="a_node4"><a xlink:href="classField.html" target="_top" xlink:title="represents a Field in the game">
<polygon fill="white" stroke="black" points="1537,-310 1537,-329 1577,-329 1577,-310 1537,-310"/>
<text text-anchor="middle" x="1557" y="-317" font-family="Helvetica,sans-Serif" font-size="10.00">Field</text>
</a>
</g>
</g>
<!-- Node4&#45;&gt;Node3 -->
<g id="edge3" class="edge">
<title>Node4&#45;&gt;Node3</title>
<path fill="none" stroke="#9a32cd" stroke-dasharray="5,2" d="M1538.56,-335.86C1505.44,-365.15 1429.99,-423.5 1354.5,-423.5 281,-423.5 281,-423.5 281,-423.5 183.68,-423.5 99.3,-317.42 75.31,-284.28"/>
<polygon fill="#9a32cd" stroke="#9a32cd" points="1540.97,-338.4 1546.04,-329.1 1536.28,-333.21 1540.97,-338.4"/>
<text text-anchor="middle" x="784.5" y="-426.5" font-family="Helvetica,sans-Serif" font-size="10.00"> ptr</text>
</g>
<!-- Node5 -->
<g id="node5" class="node">
<title>Node5</title>
<g id="a_node5"><a xlink:href="structpos__type.html" target="_top" xlink:title="simple position type for 2 dimensions. sortable">
<polygon fill="white" stroke="black" points="251.5,-213 251.5,-232 312.5,-232 312.5,-213 251.5,-213"/>
<text text-anchor="middle" x="282" y="-220" font-family="Helvetica,sans-Serif" font-size="10.00">pos_type</text>
</a>
</g>
</g>
<!-- Node5&#45;&gt;Node2 -->
<g id="edge20" class="edge">
<title>Node5&#45;&gt;Node2</title>
<path fill="none" stroke="#9a32cd" stroke-dasharray="5,2" d="M307.19,-207.81C322.41,-199.19 342.76,-188.79 362,-182.5 386.22,-174.58 445.88,-165.14 494.88,-158.21"/>
<polygon fill="#9a32cd" stroke="#9a32cd" points="305.32,-204.85 298.42,-212.89 308.83,-210.9 305.32,-204.85"/>
<text text-anchor="middle" x="419.5" y="-185.5" font-family="Helvetica,sans-Serif" font-size="10.00"> keys</text>
</g>
<!-- Node5&#45;&gt;Node4 -->
<g id="edge4" class="edge">
<title>Node5&#45;&gt;Node4</title>
<path fill="none" stroke="#9a32cd" stroke-dasharray="5,2" d="M316.51,-236.53C326.1,-241.58 336.09,-247.93 344,-255.5 355.24,-266.25 348.7,-277.44 362,-285.5 518,-380.08 999.57,-323.93 1182,-324.5 1331.78,-324.97 1369.56,-334.55 1519,-324.5 1524.82,-324.11 1531.12,-323.37 1536.85,-322.59"/>
<polygon fill="#9a32cd" stroke="#9a32cd" points="318.03,-233.38 307.51,-232.09 314.93,-239.65 318.03,-233.38"/>
<text text-anchor="middle" x="942" y="-340.5" font-family="Helvetica,sans-Serif" font-size="10.00"> position</text>
</g>
<!-- Node10 -->
<g id="node10" class="node">
<title>Node10</title>
<g id="a_node10"><a xlink:href="classDot.html" target="_top" xlink:title="Represents the center of the galaxy.">
<polygon fill="white" stroke="black" points="552.5,-251 552.5,-270 586.5,-270 586.5,-251 552.5,-251"/>
<text text-anchor="middle" x="569.5" y="-258" font-family="Helvetica,sans-Serif" font-size="10.00">Dot</text>
</a>
</g>
</g>
<!-- Node5&#45;&gt;Node10 -->
<g id="edge11" class="edge">
<title>Node5&#45;&gt;Node10</title>
<path fill="none" stroke="#9a32cd" stroke-dasharray="5,2" d="M322.8,-227.8C386.39,-236.26 508.21,-252.48 552.17,-258.33"/>
<polygon fill="#9a32cd" stroke="#9a32cd" points="323.12,-224.31 312.75,-226.46 322.2,-231.25 323.12,-224.31"/>
<text text-anchor="middle" x="419.5" y="-251.5" font-family="Helvetica,sans-Serif" font-size="10.00"> position</text>
</g>
<!-- Node18 -->
<g id="node18" class="node">
<title>Node18</title>
<g id="a_node18"><a xlink:title=" ">
<polygon fill="white" stroke="#bfbfbf" points="1021,-181.5 1021,-211.5 1164,-211.5 1164,-181.5 1021,-181.5"/>
<text text-anchor="start" x="1029" y="-199.5" font-family="Helvetica,sans-Serif" font-size="10.00">std::map&lt; pos_type,</text>
<text text-anchor="middle" x="1092.5" y="-188.5" font-family="Helvetica,sans-Serif" font-size="10.00"> std::shared_ptr&lt; Dot &gt; &gt;</text>
</a>
</g>
</g>
<!-- Node5&#45;&gt;Node18 -->
<g id="edge24" class="edge">
<title>Node5&#45;&gt;Node18</title>
<path fill="none" stroke="#9a32cd" stroke-dasharray="5,2" d="M322.62,-218.84C418.42,-210.2 670.24,-188.72 881,-181.5 935.19,-179.64 948.97,-176.95 1003,-181.5 1008.75,-181.98 1014.68,-182.64 1020.63,-183.41"/>
<polygon fill="#9a32cd" stroke="#9a32cd" points="322.16,-215.37 312.52,-219.76 322.79,-222.34 322.16,-215.37"/>
<text text-anchor="middle" x="675" y="-195.5" font-family="Helvetica,sans-Serif" font-size="10.00"> keys</text>
</g>
<!-- Node6 -->
<g id="node6" class="node">
<title>Node6</title>
<g id="a_node6"><a xlink:title=" ">
<polygon fill="white" stroke="#bfbfbf" points="1268,-128 1268,-147 1439,-147 1439,-128 1268,-128"/>
<text text-anchor="middle" x="1353.5" y="-135" font-family="Helvetica,sans-Serif" font-size="10.00">std::weak_ptr&lt; GameChange &gt;</text>
</a>
</g>
</g>
<!-- Node6&#45;&gt;Node4 -->
<g id="edge5" class="edge">
<title>Node6&#45;&gt;Node4</title>
<path fill="none" stroke="#9a32cd" stroke-dasharray="5,2" d="M1375.94,-153.32C1408.47,-177.8 1471.53,-227.08 1519,-275.5 1529.9,-286.62 1541.26,-300.52 1548.46,-309.69"/>
<polygon fill="#9a32cd" stroke="#9a32cd" points="1377.71,-150.28 1367.61,-147.1 1373.52,-155.89 1377.71,-150.28"/>
<text text-anchor="middle" x="1488" y="-278.5" font-family="Helvetica,sans-Serif" font-size="10.00"> last_change</text>
</g>
<!-- Node7&#45;&gt;Node6 -->
<g id="edge6" class="edge">
<title>Node7&#45;&gt;Node6</title>
<path fill="none" stroke="#9a32cd" stroke-dasharray="5,2" d="M1144.23,-106.18C1174.94,-108.18 1214.84,-111.46 1250,-116.5 1270.5,-119.44 1293.07,-123.93 1311.8,-128"/>
<polygon fill="#9a32cd" stroke="#9a32cd" points="1144.38,-102.68 1134.18,-105.55 1143.94,-109.67 1144.38,-102.68"/>
<text text-anchor="middle" x="1216" y="-119.5" font-family="Helvetica,sans-Serif" font-size="10.00"> ptr</text>
</g>
<!-- Node8 -->
<g id="node8" class="node">
<title>Node8</title>
<g id="a_node8"><a xlink:title=" ">
<polygon fill="white" stroke="#bfbfbf" points="706,-44.5 706,-74.5 863,-74.5 863,-44.5 706,-44.5"/>
<text text-anchor="start" x="714" y="-62.5" font-family="Helvetica,sans-Serif" font-size="10.00">std::enable_shared</text>
<text text-anchor="middle" x="784.5" y="-51.5" font-family="Helvetica,sans-Serif" font-size="10.00">_from_this&lt; GameChange &gt;</text>
</a>
</g>
</g>
<!-- Node8&#45;&gt;Node7 -->
<g id="edge7" class="edge">
<title>Node8&#45;&gt;Node7</title>
<path fill="none" stroke="midnightblue" d="M872.98,-71.16C912.69,-76.56 960.24,-83.17 1003,-89.5 1018.7,-91.82 1035.93,-94.52 1050.99,-96.92"/>
<polygon fill="midnightblue" stroke="midnightblue" points="873.44,-67.69 863.06,-69.82 872.5,-74.63 873.44,-67.69"/>
</g>
<!-- Node9 -->
<g id="node9" class="node">
<title>Node9</title>
<g id="a_node9"><a xlink:title=" ">
<polygon fill="white" stroke="#bfbfbf" points="720,-236 720,-255 849,-255 849,-236 720,-236"/>
<text text-anchor="middle" x="784.5" y="-243" font-family="Helvetica,sans-Serif" font-size="10.00">std::shared_ptr&lt; Dot &gt;</text>
</a>
</g>
</g>
<!-- Node9&#45;&gt;Node7 -->
<g id="edge9" class="edge">
<title>Node9&#45;&gt;Node7</title>
<path fill="none" stroke="#9a32cd" stroke-dasharray="5,2" d="M811.66,-231.09C830.6,-220.97 856.97,-207.52 881,-197.5 933.8,-175.49 951.05,-180.44 1003,-156.5 1030.65,-143.76 1060.6,-124.57 1077.61,-113.11"/>
<polygon fill="#9a32cd" stroke="#9a32cd" points="809.89,-228.07 802.75,-235.9 813.22,-234.23 809.89,-228.07"/>
<text text-anchor="middle" x="942" y="-211.5" font-family="Helvetica,sans-Serif" font-size="10.00"> old_assoziation</text>
<text text-anchor="middle" x="942" y="-200.5" font-family="Helvetica,sans-Serif" font-size="10.00">new_assoziation</text>
</g>
<!-- Node17 -->
<g id="node17" class="node">
<title>Node17</title>
<g id="a_node17"><a xlink:title=" ">
<polygon fill="white" stroke="#bfbfbf" points="1035,-231 1035,-272 1150,-272 1150,-231 1035,-231"/>
<text text-anchor="start" x="1043" y="-260" font-family="Helvetica,sans-Serif" font-size="10.00">std::map&lt; unsigned</text>
<text text-anchor="start" x="1043" y="-249" font-family="Helvetica,sans-Serif" font-size="10.00"> int, std::shared_ptr</text>
<text text-anchor="middle" x="1092.5" y="-238" font-family="Helvetica,sans-Serif" font-size="10.00">&lt; Dot &gt; &gt;</text>
</a>
</g>
</g>
<!-- Node9&#45;&gt;Node17 -->
<g id="edge22" class="edge">
<title>Node9&#45;&gt;Node17</title>
<path fill="none" stroke="#9a32cd" stroke-dasharray="5,2" d="M859.12,-255.69C866.5,-256.43 873.89,-257.06 881,-257.5 935.12,-260.89 948.81,-259.33 1003,-257.5 1013.31,-257.15 1024.29,-256.57 1034.87,-255.91"/>
<polygon fill="#9a32cd" stroke="#9a32cd" points="859.41,-252.2 849.09,-254.61 858.67,-259.16 859.41,-252.2"/>
<text text-anchor="middle" x="942" y="-262.5" font-family="Helvetica,sans-Serif" font-size="10.00"> elements</text>
</g>
<!-- Node9&#45;&gt;Node18 -->
<g id="edge25" class="edge">
<title>Node9&#45;&gt;Node18</title>
<path fill="none" stroke="#9a32cd" stroke-dasharray="5,2" d="M859.5,-241.61C901.83,-238.49 955.74,-233.01 1003,-223.5 1017.96,-220.49 1034.01,-216 1048.27,-211.53"/>
<polygon fill="#9a32cd" stroke="#9a32cd" points="859.01,-238.14 849.28,-242.34 859.5,-245.12 859.01,-238.14"/>
<text text-anchor="middle" x="942" y="-243.5" font-family="Helvetica,sans-Serif" font-size="10.00"> elements</text>
</g>
<!-- Node10&#45;&gt;Node9 -->
<g id="edge10" class="edge">
<title>Node10&#45;&gt;Node9</title>
<path fill="none" stroke="#9a32cd" stroke-dasharray="5,2" d="M596.75,-258.65C627.26,-256.5 678.68,-252.88 719.86,-249.98"/>
<polygon fill="#9a32cd" stroke="#9a32cd" points="596.24,-255.18 586.51,-259.37 596.73,-262.16 596.24,-255.18"/>
<text text-anchor="middle" x="675" y="-257.5" font-family="Helvetica,sans-Serif" font-size="10.00"> ptr</text>
</g>
<!-- Node16 -->
<g id="node16" class="node">
<title>Node16</title>
<g id="a_node16"><a xlink:title=" ">
<polygon fill="white" stroke="#bfbfbf" points="881,-296 881,-315 1003,-315 1003,-296 881,-296"/>
<text text-anchor="middle" x="942" y="-303" font-family="Helvetica,sans-Serif" font-size="10.00">std::weak_ptr&lt; Dot &gt;</text>
</a>
</g>
</g>
<!-- Node10&#45;&gt;Node16 -->
<g id="edge19" class="edge">
<title>Node10&#45;&gt;Node16</title>
<path fill="none" stroke="#9a32cd" stroke-dasharray="5,2" d="M596.86,-263.7C655.64,-270.84 798.72,-288.22 880.68,-298.17"/>
<polygon fill="#9a32cd" stroke="#9a32cd" points="597.25,-260.22 586.9,-262.49 596.4,-267.17 597.25,-260.22"/>
<text text-anchor="middle" x="675" y="-278.5" font-family="Helvetica,sans-Serif" font-size="10.00"> ptr</text>
</g>
<!-- Node11&#45;&gt;Node10 -->
<g id="edge12" class="edge">
<title>Node11&#45;&gt;Node10</title>
<path fill="none" stroke="#9a32cd" stroke-dasharray="5,2" d="M354.26,-271.01C420.78,-267.74 515.22,-263.11 552.49,-261.29"/>
<polygon fill="#9a32cd" stroke="#9a32cd" points="354.06,-267.51 344.25,-271.5 354.41,-274.5 354.06,-267.51"/>
<text text-anchor="middle" x="419.5" y="-273.5" font-family="Helvetica,sans-Serif" font-size="10.00"> fields</text>
</g>
<!-- Node12 -->
<g id="node12" class="node">
<title>Node12</title>
<g id="a_node12"><a xlink:title=" ">
<polygon fill="white" stroke="#bfbfbf" points="716.5,-6 716.5,-25 852.5,-25 852.5,-6 716.5,-6"/>
<text text-anchor="middle" x="784.5" y="-13" font-family="Helvetica,sans-Serif" font-size="10.00">std::weak_ptr&lt; Player &gt;</text>
</a>
</g>
</g>
<!-- Node12&#45;&gt;Node7 -->
<g id="edge14" class="edge">
<title>Node12&#45;&gt;Node7</title>
<path fill="none" stroke="#9a32cd" stroke-dasharray="5,2" d="M862.84,-25.49C905.01,-32.24 957.7,-42.84 1003,-58.5 1029.72,-67.73 1058.52,-83.61 1075.78,-93.82"/>
<polygon fill="#9a32cd" stroke="#9a32cd" points="863.33,-22.02 852.91,-23.93 862.25,-28.94 863.33,-22.02"/>
<text text-anchor="middle" x="942" y="-61.5" font-family="Helvetica,sans-Serif" font-size="10.00"> player</text>
</g>
<!-- Node13 -->
<g id="node13" class="node">
<title>Node13</title>
<g id="a_node13"><a xlink:href="classPlayer.html" target="_top" xlink:title="represents a individual player/client">
<polygon fill="white" stroke="black" points="546,-6 546,-25 593,-25 593,-6 546,-6"/>
<text text-anchor="middle" x="569.5" y="-13" font-family="Helvetica,sans-Serif" font-size="10.00">Player</text>
</a>
</g>
</g>
<!-- Node13&#45;&gt;Node12 -->
<g id="edge15" class="edge">
<title>Node13&#45;&gt;Node12</title>
<path fill="none" stroke="#9a32cd" stroke-dasharray="5,2" d="M603.6,-15.5C633.55,-15.5 678.57,-15.5 716.08,-15.5"/>
<polygon fill="#9a32cd" stroke="#9a32cd" points="603.29,-12 593.29,-15.5 603.29,-19 603.29,-12"/>
<text text-anchor="middle" x="675" y="-18.5" font-family="Helvetica,sans-Serif" font-size="10.00"> ptr</text>
</g>
<!-- Node14 -->
<g id="node14" class="node">
<title>Node14</title>
<g id="a_node14"><a xlink:title="STL class.">
<polygon fill="white" stroke="#bfbfbf" points="249.5,-6 249.5,-25 314.5,-25 314.5,-6 249.5,-6"/>
<text text-anchor="middle" x="282" y="-13" font-family="Helvetica,sans-Serif" font-size="10.00">std::string</text>
</a>
</g>
</g>
<!-- Node14&#45;&gt;Node13 -->
<g id="edge16" class="edge">
<title>Node14&#45;&gt;Node13</title>
<path fill="none" stroke="#9a32cd" stroke-dasharray="5,2" d="M324.73,-15.5C385.88,-15.5 497.77,-15.5 545.71,-15.5"/>
<polygon fill="#9a32cd" stroke="#9a32cd" points="324.64,-12 314.64,-15.5 324.64,-19 324.64,-12"/>
<text text-anchor="middle" x="419.5" y="-29.5" font-family="Helvetica,sans-Serif" font-size="10.00"> passphrase</text>
<text text-anchor="middle" x="419.5" y="-18.5" font-family="Helvetica,sans-Serif" font-size="10.00">name</text>
</g>
<!-- Node15 -->
<g id="node15" class="node">
<title>Node15</title>
<g id="a_node15"><a xlink:title="STL class.">
<polygon fill="white" stroke="#bfbfbf" points="15.5,-0.5 15.5,-30.5 119.5,-30.5 119.5,-0.5 15.5,-0.5"/>
<text text-anchor="start" x="23.5" y="-18.5" font-family="Helvetica,sans-Serif" font-size="10.00">std::basic_string&lt;</text>
<text text-anchor="middle" x="67.5" y="-7.5" font-family="Helvetica,sans-Serif" font-size="10.00"> char &gt;</text>
</a>
</g>
</g>
<!-- Node15&#45;&gt;Node14 -->
<g id="edge17" class="edge">
<title>Node15&#45;&gt;Node14</title>
<path fill="none" stroke="midnightblue" d="M129.89,-15.5C168.97,-15.5 217.97,-15.5 249.39,-15.5"/>
<polygon fill="midnightblue" stroke="midnightblue" points="129.67,-12 119.67,-15.5 129.67,-19 129.67,-12"/>
</g>
<!-- Node16&#45;&gt;Node4 -->
<g id="edge18" class="edge">
<title>Node16&#45;&gt;Node4</title>
<path fill="none" stroke="#9a32cd" stroke-dasharray="5,2" d="M1013.33,-307.11C1152.82,-310.29 1457.89,-317.26 1536.97,-319.07"/>
<polygon fill="#9a32cd" stroke="#9a32cd" points="1013.25,-303.6 1003.17,-306.87 1013.09,-310.6 1013.25,-303.6"/>
<text text-anchor="middle" x="1216" y="-315.5" font-family="Helvetica,sans-Serif" font-size="10.00"> assigned_dot</text>
</g>
<!-- Node17&#45;&gt;Node1 -->
<g id="edge21" class="edge">
<title>Node17&#45;&gt;Node1</title>
<path fill="none" stroke="#9a32cd" stroke-dasharray="5,2" d="M1160.19,-244.55C1210.61,-239.29 1277.79,-232.29 1317.94,-228.1"/>
<polygon fill="#9a32cd" stroke="#9a32cd" points="1159.6,-241.09 1150.02,-245.61 1160.33,-248.05 1159.6,-241.09"/>
<text text-anchor="middle" x="1216" y="-245.5" font-family="Helvetica,sans-Serif" font-size="10.00"> dots_by_id</text>
</g>
<!-- Node18&#45;&gt;Node1 -->
<g id="edge23" class="edge">
<title>Node18&#45;&gt;Node1</title>
<path fill="none" stroke="#9a32cd" stroke-dasharray="5,2" d="M1174.39,-205.25C1222.62,-210.46 1281.36,-216.81 1317.86,-220.75"/>
<polygon fill="#9a32cd" stroke="#9a32cd" points="1174.59,-201.75 1164.27,-204.15 1173.84,-208.71 1174.59,-201.75"/>
<text text-anchor="middle" x="1216" y="-216.5" font-family="Helvetica,sans-Serif" font-size="10.00"> dots</text>
</g>
<!-- Node19&#45;&gt;Node1 -->
<g id="edge26" class="edge">
<title>Node19&#45;&gt;Node1</title>
<path fill="none" stroke="#9a32cd" stroke-dasharray="5,2" d="M487.38,-373.54C538.49,-374.92 610.68,-376.5 674,-376.5 674,-376.5 674,-376.5 1093.5,-376.5 1166.39,-376.5 1187.7,-365.32 1250,-327.5 1292.48,-301.71 1330.28,-254.62 1345.45,-234.28"/>
<polygon fill="#9a32cd" stroke="#9a32cd" points="487.22,-370.03 477.13,-373.26 487.03,-377.03 487.22,-370.03"/>
<text text-anchor="middle" x="784.5" y="-379.5" font-family="Helvetica,sans-Serif" font-size="10.00"> fields_by_id</text>
</g>
</g>
</svg>
        <g id="navigator" transform="translate(0 0)" fill="#404254">
                <rect fill="#f2f5e9" fill-opacity="0.5" stroke="#606060" stroke-width=".5" x="0" y="0" width="60" height="60"/>
                <use id="zoomplus" xlink:href="#zoomPlus" x="17" y="9" onmousedown="handleZoom(evt,'in')"/>
                <use id="zoomminus" xlink:href="#zoomMin" x="42" y="9" onmousedown="handleZoom(evt,'out')"/>
                <use id="reset" xlink:href="#resetDef" x="30" y="36" onmousedown="handleReset()"/>
                <g id="arrowUp" xlink:href="#dirArrow" transform="translate(30 24)" onmousedown="handlePan(0,-1)">
                  <use xlink:href="#rim" fill="#404040">
                        <set attributeName="fill" to="#808080" begin="arrowUp.mouseover" end="arrowUp.mouseout"/>
                  </use>
                  <path fill="none" stroke="white" stroke-width="1.5" d="M0,-3.0v7 M-2.5,-0.5L0,-3.0L2.5,-0.5"/>
                </g>
                <g id="arrowRight" xlink:href="#dirArrow" transform="rotate(90) translate(36 -43)" onmousedown="handlePan(1,0)">
                  <use xlink:href="#rim" fill="#404040">
                        <set attributeName="fill" to="#808080" begin="arrowRight.mouseover" end="arrowRight.mouseout"/>
                  </use>
                  <path fill="none" stroke="white" stroke-width="1.5" d="M0,-3.0v7 M-2.5,-0.5L0,-3.0L2.5,-0.5"/>
                </g>
                <g id="arrowDown" xlink:href="#dirArrow" transform="rotate(180) translate(-30 -48)" onmousedown="handlePan(0,1)">
                  <use xlink:href="#rim" fill="#404040">
                        <set attributeName="fill" to="#808080" begin="arrowDown.mouseover" end="arrowDown.mouseout"/>
                  </use>
                  <path fill="none" stroke="white" stroke-width="1.5" d="M0,-3.0v7 M-2.5,-0.5L0,-3.0L2.5,-0.5"/>
                </g>
                <g id="arrowLeft" xlink:href="#dirArrow" transform="rotate(270) translate(-36 17)" onmousedown="handlePan(-1,0)">
                  <use xlink:href="#rim" fill="#404040">
                        <set attributeName="fill" to="#808080" begin="arrowLeft.mouseover" end="arrowLeft.mouseout"/>
                  </use>
                  <path fill="none" stroke="white" stroke-width="1.5" d="M0,-3.0v7 M-2.5,-0.5L0,-3.0L2.5,-0.5"/>
                </g>
        </g>
        <svg viewBox="0 0 15 15" width="100%" height="30px" preserveAspectRatio="xMaxYMin meet">
         <g id="arrow_out" transform="scale(0.3 0.3)">
          <a xlink:href="classGameState__coll__graph_org.svg" target="_base">
           <rect id="button" ry="5" rx="5" y="6" x="6" height="38" width="38"
                fill="#f2f5e9" fill-opacity="0.5" stroke="#606060" stroke-width="1.0"/>
           <path id="arrow"
             d="M 11.500037,31.436501 C 11.940474,20.09759 22.043105,11.32322 32.158766,21.979434 L 37.068811,17.246167 C 37.068811,17.246167 37.088388,32 37.088388,32 L 22.160133,31.978069 C 22.160133,31.978069 26.997745,27.140456 26.997745,27.140456 C 18.528582,18.264221 13.291696,25.230495 11.500037,31.436501 z"
             style="fill:#404040;"/>
          </a>
         </g>
        </svg>
</svg>
