<?xml version="1.0" encoding="UTF-8" standalone="no"?>
<!DOCTYPE svg PUBLIC "-//W3C//DTD SVG 1.1//EN"
 "http://www.w3.org/Graphics/SVG/1.1/DTD/svg11.dtd">
<!-- Generated by graphviz version 2.43.0 (0)
 -->
<!-- Title: GameGen::generateNextDots Pages: 1 -->
<svg width="863pt" height="218pt"
 viewBox="0.00 0.00 863.00 218.00" xmlns="http://www.w3.org/2000/svg" xmlns:xlink="http://www.w3.org/1999/xlink">
<g id="graph0" class="graph" transform="scale(1 1) rotate(0) translate(4 214)">
<title>GameGen::generateNextDots</title>
<polygon fill="white" stroke="transparent" points="-4,4 -4,-214 859,-214 859,4 -4,4"/>
<!-- Node1 -->
<g id="node1" class="node">
<title>Node1</title>
<g id="a_node1"><a xlink:title=" ">
<polygon fill="#bfbfbf" stroke="black" points="0,-95.5 0,-114.5 161,-114.5 161,-95.5 0,-95.5"/>
<text text-anchor="middle" x="80.5" y="-102.5" font-family="Helvetica,sans-Serif" font-size="10.00">GameGen::generateNextDots</text>
</a>
</g>
</g>
<!-- Node2 -->
<g id="node2" class="node">
<title>Node2</title>
<g id="a_node2"><a xlink:href="classGameGen.html#a7f1de577fbe021ce42b1851ce313a53c" target="_top" xlink:title=" ">
<polygon fill="white" stroke="black" points="197,-95.5 197,-114.5 388,-114.5 388,-95.5 197,-95.5"/>
<text text-anchor="middle" x="292.5" y="-102.5" font-family="Helvetica,sans-Serif" font-size="10.00">GameGen::generateGalaxyFromDot</text>
</a>
</g>
</g>
<!-- Node1&#45;&gt;Node2 -->
<g id="edge1" class="edge">
<title>Node1&#45;&gt;Node2</title>
<path fill="none" stroke="midnightblue" d="M161.19,-105C169.53,-105 178.1,-105 186.66,-105"/>
<polygon fill="midnightblue" stroke="midnightblue" points="186.7,-108.5 196.7,-105 186.7,-101.5 186.7,-108.5"/>
</g>
<!-- Node7 -->
<g id="node7" class="node">
<title>Node7</title>
<g id="a_node7"><a xlink:href="classGameGen.html#a0ac01e2e7044e85842deff2d1925138f" target="_top" xlink:title=" ">
<polygon fill="white" stroke="black" points="212,-33 212,-63 373,-63 373,-33 212,-33"/>
<text text-anchor="start" x="220" y="-51" font-family="Helvetica,sans-Serif" font-size="10.00">GameGen::generateNextDots</text>
<text text-anchor="middle" x="292.5" y="-40" font-family="Helvetica,sans-Serif" font-size="10.00">ByPattern</text>
</a>
</g>
</g>
<!-- Node1&#45;&gt;Node7 -->
<g id="edge7" class="edge">
<title>Node1&#45;&gt;Node7</title>
<path fill="none" stroke="midnightblue" d="M116.65,-95.46C146.43,-87.38 189.92,-75.57 226.08,-65.76"/>
<polygon fill="midnightblue" stroke="midnightblue" points="227.33,-69.04 236.06,-63.05 225.5,-62.29 227.33,-69.04"/>
</g>
<!-- Node9 -->
<g id="node9" class="node">
<title>Node9</title>
<g id="a_node9"><a xlink:href="classGameGen.html#a79ecced48a44e20cb7ebfb96b8d89648" target="_top" xlink:title=" ">
<polygon fill="white" stroke="black" points="206,-147 206,-177 379,-177 379,-147 206,-147"/>
<text text-anchor="start" x="214" y="-165" font-family="Helvetica,sans-Serif" font-size="10.00">GameGen::generateRandomDot</text>
<text text-anchor="middle" x="292.5" y="-154" font-family="Helvetica,sans-Serif" font-size="10.00">InEmptySpot</text>
</a>
</g>
</g>
<!-- Node1&#45;&gt;Node9 -->
<g id="edge10" class="edge">
<title>Node1&#45;&gt;Node9</title>
<path fill="none" stroke="midnightblue" d="M116.65,-114.54C146.43,-122.62 189.92,-134.43 226.08,-144.24"/>
<polygon fill="midnightblue" stroke="midnightblue" points="225.5,-147.71 236.06,-146.95 227.33,-140.96 225.5,-147.71"/>
</g>
<!-- Node3 -->
<g id="node3" class="node">
<title>Node3</title>
<g id="a_node3"><a xlink:href="classGameGen.html#a4d7754bc07fc51f98c7d1855f242cb6d" target="_top" xlink:title=" ">
<polygon fill="white" stroke="black" points="445,-114.5 445,-133.5 603,-133.5 603,-114.5 445,-114.5"/>
<text text-anchor="middle" x="524" y="-121.5" font-family="Helvetica,sans-Serif" font-size="10.00">GameGen::addFieldToGalaxy</text>
</a>
</g>
</g>
<!-- Node2&#45;&gt;Node3 -->
<g id="edge2" class="edge">
<title>Node2&#45;&gt;Node3</title>
<path fill="none" stroke="midnightblue" d="M388.17,-112.84C403.52,-114.11 419.36,-115.42 434.56,-116.68"/>
<polygon fill="midnightblue" stroke="midnightblue" points="434.7,-120.2 444.96,-117.54 435.28,-113.23 434.7,-120.2"/>
</g>
<!-- Node5 -->
<g id="node5" class="node">
<title>Node5</title>
<g id="a_node5"><a xlink:href="classGameGen.html#ae65dd677544a65013b8a1e42ea0f6a4f" target="_top" xlink:title=" ">
<polygon fill="white" stroke="black" points="680.5,-76.5 680.5,-95.5 834.5,-95.5 834.5,-76.5 680.5,-76.5"/>
<text text-anchor="middle" x="757.5" y="-83.5" font-family="Helvetica,sans-Serif" font-size="10.00">GameGen::markAsOccupied</text>
</a>
</g>
</g>
<!-- Node2&#45;&gt;Node5 -->
<g id="edge6" class="edge">
<title>Node2&#45;&gt;Node5</title>
<path fill="none" stroke="midnightblue" d="M388.03,-101.12C470.84,-97.72 590.17,-92.83 670.38,-89.53"/>
<polygon fill="midnightblue" stroke="midnightblue" points="670.6,-93.03 680.45,-89.12 670.32,-86.03 670.6,-93.03"/>
</g>
<!-- Node4 -->
<g id="node4" class="node">
<title>Node4</title>
<g id="a_node4"><a xlink:href="classGameGen.html#a94a31b172f9dec5fb0b889201deedd94" target="_top" xlink:title=" ">
<polygon fill="white" stroke="black" points="677.5,-177 677.5,-207 837.5,-207 837.5,-177 677.5,-177"/>
<text text-anchor="start" x="685.5" y="-195" font-family="Helvetica,sans-Serif" font-size="10.00">GameGen::calculateNeighbor</text>
<text text-anchor="middle" x="757.5" y="-184" font-family="Helvetica,sans-Serif" font-size="10.00">Weight</text>
</a>
</g>
</g>
<!-- Node3&#45;&gt;Node4 -->
<g id="edge3" class="edge">
<title>Node3&#45;&gt;Node4</title>
<path fill="none" stroke="midnightblue" d="M557.68,-133.6C593.37,-144.08 651.32,-161.11 695.48,-174.08"/>
<polygon fill="midnightblue" stroke="midnightblue" points="694.66,-177.48 705.24,-176.94 696.64,-170.77 694.66,-177.48"/>
</g>
<!-- Node3&#45;&gt;Node5 -->
<g id="edge4" class="edge">
<title>Node3&#45;&gt;Node5</title>
<path fill="none" stroke="midnightblue" d="M583.12,-114.46C615.04,-109.22 654.82,-102.69 688.21,-97.21"/>
<polygon fill="midnightblue" stroke="midnightblue" points="689.06,-100.62 698.36,-95.54 687.92,-93.71 689.06,-100.62"/>
</g>
<!-- Node6 -->
<g id="node6" class="node">
<title>Node6</title>
<g id="a_node6"><a xlink:href="classGameGen.html#a02490de53b4901bde30c6600dadf33c0" target="_top" xlink:title=" ">
<polygon fill="white" stroke="black" points="660,-130.5 660,-149.5 855,-149.5 855,-130.5 660,-130.5"/>
<text text-anchor="middle" x="757.5" y="-137.5" font-family="Helvetica,sans-Serif" font-size="10.00">GameGen::printDotSpaceCandidates</text>
</a>
</g>
</g>
<!-- Node3&#45;&gt;Node6 -->
<g id="edge5" class="edge">
<title>Node3&#45;&gt;Node6</title>
<path fill="none" stroke="midnightblue" d="M603.05,-129.39C618.02,-130.43 633.93,-131.53 649.62,-132.61"/>
<polygon fill="midnightblue" stroke="midnightblue" points="649.67,-136.13 659.89,-133.32 650.16,-129.14 649.67,-136.13"/>
</g>
<!-- Node7&#45;&gt;Node5 -->
<g id="edge9" class="edge">
<title>Node7&#45;&gt;Node5</title>
<path fill="none" stroke="midnightblue" d="M373.09,-54.53C455.83,-61.32 584.91,-71.92 670.09,-78.91"/>
<polygon fill="midnightblue" stroke="midnightblue" points="670,-82.41 680.25,-79.74 670.57,-75.44 670,-82.41"/>
</g>
<!-- Node8 -->
<g id="node8" class="node">
<title>Node8</title>
<g id="a_node8"><a xlink:href="classGameGen.html#a63a2ff5e0ad3f88436c8ee9584ddeb40" target="_top" xlink:title=" ">
<polygon fill="white" stroke="black" points="463,-0.5 463,-19.5 585,-19.5 585,-0.5 463,-0.5"/>
<text text-anchor="middle" x="524" y="-7.5" font-family="Helvetica,sans-Serif" font-size="10.00">GameGen::addBorder</text>
</a>
</g>
</g>
<!-- Node7&#45;&gt;Node8 -->
<g id="edge8" class="edge">
<title>Node7&#45;&gt;Node8</title>
<path fill="none" stroke="midnightblue" d="M373.12,-34.82C399.98,-30.37 429.68,-25.45 455.51,-21.17"/>
<polygon fill="midnightblue" stroke="midnightblue" points="456.28,-24.59 465.58,-19.51 455.14,-17.69 456.28,-24.59"/>
</g>
<!-- Node9&#45;&gt;Node6 -->
<g id="edge13" class="edge">
<title>Node9&#45;&gt;Node6</title>
<path fill="none" stroke="midnightblue" d="M379.23,-157.93C455.52,-154.3 567.4,-148.99 649.53,-145.08"/>
<polygon fill="midnightblue" stroke="midnightblue" points="649.82,-148.57 659.64,-144.6 649.49,-141.58 649.82,-148.57"/>
</g>
<!-- Node10 -->
<g id="node10" class="node">
<title>Node10</title>
<g id="a_node10"><a xlink:href="classGameGen.html#aadd8ef21319cbd62abfb20303783641a" target="_top" xlink:title=" ">
<polygon fill="white" stroke="black" points="424,-190.5 424,-209.5 624,-209.5 624,-190.5 424,-190.5"/>
<text text-anchor="middle" x="524" y="-197.5" font-family="Helvetica,sans-Serif" font-size="10.00">GameGen::getRandomDotCandidates</text>
</a>
</g>
</g>
<!-- Node9&#45;&gt;Node10 -->
<g id="edge11" class="edge">
<title>Node9&#45;&gt;Node10</title>
<path fill="none" stroke="midnightblue" d="M379.28,-176.2C404.46,-180.37 431.63,-184.87 455.49,-188.82"/>
<polygon fill="midnightblue" stroke="midnightblue" points="455.07,-192.3 465.5,-190.48 456.21,-185.39 455.07,-192.3"/>
</g>
<!-- Node10&#45;&gt;Node4 -->
<g id="edge12" class="edge">
<title>Node10&#45;&gt;Node4</title>
<path fill="none" stroke="midnightblue" d="M624.18,-196.57C638.5,-196.08 653.17,-195.57 667.28,-195.08"/>
<polygon fill="midnightblue" stroke="midnightblue" points="667.57,-198.58 677.44,-194.73 667.32,-191.58 667.57,-198.58"/>
</g>
</g>
</svg>
