<?xml version="1.0" encoding="UTF-8" standalone="no"?>
<!DOCTYPE svg PUBLIC "-//W3C//DTD SVG 1.1//EN"
 "http://www.w3.org/Graphics/SVG/1.1/DTD/svg11.dtd">
<!-- Generated by graphviz version 2.43.0 (0)
 -->
<!-- Title: Network::setDiscardingTime Pages: 1 -->
<svg width="457pt" height="28pt"
 viewBox="0.00 0.00 457.00 28.00" xmlns="http://www.w3.org/2000/svg" xmlns:xlink="http://www.w3.org/1999/xlink">
<g id="graph0" class="graph" transform="scale(1 1) rotate(0) translate(4 24)">
<title>Network::setDiscardingTime</title>
<polygon fill="white" stroke="transparent" points="-4,4 -4,-24 453,-24 453,4 -4,4"/>
<!-- Node1 -->
<g id="node1" class="node">
<title>Node1</title>
<g id="a_node1"><a xlink:title="set time before which messages should be discarded">
<polygon fill="#bfbfbf" stroke="black" points="294,-0.5 294,-19.5 449,-19.5 449,-0.5 294,-0.5"/>
<text text-anchor="middle" x="371.5" y="-7.5" font-family="Helvetica,sans-Serif" font-size="10.00">Network::setDiscardingTime</text>
</a>
</g>
</g>
<!-- Node2 -->
<g id="node2" class="node">
<title>Node2</title>
<g id="a_node2"><a xlink:href="classGalaxy.html#aabdcaeeeee79d265ed8f2b656e0f8e21" target="_top" xlink:title="generates a new Game">
<polygon fill="white" stroke="black" points="152,-0.5 152,-19.5 258,-19.5 258,-0.5 152,-0.5"/>
<text text-anchor="middle" x="205" y="-7.5" font-family="Helvetica,sans-Serif" font-size="10.00">Galaxy::newGame</text>
</a>
</g>
</g>
<!-- Node1&#45;&gt;Node2 -->
<g id="edge1" class="edge">
<title>Node1&#45;&gt;Node2</title>
<path fill="none" stroke="midnightblue" d="M283.38,-10C274.72,-10 266.13,-10 258.01,-10"/>
<polygon fill="midnightblue" stroke="midnightblue" points="283.55,-13.5 293.55,-10 283.55,-6.5 283.55,-13.5"/>
</g>
<!-- Node3 -->
<g id="node3" class="node">
<title>Node3</title>
<g id="a_node3"><a xlink:href="classNewGamePoll.html#a21cbd2f6e503256b0f57010b4b63f6a6" target="_top" xlink:title=" ">
<polygon fill="white" stroke="black" points="0,-0.5 0,-19.5 116,-19.5 116,-0.5 0,-0.5"/>
<text text-anchor="middle" x="58" y="-7.5" font-family="Helvetica,sans-Serif" font-size="10.00">NewGamePoll::reset</text>
</a>
</g>
</g>
<!-- Node2&#45;&gt;Node3 -->
<g id="edge2" class="edge">
<title>Node2&#45;&gt;Node3</title>
<path fill="none" stroke="midnightblue" d="M141.51,-10C133.09,-10 124.49,-10 116.18,-10"/>
<polygon fill="midnightblue" stroke="midnightblue" points="141.65,-13.5 151.65,-10 141.65,-6.5 141.65,-13.5"/>
</g>
</g>
</svg>
