<?xml version="1.0" encoding="UTF-8" standalone="no"?>
<!DOCTYPE svg PUBLIC "-//W3C//DTD SVG 1.1//EN"
 "http://www.w3.org/Graphics/SVG/1.1/DTD/svg11.dtd">
<!-- Generated by graphviz version 2.43.0 (0)
 -->
<!-- Title: GameGen::addFieldToGalaxy Pages: 1 -->
<svg width="397pt" height="116pt"
 viewBox="0.00 0.00 397.00 115.50" xmlns="http://www.w3.org/2000/svg" xmlns:xlink="http://www.w3.org/1999/xlink">
<g id="graph0" class="graph" transform="scale(1 1) rotate(0) translate(4 111.5)">
<title>GameGen::addFieldToGalaxy</title>
<polygon fill="white" stroke="transparent" points="-4,4 -4,-111.5 393,-111.5 393,4 -4,4"/>
<!-- Node1 -->
<g id="node1" class="node">
<title>Node1</title>
<g id="a_node1"><a xlink:title=" ">
<polygon fill="#bfbfbf" stroke="black" points="0,-38.5 0,-57.5 158,-57.5 158,-38.5 0,-38.5"/>
<text text-anchor="middle" x="79" y="-45.5" font-family="Helvetica,sans-Serif" font-size="10.00">GameGen::addFieldToGalaxy</text>
</a>
</g>
</g>
<!-- Node2 -->
<g id="node2" class="node">
<title>Node2</title>
<g id="a_node2"><a xlink:href="classGameGen.html#a94a31b172f9dec5fb0b889201deedd94" target="_top" xlink:title=" ">
<polygon fill="white" stroke="black" points="211.5,-77 211.5,-107 371.5,-107 371.5,-77 211.5,-77"/>
<text text-anchor="start" x="219.5" y="-95" font-family="Helvetica,sans-Serif" font-size="10.00">GameGen::calculateNeighbor</text>
<text text-anchor="middle" x="291.5" y="-84" font-family="Helvetica,sans-Serif" font-size="10.00">Weight</text>
</a>
</g>
</g>
<!-- Node1&#45;&gt;Node2 -->
<g id="edge1" class="edge">
<title>Node1&#45;&gt;Node2</title>
<path fill="none" stroke="midnightblue" d="M125.68,-57.55C149.9,-62.61 180.41,-68.99 208.58,-74.88"/>
<polygon fill="midnightblue" stroke="midnightblue" points="207.92,-78.31 218.43,-76.93 209.35,-71.46 207.92,-78.31"/>
</g>
<!-- Node3 -->
<g id="node3" class="node">
<title>Node3</title>
<g id="a_node3"><a xlink:href="classGameGen.html#ae65dd677544a65013b8a1e42ea0f6a4f" target="_top" xlink:title=" ">
<polygon fill="white" stroke="black" points="214.5,-38.5 214.5,-57.5 368.5,-57.5 368.5,-38.5 214.5,-38.5"/>
<text text-anchor="middle" x="291.5" y="-45.5" font-family="Helvetica,sans-Serif" font-size="10.00">GameGen::markAsOccupied</text>
</a>
</g>
</g>
<!-- Node1&#45;&gt;Node3 -->
<g id="edge2" class="edge">
<title>Node1&#45;&gt;Node3</title>
<path fill="none" stroke="midnightblue" d="M158.08,-48C173.01,-48 188.72,-48 203.89,-48"/>
<polygon fill="midnightblue" stroke="midnightblue" points="204.29,-51.5 214.29,-48 204.29,-44.5 204.29,-51.5"/>
</g>
<!-- Node4 -->
<g id="node4" class="node">
<title>Node4</title>
<g id="a_node4"><a xlink:href="classGameGen.html#a02490de53b4901bde30c6600dadf33c0" target="_top" xlink:title=" ">
<polygon fill="white" stroke="black" points="194,-0.5 194,-19.5 389,-19.5 389,-0.5 194,-0.5"/>
<text text-anchor="middle" x="291.5" y="-7.5" font-family="Helvetica,sans-Serif" font-size="10.00">GameGen::printDotSpaceCandidates</text>
</a>
</g>
</g>
<!-- Node1&#45;&gt;Node4 -->
<g id="edge3" class="edge">
<title>Node1&#45;&gt;Node4</title>
<path fill="none" stroke="midnightblue" d="M132.85,-38.46C161.62,-33.27 197.42,-26.8 227.62,-21.35"/>
<polygon fill="midnightblue" stroke="midnightblue" points="228.41,-24.76 237.63,-19.54 227.17,-17.88 228.41,-24.76"/>
</g>
</g>
</svg>
