<?xml version="1.0" encoding="UTF-8" standalone="no"?>
<!DOCTYPE svg PUBLIC "-//W3C//DTD SVG 1.1//EN"
 "http://www.w3.org/Graphics/SVG/1.1/DTD/svg11.dtd">
<!-- Generated by graphviz version 2.43.0 (0)
 -->
<!-- Title: Galaxy Pages: 1 -->
<svg width="3312pt" height="612pt"
 viewBox="0.00 0.00 3312.00 612.00" xmlns="http://www.w3.org/2000/svg" xmlns:xlink="http://www.w3.org/1999/xlink">
<g id="graph0" class="graph" transform="scale(1 1) rotate(0) translate(4 608)">
<title>Galaxy</title>
<polygon fill="white" stroke="transparent" points="-4,4 -4,-608 3308,-608 3308,4 -4,4"/>
<!-- Node1 -->
<g id="node1" class="node">
<title>Node1</title>
<g id="a_node1"><a xlink:title="Main class of this project. Manages all ressources.">
<polygon fill="#bfbfbf" stroke="black" points="2809.5,-396.5 2809.5,-415.5 2860.5,-415.5 2860.5,-396.5 2809.5,-396.5"/>
<text text-anchor="middle" x="2835" y="-403.5" font-family="Helvetica,sans-Serif" font-size="10.00">Galaxy</text>
</a>
</g>
</g>
<!-- Node23 -->
<g id="node23" class="node">
<title>Node23</title>
<g id="a_node23"><a xlink:href="classNetwork.html" target="_top" xlink:title="Manages the Websocket connection.">
<polygon fill="white" stroke="black" points="3027,-362.5 3027,-381.5 3085,-381.5 3085,-362.5 3027,-362.5"/>
<text text-anchor="middle" x="3056" y="-369.5" font-family="Helvetica,sans-Serif" font-size="10.00">Network</text>
</a>
</g>
</g>
<!-- Node1&#45;&gt;Node23 -->
<g id="edge31" class="edge">
<title>Node1&#45;&gt;Node23</title>
<path fill="none" stroke="#9a32cd" stroke-dasharray="5,2" d="M2870.84,-401.79C2903.12,-397.74 2952.42,-391.2 2995,-384 3005.47,-382.23 3016.92,-380.01 3026.98,-377.97"/>
<polygon fill="#9a32cd" stroke="#9a32cd" points="2870.08,-398.36 2860.58,-403.06 2870.94,-405.3 2870.08,-398.36"/>
<text text-anchor="middle" x="2956" y="-398" font-family="Helvetica,sans-Serif" font-size="10.00"> galaxy</text>
</g>
<!-- Node35 -->
<g id="node35" class="node">
<title>Node35</title>
<g id="a_node35"><a xlink:href="classNewGamePoll.html" target="_top" xlink:title=" ">
<polygon fill="white" stroke="black" points="3013,-494.5 3013,-513.5 3099,-513.5 3099,-494.5 3013,-494.5"/>
<text text-anchor="middle" x="3056" y="-501.5" font-family="Helvetica,sans-Serif" font-size="10.00">NewGamePoll</text>
</a>
</g>
</g>
<!-- Node1&#45;&gt;Node35 -->
<g id="edge49" class="edge">
<title>Node1&#45;&gt;Node35</title>
<path fill="none" stroke="#9a32cd" stroke-dasharray="5,2" d="M2866.37,-419.98C2881.55,-426.94 2900.23,-435.46 2917,-443 2957.86,-461.36 3005.7,-482.41 3032.97,-494.36"/>
<polygon fill="#9a32cd" stroke="#9a32cd" points="2867.49,-416.64 2856.95,-415.65 2864.57,-423.01 2867.49,-416.64"/>
<text text-anchor="middle" x="2956" y="-479" font-family="Helvetica,sans-Serif" font-size="10.00"> g</text>
</g>
<!-- Node2 -->
<g id="node2" class="node">
<title>Node2</title>
<g id="a_node2"><a xlink:title=" ">
<polygon fill="white" stroke="#bfbfbf" points="2487.5,-462 2487.5,-492 2612.5,-492 2612.5,-462 2487.5,-462"/>
<text text-anchor="start" x="2495.5" y="-480" font-family="Helvetica,sans-Serif" font-size="10.00">std::enable_shared</text>
<text text-anchor="middle" x="2550" y="-469" font-family="Helvetica,sans-Serif" font-size="10.00">_from_this&lt; Galaxy &gt;</text>
</a>
</g>
</g>
<!-- Node2&#45;&gt;Node1 -->
<g id="edge1" class="edge">
<title>Node2&#45;&gt;Node1</title>
<path fill="none" stroke="midnightblue" d="M2606.74,-458.69C2613.57,-456.44 2620.44,-454.17 2627,-452 2635.01,-449.35 2636.86,-448.21 2645,-446 2703.26,-430.18 2773.03,-416.83 2809.32,-410.3"/>
<polygon fill="midnightblue" stroke="midnightblue" points="2605.23,-455.51 2596.82,-461.96 2607.42,-462.15 2605.23,-455.51"/>
</g>
<!-- Node3 -->
<g id="node3" class="node">
<title>Node3</title>
<g id="a_node3"><a xlink:title=" ">
<polygon fill="white" stroke="#bfbfbf" points="2473,-401.5 2473,-442.5 2627,-442.5 2627,-401.5 2473,-401.5"/>
<text text-anchor="start" x="2481" y="-430.5" font-family="Helvetica,sans-Serif" font-size="10.00">std::map&lt; web_con,</text>
<text text-anchor="start" x="2481" y="-419.5" font-family="Helvetica,sans-Serif" font-size="10.00"> shared_player, std</text>
<text text-anchor="middle" x="2550" y="-408.5" font-family="Helvetica,sans-Serif" font-size="10.00">::owner_less&lt; web_con &gt; &gt;</text>
</a>
</g>
</g>
<!-- Node3&#45;&gt;Node1 -->
<g id="edge2" class="edge">
<title>Node3&#45;&gt;Node1</title>
<path fill="none" stroke="#9a32cd" stroke-dasharray="5,2" d="M2637.23,-407.71C2639.85,-407.45 2642.44,-407.21 2645,-407 2703.87,-402.18 2773.39,-403.64 2809.48,-404.94"/>
<polygon fill="#9a32cd" stroke="#9a32cd" points="2636.61,-404.26 2627.06,-408.85 2637.39,-411.22 2636.61,-404.26"/>
<text text-anchor="middle" x="2699" y="-410" font-family="Helvetica,sans-Serif" font-size="10.00"> players</text>
</g>
<!-- Node4 -->
<g id="node4" class="node">
<title>Node4</title>
<g id="a_node4"><a xlink:title="STL class.">
<polygon fill="white" stroke="#bfbfbf" points="2250.5,-521.5 2250.5,-540.5 2368.5,-540.5 2368.5,-521.5 2250.5,-521.5"/>
<text text-anchor="middle" x="2309.5" y="-528.5" font-family="Helvetica,sans-Serif" font-size="10.00">std::shared_ptr&lt; T &gt;</text>
</a>
</g>
</g>
<!-- Node4&#45;&gt;Node3 -->
<g id="edge3" class="edge">
<title>Node4&#45;&gt;Node3</title>
<path fill="none" stroke="#9a32cd" stroke-dasharray="5,2" d="M2339.11,-516.62C2371.39,-500.55 2425.56,-474.04 2473,-453 2480.82,-449.53 2489.14,-445.99 2497.31,-442.59"/>
<polygon fill="#9a32cd" stroke="#9a32cd" points="2337.22,-513.65 2329.83,-521.25 2340.34,-519.92 2337.22,-513.65"/>
<text text-anchor="middle" x="2427" y="-489" font-family="Helvetica,sans-Serif" font-size="10.00"> elements</text>
</g>
<!-- Node36 -->
<g id="node36" class="node">
<title>Node36</title>
<g id="a_node36"><a xlink:title=" ">
<polygon fill="white" stroke="#bfbfbf" points="2645,-562 2645,-592 2753,-592 2753,-562 2645,-562"/>
<text text-anchor="start" x="2653" y="-580" font-family="Helvetica,sans-Serif" font-size="10.00">std::unordered_set</text>
<text text-anchor="middle" x="2699" y="-569" font-family="Helvetica,sans-Serif" font-size="10.00">&lt; shared_player &gt;</text>
</a>
</g>
</g>
<!-- Node4&#45;&gt;Node36 -->
<g id="edge51" class="edge">
<title>Node4&#45;&gt;Node36</title>
<path fill="none" stroke="#9a32cd" stroke-dasharray="5,2" d="M2378.45,-539.07C2454.35,-548.08 2575.62,-562.47 2644.89,-570.7"/>
<polygon fill="#9a32cd" stroke="#9a32cd" points="2378.86,-535.59 2368.51,-537.89 2378.03,-542.54 2378.86,-535.59"/>
<text text-anchor="middle" x="2427" y="-551" font-family="Helvetica,sans-Serif" font-size="10.00"> keys</text>
</g>
<!-- Node5 -->
<g id="node5" class="node">
<title>Node5</title>
<g id="a_node5"><a xlink:title=" ">
<polygon fill="white" stroke="#bfbfbf" points="2074,-521.5 2074,-540.5 2103,-540.5 2103,-521.5 2074,-521.5"/>
<text text-anchor="middle" x="2088.5" y="-528.5" font-family="Helvetica,sans-Serif" font-size="10.00">T</text>
</a>
</g>
</g>
<!-- Node5&#45;&gt;Node4 -->
<g id="edge4" class="edge">
<title>Node5&#45;&gt;Node4</title>
<path fill="none" stroke="#9a32cd" stroke-dasharray="5,2" d="M2113.58,-531C2146.27,-531 2205.74,-531 2250.43,-531"/>
<polygon fill="#9a32cd" stroke="#9a32cd" points="2113.2,-527.5 2103.2,-531 2113.2,-534.5 2113.2,-527.5"/>
<text text-anchor="middle" x="2195.5" y="-534" font-family="Helvetica,sans-Serif" font-size="10.00"> ptr</text>
</g>
<!-- Node6 -->
<g id="node6" class="node">
<title>Node6</title>
<g id="a_node6"><a xlink:title=" ">
<polygon fill="white" stroke="#bfbfbf" points="1235,-320 1235,-350 1370,-350 1370,-320 1235,-320"/>
<text text-anchor="start" x="1243" y="-338" font-family="Helvetica,sans-Serif" font-size="10.00">std::list&lt; std::shared</text>
<text text-anchor="middle" x="1302.5" y="-327" font-family="Helvetica,sans-Serif" font-size="10.00">_ptr&lt; GameChange &gt; &gt;</text>
</a>
</g>
</g>
<!-- Node6&#45;&gt;Node1 -->
<g id="edge5" class="edge">
<title>Node6&#45;&gt;Node1</title>
<path fill="none" stroke="#9a32cd" stroke-dasharray="5,2" d="M1380.07,-335C1433.1,-335 1505.34,-335 1569,-335 1569,-335 1569,-335 2551,-335 2641.41,-335 2667.24,-330.39 2753,-359 2779.06,-367.7 2806.02,-385.39 2821.32,-396.42"/>
<polygon fill="#9a32cd" stroke="#9a32cd" points="1380.06,-331.5 1370.06,-335 1380.06,-338.5 1380.06,-331.5"/>
<text text-anchor="middle" x="1987.5" y="-338" font-family="Helvetica,sans-Serif" font-size="10.00"> history</text>
</g>
<!-- Node7 -->
<g id="node7" class="node">
<title>Node7</title>
<g id="a_node7"><a xlink:title=" ">
<polygon fill="white" stroke="#bfbfbf" points="893,-321.5 893,-340.5 1071,-340.5 1071,-321.5 893,-321.5"/>
<text text-anchor="middle" x="982" y="-328.5" font-family="Helvetica,sans-Serif" font-size="10.00">std::shared_ptr&lt; GameChange &gt;</text>
</a>
</g>
</g>
<!-- Node7&#45;&gt;Node6 -->
<g id="edge6" class="edge">
<title>Node7&#45;&gt;Node6</title>
<path fill="none" stroke="#9a32cd" stroke-dasharray="5,2" d="M1081.45,-332.24C1131.25,-332.86 1190.38,-333.6 1234.8,-334.16"/>
<polygon fill="#9a32cd" stroke="#9a32cd" points="1081.34,-328.73 1071.3,-332.11 1081.25,-335.73 1081.34,-328.73"/>
<text text-anchor="middle" x="1124" y="-337" font-family="Helvetica,sans-Serif" font-size="10.00"> elements</text>
</g>
<!-- Node8 -->
<g id="node8" class="node">
<title>Node8</title>
<g id="a_node8"><a xlink:href="classGameChange.html" target="_top" xlink:title="Represents an atomic change to the gamestate. Can be reverted, once applied.">
<polygon fill="white" stroke="black" points="757,-275.5 757,-294.5 840,-294.5 840,-275.5 757,-275.5"/>
<text text-anchor="middle" x="798.5" y="-282.5" font-family="Helvetica,sans-Serif" font-size="10.00">GameChange</text>
</a>
</g>
</g>
<!-- Node8&#45;&gt;Node7 -->
<g id="edge7" class="edge">
<title>Node8&#45;&gt;Node7</title>
<path fill="none" stroke="#9a32cd" stroke-dasharray="5,2" d="M846.97,-297.03C877.07,-304.66 915.47,-314.39 943.44,-321.48"/>
<polygon fill="#9a32cd" stroke="#9a32cd" points="847.66,-293.6 837.11,-294.53 845.94,-300.38 847.66,-293.6"/>
<text text-anchor="middle" x="866.5" y="-307" font-family="Helvetica,sans-Serif" font-size="10.00"> ptr</text>
</g>
<!-- Node13 -->
<g id="node13" class="node">
<title>Node13</title>
<g id="a_node13"><a xlink:title=" ">
<polygon fill="white" stroke="#bfbfbf" points="896.5,-124.5 896.5,-143.5 1067.5,-143.5 1067.5,-124.5 896.5,-124.5"/>
<text text-anchor="middle" x="982" y="-131.5" font-family="Helvetica,sans-Serif" font-size="10.00">std::weak_ptr&lt; GameChange &gt;</text>
</a>
</g>
</g>
<!-- Node8&#45;&gt;Node13 -->
<g id="edge13" class="edge">
<title>Node8&#45;&gt;Node13</title>
<path fill="none" stroke="#9a32cd" stroke-dasharray="5,2" d="M808.27,-266.42C822.26,-238.8 852.28,-187.13 893,-159 902.93,-152.14 914.72,-147.15 926.39,-143.52"/>
<polygon fill="#9a32cd" stroke="#9a32cd" points="805.11,-264.91 803.85,-275.43 811.4,-267.99 805.11,-264.91"/>
<text text-anchor="middle" x="866.5" y="-194" font-family="Helvetica,sans-Serif" font-size="10.00"> ptr</text>
</g>
<!-- Node9 -->
<g id="node9" class="node">
<title>Node9</title>
<g id="a_node9"><a xlink:title=" ">
<polygon fill="white" stroke="#bfbfbf" points="530,-314 530,-344 687,-344 687,-314 530,-314"/>
<text text-anchor="start" x="538" y="-332" font-family="Helvetica,sans-Serif" font-size="10.00">std::enable_shared</text>
<text text-anchor="middle" x="608.5" y="-321" font-family="Helvetica,sans-Serif" font-size="10.00">_from_this&lt; GameChange &gt;</text>
</a>
</g>
</g>
<!-- Node9&#45;&gt;Node8 -->
<g id="edge8" class="edge">
<title>Node9&#45;&gt;Node8</title>
<path fill="none" stroke="midnightblue" d="M688.24,-311.77C705.02,-307.99 722.61,-303.93 739,-300 746.14,-298.29 753.74,-296.39 761.03,-294.54"/>
<polygon fill="midnightblue" stroke="midnightblue" points="687.47,-308.36 678.48,-313.97 689,-315.19 687.47,-308.36"/>
</g>
<!-- Node10 -->
<g id="node10" class="node">
<title>Node10</title>
<g id="a_node10"><a xlink:title=" ">
<polygon fill="white" stroke="#bfbfbf" points="1388,-77.5 1388,-96.5 1523,-96.5 1523,-77.5 1388,-77.5"/>
<text text-anchor="middle" x="1455.5" y="-84.5" font-family="Helvetica,sans-Serif" font-size="10.00">std::shared_ptr&lt; Field &gt;</text>
</a>
</g>
</g>
<!-- Node10&#45;&gt;Node8 -->
<g id="edge9" class="edge">
<title>Node10&#45;&gt;Node8</title>
<path fill="none" stroke="#9a32cd" stroke-dasharray="5,2" d="M1430.14,-72.32C1413.78,-63.34 1391.37,-52.69 1370,-48 1160.9,-2.07 1066.27,10.73 893,-115 835.2,-156.94 809.01,-246 801.71,-275.38"/>
<polygon fill="#9a32cd" stroke="#9a32cd" points="1428.6,-75.47 1439.03,-77.36 1432.06,-69.38 1428.6,-75.47"/>
<text text-anchor="middle" x="1124" y="-24" font-family="Helvetica,sans-Serif" font-size="10.00"> affected_field</text>
</g>
<!-- Node16 -->
<g id="node16" class="node">
<title>Node16</title>
<g id="a_node16"><a xlink:title=" ">
<polygon fill="white" stroke="#bfbfbf" points="1629.5,-145.5 1629.5,-164.5 1753.5,-164.5 1753.5,-145.5 1629.5,-145.5"/>
<text text-anchor="middle" x="1691.5" y="-152.5" font-family="Helvetica,sans-Serif" font-size="10.00">std::set&lt; field_ptr_t &gt;</text>
</a>
</g>
</g>
<!-- Node10&#45;&gt;Node16 -->
<g id="edge18" class="edge">
<title>Node10&#45;&gt;Node16</title>
<path fill="none" stroke="#9a32cd" stroke-dasharray="5,2" d="M1499.14,-99.39C1544.77,-112.65 1616.17,-133.4 1657.64,-145.45"/>
<polygon fill="#9a32cd" stroke="#9a32cd" points="1500.11,-96.03 1489.53,-96.6 1498.16,-102.75 1500.11,-96.03"/>
<text text-anchor="middle" x="1570" y="-131" font-family="Helvetica,sans-Serif" font-size="10.00"> keys</text>
</g>
<!-- Node30 -->
<g id="node30" class="node">
<title>Node30</title>
<g id="a_node30"><a xlink:title=" ">
<polygon fill="white" stroke="#bfbfbf" points="1617,-49 1617,-79 1766,-79 1766,-49 1617,-49"/>
<text text-anchor="start" x="1625" y="-67" font-family="Helvetica,sans-Serif" font-size="10.00">std::map&lt; pos_type,</text>
<text text-anchor="middle" x="1691.5" y="-56" font-family="Helvetica,sans-Serif" font-size="10.00"> std::shared_ptr&lt; Field &gt; &gt;</text>
</a>
</g>
</g>
<!-- Node10&#45;&gt;Node30 -->
<g id="edge37" class="edge">
<title>Node10&#45;&gt;Node30</title>
<path fill="none" stroke="#9a32cd" stroke-dasharray="5,2" d="M1533.34,-79.45C1560.14,-76.81 1590.14,-73.86 1616.69,-71.26"/>
<polygon fill="#9a32cd" stroke="#9a32cd" points="1532.85,-75.98 1523.24,-80.44 1533.54,-82.94 1532.85,-75.98"/>
<text text-anchor="middle" x="1570" y="-82" font-family="Helvetica,sans-Serif" font-size="10.00"> elements</text>
</g>
<!-- Node33 -->
<g id="node33" class="node">
<title>Node33</title>
<g id="a_node33"><a xlink:title=" ">
<polygon fill="white" stroke="#bfbfbf" points="1784,-0.5 1784,-41.5 1899,-41.5 1899,-0.5 1784,-0.5"/>
<text text-anchor="start" x="1792" y="-29.5" font-family="Helvetica,sans-Serif" font-size="10.00">std::map&lt; unsigned</text>
<text text-anchor="start" x="1792" y="-18.5" font-family="Helvetica,sans-Serif" font-size="10.00"> int, std::shared_ptr</text>
<text text-anchor="middle" x="1841.5" y="-7.5" font-family="Helvetica,sans-Serif" font-size="10.00">&lt; Field &gt; &gt;</text>
</a>
</g>
</g>
<!-- Node10&#45;&gt;Node33 -->
<g id="edge45" class="edge">
<title>Node10&#45;&gt;Node33</title>
<path fill="none" stroke="#9a32cd" stroke-dasharray="5,2" d="M1493.52,-74.18C1508.23,-69.23 1525.35,-63.65 1541,-59 1574.48,-49.06 1582.57,-44.87 1617,-39 1673.22,-29.42 1738.29,-24.91 1783.66,-22.8"/>
<polygon fill="#9a32cd" stroke="#9a32cd" points="1492.11,-70.96 1483.76,-77.48 1494.36,-77.59 1492.11,-70.96"/>
<text text-anchor="middle" x="1570" y="-62" font-family="Helvetica,sans-Serif" font-size="10.00"> elements</text>
</g>
<!-- Node11 -->
<g id="node11" class="node">
<title>Node11</title>
<g id="a_node11"><a xlink:href="classField.html" target="_top" xlink:title="represents a Field in the game">
<polygon fill="white" stroke="black" points="1177,-116.5 1177,-135.5 1217,-135.5 1217,-116.5 1177,-116.5"/>
<text text-anchor="middle" x="1197" y="-123.5" font-family="Helvetica,sans-Serif" font-size="10.00">Field</text>
</a>
</g>
</g>
<!-- Node11&#45;&gt;Node10 -->
<g id="edge10" class="edge">
<title>Node11&#45;&gt;Node10</title>
<path fill="none" stroke="#9a32cd" stroke-dasharray="5,2" d="M1216.47,-110.04C1222.08,-106.06 1228.48,-102.28 1235,-100 1284.2,-82.83 1343.33,-80.27 1387.83,-81.63"/>
<polygon fill="#9a32cd" stroke="#9a32cd" points="1214.19,-107.38 1208.43,-116.28 1218.48,-112.91 1214.19,-107.38"/>
<text text-anchor="middle" x="1302.5" y="-103" font-family="Helvetica,sans-Serif" font-size="10.00"> ptr</text>
</g>
<!-- Node12 -->
<g id="node12" class="node">
<title>Node12</title>
<g id="a_node12"><a xlink:href="structpos__type.html" target="_top" xlink:title="simple position type for 2 dimensions. sortable">
<polygon fill="white" stroke="black" points="951.5,-168.5 951.5,-187.5 1012.5,-187.5 1012.5,-168.5 951.5,-168.5"/>
<text text-anchor="middle" x="982" y="-175.5" font-family="Helvetica,sans-Serif" font-size="10.00">pos_type</text>
</a>
</g>
</g>
<!-- Node12&#45;&gt;Node11 -->
<g id="edge11" class="edge">
<title>Node12&#45;&gt;Node11</title>
<path fill="none" stroke="#9a32cd" stroke-dasharray="5,2" d="M1022.7,-171.18C1058.65,-164.59 1112.89,-153.62 1159,-140 1164.93,-138.25 1171.26,-136 1176.98,-133.82"/>
<polygon fill="#9a32cd" stroke="#9a32cd" points="1021.83,-167.78 1012.61,-173 1023.07,-174.67 1021.83,-167.78"/>
<text text-anchor="middle" x="1124" y="-161" font-family="Helvetica,sans-Serif" font-size="10.00"> position</text>
</g>
<!-- Node15 -->
<g id="node15" class="node">
<title>Node15</title>
<g id="a_node15"><a xlink:href="classDot.html" target="_top" xlink:title="Represents the center of the galaxy.">
<polygon fill="white" stroke="black" points="1917,-179.5 1917,-198.5 1951,-198.5 1951,-179.5 1917,-179.5"/>
<text text-anchor="middle" x="1934" y="-186.5" font-family="Helvetica,sans-Serif" font-size="10.00">Dot</text>
</a>
</g>
</g>
<!-- Node12&#45;&gt;Node15 -->
<g id="edge16" class="edge">
<title>Node12&#45;&gt;Node15</title>
<path fill="none" stroke="#9a32cd" stroke-dasharray="5,2" d="M1022.58,-182.46C1065.3,-186.88 1135.38,-193 1196,-193 1196,-193 1196,-193 1692.5,-193 1777.06,-193 1878.33,-190.5 1916.96,-189.45"/>
<polygon fill="#9a32cd" stroke="#9a32cd" points="1022.9,-178.97 1012.59,-181.4 1022.16,-185.93 1022.9,-178.97"/>
<text text-anchor="middle" x="1455.5" y="-196" font-family="Helvetica,sans-Serif" font-size="10.00"> position</text>
</g>
<!-- Node12&#45;&gt;Node30 -->
<g id="edge38" class="edge">
<title>Node12&#45;&gt;Node30</title>
<path fill="none" stroke="#9a32cd" stroke-dasharray="5,2" d="M1023.08,-173.16C1039.23,-169.63 1057.24,-163.54 1071,-153 1083.34,-143.55 1077.09,-133 1089,-123 1142.23,-78.32 1166.71,-79.88 1235,-67 1367.69,-41.97 1526.02,-49 1616.75,-56.45"/>
<polygon fill="#9a32cd" stroke="#9a32cd" points="1021.97,-169.81 1012.81,-175.13 1023.29,-176.68 1021.97,-169.81"/>
<text text-anchor="middle" x="1302.5" y="-70" font-family="Helvetica,sans-Serif" font-size="10.00"> keys</text>
</g>
<!-- Node32 -->
<g id="node32" class="node">
<title>Node32</title>
<g id="a_node32"><a xlink:title=" ">
<polygon fill="white" stroke="#bfbfbf" points="2238,-216 2238,-246 2381,-246 2381,-216 2238,-216"/>
<text text-anchor="start" x="2246" y="-234" font-family="Helvetica,sans-Serif" font-size="10.00">std::map&lt; pos_type,</text>
<text text-anchor="middle" x="2309.5" y="-223" font-family="Helvetica,sans-Serif" font-size="10.00"> std::shared_ptr&lt; Dot &gt; &gt;</text>
</a>
</g>
</g>
<!-- Node12&#45;&gt;Node32 -->
<g id="edge42" class="edge">
<title>Node12&#45;&gt;Node32</title>
<path fill="none" stroke="#9a32cd" stroke-dasharray="5,2" d="M1011.63,-191.73C1051.84,-209.72 1127.77,-239 1196,-239 1196,-239 1196,-239 1571,-239 1815.89,-239 2106.49,-234.54 2237.82,-232.28"/>
<polygon fill="#9a32cd" stroke="#9a32cd" points="1012.98,-188.5 1002.43,-187.53 1010.08,-194.87 1012.98,-188.5"/>
<text text-anchor="middle" x="1691.5" y="-242" font-family="Helvetica,sans-Serif" font-size="10.00"> keys</text>
</g>
<!-- Node13&#45;&gt;Node11 -->
<g id="edge12" class="edge">
<title>Node13&#45;&gt;Node11</title>
<path fill="none" stroke="#9a32cd" stroke-dasharray="5,2" d="M1077.82,-129.44C1081.59,-129.28 1085.33,-129.14 1089,-129 1119.64,-127.85 1155.23,-126.93 1176.67,-126.43"/>
<polygon fill="#9a32cd" stroke="#9a32cd" points="1077.6,-125.94 1067.75,-129.86 1077.89,-132.94 1077.6,-125.94"/>
<text text-anchor="middle" x="1124" y="-132" font-family="Helvetica,sans-Serif" font-size="10.00"> last_change</text>
</g>
<!-- Node14 -->
<g id="node14" class="node">
<title>Node14</title>
<g id="a_node14"><a xlink:title=" ">
<polygon fill="white" stroke="#bfbfbf" points="2027.5,-142.5 2027.5,-161.5 2149.5,-161.5 2149.5,-142.5 2027.5,-142.5"/>
<text text-anchor="middle" x="2088.5" y="-149.5" font-family="Helvetica,sans-Serif" font-size="10.00">std::weak_ptr&lt; Dot &gt;</text>
</a>
</g>
</g>
<!-- Node14&#45;&gt;Node11 -->
<g id="edge14" class="edge">
<title>Node14&#45;&gt;Node11</title>
<path fill="none" stroke="#9a32cd" stroke-dasharray="5,2" d="M2017.31,-144.4C1952.25,-137.76 1852.72,-128.64 1766,-125 1550.72,-115.98 1289.15,-123.08 1217.14,-125.36"/>
<polygon fill="#9a32cd" stroke="#9a32cd" points="2017.15,-147.9 2027.45,-145.44 2017.86,-140.94 2017.15,-147.9"/>
<text text-anchor="middle" x="1691.5" y="-128" font-family="Helvetica,sans-Serif" font-size="10.00"> assigned_dot</text>
</g>
<!-- Node15&#45;&gt;Node14 -->
<g id="edge15" class="edge">
<title>Node15&#45;&gt;Node14</title>
<path fill="none" stroke="#9a32cd" stroke-dasharray="5,2" d="M1960.8,-182.74C1984.72,-176.94 2020.67,-168.22 2048.17,-161.54"/>
<polygon fill="#9a32cd" stroke="#9a32cd" points="1959.92,-179.35 1951.03,-185.11 1961.58,-186.15 1959.92,-179.35"/>
<text text-anchor="middle" x="1987.5" y="-184" font-family="Helvetica,sans-Serif" font-size="10.00"> ptr</text>
</g>
<!-- Node17 -->
<g id="node17" class="node">
<title>Node17</title>
<g id="a_node17"><a xlink:title=" ">
<polygon fill="white" stroke="#bfbfbf" points="2024,-265.5 2024,-284.5 2153,-284.5 2153,-265.5 2024,-265.5"/>
<text text-anchor="middle" x="2088.5" y="-272.5" font-family="Helvetica,sans-Serif" font-size="10.00">std::shared_ptr&lt; Dot &gt;</text>
</a>
</g>
</g>
<!-- Node15&#45;&gt;Node17 -->
<g id="edge20" class="edge">
<title>Node15&#45;&gt;Node17</title>
<path fill="none" stroke="#9a32cd" stroke-dasharray="5,2" d="M1959.95,-203.07C1991.03,-220.6 2043.33,-250.09 2070.29,-265.29"/>
<polygon fill="#9a32cd" stroke="#9a32cd" points="1961.46,-199.9 1951.03,-198.04 1958.02,-206 1961.46,-199.9"/>
<text text-anchor="middle" x="1987.5" y="-230" font-family="Helvetica,sans-Serif" font-size="10.00"> ptr</text>
</g>
<!-- Node16&#45;&gt;Node15 -->
<g id="edge17" class="edge">
<title>Node16&#45;&gt;Node15</title>
<path fill="none" stroke="#9a32cd" stroke-dasharray="5,2" d="M1763.63,-151.04C1804.19,-150.85 1855.45,-154.14 1899,-168 1906.8,-170.48 1914.63,-175.14 1920.81,-179.44"/>
<polygon fill="#9a32cd" stroke="#9a32cd" points="1763.52,-147.54 1753.57,-151.16 1763.61,-154.54 1763.52,-147.54"/>
<text text-anchor="middle" x="1841.5" y="-171" font-family="Helvetica,sans-Serif" font-size="10.00"> fields</text>
</g>
<!-- Node17&#45;&gt;Node8 -->
<g id="edge19" class="edge">
<title>Node17&#45;&gt;Node8</title>
<path fill="none" stroke="#9a32cd" stroke-dasharray="5,2" d="M2013.63,-281.8C1988.68,-283.57 1960.65,-285 1935,-285 981,-285 981,-285 981,-285 932.63,-285 877.01,-285 840.23,-285"/>
<polygon fill="#9a32cd" stroke="#9a32cd" points="2014.04,-285.28 2023.75,-281.05 2013.52,-278.3 2014.04,-285.28"/>
<text text-anchor="middle" x="1455.5" y="-299" font-family="Helvetica,sans-Serif" font-size="10.00"> old_assoziation</text>
<text text-anchor="middle" x="1455.5" y="-288" font-family="Helvetica,sans-Serif" font-size="10.00">new_assoziation</text>
</g>
<!-- Node31 -->
<g id="node31" class="node">
<title>Node31</title>
<g id="a_node31"><a xlink:title=" ">
<polygon fill="white" stroke="#bfbfbf" points="2252,-265.5 2252,-306.5 2367,-306.5 2367,-265.5 2252,-265.5"/>
<text text-anchor="start" x="2260" y="-294.5" font-family="Helvetica,sans-Serif" font-size="10.00">std::map&lt; unsigned</text>
<text text-anchor="start" x="2260" y="-283.5" font-family="Helvetica,sans-Serif" font-size="10.00"> int, std::shared_ptr</text>
<text text-anchor="middle" x="2309.5" y="-272.5" font-family="Helvetica,sans-Serif" font-size="10.00">&lt; Dot &gt; &gt;</text>
</a>
</g>
</g>
<!-- Node17&#45;&gt;Node31 -->
<g id="edge40" class="edge">
<title>Node17&#45;&gt;Node31</title>
<path fill="none" stroke="#9a32cd" stroke-dasharray="5,2" d="M2163.19,-278.7C2192.11,-280.15 2224.77,-281.79 2251.79,-283.15"/>
<polygon fill="#9a32cd" stroke="#9a32cd" points="2163.3,-275.2 2153.14,-278.2 2162.95,-282.19 2163.3,-275.2"/>
<text text-anchor="middle" x="2195.5" y="-285" font-family="Helvetica,sans-Serif" font-size="10.00"> elements</text>
</g>
<!-- Node17&#45;&gt;Node32 -->
<g id="edge43" class="edge">
<title>Node17&#45;&gt;Node32</title>
<path fill="none" stroke="#9a32cd" stroke-dasharray="5,2" d="M2146.98,-263.45C2174.78,-257.87 2208.41,-251.11 2237.77,-245.21"/>
<polygon fill="#9a32cd" stroke="#9a32cd" points="2146.13,-260.05 2137.02,-265.45 2147.51,-266.91 2146.13,-260.05"/>
<text text-anchor="middle" x="2195.5" y="-262" font-family="Helvetica,sans-Serif" font-size="10.00"> elements</text>
</g>
<!-- Node18 -->
<g id="node18" class="node">
<title>Node18</title>
<g id="a_node18"><a xlink:title=" ">
<polygon fill="white" stroke="#bfbfbf" points="540.5,-275.5 540.5,-294.5 676.5,-294.5 676.5,-275.5 540.5,-275.5"/>
<text text-anchor="middle" x="608.5" y="-282.5" font-family="Helvetica,sans-Serif" font-size="10.00">std::weak_ptr&lt; Player &gt;</text>
</a>
</g>
</g>
<!-- Node18&#45;&gt;Node8 -->
<g id="edge21" class="edge">
<title>Node18&#45;&gt;Node8</title>
<path fill="none" stroke="#9a32cd" stroke-dasharray="5,2" d="M686.75,-285C710.75,-285 736.26,-285 756.73,-285"/>
<polygon fill="#9a32cd" stroke="#9a32cd" points="686.58,-281.5 676.58,-285 686.58,-288.5 686.58,-281.5"/>
<text text-anchor="middle" x="722" y="-288" font-family="Helvetica,sans-Serif" font-size="10.00"> player</text>
</g>
<!-- Node19 -->
<g id="node19" class="node">
<title>Node19</title>
<g id="a_node19"><a xlink:href="classPlayer.html" target="_top" xlink:title="represents a individual player/client">
<polygon fill="white" stroke="black" points="389.5,-281.5 389.5,-300.5 436.5,-300.5 436.5,-281.5 389.5,-281.5"/>
<text text-anchor="middle" x="413" y="-288.5" font-family="Helvetica,sans-Serif" font-size="10.00">Player</text>
</a>
</g>
</g>
<!-- Node19&#45;&gt;Node18 -->
<g id="edge22" class="edge">
<title>Node19&#45;&gt;Node18</title>
<path fill="none" stroke="#9a32cd" stroke-dasharray="5,2" d="M446.82,-289.98C472.37,-289.19 508.68,-288.06 540.33,-287.08"/>
<polygon fill="#9a32cd" stroke="#9a32cd" points="446.46,-286.49 436.58,-290.3 446.68,-293.49 446.46,-286.49"/>
<text text-anchor="middle" x="503.5" y="-292" font-family="Helvetica,sans-Serif" font-size="10.00"> ptr</text>
</g>
<!-- Node20 -->
<g id="node20" class="node">
<title>Node20</title>
<g id="a_node20"><a xlink:title="STL class.">
<polygon fill="white" stroke="#bfbfbf" points="165,-304.5 165,-323.5 230,-323.5 230,-304.5 165,-304.5"/>
<text text-anchor="middle" x="197.5" y="-311.5" font-family="Helvetica,sans-Serif" font-size="10.00">std::string</text>
</a>
</g>
</g>
<!-- Node20&#45;&gt;Node19 -->
<g id="edge23" class="edge">
<title>Node20&#45;&gt;Node19</title>
<path fill="none" stroke="#9a32cd" stroke-dasharray="5,2" d="M237.02,-301.62C248.18,-298.55 260.48,-295.67 272,-294 312.9,-288.09 361.22,-288.7 389.07,-289.79"/>
<polygon fill="#9a32cd" stroke="#9a32cd" points="235.78,-298.34 227.13,-304.46 237.71,-305.06 235.78,-298.34"/>
<text text-anchor="middle" x="301.5" y="-308" font-family="Helvetica,sans-Serif" font-size="10.00"> passphrase</text>
<text text-anchor="middle" x="301.5" y="-297" font-family="Helvetica,sans-Serif" font-size="10.00">name</text>
</g>
<!-- Node27 -->
<g id="node27" class="node">
<title>Node27</title>
<g id="a_node27"><a xlink:title=" ">
<polygon fill="white" stroke="#bfbfbf" points="349,-358 349,-388 477,-388 477,-358 349,-358"/>
<text text-anchor="start" x="357" y="-376" font-family="Helvetica,sans-Serif" font-size="10.00">std::map&lt; std::string,</text>
<text text-anchor="middle" x="413" y="-365" font-family="Helvetica,sans-Serif" font-size="10.00"> command_mapping &gt;</text>
</a>
</g>
</g>
<!-- Node20&#45;&gt;Node27 -->
<g id="edge34" class="edge">
<title>Node20&#45;&gt;Node27</title>
<path fill="none" stroke="#9a32cd" stroke-dasharray="5,2" d="M239.93,-325.45C273.47,-334.72 320.98,-347.85 357.58,-357.96"/>
<polygon fill="#9a32cd" stroke="#9a32cd" points="240.57,-322 230,-322.71 238.71,-328.74 240.57,-322"/>
<text text-anchor="middle" x="301.5" y="-354" font-family="Helvetica,sans-Serif" font-size="10.00"> keys</text>
</g>
<!-- Node21 -->
<g id="node21" class="node">
<title>Node21</title>
<g id="a_node21"><a xlink:title="STL class.">
<polygon fill="white" stroke="#bfbfbf" points="0,-299 0,-329 104,-329 104,-299 0,-299"/>
<text text-anchor="start" x="8" y="-317" font-family="Helvetica,sans-Serif" font-size="10.00">std::basic_string&lt;</text>
<text text-anchor="middle" x="52" y="-306" font-family="Helvetica,sans-Serif" font-size="10.00"> char &gt;</text>
</a>
</g>
</g>
<!-- Node21&#45;&gt;Node20 -->
<g id="edge24" class="edge">
<title>Node21&#45;&gt;Node20</title>
<path fill="none" stroke="midnightblue" d="M114.45,-314C131.74,-314 149.84,-314 164.63,-314"/>
<polygon fill="midnightblue" stroke="midnightblue" points="114.4,-310.5 104.4,-314 114.4,-317.5 114.4,-310.5"/>
</g>
<!-- Node22 -->
<g id="node22" class="node">
<title>Node22</title>
<g id="a_node22"><a xlink:title="STL class.">
<polygon fill="white" stroke="#bfbfbf" points="2515.5,-511.5 2515.5,-530.5 2584.5,-530.5 2584.5,-511.5 2515.5,-511.5"/>
<text text-anchor="middle" x="2550" y="-518.5" font-family="Helvetica,sans-Serif" font-size="10.00">std::mutex</text>
</a>
</g>
</g>
<!-- Node22&#45;&gt;Node1 -->
<g id="edge25" class="edge">
<title>Node22&#45;&gt;Node1</title>
<path fill="none" stroke="#9a32cd" stroke-dasharray="5,2" d="M2594.71,-516.74C2606.14,-513.93 2617.81,-509.37 2627,-502 2640.95,-490.81 2630.85,-476.95 2645,-466 2683.82,-435.97 2706.4,-458.4 2753,-443 2775.46,-435.58 2800.01,-423.81 2816.12,-415.54"/>
<polygon fill="#9a32cd" stroke="#9a32cd" points="2593.9,-513.33 2584.81,-518.78 2595.31,-520.19 2593.9,-513.33"/>
<text text-anchor="middle" x="2699" y="-469" font-family="Helvetica,sans-Serif" font-size="10.00"> my_mutex</text>
</g>
<!-- Node22&#45;&gt;Node23 -->
<g id="edge29" class="edge">
<title>Node22&#45;&gt;Node23</title>
<path fill="none" stroke="#9a32cd" stroke-dasharray="5,2" d="M2595.01,-514.99C2639.38,-509.07 2709.85,-500.07 2771,-494 2795.84,-491.53 2975.4,-492.46 2995,-477 3015.53,-460.81 3000.24,-443.82 3013,-421 3021.53,-405.74 3035.26,-390.89 3044.69,-381.61"/>
<polygon fill="#9a32cd" stroke="#9a32cd" points="2594.31,-511.55 2584.87,-516.35 2595.24,-518.49 2594.31,-511.55"/>
<text text-anchor="middle" x="2835" y="-497" font-family="Helvetica,sans-Serif" font-size="10.00"> message_mutex</text>
</g>
<!-- Node22&#45;&gt;Node35 -->
<g id="edge48" class="edge">
<title>Node22&#45;&gt;Node35</title>
<path fill="none" stroke="#9a32cd" stroke-dasharray="5,2" d="M2595.1,-519.51C2691.26,-516.27 2918.73,-508.6 3012.97,-505.42"/>
<polygon fill="#9a32cd" stroke="#9a32cd" points="2594.73,-516.02 2584.85,-519.86 2594.96,-523.02 2594.73,-516.02"/>
<text text-anchor="middle" x="2835" y="-516" font-family="Helvetica,sans-Serif" font-size="10.00"> set_mutex</text>
</g>
<!-- Node23&#45;&gt;Node1 -->
<g id="edge26" class="edge">
<title>Node23&#45;&gt;Node1</title>
<path fill="none" stroke="#9a32cd" stroke-dasharray="5,2" d="M3016.79,-368.44C2988.86,-366.76 2950.23,-366.37 2917,-373 2894.22,-377.55 2869.73,-388.45 2853.72,-396.48"/>
<polygon fill="#9a32cd" stroke="#9a32cd" points="3016.72,-371.94 3026.93,-369.13 3017.19,-364.95 3016.72,-371.94"/>
<text text-anchor="middle" x="2956" y="-376" font-family="Helvetica,sans-Serif" font-size="10.00"> net</text>
</g>
<!-- Node24 -->
<g id="node24" class="node">
<title>Node24</title>
<g id="a_node24"><a xlink:title=" ">
<polygon fill="white" stroke="#bfbfbf" points="2771,-250.5 2771,-269.5 2899,-269.5 2899,-250.5 2771,-250.5"/>
<text text-anchor="middle" x="2835" y="-257.5" font-family="Helvetica,sans-Serif" font-size="10.00">std::list&lt; message_t &gt;</text>
</a>
</g>
</g>
<!-- Node24&#45;&gt;Node23 -->
<g id="edge27" class="edge">
<title>Node24&#45;&gt;Node23</title>
<path fill="none" stroke="#9a32cd" stroke-dasharray="5,2" d="M2873.98,-273.01C2906.99,-285.01 2955.57,-304.36 2995,-327 3013.07,-337.37 3031.99,-352.36 3043.64,-362.14"/>
<polygon fill="#9a32cd" stroke="#9a32cd" points="2874.86,-269.61 2864.27,-269.53 2872.5,-276.2 2874.86,-269.61"/>
<text text-anchor="middle" x="2956" y="-330" font-family="Helvetica,sans-Serif" font-size="10.00"> to_process</text>
</g>
<!-- Node25 -->
<g id="node25" class="node">
<title>Node25</title>
<g id="a_node25"><a xlink:href="structmessage__t.html" target="_top" xlink:title="simple message type that stores relevant information about a message">
<polygon fill="white" stroke="black" points="2515,-216.5 2515,-235.5 2585,-235.5 2585,-216.5 2515,-216.5"/>
<text text-anchor="middle" x="2550" y="-223.5" font-family="Helvetica,sans-Serif" font-size="10.00">message_t</text>
</a>
</g>
</g>
<!-- Node25&#45;&gt;Node24 -->
<g id="edge28" class="edge">
<title>Node25&#45;&gt;Node24</title>
<path fill="none" stroke="#9a32cd" stroke-dasharray="5,2" d="M2595.33,-231.33C2642.46,-236.99 2717.42,-245.99 2770.74,-252.4"/>
<polygon fill="#9a32cd" stroke="#9a32cd" points="2595.48,-227.82 2585.14,-230.1 2594.65,-234.77 2595.48,-227.82"/>
<text text-anchor="middle" x="2699" y="-253" font-family="Helvetica,sans-Serif" font-size="10.00"> elements</text>
</g>
<!-- Node26 -->
<g id="node26" class="node">
<title>Node26</title>
<g id="a_node26"><a xlink:title="STL class.">
<polygon fill="white" stroke="#bfbfbf" points="2800.5,-328.5 2800.5,-347.5 2869.5,-347.5 2869.5,-328.5 2800.5,-328.5"/>
<text text-anchor="middle" x="2835" y="-335.5" font-family="Helvetica,sans-Serif" font-size="10.00">std::thread</text>
</a>
</g>
</g>
<!-- Node26&#45;&gt;Node23 -->
<g id="edge30" class="edge">
<title>Node26&#45;&gt;Node23</title>
<path fill="none" stroke="#9a32cd" stroke-dasharray="5,2" d="M2879.93,-339.11C2912.08,-340.59 2956.61,-344.03 2995,-352 3006.93,-354.48 3019.8,-358.57 3030.54,-362.4"/>
<polygon fill="#9a32cd" stroke="#9a32cd" points="2879.66,-335.6 2869.52,-338.68 2879.37,-342.59 2879.66,-335.6"/>
<text text-anchor="middle" x="2956" y="-355" font-family="Helvetica,sans-Serif" font-size="10.00"> process_thread</text>
</g>
<!-- Node27&#45;&gt;Node1 -->
<g id="edge32" class="edge">
<title>Node27&#45;&gt;Node1</title>
<path fill="none" stroke="#9a32cd" stroke-dasharray="5,2" d="M487.63,-373C523.75,-373 567.9,-373 607.5,-373 607.5,-373 607.5,-373 2551,-373 2646.96,-373 2760,-391.95 2809.13,-401.13"/>
<polygon fill="#9a32cd" stroke="#9a32cd" points="487.18,-369.5 477.18,-373 487.18,-376.5 487.18,-369.5"/>
<text text-anchor="middle" x="1570" y="-376" font-family="Helvetica,sans-Serif" font-size="10.00"> commands</text>
</g>
<!-- Node28 -->
<g id="node28" class="node">
<title>Node28</title>
<g id="a_node28"><a xlink:href="structcommand__mapping.html" target="_top" xlink:title=" ">
<polygon fill="white" stroke="black" points="141,-363.5 141,-382.5 254,-382.5 254,-363.5 141,-363.5"/>
<text text-anchor="middle" x="197.5" y="-370.5" font-family="Helvetica,sans-Serif" font-size="10.00">command_mapping</text>
</a>
</g>
</g>
<!-- Node28&#45;&gt;Node27 -->
<g id="edge33" class="edge">
<title>Node28&#45;&gt;Node27</title>
<path fill="none" stroke="#9a32cd" stroke-dasharray="5,2" d="M264.14,-373C291.08,-373 322.14,-373 348.82,-373"/>
<polygon fill="#9a32cd" stroke="#9a32cd" points="264.04,-369.5 254.04,-373 264.04,-376.5 264.04,-369.5"/>
<text text-anchor="middle" x="301.5" y="-376" font-family="Helvetica,sans-Serif" font-size="10.00"> elements</text>
</g>
<!-- Node29 -->
<g id="node29" class="node">
<title>Node29</title>
<g id="a_node29"><a xlink:href="classGameState.html" target="_top" xlink:title="Represents the current state of the game.">
<polygon fill="white" stroke="black" points="2514.5,-254.5 2514.5,-273.5 2585.5,-273.5 2585.5,-254.5 2514.5,-254.5"/>
<text text-anchor="middle" x="2550" y="-261.5" font-family="Helvetica,sans-Serif" font-size="10.00">GameState</text>
</a>
</g>
</g>
<!-- Node29&#45;&gt;Node1 -->
<g id="edge35" class="edge">
<title>Node29&#45;&gt;Node1</title>
<path fill="none" stroke="#9a32cd" stroke-dasharray="5,2" d="M2595.77,-262.63C2640.67,-263.65 2709.27,-272.07 2753,-310 2769.9,-324.66 2757.68,-339.03 2771,-357 2783.37,-373.7 2802.88,-387.65 2816.91,-396.34"/>
<polygon fill="#9a32cd" stroke="#9a32cd" points="2595.77,-259.13 2585.73,-262.51 2595.69,-266.13 2595.77,-259.13"/>
<text text-anchor="middle" x="2699" y="-313" font-family="Helvetica,sans-Serif" font-size="10.00"> current_state</text>
</g>
<!-- Node30&#45;&gt;Node29 -->
<g id="edge36" class="edge">
<title>Node30&#45;&gt;Node29</title>
<path fill="none" stroke="#9a32cd" stroke-dasharray="5,2" d="M1776.39,-70.24C1822.57,-73.16 1880.92,-76 1933,-76 1933,-76 1933,-76 2310.5,-76 2414.7,-76 2382.83,-192.77 2473,-245 2485.48,-252.23 2500.65,-256.73 2514.15,-259.52"/>
<polygon fill="#9a32cd" stroke="#9a32cd" points="1776.34,-66.73 1766.13,-69.58 1775.89,-73.72 1776.34,-66.73"/>
<text text-anchor="middle" x="2088.5" y="-79" font-family="Helvetica,sans-Serif" font-size="10.00"> fields</text>
</g>
<!-- Node31&#45;&gt;Node29 -->
<g id="edge39" class="edge">
<title>Node31&#45;&gt;Node29</title>
<path fill="none" stroke="#9a32cd" stroke-dasharray="5,2" d="M2377.19,-279.85C2421.72,-275.74 2478.48,-270.5 2514.3,-267.2"/>
<polygon fill="#9a32cd" stroke="#9a32cd" points="2376.66,-276.38 2367.02,-280.79 2377.3,-283.35 2376.66,-276.38"/>
<text text-anchor="middle" x="2427" y="-281" font-family="Helvetica,sans-Serif" font-size="10.00"> dots_by_id</text>
</g>
<!-- Node32&#45;&gt;Node29 -->
<g id="edge41" class="edge">
<title>Node32&#45;&gt;Node29</title>
<path fill="none" stroke="#9a32cd" stroke-dasharray="5,2" d="M2391.04,-242.14C2433.04,-247.96 2482.23,-254.76 2514.42,-259.21"/>
<polygon fill="#9a32cd" stroke="#9a32cd" points="2391.48,-238.67 2381.09,-240.77 2390.52,-245.6 2391.48,-238.67"/>
<text text-anchor="middle" x="2427" y="-254" font-family="Helvetica,sans-Serif" font-size="10.00"> dots</text>
</g>
<!-- Node33&#45;&gt;Node29 -->
<g id="edge44" class="edge">
<title>Node33&#45;&gt;Node29</title>
<path fill="none" stroke="#9a32cd" stroke-dasharray="5,2" d="M1909.44,-22.97C1933.71,-23.54 1961.34,-24 1986.5,-24 1986.5,-24 1986.5,-24 2310.5,-24 2376.91,-24 2411.92,-11.46 2455,-62 2508.01,-124.2 2419.61,-183.13 2473,-245 2483.13,-256.74 2499.31,-261.79 2514.14,-263.78"/>
<polygon fill="#9a32cd" stroke="#9a32cd" points="1909.34,-19.47 1899.26,-22.73 1909.17,-26.47 1909.34,-19.47"/>
<text text-anchor="middle" x="2088.5" y="-27" font-family="Helvetica,sans-Serif" font-size="10.00"> fields_by_id</text>
</g>
<!-- Node34 -->
<g id="node34" class="node">
<title>Node34</title>
<g id="a_node34"><a xlink:title=" ">
<polygon fill="white" stroke="#bfbfbf" points="3152,-433 3152,-463 3304,-463 3304,-433 3152,-433"/>
<text text-anchor="start" x="3160" y="-451" font-family="Helvetica,sans-Serif" font-size="10.00">std::unique_ptr&lt; NewGame</text>
<text text-anchor="middle" x="3228" y="-440" font-family="Helvetica,sans-Serif" font-size="10.00">Poll &gt;</text>
</a>
</g>
</g>
<!-- Node34&#45;&gt;Node1 -->
<g id="edge46" class="edge">
<title>Node34&#45;&gt;Node1</title>
<path fill="none" stroke="#9a32cd" stroke-dasharray="5,2" d="M3141.5,-438.82C3051.71,-429.17 2916.04,-414.6 2860.76,-408.66"/>
<polygon fill="#9a32cd" stroke="#9a32cd" points="3141.35,-442.32 3151.67,-439.91 3142.1,-435.36 3141.35,-442.32"/>
<text text-anchor="middle" x="3056" y="-436" font-family="Helvetica,sans-Serif" font-size="10.00"> poll</text>
</g>
<!-- Node35&#45;&gt;Node34 -->
<g id="edge47" class="edge">
<title>Node35&#45;&gt;Node34</title>
<path fill="none" stroke="#9a32cd" stroke-dasharray="5,2" d="M3095.89,-491.19C3121.28,-482.83 3154.55,-471.87 3181.22,-463.08"/>
<polygon fill="#9a32cd" stroke="#9a32cd" points="3094.63,-487.92 3086.22,-494.37 3096.82,-494.57 3094.63,-487.92"/>
<text text-anchor="middle" x="3125.5" y="-485" font-family="Helvetica,sans-Serif" font-size="10.00"> ptr</text>
</g>
<!-- Node36&#45;&gt;Node35 -->
<g id="edge50" class="edge">
<title>Node36&#45;&gt;Node35</title>
<path fill="none" stroke="#9a32cd" stroke-dasharray="5,2" d="M2763.59,-582.05C2825.04,-584.56 2919.64,-582.07 2995,-552 3016.06,-543.6 3035.61,-525.19 3046.37,-513.77"/>
<polygon fill="#9a32cd" stroke="#9a32cd" points="2763.42,-578.54 2753.27,-581.57 2763.09,-585.53 2763.42,-578.54"/>
<text text-anchor="middle" x="2835" y="-596" font-family="Helvetica,sans-Serif" font-size="10.00"> positive_votes</text>
<text text-anchor="middle" x="2835" y="-585" font-family="Helvetica,sans-Serif" font-size="10.00">negative_votes</text>
</g>
</g>
</svg>
