<?xml version="1.0" encoding="UTF-8" standalone="no"?>
<!DOCTYPE svg PUBLIC "-//W3C//DTD SVG 1.1//EN"
 "http://www.w3.org/Graphics/SVG/1.1/DTD/svg11.dtd">
<!-- Generated by graphviz version 2.43.0 (0)
 -->
<!-- Title: Dot Pages: 1 -->
<svg width="1602pt" height="240pt"
 viewBox="0.00 0.00 1602.00 240.00" xmlns="http://www.w3.org/2000/svg" xmlns:xlink="http://www.w3.org/1999/xlink">
<g id="graph0" class="graph" transform="scale(1 1) rotate(0) translate(4 236)">
<title>Dot</title>
<polygon fill="white" stroke="transparent" points="-4,4 -4,-236 1598,-236 1598,4 -4,4"/>
<!-- Node1 -->
<g id="node1" class="node">
<title>Node1</title>
<g id="a_node1"><a xlink:title="Represents the center of the galaxy.">
<polygon fill="#bfbfbf" stroke="black" points="307.5,-55.5 307.5,-74.5 341.5,-74.5 341.5,-55.5 307.5,-55.5"/>
<text text-anchor="middle" x="324.5" y="-62.5" font-family="Helvetica,sans-Serif" font-size="10.00">Dot</text>
</a>
</g>
</g>
<!-- Node9 -->
<g id="node9" class="node">
<title>Node9</title>
<g id="a_node9"><a xlink:title=" ">
<polygon fill="white" stroke="#bfbfbf" points="415,-112.5 415,-131.5 544,-131.5 544,-112.5 415,-112.5"/>
<text text-anchor="middle" x="479.5" y="-119.5" font-family="Helvetica,sans-Serif" font-size="10.00">std::shared_ptr&lt; Dot &gt;</text>
</a>
</g>
</g>
<!-- Node1&#45;&gt;Node9 -->
<g id="edge11" class="edge">
<title>Node1&#45;&gt;Node9</title>
<path fill="none" stroke="#9a32cd" stroke-dasharray="5,2" d="M341.92,-81.37C348.84,-87.43 357.3,-93.83 366,-98 381.13,-105.25 398.44,-110.33 414.88,-113.88"/>
<polygon fill="#9a32cd" stroke="#9a32cd" points="344.29,-78.8 334.58,-74.57 339.53,-83.93 344.29,-78.8"/>
<text text-anchor="middle" x="374.5" y="-108" font-family="Helvetica,sans-Serif" font-size="10.00"> ptr</text>
</g>
<!-- Node14 -->
<g id="node14" class="node">
<title>Node14</title>
<g id="a_node14"><a xlink:title=" ">
<polygon fill="white" stroke="#bfbfbf" points="576,-74.5 576,-93.5 698,-93.5 698,-74.5 576,-74.5"/>
<text text-anchor="middle" x="637" y="-81.5" font-family="Helvetica,sans-Serif" font-size="10.00">std::weak_ptr&lt; Dot &gt;</text>
</a>
</g>
</g>
<!-- Node1&#45;&gt;Node14 -->
<g id="edge17" class="edge">
<title>Node1&#45;&gt;Node14</title>
<path fill="none" stroke="#9a32cd" stroke-dasharray="5,2" d="M351.9,-66.62C401.16,-69.63 508.22,-76.18 575.93,-80.32"/>
<polygon fill="#9a32cd" stroke="#9a32cd" points="351.95,-63.11 341.76,-65.99 351.52,-70.1 351.95,-63.11"/>
<text text-anchor="middle" x="374.5" y="-72" font-family="Helvetica,sans-Serif" font-size="10.00"> ptr</text>
</g>
<!-- Node2 -->
<g id="node2" class="node">
<title>Node2</title>
<g id="a_node2"><a xlink:href="structpos__type.html" target="_top" xlink:title="simple position type for 2 dimensions. sortable">
<polygon fill="white" stroke="black" points="143,-15.5 143,-34.5 204,-34.5 204,-15.5 143,-15.5"/>
<text text-anchor="middle" x="173.5" y="-22.5" font-family="Helvetica,sans-Serif" font-size="10.00">pos_type</text>
</a>
</g>
</g>
<!-- Node2&#45;&gt;Node1 -->
<g id="edge1" class="edge">
<title>Node2&#45;&gt;Node1</title>
<path fill="none" stroke="#9a32cd" stroke-dasharray="5,2" d="M214.18,-35.65C244.56,-43.81 284.93,-54.64 307.13,-60.6"/>
<polygon fill="#9a32cd" stroke="#9a32cd" points="214.86,-32.21 204.29,-33 213.04,-38.97 214.86,-32.21"/>
<text text-anchor="middle" x="253.5" y="-57" font-family="Helvetica,sans-Serif" font-size="10.00"> position</text>
</g>
<!-- Node5 -->
<g id="node5" class="node">
<title>Node5</title>
<g id="a_node5"><a xlink:href="classField.html" target="_top" xlink:title="represents a Field in the game">
<polygon fill="white" stroke="black" points="1180,-75.5 1180,-94.5 1220,-94.5 1220,-75.5 1180,-75.5"/>
<text text-anchor="middle" x="1200" y="-82.5" font-family="Helvetica,sans-Serif" font-size="10.00">Field</text>
</a>
</g>
</g>
<!-- Node2&#45;&gt;Node5 -->
<g id="edge5" class="edge">
<title>Node2&#45;&gt;Node5</title>
<path fill="none" stroke="#9a32cd" stroke-dasharray="5,2" d="M214.24,-14.64C244.08,-7.77 286.08,0 323.5,0 323.5,0 323.5,0 989.5,0 1068.79,0 1153.39,-52.92 1185.55,-75.25"/>
<polygon fill="#9a32cd" stroke="#9a32cd" points="213.14,-11.3 204.22,-17.02 214.76,-18.12 213.14,-11.3"/>
<text text-anchor="middle" x="637" y="-3" font-family="Helvetica,sans-Serif" font-size="10.00"> position</text>
</g>
<!-- Node3 -->
<g id="node3" class="node">
<title>Node3</title>
<g id="a_node3"><a xlink:title=" ">
<polygon fill="white" stroke="#bfbfbf" points="1470,-52.5 1470,-71.5 1594,-71.5 1594,-52.5 1470,-52.5"/>
<text text-anchor="middle" x="1532" y="-59.5" font-family="Helvetica,sans-Serif" font-size="10.00">std::set&lt; field_ptr_t &gt;</text>
</a>
</g>
</g>
<!-- Node3&#45;&gt;Node1 -->
<g id="edge2" class="edge">
<title>Node3&#45;&gt;Node1</title>
<path fill="none" stroke="#9a32cd" stroke-dasharray="5,2" d="M1459.42,-53.09C1424,-49.42 1380.57,-46 1341.5,-46 478.5,-46 478.5,-46 478.5,-46 428.45,-46 369.88,-56.14 341.94,-61.6"/>
<polygon fill="#9a32cd" stroke="#9a32cd" points="1459.35,-56.61 1469.66,-54.19 1460.09,-49.65 1459.35,-56.61"/>
<text text-anchor="middle" x="988.5" y="-49" font-family="Helvetica,sans-Serif" font-size="10.00"> fields</text>
</g>
<!-- Node4 -->
<g id="node4" class="node">
<title>Node4</title>
<g id="a_node4"><a xlink:title=" ">
<polygon fill="white" stroke="#bfbfbf" points="1273,-75.5 1273,-94.5 1408,-94.5 1408,-75.5 1273,-75.5"/>
<text text-anchor="middle" x="1340.5" y="-82.5" font-family="Helvetica,sans-Serif" font-size="10.00">std::shared_ptr&lt; Field &gt;</text>
</a>
</g>
</g>
<!-- Node4&#45;&gt;Node3 -->
<g id="edge3" class="edge">
<title>Node4&#45;&gt;Node3</title>
<path fill="none" stroke="#9a32cd" stroke-dasharray="5,2" d="M1418.04,-75.71C1435.22,-73.62 1453.23,-71.44 1469.69,-69.44"/>
<polygon fill="#9a32cd" stroke="#9a32cd" points="1417.55,-72.24 1408.04,-76.92 1418.39,-79.19 1417.55,-72.24"/>
<text text-anchor="middle" x="1439" y="-78" font-family="Helvetica,sans-Serif" font-size="10.00"> keys</text>
</g>
<!-- Node7 -->
<g id="node7" class="node">
<title>Node7</title>
<g id="a_node7"><a xlink:href="classGameChange.html" target="_top" xlink:title="Represents an atomic change to the gamestate. Can be reverted, once applied.">
<polygon fill="white" stroke="black" points="716,-151.5 716,-170.5 799,-170.5 799,-151.5 716,-151.5"/>
<text text-anchor="middle" x="757.5" y="-158.5" font-family="Helvetica,sans-Serif" font-size="10.00">GameChange</text>
</a>
</g>
</g>
<!-- Node4&#45;&gt;Node7 -->
<g id="edge9" class="edge">
<title>Node4&#45;&gt;Node7</title>
<path fill="none" stroke="#9a32cd" stroke-dasharray="5,2" d="M1292.14,-97.07C1256.49,-105.95 1206.34,-117.98 1162,-127 1123.12,-134.91 1113.42,-137.47 1074,-142 975.87,-153.28 859.76,-158.09 799.46,-159.95"/>
<polygon fill="#9a32cd" stroke="#9a32cd" points="1293.4,-100.36 1302.25,-94.54 1291.7,-93.57 1293.4,-100.36"/>
<text text-anchor="middle" x="1127" y="-143" font-family="Helvetica,sans-Serif" font-size="10.00"> affected_field</text>
</g>
<!-- Node5&#45;&gt;Node4 -->
<g id="edge4" class="edge">
<title>Node5&#45;&gt;Node4</title>
<path fill="none" stroke="#9a32cd" stroke-dasharray="5,2" d="M1230.46,-85C1242.91,-85 1257.96,-85 1272.85,-85"/>
<polygon fill="#9a32cd" stroke="#9a32cd" points="1230.26,-81.5 1220.26,-85 1230.26,-88.5 1230.26,-81.5"/>
<text text-anchor="middle" x="1246.5" y="-88" font-family="Helvetica,sans-Serif" font-size="10.00"> ptr</text>
</g>
<!-- Node6 -->
<g id="node6" class="node">
<title>Node6</title>
<g id="a_node6"><a xlink:title=" ">
<polygon fill="white" stroke="#bfbfbf" points="903,-113.5 903,-132.5 1074,-132.5 1074,-113.5 903,-113.5"/>
<text text-anchor="middle" x="988.5" y="-120.5" font-family="Helvetica,sans-Serif" font-size="10.00">std::weak_ptr&lt; GameChange &gt;</text>
</a>
</g>
</g>
<!-- Node6&#45;&gt;Node5 -->
<g id="edge6" class="edge">
<title>Node6&#45;&gt;Node5</title>
<path fill="none" stroke="#9a32cd" stroke-dasharray="5,2" d="M1084.07,-113.72C1109.59,-110.16 1137.04,-105.37 1162,-99 1167.86,-97.5 1174.06,-95.38 1179.68,-93.24"/>
<polygon fill="#9a32cd" stroke="#9a32cd" points="1083.47,-110.27 1074.02,-115.07 1084.4,-117.2 1083.47,-110.27"/>
<text text-anchor="middle" x="1127" y="-115" font-family="Helvetica,sans-Serif" font-size="10.00"> last_change</text>
</g>
<!-- Node7&#45;&gt;Node6 -->
<g id="edge7" class="edge">
<title>Node7&#45;&gt;Node6</title>
<path fill="none" stroke="#9a32cd" stroke-dasharray="5,2" d="M785.76,-147.16C795.39,-142.86 806.46,-138.58 817,-136 844.54,-129.26 875.26,-125.74 902.95,-123.98"/>
<polygon fill="#9a32cd" stroke="#9a32cd" points="784.25,-144 776.67,-151.4 787.21,-150.34 784.25,-144"/>
<text text-anchor="middle" x="851" y="-139" font-family="Helvetica,sans-Serif" font-size="10.00"> ptr</text>
</g>
<!-- Node8 -->
<g id="node8" class="node">
<title>Node8</title>
<g id="a_node8"><a xlink:title=" ">
<polygon fill="white" stroke="#bfbfbf" points="401,-151 401,-181 558,-181 558,-151 401,-151"/>
<text text-anchor="start" x="409" y="-169" font-family="Helvetica,sans-Serif" font-size="10.00">std::enable_shared</text>
<text text-anchor="middle" x="479.5" y="-158" font-family="Helvetica,sans-Serif" font-size="10.00">_from_this&lt; GameChange &gt;</text>
</a>
</g>
</g>
<!-- Node8&#45;&gt;Node7 -->
<g id="edge8" class="edge">
<title>Node8&#45;&gt;Node7</title>
<path fill="none" stroke="midnightblue" d="M568.17,-164.41C617.58,-163.52 676.95,-162.44 715.64,-161.74"/>
<polygon fill="midnightblue" stroke="midnightblue" points="568.05,-160.91 558.12,-164.59 568.18,-167.91 568.05,-160.91"/>
</g>
<!-- Node9&#45;&gt;Node7 -->
<g id="edge10" class="edge">
<title>Node9&#45;&gt;Node7</title>
<path fill="none" stroke="#9a32cd" stroke-dasharray="5,2" d="M554.37,-121.26C596.88,-122.28 651.01,-126.04 698,-137 711.68,-140.19 726.31,-146.19 737.51,-151.39"/>
<polygon fill="#9a32cd" stroke="#9a32cd" points="554.17,-117.76 544.11,-121.06 554.04,-124.75 554.17,-117.76"/>
<text text-anchor="middle" x="637" y="-151" font-family="Helvetica,sans-Serif" font-size="10.00"> old_assoziation</text>
<text text-anchor="middle" x="637" y="-140" font-family="Helvetica,sans-Serif" font-size="10.00">new_assoziation</text>
</g>
<!-- Node10 -->
<g id="node10" class="node">
<title>Node10</title>
<g id="a_node10"><a xlink:title=" ">
<polygon fill="white" stroke="#bfbfbf" points="411.5,-200.5 411.5,-219.5 547.5,-219.5 547.5,-200.5 411.5,-200.5"/>
<text text-anchor="middle" x="479.5" y="-207.5" font-family="Helvetica,sans-Serif" font-size="10.00">std::weak_ptr&lt; Player &gt;</text>
</a>
</g>
</g>
<!-- Node10&#45;&gt;Node7 -->
<g id="edge12" class="edge">
<title>Node10&#45;&gt;Node7</title>
<path fill="none" stroke="#9a32cd" stroke-dasharray="5,2" d="M557.67,-201.26C599.46,-195.87 651.83,-188.05 698,-178 707.4,-175.95 717.51,-173.21 726.64,-170.53"/>
<polygon fill="#9a32cd" stroke="#9a32cd" points="557.04,-197.81 547.56,-202.54 557.92,-204.75 557.04,-197.81"/>
<text text-anchor="middle" x="637" y="-202" font-family="Helvetica,sans-Serif" font-size="10.00"> player</text>
</g>
<!-- Node11 -->
<g id="node11" class="node">
<title>Node11</title>
<g id="a_node11"><a xlink:href="classPlayer.html" target="_top" xlink:title="represents a individual player/client">
<polygon fill="white" stroke="black" points="301,-200.5 301,-219.5 348,-219.5 348,-200.5 301,-200.5"/>
<text text-anchor="middle" x="324.5" y="-207.5" font-family="Helvetica,sans-Serif" font-size="10.00">Player</text>
</a>
</g>
</g>
<!-- Node11&#45;&gt;Node10 -->
<g id="edge13" class="edge">
<title>Node11&#45;&gt;Node10</title>
<path fill="none" stroke="#9a32cd" stroke-dasharray="5,2" d="M358.21,-210C373.77,-210 392.97,-210 411.43,-210"/>
<polygon fill="#9a32cd" stroke="#9a32cd" points="358.08,-206.5 348.08,-210 358.08,-213.5 358.08,-206.5"/>
<text text-anchor="middle" x="374.5" y="-213" font-family="Helvetica,sans-Serif" font-size="10.00"> ptr</text>
</g>
<!-- Node12 -->
<g id="node12" class="node">
<title>Node12</title>
<g id="a_node12"><a xlink:title="STL class.">
<polygon fill="white" stroke="#bfbfbf" points="141,-200.5 141,-219.5 206,-219.5 206,-200.5 141,-200.5"/>
<text text-anchor="middle" x="173.5" y="-207.5" font-family="Helvetica,sans-Serif" font-size="10.00">std::string</text>
</a>
</g>
</g>
<!-- Node12&#45;&gt;Node11 -->
<g id="edge14" class="edge">
<title>Node12&#45;&gt;Node11</title>
<path fill="none" stroke="#9a32cd" stroke-dasharray="5,2" d="M216.18,-210C243.54,-210 278.27,-210 300.69,-210"/>
<polygon fill="#9a32cd" stroke="#9a32cd" points="216.1,-206.5 206.1,-210 216.1,-213.5 216.1,-206.5"/>
<text text-anchor="middle" x="253.5" y="-224" font-family="Helvetica,sans-Serif" font-size="10.00"> passphrase</text>
<text text-anchor="middle" x="253.5" y="-213" font-family="Helvetica,sans-Serif" font-size="10.00">name</text>
</g>
<!-- Node13 -->
<g id="node13" class="node">
<title>Node13</title>
<g id="a_node13"><a xlink:title="STL class.">
<polygon fill="white" stroke="#bfbfbf" points="0,-195 0,-225 104,-225 104,-195 0,-195"/>
<text text-anchor="start" x="8" y="-213" font-family="Helvetica,sans-Serif" font-size="10.00">std::basic_string&lt;</text>
<text text-anchor="middle" x="52" y="-202" font-family="Helvetica,sans-Serif" font-size="10.00"> char &gt;</text>
</a>
</g>
</g>
<!-- Node13&#45;&gt;Node12 -->
<g id="edge15" class="edge">
<title>Node13&#45;&gt;Node12</title>
<path fill="none" stroke="midnightblue" d="M114.1,-210C123.41,-210 132.68,-210 141,-210"/>
<polygon fill="midnightblue" stroke="midnightblue" points="114.03,-206.5 104.03,-210 114.03,-213.5 114.03,-206.5"/>
</g>
<!-- Node14&#45;&gt;Node5 -->
<g id="edge16" class="edge">
<title>Node14&#45;&gt;Node5</title>
<path fill="none" stroke="#9a32cd" stroke-dasharray="5,2" d="M708.22,-84.13C837.4,-84.36 1106.26,-84.83 1179.96,-84.97"/>
<polygon fill="#9a32cd" stroke="#9a32cd" points="708.04,-80.62 698.04,-84.11 708.03,-87.62 708.04,-80.62"/>
<text text-anchor="middle" x="851" y="-88" font-family="Helvetica,sans-Serif" font-size="10.00"> assigned_dot</text>
</g>
</g>
</svg>
