<?xml version="1.0" encoding="UTF-8" standalone="no"?>
<!DOCTYPE svg PUBLIC "-//W3C//DTD SVG 1.1//EN"
 "http://www.w3.org/Graphics/SVG/1.1/DTD/svg11.dtd">
<!-- Generated by graphviz version 2.43.0 (0)
 -->
<!-- Title: GameGen::generateGalaxyFromDot Pages: 1 -->
<svg width="624pt" height="116pt"
 viewBox="0.00 0.00 624.00 115.50" xmlns="http://www.w3.org/2000/svg" xmlns:xlink="http://www.w3.org/1999/xlink">
<g id="graph0" class="graph" transform="scale(1 1) rotate(0) translate(4 111.5)">
<title>GameGen::generateGalaxyFromDot</title>
<polygon fill="white" stroke="transparent" points="-4,4 -4,-111.5 620,-111.5 620,4 -4,4"/>
<!-- Node1 -->
<g id="node1" class="node">
<title>Node1</title>
<g id="a_node1"><a xlink:title=" ">
<polygon fill="#bfbfbf" stroke="black" points="0,-19.5 0,-38.5 191,-38.5 191,-19.5 0,-19.5"/>
<text text-anchor="middle" x="95.5" y="-26.5" font-family="Helvetica,sans-Serif" font-size="10.00">GameGen::generateGalaxyFromDot</text>
</a>
</g>
</g>
<!-- Node2 -->
<g id="node2" class="node">
<title>Node2</title>
<g id="a_node2"><a xlink:href="classGameGen.html#a4d7754bc07fc51f98c7d1855f242cb6d" target="_top" xlink:title=" ">
<polygon fill="white" stroke="black" points="227,-38.5 227,-57.5 385,-57.5 385,-38.5 227,-38.5"/>
<text text-anchor="middle" x="306" y="-45.5" font-family="Helvetica,sans-Serif" font-size="10.00">GameGen::addFieldToGalaxy</text>
</a>
</g>
</g>
<!-- Node1&#45;&gt;Node2 -->
<g id="edge1" class="edge">
<title>Node1&#45;&gt;Node2</title>
<path fill="none" stroke="midnightblue" d="M191.29,-37.64C199.78,-38.41 208.36,-39.19 216.79,-39.96"/>
<polygon fill="midnightblue" stroke="midnightblue" points="216.71,-43.47 226.98,-40.89 217.34,-36.5 216.71,-43.47"/>
</g>
<!-- Node4 -->
<g id="node4" class="node">
<title>Node4</title>
<g id="a_node4"><a xlink:href="classGameGen.html#ae65dd677544a65013b8a1e42ea0f6a4f" target="_top" xlink:title=" ">
<polygon fill="white" stroke="black" points="441.5,-0.5 441.5,-19.5 595.5,-19.5 595.5,-0.5 441.5,-0.5"/>
<text text-anchor="middle" x="518.5" y="-7.5" font-family="Helvetica,sans-Serif" font-size="10.00">GameGen::markAsOccupied</text>
</a>
</g>
</g>
<!-- Node1&#45;&gt;Node4 -->
<g id="edge5" class="edge">
<title>Node1&#45;&gt;Node4</title>
<path fill="none" stroke="midnightblue" d="M191.24,-24.72C263.23,-21.48 361.44,-17.04 431.25,-13.89"/>
<polygon fill="midnightblue" stroke="midnightblue" points="431.51,-17.38 441.34,-13.44 431.19,-10.39 431.51,-17.38"/>
</g>
<!-- Node3 -->
<g id="node3" class="node">
<title>Node3</title>
<g id="a_node3"><a xlink:href="classGameGen.html#a94a31b172f9dec5fb0b889201deedd94" target="_top" xlink:title=" ">
<polygon fill="white" stroke="black" points="438.5,-77 438.5,-107 598.5,-107 598.5,-77 438.5,-77"/>
<text text-anchor="start" x="446.5" y="-95" font-family="Helvetica,sans-Serif" font-size="10.00">GameGen::calculateNeighbor</text>
<text text-anchor="middle" x="518.5" y="-84" font-family="Helvetica,sans-Serif" font-size="10.00">Weight</text>
</a>
</g>
</g>
<!-- Node2&#45;&gt;Node3 -->
<g id="edge2" class="edge">
<title>Node2&#45;&gt;Node3</title>
<path fill="none" stroke="midnightblue" d="M352.68,-57.55C376.9,-62.61 407.41,-68.99 435.58,-74.88"/>
<polygon fill="midnightblue" stroke="midnightblue" points="434.92,-78.31 445.43,-76.93 436.35,-71.46 434.92,-78.31"/>
</g>
<!-- Node2&#45;&gt;Node4 -->
<g id="edge3" class="edge">
<title>Node2&#45;&gt;Node4</title>
<path fill="none" stroke="midnightblue" d="M359.85,-38.46C388.62,-33.27 424.42,-26.8 454.62,-21.35"/>
<polygon fill="midnightblue" stroke="midnightblue" points="455.41,-24.76 464.63,-19.54 454.17,-17.88 455.41,-24.76"/>
</g>
<!-- Node5 -->
<g id="node5" class="node">
<title>Node5</title>
<g id="a_node5"><a xlink:href="classGameGen.html#a02490de53b4901bde30c6600dadf33c0" target="_top" xlink:title=" ">
<polygon fill="white" stroke="black" points="421,-38.5 421,-57.5 616,-57.5 616,-38.5 421,-38.5"/>
<text text-anchor="middle" x="518.5" y="-45.5" font-family="Helvetica,sans-Serif" font-size="10.00">GameGen::printDotSpaceCandidates</text>
</a>
</g>
</g>
<!-- Node2&#45;&gt;Node5 -->
<g id="edge4" class="edge">
<title>Node2&#45;&gt;Node5</title>
<path fill="none" stroke="midnightblue" d="M385.08,-48C393.49,-48 402.15,-48 410.82,-48"/>
<polygon fill="midnightblue" stroke="midnightblue" points="410.99,-51.5 420.99,-48 410.99,-44.5 410.99,-51.5"/>
</g>
</g>
</svg>
