<?xml version="1.0" encoding="UTF-8" standalone="no"?>
<!DOCTYPE svg PUBLIC "-//W3C//DTD SVG 1.1//EN"
 "http://www.w3.org/Graphics/SVG/1.1/DTD/svg11.dtd">
<!-- Generated by graphviz version 2.43.0 (0)
 -->
<!-- Title: NewGamePoll::reset Pages: 1 -->
<svg width="600pt" height="104pt"
 viewBox="0.00 0.00 600.00 104.00" xmlns="http://www.w3.org/2000/svg" xmlns:xlink="http://www.w3.org/1999/xlink">
<g id="graph0" class="graph" transform="scale(1 1) rotate(0) translate(4 100)">
<title>NewGamePoll::reset</title>
<polygon fill="white" stroke="transparent" points="-4,4 -4,-100 596,-100 596,4 -4,4"/>
<!-- Node1 -->
<g id="node1" class="node">
<title>Node1</title>
<g id="a_node1"><a xlink:title=" ">
<polygon fill="#bfbfbf" stroke="black" points="0,-38.5 0,-57.5 116,-57.5 116,-38.5 0,-38.5"/>
<text text-anchor="middle" x="58" y="-45.5" font-family="Helvetica,sans-Serif" font-size="10.00">NewGamePoll::reset</text>
</a>
</g>
</g>
<!-- Node2 -->
<g id="node2" class="node">
<title>Node2</title>
<g id="a_node2"><a xlink:href="classGalaxy.html#aabdcaeeeee79d265ed8f2b656e0f8e21" target="_top" xlink:title="generates a new Game">
<polygon fill="white" stroke="black" points="152,-38.5 152,-57.5 258,-57.5 258,-38.5 152,-38.5"/>
<text text-anchor="middle" x="205" y="-45.5" font-family="Helvetica,sans-Serif" font-size="10.00">Galaxy::newGame</text>
</a>
</g>
</g>
<!-- Node1&#45;&gt;Node2 -->
<g id="edge1" class="edge">
<title>Node1&#45;&gt;Node2</title>
<path fill="none" stroke="midnightblue" d="M116.31,-48C124.64,-48 133.25,-48 141.67,-48"/>
<polygon fill="midnightblue" stroke="midnightblue" points="141.82,-51.5 151.82,-48 141.82,-44.5 141.82,-51.5"/>
</g>
<!-- Node3 -->
<g id="node3" class="node">
<title>Node3</title>
<g id="a_node3"><a xlink:href="classNetwork.html#a57f3c2d8b53d214d26822a52b899d69f" target="_top" xlink:title="broadcast to all players">
<polygon fill="white" stroke="black" points="315.5,-76.5 315.5,-95.5 427.5,-95.5 427.5,-76.5 315.5,-76.5"/>
<text text-anchor="middle" x="371.5" y="-83.5" font-family="Helvetica,sans-Serif" font-size="10.00">Network::broadcast</text>
</a>
</g>
</g>
<!-- Node2&#45;&gt;Node3 -->
<g id="edge2" class="edge">
<title>Node2&#45;&gt;Node3</title>
<path fill="none" stroke="midnightblue" d="M247.51,-57.59C269.32,-62.63 296.23,-68.84 319.32,-74.18"/>
<polygon fill="midnightblue" stroke="midnightblue" points="318.76,-77.64 329.29,-76.48 320.33,-70.82 318.76,-77.64"/>
</g>
<!-- Node4 -->
<g id="node4" class="node">
<title>Node4</title>
<g id="a_node4"><a xlink:href="classNetwork.html#af8150cee690f9b4db4de02ac403c2f86" target="_top" xlink:title="set time before which messages should be discarded">
<polygon fill="white" stroke="black" points="294,-38.5 294,-57.5 449,-57.5 449,-38.5 294,-38.5"/>
<text text-anchor="middle" x="371.5" y="-45.5" font-family="Helvetica,sans-Serif" font-size="10.00">Network::setDiscardingTime</text>
</a>
</g>
</g>
<!-- Node2&#45;&gt;Node4 -->
<g id="edge3" class="edge">
<title>Node2&#45;&gt;Node4</title>
<path fill="none" stroke="midnightblue" d="M258.05,-48C266.23,-48 274.88,-48 283.6,-48"/>
<polygon fill="midnightblue" stroke="midnightblue" points="283.85,-51.5 293.85,-48 283.85,-44.5 283.85,-51.5"/>
</g>
<!-- Node5 -->
<g id="node5" class="node">
<title>Node5</title>
<g id="a_node5"><a xlink:href="classGalaxy.html#ad74f8049b46bdd7c1aafbc0225eaaae1" target="_top" xlink:title="generates a json object of the current state of the galaxy">
<polygon fill="white" stroke="black" points="328.5,-0.5 328.5,-19.5 414.5,-19.5 414.5,-0.5 328.5,-0.5"/>
<text text-anchor="middle" x="371.5" y="-7.5" font-family="Helvetica,sans-Serif" font-size="10.00">Galaxy::toJson</text>
</a>
</g>
</g>
<!-- Node2&#45;&gt;Node5 -->
<g id="edge4" class="edge">
<title>Node2&#45;&gt;Node5</title>
<path fill="none" stroke="midnightblue" d="M247.51,-38.41C269.32,-33.37 296.23,-27.16 319.32,-21.82"/>
<polygon fill="midnightblue" stroke="midnightblue" points="320.33,-25.18 329.29,-19.52 318.76,-18.36 320.33,-25.18"/>
</g>
<!-- Node6 -->
<g id="node6" class="node">
<title>Node6</title>
<g id="a_node6"><a xlink:href="classGameState.html#a77597717c0d0b6d4e93c7f299cf3f315" target="_top" xlink:title=" ">
<polygon fill="white" stroke="black" points="485,-0.5 485,-19.5 592,-19.5 592,-0.5 485,-0.5"/>
<text text-anchor="middle" x="538.5" y="-7.5" font-family="Helvetica,sans-Serif" font-size="10.00">GameState::toJson</text>
</a>
</g>
</g>
<!-- Node5&#45;&gt;Node6 -->
<g id="edge5" class="edge">
<title>Node5&#45;&gt;Node6</title>
<path fill="none" stroke="midnightblue" d="M414.56,-10C432.86,-10 454.68,-10 474.83,-10"/>
<polygon fill="midnightblue" stroke="midnightblue" points="474.87,-13.5 484.87,-10 474.87,-6.5 474.87,-13.5"/>
</g>
</g>
</svg>
