<?xml version="1.0" encoding="UTF-8" standalone="no"?>
<!DOCTYPE svg PUBLIC "-//W3C//DTD SVG 1.1//EN"
 "http://www.w3.org/Graphics/SVG/1.1/DTD/svg11.dtd">
<!-- Generated by graphviz version 2.43.0 (0)
 -->
<!-- Title: GameGen::markAsOccupied Pages: 1 -->
<svg width="953pt" height="110pt"
 viewBox="0.00 0.00 953.00 109.50" xmlns="http://www.w3.org/2000/svg" xmlns:xlink="http://www.w3.org/1999/xlink">
<g id="graph0" class="graph" transform="scale(1 1) rotate(0) translate(4 105.5)">
<title>GameGen::markAsOccupied</title>
<polygon fill="white" stroke="transparent" points="-4,4 -4,-105.5 949,-105.5 949,4 -4,4"/>
<!-- Node1 -->
<g id="node1" class="node">
<title>Node1</title>
<g id="a_node1"><a xlink:title=" ">
<polygon fill="#bfbfbf" stroke="black" points="791,-44 791,-63 945,-63 945,-44 791,-44"/>
<text text-anchor="middle" x="868" y="-51" font-family="Helvetica,sans-Serif" font-size="10.00">GameGen::markAsOccupied</text>
</a>
</g>
</g>
<!-- Node2 -->
<g id="node2" class="node">
<title>Node2</title>
<g id="a_node2"><a xlink:href="classGameGen.html#a4d7754bc07fc51f98c7d1855f242cb6d" target="_top" xlink:title=" ">
<polygon fill="white" stroke="black" points="597,-82 597,-101 755,-101 755,-82 597,-82"/>
<text text-anchor="middle" x="676" y="-89" font-family="Helvetica,sans-Serif" font-size="10.00">GameGen::addFieldToGalaxy</text>
</a>
</g>
</g>
<!-- Node1&#45;&gt;Node2 -->
<g id="edge1" class="edge">
<title>Node1&#45;&gt;Node2</title>
<path fill="none" stroke="midnightblue" d="M808.95,-65.11C781.93,-70.51 750.18,-76.86 724.6,-81.98"/>
<polygon fill="midnightblue" stroke="midnightblue" points="809.94,-68.48 819.05,-63.09 808.56,-61.62 809.94,-68.48"/>
</g>
<!-- Node3 -->
<g id="node3" class="node">
<title>Node3</title>
<g id="a_node3"><a xlink:href="classGameGen.html#a7f1de577fbe021ce42b1851ce313a53c" target="_top" xlink:title=" ">
<polygon fill="white" stroke="black" points="370,-50 370,-69 561,-69 561,-50 370,-50"/>
<text text-anchor="middle" x="465.5" y="-57" font-family="Helvetica,sans-Serif" font-size="10.00">GameGen::generateGalaxyFromDot</text>
</a>
</g>
</g>
<!-- Node1&#45;&gt;Node3 -->
<g id="edge5" class="edge">
<title>Node1&#45;&gt;Node3</title>
<path fill="none" stroke="midnightblue" d="M780.57,-54.79C715.97,-55.76 627.72,-57.08 561.21,-58.08"/>
<polygon fill="midnightblue" stroke="midnightblue" points="780.78,-58.29 790.73,-54.64 780.67,-51.29 780.78,-58.29"/>
</g>
<!-- Node6 -->
<g id="node6" class="node">
<title>Node6</title>
<g id="a_node6"><a xlink:href="classGameGen.html#a0ac01e2e7044e85842deff2d1925138f" target="_top" xlink:title=" ">
<polygon fill="white" stroke="black" points="385,-0.5 385,-30.5 546,-30.5 546,-0.5 385,-0.5"/>
<text text-anchor="start" x="393" y="-18.5" font-family="Helvetica,sans-Serif" font-size="10.00">GameGen::generateNextDots</text>
<text text-anchor="middle" x="465.5" y="-7.5" font-family="Helvetica,sans-Serif" font-size="10.00">ByPattern</text>
</a>
</g>
</g>
<!-- Node1&#45;&gt;Node6 -->
<g id="edge6" class="edge">
<title>Node1&#45;&gt;Node6</title>
<path fill="none" stroke="midnightblue" d="M780.67,-45.31C711.09,-38.71 614.03,-29.5 546.26,-23.07"/>
<polygon fill="midnightblue" stroke="midnightblue" points="780.44,-48.8 790.73,-46.26 781.1,-41.83 780.44,-48.8"/>
</g>
<!-- Node2&#45;&gt;Node3 -->
<g id="edge2" class="edge">
<title>Node2&#45;&gt;Node3</title>
<path fill="none" stroke="midnightblue" d="M602.82,-80.42C578.66,-76.71 551.94,-72.61 528.61,-69.03"/>
<polygon fill="midnightblue" stroke="midnightblue" points="602.59,-83.93 613.01,-81.99 603.65,-77.01 602.59,-83.93"/>
</g>
<!-- Node4 -->
<g id="node4" class="node">
<title>Node4</title>
<g id="a_node4"><a xlink:href="classGameGen.html#a9c5f9fb6e374bcb13bbba2497f8d30cb" target="_top" xlink:title=" ">
<polygon fill="white" stroke="black" points="173,-28 173,-47 334,-47 334,-28 173,-28"/>
<text text-anchor="middle" x="253.5" y="-35" font-family="Helvetica,sans-Serif" font-size="10.00">GameGen::generateNextDots</text>
</a>
</g>
</g>
<!-- Node3&#45;&gt;Node4 -->
<g id="edge3" class="edge">
<title>Node3&#45;&gt;Node4</title>
<path fill="none" stroke="midnightblue" d="M363.45,-48.91C353.67,-47.89 343.84,-46.86 334.31,-45.86"/>
<polygon fill="midnightblue" stroke="midnightblue" points="363.3,-52.42 373.61,-49.98 364.03,-45.46 363.3,-52.42"/>
</g>
<!-- Node5 -->
<g id="node5" class="node">
<title>Node5</title>
<g id="a_node5"><a xlink:href="classGameGen.html#a0ce6a9241bfbb198b0ba80ed8ea306eb" target="_top" xlink:title=" ">
<polygon fill="white" stroke="black" points="0,-28 0,-47 137,-47 137,-28 0,-28"/>
<text text-anchor="middle" x="68.5" y="-35" font-family="Helvetica,sans-Serif" font-size="10.00">GameGen::generateDots</text>
</a>
</g>
</g>
<!-- Node4&#45;&gt;Node5 -->
<g id="edge4" class="edge">
<title>Node4&#45;&gt;Node5</title>
<path fill="none" stroke="midnightblue" d="M162.72,-37.5C154.15,-37.5 145.55,-37.5 137.23,-37.5"/>
<polygon fill="midnightblue" stroke="midnightblue" points="162.77,-41 172.77,-37.5 162.77,-34 162.77,-41"/>
</g>
<!-- Node6&#45;&gt;Node4 -->
<g id="edge7" class="edge">
<title>Node6&#45;&gt;Node4</title>
<path fill="none" stroke="midnightblue" d="M374.6,-24.92C361.15,-26.33 347.36,-27.77 334.14,-29.16"/>
<polygon fill="midnightblue" stroke="midnightblue" points="375.23,-28.37 384.81,-23.85 374.5,-21.41 375.23,-28.37"/>
</g>
</g>
</svg>
