<?xml version="1.0" encoding="UTF-8" standalone="no"?>
<!DOCTYPE svg PUBLIC "-//W3C//DTD SVG 1.1//EN"
 "http://www.w3.org/Graphics/SVG/1.1/DTD/svg11.dtd">
<!-- Generated by graphviz version 2.43.0 (0)
 -->
<!-- Title: include/dot.hpp Pages: 1 -->
<svg width="489pt" height="252pt"
 viewBox="0.00 0.00 488.50 252.00" xmlns="http://www.w3.org/2000/svg" xmlns:xlink="http://www.w3.org/1999/xlink">
<g id="graph0" class="graph" transform="scale(1 1) rotate(0) translate(4 248)">
<title>include/dot.hpp</title>
<polygon fill="white" stroke="transparent" points="-4,4 -4,-248 484.5,-248 484.5,4 -4,4"/>
<!-- Node1 -->
<g id="node1" class="node">
<title>Node1</title>
<g id="a_node1"><a xlink:title=" ">
<polygon fill="#bfbfbf" stroke="black" points="274,-224.5 274,-243.5 366,-243.5 366,-224.5 274,-224.5"/>
<text text-anchor="middle" x="320" y="-231.5" font-family="Helvetica,sans-Serif" font-size="10.00">include/dot.hpp</text>
</a>
</g>
</g>
<!-- Node2 -->
<g id="node2" class="node">
<title>Node2</title>
<g id="a_node2"><a xlink:href="gamechange_8hpp.html" target="_top" xlink:title=" ">
<polygon fill="white" stroke="black" points="121.5,-168.5 121.5,-187.5 260.5,-187.5 260.5,-168.5 121.5,-168.5"/>
<text text-anchor="middle" x="191" y="-175.5" font-family="Helvetica,sans-Serif" font-size="10.00">include/gamechange.hpp</text>
</a>
</g>
</g>
<!-- Node1&#45;&gt;Node2 -->
<g id="edge1" class="edge">
<title>Node1&#45;&gt;Node2</title>
<path fill="none" stroke="midnightblue" d="M290.15,-220.5C265.96,-210.38 232.54,-196.39 211.34,-187.52"/>
<polygon fill="midnightblue" stroke="midnightblue" points="288.98,-223.81 299.56,-224.44 291.69,-217.35 288.98,-223.81"/>
</g>
<!-- Node8 -->
<g id="node8" class="node">
<title>Node8</title>
<g id="a_node8"><a xlink:href="gamestate_8hpp.html" target="_top" xlink:title=" ">
<polygon fill="white" stroke="black" points="225,-112.5 225,-131.5 353,-131.5 353,-112.5 225,-112.5"/>
<text text-anchor="middle" x="289" y="-119.5" font-family="Helvetica,sans-Serif" font-size="10.00">include/gamestate.hpp</text>
</a>
</g>
</g>
<!-- Node1&#45;&gt;Node8 -->
<g id="edge12" class="edge">
<title>Node1&#45;&gt;Node8</title>
<path fill="none" stroke="midnightblue" d="M314.84,-214.67C308.06,-190.62 296.44,-149.39 291.42,-131.59"/>
<polygon fill="midnightblue" stroke="midnightblue" points="311.49,-215.69 317.57,-224.37 318.22,-213.79 311.49,-215.69"/>
</g>
<!-- Node11 -->
<g id="node11" class="node">
<title>Node11</title>
<g id="a_node11"><a xlink:href="dot_8cpp.html" target="_top" xlink:title=" ">
<polygon fill="white" stroke="black" points="317,-168.5 317,-187.5 387,-187.5 387,-168.5 317,-168.5"/>
<text text-anchor="middle" x="352" y="-175.5" font-family="Helvetica,sans-Serif" font-size="10.00">src/dot.cpp</text>
</a>
</g>
</g>
<!-- Node1&#45;&gt;Node11 -->
<g id="edge13" class="edge">
<title>Node1&#45;&gt;Node11</title>
<path fill="none" stroke="midnightblue" d="M330.5,-215.27C335.97,-206.05 342.42,-195.17 346.81,-187.75"/>
<polygon fill="midnightblue" stroke="midnightblue" points="327.37,-213.7 325.28,-224.08 333.39,-217.26 327.37,-213.7"/>
</g>
<!-- Node12 -->
<g id="node12" class="node">
<title>Node12</title>
<g id="a_node12"><a xlink:href="field_8cpp.html" target="_top" xlink:title=" ">
<polygon fill="white" stroke="black" points="405.5,-168.5 405.5,-187.5 480.5,-187.5 480.5,-168.5 405.5,-168.5"/>
<text text-anchor="middle" x="443" y="-175.5" font-family="Helvetica,sans-Serif" font-size="10.00">src/field.cpp</text>
</a>
</g>
</g>
<!-- Node1&#45;&gt;Node12 -->
<g id="edge14" class="edge">
<title>Node1&#45;&gt;Node12</title>
<path fill="none" stroke="midnightblue" d="M348.77,-220.37C371.81,-210.26 403.48,-196.35 423.6,-187.52"/>
<polygon fill="midnightblue" stroke="midnightblue" points="347.24,-217.22 339.49,-224.44 350.05,-223.63 347.24,-217.22"/>
</g>
<!-- Node3 -->
<g id="node3" class="node">
<title>Node3</title>
<g id="a_node3"><a xlink:href="galaxy_8hpp.html" target="_top" xlink:title=" ">
<polygon fill="white" stroke="black" points="124.5,-56.5 124.5,-75.5 231.5,-75.5 231.5,-56.5 124.5,-56.5"/>
<text text-anchor="middle" x="178" y="-63.5" font-family="Helvetica,sans-Serif" font-size="10.00">include/galaxy.hpp</text>
</a>
</g>
</g>
<!-- Node2&#45;&gt;Node3 -->
<g id="edge2" class="edge">
<title>Node2&#45;&gt;Node3</title>
<path fill="none" stroke="midnightblue" d="M188.8,-158.35C185.95,-134.25 181.11,-93.31 179.02,-75.59"/>
<polygon fill="midnightblue" stroke="midnightblue" points="185.33,-158.85 189.98,-168.37 192.28,-158.03 185.33,-158.85"/>
</g>
<!-- Node2&#45;&gt;Node8 -->
<g id="edge7" class="edge">
<title>Node2&#45;&gt;Node8</title>
<path fill="none" stroke="midnightblue" d="M215.59,-163.45C233.68,-153.48 257.73,-140.23 273.29,-131.65"/>
<polygon fill="midnightblue" stroke="midnightblue" points="213.81,-160.43 206.75,-168.32 217.19,-166.56 213.81,-160.43"/>
</g>
<!-- Node10 -->
<g id="node10" class="node">
<title>Node10</title>
<g id="a_node10"><a xlink:href="gamechange_8cpp.html" target="_top" xlink:title=" ">
<polygon fill="white" stroke="black" points="45.5,-112.5 45.5,-131.5 162.5,-131.5 162.5,-112.5 45.5,-112.5"/>
<text text-anchor="middle" x="104" y="-119.5" font-family="Helvetica,sans-Serif" font-size="10.00">src/gamechange.cpp</text>
</a>
</g>
</g>
<!-- Node2&#45;&gt;Node10 -->
<g id="edge11" class="edge">
<title>Node2&#45;&gt;Node10</title>
<path fill="none" stroke="midnightblue" d="M168.28,-162.9C152.33,-153 131.5,-140.07 117.94,-131.65"/>
<polygon fill="midnightblue" stroke="midnightblue" points="166.68,-166.02 177.02,-168.32 170.37,-160.08 166.68,-166.02"/>
</g>
<!-- Node4 -->
<g id="node4" class="node">
<title>Node4</title>
<g id="a_node4"><a xlink:href="main_8cpp.html" target="_top" xlink:title=" ">
<polygon fill="white" stroke="black" points="354,-0.5 354,-19.5 416,-19.5 416,-0.5 354,-0.5"/>
<text text-anchor="middle" x="385" y="-7.5" font-family="Helvetica,sans-Serif" font-size="10.00">main.cpp</text>
</a>
</g>
</g>
<!-- Node3&#45;&gt;Node4 -->
<g id="edge3" class="edge">
<title>Node3&#45;&gt;Node4</title>
<path fill="none" stroke="midnightblue" d="M220.69,-53.86C260.28,-43.54 318.26,-28.41 353.71,-19.16"/>
<polygon fill="midnightblue" stroke="midnightblue" points="219.59,-50.53 210.8,-56.44 221.36,-57.31 219.59,-50.53"/>
</g>
<!-- Node5 -->
<g id="node5" class="node">
<title>Node5</title>
<g id="a_node5"><a xlink:href="galaxy_8cpp.html" target="_top" xlink:title=" ">
<polygon fill="white" stroke="black" points="0,-0.5 0,-19.5 86,-19.5 86,-0.5 0,-0.5"/>
<text text-anchor="middle" x="43" y="-7.5" font-family="Helvetica,sans-Serif" font-size="10.00">src/galaxy.cpp</text>
</a>
</g>
</g>
<!-- Node3&#45;&gt;Node5 -->
<g id="edge4" class="edge">
<title>Node3&#45;&gt;Node5</title>
<path fill="none" stroke="midnightblue" d="M147.09,-52.64C121.76,-42.5 86.57,-28.43 64.29,-19.52"/>
<polygon fill="midnightblue" stroke="midnightblue" points="146.02,-55.98 156.61,-56.44 148.62,-49.48 146.02,-55.98"/>
</g>
<!-- Node6 -->
<g id="node6" class="node">
<title>Node6</title>
<g id="a_node6"><a xlink:href="network_8cpp.html" target="_top" xlink:title=" ">
<polygon fill="white" stroke="black" points="104,-0.5 104,-19.5 198,-19.5 198,-0.5 104,-0.5"/>
<text text-anchor="middle" x="151" y="-7.5" font-family="Helvetica,sans-Serif" font-size="10.00">src/network.cpp</text>
</a>
</g>
</g>
<!-- Node3&#45;&gt;Node6 -->
<g id="edge5" class="edge">
<title>Node3&#45;&gt;Node6</title>
<path fill="none" stroke="midnightblue" d="M168.99,-46.98C164.41,-37.82 159.05,-27.09 155.38,-19.75"/>
<polygon fill="midnightblue" stroke="midnightblue" points="165.94,-48.7 173.54,-56.08 172.2,-45.57 165.94,-48.7"/>
</g>
<!-- Node7 -->
<g id="node7" class="node">
<title>Node7</title>
<g id="a_node7"><a xlink:href="newgamepoll_8cpp.html" target="_top" xlink:title=" ">
<polygon fill="white" stroke="black" points="216,-0.5 216,-19.5 336,-19.5 336,-0.5 216,-0.5"/>
<text text-anchor="middle" x="276" y="-7.5" font-family="Helvetica,sans-Serif" font-size="10.00">src/newgamepoll.cpp</text>
</a>
</g>
</g>
<!-- Node3&#45;&gt;Node7 -->
<g id="edge6" class="edge">
<title>Node3&#45;&gt;Node7</title>
<path fill="none" stroke="midnightblue" d="M202.59,-51.45C220.68,-41.48 244.73,-28.23 260.29,-19.65"/>
<polygon fill="midnightblue" stroke="midnightblue" points="200.81,-48.43 193.75,-56.32 204.19,-54.56 200.81,-48.43"/>
</g>
<!-- Node8&#45;&gt;Node3 -->
<g id="edge8" class="edge">
<title>Node8&#45;&gt;Node3</title>
<path fill="none" stroke="midnightblue" d="M261.99,-107.86C241.41,-97.85 213.66,-84.35 195.79,-75.65"/>
<polygon fill="midnightblue" stroke="midnightblue" points="260.64,-111.1 271.17,-112.32 263.7,-104.8 260.64,-111.1"/>
</g>
<!-- Node8&#45;&gt;Node4 -->
<g id="edge9" class="edge">
<title>Node8&#45;&gt;Node4</title>
<path fill="none" stroke="midnightblue" d="M322.26,-107.97C337.22,-100.61 353.95,-90.03 365,-76 378.3,-59.12 382.8,-33.39 384.29,-19.92"/>
<polygon fill="midnightblue" stroke="midnightblue" points="320.39,-104.98 312.77,-112.35 323.32,-111.34 320.39,-104.98"/>
</g>
<!-- Node9 -->
<g id="node9" class="node">
<title>Node9</title>
<g id="a_node9"><a xlink:href="gamestate_8cpp.html" target="_top" xlink:title=" ">
<polygon fill="white" stroke="black" points="249.5,-56.5 249.5,-75.5 356.5,-75.5 356.5,-56.5 249.5,-56.5"/>
<text text-anchor="middle" x="303" y="-63.5" font-family="Helvetica,sans-Serif" font-size="10.00">src/gamestate.cpp</text>
</a>
</g>
</g>
<!-- Node8&#45;&gt;Node9 -->
<g id="edge10" class="edge">
<title>Node8&#45;&gt;Node9</title>
<path fill="none" stroke="midnightblue" d="M293.82,-102.4C296.17,-93.36 298.87,-82.94 300.73,-75.75"/>
<polygon fill="midnightblue" stroke="midnightblue" points="290.43,-101.52 291.31,-112.08 297.21,-103.28 290.43,-101.52"/>
</g>
</g>
</svg>
