<?xml version="1.0" encoding="UTF-8" standalone="no"?>
<!DOCTYPE svg PUBLIC "-//W3C//DTD SVG 1.1//EN"
 "http://www.w3.org/Graphics/SVG/1.1/DTD/svg11.dtd">
<!-- Generated by graphviz version 2.43.0 (0)
 -->
<!-- Title: src/dot.cpp Pages: 1 -->
<svg width="422pt" height="140pt"
 viewBox="0.00 0.00 422.00 140.00" xmlns="http://www.w3.org/2000/svg" xmlns:xlink="http://www.w3.org/1999/xlink">
<g id="graph0" class="graph" transform="scale(1 1) rotate(0) translate(4 136)">
<title>src/dot.cpp</title>
<polygon fill="white" stroke="transparent" points="-4,4 -4,-136 418,-136 418,4 -4,4"/>
<!-- Node1 -->
<g id="node1" class="node">
<title>Node1</title>
<g id="a_node1"><a xlink:title=" ">
<polygon fill="#bfbfbf" stroke="black" points="167,-112.5 167,-131.5 237,-131.5 237,-112.5 167,-112.5"/>
<text text-anchor="middle" x="202" y="-119.5" font-family="Helvetica,sans-Serif" font-size="10.00">src/dot.cpp</text>
</a>
</g>
</g>
<!-- Node2 -->
<g id="node2" class="node">
<title>Node2</title>
<g id="a_node2"><a xlink:href="dot_8hpp.html" target="_top" xlink:title=" ">
<polygon fill="white" stroke="black" points="219.5,-56.5 219.5,-75.5 272.5,-75.5 272.5,-56.5 219.5,-56.5"/>
<text text-anchor="middle" x="246" y="-63.5" font-family="Helvetica,sans-Serif" font-size="10.00">dot.hpp</text>
</a>
</g>
</g>
<!-- Node1&#45;&gt;Node2 -->
<g id="edge1" class="edge">
<title>Node1&#45;&gt;Node2</title>
<path fill="none" stroke="midnightblue" d="M209.27,-112.08C215.54,-104.38 224.79,-93.03 232.43,-83.65"/>
<polygon fill="midnightblue" stroke="midnightblue" points="235.27,-85.71 238.87,-75.75 229.84,-81.29 235.27,-85.71"/>
</g>
<!-- Node8 -->
<g id="node8" class="node">
<title>Node8</title>
<g id="a_node8"><a xlink:href="field_8hpp.html" target="_top" xlink:title=" ">
<polygon fill="white" stroke="black" points="135.5,-56.5 135.5,-75.5 194.5,-75.5 194.5,-56.5 135.5,-56.5"/>
<text text-anchor="middle" x="165" y="-63.5" font-family="Helvetica,sans-Serif" font-size="10.00">field.hpp</text>
</a>
</g>
</g>
<!-- Node1&#45;&gt;Node8 -->
<g id="edge7" class="edge">
<title>Node1&#45;&gt;Node8</title>
<path fill="none" stroke="midnightblue" d="M195.89,-112.08C190.72,-104.53 183.15,-93.49 176.81,-84.23"/>
<polygon fill="midnightblue" stroke="midnightblue" points="179.54,-82.02 171,-75.75 173.76,-85.98 179.54,-82.02"/>
</g>
<!-- Node3 -->
<g id="node3" class="node">
<title>Node3</title>
<g id="a_node3"><a xlink:href="position__type_8hpp.html" target="_top" xlink:title=" ">
<polygon fill="white" stroke="black" points="0,-0.5 0,-19.5 104,-19.5 104,-0.5 0,-0.5"/>
<text text-anchor="middle" x="52" y="-7.5" font-family="Helvetica,sans-Serif" font-size="10.00">position_type.hpp</text>
</a>
</g>
</g>
<!-- Node2&#45;&gt;Node3 -->
<g id="edge2" class="edge">
<title>Node2&#45;&gt;Node3</title>
<path fill="none" stroke="midnightblue" d="M219.43,-57.6C186.66,-48.48 130.62,-32.89 92.49,-22.27"/>
<polygon fill="midnightblue" stroke="midnightblue" points="93.29,-18.86 82.72,-19.55 91.41,-25.6 93.29,-18.86"/>
</g>
<!-- Node4 -->
<g id="node4" class="node">
<title>Node4</title>
<g id="a_node4"><a xlink:title=" ">
<polygon fill="white" stroke="#bfbfbf" points="382,-0.5 382,-19.5 414,-19.5 414,-0.5 382,-0.5"/>
<text text-anchor="middle" x="398" y="-7.5" font-family="Helvetica,sans-Serif" font-size="10.00">set</text>
</a>
</g>
</g>
<!-- Node2&#45;&gt;Node4 -->
<g id="edge3" class="edge">
<title>Node2&#45;&gt;Node4</title>
<path fill="none" stroke="midnightblue" d="M270.36,-56.41C294.09,-48.03 331.42,-34.83 372.26,-20.25"/>
<polygon fill="midnightblue" stroke="midnightblue" points="373.63,-23.48 381.87,-16.82 371.27,-16.89 373.63,-23.48"/>
</g>
<!-- Node5 -->
<g id="node5" class="node">
<title>Node5</title>
<g id="a_node5"><a xlink:title=" ">
<polygon fill="white" stroke="#bfbfbf" points="326,-0.5 326,-19.5 364,-19.5 364,-0.5 326,-0.5"/>
<text text-anchor="middle" x="345" y="-7.5" font-family="Helvetica,sans-Serif" font-size="10.00">map</text>
</a>
</g>
</g>
<!-- Node2&#45;&gt;Node5 -->
<g id="edge4" class="edge">
<title>Node2&#45;&gt;Node5</title>
<path fill="none" stroke="midnightblue" d="M261.91,-56.32C277.64,-47.74 301.94,-34.49 320.21,-24.52"/>
<polygon fill="midnightblue" stroke="midnightblue" points="322.03,-27.52 329.13,-19.65 318.68,-21.37 322.03,-27.52"/>
</g>
<!-- Node6 -->
<g id="node6" class="node">
<title>Node6</title>
<g id="a_node6"><a xlink:title=" ">
<polygon fill="white" stroke="#bfbfbf" points="122,-0.5 122,-19.5 180,-19.5 180,-0.5 122,-0.5"/>
<text text-anchor="middle" x="151" y="-7.5" font-family="Helvetica,sans-Serif" font-size="10.00">memory</text>
</a>
</g>
</g>
<!-- Node2&#45;&gt;Node6 -->
<g id="edge5" class="edge">
<title>Node2&#45;&gt;Node6</title>
<path fill="none" stroke="midnightblue" d="M230.74,-56.32C215.78,-47.82 192.75,-34.73 175.27,-24.8"/>
<polygon fill="midnightblue" stroke="midnightblue" points="176.65,-21.55 166.23,-19.65 173.19,-27.64 176.65,-21.55"/>
</g>
<!-- Node7 -->
<g id="node7" class="node">
<title>Node7</title>
<g id="a_node7"><a xlink:title=" ">
<polygon fill="white" stroke="#bfbfbf" points="198,-0.5 198,-19.5 308,-19.5 308,-0.5 198,-0.5"/>
<text text-anchor="middle" x="253" y="-7.5" font-family="Helvetica,sans-Serif" font-size="10.00">nlohmann/json.hpp</text>
</a>
</g>
</g>
<!-- Node2&#45;&gt;Node7 -->
<g id="edge6" class="edge">
<title>Node2&#45;&gt;Node7</title>
<path fill="none" stroke="midnightblue" d="M247.16,-56.08C248.08,-48.93 249.42,-38.64 250.58,-29.69"/>
<polygon fill="midnightblue" stroke="midnightblue" points="254.05,-30.12 251.87,-19.75 247.11,-29.22 254.05,-30.12"/>
</g>
<!-- Node8&#45;&gt;Node3 -->
<g id="edge8" class="edge">
<title>Node8&#45;&gt;Node3</title>
<path fill="none" stroke="midnightblue" d="M147.09,-56.44C128.75,-47.68 99.99,-33.94 78.91,-23.86"/>
<polygon fill="midnightblue" stroke="midnightblue" points="80.35,-20.67 69.82,-19.52 77.33,-26.99 80.35,-20.67"/>
</g>
<!-- Node8&#45;&gt;Node6 -->
<g id="edge10" class="edge">
<title>Node8&#45;&gt;Node6</title>
<path fill="none" stroke="midnightblue" d="M162.69,-56.08C160.83,-48.93 158.16,-38.64 155.85,-29.69"/>
<polygon fill="midnightblue" stroke="midnightblue" points="159.17,-28.55 153.27,-19.75 152.39,-30.31 159.17,-28.55"/>
</g>
<!-- Node8&#45;&gt;Node7 -->
<g id="edge9" class="edge">
<title>Node8&#45;&gt;Node7</title>
<path fill="none" stroke="midnightblue" d="M179.14,-56.32C192.87,-47.9 213.94,-34.97 230.06,-25.07"/>
<polygon fill="midnightblue" stroke="midnightblue" points="232.2,-27.87 238.9,-19.65 228.54,-21.9 232.2,-27.87"/>
</g>
</g>
</svg>
