<?xml version="1.0" encoding="UTF-8" standalone="no"?>
<!DOCTYPE svg PUBLIC "-//W3C//DTD SVG 1.1//EN"
 "http://www.w3.org/Graphics/SVG/1.1/DTD/svg11.dtd">
<!-- Generated by graphviz version 2.43.0 (0)
 -->
<!-- Title: src/field.cpp Pages: 1 -->
<svg width="422pt" height="140pt"
 viewBox="0.00 0.00 422.00 140.00" xmlns="http://www.w3.org/2000/svg" xmlns:xlink="http://www.w3.org/1999/xlink">
<g id="graph0" class="graph" transform="scale(1 1) rotate(0) translate(4 136)">
<title>src/field.cpp</title>
<polygon fill="white" stroke="transparent" points="-4,4 -4,-136 418,-136 418,4 -4,4"/>
<!-- Node1 -->
<g id="node1" class="node">
<title>Node1</title>
<g id="a_node1"><a xlink:title=" ">
<polygon fill="#bfbfbf" stroke="black" points="190.5,-112.5 190.5,-131.5 265.5,-131.5 265.5,-112.5 190.5,-112.5"/>
<text text-anchor="middle" x="228" y="-119.5" font-family="Helvetica,sans-Serif" font-size="10.00">src/field.cpp</text>
</a>
</g>
</g>
<!-- Node2 -->
<g id="node2" class="node">
<title>Node2</title>
<g id="a_node2"><a xlink:href="field_8hpp.html" target="_top" xlink:title=" ">
<polygon fill="white" stroke="black" points="154.5,-56.5 154.5,-75.5 213.5,-75.5 213.5,-56.5 154.5,-56.5"/>
<text text-anchor="middle" x="184" y="-63.5" font-family="Helvetica,sans-Serif" font-size="10.00">field.hpp</text>
</a>
</g>
</g>
<!-- Node1&#45;&gt;Node2 -->
<g id="edge1" class="edge">
<title>Node1&#45;&gt;Node2</title>
<path fill="none" stroke="midnightblue" d="M220.73,-112.08C214.46,-104.38 205.21,-93.03 197.57,-83.65"/>
<polygon fill="midnightblue" stroke="midnightblue" points="200.16,-81.29 191.13,-75.75 194.73,-85.71 200.16,-81.29"/>
</g>
<!-- Node6 -->
<g id="node6" class="node">
<title>Node6</title>
<g id="a_node6"><a xlink:href="dot_8hpp.html" target="_top" xlink:title=" ">
<polygon fill="white" stroke="black" points="245.5,-56.5 245.5,-75.5 298.5,-75.5 298.5,-56.5 245.5,-56.5"/>
<text text-anchor="middle" x="272" y="-63.5" font-family="Helvetica,sans-Serif" font-size="10.00">dot.hpp</text>
</a>
</g>
</g>
<!-- Node1&#45;&gt;Node6 -->
<g id="edge5" class="edge">
<title>Node1&#45;&gt;Node6</title>
<path fill="none" stroke="midnightblue" d="M235.27,-112.08C241.54,-104.38 250.79,-93.03 258.43,-83.65"/>
<polygon fill="midnightblue" stroke="midnightblue" points="261.27,-85.71 264.87,-75.75 255.84,-81.29 261.27,-85.71"/>
</g>
<!-- Node3 -->
<g id="node3" class="node">
<title>Node3</title>
<g id="a_node3"><a xlink:href="position__type_8hpp.html" target="_top" xlink:title=" ">
<polygon fill="white" stroke="black" points="0,-0.5 0,-19.5 104,-19.5 104,-0.5 0,-0.5"/>
<text text-anchor="middle" x="52" y="-7.5" font-family="Helvetica,sans-Serif" font-size="10.00">position_type.hpp</text>
</a>
</g>
</g>
<!-- Node2&#45;&gt;Node3 -->
<g id="edge2" class="edge">
<title>Node2&#45;&gt;Node3</title>
<path fill="none" stroke="midnightblue" d="M163.08,-56.44C141.26,-47.52 106.85,-33.44 82.11,-23.32"/>
<polygon fill="midnightblue" stroke="midnightblue" points="83.4,-20.06 72.82,-19.52 80.75,-26.54 83.4,-20.06"/>
</g>
<!-- Node4 -->
<g id="node4" class="node">
<title>Node4</title>
<g id="a_node4"><a xlink:title=" ">
<polygon fill="white" stroke="#bfbfbf" points="122,-0.5 122,-19.5 232,-19.5 232,-0.5 122,-0.5"/>
<text text-anchor="middle" x="177" y="-7.5" font-family="Helvetica,sans-Serif" font-size="10.00">nlohmann/json.hpp</text>
</a>
</g>
</g>
<!-- Node2&#45;&gt;Node4 -->
<g id="edge3" class="edge">
<title>Node2&#45;&gt;Node4</title>
<path fill="none" stroke="midnightblue" d="M182.84,-56.08C181.92,-48.93 180.58,-38.64 179.42,-29.69"/>
<polygon fill="midnightblue" stroke="midnightblue" points="182.89,-29.22 178.13,-19.75 175.95,-30.12 182.89,-29.22"/>
</g>
<!-- Node5 -->
<g id="node5" class="node">
<title>Node5</title>
<g id="a_node5"><a xlink:title=" ">
<polygon fill="white" stroke="#bfbfbf" points="250,-0.5 250,-19.5 308,-19.5 308,-0.5 250,-0.5"/>
<text text-anchor="middle" x="279" y="-7.5" font-family="Helvetica,sans-Serif" font-size="10.00">memory</text>
</a>
</g>
</g>
<!-- Node2&#45;&gt;Node5 -->
<g id="edge4" class="edge">
<title>Node2&#45;&gt;Node5</title>
<path fill="none" stroke="midnightblue" d="M199.26,-56.32C214.22,-47.82 237.25,-34.73 254.73,-24.8"/>
<polygon fill="midnightblue" stroke="midnightblue" points="256.81,-27.64 263.77,-19.65 253.35,-21.55 256.81,-27.64"/>
</g>
<!-- Node6&#45;&gt;Node3 -->
<g id="edge6" class="edge">
<title>Node6&#45;&gt;Node3</title>
<path fill="none" stroke="midnightblue" d="M245.46,-58.49C208.59,-49.44 141.38,-32.94 96.7,-21.97"/>
<polygon fill="midnightblue" stroke="midnightblue" points="97.52,-18.57 86.97,-19.58 95.85,-25.37 97.52,-18.57"/>
</g>
<!-- Node6&#45;&gt;Node4 -->
<g id="edge10" class="edge">
<title>Node6&#45;&gt;Node4</title>
<path fill="none" stroke="midnightblue" d="M256.74,-56.32C241.78,-47.82 218.75,-34.73 201.27,-24.8"/>
<polygon fill="midnightblue" stroke="midnightblue" points="202.65,-21.55 192.23,-19.65 199.19,-27.64 202.65,-21.55"/>
</g>
<!-- Node6&#45;&gt;Node5 -->
<g id="edge9" class="edge">
<title>Node6&#45;&gt;Node5</title>
<path fill="none" stroke="midnightblue" d="M273.16,-56.08C274.08,-48.93 275.42,-38.64 276.58,-29.69"/>
<polygon fill="midnightblue" stroke="midnightblue" points="280.05,-30.12 277.87,-19.75 273.11,-29.22 280.05,-30.12"/>
</g>
<!-- Node7 -->
<g id="node7" class="node">
<title>Node7</title>
<g id="a_node7"><a xlink:title=" ">
<polygon fill="white" stroke="#bfbfbf" points="382,-0.5 382,-19.5 414,-19.5 414,-0.5 382,-0.5"/>
<text text-anchor="middle" x="398" y="-7.5" font-family="Helvetica,sans-Serif" font-size="10.00">set</text>
</a>
</g>
</g>
<!-- Node6&#45;&gt;Node7 -->
<g id="edge7" class="edge">
<title>Node6&#45;&gt;Node7</title>
<path fill="none" stroke="midnightblue" d="M291.97,-56.44C313.7,-47.13 348.53,-32.2 372.3,-22.02"/>
<polygon fill="midnightblue" stroke="midnightblue" points="373.92,-25.13 381.73,-17.97 371.16,-18.69 373.92,-25.13"/>
</g>
<!-- Node8 -->
<g id="node8" class="node">
<title>Node8</title>
<g id="a_node8"><a xlink:title=" ">
<polygon fill="white" stroke="#bfbfbf" points="326,-0.5 326,-19.5 364,-19.5 364,-0.5 326,-0.5"/>
<text text-anchor="middle" x="345" y="-7.5" font-family="Helvetica,sans-Serif" font-size="10.00">map</text>
</a>
</g>
</g>
<!-- Node6&#45;&gt;Node8 -->
<g id="edge8" class="edge">
<title>Node6&#45;&gt;Node8</title>
<path fill="none" stroke="midnightblue" d="M283.73,-56.32C294.84,-48.11 311.74,-35.6 324.98,-25.81"/>
<polygon fill="midnightblue" stroke="midnightblue" points="327.1,-28.59 333.06,-19.83 322.94,-22.97 327.1,-28.59"/>
</g>
</g>
</svg>
