<?xml version="1.0" encoding="UTF-8" standalone="no"?>
<!DOCTYPE svg PUBLIC "-//W3C//DTD SVG 1.1//EN"
 "http://www.w3.org/Graphics/SVG/1.1/DTD/svg11.dtd">
<!-- Generated by graphviz version 2.43.0 (0)
 -->
<!-- Title: include/galaxy.hpp Pages: 1 -->
<!--zoomable 263 -->
<svg id="main" version="1.1" xmlns="http://www.w3.org/2000/svg" xmlns:xlink="http://www.w3.org/1999/xlink" xml:space="preserve" onload="init(evt)">
<style type="text/css"><![CDATA[
.edge:hover path { stroke: red; }
.edge:hover polygon { stroke: red; fill: red; }
]]></style>
<script type="text/javascript"><![CDATA[
var edges = document.getElementsByTagName('g');
if (edges && edges.length) {
  for (var i=0;i<edges.length;i++) {
    if (edges[i].id.substr(0,4)=='edge') {
      edges[i].setAttribute('class','edge');
    }
  }
}
]]></script>
        <defs>
                <circle id="rim" cx="0" cy="0" r="7"/>
                <circle id="rim2" cx="0" cy="0" r="3.5"/>
                <g id="zoomPlus">
                        <use xlink:href="#rim" fill="#404040">
                                <set attributeName="fill" to="#808080" begin="zoomplus.mouseover" end="zoomplus.mouseout"/>
                        </use>
                        <path d="M-4,0h8M0,-4v8" fill="none" stroke="white" stroke-width="1.5" pointer-events="none"/>
                </g>
                <g id="zoomMin">
                        <use xlink:href="#rim" fill="#404040">
                                <set attributeName="fill" to="#808080" begin="zoomminus.mouseover" end="zoomminus.mouseout"/>
                        </use>
                        <path d="M-4,0h8" fill="none" stroke="white" stroke-width="1.5" pointer-events="none"/>
                </g>
                <g id="dirArrow">
                        <path fill="none" stroke="white" stroke-width="1.5" d="M0,-3.0v7 M-2.5,-0.5L0,-3.0L2.5,-0.5"/>
                </g>
               <g id="resetDef">
                       <use xlink:href="#rim2" fill="#404040">
                               <set attributeName="fill" to="#808080" begin="reset.mouseover" end="reset.mouseout"/>
                       </use>
               </g>
        </defs>

<script type="text/javascript">
var viewWidth = 1374;
var viewHeight = 263;
var sectionId = 'dynsection-0';
</script>
<script xlink:href="svgpan.js"/>
<svg id="graph" class="graph">
<g id="viewport">
<title>include/galaxy.hpp</title>
<polygon fill="white" stroke="transparent" points="-4,4 -4,-259 1370,-259 1370,4 -4,4"/>
<!-- Node1 -->
<g id="node1" class="node">
<title>Node1</title>
<g id="a_node1"><a xlink:title=" ">
<polygon fill="#bfbfbf" stroke="black" points="475.5,-235.5 475.5,-254.5 582.5,-254.5 582.5,-235.5 475.5,-235.5"/>
<text text-anchor="middle" x="529" y="-242.5" font-family="Helvetica,sans-Serif" font-size="10.00">include/galaxy.hpp</text>
</a>
</g>
</g>
<!-- Node2 -->
<g id="node2" class="node">
<title>Node2</title>
<g id="a_node2"><a xlink:title=" ">
<polygon fill="white" stroke="#bfbfbf" points="557,-118 557,-137 589,-137 589,-118 557,-118"/>
<text text-anchor="middle" x="573" y="-125" font-family="Helvetica,sans-Serif" font-size="10.00">list</text>
</a>
</g>
</g>
<!-- Node1&#45;&gt;Node2 -->
<g id="edge1" class="edge">
<title>Node1&#45;&gt;Node2</title>
<path fill="none" stroke="midnightblue" d="M532.31,-235.32C539.44,-216.59 556.41,-172.05 566.03,-146.79"/>
<polygon fill="midnightblue" stroke="midnightblue" points="569.37,-147.87 569.65,-137.28 562.82,-145.38 569.37,-147.87"/>
</g>
<!-- Node3 -->
<g id="node3" class="node">
<title>Node3</title>
<g id="a_node3"><a xlink:title=" ">
<polygon fill="white" stroke="#bfbfbf" points="0,-0.5 0,-19.5 58,-19.5 58,-0.5 0,-0.5"/>
<text text-anchor="middle" x="29" y="-7.5" font-family="Helvetica,sans-Serif" font-size="10.00">memory</text>
</a>
</g>
</g>
<!-- Node1&#45;&gt;Node3 -->
<g id="edge2" class="edge">
<title>Node1&#45;&gt;Node3</title>
<path fill="none" stroke="midnightblue" d="M475.21,-241.54C406.9,-237.37 285.89,-226.49 186,-199 125.35,-182.3 98.45,-189.43 56,-143 27.28,-111.59 25.75,-58.16 27.26,-29.87"/>
<polygon fill="midnightblue" stroke="midnightblue" points="30.76,-29.96 28,-19.73 23.78,-29.45 30.76,-29.96"/>
</g>
<!-- Node4 -->
<g id="node4" class="node">
<title>Node4</title>
<g id="a_node4"><a xlink:title=" ">
<polygon fill="white" stroke="#bfbfbf" points="436,-0.5 436,-19.5 546,-19.5 546,-0.5 436,-0.5"/>
<text text-anchor="middle" x="491" y="-7.5" font-family="Helvetica,sans-Serif" font-size="10.00">nlohmann/json.hpp</text>
</a>
</g>
</g>
<!-- Node1&#45;&gt;Node4 -->
<g id="edge3" class="edge">
<title>Node1&#45;&gt;Node4</title>
<path fill="none" stroke="midnightblue" d="M527.6,-235.43C522.1,-201.68 501.84,-77.47 494.07,-29.8"/>
<polygon fill="midnightblue" stroke="midnightblue" points="497.51,-29.2 492.45,-19.9 490.61,-30.33 497.51,-29.2"/>
</g>
<!-- Node5 -->
<g id="node5" class="node">
<title>Node5</title>
<g id="a_node5"><a xlink:href="player_8hpp.html" target="_top" xlink:title=" ">
<polygon fill="white" stroke="black" points="940,-56.5 940,-75.5 1008,-75.5 1008,-56.5 940,-56.5"/>
<text text-anchor="middle" x="974" y="-63.5" font-family="Helvetica,sans-Serif" font-size="10.00">player.hpp</text>
</a>
</g>
</g>
<!-- Node1&#45;&gt;Node5 -->
<g id="edge4" class="edge">
<title>Node1&#45;&gt;Node5</title>
<path fill="none" stroke="midnightblue" d="M582.69,-241.17C645.02,-236.74 750.37,-225.71 837,-199 891.32,-182.25 915.39,-186.49 952,-143 965.66,-126.78 970.84,-102.48 972.81,-85.75"/>
<polygon fill="midnightblue" stroke="midnightblue" points="976.31,-85.84 973.72,-75.57 969.34,-85.22 976.31,-85.84"/>
</g>
<!-- Node9 -->
<g id="node9" class="node">
<title>Node9</title>
<g id="a_node9"><a xlink:href="gamechange_8hpp.html" target="_top" xlink:title=" ">
<polygon fill="white" stroke="black" points="109.5,-118 109.5,-137 210.5,-137 210.5,-118 109.5,-118"/>
<text text-anchor="middle" x="160" y="-125" font-family="Helvetica,sans-Serif" font-size="10.00">gamechange.hpp</text>
</a>
</g>
</g>
<!-- Node1&#45;&gt;Node9 -->
<g id="edge9" class="edge">
<title>Node1&#45;&gt;Node9</title>
<path fill="none" stroke="midnightblue" d="M475.22,-241.44C396.46,-236.86 254.39,-225.16 211,-199 190.64,-186.73 176.05,-162.91 167.82,-146.37"/>
<polygon fill="midnightblue" stroke="midnightblue" points="170.93,-144.76 163.52,-137.19 164.59,-147.73 170.93,-144.76"/>
</g>
<!-- Node15 -->
<g id="node15" class="node">
<title>Node15</title>
<g id="a_node15"><a xlink:href="gamestate_8hpp.html" target="_top" xlink:title=" ">
<polygon fill="white" stroke="black" points="220,-179.5 220,-198.5 310,-198.5 310,-179.5 220,-179.5"/>
<text text-anchor="middle" x="265" y="-186.5" font-family="Helvetica,sans-Serif" font-size="10.00">gamestate.hpp</text>
</a>
</g>
</g>
<!-- Node1&#45;&gt;Node15 -->
<g id="edge21" class="edge">
<title>Node1&#45;&gt;Node15</title>
<path fill="none" stroke="midnightblue" d="M487.17,-235.44C440.92,-225.98 366.39,-210.74 316.56,-200.55"/>
<polygon fill="midnightblue" stroke="midnightblue" points="317.13,-197.09 306.64,-198.52 315.73,-203.95 317.13,-197.09"/>
</g>
<!-- Node18 -->
<g id="node18" class="node">
<title>Node18</title>
<g id="a_node18"><a xlink:href="network_8hpp.html" target="_top" xlink:title=" ">
<polygon fill="white" stroke="black" points="750.5,-179.5 750.5,-198.5 827.5,-198.5 827.5,-179.5 750.5,-179.5"/>
<text text-anchor="middle" x="789" y="-186.5" font-family="Helvetica,sans-Serif" font-size="10.00">network.hpp</text>
</a>
</g>
</g>
<!-- Node1&#45;&gt;Node18 -->
<g id="edge31" class="edge">
<title>Node1&#45;&gt;Node18</title>
<path fill="none" stroke="midnightblue" d="M570.2,-235.44C616.32,-225.86 691,-210.35 740.06,-200.16"/>
<polygon fill="midnightblue" stroke="midnightblue" points="741.04,-203.54 750.12,-198.08 739.62,-196.68 741.04,-203.54"/>
</g>
<!-- Node21 -->
<g id="node21" class="node">
<title>Node21</title>
<g id="a_node21"><a xlink:title=" ">
<polygon fill="white" stroke="#bfbfbf" points="552,-56.5 552,-75.5 704,-75.5 704,-56.5 552,-56.5"/>
<text text-anchor="middle" x="628" y="-63.5" font-family="Helvetica,sans-Serif" font-size="10.00">nlohmann/json&#45;schema.hpp</text>
</a>
</g>
</g>
<!-- Node1&#45;&gt;Node21 -->
<g id="edge46" class="edge">
<title>Node1&#45;&gt;Node21</title>
<path fill="none" stroke="midnightblue" d="M527.81,-235.36C525.17,-212.84 521.04,-151.35 548,-112 558.14,-97.19 574.85,-86.71 590.37,-79.6"/>
<polygon fill="midnightblue" stroke="midnightblue" points="591.97,-82.73 599.82,-75.61 589.25,-76.28 591.97,-82.73"/>
</g>
<!-- Node22 -->
<g id="node22" class="node">
<title>Node22</title>
<g id="a_node22"><a xlink:href="newgamepoll_8hpp.html" target="_top" xlink:title=" ">
<polygon fill="white" stroke="black" points="1045,-118 1045,-137 1149,-137 1149,-118 1045,-118"/>
<text text-anchor="middle" x="1097" y="-125" font-family="Helvetica,sans-Serif" font-size="10.00">newgamepoll.hpp</text>
</a>
</g>
</g>
<!-- Node1&#45;&gt;Node22 -->
<g id="edge39" class="edge">
<title>Node1&#45;&gt;Node22</title>
<path fill="none" stroke="midnightblue" d="M582.74,-242.5C689.97,-238.93 926.63,-227.94 1002,-199 1033.59,-186.87 1063.87,-161.15 1081.44,-144.36"/>
<polygon fill="midnightblue" stroke="midnightblue" points="1083.89,-146.86 1088.58,-137.35 1078.99,-141.86 1083.89,-146.86"/>
</g>
<!-- Node5&#45;&gt;Node4 -->
<g id="edge8" class="edge">
<title>Node5&#45;&gt;Node4</title>
<path fill="none" stroke="midnightblue" d="M939.65,-61.16C859.77,-52.23 660.41,-29.94 556.43,-18.32"/>
<polygon fill="midnightblue" stroke="midnightblue" points="556.7,-14.82 546.37,-17.19 555.92,-21.78 556.7,-14.82"/>
</g>
<!-- Node6 -->
<g id="node6" class="node">
<title>Node6</title>
<g id="a_node6"><a xlink:title=" ">
<polygon fill="white" stroke="#bfbfbf" points="1048,-0.5 1048,-19.5 1092,-19.5 1092,-0.5 1048,-0.5"/>
<text text-anchor="middle" x="1070" y="-7.5" font-family="Helvetica,sans-Serif" font-size="10.00">string</text>
</a>
</g>
</g>
<!-- Node5&#45;&gt;Node6 -->
<g id="edge5" class="edge">
<title>Node5&#45;&gt;Node6</title>
<path fill="none" stroke="midnightblue" d="M989.42,-56.32C1004.54,-47.82 1027.82,-34.73 1045.47,-24.8"/>
<polygon fill="midnightblue" stroke="midnightblue" points="1047.61,-27.61 1054.61,-19.65 1044.18,-21.51 1047.61,-27.61"/>
</g>
<!-- Node7 -->
<g id="node7" class="node">
<title>Node7</title>
<g id="a_node7"><a xlink:title=" ">
<polygon fill="white" stroke="#bfbfbf" points="970,-0.5 970,-19.5 1030,-19.5 1030,-0.5 970,-0.5"/>
<text text-anchor="middle" x="1000" y="-7.5" font-family="Helvetica,sans-Serif" font-size="10.00">iostream</text>
</a>
</g>
</g>
<!-- Node5&#45;&gt;Node7 -->
<g id="edge6" class="edge">
<title>Node5&#45;&gt;Node7</title>
<path fill="none" stroke="midnightblue" d="M978.29,-56.08C981.85,-48.69 987.02,-37.95 991.42,-28.81"/>
<polygon fill="midnightblue" stroke="midnightblue" points="994.6,-30.28 995.79,-19.75 988.29,-27.24 994.6,-30.28"/>
</g>
<!-- Node8 -->
<g id="node8" class="node">
<title>Node8</title>
<g id="a_node8"><a xlink:title=" ">
<polygon fill="white" stroke="#bfbfbf" points="818,-0.5 818,-19.5 952,-19.5 952,-0.5 818,-0.5"/>
<text text-anchor="middle" x="885" y="-7.5" font-family="Helvetica,sans-Serif" font-size="10.00">websocketpp/server.hpp</text>
</a>
</g>
</g>
<!-- Node5&#45;&gt;Node8 -->
<g id="edge7" class="edge">
<title>Node5&#45;&gt;Node8</title>
<path fill="none" stroke="midnightblue" d="M959.7,-56.32C945.82,-47.9 924.51,-34.97 908.2,-25.07"/>
<polygon fill="midnightblue" stroke="midnightblue" points="909.63,-21.85 899.26,-19.65 906,-27.83 909.63,-21.85"/>
</g>
<!-- Node9&#45;&gt;Node5 -->
<g id="edge10" class="edge">
<title>Node9&#45;&gt;Node5</title>
<path fill="none" stroke="midnightblue" d="M210.51,-118.2C225.74,-115.92 242.52,-113.63 258,-112 511.19,-85.36 816.54,-72.57 929.33,-68.5"/>
<polygon fill="midnightblue" stroke="midnightblue" points="929.76,-71.99 939.63,-68.13 929.52,-64.99 929.76,-71.99"/>
</g>
<!-- Node10 -->
<g id="node10" class="node">
<title>Node10</title>
<g id="a_node10"><a xlink:href="field_8hpp.html" target="_top" xlink:title=" ">
<polygon fill="white" stroke="black" points="110.5,-56.5 110.5,-75.5 169.5,-75.5 169.5,-56.5 110.5,-56.5"/>
<text text-anchor="middle" x="140" y="-63.5" font-family="Helvetica,sans-Serif" font-size="10.00">field.hpp</text>
</a>
</g>
</g>
<!-- Node9&#45;&gt;Node10 -->
<g id="edge11" class="edge">
<title>Node9&#45;&gt;Node10</title>
<path fill="none" stroke="midnightblue" d="M157.13,-117.98C154.28,-109.49 149.82,-96.2 146.16,-85.32"/>
<polygon fill="midnightblue" stroke="midnightblue" points="149.36,-83.87 142.86,-75.51 142.73,-86.1 149.36,-83.87"/>
</g>
<!-- Node12 -->
<g id="node12" class="node">
<title>Node12</title>
<g id="a_node12"><a xlink:href="dot_8hpp.html" target="_top" xlink:title=" ">
<polygon fill="white" stroke="black" points="205.5,-56.5 205.5,-75.5 258.5,-75.5 258.5,-56.5 205.5,-56.5"/>
<text text-anchor="middle" x="232" y="-63.5" font-family="Helvetica,sans-Serif" font-size="10.00">dot.hpp</text>
</a>
</g>
</g>
<!-- Node9&#45;&gt;Node12 -->
<g id="edge15" class="edge">
<title>Node9&#45;&gt;Node12</title>
<path fill="none" stroke="midnightblue" d="M170.32,-117.98C181.65,-108.61 200.07,-93.38 213.84,-82.01"/>
<polygon fill="midnightblue" stroke="midnightblue" points="216.22,-84.58 221.7,-75.51 211.77,-79.18 216.22,-84.58"/>
</g>
<!-- Node10&#45;&gt;Node3 -->
<g id="edge14" class="edge">
<title>Node10&#45;&gt;Node3</title>
<path fill="none" stroke="midnightblue" d="M122.17,-56.32C104.28,-47.62 76.52,-34.12 55.95,-24.11"/>
<polygon fill="midnightblue" stroke="midnightblue" points="57.31,-20.88 46.79,-19.65 54.25,-27.18 57.31,-20.88"/>
</g>
<!-- Node10&#45;&gt;Node4 -->
<g id="edge13" class="edge">
<title>Node10&#45;&gt;Node4</title>
<path fill="none" stroke="midnightblue" d="M169.64,-60.19C178.15,-58.82 187.44,-57.34 196,-56 274.99,-43.63 365.95,-29.82 425.74,-20.8"/>
<polygon fill="midnightblue" stroke="midnightblue" points="426.43,-24.24 435.79,-19.29 425.38,-17.32 426.43,-24.24"/>
</g>
<!-- Node11 -->
<g id="node11" class="node">
<title>Node11</title>
<g id="a_node11"><a xlink:href="position__type_8hpp.html" target="_top" xlink:title=" ">
<polygon fill="white" stroke="black" points="88,-0.5 88,-19.5 192,-19.5 192,-0.5 88,-0.5"/>
<text text-anchor="middle" x="140" y="-7.5" font-family="Helvetica,sans-Serif" font-size="10.00">position_type.hpp</text>
</a>
</g>
</g>
<!-- Node10&#45;&gt;Node11 -->
<g id="edge12" class="edge">
<title>Node10&#45;&gt;Node11</title>
<path fill="none" stroke="midnightblue" d="M140,-56.08C140,-49.01 140,-38.86 140,-29.99"/>
<polygon fill="midnightblue" stroke="midnightblue" points="143.5,-29.75 140,-19.75 136.5,-29.75 143.5,-29.75"/>
</g>
<!-- Node12&#45;&gt;Node3 -->
<g id="edge19" class="edge">
<title>Node12&#45;&gt;Node3</title>
<path fill="none" stroke="midnightblue" d="M205.46,-57.94C170.39,-48.61 108.34,-32.1 67.95,-21.36"/>
<polygon fill="midnightblue" stroke="midnightblue" points="68.74,-17.95 58.17,-18.76 66.94,-24.71 68.74,-17.95"/>
</g>
<!-- Node12&#45;&gt;Node4 -->
<g id="edge20" class="edge">
<title>Node12&#45;&gt;Node4</title>
<path fill="none" stroke="midnightblue" d="M258.74,-59.42C301.45,-50.52 385.77,-32.94 440.2,-21.59"/>
<polygon fill="midnightblue" stroke="midnightblue" points="440.93,-25.02 450,-19.55 439.5,-18.16 440.93,-25.02"/>
</g>
<!-- Node12&#45;&gt;Node11 -->
<g id="edge16" class="edge">
<title>Node12&#45;&gt;Node11</title>
<path fill="none" stroke="midnightblue" d="M217.22,-56.32C202.73,-47.82 180.43,-34.73 163.51,-24.8"/>
<polygon fill="midnightblue" stroke="midnightblue" points="165.14,-21.7 154.74,-19.65 161.6,-27.74 165.14,-21.7"/>
</g>
<!-- Node13 -->
<g id="node13" class="node">
<title>Node13</title>
<g id="a_node13"><a xlink:title=" ">
<polygon fill="white" stroke="#bfbfbf" points="216,-0.5 216,-19.5 248,-19.5 248,-0.5 216,-0.5"/>
<text text-anchor="middle" x="232" y="-7.5" font-family="Helvetica,sans-Serif" font-size="10.00">set</text>
</a>
</g>
</g>
<!-- Node12&#45;&gt;Node13 -->
<g id="edge17" class="edge">
<title>Node12&#45;&gt;Node13</title>
<path fill="none" stroke="midnightblue" d="M232,-56.08C232,-49.01 232,-38.86 232,-29.99"/>
<polygon fill="midnightblue" stroke="midnightblue" points="235.5,-29.75 232,-19.75 228.5,-29.75 235.5,-29.75"/>
</g>
<!-- Node14 -->
<g id="node14" class="node">
<title>Node14</title>
<g id="a_node14"><a xlink:title=" ">
<polygon fill="white" stroke="#bfbfbf" points="323,-0.5 323,-19.5 361,-19.5 361,-0.5 323,-0.5"/>
<text text-anchor="middle" x="342" y="-7.5" font-family="Helvetica,sans-Serif" font-size="10.00">map</text>
</a>
</g>
</g>
<!-- Node12&#45;&gt;Node14 -->
<g id="edge18" class="edge">
<title>Node12&#45;&gt;Node14</title>
<path fill="none" stroke="midnightblue" d="M249.67,-56.32C267.39,-47.62 294.9,-34.12 315.29,-24.11"/>
<polygon fill="midnightblue" stroke="midnightblue" points="316.94,-27.2 324.37,-19.65 313.85,-20.92 316.94,-27.2"/>
</g>
<!-- Node15&#45;&gt;Node3 -->
<g id="edge24" class="edge">
<title>Node15&#45;&gt;Node3</title>
<path fill="none" stroke="midnightblue" d="M219.71,-187.74C179.64,-185.18 121.82,-175.5 84,-143 49.42,-113.29 36.15,-58.29 31.41,-29.56"/>
<polygon fill="midnightblue" stroke="midnightblue" points="34.87,-29.01 29.94,-19.63 27.94,-30.04 34.87,-29.01"/>
</g>
<!-- Node15&#45;&gt;Node4 -->
<g id="edge29" class="edge">
<title>Node15&#45;&gt;Node4</title>
<path fill="none" stroke="midnightblue" d="M310.08,-183.38C342.2,-178.12 384.84,-166.89 415,-143 453.06,-112.85 475.62,-58.04 485.34,-29.46"/>
<polygon fill="midnightblue" stroke="midnightblue" points="488.79,-30.17 488.53,-19.58 482.13,-28.02 488.79,-30.17"/>
</g>
<!-- Node15&#45;&gt;Node9 -->
<g id="edge30" class="edge">
<title>Node15&#45;&gt;Node9</title>
<path fill="none" stroke="midnightblue" d="M249.96,-179.48C232.72,-169.71 204.26,-153.58 183.97,-142.08"/>
<polygon fill="midnightblue" stroke="midnightblue" points="185.44,-138.89 175.02,-137.01 181.99,-144.98 185.44,-138.89"/>
</g>
<!-- Node15&#45;&gt;Node10 -->
<g id="edge26" class="edge">
<title>Node15&#45;&gt;Node10</title>
<path fill="none" stroke="midnightblue" d="M219.69,-181.86C176.03,-174.9 114.51,-162 100,-143 85.38,-123.86 105.14,-98.61 121.72,-82.58"/>
<polygon fill="midnightblue" stroke="midnightblue" points="124.42,-84.86 129.43,-75.52 119.69,-79.69 124.42,-84.86"/>
</g>
<!-- Node15&#45;&gt;Node11 -->
<g id="edge28" class="edge">
<title>Node15&#45;&gt;Node11</title>
<path fill="none" stroke="midnightblue" d="M219.8,-182.58C173.67,-176.01 106.66,-163.23 91,-143 80.22,-129.07 96.96,-64.45 101,-56 106.21,-45.08 114.81,-34.75 122.6,-26.74"/>
<polygon fill="midnightblue" stroke="midnightblue" points="125.24,-29.05 129.98,-19.57 120.37,-24.03 125.24,-29.05"/>
</g>
<!-- Node15&#45;&gt;Node12 -->
<g id="edge27" class="edge">
<title>Node15&#45;&gt;Node12</title>
<path fill="none" stroke="midnightblue" d="M262.63,-179.3C257.3,-159.76 244.29,-112.06 237.06,-85.55"/>
<polygon fill="midnightblue" stroke="midnightblue" points="240.36,-84.35 234.35,-75.62 233.61,-86.19 240.36,-84.35"/>
</g>
<!-- Node15&#45;&gt;Node14 -->
<g id="edge23" class="edge">
<title>Node15&#45;&gt;Node14</title>
<path fill="none" stroke="midnightblue" d="M310.23,-185.39C339.89,-181.06 376.65,-170.11 396,-143 422.61,-105.72 382.57,-53.4 358.31,-27.23"/>
<polygon fill="midnightblue" stroke="midnightblue" points="360.54,-24.5 351.09,-19.71 355.49,-29.35 360.54,-24.5"/>
</g>
<!-- Node16 -->
<g id="node16" class="node">
<title>Node16</title>
<g id="a_node16"><a xlink:title=" ">
<polygon fill="white" stroke="#bfbfbf" points="267.5,-118 267.5,-137 314.5,-137 314.5,-118 267.5,-118"/>
<text text-anchor="middle" x="291" y="-125" font-family="Helvetica,sans-Serif" font-size="10.00">vector</text>
</a>
</g>
</g>
<!-- Node15&#45;&gt;Node16 -->
<g id="edge22" class="edge">
<title>Node15&#45;&gt;Node16</title>
<path fill="none" stroke="midnightblue" d="M268.73,-179.48C272.47,-170.9 278.36,-157.43 283.14,-146.48"/>
<polygon fill="midnightblue" stroke="midnightblue" points="286.48,-147.57 287.28,-137.01 280.07,-144.77 286.48,-147.57"/>
</g>
<!-- Node17 -->
<g id="node17" class="node">
<title>Node17</title>
<g id="a_node17"><a xlink:title=" ">
<polygon fill="white" stroke="#bfbfbf" points="333,-118 333,-137 387,-137 387,-118 333,-118"/>
<text text-anchor="middle" x="360" y="-125" font-family="Helvetica,sans-Serif" font-size="10.00">random</text>
</a>
</g>
</g>
<!-- Node15&#45;&gt;Node17 -->
<g id="edge25" class="edge">
<title>Node15&#45;&gt;Node17</title>
<path fill="none" stroke="midnightblue" d="M278.61,-179.48C294.06,-169.8 319.49,-153.87 337.82,-142.39"/>
<polygon fill="midnightblue" stroke="midnightblue" points="339.8,-145.28 346.41,-137.01 336.08,-139.35 339.8,-145.28"/>
</g>
<!-- Node18&#45;&gt;Node2 -->
<g id="edge38" class="edge">
<title>Node18&#45;&gt;Node2</title>
<path fill="none" stroke="midnightblue" d="M750.3,-182.32C710.98,-175.76 648.81,-163.2 598,-143 597.12,-142.65 596.24,-142.28 595.36,-141.88"/>
<polygon fill="midnightblue" stroke="midnightblue" points="596.61,-138.59 586.13,-137.08 593.39,-144.8 596.61,-138.59"/>
</g>
<!-- Node18&#45;&gt;Node4 -->
<g id="edge32" class="edge">
<title>Node18&#45;&gt;Node4</title>
<path fill="none" stroke="midnightblue" d="M811.46,-179.38C826.77,-172.18 845.86,-160.29 855,-143 861.44,-130.82 862.75,-123.39 855,-112 821.45,-62.7 651.85,-32.47 556.44,-19.1"/>
<polygon fill="midnightblue" stroke="midnightblue" points="556.7,-15.6 546.32,-17.7 555.75,-22.54 556.7,-15.6"/>
</g>
<!-- Node18&#45;&gt;Node5 -->
<g id="edge35" class="edge">
<title>Node18&#45;&gt;Node5</title>
<path fill="none" stroke="midnightblue" d="M827.79,-182.55C857.23,-176.8 897.38,-165.33 926,-143 945.46,-127.82 959.2,-102.38 966.86,-85.16"/>
<polygon fill="midnightblue" stroke="midnightblue" points="970.2,-86.24 970.83,-75.67 963.74,-83.54 970.2,-86.24"/>
</g>
<!-- Node18&#45;&gt;Node8 -->
<g id="edge34" class="edge">
<title>Node18&#45;&gt;Node8</title>
<path fill="none" stroke="midnightblue" d="M827.68,-181.02C849.39,-174.92 874.71,-163.64 888,-143 910.47,-108.11 899.66,-56.54 891.4,-29.34"/>
<polygon fill="midnightblue" stroke="midnightblue" points="894.65,-28.02 888.22,-19.6 887.99,-30.19 894.65,-28.02"/>
</g>
<!-- Node19 -->
<g id="node19" class="node">
<title>Node19</title>
<g id="a_node19"><a xlink:title=" ">
<polygon fill="white" stroke="#bfbfbf" points="732.5,-112.5 732.5,-142.5 845.5,-142.5 845.5,-112.5 732.5,-112.5"/>
<text text-anchor="start" x="740.5" y="-130.5" font-family="Helvetica,sans-Serif" font-size="10.00">websocketpp/config</text>
<text text-anchor="middle" x="789" y="-119.5" font-family="Helvetica,sans-Serif" font-size="10.00">/asio_no_tls.hpp</text>
</a>
</g>
</g>
<!-- Node18&#45;&gt;Node19 -->
<g id="edge33" class="edge">
<title>Node18&#45;&gt;Node19</title>
<path fill="none" stroke="midnightblue" d="M789,-179.48C789,-172.47 789,-162.19 789,-152.7"/>
<polygon fill="midnightblue" stroke="midnightblue" points="792.5,-152.52 789,-142.52 785.5,-152.52 792.5,-152.52"/>
</g>
<!-- Node20 -->
<g id="node20" class="node">
<title>Node20</title>
<g id="a_node20"><a xlink:href="json__schemas_8hpp.html" target="_top" xlink:title=" ">
<polygon fill="white" stroke="black" points="607.5,-118 607.5,-137 714.5,-137 714.5,-118 607.5,-118"/>
<text text-anchor="middle" x="661" y="-125" font-family="Helvetica,sans-Serif" font-size="10.00">json_schemas.hpp</text>
</a>
</g>
</g>
<!-- Node18&#45;&gt;Node20 -->
<g id="edge36" class="edge">
<title>Node18&#45;&gt;Node20</title>
<path fill="none" stroke="midnightblue" d="M770.66,-179.48C749.18,-169.49 713.38,-152.85 688.55,-141.31"/>
<polygon fill="midnightblue" stroke="midnightblue" points="689.85,-138.05 679.31,-137.01 686.9,-144.4 689.85,-138.05"/>
</g>
<!-- Node20&#45;&gt;Node21 -->
<g id="edge37" class="edge">
<title>Node20&#45;&gt;Node21</title>
<path fill="none" stroke="midnightblue" d="M656.27,-117.98C651.42,-109.23 643.73,-95.37 637.6,-84.31"/>
<polygon fill="midnightblue" stroke="midnightblue" points="640.63,-82.56 632.72,-75.51 634.51,-85.95 640.63,-82.56"/>
</g>
<!-- Node22&#45;&gt;Node4 -->
<g id="edge45" class="edge">
<title>Node22&#45;&gt;Node4</title>
<path fill="none" stroke="midnightblue" d="M1090.24,-117.61C1077.74,-101.96 1049.34,-69.82 1017,-56 935.72,-21.27 678.33,-13.33 556.34,-11.52"/>
<polygon fill="midnightblue" stroke="midnightblue" points="556.08,-8.02 546.03,-11.38 555.98,-15.02 556.08,-8.02"/>
</g>
<!-- Node22&#45;&gt;Node5 -->
<g id="edge40" class="edge">
<title>Node22&#45;&gt;Node5</title>
<path fill="none" stroke="midnightblue" d="M1079.38,-117.98C1058.83,-108.03 1024.64,-91.49 1000.79,-79.96"/>
<polygon fill="midnightblue" stroke="midnightblue" points="1002.12,-76.71 991.59,-75.51 999.07,-83.01 1002.12,-76.71"/>
</g>
<!-- Node23 -->
<g id="node23" class="node">
<title>Node23</title>
<g id="a_node23"><a xlink:title=" ">
<polygon fill="white" stroke="#bfbfbf" points="1148,-56.5 1148,-75.5 1196,-75.5 1196,-56.5 1148,-56.5"/>
<text text-anchor="middle" x="1172" y="-63.5" font-family="Helvetica,sans-Serif" font-size="10.00">thread</text>
</a>
</g>
</g>
<!-- Node22&#45;&gt;Node23 -->
<g id="edge41" class="edge">
<title>Node22&#45;&gt;Node23</title>
<path fill="none" stroke="midnightblue" d="M1107.75,-117.98C1119.55,-108.61 1138.74,-93.38 1153.08,-82.01"/>
<polygon fill="midnightblue" stroke="midnightblue" points="1155.62,-84.47 1161.27,-75.51 1151.26,-78.98 1155.62,-84.47"/>
</g>
<!-- Node24 -->
<g id="node24" class="node">
<title>Node24</title>
<g id="a_node24"><a xlink:title=" ">
<polygon fill="white" stroke="#bfbfbf" points="1214,-56.5 1214,-75.5 1262,-75.5 1262,-56.5 1214,-56.5"/>
<text text-anchor="middle" x="1238" y="-63.5" font-family="Helvetica,sans-Serif" font-size="10.00">mutex</text>
</a>
</g>
</g>
<!-- Node22&#45;&gt;Node24 -->
<g id="edge42" class="edge">
<title>Node22&#45;&gt;Node24</title>
<path fill="none" stroke="midnightblue" d="M1117.2,-117.98C1141.07,-107.9 1181,-91.05 1208.37,-79.5"/>
<polygon fill="midnightblue" stroke="midnightblue" points="1209.98,-82.62 1217.84,-75.51 1207.26,-76.17 1209.98,-82.62"/>
</g>
<!-- Node25 -->
<g id="node25" class="node">
<title>Node25</title>
<g id="a_node25"><a xlink:title=" ">
<polygon fill="white" stroke="#bfbfbf" points="1280,-56.5 1280,-75.5 1366,-75.5 1366,-56.5 1280,-56.5"/>
<text text-anchor="middle" x="1323" y="-63.5" font-family="Helvetica,sans-Serif" font-size="10.00">unordered_set</text>
</a>
</g>
</g>
<!-- Node22&#45;&gt;Node25 -->
<g id="edge43" class="edge">
<title>Node22&#45;&gt;Node25</title>
<path fill="none" stroke="midnightblue" d="M1129.38,-117.98C1169.24,-107.48 1237.02,-89.64 1280.89,-78.09"/>
<polygon fill="midnightblue" stroke="midnightblue" points="1281.9,-81.44 1290.68,-75.51 1280.12,-74.67 1281.9,-81.44"/>
</g>
<!-- Node26 -->
<g id="node26" class="node">
<title>Node26</title>
<g id="a_node26"><a xlink:title=" ">
<polygon fill="white" stroke="#bfbfbf" points="1064.5,-56.5 1064.5,-75.5 1129.5,-75.5 1129.5,-56.5 1064.5,-56.5"/>
<text text-anchor="middle" x="1097" y="-63.5" font-family="Helvetica,sans-Serif" font-size="10.00">functional</text>
</a>
</g>
</g>
<!-- Node22&#45;&gt;Node26 -->
<g id="edge44" class="edge">
<title>Node22&#45;&gt;Node26</title>
<path fill="none" stroke="midnightblue" d="M1097,-117.98C1097,-109.58 1097,-96.48 1097,-85.66"/>
<polygon fill="midnightblue" stroke="midnightblue" points="1100.5,-85.51 1097,-75.51 1093.5,-85.51 1100.5,-85.51"/>
</g>
</g>
</svg>
        <g id="navigator" transform="translate(0 0)" fill="#404254">
                <rect fill="#f2f5e9" fill-opacity="0.5" stroke="#606060" stroke-width=".5" x="0" y="0" width="60" height="60"/>
                <use id="zoomplus" xlink:href="#zoomPlus" x="17" y="9" onmousedown="handleZoom(evt,'in')"/>
                <use id="zoomminus" xlink:href="#zoomMin" x="42" y="9" onmousedown="handleZoom(evt,'out')"/>
                <use id="reset" xlink:href="#resetDef" x="30" y="36" onmousedown="handleReset()"/>
                <g id="arrowUp" xlink:href="#dirArrow" transform="translate(30 24)" onmousedown="handlePan(0,-1)">
                  <use xlink:href="#rim" fill="#404040">
                        <set attributeName="fill" to="#808080" begin="arrowUp.mouseover" end="arrowUp.mouseout"/>
                  </use>
                  <path fill="none" stroke="white" stroke-width="1.5" d="M0,-3.0v7 M-2.5,-0.5L0,-3.0L2.5,-0.5"/>
                </g>
                <g id="arrowRight" xlink:href="#dirArrow" transform="rotate(90) translate(36 -43)" onmousedown="handlePan(1,0)">
                  <use xlink:href="#rim" fill="#404040">
                        <set attributeName="fill" to="#808080" begin="arrowRight.mouseover" end="arrowRight.mouseout"/>
                  </use>
                  <path fill="none" stroke="white" stroke-width="1.5" d="M0,-3.0v7 M-2.5,-0.5L0,-3.0L2.5,-0.5"/>
                </g>
                <g id="arrowDown" xlink:href="#dirArrow" transform="rotate(180) translate(-30 -48)" onmousedown="handlePan(0,1)">
                  <use xlink:href="#rim" fill="#404040">
                        <set attributeName="fill" to="#808080" begin="arrowDown.mouseover" end="arrowDown.mouseout"/>
                  </use>
                  <path fill="none" stroke="white" stroke-width="1.5" d="M0,-3.0v7 M-2.5,-0.5L0,-3.0L2.5,-0.5"/>
                </g>
                <g id="arrowLeft" xlink:href="#dirArrow" transform="rotate(270) translate(-36 17)" onmousedown="handlePan(-1,0)">
                  <use xlink:href="#rim" fill="#404040">
                        <set attributeName="fill" to="#808080" begin="arrowLeft.mouseover" end="arrowLeft.mouseout"/>
                  </use>
                  <path fill="none" stroke="white" stroke-width="1.5" d="M0,-3.0v7 M-2.5,-0.5L0,-3.0L2.5,-0.5"/>
                </g>
        </g>
        <svg viewBox="0 0 15 15" width="100%" height="30px" preserveAspectRatio="xMaxYMin meet">
         <g id="arrow_out" transform="scale(0.3 0.3)">
          <a xlink:href="galaxy_8hpp__incl_org.svg" target="_base">
           <rect id="button" ry="5" rx="5" y="6" x="6" height="38" width="38"
                fill="#f2f5e9" fill-opacity="0.5" stroke="#606060" stroke-width="1.0"/>
           <path id="arrow"
             d="M 11.500037,31.436501 C 11.940474,20.09759 22.043105,11.32322 32.158766,21.979434 L 37.068811,17.246167 C 37.068811,17.246167 37.088388,32 37.088388,32 L 22.160133,31.978069 C 22.160133,31.978069 26.997745,27.140456 26.997745,27.140456 C 18.528582,18.264221 13.291696,25.230495 11.500037,31.436501 z"
             style="fill:#404040;"/>
          </a>
         </g>
        </svg>
</svg>
