<?xml version="1.0" encoding="UTF-8" standalone="no"?>
<!DOCTYPE svg PUBLIC "-//W3C//DTD SVG 1.1//EN"
 "http://www.w3.org/Graphics/SVG/1.1/DTD/svg11.dtd">
<!-- Generated by graphviz version 2.43.0 (0)
 -->
<!-- Title: src/galaxy.cpp Pages: 1 -->
<svg width="1370pt" height="319pt"
 viewBox="0.00 0.00 1370.00 319.00" xmlns="http://www.w3.org/2000/svg" xmlns:xlink="http://www.w3.org/1999/xlink">
<g id="graph0" class="graph" transform="scale(1 1) rotate(0) translate(4 315)">
<title>src/galaxy.cpp</title>
<polygon fill="white" stroke="transparent" points="-4,4 -4,-315 1366,-315 1366,4 -4,4"/>
<!-- Node1 -->
<g id="node1" class="node">
<title>Node1</title>
<g id="a_node1"><a xlink:title=" ">
<polygon fill="#bfbfbf" stroke="black" points="896,-291.5 896,-310.5 982,-310.5 982,-291.5 896,-291.5"/>
<text text-anchor="middle" x="939" y="-298.5" font-family="Helvetica,sans-Serif" font-size="10.00">src/galaxy.cpp</text>
</a>
</g>
</g>
<!-- Node2 -->
<g id="node2" class="node">
<title>Node2</title>
<g id="a_node2"><a xlink:href="galaxy_8hpp.html" target="_top" xlink:title=" ">
<polygon fill="white" stroke="black" points="715.5,-235.5 715.5,-254.5 784.5,-254.5 784.5,-235.5 715.5,-235.5"/>
<text text-anchor="middle" x="750" y="-242.5" font-family="Helvetica,sans-Serif" font-size="10.00">galaxy.hpp</text>
</a>
</g>
</g>
<!-- Node1&#45;&gt;Node2 -->
<g id="edge1" class="edge">
<title>Node1&#45;&gt;Node2</title>
<path fill="none" stroke="midnightblue" d="M909.05,-291.44C876.84,-282.24 825.47,-267.56 789.86,-257.39"/>
<polygon fill="midnightblue" stroke="midnightblue" points="790.38,-253.9 779.81,-254.52 788.46,-260.63 790.38,-253.9"/>
</g>
<!-- Node4 -->
<g id="node4" class="node">
<title>Node4</title>
<g id="a_node4"><a xlink:title=" ">
<polygon fill="white" stroke="#bfbfbf" points="21,-0.5 21,-19.5 79,-19.5 79,-0.5 21,-0.5"/>
<text text-anchor="middle" x="50" y="-7.5" font-family="Helvetica,sans-Serif" font-size="10.00">memory</text>
</a>
</g>
</g>
<!-- Node1&#45;&gt;Node4 -->
<g id="edge49" class="edge">
<title>Node1&#45;&gt;Node4</title>
<path fill="none" stroke="midnightblue" d="M895.9,-299.55C711.72,-297.04 0,-281.45 0,-190 0,-190 0,-190 0,-126.5 0,-89 22.47,-49.88 37.28,-28.16"/>
<polygon fill="midnightblue" stroke="midnightblue" points="40.33,-29.9 43.26,-19.72 34.62,-25.86 40.33,-29.9"/>
</g>
<!-- Node19 -->
<g id="node19" class="node">
<title>Node19</title>
<g id="a_node19"><a xlink:href="network_8hpp.html" target="_top" xlink:title=" ">
<polygon fill="white" stroke="black" points="975.5,-179.5 975.5,-198.5 1052.5,-198.5 1052.5,-179.5 975.5,-179.5"/>
<text text-anchor="middle" x="1014" y="-186.5" font-family="Helvetica,sans-Serif" font-size="10.00">network.hpp</text>
</a>
</g>
</g>
<!-- Node1&#45;&gt;Node19 -->
<g id="edge48" class="edge">
<title>Node1&#45;&gt;Node19</title>
<path fill="none" stroke="midnightblue" d="M944.89,-291.37C957.26,-273.22 986.18,-230.8 1002.42,-206.99"/>
<polygon fill="midnightblue" stroke="midnightblue" points="1005.4,-208.83 1008.14,-198.59 999.62,-204.88 1005.4,-208.83"/>
</g>
<!-- Node21 -->
<g id="node21" class="node">
<title>Node21</title>
<g id="a_node21"><a xlink:href="json__schemas_8hpp.html" target="_top" xlink:title=" ">
<polygon fill="white" stroke="black" points="885.5,-118 885.5,-137 992.5,-137 992.5,-118 885.5,-118"/>
<text text-anchor="middle" x="939" y="-125" font-family="Helvetica,sans-Serif" font-size="10.00">json_schemas.hpp</text>
</a>
</g>
</g>
<!-- Node1&#45;&gt;Node21 -->
<g id="edge53" class="edge">
<title>Node1&#45;&gt;Node21</title>
<path fill="none" stroke="midnightblue" d="M939,-291.26C939,-264.65 939,-184.21 939,-147.34"/>
<polygon fill="midnightblue" stroke="midnightblue" points="942.5,-147.02 939,-137.02 935.5,-147.02 942.5,-147.02"/>
</g>
<!-- Node28 -->
<g id="node28" class="node">
<title>Node28</title>
<g id="a_node28"><a xlink:href="debug__functions_8hpp.html" target="_top" xlink:title=" ">
<polygon fill="white" stroke="black" points="1244,-56.5 1244,-75.5 1362,-75.5 1362,-56.5 1244,-56.5"/>
<text text-anchor="middle" x="1303" y="-63.5" font-family="Helvetica,sans-Serif" font-size="10.00">debug_functions.hpp</text>
</a>
</g>
</g>
<!-- Node1&#45;&gt;Node28 -->
<g id="edge50" class="edge">
<title>Node1&#45;&gt;Node28</title>
<path fill="none" stroke="midnightblue" d="M955.49,-291.38C998.22,-268.85 1115.53,-205.55 1207,-143 1235.45,-123.54 1266.38,-98.24 1285.23,-82.3"/>
<polygon fill="midnightblue" stroke="midnightblue" points="1287.64,-84.85 1292.99,-75.7 1283.11,-79.52 1287.64,-84.85"/>
</g>
<!-- Node3 -->
<g id="node3" class="node">
<title>Node3</title>
<g id="a_node3"><a xlink:title=" ">
<polygon fill="white" stroke="#bfbfbf" points="835,-118 835,-137 867,-137 867,-118 835,-118"/>
<text text-anchor="middle" x="851" y="-125" font-family="Helvetica,sans-Serif" font-size="10.00">list</text>
</a>
</g>
</g>
<!-- Node2&#45;&gt;Node3 -->
<g id="edge2" class="edge">
<title>Node2&#45;&gt;Node3</title>
<path fill="none" stroke="midnightblue" d="M770.1,-235.37C785.76,-227.76 807.11,-215.35 821,-199 833.89,-183.83 841.96,-162.3 846.44,-147.03"/>
<polygon fill="midnightblue" stroke="midnightblue" points="849.87,-147.77 849.09,-137.2 843.11,-145.95 849.87,-147.77"/>
</g>
<!-- Node2&#45;&gt;Node4 -->
<g id="edge3" class="edge">
<title>Node2&#45;&gt;Node4</title>
<path fill="none" stroke="midnightblue" d="M715.19,-242.62C613.21,-238.32 316.49,-223.96 223,-199 166.14,-183.82 145.77,-183.43 103,-143 70.35,-112.14 57.34,-58.47 52.54,-30"/>
<polygon fill="midnightblue" stroke="midnightblue" points="55.95,-29.16 51,-19.8 49.03,-30.21 55.95,-29.16"/>
</g>
<!-- Node5 -->
<g id="node5" class="node">
<title>Node5</title>
<g id="a_node5"><a xlink:title=" ">
<polygon fill="white" stroke="#bfbfbf" points="643,-0.5 643,-19.5 753,-19.5 753,-0.5 643,-0.5"/>
<text text-anchor="middle" x="698" y="-7.5" font-family="Helvetica,sans-Serif" font-size="10.00">nlohmann/json.hpp</text>
</a>
</g>
</g>
<!-- Node2&#45;&gt;Node5 -->
<g id="edge4" class="edge">
<title>Node2&#45;&gt;Node5</title>
<path fill="none" stroke="midnightblue" d="M748.09,-235.43C740.56,-201.68 712.83,-77.47 702.2,-29.8"/>
<polygon fill="midnightblue" stroke="midnightblue" points="705.58,-28.89 699.99,-19.9 698.75,-30.42 705.58,-28.89"/>
</g>
<!-- Node6 -->
<g id="node6" class="node">
<title>Node6</title>
<g id="a_node6"><a xlink:href="player_8hpp.html" target="_top" xlink:title=" ">
<polygon fill="white" stroke="black" points="764,-56.5 764,-75.5 832,-75.5 832,-56.5 764,-56.5"/>
<text text-anchor="middle" x="798" y="-63.5" font-family="Helvetica,sans-Serif" font-size="10.00">player.hpp</text>
</a>
</g>
</g>
<!-- Node2&#45;&gt;Node6 -->
<g id="edge5" class="edge">
<title>Node2&#45;&gt;Node6</title>
<path fill="none" stroke="midnightblue" d="M752.32,-235.46C759.68,-208.31 782.67,-123.51 792.95,-85.62"/>
<polygon fill="midnightblue" stroke="midnightblue" points="796.36,-86.44 795.6,-75.87 789.6,-84.6 796.36,-86.44"/>
</g>
<!-- Node10 -->
<g id="node10" class="node">
<title>Node10</title>
<g id="a_node10"><a xlink:href="gamechange_8hpp.html" target="_top" xlink:title=" ">
<polygon fill="white" stroke="black" points="394.5,-118 394.5,-137 495.5,-137 495.5,-118 394.5,-118"/>
<text text-anchor="middle" x="445" y="-125" font-family="Helvetica,sans-Serif" font-size="10.00">gamechange.hpp</text>
</a>
</g>
</g>
<!-- Node2&#45;&gt;Node10 -->
<g id="edge10" class="edge">
<title>Node2&#45;&gt;Node10</title>
<path fill="none" stroke="midnightblue" d="M727.08,-235.32C673.4,-214.99 539.44,-164.26 477.44,-140.78"/>
<polygon fill="midnightblue" stroke="midnightblue" points="478.37,-137.39 467.77,-137.12 475.89,-143.94 478.37,-137.39"/>
</g>
<!-- Node16 -->
<g id="node16" class="node">
<title>Node16</title>
<g id="a_node16"><a xlink:href="gamestate_8hpp.html" target="_top" xlink:title=" ">
<polygon fill="white" stroke="black" points="232,-179.5 232,-198.5 322,-198.5 322,-179.5 232,-179.5"/>
<text text-anchor="middle" x="277" y="-186.5" font-family="Helvetica,sans-Serif" font-size="10.00">gamestate.hpp</text>
</a>
</g>
</g>
<!-- Node2&#45;&gt;Node16 -->
<g id="edge22" class="edge">
<title>Node2&#45;&gt;Node16</title>
<path fill="none" stroke="midnightblue" d="M715.22,-240.03C633.93,-230.75 430.95,-207.58 332.41,-196.33"/>
<polygon fill="midnightblue" stroke="midnightblue" points="332.68,-192.83 322.35,-195.18 331.89,-199.79 332.68,-192.83"/>
</g>
<!-- Node2&#45;&gt;Node19 -->
<g id="edge32" class="edge">
<title>Node2&#45;&gt;Node19</title>
<path fill="none" stroke="midnightblue" d="M784.51,-236.94C830.64,-227.51 912.64,-210.73 965.11,-200"/>
<polygon fill="midnightblue" stroke="midnightblue" points="966.09,-203.37 975.19,-197.94 964.69,-196.51 966.09,-203.37"/>
</g>
<!-- Node22 -->
<g id="node22" class="node">
<title>Node22</title>
<g id="a_node22"><a xlink:title=" ">
<polygon fill="white" stroke="#bfbfbf" points="850,-56.5 850,-75.5 1002,-75.5 1002,-56.5 850,-56.5"/>
<text text-anchor="middle" x="926" y="-63.5" font-family="Helvetica,sans-Serif" font-size="10.00">nlohmann/json&#45;schema.hpp</text>
</a>
</g>
</g>
<!-- Node2&#45;&gt;Node22 -->
<g id="edge47" class="edge">
<title>Node2&#45;&gt;Node22</title>
<path fill="none" stroke="midnightblue" d="M755.76,-235.5C761.76,-226.54 771.34,-211.96 779,-199 801.36,-161.17 793.82,-141.93 826,-112 842.34,-96.8 864.68,-86.09 884.1,-78.94"/>
<polygon fill="midnightblue" stroke="midnightblue" points="885.35,-82.21 893.65,-75.62 883.05,-75.6 885.35,-82.21"/>
</g>
<!-- Node23 -->
<g id="node23" class="node">
<title>Node23</title>
<g id="a_node23"><a xlink:href="newgamepoll_8hpp.html" target="_top" xlink:title=" ">
<polygon fill="white" stroke="black" points="594,-118 594,-137 698,-137 698,-118 594,-118"/>
<text text-anchor="middle" x="646" y="-125" font-family="Helvetica,sans-Serif" font-size="10.00">newgamepoll.hpp</text>
</a>
</g>
</g>
<!-- Node2&#45;&gt;Node23 -->
<g id="edge40" class="edge">
<title>Node2&#45;&gt;Node23</title>
<path fill="none" stroke="midnightblue" d="M742.18,-235.32C724.87,-216.09 683.04,-169.64 660.68,-144.81"/>
<polygon fill="midnightblue" stroke="midnightblue" points="663.2,-142.37 653.91,-137.28 658,-147.06 663.2,-142.37"/>
</g>
<!-- Node6&#45;&gt;Node5 -->
<g id="edge9" class="edge">
<title>Node6&#45;&gt;Node5</title>
<path fill="none" stroke="midnightblue" d="M781.93,-56.32C766.04,-47.74 741.49,-34.49 723.04,-24.52"/>
<polygon fill="midnightblue" stroke="midnightblue" points="724.49,-21.33 714.03,-19.65 721.16,-27.49 724.49,-21.33"/>
</g>
<!-- Node7 -->
<g id="node7" class="node">
<title>Node7</title>
<g id="a_node7"><a xlink:title=" ">
<polygon fill="white" stroke="#bfbfbf" points="1235,-0.5 1235,-19.5 1279,-19.5 1279,-0.5 1235,-0.5"/>
<text text-anchor="middle" x="1257" y="-7.5" font-family="Helvetica,sans-Serif" font-size="10.00">string</text>
</a>
</g>
</g>
<!-- Node6&#45;&gt;Node7 -->
<g id="edge6" class="edge">
<title>Node6&#45;&gt;Node7</title>
<path fill="none" stroke="midnightblue" d="M832.21,-57.5C835.17,-56.96 838.14,-56.44 841,-56 996.4,-31.86 1036.89,-38.95 1193,-20 1203.33,-18.75 1214.58,-17.22 1224.73,-15.78"/>
<polygon fill="midnightblue" stroke="midnightblue" points="1225.41,-19.22 1234.81,-14.33 1224.42,-12.29 1225.41,-19.22"/>
</g>
<!-- Node8 -->
<g id="node8" class="node">
<title>Node8</title>
<g id="a_node8"><a xlink:title=" ">
<polygon fill="white" stroke="#bfbfbf" points="1124,-0.5 1124,-19.5 1184,-19.5 1184,-0.5 1124,-0.5"/>
<text text-anchor="middle" x="1154" y="-7.5" font-family="Helvetica,sans-Serif" font-size="10.00">iostream</text>
</a>
</g>
</g>
<!-- Node6&#45;&gt;Node8 -->
<g id="edge7" class="edge">
<title>Node6&#45;&gt;Node8</title>
<path fill="none" stroke="midnightblue" d="M832.23,-57.63C835.19,-57.06 838.15,-56.5 841,-56 938.41,-38.82 1053.76,-23.53 1113.53,-15.98"/>
<polygon fill="midnightblue" stroke="midnightblue" points="1114.2,-19.43 1123.68,-14.71 1113.32,-12.48 1114.2,-19.43"/>
</g>
<!-- Node9 -->
<g id="node9" class="node">
<title>Node9</title>
<g id="a_node9"><a xlink:title=" ">
<polygon fill="white" stroke="#bfbfbf" points="905,-0.5 905,-19.5 1039,-19.5 1039,-0.5 905,-0.5"/>
<text text-anchor="middle" x="972" y="-7.5" font-family="Helvetica,sans-Serif" font-size="10.00">websocketpp/server.hpp</text>
</a>
</g>
</g>
<!-- Node6&#45;&gt;Node9 -->
<g id="edge8" class="edge">
<title>Node6&#45;&gt;Node9</title>
<path fill="none" stroke="midnightblue" d="M825.57,-56.44C855.1,-47.28 902.12,-32.69 934.88,-22.52"/>
<polygon fill="midnightblue" stroke="midnightblue" points="936.04,-25.82 944.56,-19.52 933.97,-19.14 936.04,-25.82"/>
</g>
<!-- Node10&#45;&gt;Node6 -->
<g id="edge11" class="edge">
<title>Node10&#45;&gt;Node6</title>
<path fill="none" stroke="midnightblue" d="M495.58,-117.98C564.88,-106.29 688.24,-85.5 753.95,-74.42"/>
<polygon fill="midnightblue" stroke="midnightblue" points="754.71,-77.85 763.99,-72.73 753.54,-70.94 754.71,-77.85"/>
</g>
<!-- Node11 -->
<g id="node11" class="node">
<title>Node11</title>
<g id="a_node11"><a xlink:href="field_8hpp.html" target="_top" xlink:title=" ">
<polygon fill="white" stroke="black" points="252.5,-56.5 252.5,-75.5 311.5,-75.5 311.5,-56.5 252.5,-56.5"/>
<text text-anchor="middle" x="282" y="-63.5" font-family="Helvetica,sans-Serif" font-size="10.00">field.hpp</text>
</a>
</g>
</g>
<!-- Node10&#45;&gt;Node11 -->
<g id="edge12" class="edge">
<title>Node10&#45;&gt;Node11</title>
<path fill="none" stroke="midnightblue" d="M421.65,-117.98C393.69,-107.77 346.67,-90.61 315.01,-79.05"/>
<polygon fill="midnightblue" stroke="midnightblue" points="315.9,-75.65 305.31,-75.51 313.5,-82.23 315.9,-75.65"/>
</g>
<!-- Node13 -->
<g id="node13" class="node">
<title>Node13</title>
<g id="a_node13"><a xlink:href="dot_8hpp.html" target="_top" xlink:title=" ">
<polygon fill="white" stroke="black" points="142.5,-56.5 142.5,-75.5 195.5,-75.5 195.5,-56.5 142.5,-56.5"/>
<text text-anchor="middle" x="169" y="-63.5" font-family="Helvetica,sans-Serif" font-size="10.00">dot.hpp</text>
</a>
</g>
</g>
<!-- Node10&#45;&gt;Node13 -->
<g id="edge16" class="edge">
<title>Node10&#45;&gt;Node13</title>
<path fill="none" stroke="midnightblue" d="M405.46,-117.98C352.05,-106.46 257.58,-86.1 205.69,-74.91"/>
<polygon fill="midnightblue" stroke="midnightblue" points="206.11,-71.42 195.6,-72.73 204.63,-78.26 206.11,-71.42"/>
</g>
<!-- Node11&#45;&gt;Node4 -->
<g id="edge15" class="edge">
<title>Node11&#45;&gt;Node4</title>
<path fill="none" stroke="midnightblue" d="M252.41,-58.18C216.22,-49.83 152.82,-35.17 88.89,-20.2"/>
<polygon fill="midnightblue" stroke="midnightblue" points="89.58,-16.77 79.04,-17.89 87.98,-23.58 89.58,-16.77"/>
</g>
<!-- Node11&#45;&gt;Node5 -->
<g id="edge14" class="edge">
<title>Node11&#45;&gt;Node5</title>
<path fill="none" stroke="midnightblue" d="M311.76,-58.57C316.51,-57.64 321.38,-56.75 326,-56 433.02,-38.61 558.36,-24.79 632.81,-17.26"/>
<polygon fill="midnightblue" stroke="midnightblue" points="633.37,-20.72 642.97,-16.24 632.67,-13.76 633.37,-20.72"/>
</g>
<!-- Node12 -->
<g id="node12" class="node">
<title>Node12</title>
<g id="a_node12"><a xlink:href="position__type_8hpp.html" target="_top" xlink:title=" ">
<polygon fill="white" stroke="black" points="203,-0.5 203,-19.5 307,-19.5 307,-0.5 203,-0.5"/>
<text text-anchor="middle" x="255" y="-7.5" font-family="Helvetica,sans-Serif" font-size="10.00">position_type.hpp</text>
</a>
</g>
</g>
<!-- Node11&#45;&gt;Node12 -->
<g id="edge13" class="edge">
<title>Node11&#45;&gt;Node12</title>
<path fill="none" stroke="midnightblue" d="M277.54,-56.08C273.85,-48.69 268.48,-37.95 263.91,-28.81"/>
<polygon fill="midnightblue" stroke="midnightblue" points="266.98,-27.13 259.38,-19.75 260.72,-30.26 266.98,-27.13"/>
</g>
<!-- Node13&#45;&gt;Node4 -->
<g id="edge20" class="edge">
<title>Node13&#45;&gt;Node4</title>
<path fill="none" stroke="midnightblue" d="M150.14,-56.44C130.73,-47.64 100.27,-33.81 78.04,-23.72"/>
<polygon fill="midnightblue" stroke="midnightblue" points="79.32,-20.46 68.77,-19.52 76.43,-26.84 79.32,-20.46"/>
</g>
<!-- Node13&#45;&gt;Node5 -->
<g id="edge21" class="edge">
<title>Node13&#45;&gt;Node5</title>
<path fill="none" stroke="midnightblue" d="M195.7,-61.61C209.76,-59.86 227.31,-57.73 243,-56 381.7,-40.71 544.46,-25.2 632.84,-16.98"/>
<polygon fill="midnightblue" stroke="midnightblue" points="633.34,-20.45 642.98,-16.04 632.7,-13.48 633.34,-20.45"/>
</g>
<!-- Node13&#45;&gt;Node12 -->
<g id="edge17" class="edge">
<title>Node13&#45;&gt;Node12</title>
<path fill="none" stroke="midnightblue" d="M182.82,-56.32C196.23,-47.9 216.82,-34.97 232.59,-25.07"/>
<polygon fill="midnightblue" stroke="midnightblue" points="234.61,-27.94 241.22,-19.65 230.89,-22.01 234.61,-27.94"/>
</g>
<!-- Node14 -->
<g id="node14" class="node">
<title>Node14</title>
<g id="a_node14"><a xlink:title=" ">
<polygon fill="white" stroke="#bfbfbf" points="153,-0.5 153,-19.5 185,-19.5 185,-0.5 153,-0.5"/>
<text text-anchor="middle" x="169" y="-7.5" font-family="Helvetica,sans-Serif" font-size="10.00">set</text>
</a>
</g>
</g>
<!-- Node13&#45;&gt;Node14 -->
<g id="edge18" class="edge">
<title>Node13&#45;&gt;Node14</title>
<path fill="none" stroke="midnightblue" d="M169,-56.08C169,-49.01 169,-38.86 169,-29.99"/>
<polygon fill="midnightblue" stroke="midnightblue" points="172.5,-29.75 169,-19.75 165.5,-29.75 172.5,-29.75"/>
</g>
<!-- Node15 -->
<g id="node15" class="node">
<title>Node15</title>
<g id="a_node15"><a xlink:title=" ">
<polygon fill="white" stroke="#bfbfbf" points="97,-0.5 97,-19.5 135,-19.5 135,-0.5 97,-0.5"/>
<text text-anchor="middle" x="116" y="-7.5" font-family="Helvetica,sans-Serif" font-size="10.00">map</text>
</a>
</g>
</g>
<!-- Node13&#45;&gt;Node15 -->
<g id="edge19" class="edge">
<title>Node13&#45;&gt;Node15</title>
<path fill="none" stroke="midnightblue" d="M160.25,-56.08C152.53,-48.22 141.1,-36.57 131.78,-27.08"/>
<polygon fill="midnightblue" stroke="midnightblue" points="134.09,-24.44 124.59,-19.75 129.1,-29.34 134.09,-24.44"/>
</g>
<!-- Node16&#45;&gt;Node4 -->
<g id="edge25" class="edge">
<title>Node16&#45;&gt;Node4</title>
<path fill="none" stroke="midnightblue" d="M231.78,-181.45C202.43,-175.39 164.65,-164 137,-143 96.69,-112.38 69.3,-57.37 57.14,-29"/>
<polygon fill="midnightblue" stroke="midnightblue" points="60.29,-27.44 53.23,-19.54 53.82,-30.12 60.29,-27.44"/>
</g>
<!-- Node16&#45;&gt;Node5 -->
<g id="edge30" class="edge">
<title>Node16&#45;&gt;Node5</title>
<path fill="none" stroke="midnightblue" d="M322.06,-185.64C381.56,-181.47 481.43,-170.48 504,-143 512.74,-132.35 512.49,-122.85 504,-112 461.44,-57.58 313.48,-107.96 359,-56 376.72,-35.77 539.21,-21.63 632.64,-15.1"/>
<polygon fill="midnightblue" stroke="midnightblue" points="633.11,-18.57 642.84,-14.4 632.63,-11.59 633.11,-18.57"/>
</g>
<!-- Node16&#45;&gt;Node10 -->
<g id="edge31" class="edge">
<title>Node16&#45;&gt;Node10</title>
<path fill="none" stroke="midnightblue" d="M301.07,-179.48C330.01,-169.22 378.76,-151.96 411.4,-140.4"/>
<polygon fill="midnightblue" stroke="midnightblue" points="412.72,-143.65 420.97,-137.01 410.38,-137.05 412.72,-143.65"/>
</g>
<!-- Node16&#45;&gt;Node11 -->
<g id="edge27" class="edge">
<title>Node16&#45;&gt;Node11</title>
<path fill="none" stroke="midnightblue" d="M301.47,-179.44C317.57,-172.38 337.38,-160.63 347,-143 353.6,-130.91 353.39,-124.2 347,-112 339.72,-98.11 325.99,-87.65 313.02,-80.33"/>
<polygon fill="midnightblue" stroke="midnightblue" points="314.3,-77.05 303.81,-75.55 311.07,-83.27 314.3,-77.05"/>
</g>
<!-- Node16&#45;&gt;Node12 -->
<g id="edge29" class="edge">
<title>Node16&#45;&gt;Node12</title>
<path fill="none" stroke="midnightblue" d="M253.55,-179.41C237.84,-172.28 218.38,-160.46 209,-143 188.04,-103.99 220.33,-53.52 240.61,-27.75"/>
<polygon fill="midnightblue" stroke="midnightblue" points="243.55,-29.68 247.18,-19.73 238.14,-25.25 243.55,-29.68"/>
</g>
<!-- Node16&#45;&gt;Node13 -->
<g id="edge28" class="edge">
<title>Node16&#45;&gt;Node13</title>
<path fill="none" stroke="midnightblue" d="M233.91,-179.49C213.03,-173.06 189.59,-161.96 176,-143 164.21,-126.55 164,-102.67 165.74,-86.09"/>
<polygon fill="midnightblue" stroke="midnightblue" points="169.24,-86.34 167.15,-75.95 162.31,-85.38 169.24,-86.34"/>
</g>
<!-- Node16&#45;&gt;Node15 -->
<g id="edge24" class="edge">
<title>Node16&#45;&gt;Node15</title>
<path fill="none" stroke="midnightblue" d="M233.19,-179.49C209.6,-172.95 181.44,-161.76 162,-143 130.23,-112.34 120.38,-58.59 117.35,-30.05"/>
<polygon fill="midnightblue" stroke="midnightblue" points="120.81,-29.47 116.44,-19.82 113.84,-30.09 120.81,-29.47"/>
</g>
<!-- Node17 -->
<g id="node17" class="node">
<title>Node17</title>
<g id="a_node17"><a xlink:title=" ">
<polygon fill="white" stroke="#bfbfbf" points="218.5,-118 218.5,-137 265.5,-137 265.5,-118 218.5,-118"/>
<text text-anchor="middle" x="242" y="-125" font-family="Helvetica,sans-Serif" font-size="10.00">vector</text>
</a>
</g>
</g>
<!-- Node16&#45;&gt;Node17 -->
<g id="edge23" class="edge">
<title>Node16&#45;&gt;Node17</title>
<path fill="none" stroke="midnightblue" d="M271.99,-179.48C266.84,-170.73 258.69,-156.87 252.18,-145.81"/>
<polygon fill="midnightblue" stroke="midnightblue" points="255.09,-143.85 247.01,-137.01 249.06,-147.4 255.09,-143.85"/>
</g>
<!-- Node18 -->
<g id="node18" class="node">
<title>Node18</title>
<g id="a_node18"><a xlink:title=" ">
<polygon fill="white" stroke="#bfbfbf" points="284,-118 284,-137 338,-137 338,-118 284,-118"/>
<text text-anchor="middle" x="311" y="-125" font-family="Helvetica,sans-Serif" font-size="10.00">random</text>
</a>
</g>
</g>
<!-- Node16&#45;&gt;Node18 -->
<g id="edge26" class="edge">
<title>Node16&#45;&gt;Node18</title>
<path fill="none" stroke="midnightblue" d="M281.87,-179.48C286.87,-170.73 294.79,-156.87 301.11,-145.81"/>
<polygon fill="midnightblue" stroke="midnightblue" points="304.22,-147.43 306.14,-137.01 298.14,-143.96 304.22,-147.43"/>
</g>
<!-- Node19&#45;&gt;Node3 -->
<g id="edge39" class="edge">
<title>Node19&#45;&gt;Node3</title>
<path fill="none" stroke="midnightblue" d="M981.49,-179.49C953.06,-171.57 910.97,-158.63 876,-143 875.16,-142.62 874.31,-142.23 873.46,-141.81"/>
<polygon fill="midnightblue" stroke="midnightblue" points="874.95,-138.64 864.48,-137.01 871.65,-144.82 874.95,-138.64"/>
</g>
<!-- Node19&#45;&gt;Node5 -->
<g id="edge33" class="edge">
<title>Node19&#45;&gt;Node5</title>
<path fill="none" stroke="midnightblue" d="M1017.17,-179.25C1025.01,-155.9 1042.48,-91.5 1011,-56 994.82,-37.75 850.27,-23.15 763.37,-15.93"/>
<polygon fill="midnightblue" stroke="midnightblue" points="763.58,-12.44 753.33,-15.11 763.01,-19.41 763.58,-12.44"/>
</g>
<!-- Node19&#45;&gt;Node6 -->
<g id="edge36" class="edge">
<title>Node19&#45;&gt;Node6</title>
<path fill="none" stroke="midnightblue" d="M1052.87,-183.31C1110.88,-174.83 1209.5,-153.8 1172,-112 1124.52,-59.08 930.12,-85.33 842.37,-75.82"/>
<polygon fill="midnightblue" stroke="midnightblue" points="842.58,-72.32 832.21,-74.48 841.67,-79.26 842.58,-72.32"/>
</g>
<!-- Node19&#45;&gt;Node9 -->
<g id="edge35" class="edge">
<title>Node19&#45;&gt;Node9</title>
<path fill="none" stroke="midnightblue" d="M1052.77,-185.84C1114.15,-180.83 1223.51,-164.45 1190,-112 1156.63,-59.77 1088.55,-34.14 1037.3,-21.83"/>
<polygon fill="midnightblue" stroke="midnightblue" points="1037.82,-18.36 1027.29,-19.55 1036.26,-25.19 1037.82,-18.36"/>
</g>
<!-- Node20 -->
<g id="node20" class="node">
<title>Node20</title>
<g id="a_node20"><a xlink:title=" ">
<polygon fill="white" stroke="#bfbfbf" points="1049.5,-112.5 1049.5,-142.5 1162.5,-142.5 1162.5,-112.5 1049.5,-112.5"/>
<text text-anchor="start" x="1057.5" y="-130.5" font-family="Helvetica,sans-Serif" font-size="10.00">websocketpp/config</text>
<text text-anchor="middle" x="1106" y="-119.5" font-family="Helvetica,sans-Serif" font-size="10.00">/asio_no_tls.hpp</text>
</a>
</g>
</g>
<!-- Node19&#45;&gt;Node20 -->
<g id="edge34" class="edge">
<title>Node19&#45;&gt;Node20</title>
<path fill="none" stroke="midnightblue" d="M1027.18,-179.48C1039.76,-171.34 1059.16,-158.79 1075.57,-148.18"/>
<polygon fill="midnightblue" stroke="midnightblue" points="1077.82,-150.89 1084.32,-142.52 1074.02,-145.01 1077.82,-150.89"/>
</g>
<!-- Node19&#45;&gt;Node21 -->
<g id="edge37" class="edge">
<title>Node19&#45;&gt;Node21</title>
<path fill="none" stroke="midnightblue" d="M1003.25,-179.48C991.45,-170.11 972.26,-154.88 957.92,-143.51"/>
<polygon fill="midnightblue" stroke="midnightblue" points="959.74,-140.48 949.73,-137.01 955.38,-145.97 959.74,-140.48"/>
</g>
<!-- Node21&#45;&gt;Node22 -->
<g id="edge38" class="edge">
<title>Node21&#45;&gt;Node22</title>
<path fill="none" stroke="midnightblue" d="M937.14,-117.98C935.28,-109.49 932.38,-96.2 930,-85.32"/>
<polygon fill="midnightblue" stroke="midnightblue" points="933.41,-84.53 927.86,-75.51 926.57,-86.03 933.41,-84.53"/>
</g>
<!-- Node23&#45;&gt;Node5 -->
<g id="edge46" class="edge">
<title>Node23&#45;&gt;Node5</title>
<path fill="none" stroke="midnightblue" d="M652.94,-117.67C660.29,-107.94 671.81,-91.6 679,-76 685.92,-60.98 690.97,-42.85 694.12,-29.56"/>
<polygon fill="midnightblue" stroke="midnightblue" points="697.55,-30.22 696.31,-19.7 690.72,-28.7 697.55,-30.22"/>
</g>
<!-- Node23&#45;&gt;Node6 -->
<g id="edge41" class="edge">
<title>Node23&#45;&gt;Node6</title>
<path fill="none" stroke="midnightblue" d="M667.78,-117.98C693.74,-107.81 737.31,-90.76 766.83,-79.2"/>
<polygon fill="midnightblue" stroke="midnightblue" points="768.23,-82.41 776.26,-75.51 765.67,-75.9 768.23,-82.41"/>
</g>
<!-- Node24 -->
<g id="node24" class="node">
<title>Node24</title>
<g id="a_node24"><a xlink:title=" ">
<polygon fill="white" stroke="#bfbfbf" points="556,-56.5 556,-75.5 604,-75.5 604,-56.5 556,-56.5"/>
<text text-anchor="middle" x="580" y="-63.5" font-family="Helvetica,sans-Serif" font-size="10.00">thread</text>
</a>
</g>
</g>
<!-- Node23&#45;&gt;Node24 -->
<g id="edge42" class="edge">
<title>Node23&#45;&gt;Node24</title>
<path fill="none" stroke="midnightblue" d="M636.54,-117.98C626.25,-108.7 609.58,-93.67 597.01,-82.33"/>
<polygon fill="midnightblue" stroke="midnightblue" points="599.21,-79.61 589.44,-75.51 594.52,-84.8 599.21,-79.61"/>
</g>
<!-- Node25 -->
<g id="node25" class="node">
<title>Node25</title>
<g id="a_node25"><a xlink:title=" ">
<polygon fill="white" stroke="#bfbfbf" points="622,-56.5 622,-75.5 670,-75.5 670,-56.5 622,-56.5"/>
<text text-anchor="middle" x="646" y="-63.5" font-family="Helvetica,sans-Serif" font-size="10.00">mutex</text>
</a>
</g>
</g>
<!-- Node23&#45;&gt;Node25 -->
<g id="edge43" class="edge">
<title>Node23&#45;&gt;Node25</title>
<path fill="none" stroke="midnightblue" d="M646,-117.98C646,-109.58 646,-96.48 646,-85.66"/>
<polygon fill="midnightblue" stroke="midnightblue" points="649.5,-85.51 646,-75.51 642.5,-85.51 649.5,-85.51"/>
</g>
<!-- Node26 -->
<g id="node26" class="node">
<title>Node26</title>
<g id="a_node26"><a xlink:title=" ">
<polygon fill="white" stroke="#bfbfbf" points="368,-56.5 368,-75.5 454,-75.5 454,-56.5 368,-56.5"/>
<text text-anchor="middle" x="411" y="-63.5" font-family="Helvetica,sans-Serif" font-size="10.00">unordered_set</text>
</a>
</g>
</g>
<!-- Node23&#45;&gt;Node26 -->
<g id="edge44" class="edge">
<title>Node23&#45;&gt;Node26</title>
<path fill="none" stroke="midnightblue" d="M612.33,-117.98C570.8,-107.46 500.11,-89.56 454.5,-78.01"/>
<polygon fill="midnightblue" stroke="midnightblue" points="455.16,-74.57 444.61,-75.51 453.44,-81.36 455.16,-74.57"/>
</g>
<!-- Node27 -->
<g id="node27" class="node">
<title>Node27</title>
<g id="a_node27"><a xlink:title=" ">
<polygon fill="white" stroke="#bfbfbf" points="472.5,-56.5 472.5,-75.5 537.5,-75.5 537.5,-56.5 472.5,-56.5"/>
<text text-anchor="middle" x="505" y="-63.5" font-family="Helvetica,sans-Serif" font-size="10.00">functional</text>
</a>
</g>
</g>
<!-- Node23&#45;&gt;Node27 -->
<g id="edge45" class="edge">
<title>Node23&#45;&gt;Node27</title>
<path fill="none" stroke="midnightblue" d="M625.8,-117.98C601.93,-107.9 562,-91.05 534.63,-79.5"/>
<polygon fill="midnightblue" stroke="midnightblue" points="535.74,-76.17 525.16,-75.51 533.02,-82.62 535.74,-76.17"/>
</g>
<!-- Node28&#45;&gt;Node7 -->
<g id="edge52" class="edge">
<title>Node28&#45;&gt;Node7</title>
<path fill="none" stroke="midnightblue" d="M1295.4,-56.08C1288.77,-48.3 1278.98,-36.8 1270.94,-27.37"/>
<polygon fill="midnightblue" stroke="midnightblue" points="1273.6,-25.09 1264.45,-19.75 1268.27,-29.63 1273.6,-25.09"/>
</g>
<!-- Node28&#45;&gt;Node8 -->
<g id="edge51" class="edge">
<title>Node28&#45;&gt;Node8</title>
<path fill="none" stroke="midnightblue" d="M1279.39,-56.44C1254.54,-47.44 1215.23,-33.19 1187.25,-23.05"/>
<polygon fill="midnightblue" stroke="midnightblue" points="1188.09,-19.63 1177.5,-19.52 1185.71,-26.21 1188.09,-19.63"/>
</g>
</g>
</svg>
