<?xml version="1.0" encoding="UTF-8" standalone="no"?>
<!DOCTYPE svg PUBLIC "-//W3C//DTD SVG 1.1//EN"
 "http://www.w3.org/Graphics/SVG/1.1/DTD/svg11.dtd">
<!-- Generated by graphviz version 2.43.0 (0)
 -->
<!-- Title: src/gamechange.cpp Pages: 1 -->
<svg width="714pt" height="196pt"
 viewBox="0.00 0.00 714.00 196.00" xmlns="http://www.w3.org/2000/svg" xmlns:xlink="http://www.w3.org/1999/xlink">
<g id="graph0" class="graph" transform="scale(1 1) rotate(0) translate(4 192)">
<title>src/gamechange.cpp</title>
<polygon fill="white" stroke="transparent" points="-4,4 -4,-192 710,-192 710,4 -4,4"/>
<!-- Node1 -->
<g id="node1" class="node">
<title>Node1</title>
<g id="a_node1"><a xlink:title=" ">
<polygon fill="#bfbfbf" stroke="black" points="395.5,-168.5 395.5,-187.5 512.5,-187.5 512.5,-168.5 395.5,-168.5"/>
<text text-anchor="middle" x="454" y="-175.5" font-family="Helvetica,sans-Serif" font-size="10.00">src/gamechange.cpp</text>
</a>
</g>
</g>
<!-- Node2 -->
<g id="node2" class="node">
<title>Node2</title>
<g id="a_node2"><a xlink:href="gamechange_8hpp.html" target="_top" xlink:title=" ">
<polygon fill="white" stroke="black" points="364.5,-112.5 364.5,-131.5 465.5,-131.5 465.5,-112.5 364.5,-112.5"/>
<text text-anchor="middle" x="415" y="-119.5" font-family="Helvetica,sans-Serif" font-size="10.00">gamechange.hpp</text>
</a>
</g>
</g>
<!-- Node1&#45;&gt;Node2 -->
<g id="edge1" class="edge">
<title>Node1&#45;&gt;Node2</title>
<path fill="none" stroke="midnightblue" d="M447.56,-168.08C442.05,-160.46 433.97,-149.26 427.24,-139.94"/>
<polygon fill="midnightblue" stroke="midnightblue" points="430.01,-137.81 421.32,-131.75 424.34,-141.91 430.01,-137.81"/>
</g>
<!-- Node14 -->
<g id="node14" class="node">
<title>Node14</title>
<g id="a_node14"><a xlink:href="debug__functions_8hpp.html" target="_top" xlink:title=" ">
<polygon fill="white" stroke="black" points="549,-56.5 549,-75.5 667,-75.5 667,-56.5 549,-56.5"/>
<text text-anchor="middle" x="608" y="-63.5" font-family="Helvetica,sans-Serif" font-size="10.00">debug_functions.hpp</text>
</a>
</g>
</g>
<!-- Node1&#45;&gt;Node14 -->
<g id="edge17" class="edge">
<title>Node1&#45;&gt;Node14</title>
<path fill="none" stroke="midnightblue" d="M466.08,-168.37C492.4,-149.57 555.12,-104.77 587.65,-81.53"/>
<polygon fill="midnightblue" stroke="midnightblue" points="589.87,-84.25 595.97,-75.59 585.8,-78.56 589.87,-84.25"/>
</g>
<!-- Node3 -->
<g id="node3" class="node">
<title>Node3</title>
<g id="a_node3"><a xlink:href="player_8hpp.html" target="_top" xlink:title=" ">
<polygon fill="white" stroke="black" points="463,-56.5 463,-75.5 531,-75.5 531,-56.5 463,-56.5"/>
<text text-anchor="middle" x="497" y="-63.5" font-family="Helvetica,sans-Serif" font-size="10.00">player.hpp</text>
</a>
</g>
</g>
<!-- Node2&#45;&gt;Node3 -->
<g id="edge2" class="edge">
<title>Node2&#45;&gt;Node3</title>
<path fill="none" stroke="midnightblue" d="M428.17,-112.32C440.85,-103.98 460.23,-91.21 475.21,-81.35"/>
<polygon fill="midnightblue" stroke="midnightblue" points="477.43,-84.08 483.86,-75.65 473.58,-78.23 477.43,-84.08"/>
</g>
<!-- Node8 -->
<g id="node8" class="node">
<title>Node8</title>
<g id="a_node8"><a xlink:href="field_8hpp.html" target="_top" xlink:title=" ">
<polygon fill="white" stroke="black" points="266.5,-56.5 266.5,-75.5 325.5,-75.5 325.5,-56.5 266.5,-56.5"/>
<text text-anchor="middle" x="296" y="-63.5" font-family="Helvetica,sans-Serif" font-size="10.00">field.hpp</text>
</a>
</g>
</g>
<!-- Node2&#45;&gt;Node8 -->
<g id="edge7" class="edge">
<title>Node2&#45;&gt;Node8</title>
<path fill="none" stroke="midnightblue" d="M396.14,-112.44C376.73,-103.64 346.27,-89.81 324.04,-79.72"/>
<polygon fill="midnightblue" stroke="midnightblue" points="325.32,-76.46 314.77,-75.52 322.43,-82.84 325.32,-76.46"/>
</g>
<!-- Node11 -->
<g id="node11" class="node">
<title>Node11</title>
<g id="a_node11"><a xlink:href="dot_8hpp.html" target="_top" xlink:title=" ">
<polygon fill="white" stroke="black" points="183.5,-56.5 183.5,-75.5 236.5,-75.5 236.5,-56.5 183.5,-56.5"/>
<text text-anchor="middle" x="210" y="-63.5" font-family="Helvetica,sans-Serif" font-size="10.00">dot.hpp</text>
</a>
</g>
</g>
<!-- Node2&#45;&gt;Node11 -->
<g id="edge11" class="edge">
<title>Node2&#45;&gt;Node11</title>
<path fill="none" stroke="midnightblue" d="M382.52,-112.44C345.52,-102.7 285.21,-86.81 246.58,-76.64"/>
<polygon fill="midnightblue" stroke="midnightblue" points="247.34,-73.22 236.78,-74.05 245.56,-79.99 247.34,-73.22"/>
</g>
<!-- Node4 -->
<g id="node4" class="node">
<title>Node4</title>
<g id="a_node4"><a xlink:title=" ">
<polygon fill="white" stroke="#bfbfbf" points="584,-0.5 584,-19.5 628,-19.5 628,-0.5 584,-0.5"/>
<text text-anchor="middle" x="606" y="-7.5" font-family="Helvetica,sans-Serif" font-size="10.00">string</text>
</a>
</g>
</g>
<!-- Node3&#45;&gt;Node4 -->
<g id="edge3" class="edge">
<title>Node3&#45;&gt;Node4</title>
<path fill="none" stroke="midnightblue" d="M514.51,-56.32C532.07,-47.62 559.33,-34.12 579.53,-24.11"/>
<polygon fill="midnightblue" stroke="midnightblue" points="581.12,-27.23 588.53,-19.65 578.02,-20.96 581.12,-27.23"/>
</g>
<!-- Node5 -->
<g id="node5" class="node">
<title>Node5</title>
<g id="a_node5"><a xlink:title=" ">
<polygon fill="white" stroke="#bfbfbf" points="646,-0.5 646,-19.5 706,-19.5 706,-0.5 646,-0.5"/>
<text text-anchor="middle" x="676" y="-7.5" font-family="Helvetica,sans-Serif" font-size="10.00">iostream</text>
</a>
</g>
</g>
<!-- Node3&#45;&gt;Node5 -->
<g id="edge4" class="edge">
<title>Node3&#45;&gt;Node5</title>
<path fill="none" stroke="midnightblue" d="M525.36,-56.44C555.74,-47.28 604.11,-32.69 637.82,-22.52"/>
<polygon fill="midnightblue" stroke="midnightblue" points="639.21,-25.76 647.77,-19.52 637.18,-19.05 639.21,-25.76"/>
</g>
<!-- Node6 -->
<g id="node6" class="node">
<title>Node6</title>
<g id="a_node6"><a xlink:title=" ">
<polygon fill="white" stroke="#bfbfbf" points="432,-0.5 432,-19.5 566,-19.5 566,-0.5 432,-0.5"/>
<text text-anchor="middle" x="499" y="-7.5" font-family="Helvetica,sans-Serif" font-size="10.00">websocketpp/server.hpp</text>
</a>
</g>
</g>
<!-- Node3&#45;&gt;Node6 -->
<g id="edge5" class="edge">
<title>Node3&#45;&gt;Node6</title>
<path fill="none" stroke="midnightblue" d="M497.33,-56.08C497.59,-49.01 497.97,-38.86 498.3,-29.99"/>
<polygon fill="midnightblue" stroke="midnightblue" points="501.8,-29.87 498.68,-19.75 494.81,-29.61 501.8,-29.87"/>
</g>
<!-- Node7 -->
<g id="node7" class="node">
<title>Node7</title>
<g id="a_node7"><a xlink:title=" ">
<polygon fill="white" stroke="#bfbfbf" points="304,-0.5 304,-19.5 414,-19.5 414,-0.5 304,-0.5"/>
<text text-anchor="middle" x="359" y="-7.5" font-family="Helvetica,sans-Serif" font-size="10.00">nlohmann/json.hpp</text>
</a>
</g>
</g>
<!-- Node3&#45;&gt;Node7 -->
<g id="edge6" class="edge">
<title>Node3&#45;&gt;Node7</title>
<path fill="none" stroke="midnightblue" d="M475.13,-56.44C452.22,-47.48 416.02,-33.31 390.13,-23.18"/>
<polygon fill="midnightblue" stroke="midnightblue" points="391.35,-19.9 380.76,-19.52 388.8,-26.42 391.35,-19.9"/>
</g>
<!-- Node8&#45;&gt;Node7 -->
<g id="edge9" class="edge">
<title>Node8&#45;&gt;Node7</title>
<path fill="none" stroke="midnightblue" d="M306.12,-56.32C315.53,-48.26 329.74,-36.08 341.07,-26.37"/>
<polygon fill="midnightblue" stroke="midnightblue" points="343.38,-29 348.69,-19.83 338.82,-23.68 343.38,-29"/>
</g>
<!-- Node9 -->
<g id="node9" class="node">
<title>Node9</title>
<g id="a_node9"><a xlink:href="position__type_8hpp.html" target="_top" xlink:title=" ">
<polygon fill="white" stroke="black" points="106,-0.5 106,-19.5 210,-19.5 210,-0.5 106,-0.5"/>
<text text-anchor="middle" x="158" y="-7.5" font-family="Helvetica,sans-Serif" font-size="10.00">position_type.hpp</text>
</a>
</g>
</g>
<!-- Node8&#45;&gt;Node9 -->
<g id="edge8" class="edge">
<title>Node8&#45;&gt;Node9</title>
<path fill="none" stroke="midnightblue" d="M274.13,-56.44C251.22,-47.48 215.02,-33.31 189.13,-23.18"/>
<polygon fill="midnightblue" stroke="midnightblue" points="190.35,-19.9 179.76,-19.52 187.8,-26.42 190.35,-19.9"/>
</g>
<!-- Node10 -->
<g id="node10" class="node">
<title>Node10</title>
<g id="a_node10"><a xlink:title=" ">
<polygon fill="white" stroke="#bfbfbf" points="228,-0.5 228,-19.5 286,-19.5 286,-0.5 228,-0.5"/>
<text text-anchor="middle" x="257" y="-7.5" font-family="Helvetica,sans-Serif" font-size="10.00">memory</text>
</a>
</g>
</g>
<!-- Node8&#45;&gt;Node10 -->
<g id="edge10" class="edge">
<title>Node8&#45;&gt;Node10</title>
<path fill="none" stroke="midnightblue" d="M289.56,-56.08C284.05,-48.46 275.97,-37.26 269.24,-27.94"/>
<polygon fill="midnightblue" stroke="midnightblue" points="272.01,-25.81 263.32,-19.75 266.34,-29.91 272.01,-25.81"/>
</g>
<!-- Node11&#45;&gt;Node7 -->
<g id="edge16" class="edge">
<title>Node11&#45;&gt;Node7</title>
<path fill="none" stroke="midnightblue" d="M233.61,-56.44C258.46,-47.44 297.77,-33.19 325.75,-23.05"/>
<polygon fill="midnightblue" stroke="midnightblue" points="327.29,-26.21 335.5,-19.52 324.91,-19.63 327.29,-26.21"/>
</g>
<!-- Node11&#45;&gt;Node9 -->
<g id="edge12" class="edge">
<title>Node11&#45;&gt;Node9</title>
<path fill="none" stroke="midnightblue" d="M201.41,-56.08C193.84,-48.22 182.62,-36.57 173.49,-27.08"/>
<polygon fill="midnightblue" stroke="midnightblue" points="175.88,-24.53 166.43,-19.75 170.84,-29.38 175.88,-24.53"/>
</g>
<!-- Node11&#45;&gt;Node10 -->
<g id="edge15" class="edge">
<title>Node11&#45;&gt;Node10</title>
<path fill="none" stroke="midnightblue" d="M217.76,-56.08C224.54,-48.3 234.54,-36.8 242.76,-27.37"/>
<polygon fill="midnightblue" stroke="midnightblue" points="245.46,-29.59 249.38,-19.75 240.18,-25 245.46,-29.59"/>
</g>
<!-- Node12 -->
<g id="node12" class="node">
<title>Node12</title>
<g id="a_node12"><a xlink:title=" ">
<polygon fill="white" stroke="#bfbfbf" points="56,-0.5 56,-19.5 88,-19.5 88,-0.5 56,-0.5"/>
<text text-anchor="middle" x="72" y="-7.5" font-family="Helvetica,sans-Serif" font-size="10.00">set</text>
</a>
</g>
</g>
<!-- Node11&#45;&gt;Node12 -->
<g id="edge13" class="edge">
<title>Node11&#45;&gt;Node12</title>
<path fill="none" stroke="midnightblue" d="M188.13,-56.44C163.58,-46.83 123.76,-31.26 97.73,-21.07"/>
<polygon fill="midnightblue" stroke="midnightblue" points="98.75,-17.71 88.16,-17.32 96.2,-24.23 98.75,-17.71"/>
</g>
<!-- Node13 -->
<g id="node13" class="node">
<title>Node13</title>
<g id="a_node13"><a xlink:title=" ">
<polygon fill="white" stroke="#bfbfbf" points="0,-0.5 0,-19.5 38,-19.5 38,-0.5 0,-0.5"/>
<text text-anchor="middle" x="19" y="-7.5" font-family="Helvetica,sans-Serif" font-size="10.00">map</text>
</a>
</g>
</g>
<!-- Node11&#45;&gt;Node13 -->
<g id="edge14" class="edge">
<title>Node11&#45;&gt;Node13</title>
<path fill="none" stroke="midnightblue" d="M183.36,-58.01C152.84,-49.92 101.11,-35.98 47.85,-20.17"/>
<polygon fill="midnightblue" stroke="midnightblue" points="48.83,-16.81 38.25,-17.3 46.83,-23.52 48.83,-16.81"/>
</g>
<!-- Node14&#45;&gt;Node4 -->
<g id="edge19" class="edge">
<title>Node14&#45;&gt;Node4</title>
<path fill="none" stroke="midnightblue" d="M607.67,-56.08C607.41,-49.01 607.03,-38.86 606.7,-29.99"/>
<polygon fill="midnightblue" stroke="midnightblue" points="610.19,-29.61 606.32,-19.75 603.2,-29.87 610.19,-29.61"/>
</g>
<!-- Node14&#45;&gt;Node5 -->
<g id="edge18" class="edge">
<title>Node14&#45;&gt;Node5</title>
<path fill="none" stroke="midnightblue" d="M618.93,-56.32C629.17,-48.18 644.72,-35.84 657,-26.09"/>
<polygon fill="midnightblue" stroke="midnightblue" points="659.22,-28.79 664.88,-19.83 654.87,-23.31 659.22,-28.79"/>
</g>
</g>
</svg>
