<?xml version="1.0" encoding="UTF-8" standalone="no"?>
<!DOCTYPE svg PUBLIC "-//W3C//DTD SVG 1.1//EN"
 "http://www.w3.org/Graphics/SVG/1.1/DTD/svg11.dtd">
<!-- Generated by graphviz version 2.43.0 (0)
 -->
<!-- Title: src/gamestate.cpp Pages: 1 -->
<!--zoomable 252 -->
<svg id="main" version="1.1" xmlns="http://www.w3.org/2000/svg" xmlns:xlink="http://www.w3.org/1999/xlink" xml:space="preserve" onload="init(evt)">
<style type="text/css"><![CDATA[
.edge:hover path { stroke: red; }
.edge:hover polygon { stroke: red; fill: red; }
]]></style>
<script type="text/javascript"><![CDATA[
var edges = document.getElementsByTagName('g');
if (edges && edges.length) {
  for (var i=0;i<edges.length;i++) {
    if (edges[i].id.substr(0,4)=='edge') {
      edges[i].setAttribute('class','edge');
    }
  }
}
]]></script>
        <defs>
                <circle id="rim" cx="0" cy="0" r="7"/>
                <circle id="rim2" cx="0" cy="0" r="3.5"/>
                <g id="zoomPlus">
                        <use xlink:href="#rim" fill="#404040">
                                <set attributeName="fill" to="#808080" begin="zoomplus.mouseover" end="zoomplus.mouseout"/>
                        </use>
                        <path d="M-4,0h8M0,-4v8" fill="none" stroke="white" stroke-width="1.5" pointer-events="none"/>
                </g>
                <g id="zoomMin">
                        <use xlink:href="#rim" fill="#404040">
                                <set attributeName="fill" to="#808080" begin="zoomminus.mouseover" end="zoomminus.mouseout"/>
                        </use>
                        <path d="M-4,0h8" fill="none" stroke="white" stroke-width="1.5" pointer-events="none"/>
                </g>
                <g id="dirArrow">
                        <path fill="none" stroke="white" stroke-width="1.5" d="M0,-3.0v7 M-2.5,-0.5L0,-3.0L2.5,-0.5"/>
                </g>
               <g id="resetDef">
                       <use xlink:href="#rim2" fill="#404040">
                               <set attributeName="fill" to="#808080" begin="reset.mouseover" end="reset.mouseout"/>
                       </use>
               </g>
        </defs>

<script type="text/javascript">
var viewWidth = 802;
var viewHeight = 252;
var sectionId = 'dynsection-0';
</script>
<script xlink:href="svgpan.js"/>
<svg id="graph" class="graph">
<g id="viewport">
<title>src/gamestate.cpp</title>
<polygon fill="white" stroke="transparent" points="-4,4 -4,-248 798.41,-248 798.41,4 -4,4"/>
<!-- Node1 -->
<g id="node1" class="node">
<title>Node1</title>
<g id="a_node1"><a xlink:title=" ">
<polygon fill="#bfbfbf" stroke="black" points="396.91,-224.5 396.91,-243.5 503.91,-243.5 503.91,-224.5 396.91,-224.5"/>
<text text-anchor="middle" x="450.41" y="-231.5" font-family="Helvetica,sans-Serif" font-size="10.00">src/gamestate.cpp</text>
</a>
</g>
</g>
<!-- Node2 -->
<g id="node2" class="node">
<title>Node2</title>
<g id="a_node2"><a xlink:href="gamegen_8hpp.html" target="_top" xlink:title=" ">
<polygon fill="white" stroke="black" points="28.91,-168.5 28.91,-187.5 111.91,-187.5 111.91,-168.5 28.91,-168.5"/>
<text text-anchor="middle" x="70.41" y="-175.5" font-family="Helvetica,sans-Serif" font-size="10.00">gamegen.hpp</text>
</a>
</g>
</g>
<!-- Node1&#45;&gt;Node2 -->
<g id="edge1" class="edge">
<title>Node1&#45;&gt;Node2</title>
<path fill="none" stroke="midnightblue" d="M396.77,-225.38C323.84,-215.01 194.26,-196.6 122.27,-186.37"/>
<polygon fill="midnightblue" stroke="midnightblue" points="122.47,-182.86 112.08,-184.92 121.49,-189.79 122.47,-182.86"/>
</g>
<!-- Node6 -->
<g id="node6" class="node">
<title>Node6</title>
<g id="a_node6"><a xlink:href="gamestate_8hpp.html" target="_top" xlink:title=" ">
<polygon fill="white" stroke="black" points="226.41,-168.5 226.41,-187.5 316.41,-187.5 316.41,-168.5 226.41,-168.5"/>
<text text-anchor="middle" x="271.41" y="-175.5" font-family="Helvetica,sans-Serif" font-size="10.00">gamestate.hpp</text>
</a>
</g>
</g>
<!-- Node1&#45;&gt;Node6 -->
<g id="edge5" class="edge">
<title>Node1&#45;&gt;Node6</title>
<path fill="none" stroke="midnightblue" d="M422.05,-224.44C391.67,-215.28 343.3,-200.69 309.59,-190.52"/>
<polygon fill="midnightblue" stroke="midnightblue" points="310.22,-187.05 299.64,-187.52 308.2,-193.76 310.22,-187.05"/>
</g>
<!-- Node16 -->
<g id="node16" class="node">
<title>Node16</title>
<g id="a_node16"><a xlink:title=" ">
<polygon fill="white" stroke="#bfbfbf" points="734.41,-0.5 734.41,-19.5 794.41,-19.5 794.41,-0.5 734.41,-0.5"/>
<text text-anchor="middle" x="764.41" y="-7.5" font-family="Helvetica,sans-Serif" font-size="10.00">iostream</text>
</a>
</g>
</g>
<!-- Node1&#45;&gt;Node16 -->
<g id="edge30" class="edge">
<title>Node1&#45;&gt;Node16</title>
<path fill="none" stroke="midnightblue" d="M462.72,-224.3C510.5,-190.52 683.97,-67.87 743.89,-25.51"/>
<polygon fill="midnightblue" stroke="midnightblue" points="746.04,-28.27 752.18,-19.64 742,-22.56 746.04,-28.27"/>
</g>
<!-- Node18 -->
<g id="node18" class="node">
<title>Node18</title>
<g id="a_node18"><a xlink:title=" ">
<polygon fill="white" stroke="#bfbfbf" points="657.41,-168.5 657.41,-187.5 713.41,-187.5 713.41,-168.5 657.41,-168.5"/>
<text text-anchor="middle" x="685.41" y="-175.5" font-family="Helvetica,sans-Serif" font-size="10.00">iomanip</text>
</a>
</g>
</g>
<!-- Node1&#45;&gt;Node18 -->
<g id="edge31" class="edge">
<title>Node1&#45;&gt;Node18</title>
<path fill="none" stroke="midnightblue" d="M487.65,-224.44C531.35,-214.4 603.43,-197.84 647.45,-187.72"/>
<polygon fill="midnightblue" stroke="midnightblue" points="648.23,-191.13 657.2,-185.48 646.67,-184.31 648.23,-191.13"/>
</g>
<!-- Node3 -->
<g id="node3" class="node">
<title>Node3</title>
<g id="a_node3"><a xlink:title=" ">
<polygon fill="white" stroke="#bfbfbf" points="88.41,-0.5 88.41,-19.5 146.41,-19.5 146.41,-0.5 88.41,-0.5"/>
<text text-anchor="middle" x="117.41" y="-7.5" font-family="Helvetica,sans-Serif" font-size="10.00">memory</text>
</a>
</g>
</g>
<!-- Node2&#45;&gt;Node3 -->
<g id="edge2" class="edge">
<title>Node2&#45;&gt;Node3</title>
<path fill="none" stroke="midnightblue" d="M48.67,-168.49C24.7,-157.66 -9.04,-137.29 2.41,-112 20.62,-71.76 63.66,-41.2 91.61,-24.71"/>
<polygon fill="midnightblue" stroke="midnightblue" points="93.51,-27.66 100.46,-19.66 90.04,-21.58 93.51,-27.66"/>
</g>
<!-- Node4 -->
<g id="node4" class="node">
<title>Node4</title>
<g id="a_node4"><a xlink:title=" ">
<polygon fill="white" stroke="#bfbfbf" points="77.41,-112.5 77.41,-131.5 131.41,-131.5 131.41,-112.5 77.41,-112.5"/>
<text text-anchor="middle" x="104.41" y="-119.5" font-family="Helvetica,sans-Serif" font-size="10.00">random</text>
</a>
</g>
</g>
<!-- Node2&#45;&gt;Node4 -->
<g id="edge3" class="edge">
<title>Node2&#45;&gt;Node4</title>
<path fill="none" stroke="midnightblue" d="M76.02,-168.08C80.78,-160.53 87.73,-149.49 93.56,-140.23"/>
<polygon fill="midnightblue" stroke="midnightblue" points="96.53,-142.08 98.9,-131.75 90.61,-138.35 96.53,-142.08"/>
</g>
<!-- Node5 -->
<g id="node5" class="node">
<title>Node5</title>
<g id="a_node5"><a xlink:title=" ">
<polygon fill="white" stroke="#bfbfbf" points="11.91,-112.5 11.91,-131.5 58.91,-131.5 58.91,-112.5 11.91,-112.5"/>
<text text-anchor="middle" x="35.41" y="-119.5" font-family="Helvetica,sans-Serif" font-size="10.00">vector</text>
</a>
</g>
</g>
<!-- Node2&#45;&gt;Node5 -->
<g id="edge4" class="edge">
<title>Node2&#45;&gt;Node5</title>
<path fill="none" stroke="midnightblue" d="M64.63,-168.08C59.74,-160.53 52.58,-149.49 46.58,-140.23"/>
<polygon fill="midnightblue" stroke="midnightblue" points="49.46,-138.24 41.08,-131.75 43.58,-142.05 49.46,-138.24"/>
</g>
<!-- Node6&#45;&gt;Node3 -->
<g id="edge8" class="edge">
<title>Node6&#45;&gt;Node3</title>
<path fill="none" stroke="midnightblue" d="M263.13,-168.08C238.36,-141.38 164.6,-61.87 132.55,-27.32"/>
<polygon fill="midnightblue" stroke="midnightblue" points="134.72,-24.52 125.36,-19.57 129.59,-29.28 134.72,-24.52"/>
</g>
<!-- Node6&#45;&gt;Node4 -->
<g id="edge9" class="edge">
<title>Node6&#45;&gt;Node4</title>
<path fill="none" stroke="midnightblue" d="M244.95,-168.44C216.73,-159.32 171.87,-144.81 140.44,-134.65"/>
<polygon fill="midnightblue" stroke="midnightblue" points="141.34,-131.26 130.75,-131.52 139.18,-137.92 141.34,-131.26"/>
</g>
<!-- Node6&#45;&gt;Node5 -->
<g id="edge6" class="edge">
<title>Node6&#45;&gt;Node5</title>
<path fill="none" stroke="midnightblue" d="M230.06,-168.44C191.03,-160.23 130.65,-147.18 69.06,-132.07"/>
<polygon fill="midnightblue" stroke="midnightblue" points="69.71,-128.62 59.17,-129.63 68.04,-135.42 69.71,-128.62"/>
</g>
<!-- Node7 -->
<g id="node7" class="node">
<title>Node7</title>
<g id="a_node7"><a xlink:title=" ">
<polygon fill="white" stroke="#bfbfbf" points="164.41,-0.5 164.41,-19.5 202.41,-19.5 202.41,-0.5 164.41,-0.5"/>
<text text-anchor="middle" x="183.41" y="-7.5" font-family="Helvetica,sans-Serif" font-size="10.00">map</text>
</a>
</g>
</g>
<!-- Node6&#45;&gt;Node7 -->
<g id="edge7" class="edge">
<title>Node6&#45;&gt;Node7</title>
<path fill="none" stroke="midnightblue" d="M266.62,-168.4C256.96,-151.02 234.53,-110.46 216.41,-76 208.13,-60.27 199.01,-42.23 192.45,-29.16"/>
<polygon fill="midnightblue" stroke="midnightblue" points="195.41,-27.25 187.81,-19.87 189.15,-30.38 195.41,-27.25"/>
</g>
<!-- Node8 -->
<g id="node8" class="node">
<title>Node8</title>
<g id="a_node8"><a xlink:href="field_8hpp.html" target="_top" xlink:title=" ">
<polygon fill="white" stroke="black" points="335.91,-56.5 335.91,-75.5 394.91,-75.5 394.91,-56.5 335.91,-56.5"/>
<text text-anchor="middle" x="365.41" y="-63.5" font-family="Helvetica,sans-Serif" font-size="10.00">field.hpp</text>
</a>
</g>
</g>
<!-- Node6&#45;&gt;Node8 -->
<g id="edge10" class="edge">
<title>Node6&#45;&gt;Node8</title>
<path fill="none" stroke="midnightblue" d="M278.78,-168.37C294.43,-150.05 331.18,-107.05 351.43,-83.36"/>
<polygon fill="midnightblue" stroke="midnightblue" points="354.23,-85.47 358.07,-75.59 348.91,-80.92 354.23,-85.47"/>
</g>
<!-- Node9 -->
<g id="node9" class="node">
<title>Node9</title>
<g id="a_node9"><a xlink:href="position__type_8hpp.html" target="_top" xlink:title=" ">
<polygon fill="white" stroke="black" points="270.41,-0.5 270.41,-19.5 374.41,-19.5 374.41,-0.5 270.41,-0.5"/>
<text text-anchor="middle" x="322.41" y="-7.5" font-family="Helvetica,sans-Serif" font-size="10.00">position_type.hpp</text>
</a>
</g>
</g>
<!-- Node6&#45;&gt;Node9 -->
<g id="edge20" class="edge">
<title>Node6&#45;&gt;Node9</title>
<path fill="none" stroke="midnightblue" d="M274.15,-168.08C282.18,-141.95 305.75,-65.21 316.7,-29.58"/>
<polygon fill="midnightblue" stroke="midnightblue" points="320.19,-30.16 319.78,-19.57 313.49,-28.1 320.19,-30.16"/>
</g>
<!-- Node10 -->
<g id="node10" class="node">
<title>Node10</title>
<g id="a_node10"><a xlink:title=" ">
<polygon fill="white" stroke="#bfbfbf" points="392.41,-0.5 392.41,-19.5 502.41,-19.5 502.41,-0.5 392.41,-0.5"/>
<text text-anchor="middle" x="447.41" y="-7.5" font-family="Helvetica,sans-Serif" font-size="10.00">nlohmann/json.hpp</text>
</a>
</g>
</g>
<!-- Node6&#45;&gt;Node10 -->
<g id="edge21" class="edge">
<title>Node6&#45;&gt;Node10</title>
<path fill="none" stroke="midnightblue" d="M316.65,-173.04C368.56,-167.44 448.92,-155.21 467.41,-132 491.3,-102 471.68,-54.33 457.94,-28.69"/>
<polygon fill="midnightblue" stroke="midnightblue" points="460.86,-26.74 452.9,-19.74 454.76,-30.17 460.86,-26.74"/>
</g>
<!-- Node11 -->
<g id="node11" class="node">
<title>Node11</title>
<g id="a_node11"><a xlink:href="dot_8hpp.html" target="_top" xlink:title=" ">
<polygon fill="white" stroke="black" points="225.91,-56.5 225.91,-75.5 278.91,-75.5 278.91,-56.5 225.91,-56.5"/>
<text text-anchor="middle" x="252.41" y="-63.5" font-family="Helvetica,sans-Serif" font-size="10.00">dot.hpp</text>
</a>
</g>
</g>
<!-- Node6&#45;&gt;Node11 -->
<g id="edge14" class="edge">
<title>Node6&#45;&gt;Node11</title>
<path fill="none" stroke="midnightblue" d="M269.92,-168.37C266.85,-150.62 259.78,-109.67 255.62,-85.6"/>
<polygon fill="midnightblue" stroke="midnightblue" points="259.04,-84.85 253.89,-75.59 252.15,-86.04 259.04,-84.85"/>
</g>
<!-- Node13 -->
<g id="node13" class="node">
<title>Node13</title>
<g id="a_node13"><a xlink:href="gamechange_8hpp.html" target="_top" xlink:title=" ">
<polygon fill="white" stroke="black" points="356.91,-112.5 356.91,-131.5 457.91,-131.5 457.91,-112.5 356.91,-112.5"/>
<text text-anchor="middle" x="407.41" y="-119.5" font-family="Helvetica,sans-Serif" font-size="10.00">gamechange.hpp</text>
</a>
</g>
</g>
<!-- Node6&#45;&gt;Node13 -->
<g id="edge22" class="edge">
<title>Node6&#45;&gt;Node13</title>
<path fill="none" stroke="midnightblue" d="M292.96,-168.44C315.44,-159.52 350.9,-145.44 376.39,-135.32"/>
<polygon fill="midnightblue" stroke="midnightblue" points="377.96,-138.46 385.96,-131.52 375.37,-131.95 377.96,-138.46"/>
</g>
<!-- Node8&#45;&gt;Node3 -->
<g id="edge13" class="edge">
<title>Node8&#45;&gt;Node3</title>
<path fill="none" stroke="midnightblue" d="M335.8,-58.87C296.93,-50.76 226.32,-35.89 156.31,-20.17"/>
<polygon fill="midnightblue" stroke="midnightblue" points="156.96,-16.73 146.44,-17.94 155.43,-23.56 156.96,-16.73"/>
</g>
<!-- Node8&#45;&gt;Node9 -->
<g id="edge11" class="edge">
<title>Node8&#45;&gt;Node9</title>
<path fill="none" stroke="midnightblue" d="M358.31,-56.08C352.17,-48.38 343.14,-37.03 335.67,-27.65"/>
<polygon fill="midnightblue" stroke="midnightblue" points="338.34,-25.39 329.38,-19.75 332.87,-29.75 338.34,-25.39"/>
</g>
<!-- Node8&#45;&gt;Node10 -->
<g id="edge12" class="edge">
<title>Node8&#45;&gt;Node10</title>
<path fill="none" stroke="midnightblue" d="M378.58,-56.32C391.26,-47.98 410.64,-35.21 425.61,-25.35"/>
<polygon fill="midnightblue" stroke="midnightblue" points="427.84,-28.08 434.27,-19.65 423.99,-22.23 427.84,-28.08"/>
</g>
<!-- Node11&#45;&gt;Node3 -->
<g id="edge18" class="edge">
<title>Node11&#45;&gt;Node3</title>
<path fill="none" stroke="midnightblue" d="M231.02,-56.44C208.7,-47.52 173.51,-33.44 148.2,-23.32"/>
<polygon fill="midnightblue" stroke="midnightblue" points="149.28,-19.98 138.7,-19.52 146.68,-26.48 149.28,-19.98"/>
</g>
<!-- Node11&#45;&gt;Node7 -->
<g id="edge17" class="edge">
<title>Node11&#45;&gt;Node7</title>
<path fill="none" stroke="midnightblue" d="M241.32,-56.32C230.92,-48.18 215.15,-35.84 202.69,-26.09"/>
<polygon fill="midnightblue" stroke="midnightblue" points="204.73,-23.24 194.7,-19.83 200.41,-28.75 204.73,-23.24"/>
</g>
<!-- Node11&#45;&gt;Node9 -->
<g id="edge15" class="edge">
<title>Node11&#45;&gt;Node9</title>
<path fill="none" stroke="midnightblue" d="M263.66,-56.32C274.21,-48.18 290.21,-35.84 302.85,-26.09"/>
<polygon fill="midnightblue" stroke="midnightblue" points="305.18,-28.71 310.96,-19.83 300.9,-23.17 305.18,-28.71"/>
</g>
<!-- Node11&#45;&gt;Node10 -->
<g id="edge19" class="edge">
<title>Node11&#45;&gt;Node10</title>
<path fill="none" stroke="midnightblue" d="M279.11,-57.6C312.05,-48.48 368.38,-32.89 406.71,-22.27"/>
<polygon fill="midnightblue" stroke="midnightblue" points="407.83,-25.59 416.53,-19.55 405.96,-18.85 407.83,-25.59"/>
</g>
<!-- Node12 -->
<g id="node12" class="node">
<title>Node12</title>
<g id="a_node12"><a xlink:title=" ">
<polygon fill="white" stroke="#bfbfbf" points="220.41,-0.5 220.41,-19.5 252.41,-19.5 252.41,-0.5 220.41,-0.5"/>
<text text-anchor="middle" x="236.41" y="-7.5" font-family="Helvetica,sans-Serif" font-size="10.00">set</text>
</a>
</g>
</g>
<!-- Node11&#45;&gt;Node12 -->
<g id="edge16" class="edge">
<title>Node11&#45;&gt;Node12</title>
<path fill="none" stroke="midnightblue" d="M249.77,-56.08C247.62,-48.85 244.53,-38.41 241.86,-29.4"/>
<polygon fill="midnightblue" stroke="midnightblue" points="245.2,-28.34 239,-19.75 238.49,-30.33 245.2,-28.34"/>
</g>
<!-- Node13&#45;&gt;Node8 -->
<g id="edge28" class="edge">
<title>Node13&#45;&gt;Node8</title>
<path fill="none" stroke="midnightblue" d="M400.47,-112.08C394.48,-104.38 385.66,-93.03 378.36,-83.65"/>
<polygon fill="midnightblue" stroke="midnightblue" points="381.12,-81.5 372.21,-75.75 375.59,-85.79 381.12,-81.5"/>
</g>
<!-- Node13&#45;&gt;Node11 -->
<g id="edge29" class="edge">
<title>Node13&#45;&gt;Node11</title>
<path fill="none" stroke="midnightblue" d="M382.85,-112.44C356.89,-103.4 315.74,-89.06 286.61,-78.92"/>
<polygon fill="midnightblue" stroke="midnightblue" points="287.45,-75.5 276.85,-75.52 285.15,-82.11 287.45,-75.5"/>
</g>
<!-- Node14 -->
<g id="node14" class="node">
<title>Node14</title>
<g id="a_node14"><a xlink:href="player_8hpp.html" target="_top" xlink:title=" ">
<polygon fill="white" stroke="black" points="533.41,-56.5 533.41,-75.5 601.41,-75.5 601.41,-56.5 533.41,-56.5"/>
<text text-anchor="middle" x="567.41" y="-63.5" font-family="Helvetica,sans-Serif" font-size="10.00">player.hpp</text>
</a>
</g>
</g>
<!-- Node13&#45;&gt;Node14 -->
<g id="edge23" class="edge">
<title>Node13&#45;&gt;Node14</title>
<path fill="none" stroke="midnightblue" d="M432.76,-112.44C459.68,-103.36 502.4,-88.94 532.5,-78.78"/>
<polygon fill="midnightblue" stroke="midnightblue" points="533.82,-82.03 542.17,-75.52 531.58,-75.4 533.82,-82.03"/>
</g>
<!-- Node14&#45;&gt;Node10 -->
<g id="edge27" class="edge">
<title>Node14&#45;&gt;Node10</title>
<path fill="none" stroke="midnightblue" d="M548.39,-56.44C528.82,-47.64 498.1,-33.81 475.68,-23.72"/>
<polygon fill="midnightblue" stroke="midnightblue" points="476.89,-20.43 466.33,-19.52 474.02,-26.81 476.89,-20.43"/>
</g>
<!-- Node15 -->
<g id="node15" class="node">
<title>Node15</title>
<g id="a_node15"><a xlink:title=" ">
<polygon fill="white" stroke="#bfbfbf" points="672.41,-0.5 672.41,-19.5 716.41,-19.5 716.41,-0.5 672.41,-0.5"/>
<text text-anchor="middle" x="694.41" y="-7.5" font-family="Helvetica,sans-Serif" font-size="10.00">string</text>
</a>
</g>
</g>
<!-- Node14&#45;&gt;Node15 -->
<g id="edge24" class="edge">
<title>Node14&#45;&gt;Node15</title>
<path fill="none" stroke="midnightblue" d="M587.53,-56.44C608.43,-47.56 641.34,-33.56 665.12,-23.45"/>
<polygon fill="midnightblue" stroke="midnightblue" points="666.55,-26.65 674.38,-19.52 663.81,-20.21 666.55,-26.65"/>
</g>
<!-- Node14&#45;&gt;Node16 -->
<g id="edge25" class="edge">
<title>Node14&#45;&gt;Node16</title>
<path fill="none" stroke="midnightblue" d="M598.62,-56.44C632.64,-47.12 687.16,-32.17 724.32,-21.99"/>
<polygon fill="midnightblue" stroke="midnightblue" points="725.59,-25.27 734.31,-19.25 723.74,-18.52 725.59,-25.27"/>
</g>
<!-- Node17 -->
<g id="node17" class="node">
<title>Node17</title>
<g id="a_node17"><a xlink:title=" ">
<polygon fill="white" stroke="#bfbfbf" points="520.41,-0.5 520.41,-19.5 654.41,-19.5 654.41,-0.5 520.41,-0.5"/>
<text text-anchor="middle" x="587.41" y="-7.5" font-family="Helvetica,sans-Serif" font-size="10.00">websocketpp/server.hpp</text>
</a>
</g>
</g>
<!-- Node14&#45;&gt;Node17 -->
<g id="edge26" class="edge">
<title>Node14&#45;&gt;Node17</title>
<path fill="none" stroke="midnightblue" d="M570.71,-56.08C573.39,-48.85 577.26,-38.41 580.59,-29.4"/>
<polygon fill="midnightblue" stroke="midnightblue" points="583.98,-30.34 584.17,-19.75 577.41,-27.91 583.98,-30.34"/>
</g>
</g>
</svg>
        <g id="navigator" transform="translate(0 0)" fill="#404254">
                <rect fill="#f2f5e9" fill-opacity="0.5" stroke="#606060" stroke-width=".5" x="0" y="0" width="60" height="60"/>
                <use id="zoomplus" xlink:href="#zoomPlus" x="17" y="9" onmousedown="handleZoom(evt,'in')"/>
                <use id="zoomminus" xlink:href="#zoomMin" x="42" y="9" onmousedown="handleZoom(evt,'out')"/>
                <use id="reset" xlink:href="#resetDef" x="30" y="36" onmousedown="handleReset()"/>
                <g id="arrowUp" xlink:href="#dirArrow" transform="translate(30 24)" onmousedown="handlePan(0,-1)">
                  <use xlink:href="#rim" fill="#404040">
                        <set attributeName="fill" to="#808080" begin="arrowUp.mouseover" end="arrowUp.mouseout"/>
                  </use>
                  <path fill="none" stroke="white" stroke-width="1.5" d="M0,-3.0v7 M-2.5,-0.5L0,-3.0L2.5,-0.5"/>
                </g>
                <g id="arrowRight" xlink:href="#dirArrow" transform="rotate(90) translate(36 -43)" onmousedown="handlePan(1,0)">
                  <use xlink:href="#rim" fill="#404040">
                        <set attributeName="fill" to="#808080" begin="arrowRight.mouseover" end="arrowRight.mouseout"/>
                  </use>
                  <path fill="none" stroke="white" stroke-width="1.5" d="M0,-3.0v7 M-2.5,-0.5L0,-3.0L2.5,-0.5"/>
                </g>
                <g id="arrowDown" xlink:href="#dirArrow" transform="rotate(180) translate(-30 -48)" onmousedown="handlePan(0,1)">
                  <use xlink:href="#rim" fill="#404040">
                        <set attributeName="fill" to="#808080" begin="arrowDown.mouseover" end="arrowDown.mouseout"/>
                  </use>
                  <path fill="none" stroke="white" stroke-width="1.5" d="M0,-3.0v7 M-2.5,-0.5L0,-3.0L2.5,-0.5"/>
                </g>
                <g id="arrowLeft" xlink:href="#dirArrow" transform="rotate(270) translate(-36 17)" onmousedown="handlePan(-1,0)">
                  <use xlink:href="#rim" fill="#404040">
                        <set attributeName="fill" to="#808080" begin="arrowLeft.mouseover" end="arrowLeft.mouseout"/>
                  </use>
                  <path fill="none" stroke="white" stroke-width="1.5" d="M0,-3.0v7 M-2.5,-0.5L0,-3.0L2.5,-0.5"/>
                </g>
        </g>
        <svg viewBox="0 0 15 15" width="100%" height="30px" preserveAspectRatio="xMaxYMin meet">
         <g id="arrow_out" transform="scale(0.3 0.3)">
          <a xlink:href="gamestate_8cpp__incl_org.svg" target="_base">
           <rect id="button" ry="5" rx="5" y="6" x="6" height="38" width="38"
                fill="#f2f5e9" fill-opacity="0.5" stroke="#606060" stroke-width="1.0"/>
           <path id="arrow"
             d="M 11.500037,31.436501 C 11.940474,20.09759 22.043105,11.32322 32.158766,21.979434 L 37.068811,17.246167 C 37.068811,17.246167 37.088388,32 37.088388,32 L 22.160133,31.978069 C 22.160133,31.978069 26.997745,27.140456 26.997745,27.140456 C 18.528582,18.264221 13.291696,25.230495 11.500037,31.436501 z"
             style="fill:#404040;"/>
          </a>
         </g>
        </svg>
</svg>
