<?xml version="1.0" encoding="UTF-8" standalone="no"?>
<!DOCTYPE svg PUBLIC "-//W3C//DTD SVG 1.1//EN"
 "http://www.w3.org/Graphics/SVG/1.1/DTD/svg11.dtd">
<!-- Generated by graphviz version 2.43.0 (0)
 -->
<!-- Title: Graphical Class Hierarchy Pages: 1 -->
<svg width="267pt" height="66pt"
 viewBox="0.00 0.00 267.00 66.00" xmlns="http://www.w3.org/2000/svg" xmlns:xlink="http://www.w3.org/1999/xlink">
<g id="graph0" class="graph" transform="scale(1 1) rotate(0) translate(4 62)">
<title>Graphical Class Hierarchy</title>
<polygon fill="white" stroke="transparent" points="-4,4 -4,-62 263,-62 263,4 -4,4"/>
<!-- Node10 -->
<g id="node1" class="node">
<title>Node10</title>
<g id="a_node1"><a xlink:title=" ">
<polygon fill="white" stroke="#bfbfbf" points="0,-19.5 0,-38.5 140,-38.5 140,-19.5 0,-19.5"/>
<text text-anchor="middle" x="70" y="-26.5" font-family="Helvetica,sans-Serif" font-size="10.00">enable_shared_from_this</text>
</a>
</g>
</g>
<!-- Node0 -->
<g id="node2" class="node">
<title>Node0</title>
<g id="a_node2"><a xlink:href="classGalaxy.html" target="_top" xlink:title="Main class of this project. Manages all ressources.">
<polygon fill="white" stroke="black" points="192,-38.5 192,-57.5 243,-57.5 243,-38.5 192,-38.5"/>
<text text-anchor="middle" x="217.5" y="-45.5" font-family="Helvetica,sans-Serif" font-size="10.00">Galaxy</text>
</a>
</g>
</g>
<!-- Node10&#45;&gt;Node0 -->
<g id="edge1" class="edge">
<title>Node10&#45;&gt;Node0</title>
<path fill="none" stroke="midnightblue" d="M150.28,-39.35C165.38,-41.32 180.09,-43.25 191.8,-44.77"/>
<polygon fill="midnightblue" stroke="midnightblue" points="150.71,-35.88 140.34,-38.05 149.8,-42.82 150.71,-35.88"/>
</g>
<!-- Node12 -->
<g id="node3" class="node">
<title>Node12</title>
<g id="a_node3"><a xlink:href="classGameChange.html" target="_top" xlink:title="Represents an atomic change to the gamestate. Can be reverted, once applied.">
<polygon fill="white" stroke="black" points="176,-0.5 176,-19.5 259,-19.5 259,-0.5 176,-0.5"/>
<text text-anchor="middle" x="217.5" y="-7.5" font-family="Helvetica,sans-Serif" font-size="10.00">GameChange</text>
</a>
</g>
</g>
<!-- Node10&#45;&gt;Node12 -->
<g id="edge2" class="edge">
<title>Node10&#45;&gt;Node12</title>
<path fill="none" stroke="midnightblue" d="M150.31,-18.64C159.11,-17.49 167.79,-16.36 175.81,-15.31"/>
<polygon fill="midnightblue" stroke="midnightblue" points="149.8,-15.18 140.34,-19.95 150.71,-22.12 149.8,-15.18"/>
</g>
</g>
</svg>
