<?xml version="1.0" encoding="UTF-8" standalone="no"?>
<!DOCTYPE svg PUBLIC "-//W3C//DTD SVG 1.1//EN"
 "http://www.w3.org/Graphics/SVG/1.1/DTD/svg11.dtd">
<!-- Generated by graphviz version 2.43.0 (0)
 -->
<!-- Title: include/json_schemas.hpp Pages: 1 -->
<svg width="424pt" height="196pt"
 viewBox="0.00 0.00 424.00 196.00" xmlns="http://www.w3.org/2000/svg" xmlns:xlink="http://www.w3.org/1999/xlink">
<g id="graph0" class="graph" transform="scale(1 1) rotate(0) translate(4 192)">
<title>include/json_schemas.hpp</title>
<polygon fill="white" stroke="transparent" points="-4,4 -4,-192 420,-192 420,4 -4,4"/>
<!-- Node1 -->
<g id="node1" class="node">
<title>Node1</title>
<g id="a_node1"><a xlink:title=" ">
<polygon fill="#bfbfbf" stroke="black" points="13.5,-168.5 13.5,-187.5 158.5,-187.5 158.5,-168.5 13.5,-168.5"/>
<text text-anchor="middle" x="86" y="-175.5" font-family="Helvetica,sans-Serif" font-size="10.00">include/json_schemas.hpp</text>
</a>
</g>
</g>
<!-- Node2 -->
<g id="node2" class="node">
<title>Node2</title>
<g id="a_node2"><a xlink:href="network_8hpp.html" target="_top" xlink:title=" ">
<polygon fill="white" stroke="black" points="88,-112.5 88,-131.5 204,-131.5 204,-112.5 88,-112.5"/>
<text text-anchor="middle" x="146" y="-119.5" font-family="Helvetica,sans-Serif" font-size="10.00">include/network.hpp</text>
</a>
</g>
</g>
<!-- Node1&#45;&gt;Node2 -->
<g id="edge1" class="edge">
<title>Node1&#45;&gt;Node2</title>
<path fill="none" stroke="midnightblue" d="M103.18,-161.54C113.88,-151.91 127.26,-139.87 136.18,-131.83"/>
<polygon fill="midnightblue" stroke="midnightblue" points="100.73,-159.03 95.64,-168.32 105.41,-164.24 100.73,-159.03"/>
</g>
<!-- Node5 -->
<g id="node5" class="node">
<title>Node5</title>
<g id="a_node5"><a xlink:href="galaxy_8cpp.html" target="_top" xlink:title=" ">
<polygon fill="white" stroke="black" points="0,-0.5 0,-19.5 86,-19.5 86,-0.5 0,-0.5"/>
<text text-anchor="middle" x="43" y="-7.5" font-family="Helvetica,sans-Serif" font-size="10.00">src/galaxy.cpp</text>
</a>
</g>
</g>
<!-- Node1&#45;&gt;Node5 -->
<g id="edge9" class="edge">
<title>Node1&#45;&gt;Node5</title>
<path fill="none" stroke="midnightblue" d="M81.06,-157.93C71.73,-121.92 51.87,-45.23 45.22,-19.57"/>
<polygon fill="midnightblue" stroke="midnightblue" points="77.79,-159.27 83.69,-168.08 84.57,-157.52 77.79,-159.27"/>
</g>
<!-- Node3 -->
<g id="node3" class="node">
<title>Node3</title>
<g id="a_node3"><a xlink:href="galaxy_8hpp.html" target="_top" xlink:title=" ">
<polygon fill="white" stroke="black" points="109.5,-56.5 109.5,-75.5 216.5,-75.5 216.5,-56.5 109.5,-56.5"/>
<text text-anchor="middle" x="163" y="-63.5" font-family="Helvetica,sans-Serif" font-size="10.00">include/galaxy.hpp</text>
</a>
</g>
</g>
<!-- Node2&#45;&gt;Node3 -->
<g id="edge2" class="edge">
<title>Node2&#45;&gt;Node3</title>
<path fill="none" stroke="midnightblue" d="M151.86,-102.4C154.7,-93.36 157.98,-82.94 160.25,-75.75"/>
<polygon fill="midnightblue" stroke="midnightblue" points="148.47,-101.49 148.81,-112.08 155.15,-103.6 148.47,-101.49"/>
</g>
<!-- Node2&#45;&gt;Node5 -->
<g id="edge7" class="edge">
<title>Node2&#45;&gt;Node5</title>
<path fill="none" stroke="midnightblue" d="M129.63,-105.08C121,-96.57 110.29,-85.84 101,-76 82.31,-56.21 61.23,-32.12 50.36,-19.55"/>
<polygon fill="midnightblue" stroke="midnightblue" points="127.29,-107.68 136.88,-112.18 132.19,-102.68 127.29,-107.68"/>
</g>
<!-- Node6 -->
<g id="node6" class="node">
<title>Node6</title>
<g id="a_node6"><a xlink:href="network_8cpp.html" target="_top" xlink:title=" ">
<polygon fill="white" stroke="black" points="322,-0.5 322,-19.5 416,-19.5 416,-0.5 322,-0.5"/>
<text text-anchor="middle" x="369" y="-7.5" font-family="Helvetica,sans-Serif" font-size="10.00">src/network.cpp</text>
</a>
</g>
</g>
<!-- Node2&#45;&gt;Node6 -->
<g id="edge8" class="edge">
<title>Node2&#45;&gt;Node6</title>
<path fill="none" stroke="midnightblue" d="M172.6,-107.88C218.82,-85.08 312.74,-38.75 351.58,-19.59"/>
<polygon fill="midnightblue" stroke="midnightblue" points="170.92,-104.81 163.5,-112.37 174.02,-111.08 170.92,-104.81"/>
</g>
<!-- Node4 -->
<g id="node4" class="node">
<title>Node4</title>
<g id="a_node4"><a xlink:href="main_8cpp.html" target="_top" xlink:title=" ">
<polygon fill="white" stroke="black" points="104,-0.5 104,-19.5 166,-19.5 166,-0.5 104,-0.5"/>
<text text-anchor="middle" x="135" y="-7.5" font-family="Helvetica,sans-Serif" font-size="10.00">main.cpp</text>
</a>
</g>
</g>
<!-- Node3&#45;&gt;Node4 -->
<g id="edge3" class="edge">
<title>Node3&#45;&gt;Node4</title>
<path fill="none" stroke="midnightblue" d="M153.66,-46.98C148.91,-37.82 143.34,-27.09 139.54,-19.75"/>
<polygon fill="midnightblue" stroke="midnightblue" points="150.67,-48.82 158.38,-56.08 156.88,-45.59 150.67,-48.82"/>
</g>
<!-- Node3&#45;&gt;Node5 -->
<g id="edge4" class="edge">
<title>Node3&#45;&gt;Node5</title>
<path fill="none" stroke="midnightblue" d="M134.63,-52.23C112.18,-42.13 81.46,-28.31 61.93,-19.52"/>
<polygon fill="midnightblue" stroke="midnightblue" points="133.43,-55.53 143.99,-56.44 136.3,-49.15 133.43,-55.53"/>
</g>
<!-- Node3&#45;&gt;Node6 -->
<g id="edge5" class="edge">
<title>Node3&#45;&gt;Node6</title>
<path fill="none" stroke="midnightblue" d="M205.62,-53.83C244.51,-43.63 301.16,-28.78 336.51,-19.52"/>
<polygon fill="midnightblue" stroke="midnightblue" points="204.43,-50.52 195.64,-56.44 206.2,-57.29 204.43,-50.52"/>
</g>
<!-- Node7 -->
<g id="node7" class="node">
<title>Node7</title>
<g id="a_node7"><a xlink:href="newgamepoll_8cpp.html" target="_top" xlink:title=" ">
<polygon fill="white" stroke="black" points="184,-0.5 184,-19.5 304,-19.5 304,-0.5 184,-0.5"/>
<text text-anchor="middle" x="244" y="-7.5" font-family="Helvetica,sans-Serif" font-size="10.00">src/newgamepoll.cpp</text>
</a>
</g>
</g>
<!-- Node3&#45;&gt;Node7 -->
<g id="edge6" class="edge">
<title>Node3&#45;&gt;Node7</title>
<path fill="none" stroke="midnightblue" d="M184.57,-50.62C199.36,-40.76 218.51,-27.99 231.02,-19.65"/>
<polygon fill="midnightblue" stroke="midnightblue" points="182.39,-47.86 176.01,-56.32 186.28,-53.69 182.39,-47.86"/>
</g>
</g>
</svg>
