<?xml version="1.0" encoding="UTF-8" standalone="no"?>
<!DOCTYPE svg PUBLIC "-//W3C//DTD SVG 1.1//EN"
 "http://www.w3.org/Graphics/SVG/1.1/DTD/svg11.dtd">
<!-- Generated by graphviz version 2.43.0 (0)
 -->
<!-- Title: main.cpp Pages: 1 -->
<svg width="1539pt" height="319pt"
 viewBox="0.00 0.00 1539.00 319.00" xmlns="http://www.w3.org/2000/svg" xmlns:xlink="http://www.w3.org/1999/xlink">
<g id="graph0" class="graph" transform="scale(1 1) rotate(0) translate(4 315)">
<title>main.cpp</title>
<polygon fill="white" stroke="transparent" points="-4,4 -4,-315 1535,-315 1535,4 -4,4"/>
<!-- Node1 -->
<g id="node1" class="node">
<title>Node1</title>
<g id="a_node1"><a xlink:title=" ">
<polygon fill="#bfbfbf" stroke="black" points="1263,-291.5 1263,-310.5 1325,-310.5 1325,-291.5 1263,-291.5"/>
<text text-anchor="middle" x="1294" y="-298.5" font-family="Helvetica,sans-Serif" font-size="10.00">main.cpp</text>
</a>
</g>
</g>
<!-- Node2 -->
<g id="node2" class="node">
<title>Node2</title>
<g id="a_node2"><a xlink:title=" ">
<polygon fill="white" stroke="#bfbfbf" points="1414,-0.5 1414,-19.5 1474,-19.5 1474,-0.5 1414,-0.5"/>
<text text-anchor="middle" x="1444" y="-7.5" font-family="Helvetica,sans-Serif" font-size="10.00">iostream</text>
</a>
</g>
</g>
<!-- Node1&#45;&gt;Node2 -->
<g id="edge1" class="edge">
<title>Node1&#45;&gt;Node2</title>
<path fill="none" stroke="midnightblue" d="M1325.17,-297.18C1377.77,-291.83 1481.07,-278.57 1508,-255 1531.06,-234.82 1531,-220.64 1531,-190 1531,-190 1531,-190 1531,-126.5 1531,-94.05 1530.98,-82.32 1512,-56 1502.25,-42.47 1487.07,-31.86 1473.52,-24.36"/>
<polygon fill="midnightblue" stroke="midnightblue" points="1474.98,-21.17 1464.5,-19.65 1471.75,-27.38 1474.98,-21.17"/>
</g>
<!-- Node3 -->
<g id="node3" class="node">
<title>Node3</title>
<g id="a_node3"><a xlink:href="gamestate_8hpp.html" target="_top" xlink:title=" ">
<polygon fill="white" stroke="black" points="208,-179.5 208,-198.5 298,-198.5 298,-179.5 208,-179.5"/>
<text text-anchor="middle" x="253" y="-186.5" font-family="Helvetica,sans-Serif" font-size="10.00">gamestate.hpp</text>
</a>
</g>
</g>
<!-- Node1&#45;&gt;Node3 -->
<g id="edge2" class="edge">
<title>Node1&#45;&gt;Node3</title>
<path fill="none" stroke="midnightblue" d="M1262.86,-298.48C1173.61,-293.95 909.32,-279.31 691,-255 552.75,-239.6 391.1,-213.5 308.21,-199.51"/>
<polygon fill="midnightblue" stroke="midnightblue" points="308.7,-196.05 298.26,-197.83 307.53,-202.95 308.7,-196.05"/>
</g>
<!-- Node17 -->
<g id="node17" class="node">
<title>Node17</title>
<g id="a_node17"><a xlink:href="galaxy_8hpp.html" target="_top" xlink:title=" ">
<polygon fill="white" stroke="black" points="700.5,-235.5 700.5,-254.5 769.5,-254.5 769.5,-235.5 700.5,-235.5"/>
<text text-anchor="middle" x="735" y="-242.5" font-family="Helvetica,sans-Serif" font-size="10.00">galaxy.hpp</text>
</a>
</g>
</g>
<!-- Node1&#45;&gt;Node17 -->
<g id="edge27" class="edge">
<title>Node1&#45;&gt;Node17</title>
<path fill="none" stroke="midnightblue" d="M1262.75,-296.98C1168.86,-287.91 889.06,-260.88 779.6,-250.31"/>
<polygon fill="midnightblue" stroke="midnightblue" points="779.84,-246.82 769.55,-249.34 779.17,-253.78 779.84,-246.82"/>
</g>
<!-- Node28 -->
<g id="node28" class="node">
<title>Node28</title>
<g id="a_node28"><a xlink:title=" ">
<polygon fill="white" stroke="#bfbfbf" points="1230.5,-235.5 1230.5,-254.5 1285.5,-254.5 1285.5,-235.5 1230.5,-235.5"/>
<text text-anchor="middle" x="1258" y="-242.5" font-family="Helvetica,sans-Serif" font-size="10.00">signal.h</text>
</a>
</g>
</g>
<!-- Node1&#45;&gt;Node28 -->
<g id="edge50" class="edge">
<title>Node1&#45;&gt;Node28</title>
<path fill="none" stroke="midnightblue" d="M1288.06,-291.08C1283.02,-283.53 1275.66,-272.49 1269.49,-263.23"/>
<polygon fill="midnightblue" stroke="midnightblue" points="1272.29,-261.13 1263.83,-254.75 1266.47,-265.01 1272.29,-261.13"/>
</g>
<!-- Node29 -->
<g id="node29" class="node">
<title>Node29</title>
<g id="a_node29"><a xlink:title=" ">
<polygon fill="white" stroke="#bfbfbf" points="1303.5,-235.5 1303.5,-254.5 1356.5,-254.5 1356.5,-235.5 1303.5,-235.5"/>
<text text-anchor="middle" x="1330" y="-242.5" font-family="Helvetica,sans-Serif" font-size="10.00">stdlib.h</text>
</a>
</g>
</g>
<!-- Node1&#45;&gt;Node29 -->
<g id="edge51" class="edge">
<title>Node1&#45;&gt;Node29</title>
<path fill="none" stroke="midnightblue" d="M1299.94,-291.08C1304.98,-283.53 1312.34,-272.49 1318.51,-263.23"/>
<polygon fill="midnightblue" stroke="midnightblue" points="1321.53,-265.01 1324.17,-254.75 1315.71,-261.13 1321.53,-265.01"/>
</g>
<!-- Node30 -->
<g id="node30" class="node">
<title>Node30</title>
<g id="a_node30"><a xlink:title=" ">
<polygon fill="white" stroke="#bfbfbf" points="1375,-235.5 1375,-254.5 1425,-254.5 1425,-235.5 1375,-235.5"/>
<text text-anchor="middle" x="1400" y="-242.5" font-family="Helvetica,sans-Serif" font-size="10.00">stdio.h</text>
</a>
</g>
</g>
<!-- Node1&#45;&gt;Node30 -->
<g id="edge52" class="edge">
<title>Node1&#45;&gt;Node30</title>
<path fill="none" stroke="midnightblue" d="M1311.03,-291.32C1328.03,-282.66 1354.38,-269.24 1373.99,-259.25"/>
<polygon fill="midnightblue" stroke="midnightblue" points="1375.69,-262.31 1383.01,-254.65 1372.51,-256.08 1375.69,-262.31"/>
</g>
<!-- Node31 -->
<g id="node31" class="node">
<title>Node31</title>
<g id="a_node31"><a xlink:title=" ">
<polygon fill="white" stroke="#bfbfbf" points="1443,-235.5 1443,-254.5 1499,-254.5 1499,-235.5 1443,-235.5"/>
<text text-anchor="middle" x="1471" y="-242.5" font-family="Helvetica,sans-Serif" font-size="10.00">unistd.h</text>
</a>
</g>
</g>
<!-- Node1&#45;&gt;Node31 -->
<g id="edge53" class="edge">
<title>Node1&#45;&gt;Node31</title>
<path fill="none" stroke="midnightblue" d="M1322.05,-291.44C1352.08,-282.28 1399.91,-267.69 1433.24,-257.52"/>
<polygon fill="midnightblue" stroke="midnightblue" points="1434.54,-260.78 1443.09,-254.52 1432.5,-254.09 1434.54,-260.78"/>
</g>
<!-- Node32 -->
<g id="node32" class="node">
<title>Node32</title>
<g id="a_node32"><a xlink:href="debug__functions_8hpp.html" target="_top" xlink:title=" ">
<polygon fill="white" stroke="black" points="1385,-56.5 1385,-75.5 1503,-75.5 1503,-56.5 1385,-56.5"/>
<text text-anchor="middle" x="1444" y="-63.5" font-family="Helvetica,sans-Serif" font-size="10.00">debug_functions.hpp</text>
</a>
</g>
</g>
<!-- Node1&#45;&gt;Node32 -->
<g id="edge54" class="edge">
<title>Node1&#45;&gt;Node32</title>
<path fill="none" stroke="midnightblue" d="M1270,-291.47C1244.12,-280.77 1208.2,-260.66 1221,-235 1261.34,-154.11 1361.24,-101.92 1412.52,-79.54"/>
<polygon fill="midnightblue" stroke="midnightblue" points="1413.97,-82.73 1421.8,-75.59 1411.23,-76.29 1413.97,-82.73"/>
</g>
<!-- Node4 -->
<g id="node4" class="node">
<title>Node4</title>
<g id="a_node4"><a xlink:title=" ">
<polygon fill="white" stroke="#bfbfbf" points="160.5,-118 160.5,-137 207.5,-137 207.5,-118 160.5,-118"/>
<text text-anchor="middle" x="184" y="-125" font-family="Helvetica,sans-Serif" font-size="10.00">vector</text>
</a>
</g>
</g>
<!-- Node3&#45;&gt;Node4 -->
<g id="edge3" class="edge">
<title>Node3&#45;&gt;Node4</title>
<path fill="none" stroke="midnightblue" d="M243.11,-179.48C232.35,-170.2 214.93,-155.17 201.78,-143.83"/>
<polygon fill="midnightblue" stroke="midnightblue" points="203.73,-140.89 193.87,-137.01 199.16,-146.19 203.73,-140.89"/>
</g>
<!-- Node5 -->
<g id="node5" class="node">
<title>Node5</title>
<g id="a_node5"><a xlink:title=" ">
<polygon fill="white" stroke="#bfbfbf" points="0,-0.5 0,-19.5 38,-19.5 38,-0.5 0,-0.5"/>
<text text-anchor="middle" x="19" y="-7.5" font-family="Helvetica,sans-Serif" font-size="10.00">map</text>
</a>
</g>
</g>
<!-- Node3&#45;&gt;Node5 -->
<g id="edge4" class="edge">
<title>Node3&#45;&gt;Node5</title>
<path fill="none" stroke="midnightblue" d="M207.9,-187.73C168.02,-185.16 110.5,-175.47 73,-143 38.63,-113.24 25.78,-58.26 21.27,-29.55"/>
<polygon fill="midnightblue" stroke="midnightblue" points="24.73,-29.04 19.88,-19.63 17.8,-30.01 24.73,-29.04"/>
</g>
<!-- Node6 -->
<g id="node6" class="node">
<title>Node6</title>
<g id="a_node6"><a xlink:title=" ">
<polygon fill="white" stroke="#bfbfbf" points="254,-0.5 254,-19.5 312,-19.5 312,-0.5 254,-0.5"/>
<text text-anchor="middle" x="283" y="-7.5" font-family="Helvetica,sans-Serif" font-size="10.00">memory</text>
</a>
</g>
</g>
<!-- Node3&#45;&gt;Node6 -->
<g id="edge5" class="edge">
<title>Node3&#45;&gt;Node6</title>
<path fill="none" stroke="midnightblue" d="M207.96,-179.87C186.89,-173.56 163.68,-162.46 151,-143 143.48,-131.46 144.9,-124.35 151,-112 172.14,-69.21 221.06,-39.55 253.04,-23.92"/>
<polygon fill="midnightblue" stroke="midnightblue" points="254.82,-26.95 262.37,-19.52 251.84,-20.62 254.82,-26.95"/>
</g>
<!-- Node7 -->
<g id="node7" class="node">
<title>Node7</title>
<g id="a_node7"><a xlink:title=" ">
<polygon fill="white" stroke="#bfbfbf" points="226,-118 226,-137 280,-137 280,-118 226,-118"/>
<text text-anchor="middle" x="253" y="-125" font-family="Helvetica,sans-Serif" font-size="10.00">random</text>
</a>
</g>
</g>
<!-- Node3&#45;&gt;Node7 -->
<g id="edge6" class="edge">
<title>Node3&#45;&gt;Node7</title>
<path fill="none" stroke="midnightblue" d="M253,-179.48C253,-171.08 253,-157.98 253,-147.16"/>
<polygon fill="midnightblue" stroke="midnightblue" points="256.5,-147.01 253,-137.01 249.5,-147.01 256.5,-147.01"/>
</g>
<!-- Node8 -->
<g id="node8" class="node">
<title>Node8</title>
<g id="a_node8"><a xlink:href="field_8hpp.html" target="_top" xlink:title=" ">
<polygon fill="white" stroke="black" points="278.5,-56.5 278.5,-75.5 337.5,-75.5 337.5,-56.5 278.5,-56.5"/>
<text text-anchor="middle" x="308" y="-63.5" font-family="Helvetica,sans-Serif" font-size="10.00">field.hpp</text>
</a>
</g>
</g>
<!-- Node3&#45;&gt;Node8 -->
<g id="edge7" class="edge">
<title>Node3&#45;&gt;Node8</title>
<path fill="none" stroke="midnightblue" d="M261.7,-179.49C269.92,-170.99 281.98,-157.17 289,-143 298.03,-124.76 303,-101.87 305.57,-86"/>
<polygon fill="midnightblue" stroke="midnightblue" points="309.07,-86.25 307.03,-75.85 302.14,-85.25 309.07,-86.25"/>
</g>
<!-- Node9 -->
<g id="node9" class="node">
<title>Node9</title>
<g id="a_node9"><a xlink:href="position__type_8hpp.html" target="_top" xlink:title=" ">
<polygon fill="white" stroke="black" points="57,-0.5 57,-19.5 161,-19.5 161,-0.5 57,-0.5"/>
<text text-anchor="middle" x="109" y="-7.5" font-family="Helvetica,sans-Serif" font-size="10.00">position_type.hpp</text>
</a>
</g>
</g>
<!-- Node3&#45;&gt;Node9 -->
<g id="edge17" class="edge">
<title>Node3&#45;&gt;Node9</title>
<path fill="none" stroke="midnightblue" d="M207.67,-184.6C175,-179.93 131.79,-168.93 103,-143 72.82,-115.82 62.09,-94.51 75,-56 78.6,-45.25 85.9,-35.02 92.82,-27.04"/>
<polygon fill="midnightblue" stroke="midnightblue" points="95.48,-29.32 99.71,-19.61 90.35,-24.56 95.48,-29.32"/>
</g>
<!-- Node10 -->
<g id="node10" class="node">
<title>Node10</title>
<g id="a_node10"><a xlink:title=" ">
<polygon fill="white" stroke="#bfbfbf" points="487,-0.5 487,-19.5 597,-19.5 597,-0.5 487,-0.5"/>
<text text-anchor="middle" x="542" y="-7.5" font-family="Helvetica,sans-Serif" font-size="10.00">nlohmann/json.hpp</text>
</a>
</g>
</g>
<!-- Node3&#45;&gt;Node10 -->
<g id="edge18" class="edge">
<title>Node3&#45;&gt;Node10</title>
<path fill="none" stroke="midnightblue" d="M298.26,-186.31C339.78,-182.82 401.41,-172.57 446,-143 489.75,-113.99 520.45,-57.84 534.08,-29.03"/>
<polygon fill="midnightblue" stroke="midnightblue" points="537.35,-30.3 538.32,-19.75 530.98,-27.39 537.35,-30.3"/>
</g>
<!-- Node11 -->
<g id="node11" class="node">
<title>Node11</title>
<g id="a_node11"><a xlink:href="dot_8hpp.html" target="_top" xlink:title=" ">
<polygon fill="white" stroke="black" points="84.5,-56.5 84.5,-75.5 137.5,-75.5 137.5,-56.5 84.5,-56.5"/>
<text text-anchor="middle" x="111" y="-63.5" font-family="Helvetica,sans-Serif" font-size="10.00">dot.hpp</text>
</a>
</g>
</g>
<!-- Node3&#45;&gt;Node11 -->
<g id="edge11" class="edge">
<title>Node3&#45;&gt;Node11</title>
<path fill="none" stroke="midnightblue" d="M207.88,-185.3C177.58,-180.94 139.41,-170 118,-143 105.29,-126.97 105.36,-102.64 107.42,-85.84"/>
<polygon fill="midnightblue" stroke="midnightblue" points="110.94,-86.04 109.04,-75.62 104.02,-84.95 110.94,-86.04"/>
</g>
<!-- Node13 -->
<g id="node13" class="node">
<title>Node13</title>
<g id="a_node13"><a xlink:href="gamechange_8hpp.html" target="_top" xlink:title=" ">
<polygon fill="white" stroke="black" points="336.5,-118 336.5,-137 437.5,-137 437.5,-118 336.5,-118"/>
<text text-anchor="middle" x="387" y="-125" font-family="Helvetica,sans-Serif" font-size="10.00">gamechange.hpp</text>
</a>
</g>
</g>
<!-- Node3&#45;&gt;Node13 -->
<g id="edge19" class="edge">
<title>Node3&#45;&gt;Node13</title>
<path fill="none" stroke="midnightblue" d="M272.2,-179.48C294.79,-169.45 332.5,-152.7 358.5,-141.15"/>
<polygon fill="midnightblue" stroke="midnightblue" points="360.12,-144.27 367.84,-137.01 357.28,-137.87 360.12,-144.27"/>
</g>
<!-- Node8&#45;&gt;Node6 -->
<g id="edge10" class="edge">
<title>Node8&#45;&gt;Node6</title>
<path fill="none" stroke="midnightblue" d="M303.87,-56.08C300.49,-48.77 295.58,-38.18 291.38,-29.1"/>
<polygon fill="midnightblue" stroke="midnightblue" points="294.43,-27.36 287.05,-19.75 288.08,-30.3 294.43,-27.36"/>
</g>
<!-- Node8&#45;&gt;Node9 -->
<g id="edge8" class="edge">
<title>Node8&#45;&gt;Node9</title>
<path fill="none" stroke="midnightblue" d="M278.21,-56.92C244.27,-47.71 188.58,-32.59 150.42,-22.24"/>
<polygon fill="midnightblue" stroke="midnightblue" points="151.21,-18.83 140.64,-19.59 149.38,-25.58 151.21,-18.83"/>
</g>
<!-- Node8&#45;&gt;Node10 -->
<g id="edge9" class="edge">
<title>Node8&#45;&gt;Node10</title>
<path fill="none" stroke="midnightblue" d="M337.64,-58.16C377.28,-49.01 448.01,-32.69 494.97,-21.85"/>
<polygon fill="midnightblue" stroke="midnightblue" points="495.94,-25.22 504.9,-19.56 494.37,-18.4 495.94,-25.22"/>
</g>
<!-- Node11&#45;&gt;Node5 -->
<g id="edge14" class="edge">
<title>Node11&#45;&gt;Node5</title>
<path fill="none" stroke="midnightblue" d="M96.22,-56.32C81.73,-47.82 59.43,-34.73 42.51,-24.8"/>
<polygon fill="midnightblue" stroke="midnightblue" points="44.14,-21.7 33.74,-19.65 40.6,-27.74 44.14,-21.7"/>
</g>
<!-- Node11&#45;&gt;Node6 -->
<g id="edge15" class="edge">
<title>Node11&#45;&gt;Node6</title>
<path fill="none" stroke="midnightblue" d="M137.88,-56.56C166.99,-47.42 213.62,-32.78 246.14,-22.57"/>
<polygon fill="midnightblue" stroke="midnightblue" points="247.25,-25.89 255.75,-19.56 245.16,-19.21 247.25,-25.89"/>
</g>
<!-- Node11&#45;&gt;Node9 -->
<g id="edge12" class="edge">
<title>Node11&#45;&gt;Node9</title>
<path fill="none" stroke="midnightblue" d="M110.67,-56.08C110.41,-49.01 110.03,-38.86 109.7,-29.99"/>
<polygon fill="midnightblue" stroke="midnightblue" points="113.19,-29.61 109.32,-19.75 106.2,-29.87 113.19,-29.61"/>
</g>
<!-- Node11&#45;&gt;Node10 -->
<g id="edge16" class="edge">
<title>Node11&#45;&gt;Node10</title>
<path fill="none" stroke="midnightblue" d="M137.64,-61.66C204.39,-53.3 380.39,-31.25 476.72,-19.18"/>
<polygon fill="midnightblue" stroke="midnightblue" points="477.43,-22.62 486.92,-17.9 476.56,-15.67 477.43,-22.62"/>
</g>
<!-- Node12 -->
<g id="node12" class="node">
<title>Node12</title>
<g id="a_node12"><a xlink:title=" ">
<polygon fill="white" stroke="#bfbfbf" points="179,-0.5 179,-19.5 211,-19.5 211,-0.5 179,-0.5"/>
<text text-anchor="middle" x="195" y="-7.5" font-family="Helvetica,sans-Serif" font-size="10.00">set</text>
</a>
</g>
</g>
<!-- Node11&#45;&gt;Node12 -->
<g id="edge13" class="edge">
<title>Node11&#45;&gt;Node12</title>
<path fill="none" stroke="midnightblue" d="M124.5,-56.32C137.6,-47.9 157.71,-34.97 173.11,-25.07"/>
<polygon fill="midnightblue" stroke="midnightblue" points="175.02,-28.01 181.54,-19.65 171.23,-22.12 175.02,-28.01"/>
</g>
<!-- Node13&#45;&gt;Node8 -->
<g id="edge25" class="edge">
<title>Node13&#45;&gt;Node8</title>
<path fill="none" stroke="midnightblue" d="M375.68,-117.98C363.13,-108.52 342.65,-93.1 327.5,-81.69"/>
<polygon fill="midnightblue" stroke="midnightblue" points="329.39,-78.73 319.3,-75.51 325.18,-84.32 329.39,-78.73"/>
</g>
<!-- Node13&#45;&gt;Node11 -->
<g id="edge26" class="edge">
<title>Node13&#45;&gt;Node11</title>
<path fill="none" stroke="midnightblue" d="M347.46,-117.98C294.05,-106.46 199.58,-86.1 147.69,-74.91"/>
<polygon fill="midnightblue" stroke="midnightblue" points="148.11,-71.42 137.6,-72.73 146.63,-78.26 148.11,-71.42"/>
</g>
<!-- Node14 -->
<g id="node14" class="node">
<title>Node14</title>
<g id="a_node14"><a xlink:href="player_8hpp.html" target="_top" xlink:title=" ">
<polygon fill="white" stroke="black" points="941,-56.5 941,-75.5 1009,-75.5 1009,-56.5 941,-56.5"/>
<text text-anchor="middle" x="975" y="-63.5" font-family="Helvetica,sans-Serif" font-size="10.00">player.hpp</text>
</a>
</g>
</g>
<!-- Node13&#45;&gt;Node14 -->
<g id="edge20" class="edge">
<title>Node13&#45;&gt;Node14</title>
<path fill="none" stroke="midnightblue" d="M437.64,-121.38C551,-109.9 823.63,-82.32 930.73,-71.48"/>
<polygon fill="midnightblue" stroke="midnightblue" points="931.27,-74.94 940.87,-70.45 930.57,-67.98 931.27,-74.94"/>
</g>
<!-- Node14&#45;&gt;Node2 -->
<g id="edge22" class="edge">
<title>Node14&#45;&gt;Node2</title>
<path fill="none" stroke="midnightblue" d="M1009.11,-61.07C1093.66,-51.34 1312.65,-26.12 1403.54,-15.66"/>
<polygon fill="midnightblue" stroke="midnightblue" points="1404.18,-19.11 1413.72,-14.49 1403.38,-12.15 1404.18,-19.11"/>
</g>
<!-- Node14&#45;&gt;Node10 -->
<g id="edge24" class="edge">
<title>Node14&#45;&gt;Node10</title>
<path fill="none" stroke="midnightblue" d="M940.66,-60.72C868.65,-51.74 700.81,-30.81 607.5,-19.17"/>
<polygon fill="midnightblue" stroke="midnightblue" points="607.69,-15.67 597.33,-17.9 606.82,-22.61 607.69,-15.67"/>
</g>
<!-- Node15 -->
<g id="node15" class="node">
<title>Node15</title>
<g id="a_node15"><a xlink:title=" ">
<polygon fill="white" stroke="#bfbfbf" points="1206,-0.5 1206,-19.5 1250,-19.5 1250,-0.5 1206,-0.5"/>
<text text-anchor="middle" x="1228" y="-7.5" font-family="Helvetica,sans-Serif" font-size="10.00">string</text>
</a>
</g>
</g>
<!-- Node14&#45;&gt;Node15 -->
<g id="edge21" class="edge">
<title>Node14&#45;&gt;Node15</title>
<path fill="none" stroke="midnightblue" d="M1009.12,-57.72C1058.25,-47.23 1148.27,-28.02 1196.12,-17.8"/>
<polygon fill="midnightblue" stroke="midnightblue" points="1196.89,-21.22 1205.94,-15.71 1195.43,-14.37 1196.89,-21.22"/>
</g>
<!-- Node16 -->
<g id="node16" class="node">
<title>Node16</title>
<g id="a_node16"><a xlink:title=" ">
<polygon fill="white" stroke="#bfbfbf" points="877,-0.5 877,-19.5 1011,-19.5 1011,-0.5 877,-0.5"/>
<text text-anchor="middle" x="944" y="-7.5" font-family="Helvetica,sans-Serif" font-size="10.00">websocketpp/server.hpp</text>
</a>
</g>
</g>
<!-- Node14&#45;&gt;Node16 -->
<g id="edge23" class="edge">
<title>Node14&#45;&gt;Node16</title>
<path fill="none" stroke="midnightblue" d="M969.88,-56.08C965.59,-48.61 959.34,-37.72 954.06,-28.52"/>
<polygon fill="midnightblue" stroke="midnightblue" points="957.04,-26.68 949.02,-19.75 950.97,-30.17 957.04,-26.68"/>
</g>
<!-- Node17&#45;&gt;Node3 -->
<g id="edge33" class="edge">
<title>Node17&#45;&gt;Node3</title>
<path fill="none" stroke="midnightblue" d="M700.34,-240.12C617.78,-230.87 408.94,-207.47 308.56,-196.22"/>
<polygon fill="midnightblue" stroke="midnightblue" points="308.65,-192.71 298.32,-195.08 307.87,-199.67 308.65,-192.71"/>
</g>
<!-- Node17&#45;&gt;Node6 -->
<g id="edge29" class="edge">
<title>Node17&#45;&gt;Node6</title>
<path fill="none" stroke="midnightblue" d="M703.42,-235.44C675.8,-227.47 634.92,-214.51 601,-199 540.11,-171.15 367.03,-63.68 305.25,-24.99"/>
<polygon fill="midnightblue" stroke="midnightblue" points="306.98,-21.94 296.65,-19.59 303.26,-27.87 306.98,-21.94"/>
</g>
<!-- Node17&#45;&gt;Node10 -->
<g id="edge30" class="edge">
<title>Node17&#45;&gt;Node10</title>
<path fill="none" stroke="midnightblue" d="M700.48,-236.53C676.54,-229.93 645.12,-218.27 623,-199 570.55,-153.29 550.95,-67.56 544.63,-29.74"/>
<polygon fill="midnightblue" stroke="midnightblue" points="548.06,-28.99 543.08,-19.64 541.14,-30.06 548.06,-28.99"/>
</g>
<!-- Node17&#45;&gt;Node13 -->
<g id="edge32" class="edge">
<title>Node17&#45;&gt;Node13</title>
<path fill="none" stroke="midnightblue" d="M700.45,-242.18C651.82,-238.63 561.17,-228.33 490,-199 456.84,-185.33 423.51,-159.87 404.08,-143.58"/>
<polygon fill="midnightblue" stroke="midnightblue" points="406.29,-140.86 396.42,-137.01 401.74,-146.18 406.29,-140.86"/>
</g>
<!-- Node17&#45;&gt;Node14 -->
<g id="edge31" class="edge">
<title>Node17&#45;&gt;Node14</title>
<path fill="none" stroke="midnightblue" d="M769.71,-241.71C813.56,-237.73 890.5,-227.05 950,-199 986.04,-182.01 1002.74,-178.91 1020,-143 1025.97,-130.58 1025.27,-124.73 1020,-112 1015.08,-100.12 1005.33,-89.74 996.17,-81.96"/>
<polygon fill="midnightblue" stroke="midnightblue" points="998.08,-79.01 988.06,-75.56 993.75,-84.51 998.08,-79.01"/>
</g>
<!-- Node18 -->
<g id="node18" class="node">
<title>Node18</title>
<g id="a_node18"><a xlink:title=" ">
<polygon fill="white" stroke="#bfbfbf" points="979,-118 979,-137 1011,-137 1011,-118 979,-118"/>
<text text-anchor="middle" x="995" y="-125" font-family="Helvetica,sans-Serif" font-size="10.00">list</text>
</a>
</g>
</g>
<!-- Node17&#45;&gt;Node18 -->
<g id="edge28" class="edge">
<title>Node17&#45;&gt;Node18</title>
<path fill="none" stroke="midnightblue" d="M769.72,-241.16C808.82,-236.74 873.26,-225.76 922,-199 946.5,-185.55 968.67,-161.7 981.98,-145.5"/>
<polygon fill="midnightblue" stroke="midnightblue" points="984.94,-147.41 988.43,-137.41 979.46,-143.05 984.94,-147.41"/>
</g>
<!-- Node19 -->
<g id="node19" class="node">
<title>Node19</title>
<g id="a_node19"><a xlink:href="network_8hpp.html" target="_top" xlink:title=" ">
<polygon fill="white" stroke="black" points="836.5,-179.5 836.5,-198.5 913.5,-198.5 913.5,-179.5 836.5,-179.5"/>
<text text-anchor="middle" x="875" y="-186.5" font-family="Helvetica,sans-Serif" font-size="10.00">network.hpp</text>
</a>
</g>
</g>
<!-- Node17&#45;&gt;Node19 -->
<g id="edge34" class="edge">
<title>Node17&#45;&gt;Node19</title>
<path fill="none" stroke="midnightblue" d="M757.18,-235.44C780.43,-226.48 817.15,-212.31 843.42,-202.18"/>
<polygon fill="midnightblue" stroke="midnightblue" points="844.85,-205.38 852.92,-198.52 842.33,-198.85 844.85,-205.38"/>
</g>
<!-- Node22 -->
<g id="node22" class="node">
<title>Node22</title>
<g id="a_node22"><a xlink:title=" ">
<polygon fill="white" stroke="#bfbfbf" points="578,-56.5 578,-75.5 730,-75.5 730,-56.5 578,-56.5"/>
<text text-anchor="middle" x="654" y="-63.5" font-family="Helvetica,sans-Serif" font-size="10.00">nlohmann/json&#45;schema.hpp</text>
</a>
</g>
</g>
<!-- Node17&#45;&gt;Node22 -->
<g id="edge49" class="edge">
<title>Node17&#45;&gt;Node22</title>
<path fill="none" stroke="midnightblue" d="M713.24,-235.43C681.32,-221.52 622.98,-190.69 599,-143 592.81,-130.69 593.1,-124.45 599,-112 605.13,-99.07 616.99,-88.62 628.14,-81.05"/>
<polygon fill="midnightblue" stroke="midnightblue" points="630.19,-83.9 636.8,-75.61 626.47,-77.97 630.19,-83.9"/>
</g>
<!-- Node23 -->
<g id="node23" class="node">
<title>Node23</title>
<g id="a_node23"><a xlink:href="newgamepoll_8hpp.html" target="_top" xlink:title=" ">
<polygon fill="white" stroke="black" points="1067,-118 1067,-137 1171,-137 1171,-118 1067,-118"/>
<text text-anchor="middle" x="1119" y="-125" font-family="Helvetica,sans-Serif" font-size="10.00">newgamepoll.hpp</text>
</a>
</g>
</g>
<!-- Node17&#45;&gt;Node23 -->
<g id="edge42" class="edge">
<title>Node17&#45;&gt;Node23</title>
<path fill="none" stroke="midnightblue" d="M769.57,-242C841.4,-237.39 1004.15,-224.4 1053,-199 1076.63,-186.72 1096.34,-162.54 1107.9,-145.95"/>
<polygon fill="midnightblue" stroke="midnightblue" points="1111.1,-147.47 1113.74,-137.21 1105.27,-143.59 1111.1,-147.47"/>
</g>
<!-- Node19&#45;&gt;Node10 -->
<g id="edge35" class="edge">
<title>Node19&#45;&gt;Node10</title>
<path fill="none" stroke="midnightblue" d="M874.98,-179.44C874.52,-164.18 871.48,-132.01 855,-112 794.44,-38.5 679.92,-17.9 607.47,-12.47"/>
<polygon fill="midnightblue" stroke="midnightblue" points="607.3,-8.95 597.09,-11.77 606.84,-15.94 607.3,-8.95"/>
</g>
<!-- Node19&#45;&gt;Node14 -->
<g id="edge38" class="edge">
<title>Node19&#45;&gt;Node14</title>
<path fill="none" stroke="midnightblue" d="M887.05,-179.23C898.2,-170.74 914.85,-157.12 927,-143 942.84,-124.58 957.17,-100.46 965.96,-84.38"/>
<polygon fill="midnightblue" stroke="midnightblue" points="969.07,-86 970.69,-75.53 962.89,-82.7 969.07,-86"/>
</g>
<!-- Node19&#45;&gt;Node16 -->
<g id="edge37" class="edge">
<title>Node19&#45;&gt;Node16</title>
<path fill="none" stroke="midnightblue" d="M878.33,-179.46C888.91,-152.31 921.97,-67.51 936.74,-29.62"/>
<polygon fill="midnightblue" stroke="midnightblue" points="940.17,-30.46 940.54,-19.87 933.65,-27.91 940.17,-30.46"/>
</g>
<!-- Node19&#45;&gt;Node18 -->
<g id="edge41" class="edge">
<title>Node19&#45;&gt;Node18</title>
<path fill="none" stroke="midnightblue" d="M892.19,-179.48C912.49,-169.41 946.44,-152.58 969.73,-141.03"/>
<polygon fill="midnightblue" stroke="midnightblue" points="971.58,-144.02 978.99,-136.44 968.48,-137.75 971.58,-144.02"/>
</g>
<!-- Node20 -->
<g id="node20" class="node">
<title>Node20</title>
<g id="a_node20"><a xlink:title=" ">
<polygon fill="white" stroke="#bfbfbf" points="733.5,-112.5 733.5,-142.5 846.5,-142.5 846.5,-112.5 733.5,-112.5"/>
<text text-anchor="start" x="741.5" y="-130.5" font-family="Helvetica,sans-Serif" font-size="10.00">websocketpp/config</text>
<text text-anchor="middle" x="790" y="-119.5" font-family="Helvetica,sans-Serif" font-size="10.00">/asio_no_tls.hpp</text>
</a>
</g>
</g>
<!-- Node19&#45;&gt;Node20 -->
<g id="edge36" class="edge">
<title>Node19&#45;&gt;Node20</title>
<path fill="none" stroke="midnightblue" d="M862.82,-179.48C851.31,-171.42 833.6,-159.02 818.53,-148.47"/>
<polygon fill="midnightblue" stroke="midnightblue" points="820.23,-145.39 810.03,-142.52 816.22,-151.12 820.23,-145.39"/>
</g>
<!-- Node21 -->
<g id="node21" class="node">
<title>Node21</title>
<g id="a_node21"><a xlink:href="json__schemas_8hpp.html" target="_top" xlink:title=" ">
<polygon fill="white" stroke="black" points="608.5,-118 608.5,-137 715.5,-137 715.5,-118 608.5,-118"/>
<text text-anchor="middle" x="662" y="-125" font-family="Helvetica,sans-Serif" font-size="10.00">json_schemas.hpp</text>
</a>
</g>
</g>
<!-- Node19&#45;&gt;Node21 -->
<g id="edge39" class="edge">
<title>Node19&#45;&gt;Node21</title>
<path fill="none" stroke="midnightblue" d="M844.48,-179.48C807.08,-169.03 743.57,-151.29 702.21,-139.73"/>
<polygon fill="midnightblue" stroke="midnightblue" points="703.03,-136.33 692.46,-137.01 701.15,-143.07 703.03,-136.33"/>
</g>
<!-- Node21&#45;&gt;Node22 -->
<g id="edge40" class="edge">
<title>Node21&#45;&gt;Node22</title>
<path fill="none" stroke="midnightblue" d="M660.85,-117.98C659.73,-109.58 657.96,-96.48 656.51,-85.66"/>
<polygon fill="midnightblue" stroke="midnightblue" points="659.95,-84.95 655.14,-75.51 653.01,-85.89 659.95,-84.95"/>
</g>
<!-- Node23&#45;&gt;Node10 -->
<g id="edge48" class="edge">
<title>Node23&#45;&gt;Node10</title>
<path fill="none" stroke="midnightblue" d="M1108.2,-117.89C1086.43,-100.71 1037.67,-63.22 1018,-56 944.33,-28.95 719.78,-17.31 607.44,-13.07"/>
<polygon fill="midnightblue" stroke="midnightblue" points="607.38,-9.57 597.26,-12.7 607.12,-16.56 607.38,-9.57"/>
</g>
<!-- Node23&#45;&gt;Node14 -->
<g id="edge43" class="edge">
<title>Node23&#45;&gt;Node14</title>
<path fill="none" stroke="midnightblue" d="M1098.37,-117.98C1073.88,-107.86 1032.85,-90.9 1004.89,-79.35"/>
<polygon fill="midnightblue" stroke="midnightblue" points="1006.17,-76.09 995.59,-75.51 1003.5,-82.56 1006.17,-76.09"/>
</g>
<!-- Node24 -->
<g id="node24" class="node">
<title>Node24</title>
<g id="a_node24"><a xlink:title=" ">
<polygon fill="white" stroke="#bfbfbf" points="1065,-56.5 1065,-75.5 1113,-75.5 1113,-56.5 1065,-56.5"/>
<text text-anchor="middle" x="1089" y="-63.5" font-family="Helvetica,sans-Serif" font-size="10.00">thread</text>
</a>
</g>
</g>
<!-- Node23&#45;&gt;Node24 -->
<g id="edge44" class="edge">
<title>Node23&#45;&gt;Node24</title>
<path fill="none" stroke="midnightblue" d="M1114.7,-117.98C1110.34,-109.32 1103.44,-95.65 1097.9,-84.65"/>
<polygon fill="midnightblue" stroke="midnightblue" points="1100.92,-82.86 1093.29,-75.51 1094.67,-86.01 1100.92,-82.86"/>
</g>
<!-- Node25 -->
<g id="node25" class="node">
<title>Node25</title>
<g id="a_node25"><a xlink:title=" ">
<polygon fill="white" stroke="#bfbfbf" points="1131,-56.5 1131,-75.5 1179,-75.5 1179,-56.5 1131,-56.5"/>
<text text-anchor="middle" x="1155" y="-63.5" font-family="Helvetica,sans-Serif" font-size="10.00">mutex</text>
</a>
</g>
</g>
<!-- Node23&#45;&gt;Node25 -->
<g id="edge45" class="edge">
<title>Node23&#45;&gt;Node25</title>
<path fill="none" stroke="midnightblue" d="M1124.16,-117.98C1129.45,-109.23 1137.84,-95.37 1144.53,-84.31"/>
<polygon fill="midnightblue" stroke="midnightblue" points="1147.67,-85.88 1149.85,-75.51 1141.68,-82.25 1147.67,-85.88"/>
</g>
<!-- Node26 -->
<g id="node26" class="node">
<title>Node26</title>
<g id="a_node26"><a xlink:title=" ">
<polygon fill="white" stroke="#bfbfbf" points="1197,-56.5 1197,-75.5 1283,-75.5 1283,-56.5 1197,-56.5"/>
<text text-anchor="middle" x="1240" y="-63.5" font-family="Helvetica,sans-Serif" font-size="10.00">unordered_set</text>
</a>
</g>
</g>
<!-- Node23&#45;&gt;Node26 -->
<g id="edge46" class="edge">
<title>Node23&#45;&gt;Node26</title>
<path fill="none" stroke="midnightblue" d="M1136.34,-117.98C1156.55,-108.03 1190.19,-91.49 1213.64,-79.96"/>
<polygon fill="midnightblue" stroke="midnightblue" points="1215.27,-83.06 1222.7,-75.51 1212.18,-76.78 1215.27,-83.06"/>
</g>
<!-- Node27 -->
<g id="node27" class="node">
<title>Node27</title>
<g id="a_node27"><a xlink:title=" ">
<polygon fill="white" stroke="#bfbfbf" points="1301.5,-56.5 1301.5,-75.5 1366.5,-75.5 1366.5,-56.5 1301.5,-56.5"/>
<text text-anchor="middle" x="1334" y="-63.5" font-family="Helvetica,sans-Serif" font-size="10.00">functional</text>
</a>
</g>
</g>
<!-- Node23&#45;&gt;Node27 -->
<g id="edge47" class="edge">
<title>Node23&#45;&gt;Node27</title>
<path fill="none" stroke="midnightblue" d="M1149.8,-117.98C1187.56,-107.53 1251.66,-89.79 1293.41,-78.23"/>
<polygon fill="midnightblue" stroke="midnightblue" points="1294.55,-81.55 1303.25,-75.51 1292.68,-74.8 1294.55,-81.55"/>
</g>
<!-- Node32&#45;&gt;Node2 -->
<g id="edge55" class="edge">
<title>Node32&#45;&gt;Node2</title>
<path fill="none" stroke="midnightblue" d="M1444,-56.08C1444,-49.01 1444,-38.86 1444,-29.99"/>
<polygon fill="midnightblue" stroke="midnightblue" points="1447.5,-29.75 1444,-19.75 1440.5,-29.75 1447.5,-29.75"/>
</g>
<!-- Node32&#45;&gt;Node15 -->
<g id="edge56" class="edge">
<title>Node32&#45;&gt;Node15</title>
<path fill="none" stroke="midnightblue" d="M1409.77,-56.44C1368.63,-46.16 1300.12,-29.03 1259.99,-19"/>
<polygon fill="midnightblue" stroke="midnightblue" points="1260.75,-15.58 1250.2,-16.55 1259.05,-22.37 1260.75,-15.58"/>
</g>
</g>
</svg>
