<?xml version="1.0" encoding="UTF-8" standalone="no"?>
<!DOCTYPE svg PUBLIC "-//W3C//DTD SVG 1.1//EN"
 "http://www.w3.org/Graphics/SVG/1.1/DTD/svg11.dtd">
<!-- Generated by graphviz version 2.43.0 (0)
 -->
<!-- Title: main Pages: 1 -->
<!--zoomable 142 -->
<svg id="main" version="1.1" xmlns="http://www.w3.org/2000/svg" xmlns:xlink="http://www.w3.org/1999/xlink" xml:space="preserve" onload="init(evt)">
<style type="text/css"><![CDATA[
.edge:hover path { stroke: red; }
.edge:hover polygon { stroke: red; fill: red; }
]]></style>
<script type="text/javascript"><![CDATA[
var edges = document.getElementsByTagName('g');
if (edges && edges.length) {
  for (var i=0;i<edges.length;i++) {
    if (edges[i].id.substr(0,4)=='edge') {
      edges[i].setAttribute('class','edge');
    }
  }
}
]]></script>
        <defs>
                <circle id="rim" cx="0" cy="0" r="7"/>
                <circle id="rim2" cx="0" cy="0" r="3.5"/>
                <g id="zoomPlus">
                        <use xlink:href="#rim" fill="#404040">
                                <set attributeName="fill" to="#808080" begin="zoomplus.mouseover" end="zoomplus.mouseout"/>
                        </use>
                        <path d="M-4,0h8M0,-4v8" fill="none" stroke="white" stroke-width="1.5" pointer-events="none"/>
                </g>
                <g id="zoomMin">
                        <use xlink:href="#rim" fill="#404040">
                                <set attributeName="fill" to="#808080" begin="zoomminus.mouseover" end="zoomminus.mouseout"/>
                        </use>
                        <path d="M-4,0h8" fill="none" stroke="white" stroke-width="1.5" pointer-events="none"/>
                </g>
                <g id="dirArrow">
                        <path fill="none" stroke="white" stroke-width="1.5" d="M0,-3.0v7 M-2.5,-0.5L0,-3.0L2.5,-0.5"/>
                </g>
               <g id="resetDef">
                       <use xlink:href="#rim2" fill="#404040">
                               <set attributeName="fill" to="#808080" begin="reset.mouseover" end="reset.mouseout"/>
                       </use>
               </g>
        </defs>

<script type="text/javascript">
var viewWidth = 791;
var viewHeight = 142;
var sectionId = 'dynsection-1';
</script>
<script xlink:href="svgpan.js"/>
<svg id="graph" class="graph">
<g id="viewport">
<title>main</title>
<polygon fill="white" stroke="transparent" points="-4,4 -4,-138 787,-138 787,4 -4,4"/>
<!-- Node1 -->
<g id="node1" class="node">
<title>Node1</title>
<g id="a_node1"><a xlink:title=" ">
<polygon fill="#bfbfbf" stroke="black" points="0,-57.5 0,-76.5 41,-76.5 41,-57.5 0,-57.5"/>
<text text-anchor="middle" x="20.5" y="-64.5" font-family="Helvetica,sans-Serif" font-size="10.00">main</text>
</a>
</g>
</g>
<!-- Node2 -->
<g id="node2" class="node">
<title>Node2</title>
<g id="a_node2"><a xlink:href="main_8cpp.html#a13848d945610347db87a059fe0b43f35" target="_top" xlink:title=" ">
<polygon fill="white" stroke="black" points="77,-76.5 77,-95.5 151,-95.5 151,-76.5 77,-76.5"/>
<text text-anchor="middle" x="114" y="-83.5" font-family="Helvetica,sans-Serif" font-size="10.00">my_handler</text>
</a>
</g>
</g>
<!-- Node1&#45;&gt;Node2 -->
<g id="edge1" class="edge">
<title>Node1&#45;&gt;Node2</title>
<path fill="none" stroke="midnightblue" d="M41.35,-71.12C49,-72.71 58.08,-74.6 67.16,-76.48"/>
<polygon fill="midnightblue" stroke="midnightblue" points="66.45,-79.91 76.95,-78.51 67.87,-73.05 66.45,-79.91"/>
</g>
<!-- Node6 -->
<g id="node6" class="node">
<title>Node6</title>
<g id="a_node6"><a xlink:href="classGalaxy.html#a06c64a89d3bd684797c725c8419c10ca" target="_top" xlink:title="starts the &quot;game loop&quot;. this blocks the thread until server stops.">
<polygon fill="white" stroke="black" points="78,-38.5 78,-57.5 150,-57.5 150,-38.5 78,-38.5"/>
<text text-anchor="middle" x="114" y="-45.5" font-family="Helvetica,sans-Serif" font-size="10.00">Galaxy::run</text>
</a>
</g>
</g>
<!-- Node1&#45;&gt;Node6 -->
<g id="edge5" class="edge">
<title>Node1&#45;&gt;Node6</title>
<path fill="none" stroke="midnightblue" d="M41.35,-62.88C49.15,-61.26 58.44,-59.33 67.71,-57.4"/>
<polygon fill="midnightblue" stroke="midnightblue" points="68.61,-60.79 77.69,-55.33 67.18,-53.94 68.61,-60.79"/>
</g>
<!-- Node3 -->
<g id="node3" class="node">
<title>Node3</title>
<g id="a_node3"><a xlink:href="classGalaxy.html#a58d3ec1dd980cd3adfc1eeb83c41f8e4" target="_top" xlink:title="starts notifing all components to shutdown.">
<polygon fill="white" stroke="black" points="188.5,-76.5 188.5,-95.5 265.5,-95.5 265.5,-76.5 188.5,-76.5"/>
<text text-anchor="middle" x="227" y="-83.5" font-family="Helvetica,sans-Serif" font-size="10.00">Galaxy::stop</text>
</a>
</g>
</g>
<!-- Node2&#45;&gt;Node3 -->
<g id="edge2" class="edge">
<title>Node2&#45;&gt;Node3</title>
<path fill="none" stroke="midnightblue" d="M151.04,-86C159.69,-86 169.05,-86 178.14,-86"/>
<polygon fill="midnightblue" stroke="midnightblue" points="178.23,-89.5 188.23,-86 178.23,-82.5 178.23,-89.5"/>
</g>
<!-- Node4 -->
<g id="node4" class="node">
<title>Node4</title>
<g id="a_node4"><a xlink:href="classNetwork.html#a14eee72429fc77613fb20692b2101836" target="_top" xlink:title="closes a specific connection">
<polygon fill="white" stroke="black" points="324,-114.5 324,-133.5 432,-133.5 432,-114.5 324,-114.5"/>
<text text-anchor="middle" x="378" y="-121.5" font-family="Helvetica,sans-Serif" font-size="10.00">Network::closeCon</text>
</a>
</g>
</g>
<!-- Node3&#45;&gt;Node4 -->
<g id="edge3" class="edge">
<title>Node3&#45;&gt;Node4</title>
<path fill="none" stroke="midnightblue" d="M265.6,-95.59C285.08,-100.56 309.07,-106.68 329.8,-111.96"/>
<polygon fill="midnightblue" stroke="midnightblue" points="329.12,-115.4 339.67,-114.48 330.85,-108.62 329.12,-115.4"/>
</g>
<!-- Node5 -->
<g id="node5" class="node">
<title>Node5</title>
<g id="a_node5"><a xlink:href="classNetwork.html#a223d8aca05065fb5a5c80b119c077831" target="_top" xlink:title="starts the shutdown mechanism of the network operations">
<polygon fill="white" stroke="black" points="335.5,-76.5 335.5,-95.5 420.5,-95.5 420.5,-76.5 335.5,-76.5"/>
<text text-anchor="middle" x="378" y="-83.5" font-family="Helvetica,sans-Serif" font-size="10.00">Network::stop</text>
</a>
</g>
</g>
<!-- Node3&#45;&gt;Node5 -->
<g id="edge4" class="edge">
<title>Node3&#45;&gt;Node5</title>
<path fill="none" stroke="midnightblue" d="M265.6,-86C283.73,-86 305.77,-86 325.44,-86"/>
<polygon fill="midnightblue" stroke="midnightblue" points="325.48,-89.5 335.48,-86 325.48,-82.5 325.48,-89.5"/>
</g>
<!-- Node7 -->
<g id="node7" class="node">
<title>Node7</title>
<g id="a_node7"><a xlink:href="classNetwork.html#a7d9b412cc58237783bd431544374e11a" target="_top" xlink:title="starts server and prozessing thread">
<polygon fill="white" stroke="black" points="187,-38.5 187,-57.5 267,-57.5 267,-38.5 187,-38.5"/>
<text text-anchor="middle" x="227" y="-45.5" font-family="Helvetica,sans-Serif" font-size="10.00">Network::run</text>
</a>
</g>
</g>
<!-- Node6&#45;&gt;Node7 -->
<g id="edge6" class="edge">
<title>Node6&#45;&gt;Node7</title>
<path fill="none" stroke="midnightblue" d="M150.12,-48C158.61,-48 167.84,-48 176.85,-48"/>
<polygon fill="midnightblue" stroke="midnightblue" points="176.87,-51.5 186.87,-48 176.87,-44.5 176.87,-51.5"/>
</g>
<!-- Node8 -->
<g id="node8" class="node">
<title>Node8</title>
<g id="a_node8"><a xlink:href="classNetwork.html#a356c8c0ec32e2795bd754b067838fd89" target="_top" xlink:title="prozesses all incoming messages">
<polygon fill="white" stroke="black" points="303,-38.5 303,-57.5 453,-57.5 453,-38.5 303,-38.5"/>
<text text-anchor="middle" x="378" y="-45.5" font-family="Helvetica,sans-Serif" font-size="10.00">Network::processMessages</text>
</a>
</g>
</g>
<!-- Node7&#45;&gt;Node8 -->
<g id="edge7" class="edge">
<title>Node7&#45;&gt;Node8</title>
<path fill="none" stroke="midnightblue" d="M267.15,-48C275.17,-48 283.9,-48 292.82,-48"/>
<polygon fill="midnightblue" stroke="midnightblue" points="292.94,-51.5 302.94,-48 292.94,-44.5 292.94,-51.5"/>
</g>
<!-- Node9 -->
<g id="node9" class="node">
<title>Node9</title>
<g id="a_node9"><a xlink:href="classGalaxy.html#a60e26c21a827518c37d85d8d7bd8e1b5" target="_top" xlink:title="needs to be called when Player disconnects from server">
<polygon fill="white" stroke="black" points="503,-76.5 503,-95.5 621,-95.5 621,-76.5 503,-76.5"/>
<text text-anchor="middle" x="562" y="-83.5" font-family="Helvetica,sans-Serif" font-size="10.00">Galaxy::deletePlayer</text>
</a>
</g>
</g>
<!-- Node8&#45;&gt;Node9 -->
<g id="edge8" class="edge">
<title>Node8&#45;&gt;Node9</title>
<path fill="none" stroke="midnightblue" d="M424.93,-57.59C449.38,-62.69 479.63,-69.01 505.4,-74.39"/>
<polygon fill="midnightblue" stroke="midnightblue" points="504.9,-77.86 515.4,-76.48 506.33,-71.01 504.9,-77.86"/>
</g>
<!-- Node11 -->
<g id="node11" class="node">
<title>Node11</title>
<g id="a_node11"><a xlink:href="classGalaxy.html#a13dbcec35a2b7615acb153d7ca33bce3" target="_top" xlink:title="central method that manages incomming messages from clients">
<polygon fill="white" stroke="black" points="489.5,-38.5 489.5,-57.5 634.5,-57.5 634.5,-38.5 489.5,-38.5"/>
<text text-anchor="middle" x="562" y="-45.5" font-family="Helvetica,sans-Serif" font-size="10.00">Galaxy::executeCommand</text>
</a>
</g>
</g>
<!-- Node8&#45;&gt;Node11 -->
<g id="edge10" class="edge">
<title>Node8&#45;&gt;Node11</title>
<path fill="none" stroke="midnightblue" d="M453.03,-48C461.66,-48 470.5,-48 479.22,-48"/>
<polygon fill="midnightblue" stroke="midnightblue" points="479.4,-51.5 489.4,-48 479.4,-44.5 479.4,-51.5"/>
</g>
<!-- Node12 -->
<g id="node12" class="node">
<title>Node12</title>
<g id="a_node12"><a xlink:href="classGalaxy.html#ab70919238d14bc1c16435f477966e159" target="_top" xlink:title="needs to be called when a new Player connects to the server">
<polygon fill="white" stroke="black" points="489,-0.5 489,-19.5 635,-19.5 635,-0.5 489,-0.5"/>
<text text-anchor="middle" x="562" y="-7.5" font-family="Helvetica,sans-Serif" font-size="10.00">Galaxy::registerNewPlayer</text>
</a>
</g>
</g>
<!-- Node8&#45;&gt;Node12 -->
<g id="edge11" class="edge">
<title>Node8&#45;&gt;Node12</title>
<path fill="none" stroke="midnightblue" d="M424.93,-38.41C449.38,-33.31 479.63,-26.99 505.4,-21.61"/>
<polygon fill="midnightblue" stroke="midnightblue" points="506.33,-24.99 515.4,-19.52 504.9,-18.14 506.33,-24.99"/>
</g>
<!-- Node10 -->
<g id="node10" class="node">
<title>Node10</title>
<g id="a_node10"><a xlink:href="classNetwork.html#a57f3c2d8b53d214d26822a52b899d69f" target="_top" xlink:title="broadcast to all players">
<polygon fill="white" stroke="black" points="671,-76.5 671,-95.5 783,-95.5 783,-76.5 671,-76.5"/>
<text text-anchor="middle" x="727" y="-83.5" font-family="Helvetica,sans-Serif" font-size="10.00">Network::broadcast</text>
</a>
</g>
</g>
<!-- Node9&#45;&gt;Node10 -->
<g id="edge9" class="edge">
<title>Node9&#45;&gt;Node10</title>
<path fill="none" stroke="midnightblue" d="M621.39,-86C634.07,-86 647.57,-86 660.51,-86"/>
<polygon fill="midnightblue" stroke="midnightblue" points="660.74,-89.5 670.74,-86 660.74,-82.5 660.74,-89.5"/>
</g>
</g>
</svg>
        <g id="navigator" transform="translate(0 0)" fill="#404254">
                <rect fill="#f2f5e9" fill-opacity="0.5" stroke="#606060" stroke-width=".5" x="0" y="0" width="60" height="60"/>
                <use id="zoomplus" xlink:href="#zoomPlus" x="17" y="9" onmousedown="handleZoom(evt,'in')"/>
                <use id="zoomminus" xlink:href="#zoomMin" x="42" y="9" onmousedown="handleZoom(evt,'out')"/>
                <use id="reset" xlink:href="#resetDef" x="30" y="36" onmousedown="handleReset()"/>
                <g id="arrowUp" xlink:href="#dirArrow" transform="translate(30 24)" onmousedown="handlePan(0,-1)">
                  <use xlink:href="#rim" fill="#404040">
                        <set attributeName="fill" to="#808080" begin="arrowUp.mouseover" end="arrowUp.mouseout"/>
                  </use>
                  <path fill="none" stroke="white" stroke-width="1.5" d="M0,-3.0v7 M-2.5,-0.5L0,-3.0L2.5,-0.5"/>
                </g>
                <g id="arrowRight" xlink:href="#dirArrow" transform="rotate(90) translate(36 -43)" onmousedown="handlePan(1,0)">
                  <use xlink:href="#rim" fill="#404040">
                        <set attributeName="fill" to="#808080" begin="arrowRight.mouseover" end="arrowRight.mouseout"/>
                  </use>
                  <path fill="none" stroke="white" stroke-width="1.5" d="M0,-3.0v7 M-2.5,-0.5L0,-3.0L2.5,-0.5"/>
                </g>
                <g id="arrowDown" xlink:href="#dirArrow" transform="rotate(180) translate(-30 -48)" onmousedown="handlePan(0,1)">
                  <use xlink:href="#rim" fill="#404040">
                        <set attributeName="fill" to="#808080" begin="arrowDown.mouseover" end="arrowDown.mouseout"/>
                  </use>
                  <path fill="none" stroke="white" stroke-width="1.5" d="M0,-3.0v7 M-2.5,-0.5L0,-3.0L2.5,-0.5"/>
                </g>
                <g id="arrowLeft" xlink:href="#dirArrow" transform="rotate(270) translate(-36 17)" onmousedown="handlePan(-1,0)">
                  <use xlink:href="#rim" fill="#404040">
                        <set attributeName="fill" to="#808080" begin="arrowLeft.mouseover" end="arrowLeft.mouseout"/>
                  </use>
                  <path fill="none" stroke="white" stroke-width="1.5" d="M0,-3.0v7 M-2.5,-0.5L0,-3.0L2.5,-0.5"/>
                </g>
        </g>
        <svg viewBox="0 0 15 15" width="100%" height="30px" preserveAspectRatio="xMaxYMin meet">
         <g id="arrow_out" transform="scale(0.3 0.3)">
          <a xlink:href="main_8cpp_a3c04138a5bfe5d72780bb7e82a18e627_cgraph_org.svg" target="_base">
           <rect id="button" ry="5" rx="5" y="6" x="6" height="38" width="38"
                fill="#f2f5e9" fill-opacity="0.5" stroke="#606060" stroke-width="1.0"/>
           <path id="arrow"
             d="M 11.500037,31.436501 C 11.940474,20.09759 22.043105,11.32322 32.158766,21.979434 L 37.068811,17.246167 C 37.068811,17.246167 37.088388,32 37.088388,32 L 22.160133,31.978069 C 22.160133,31.978069 26.997745,27.140456 26.997745,27.140456 C 18.528582,18.264221 13.291696,25.230495 11.500037,31.436501 z"
             style="fill:#404040;"/>
          </a>
         </g>
        </svg>
</svg>
