<?xml version="1.0" encoding="UTF-8" standalone="no"?>
<!DOCTYPE svg PUBLIC "-//W3C//DTD SVG 1.1//EN"
 "http://www.w3.org/Graphics/SVG/1.1/DTD/svg11.dtd">
<!-- Generated by graphviz version 2.43.0 (0)
 -->
<!-- Title: include/network.hpp Pages: 1 -->
<svg width="606pt" height="151pt"
 viewBox="0.00 0.00 606.00 151.00" xmlns="http://www.w3.org/2000/svg" xmlns:xlink="http://www.w3.org/1999/xlink">
<g id="graph0" class="graph" transform="scale(1 1) rotate(0) translate(4 147)">
<title>include/network.hpp</title>
<polygon fill="white" stroke="transparent" points="-4,4 -4,-147 602,-147 602,4 -4,4"/>
<!-- Node1 -->
<g id="node1" class="node">
<title>Node1</title>
<g id="a_node1"><a xlink:title=" ">
<polygon fill="#bfbfbf" stroke="black" points="253,-123.5 253,-142.5 369,-142.5 369,-123.5 253,-123.5"/>
<text text-anchor="middle" x="311" y="-130.5" font-family="Helvetica,sans-Serif" font-size="10.00">include/network.hpp</text>
</a>
</g>
</g>
<!-- Node2 -->
<g id="node2" class="node">
<title>Node2</title>
<g id="a_node2"><a xlink:title=" ">
<polygon fill="white" stroke="#bfbfbf" points="0,-0.5 0,-19.5 110,-19.5 110,-0.5 0,-0.5"/>
<text text-anchor="middle" x="55" y="-7.5" font-family="Helvetica,sans-Serif" font-size="10.00">nlohmann/json.hpp</text>
</a>
</g>
</g>
<!-- Node1&#45;&gt;Node2 -->
<g id="edge1" class="edge">
<title>Node1&#45;&gt;Node2</title>
<path fill="none" stroke="midnightblue" d="M286.18,-123.41C262.43,-114.95 225.77,-101.25 195,-87 152.8,-67.46 105.63,-40.79 78.23,-24.8"/>
<polygon fill="midnightblue" stroke="midnightblue" points="79.8,-21.66 69.4,-19.61 76.25,-27.7 79.8,-21.66"/>
</g>
<!-- Node3 -->
<g id="node3" class="node">
<title>Node3</title>
<g id="a_node3"><a xlink:title=" ">
<polygon fill="white" stroke="#bfbfbf" points="309.5,-56.5 309.5,-86.5 422.5,-86.5 422.5,-56.5 309.5,-56.5"/>
<text text-anchor="start" x="317.5" y="-74.5" font-family="Helvetica,sans-Serif" font-size="10.00">websocketpp/config</text>
<text text-anchor="middle" x="366" y="-63.5" font-family="Helvetica,sans-Serif" font-size="10.00">/asio_no_tls.hpp</text>
</a>
</g>
</g>
<!-- Node1&#45;&gt;Node3 -->
<g id="edge2" class="edge">
<title>Node1&#45;&gt;Node3</title>
<path fill="none" stroke="midnightblue" d="M318.88,-123.48C325.98,-115.79 336.72,-104.17 346.16,-93.96"/>
<polygon fill="midnightblue" stroke="midnightblue" points="348.82,-96.24 353.04,-86.52 343.68,-91.49 348.82,-96.24"/>
</g>
<!-- Node4 -->
<g id="node4" class="node">
<title>Node4</title>
<g id="a_node4"><a xlink:title=" ">
<polygon fill="white" stroke="#bfbfbf" points="128,-0.5 128,-19.5 262,-19.5 262,-0.5 128,-0.5"/>
<text text-anchor="middle" x="195" y="-7.5" font-family="Helvetica,sans-Serif" font-size="10.00">websocketpp/server.hpp</text>
</a>
</g>
</g>
<!-- Node1&#45;&gt;Node4 -->
<g id="edge3" class="edge">
<title>Node1&#45;&gt;Node4</title>
<path fill="none" stroke="midnightblue" d="M274.33,-123.39C253.77,-116.74 229.26,-105.46 214,-87 200.62,-70.82 196.47,-46.51 195.28,-29.77"/>
<polygon fill="midnightblue" stroke="midnightblue" points="198.77,-29.42 194.85,-19.58 191.78,-29.72 198.77,-29.42"/>
</g>
<!-- Node5 -->
<g id="node5" class="node">
<title>Node5</title>
<g id="a_node5"><a xlink:href="player_8hpp.html" target="_top" xlink:title=" ">
<polygon fill="white" stroke="black" points="223,-62 223,-81 291,-81 291,-62 223,-62"/>
<text text-anchor="middle" x="257" y="-69" font-family="Helvetica,sans-Serif" font-size="10.00">player.hpp</text>
</a>
</g>
</g>
<!-- Node1&#45;&gt;Node5 -->
<g id="edge4" class="edge">
<title>Node1&#45;&gt;Node5</title>
<path fill="none" stroke="midnightblue" d="M303.26,-123.48C295,-114.37 281.72,-99.74 271.51,-88.48"/>
<polygon fill="midnightblue" stroke="midnightblue" points="274.03,-86.06 264.72,-81.01 268.85,-90.77 274.03,-86.06"/>
</g>
<!-- Node8 -->
<g id="node8" class="node">
<title>Node8</title>
<g id="a_node8"><a xlink:href="json__schemas_8hpp.html" target="_top" xlink:title=" ">
<polygon fill="white" stroke="black" points="440.5,-62 440.5,-81 547.5,-81 547.5,-62 440.5,-62"/>
<text text-anchor="middle" x="494" y="-69" font-family="Helvetica,sans-Serif" font-size="10.00">json_schemas.hpp</text>
</a>
</g>
</g>
<!-- Node1&#45;&gt;Node8 -->
<g id="edge9" class="edge">
<title>Node1&#45;&gt;Node8</title>
<path fill="none" stroke="midnightblue" d="M337.22,-123.48C369.02,-113.14 422.77,-95.66 458.32,-84.1"/>
<polygon fill="midnightblue" stroke="midnightblue" points="459.4,-87.43 467.83,-81.01 457.24,-80.77 459.4,-87.43"/>
</g>
<!-- Node10 -->
<g id="node10" class="node">
<title>Node10</title>
<g id="a_node10"><a xlink:title=" ">
<polygon fill="white" stroke="#bfbfbf" points="566,-62 566,-81 598,-81 598,-62 566,-62"/>
<text text-anchor="middle" x="582" y="-69" font-family="Helvetica,sans-Serif" font-size="10.00">list</text>
</a>
</g>
</g>
<!-- Node1&#45;&gt;Node10 -->
<g id="edge11" class="edge">
<title>Node1&#45;&gt;Node10</title>
<path fill="none" stroke="midnightblue" d="M369.15,-127.06C419.97,-121.41 495.08,-109.83 557,-87 558.04,-86.62 559.08,-86.19 560.12,-85.74"/>
<polygon fill="midnightblue" stroke="midnightblue" points="561.9,-88.76 569.18,-81.06 558.69,-82.54 561.9,-88.76"/>
</g>
<!-- Node5&#45;&gt;Node2 -->
<g id="edge8" class="edge">
<title>Node5&#45;&gt;Node2</title>
<path fill="none" stroke="midnightblue" d="M228.06,-61.98C192.73,-51.57 132.87,-33.94 93.64,-22.38"/>
<polygon fill="midnightblue" stroke="midnightblue" points="94.47,-18.98 83.89,-19.51 92.49,-25.69 94.47,-18.98"/>
</g>
<!-- Node5&#45;&gt;Node4 -->
<g id="edge7" class="edge">
<title>Node5&#45;&gt;Node4</title>
<path fill="none" stroke="midnightblue" d="M248.12,-61.98C238.54,-52.78 223.09,-37.96 211.31,-26.66"/>
<polygon fill="midnightblue" stroke="midnightblue" points="213.51,-23.91 203.87,-19.51 208.66,-28.96 213.51,-23.91"/>
</g>
<!-- Node6 -->
<g id="node6" class="node">
<title>Node6</title>
<g id="a_node6"><a xlink:title=" ">
<polygon fill="white" stroke="#bfbfbf" points="358,-0.5 358,-19.5 402,-19.5 402,-0.5 358,-0.5"/>
<text text-anchor="middle" x="380" y="-7.5" font-family="Helvetica,sans-Serif" font-size="10.00">string</text>
</a>
</g>
</g>
<!-- Node5&#45;&gt;Node6 -->
<g id="edge5" class="edge">
<title>Node5&#45;&gt;Node6</title>
<path fill="none" stroke="midnightblue" d="M274.62,-61.98C295.17,-52.03 329.36,-35.49 353.21,-23.96"/>
<polygon fill="midnightblue" stroke="midnightblue" points="354.93,-27.01 362.41,-19.51 351.88,-20.71 354.93,-27.01"/>
</g>
<!-- Node7 -->
<g id="node7" class="node">
<title>Node7</title>
<g id="a_node7"><a xlink:title=" ">
<polygon fill="white" stroke="#bfbfbf" points="280,-0.5 280,-19.5 340,-19.5 340,-0.5 280,-0.5"/>
<text text-anchor="middle" x="310" y="-7.5" font-family="Helvetica,sans-Serif" font-size="10.00">iostream</text>
</a>
</g>
</g>
<!-- Node5&#45;&gt;Node7 -->
<g id="edge6" class="edge">
<title>Node5&#45;&gt;Node7</title>
<path fill="none" stroke="midnightblue" d="M264.59,-61.98C272.7,-52.87 285.73,-38.24 295.76,-26.98"/>
<polygon fill="midnightblue" stroke="midnightblue" points="298.38,-29.3 302.42,-19.51 293.16,-24.65 298.38,-29.3"/>
</g>
<!-- Node9 -->
<g id="node9" class="node">
<title>Node9</title>
<g id="a_node9"><a xlink:title=" ">
<polygon fill="white" stroke="#bfbfbf" points="420,-0.5 420,-19.5 572,-19.5 572,-0.5 420,-0.5"/>
<text text-anchor="middle" x="496" y="-7.5" font-family="Helvetica,sans-Serif" font-size="10.00">nlohmann/json&#45;schema.hpp</text>
</a>
</g>
</g>
<!-- Node8&#45;&gt;Node9 -->
<g id="edge10" class="edge">
<title>Node8&#45;&gt;Node9</title>
<path fill="none" stroke="midnightblue" d="M494.29,-61.98C494.57,-53.58 495.01,-40.48 495.37,-29.66"/>
<polygon fill="midnightblue" stroke="midnightblue" points="498.88,-29.62 495.71,-19.51 491.88,-29.39 498.88,-29.62"/>
</g>
</g>
</svg>
