<?xml version="1.0" encoding="UTF-8" standalone="no"?>
<!DOCTYPE svg PUBLIC "-//W3C//DTD SVG 1.1//EN"
 "http://www.w3.org/Graphics/SVG/1.1/DTD/svg11.dtd">
<!-- Generated by graphviz version 2.43.0 (0)
 -->
<!-- Title: src/network.cpp Pages: 1 -->
<!--zoomable 319 -->
<svg id="main" version="1.1" xmlns="http://www.w3.org/2000/svg" xmlns:xlink="http://www.w3.org/1999/xlink" xml:space="preserve" onload="init(evt)">
<style type="text/css"><![CDATA[
.edge:hover path { stroke: red; }
.edge:hover polygon { stroke: red; fill: red; }
]]></style>
<script type="text/javascript"><![CDATA[
var edges = document.getElementsByTagName('g');
if (edges && edges.length) {
  for (var i=0;i<edges.length;i++) {
    if (edges[i].id.substr(0,4)=='edge') {
      edges[i].setAttribute('class','edge');
    }
  }
}
]]></script>
        <defs>
                <circle id="rim" cx="0" cy="0" r="7"/>
                <circle id="rim2" cx="0" cy="0" r="3.5"/>
                <g id="zoomPlus">
                        <use xlink:href="#rim" fill="#404040">
                                <set attributeName="fill" to="#808080" begin="zoomplus.mouseover" end="zoomplus.mouseout"/>
                        </use>
                        <path d="M-4,0h8M0,-4v8" fill="none" stroke="white" stroke-width="1.5" pointer-events="none"/>
                </g>
                <g id="zoomMin">
                        <use xlink:href="#rim" fill="#404040">
                                <set attributeName="fill" to="#808080" begin="zoomminus.mouseover" end="zoomminus.mouseout"/>
                        </use>
                        <path d="M-4,0h8" fill="none" stroke="white" stroke-width="1.5" pointer-events="none"/>
                </g>
                <g id="dirArrow">
                        <path fill="none" stroke="white" stroke-width="1.5" d="M0,-3.0v7 M-2.5,-0.5L0,-3.0L2.5,-0.5"/>
                </g>
               <g id="resetDef">
                       <use xlink:href="#rim2" fill="#404040">
                               <set attributeName="fill" to="#808080" begin="reset.mouseover" end="reset.mouseout"/>
                       </use>
               </g>
        </defs>

<script type="text/javascript">
var viewWidth = 1332;
var viewHeight = 319;
var sectionId = 'dynsection-0';
</script>
<script xlink:href="svgpan.js"/>
<svg id="graph" class="graph">
<g id="viewport">
<title>src/network.cpp</title>
<polygon fill="white" stroke="transparent" points="-4,4 -4,-315 1327.5,-315 1327.5,4 -4,4"/>
<!-- Node1 -->
<g id="node1" class="node">
<title>Node1</title>
<g id="a_node1"><a xlink:title=" ">
<polygon fill="#bfbfbf" stroke="black" points="678.5,-291.5 678.5,-310.5 772.5,-310.5 772.5,-291.5 678.5,-291.5"/>
<text text-anchor="middle" x="725.5" y="-298.5" font-family="Helvetica,sans-Serif" font-size="10.00">src/network.cpp</text>
</a>
</g>
</g>
<!-- Node2 -->
<g id="node2" class="node">
<title>Node2</title>
<g id="a_node2"><a xlink:href="network_8hpp.html" target="_top" xlink:title=" ">
<polygon fill="white" stroke="black" points="141,-179.5 141,-198.5 218,-198.5 218,-179.5 141,-179.5"/>
<text text-anchor="middle" x="179.5" y="-186.5" font-family="Helvetica,sans-Serif" font-size="10.00">network.hpp</text>
</a>
</g>
</g>
<!-- Node1&#45;&gt;Node2 -->
<g id="edge1" class="edge">
<title>Node1&#45;&gt;Node2</title>
<path fill="none" stroke="midnightblue" d="M683.11,-291.46C583.33,-271.36 334.09,-221.14 228.26,-199.82"/>
<polygon fill="midnightblue" stroke="midnightblue" points="228.67,-196.34 218.18,-197.79 227.29,-203.2 228.67,-196.34"/>
</g>
<!-- Node12 -->
<g id="node12" class="node">
<title>Node12</title>
<g id="a_node12"><a xlink:href="galaxy_8hpp.html" target="_top" xlink:title=" ">
<polygon fill="white" stroke="black" points="691,-235.5 691,-254.5 760,-254.5 760,-235.5 691,-235.5"/>
<text text-anchor="middle" x="725.5" y="-242.5" font-family="Helvetica,sans-Serif" font-size="10.00">galaxy.hpp</text>
</a>
</g>
</g>
<!-- Node1&#45;&gt;Node12 -->
<g id="edge13" class="edge">
<title>Node1&#45;&gt;Node12</title>
<path fill="none" stroke="midnightblue" d="M725.5,-291.08C725.5,-284.01 725.5,-273.86 725.5,-264.99"/>
<polygon fill="midnightblue" stroke="midnightblue" points="729,-264.75 725.5,-254.75 722,-264.75 729,-264.75"/>
</g>
<!-- Node28 -->
<g id="node28" class="node">
<title>Node28</title>
<g id="a_node28"><a xlink:href="debug__functions_8hpp.html" target="_top" xlink:title=" ">
<polygon fill="white" stroke="black" points="897.5,-56.5 897.5,-75.5 1015.5,-75.5 1015.5,-56.5 897.5,-56.5"/>
<text text-anchor="middle" x="956.5" y="-63.5" font-family="Helvetica,sans-Serif" font-size="10.00">debug_functions.hpp</text>
</a>
</g>
</g>
<!-- Node1&#45;&gt;Node28 -->
<g id="edge49" class="edge">
<title>Node1&#45;&gt;Node28</title>
<path fill="none" stroke="midnightblue" d="M735.21,-291.22C744.55,-282.52 758.81,-268.55 769.5,-255 816.01,-196.04 803.13,-161.61 859.5,-112 876.23,-97.27 898.61,-86.46 917.65,-79.13"/>
<polygon fill="midnightblue" stroke="midnightblue" points="919.07,-82.34 927.26,-75.61 916.67,-75.77 919.07,-82.34"/>
</g>
<!-- Node3 -->
<g id="node3" class="node">
<title>Node3</title>
<g id="a_node3"><a xlink:title=" ">
<polygon fill="white" stroke="#bfbfbf" points="728.5,-0.5 728.5,-19.5 838.5,-19.5 838.5,-0.5 728.5,-0.5"/>
<text text-anchor="middle" x="783.5" y="-7.5" font-family="Helvetica,sans-Serif" font-size="10.00">nlohmann/json.hpp</text>
</a>
</g>
</g>
<!-- Node2&#45;&gt;Node3 -->
<g id="edge2" class="edge">
<title>Node2&#45;&gt;Node3</title>
<path fill="none" stroke="midnightblue" d="M177.92,-179.24C174.17,-155.31 167.53,-88.46 203.5,-56 222.38,-38.96 570.58,-20.88 718.21,-13.94"/>
<polygon fill="midnightblue" stroke="midnightblue" points="718.66,-17.42 728.49,-13.46 718.34,-10.43 718.66,-17.42"/>
</g>
<!-- Node4 -->
<g id="node4" class="node">
<title>Node4</title>
<g id="a_node4"><a xlink:title=" ">
<polygon fill="white" stroke="#bfbfbf" points="0,-112.5 0,-142.5 113,-142.5 113,-112.5 0,-112.5"/>
<text text-anchor="start" x="8" y="-130.5" font-family="Helvetica,sans-Serif" font-size="10.00">websocketpp/config</text>
<text text-anchor="middle" x="56.5" y="-119.5" font-family="Helvetica,sans-Serif" font-size="10.00">/asio_no_tls.hpp</text>
</a>
</g>
</g>
<!-- Node2&#45;&gt;Node4 -->
<g id="edge3" class="edge">
<title>Node2&#45;&gt;Node4</title>
<path fill="none" stroke="midnightblue" d="M161.88,-179.48C144.44,-171.04 117.18,-157.86 94.76,-147.01"/>
<polygon fill="midnightblue" stroke="midnightblue" points="96.01,-143.73 85.49,-142.52 92.97,-150.03 96.01,-143.73"/>
</g>
<!-- Node5 -->
<g id="node5" class="node">
<title>Node5</title>
<g id="a_node5"><a xlink:title=" ">
<polygon fill="white" stroke="#bfbfbf" points="325.5,-0.5 325.5,-19.5 459.5,-19.5 459.5,-0.5 325.5,-0.5"/>
<text text-anchor="middle" x="392.5" y="-7.5" font-family="Helvetica,sans-Serif" font-size="10.00">websocketpp/server.hpp</text>
</a>
</g>
</g>
<!-- Node2&#45;&gt;Node5 -->
<g id="edge4" class="edge">
<title>Node2&#45;&gt;Node5</title>
<path fill="none" stroke="midnightblue" d="M174.83,-179.4C163.06,-156.42 135.23,-92.87 165.5,-56 184.32,-33.08 256.93,-21.63 315.03,-16.04"/>
<polygon fill="midnightblue" stroke="midnightblue" points="315.68,-19.5 325.32,-15.1 315.05,-12.53 315.68,-19.5"/>
</g>
<!-- Node6 -->
<g id="node6" class="node">
<title>Node6</title>
<g id="a_node6"><a xlink:href="player_8hpp.html" target="_top" xlink:title=" ">
<polygon fill="white" stroke="black" points="773.5,-56.5 773.5,-75.5 841.5,-75.5 841.5,-56.5 773.5,-56.5"/>
<text text-anchor="middle" x="807.5" y="-63.5" font-family="Helvetica,sans-Serif" font-size="10.00">player.hpp</text>
</a>
</g>
</g>
<!-- Node2&#45;&gt;Node6 -->
<g id="edge5" class="edge">
<title>Node2&#45;&gt;Node6</title>
<path fill="none" stroke="midnightblue" d="M218.12,-186.8C311.18,-183.48 545.47,-172.35 617.5,-143 638,-134.64 636.87,-122.24 656.5,-112 675.2,-102.25 726.17,-87.91 763.74,-78.06"/>
<polygon fill="midnightblue" stroke="midnightblue" points="764.66,-81.44 773.46,-75.53 762.9,-74.66 764.66,-81.44"/>
</g>
<!-- Node9 -->
<g id="node9" class="node">
<title>Node9</title>
<g id="a_node9"><a xlink:href="json__schemas_8hpp.html" target="_top" xlink:title=" ">
<polygon fill="white" stroke="black" points="502,-118 502,-137 609,-137 609,-118 502,-118"/>
<text text-anchor="middle" x="555.5" y="-125" font-family="Helvetica,sans-Serif" font-size="10.00">json_schemas.hpp</text>
</a>
</g>
</g>
<!-- Node2&#45;&gt;Node9 -->
<g id="edge10" class="edge">
<title>Node2&#45;&gt;Node9</title>
<path fill="none" stroke="midnightblue" d="M218.22,-183.49C277.52,-176.34 394.28,-161.33 492.5,-143 498.37,-141.91 504.51,-140.64 510.57,-139.32"/>
<polygon fill="midnightblue" stroke="midnightblue" points="511.62,-142.67 520.62,-137.07 510.1,-135.84 511.62,-142.67"/>
</g>
<!-- Node11 -->
<g id="node11" class="node">
<title>Node11</title>
<g id="a_node11"><a xlink:title=" ">
<polygon fill="white" stroke="#bfbfbf" points="665.5,-118 665.5,-137 697.5,-137 697.5,-118 665.5,-118"/>
<text text-anchor="middle" x="681.5" y="-125" font-family="Helvetica,sans-Serif" font-size="10.00">list</text>
</a>
</g>
</g>
<!-- Node2&#45;&gt;Node11 -->
<g id="edge12" class="edge">
<title>Node2&#45;&gt;Node11</title>
<path fill="none" stroke="midnightblue" d="M218.2,-186.08C315.83,-180.95 570.14,-165.75 651.5,-143 653.38,-142.47 655.29,-141.84 657.18,-141.12"/>
<polygon fill="midnightblue" stroke="midnightblue" points="658.58,-144.33 666.34,-137.12 655.78,-137.91 658.58,-144.33"/>
</g>
<!-- Node6&#45;&gt;Node3 -->
<g id="edge9" class="edge">
<title>Node6&#45;&gt;Node3</title>
<path fill="none" stroke="midnightblue" d="M803.54,-56.08C800.29,-48.77 795.58,-38.18 791.55,-29.1"/>
<polygon fill="midnightblue" stroke="midnightblue" points="794.65,-27.47 787.39,-19.75 788.25,-30.31 794.65,-27.47"/>
</g>
<!-- Node6&#45;&gt;Node5 -->
<g id="edge8" class="edge">
<title>Node6&#45;&gt;Node5</title>
<path fill="none" stroke="midnightblue" d="M773.28,-57.56C770.32,-57 767.36,-56.47 764.5,-56 663.19,-39.3 545.41,-26.09 469.97,-18.41"/>
<polygon fill="midnightblue" stroke="midnightblue" points="469.91,-14.89 459.61,-17.36 469.21,-21.85 469.91,-14.89"/>
</g>
<!-- Node7 -->
<g id="node7" class="node">
<title>Node7</title>
<g id="a_node7"><a xlink:title=" ">
<polygon fill="white" stroke="#bfbfbf" points="934.5,-0.5 934.5,-19.5 978.5,-19.5 978.5,-0.5 934.5,-0.5"/>
<text text-anchor="middle" x="956.5" y="-7.5" font-family="Helvetica,sans-Serif" font-size="10.00">string</text>
</a>
</g>
</g>
<!-- Node6&#45;&gt;Node7 -->
<g id="edge6" class="edge">
<title>Node6&#45;&gt;Node7</title>
<path fill="none" stroke="midnightblue" d="M831.11,-56.44C856.4,-47.28 896.67,-32.68 924.72,-22.52"/>
<polygon fill="midnightblue" stroke="midnightblue" points="926.25,-25.69 934.46,-18.99 923.86,-19.11 926.25,-25.69"/>
</g>
<!-- Node8 -->
<g id="node8" class="node">
<title>Node8</title>
<g id="a_node8"><a xlink:title=" ">
<polygon fill="white" stroke="#bfbfbf" points="856.5,-0.5 856.5,-19.5 916.5,-19.5 916.5,-0.5 856.5,-0.5"/>
<text text-anchor="middle" x="886.5" y="-7.5" font-family="Helvetica,sans-Serif" font-size="10.00">iostream</text>
</a>
</g>
</g>
<!-- Node6&#45;&gt;Node8 -->
<g id="edge7" class="edge">
<title>Node6&#45;&gt;Node8</title>
<path fill="none" stroke="midnightblue" d="M820.19,-56.32C832.4,-47.98 851.08,-35.21 865.5,-25.35"/>
<polygon fill="midnightblue" stroke="midnightblue" points="867.56,-28.19 873.84,-19.65 863.61,-22.41 867.56,-28.19"/>
</g>
<!-- Node10 -->
<g id="node10" class="node">
<title>Node10</title>
<g id="a_node10"><a xlink:title=" ">
<polygon fill="white" stroke="#bfbfbf" points="603.5,-56.5 603.5,-75.5 755.5,-75.5 755.5,-56.5 603.5,-56.5"/>
<text text-anchor="middle" x="679.5" y="-63.5" font-family="Helvetica,sans-Serif" font-size="10.00">nlohmann/json&#45;schema.hpp</text>
</a>
</g>
</g>
<!-- Node9&#45;&gt;Node10 -->
<g id="edge11" class="edge">
<title>Node9&#45;&gt;Node10</title>
<path fill="none" stroke="midnightblue" d="M573.27,-117.98C593.98,-108.03 628.45,-91.49 652.49,-79.96"/>
<polygon fill="midnightblue" stroke="midnightblue" points="654.27,-82.99 661.77,-75.51 651.24,-76.68 654.27,-82.99"/>
</g>
<!-- Node12&#45;&gt;Node2 -->
<g id="edge40" class="edge">
<title>Node12&#45;&gt;Node2</title>
<path fill="none" stroke="midnightblue" d="M690.73,-241.75C610.03,-236.34 403.8,-221.33 232.5,-199 231.2,-198.83 229.88,-198.65 228.55,-198.47"/>
<polygon fill="midnightblue" stroke="midnightblue" points="228.64,-194.94 218.24,-196.93 227.61,-201.87 228.64,-194.94"/>
</g>
<!-- Node12&#45;&gt;Node3 -->
<g id="edge16" class="edge">
<title>Node12&#45;&gt;Node3</title>
<path fill="none" stroke="midnightblue" d="M690.72,-242.6C558.47,-236.16 101.09,-203.01 236.5,-56 252.62,-38.5 576.62,-20.91 718.22,-14.03"/>
<polygon fill="midnightblue" stroke="midnightblue" points="718.68,-17.51 728.5,-13.53 718.34,-10.52 718.68,-17.51"/>
</g>
<!-- Node12&#45;&gt;Node6 -->
<g id="edge17" class="edge">
<title>Node12&#45;&gt;Node6</title>
<path fill="none" stroke="midnightblue" d="M729.46,-235.46C742.09,-208.19 781.66,-122.78 799.1,-85.13"/>
<polygon fill="midnightblue" stroke="midnightblue" points="802.36,-86.41 803.39,-75.87 796.01,-83.47 802.36,-86.41"/>
</g>
<!-- Node12&#45;&gt;Node10 -->
<g id="edge48" class="edge">
<title>Node12&#45;&gt;Node10</title>
<path fill="none" stroke="midnightblue" d="M725.43,-235.38C724.99,-213.9 722.33,-156.5 706.5,-112 703.03,-102.25 697.33,-92.3 692.05,-84.24"/>
<polygon fill="midnightblue" stroke="midnightblue" points="694.78,-82.02 686.22,-75.77 689.01,-85.99 694.78,-82.02"/>
</g>
<!-- Node12&#45;&gt;Node11 -->
<g id="edge14" class="edge">
<title>Node12&#45;&gt;Node11</title>
<path fill="none" stroke="midnightblue" d="M722.19,-235.32C715.06,-216.59 698.09,-172.05 688.47,-146.79"/>
<polygon fill="midnightblue" stroke="midnightblue" points="691.68,-145.38 684.85,-137.28 685.13,-147.87 691.68,-145.38"/>
</g>
<!-- Node13 -->
<g id="node13" class="node">
<title>Node13</title>
<g id="a_node13"><a xlink:title=" ">
<polygon fill="white" stroke="#bfbfbf" points="1209.5,-0.5 1209.5,-19.5 1267.5,-19.5 1267.5,-0.5 1209.5,-0.5"/>
<text text-anchor="middle" x="1238.5" y="-7.5" font-family="Helvetica,sans-Serif" font-size="10.00">memory</text>
</a>
</g>
</g>
<!-- Node12&#45;&gt;Node13 -->
<g id="edge15" class="edge">
<title>Node12&#45;&gt;Node13</title>
<path fill="none" stroke="midnightblue" d="M760.32,-243.05C850.44,-240.18 1089.32,-229.79 1161.5,-199 1223.33,-172.62 1238.88,-142.37 1249.5,-76 1252.01,-60.28 1248.55,-42.46 1244.86,-29.46"/>
<polygon fill="midnightblue" stroke="midnightblue" points="1248.17,-28.32 1241.84,-19.82 1241.49,-30.41 1248.17,-28.32"/>
</g>
<!-- Node14 -->
<g id="node14" class="node">
<title>Node14</title>
<g id="a_node14"><a xlink:href="gamechange_8hpp.html" target="_top" xlink:title=" ">
<polygon fill="white" stroke="black" points="868,-118 868,-137 969,-137 969,-118 868,-118"/>
<text text-anchor="middle" x="918.5" y="-125" font-family="Helvetica,sans-Serif" font-size="10.00">gamechange.hpp</text>
</a>
</g>
</g>
<!-- Node12&#45;&gt;Node14 -->
<g id="edge18" class="edge">
<title>Node12&#45;&gt;Node14</title>
<path fill="none" stroke="midnightblue" d="M740.01,-235.32C773.27,-215.41 855.26,-166.34 895.49,-142.27"/>
<polygon fill="midnightblue" stroke="midnightblue" points="897.31,-145.26 904.09,-137.12 893.71,-139.26 897.31,-145.26"/>
</g>
<!-- Node20 -->
<g id="node20" class="node">
<title>Node20</title>
<g id="a_node20"><a xlink:href="gamestate_8hpp.html" target="_top" xlink:title=" ">
<polygon fill="white" stroke="black" points="1062.5,-179.5 1062.5,-198.5 1152.5,-198.5 1152.5,-179.5 1062.5,-179.5"/>
<text text-anchor="middle" x="1107.5" y="-186.5" font-family="Helvetica,sans-Serif" font-size="10.00">gamestate.hpp</text>
</a>
</g>
</g>
<!-- Node12&#45;&gt;Node20 -->
<g id="edge30" class="edge">
<title>Node12&#45;&gt;Node20</title>
<path fill="none" stroke="midnightblue" d="M760.07,-239.11C826.34,-229.75 971.74,-209.19 1051.84,-197.87"/>
<polygon fill="midnightblue" stroke="midnightblue" points="1052.8,-201.27 1062.22,-196.4 1051.82,-194.34 1052.8,-201.27"/>
</g>
<!-- Node23 -->
<g id="node23" class="node">
<title>Node23</title>
<g id="a_node23"><a xlink:href="newgamepoll_8hpp.html" target="_top" xlink:title=" ">
<polygon fill="white" stroke="black" points="379.5,-118 379.5,-137 483.5,-137 483.5,-118 379.5,-118"/>
<text text-anchor="middle" x="431.5" y="-125" font-family="Helvetica,sans-Serif" font-size="10.00">newgamepoll.hpp</text>
</a>
</g>
</g>
<!-- Node12&#45;&gt;Node23 -->
<g id="edge41" class="edge">
<title>Node12&#45;&gt;Node23</title>
<path fill="none" stroke="midnightblue" d="M703.4,-235.32C651.66,-214.99 522.54,-164.26 462.77,-140.78"/>
<polygon fill="midnightblue" stroke="midnightblue" points="464.04,-137.52 453.45,-137.12 461.48,-144.04 464.04,-137.52"/>
</g>
<!-- Node14&#45;&gt;Node6 -->
<g id="edge19" class="edge">
<title>Node14&#45;&gt;Node6</title>
<path fill="none" stroke="midnightblue" d="M902.6,-117.98C884.22,-108.12 853.74,-91.79 832.26,-80.27"/>
<polygon fill="midnightblue" stroke="midnightblue" points="833.84,-77.15 823.37,-75.51 830.53,-83.32 833.84,-77.15"/>
</g>
<!-- Node15 -->
<g id="node15" class="node">
<title>Node15</title>
<g id="a_node15"><a xlink:href="field_8hpp.html" target="_top" xlink:title=" ">
<polygon fill="white" stroke="black" points="1051,-56.5 1051,-75.5 1110,-75.5 1110,-56.5 1051,-56.5"/>
<text text-anchor="middle" x="1080.5" y="-63.5" font-family="Helvetica,sans-Serif" font-size="10.00">field.hpp</text>
</a>
</g>
</g>
<!-- Node14&#45;&gt;Node15 -->
<g id="edge20" class="edge">
<title>Node14&#45;&gt;Node15</title>
<path fill="none" stroke="midnightblue" d="M941.71,-117.98C969.5,-107.77 1016.22,-90.61 1047.69,-79.05"/>
<polygon fill="midnightblue" stroke="midnightblue" points="1049.15,-82.24 1057.33,-75.51 1046.74,-75.67 1049.15,-82.24"/>
</g>
<!-- Node17 -->
<g id="node17" class="node">
<title>Node17</title>
<g id="a_node17"><a xlink:href="dot_8hpp.html" target="_top" xlink:title=" ">
<polygon fill="white" stroke="black" points="1167,-56.5 1167,-75.5 1220,-75.5 1220,-56.5 1167,-56.5"/>
<text text-anchor="middle" x="1193.5" y="-63.5" font-family="Helvetica,sans-Serif" font-size="10.00">dot.hpp</text>
</a>
</g>
</g>
<!-- Node14&#45;&gt;Node17 -->
<g id="edge24" class="edge">
<title>Node14&#45;&gt;Node17</title>
<path fill="none" stroke="midnightblue" d="M953.04,-117.96C961.37,-115.96 970.24,-113.86 978.5,-112 1041.05,-97.9 1114.18,-82.91 1157.01,-74.28"/>
<polygon fill="midnightblue" stroke="midnightblue" points="1157.85,-77.68 1166.96,-72.28 1156.47,-70.82 1157.85,-77.68"/>
</g>
<!-- Node15&#45;&gt;Node3 -->
<g id="edge22" class="edge">
<title>Node15&#45;&gt;Node3</title>
<path fill="none" stroke="midnightblue" d="M1050.94,-59.62C1002.01,-50.73 903.39,-32.8 840.54,-21.37"/>
<polygon fill="midnightblue" stroke="midnightblue" points="840.86,-17.87 830.4,-19.53 839.61,-24.76 840.86,-17.87"/>
</g>
<!-- Node15&#45;&gt;Node13 -->
<g id="edge23" class="edge">
<title>Node15&#45;&gt;Node13</title>
<path fill="none" stroke="midnightblue" d="M1105.54,-56.44C1132.12,-47.36 1174.31,-32.94 1204.02,-22.78"/>
<polygon fill="midnightblue" stroke="midnightblue" points="1205.25,-26.06 1213.58,-19.52 1202.99,-19.44 1205.25,-26.06"/>
</g>
<!-- Node16 -->
<g id="node16" class="node">
<title>Node16</title>
<g id="a_node16"><a xlink:href="position__type_8hpp.html" target="_top" xlink:title=" ">
<polygon fill="white" stroke="black" points="1037.5,-0.5 1037.5,-19.5 1141.5,-19.5 1141.5,-0.5 1037.5,-0.5"/>
<text text-anchor="middle" x="1089.5" y="-7.5" font-family="Helvetica,sans-Serif" font-size="10.00">position_type.hpp</text>
</a>
</g>
</g>
<!-- Node15&#45;&gt;Node16 -->
<g id="edge21" class="edge">
<title>Node15&#45;&gt;Node16</title>
<path fill="none" stroke="midnightblue" d="M1081.99,-56.08C1083.18,-48.93 1084.89,-38.64 1086.38,-29.69"/>
<polygon fill="midnightblue" stroke="midnightblue" points="1089.85,-30.19 1088.04,-19.75 1082.95,-29.04 1089.85,-30.19"/>
</g>
<!-- Node17&#45;&gt;Node3 -->
<g id="edge29" class="edge">
<title>Node17&#45;&gt;Node3</title>
<path fill="none" stroke="midnightblue" d="M1166.57,-61.59C1109.87,-54.4 973.78,-37.03 848.78,-20.16"/>
<polygon fill="midnightblue" stroke="midnightblue" points="849.03,-16.66 838.65,-18.79 848.09,-23.6 849.03,-16.66"/>
</g>
<!-- Node17&#45;&gt;Node13 -->
<g id="edge28" class="edge">
<title>Node17&#45;&gt;Node13</title>
<path fill="none" stroke="midnightblue" d="M1200.93,-56.08C1207.35,-48.38 1216.81,-37.03 1224.62,-27.65"/>
<polygon fill="midnightblue" stroke="midnightblue" points="1227.49,-29.67 1231.21,-19.75 1222.12,-25.19 1227.49,-29.67"/>
</g>
<!-- Node17&#45;&gt;Node16 -->
<g id="edge25" class="edge">
<title>Node17&#45;&gt;Node16</title>
<path fill="none" stroke="midnightblue" d="M1176.79,-56.32C1160.19,-47.7 1134.5,-34.36 1115.28,-24.39"/>
<polygon fill="midnightblue" stroke="midnightblue" points="1116.66,-21.16 1106.17,-19.65 1113.43,-27.37 1116.66,-21.16"/>
</g>
<!-- Node18 -->
<g id="node18" class="node">
<title>Node18</title>
<g id="a_node18"><a xlink:title=" ">
<polygon fill="white" stroke="#bfbfbf" points="1159.5,-0.5 1159.5,-19.5 1191.5,-19.5 1191.5,-0.5 1159.5,-0.5"/>
<text text-anchor="middle" x="1175.5" y="-7.5" font-family="Helvetica,sans-Serif" font-size="10.00">set</text>
</a>
</g>
</g>
<!-- Node17&#45;&gt;Node18 -->
<g id="edge26" class="edge">
<title>Node17&#45;&gt;Node18</title>
<path fill="none" stroke="midnightblue" d="M1190.53,-56.08C1188.12,-48.85 1184.64,-38.41 1181.63,-29.4"/>
<polygon fill="midnightblue" stroke="midnightblue" points="1184.9,-28.13 1178.42,-19.75 1178.26,-30.34 1184.9,-28.13"/>
</g>
<!-- Node19 -->
<g id="node19" class="node">
<title>Node19</title>
<g id="a_node19"><a xlink:title=" ">
<polygon fill="white" stroke="#bfbfbf" points="1285.5,-0.5 1285.5,-19.5 1323.5,-19.5 1323.5,-0.5 1285.5,-0.5"/>
<text text-anchor="middle" x="1304.5" y="-7.5" font-family="Helvetica,sans-Serif" font-size="10.00">map</text>
</a>
</g>
</g>
<!-- Node17&#45;&gt;Node19 -->
<g id="edge27" class="edge">
<title>Node17&#45;&gt;Node19</title>
<path fill="none" stroke="midnightblue" d="M1211.33,-56.32C1229.22,-47.62 1256.98,-34.12 1277.55,-24.11"/>
<polygon fill="midnightblue" stroke="midnightblue" points="1279.25,-27.18 1286.71,-19.65 1276.19,-20.88 1279.25,-27.18"/>
</g>
<!-- Node20&#45;&gt;Node3 -->
<g id="edge38" class="edge">
<title>Node20&#45;&gt;Node3</title>
<path fill="none" stroke="midnightblue" d="M1062.25,-186.11C998.31,-182.43 886.3,-171.93 859.5,-143 833.08,-114.48 870.53,-89.32 850.5,-56 842.11,-42.05 827.54,-31.49 814.12,-24.12"/>
<polygon fill="midnightblue" stroke="midnightblue" points="815.6,-20.95 805.1,-19.52 812.42,-27.18 815.6,-20.95"/>
</g>
<!-- Node20&#45;&gt;Node13 -->
<g id="edge33" class="edge">
<title>Node20&#45;&gt;Node13</title>
<path fill="none" stroke="midnightblue" d="M1141.54,-179.37C1162.2,-172.56 1187.73,-161.12 1204.5,-143 1233.75,-111.4 1238.6,-58.05 1238.95,-29.82"/>
<polygon fill="midnightblue" stroke="midnightblue" points="1242.45,-29.69 1238.9,-19.71 1235.45,-29.72 1242.45,-29.69"/>
</g>
<!-- Node20&#45;&gt;Node14 -->
<g id="edge39" class="edge">
<title>Node20&#45;&gt;Node14</title>
<path fill="none" stroke="midnightblue" d="M1080.42,-179.48C1047.58,-169.14 992.07,-151.66 955.35,-140.1"/>
<polygon fill="midnightblue" stroke="midnightblue" points="956.12,-136.67 945.53,-137.01 954.02,-143.35 956.12,-136.67"/>
</g>
<!-- Node20&#45;&gt;Node15 -->
<g id="edge35" class="edge">
<title>Node20&#45;&gt;Node15</title>
<path fill="none" stroke="midnightblue" d="M1110.76,-179.3C1115.66,-164.88 1123.51,-135.34 1115.5,-112 1111.78,-101.16 1104.27,-90.92 1097.15,-82.96"/>
<polygon fill="midnightblue" stroke="midnightblue" points="1099.5,-80.35 1090.06,-75.55 1094.45,-85.19 1099.5,-80.35"/>
</g>
<!-- Node20&#45;&gt;Node16 -->
<g id="edge37" class="edge">
<title>Node20&#45;&gt;Node16</title>
<path fill="none" stroke="midnightblue" d="M1113.6,-179.19C1119.25,-170.46 1127.26,-156.48 1130.5,-143 1133.72,-129.6 1131.83,-125.71 1130.5,-112 1128.04,-86.75 1129.17,-79.45 1119.5,-56 1115.39,-46.03 1108.94,-35.96 1103.06,-27.87"/>
<polygon fill="midnightblue" stroke="midnightblue" points="1105.68,-25.54 1096.84,-19.7 1100.12,-29.78 1105.68,-25.54"/>
</g>
<!-- Node20&#45;&gt;Node17 -->
<g id="edge36" class="edge">
<title>Node20&#45;&gt;Node17</title>
<path fill="none" stroke="midnightblue" d="M1136.03,-179.35C1153.62,-172.45 1174.96,-160.91 1186.5,-143 1197.46,-125.99 1197.84,-102.22 1196.35,-85.81"/>
<polygon fill="midnightblue" stroke="midnightblue" points="1199.82,-85.31 1195.14,-75.81 1192.87,-86.16 1199.82,-85.31"/>
</g>
<!-- Node20&#45;&gt;Node19 -->
<g id="edge32" class="edge">
<title>Node20&#45;&gt;Node19</title>
<path fill="none" stroke="midnightblue" d="M1150.6,-179.43C1175.26,-172.79 1205.56,-161.51 1227.5,-143 1264.56,-111.74 1287.95,-57.85 1298.3,-29.56"/>
<polygon fill="midnightblue" stroke="midnightblue" points="1301.73,-30.36 1301.73,-19.76 1295.12,-28.04 1301.73,-30.36"/>
</g>
<!-- Node21 -->
<g id="node21" class="node">
<title>Node21</title>
<g id="a_node21"><a xlink:title=" ">
<polygon fill="white" stroke="#bfbfbf" points="987,-118 987,-137 1034,-137 1034,-118 987,-118"/>
<text text-anchor="middle" x="1010.5" y="-125" font-family="Helvetica,sans-Serif" font-size="10.00">vector</text>
</a>
</g>
</g>
<!-- Node20&#45;&gt;Node21 -->
<g id="edge31" class="edge">
<title>Node20&#45;&gt;Node21</title>
<path fill="none" stroke="midnightblue" d="M1093.6,-179.48C1077.83,-169.8 1051.86,-153.87 1033.15,-142.39"/>
<polygon fill="midnightblue" stroke="midnightblue" points="1034.73,-139.25 1024.37,-137.01 1031.07,-145.22 1034.73,-139.25"/>
</g>
<!-- Node22 -->
<g id="node22" class="node">
<title>Node22</title>
<g id="a_node22"><a xlink:title=" ">
<polygon fill="white" stroke="#bfbfbf" points="1052.5,-118 1052.5,-137 1106.5,-137 1106.5,-118 1052.5,-118"/>
<text text-anchor="middle" x="1079.5" y="-125" font-family="Helvetica,sans-Serif" font-size="10.00">random</text>
</a>
</g>
</g>
<!-- Node20&#45;&gt;Node22 -->
<g id="edge34" class="edge">
<title>Node20&#45;&gt;Node22</title>
<path fill="none" stroke="midnightblue" d="M1103.49,-179.48C1099.41,-170.82 1092.98,-157.15 1087.8,-146.15"/>
<polygon fill="midnightblue" stroke="midnightblue" points="1090.93,-144.57 1083.5,-137.01 1084.6,-147.55 1090.93,-144.57"/>
</g>
<!-- Node23&#45;&gt;Node3 -->
<g id="edge47" class="edge">
<title>Node23&#45;&gt;Node3</title>
<path fill="none" stroke="midnightblue" d="M454.84,-117.88C480.17,-108.33 521.68,-92.15 556.5,-76 573.81,-67.97 576.63,-62.71 594.5,-56 636.06,-40.4 684.85,-28.94 722.45,-21.5"/>
<polygon fill="midnightblue" stroke="midnightblue" points="723.59,-24.84 732.74,-19.5 722.25,-17.97 723.59,-24.84"/>
</g>
<!-- Node23&#45;&gt;Node6 -->
<g id="edge42" class="edge">
<title>Node23&#45;&gt;Node6</title>
<path fill="none" stroke="midnightblue" d="M464.61,-117.98C473.62,-115.84 483.4,-113.68 492.5,-112 609.26,-90.45 642.55,-96.18 763.27,-76.09"/>
<polygon fill="midnightblue" stroke="midnightblue" points="764,-79.52 773.28,-74.4 762.83,-72.62 764,-79.52"/>
</g>
<!-- Node24 -->
<g id="node24" class="node">
<title>Node24</title>
<g id="a_node24"><a xlink:title=" ">
<polygon fill="white" stroke="#bfbfbf" points="499.5,-56.5 499.5,-75.5 547.5,-75.5 547.5,-56.5 499.5,-56.5"/>
<text text-anchor="middle" x="523.5" y="-63.5" font-family="Helvetica,sans-Serif" font-size="10.00">thread</text>
</a>
</g>
</g>
<!-- Node23&#45;&gt;Node24 -->
<g id="edge43" class="edge">
<title>Node23&#45;&gt;Node24</title>
<path fill="none" stroke="midnightblue" d="M444.68,-117.98C459.57,-108.34 484.04,-92.52 501.77,-81.05"/>
<polygon fill="midnightblue" stroke="midnightblue" points="503.85,-83.88 510.34,-75.51 500.05,-78 503.85,-83.88"/>
</g>
<!-- Node25 -->
<g id="node25" class="node">
<title>Node25</title>
<g id="a_node25"><a xlink:title=" ">
<polygon fill="white" stroke="#bfbfbf" points="245.5,-56.5 245.5,-75.5 293.5,-75.5 293.5,-56.5 245.5,-56.5"/>
<text text-anchor="middle" x="269.5" y="-63.5" font-family="Helvetica,sans-Serif" font-size="10.00">mutex</text>
</a>
</g>
</g>
<!-- Node23&#45;&gt;Node25 -->
<g id="edge44" class="edge">
<title>Node23&#45;&gt;Node25</title>
<path fill="none" stroke="midnightblue" d="M408.29,-117.98C380.5,-107.77 333.78,-90.61 302.31,-79.05"/>
<polygon fill="midnightblue" stroke="midnightblue" points="303.26,-75.67 292.67,-75.51 300.85,-82.24 303.26,-75.67"/>
</g>
<!-- Node26 -->
<g id="node26" class="node">
<title>Node26</title>
<g id="a_node26"><a xlink:title=" ">
<polygon fill="white" stroke="#bfbfbf" points="311.5,-56.5 311.5,-75.5 397.5,-75.5 397.5,-56.5 311.5,-56.5"/>
<text text-anchor="middle" x="354.5" y="-63.5" font-family="Helvetica,sans-Serif" font-size="10.00">unordered_set</text>
</a>
</g>
</g>
<!-- Node23&#45;&gt;Node26 -->
<g id="edge45" class="edge">
<title>Node23&#45;&gt;Node26</title>
<path fill="none" stroke="midnightblue" d="M420.47,-117.98C408.23,-108.52 388.27,-93.1 373.51,-81.69"/>
<polygon fill="midnightblue" stroke="midnightblue" points="375.56,-78.85 365.51,-75.51 371.28,-84.39 375.56,-78.85"/>
</g>
<!-- Node27 -->
<g id="node27" class="node">
<title>Node27</title>
<g id="a_node27"><a xlink:title=" ">
<polygon fill="white" stroke="#bfbfbf" points="416,-56.5 416,-75.5 481,-75.5 481,-56.5 416,-56.5"/>
<text text-anchor="middle" x="448.5" y="-63.5" font-family="Helvetica,sans-Serif" font-size="10.00">functional</text>
</a>
</g>
</g>
<!-- Node23&#45;&gt;Node27 -->
<g id="edge46" class="edge">
<title>Node23&#45;&gt;Node27</title>
<path fill="none" stroke="midnightblue" d="M433.94,-117.98C436.36,-109.49 440.16,-96.2 443.27,-85.32"/>
<polygon fill="midnightblue" stroke="midnightblue" points="446.69,-86.09 446.07,-75.51 439.96,-84.16 446.69,-86.09"/>
</g>
<!-- Node28&#45;&gt;Node7 -->
<g id="edge51" class="edge">
<title>Node28&#45;&gt;Node7</title>
<path fill="none" stroke="midnightblue" d="M956.5,-56.08C956.5,-49.01 956.5,-38.86 956.5,-29.99"/>
<polygon fill="midnightblue" stroke="midnightblue" points="960,-29.75 956.5,-19.75 953,-29.75 960,-29.75"/>
</g>
<!-- Node28&#45;&gt;Node8 -->
<g id="edge50" class="edge">
<title>Node28&#45;&gt;Node8</title>
<path fill="none" stroke="midnightblue" d="M945.25,-56.32C934.7,-48.18 918.7,-35.84 906.06,-26.09"/>
<polygon fill="midnightblue" stroke="midnightblue" points="908.01,-23.17 897.95,-19.83 903.73,-28.71 908.01,-23.17"/>
</g>
</g>
</svg>
        <g id="navigator" transform="translate(0 0)" fill="#404254">
                <rect fill="#f2f5e9" fill-opacity="0.5" stroke="#606060" stroke-width=".5" x="0" y="0" width="60" height="60"/>
                <use id="zoomplus" xlink:href="#zoomPlus" x="17" y="9" onmousedown="handleZoom(evt,'in')"/>
                <use id="zoomminus" xlink:href="#zoomMin" x="42" y="9" onmousedown="handleZoom(evt,'out')"/>
                <use id="reset" xlink:href="#resetDef" x="30" y="36" onmousedown="handleReset()"/>
                <g id="arrowUp" xlink:href="#dirArrow" transform="translate(30 24)" onmousedown="handlePan(0,-1)">
                  <use xlink:href="#rim" fill="#404040">
                        <set attributeName="fill" to="#808080" begin="arrowUp.mouseover" end="arrowUp.mouseout"/>
                  </use>
                  <path fill="none" stroke="white" stroke-width="1.5" d="M0,-3.0v7 M-2.5,-0.5L0,-3.0L2.5,-0.5"/>
                </g>
                <g id="arrowRight" xlink:href="#dirArrow" transform="rotate(90) translate(36 -43)" onmousedown="handlePan(1,0)">
                  <use xlink:href="#rim" fill="#404040">
                        <set attributeName="fill" to="#808080" begin="arrowRight.mouseover" end="arrowRight.mouseout"/>
                  </use>
                  <path fill="none" stroke="white" stroke-width="1.5" d="M0,-3.0v7 M-2.5,-0.5L0,-3.0L2.5,-0.5"/>
                </g>
                <g id="arrowDown" xlink:href="#dirArrow" transform="rotate(180) translate(-30 -48)" onmousedown="handlePan(0,1)">
                  <use xlink:href="#rim" fill="#404040">
                        <set attributeName="fill" to="#808080" begin="arrowDown.mouseover" end="arrowDown.mouseout"/>
                  </use>
                  <path fill="none" stroke="white" stroke-width="1.5" d="M0,-3.0v7 M-2.5,-0.5L0,-3.0L2.5,-0.5"/>
                </g>
                <g id="arrowLeft" xlink:href="#dirArrow" transform="rotate(270) translate(-36 17)" onmousedown="handlePan(-1,0)">
                  <use xlink:href="#rim" fill="#404040">
                        <set attributeName="fill" to="#808080" begin="arrowLeft.mouseover" end="arrowLeft.mouseout"/>
                  </use>
                  <path fill="none" stroke="white" stroke-width="1.5" d="M0,-3.0v7 M-2.5,-0.5L0,-3.0L2.5,-0.5"/>
                </g>
        </g>
        <svg viewBox="0 0 15 15" width="100%" height="30px" preserveAspectRatio="xMaxYMin meet">
         <g id="arrow_out" transform="scale(0.3 0.3)">
          <a xlink:href="network_8cpp__incl_org.svg" target="_base">
           <rect id="button" ry="5" rx="5" y="6" x="6" height="38" width="38"
                fill="#f2f5e9" fill-opacity="0.5" stroke="#606060" stroke-width="1.0"/>
           <path id="arrow"
             d="M 11.500037,31.436501 C 11.940474,20.09759 22.043105,11.32322 32.158766,21.979434 L 37.068811,17.246167 C 37.068811,17.246167 37.088388,32 37.088388,32 L 22.160133,31.978069 C 22.160133,31.978069 26.997745,27.140456 26.997745,27.140456 C 18.528582,18.264221 13.291696,25.230495 11.500037,31.436501 z"
             style="fill:#404040;"/>
          </a>
         </g>
        </svg>
</svg>
