<?xml version="1.0" encoding="UTF-8" standalone="no"?>
<!DOCTYPE svg PUBLIC "-//W3C//DTD SVG 1.1//EN"
 "http://www.w3.org/Graphics/SVG/1.1/DTD/svg11.dtd">
<!-- Generated by graphviz version 2.43.0 (0)
 -->
<!-- Title: src/newgamepoll.cpp Pages: 1 -->
<!--zoomable 319 -->
<svg id="main" version="1.1" xmlns="http://www.w3.org/2000/svg" xmlns:xlink="http://www.w3.org/1999/xlink" xml:space="preserve" onload="init(evt)">
<style type="text/css"><![CDATA[
.edge:hover path { stroke: red; }
.edge:hover polygon { stroke: red; fill: red; }
]]></style>
<script type="text/javascript"><![CDATA[
var edges = document.getElementsByTagName('g');
if (edges && edges.length) {
  for (var i=0;i<edges.length;i++) {
    if (edges[i].id.substr(0,4)=='edge') {
      edges[i].setAttribute('class','edge');
    }
  }
}
]]></script>
        <defs>
                <circle id="rim" cx="0" cy="0" r="7"/>
                <circle id="rim2" cx="0" cy="0" r="3.5"/>
                <g id="zoomPlus">
                        <use xlink:href="#rim" fill="#404040">
                                <set attributeName="fill" to="#808080" begin="zoomplus.mouseover" end="zoomplus.mouseout"/>
                        </use>
                        <path d="M-4,0h8M0,-4v8" fill="none" stroke="white" stroke-width="1.5" pointer-events="none"/>
                </g>
                <g id="zoomMin">
                        <use xlink:href="#rim" fill="#404040">
                                <set attributeName="fill" to="#808080" begin="zoomminus.mouseover" end="zoomminus.mouseout"/>
                        </use>
                        <path d="M-4,0h8" fill="none" stroke="white" stroke-width="1.5" pointer-events="none"/>
                </g>
                <g id="dirArrow">
                        <path fill="none" stroke="white" stroke-width="1.5" d="M0,-3.0v7 M-2.5,-0.5L0,-3.0L2.5,-0.5"/>
                </g>
               <g id="resetDef">
                       <use xlink:href="#rim2" fill="#404040">
                               <set attributeName="fill" to="#808080" begin="reset.mouseover" end="reset.mouseout"/>
                       </use>
               </g>
        </defs>

<script type="text/javascript">
var viewWidth = 1473;
var viewHeight = 319;
var sectionId = 'dynsection-0';
</script>
<script xlink:href="svgpan.js"/>
<svg id="graph" class="graph">
<g id="viewport">
<title>src/newgamepoll.cpp</title>
<polygon fill="white" stroke="transparent" points="-4,4 -4,-315 1469.3,-315 1469.3,4 -4,4"/>
<!-- Node1 -->
<g id="node1" class="node">
<title>Node1</title>
<g id="a_node1"><a xlink:title=" ">
<polygon fill="#bfbfbf" stroke="black" points="1128,-291.5 1128,-310.5 1248,-310.5 1248,-291.5 1128,-291.5"/>
<text text-anchor="middle" x="1188" y="-298.5" font-family="Helvetica,sans-Serif" font-size="10.00">src/newgamepoll.cpp</text>
</a>
</g>
</g>
<!-- Node2 -->
<g id="node2" class="node">
<title>Node2</title>
<g id="a_node2"><a xlink:href="galaxy_8hpp.html" target="_top" xlink:title=" ">
<polygon fill="white" stroke="black" points="664.5,-235.5 664.5,-254.5 733.5,-254.5 733.5,-235.5 664.5,-235.5"/>
<text text-anchor="middle" x="699" y="-242.5" font-family="Helvetica,sans-Serif" font-size="10.00">galaxy.hpp</text>
</a>
</g>
</g>
<!-- Node1&#45;&gt;Node2 -->
<g id="edge1" class="edge">
<title>Node1&#45;&gt;Node2</title>
<path fill="none" stroke="midnightblue" d="M1127.55,-293.32C1028,-282.33 831.83,-260.67 743.71,-250.94"/>
<polygon fill="midnightblue" stroke="midnightblue" points="744.09,-247.46 733.77,-249.84 743.32,-254.42 744.09,-247.46"/>
</g>
<!-- Node23 -->
<g id="node23" class="node">
<title>Node23</title>
<g id="a_node23"><a xlink:href="newgamepoll_8hpp.html" target="_top" xlink:title=" ">
<polygon fill="white" stroke="black" points="1110,-179.5 1110,-198.5 1214,-198.5 1214,-179.5 1110,-179.5"/>
<text text-anchor="middle" x="1162" y="-186.5" font-family="Helvetica,sans-Serif" font-size="10.00">newgamepoll.hpp</text>
</a>
</g>
</g>
<!-- Node1&#45;&gt;Node23 -->
<g id="edge48" class="edge">
<title>Node1&#45;&gt;Node23</title>
<path fill="none" stroke="midnightblue" d="M1185.96,-291.37C1181.76,-273.62 1172.08,-232.67 1166.4,-208.6"/>
<polygon fill="midnightblue" stroke="midnightblue" points="1169.74,-207.52 1164.03,-198.59 1162.92,-209.13 1169.74,-207.52"/>
</g>
<!-- Node28 -->
<g id="node28" class="node">
<title>Node28</title>
<g id="a_node28"><a xlink:title=" ">
<polygon fill="white" stroke="#bfbfbf" points="1190,-235.5 1190,-254.5 1240,-254.5 1240,-235.5 1190,-235.5"/>
<text text-anchor="middle" x="1215" y="-242.5" font-family="Helvetica,sans-Serif" font-size="10.00">chrono</text>
</a>
</g>
</g>
<!-- Node1&#45;&gt;Node28 -->
<g id="edge49" class="edge">
<title>Node1&#45;&gt;Node28</title>
<path fill="none" stroke="midnightblue" d="M1192.46,-291.08C1196.15,-283.69 1201.52,-272.95 1206.09,-263.81"/>
<polygon fill="midnightblue" stroke="midnightblue" points="1209.28,-265.26 1210.62,-254.75 1203.02,-262.13 1209.28,-265.26"/>
</g>
<!-- Node29 -->
<g id="node29" class="node">
<title>Node29</title>
<g id="a_node29"><a xlink:href="debug__functions_8hpp.html" target="_top" xlink:title=" ">
<polygon fill="white" stroke="black" points="1034,-56.5 1034,-75.5 1152,-75.5 1152,-56.5 1034,-56.5"/>
<text text-anchor="middle" x="1093" y="-63.5" font-family="Helvetica,sans-Serif" font-size="10.00">debug_functions.hpp</text>
</a>
</g>
</g>
<!-- Node1&#45;&gt;Node29 -->
<g id="edge50" class="edge">
<title>Node1&#45;&gt;Node29</title>
<path fill="none" stroke="midnightblue" d="M1221.74,-291.42C1308.14,-267.95 1525.35,-198.61 1449,-112 1430.37,-90.87 1260.4,-77.14 1162.21,-70.89"/>
<polygon fill="midnightblue" stroke="midnightblue" points="1162.26,-67.39 1152.06,-70.26 1161.82,-74.38 1162.26,-67.39"/>
</g>
<!-- Node3 -->
<g id="node3" class="node">
<title>Node3</title>
<g id="a_node3"><a xlink:title=" ">
<polygon fill="white" stroke="#bfbfbf" points="974,-118 974,-137 1006,-137 1006,-118 974,-118"/>
<text text-anchor="middle" x="990" y="-125" font-family="Helvetica,sans-Serif" font-size="10.00">list</text>
</a>
</g>
</g>
<!-- Node2&#45;&gt;Node3 -->
<g id="edge2" class="edge">
<title>Node2&#45;&gt;Node3</title>
<path fill="none" stroke="midnightblue" d="M733.53,-237.92C768.93,-231 825.14,-218.14 871,-199 907.78,-183.65 946.89,-158.57 969.84,-142.83"/>
<polygon fill="midnightblue" stroke="midnightblue" points="971.88,-145.68 978.09,-137.1 967.88,-139.93 971.88,-145.68"/>
</g>
<!-- Node4 -->
<g id="node4" class="node">
<title>Node4</title>
<g id="a_node4"><a xlink:title=" ">
<polygon fill="white" stroke="#bfbfbf" points="267,-0.5 267,-19.5 325,-19.5 325,-0.5 267,-0.5"/>
<text text-anchor="middle" x="296" y="-7.5" font-family="Helvetica,sans-Serif" font-size="10.00">memory</text>
</a>
</g>
</g>
<!-- Node2&#45;&gt;Node4 -->
<g id="edge3" class="edge">
<title>Node2&#45;&gt;Node4</title>
<path fill="none" stroke="midnightblue" d="M682.26,-235.43C665.03,-226.55 637.46,-212.13 614,-199 502.05,-136.32 370.88,-56.8 318.89,-25.03"/>
<polygon fill="midnightblue" stroke="midnightblue" points="320.48,-21.91 310.12,-19.67 316.83,-27.88 320.48,-21.91"/>
</g>
<!-- Node5 -->
<g id="node5" class="node">
<title>Node5</title>
<g id="a_node5"><a xlink:title=" ">
<polygon fill="white" stroke="#bfbfbf" points="481,-0.5 481,-19.5 591,-19.5 591,-0.5 481,-0.5"/>
<text text-anchor="middle" x="536" y="-7.5" font-family="Helvetica,sans-Serif" font-size="10.00">nlohmann/json.hpp</text>
</a>
</g>
</g>
<!-- Node2&#45;&gt;Node5 -->
<g id="edge4" class="edge">
<title>Node2&#45;&gt;Node5</title>
<path fill="none" stroke="midnightblue" d="M688.07,-235.43C667.64,-219.05 623.03,-181.47 593,-143 571.94,-116.01 568.34,-107.53 555,-76 548.56,-60.77 543.46,-42.66 540.17,-29.43"/>
<polygon fill="midnightblue" stroke="midnightblue" points="543.56,-28.55 537.85,-19.63 536.75,-30.17 543.56,-28.55"/>
</g>
<!-- Node6 -->
<g id="node6" class="node">
<title>Node6</title>
<g id="a_node6"><a xlink:href="player_8hpp.html" target="_top" xlink:title=" ">
<polygon fill="white" stroke="black" points="942,-56.5 942,-75.5 1010,-75.5 1010,-56.5 942,-56.5"/>
<text text-anchor="middle" x="976" y="-63.5" font-family="Helvetica,sans-Serif" font-size="10.00">player.hpp</text>
</a>
</g>
</g>
<!-- Node2&#45;&gt;Node6 -->
<g id="edge5" class="edge">
<title>Node2&#45;&gt;Node6</title>
<path fill="none" stroke="midnightblue" d="M733.68,-238.6C809.32,-225.99 984.76,-191.93 1015,-143 1027.46,-122.84 1009.16,-98.22 993.65,-82.58"/>
<polygon fill="midnightblue" stroke="midnightblue" points="996.06,-80.04 986.41,-75.68 991.23,-85.11 996.06,-80.04"/>
</g>
<!-- Node10 -->
<g id="node10" class="node">
<title>Node10</title>
<g id="a_node10"><a xlink:href="gamechange_8hpp.html" target="_top" xlink:title=" ">
<polygon fill="white" stroke="black" points="330.5,-118 330.5,-137 431.5,-137 431.5,-118 330.5,-118"/>
<text text-anchor="middle" x="381" y="-125" font-family="Helvetica,sans-Serif" font-size="10.00">gamechange.hpp</text>
</a>
</g>
</g>
<!-- Node2&#45;&gt;Node10 -->
<g id="edge10" class="edge">
<title>Node2&#45;&gt;Node10</title>
<path fill="none" stroke="midnightblue" d="M664.23,-240.96C620.65,-236.21 544.33,-224.74 484,-199 451.19,-185 417.98,-159.85 398.45,-143.68"/>
<polygon fill="midnightblue" stroke="midnightblue" points="400.63,-140.94 390.73,-137.16 396.11,-146.28 400.63,-140.94"/>
</g>
<!-- Node16 -->
<g id="node16" class="node">
<title>Node16</title>
<g id="a_node16"><a xlink:href="gamestate_8hpp.html" target="_top" xlink:title=" ">
<polygon fill="white" stroke="black" points="168,-179.5 168,-198.5 258,-198.5 258,-179.5 168,-179.5"/>
<text text-anchor="middle" x="213" y="-186.5" font-family="Helvetica,sans-Serif" font-size="10.00">gamestate.hpp</text>
</a>
</g>
</g>
<!-- Node2&#45;&gt;Node16 -->
<g id="edge22" class="edge">
<title>Node2&#45;&gt;Node16</title>
<path fill="none" stroke="midnightblue" d="M664.44,-240.16C581.2,-230.91 369.07,-207.34 268.07,-196.12"/>
<polygon fill="midnightblue" stroke="midnightblue" points="268.39,-192.63 258.06,-195.01 267.62,-199.59 268.39,-192.63"/>
</g>
<!-- Node19 -->
<g id="node19" class="node">
<title>Node19</title>
<g id="a_node19"><a xlink:href="network_8hpp.html" target="_top" xlink:title=" ">
<polygon fill="white" stroke="black" points="784.5,-179.5 784.5,-198.5 861.5,-198.5 861.5,-179.5 784.5,-179.5"/>
<text text-anchor="middle" x="823" y="-186.5" font-family="Helvetica,sans-Serif" font-size="10.00">network.hpp</text>
</a>
</g>
</g>
<!-- Node2&#45;&gt;Node19 -->
<g id="edge32" class="edge">
<title>Node2&#45;&gt;Node19</title>
<path fill="none" stroke="midnightblue" d="M718.65,-235.44C738.96,-226.6 770.9,-212.69 794.1,-202.59"/>
<polygon fill="midnightblue" stroke="midnightblue" points="795.67,-205.72 803.44,-198.52 792.88,-199.3 795.67,-205.72"/>
</g>
<!-- Node22 -->
<g id="node22" class="node">
<title>Node22</title>
<g id="a_node22"><a xlink:title=" ">
<polygon fill="white" stroke="#bfbfbf" points="564,-56.5 564,-75.5 716,-75.5 716,-56.5 564,-56.5"/>
<text text-anchor="middle" x="640" y="-63.5" font-family="Helvetica,sans-Serif" font-size="10.00">nlohmann/json&#45;schema.hpp</text>
</a>
</g>
</g>
<!-- Node2&#45;&gt;Node22 -->
<g id="edge47" class="edge">
<title>Node2&#45;&gt;Node22</title>
<path fill="none" stroke="midnightblue" d="M684.13,-235.47C659.65,-220.45 611.72,-186.69 593,-143 587.57,-130.34 587.59,-124.67 593,-112 598.15,-99.95 608.28,-89.58 617.83,-81.84"/>
<polygon fill="midnightblue" stroke="midnightblue" points="620.04,-84.55 625.92,-75.74 615.83,-78.96 620.04,-84.55"/>
</g>
<!-- Node2&#45;&gt;Node23 -->
<g id="edge40" class="edge">
<title>Node2&#45;&gt;Node23</title>
<path fill="none" stroke="midnightblue" d="M733.69,-239.99C801.43,-232.16 956.01,-214.25 1086,-199 1090.42,-198.48 1094.99,-197.94 1099.59,-197.4"/>
<polygon fill="midnightblue" stroke="midnightblue" points="1100.15,-200.86 1109.67,-196.21 1099.33,-193.91 1100.15,-200.86"/>
</g>
<!-- Node6&#45;&gt;Node5 -->
<g id="edge9" class="edge">
<title>Node6&#45;&gt;Node5</title>
<path fill="none" stroke="midnightblue" d="M941.84,-60.81C868.78,-51.84 696.31,-30.67 601.41,-19.03"/>
<polygon fill="midnightblue" stroke="midnightblue" points="601.71,-15.54 591.36,-17.79 600.86,-22.49 601.71,-15.54"/>
</g>
<!-- Node7 -->
<g id="node7" class="node">
<title>Node7</title>
<g id="a_node7"><a xlink:title=" ">
<polygon fill="white" stroke="#bfbfbf" points="1071,-0.5 1071,-19.5 1115,-19.5 1115,-0.5 1071,-0.5"/>
<text text-anchor="middle" x="1093" y="-7.5" font-family="Helvetica,sans-Serif" font-size="10.00">string</text>
</a>
</g>
</g>
<!-- Node6&#45;&gt;Node7 -->
<g id="edge6" class="edge">
<title>Node6&#45;&gt;Node7</title>
<path fill="none" stroke="midnightblue" d="M994.54,-56.44C1013.62,-47.64 1043.57,-33.81 1065.44,-23.72"/>
<polygon fill="midnightblue" stroke="midnightblue" points="1066.93,-26.88 1074.55,-19.52 1064,-20.53 1066.93,-26.88"/>
</g>
<!-- Node8 -->
<g id="node8" class="node">
<title>Node8</title>
<g id="a_node8"><a xlink:title=" ">
<polygon fill="white" stroke="#bfbfbf" points="993,-0.5 993,-19.5 1053,-19.5 1053,-0.5 993,-0.5"/>
<text text-anchor="middle" x="1023" y="-7.5" font-family="Helvetica,sans-Serif" font-size="10.00">iostream</text>
</a>
</g>
</g>
<!-- Node6&#45;&gt;Node8 -->
<g id="edge7" class="edge">
<title>Node6&#45;&gt;Node8</title>
<path fill="none" stroke="midnightblue" d="M983.76,-56.08C990.54,-48.3 1000.54,-36.8 1008.76,-27.37"/>
<polygon fill="midnightblue" stroke="midnightblue" points="1011.46,-29.59 1015.38,-19.75 1006.18,-25 1011.46,-29.59"/>
</g>
<!-- Node9 -->
<g id="node9" class="node">
<title>Node9</title>
<g id="a_node9"><a xlink:title=" ">
<polygon fill="white" stroke="#bfbfbf" points="841,-0.5 841,-19.5 975,-19.5 975,-0.5 841,-0.5"/>
<text text-anchor="middle" x="908" y="-7.5" font-family="Helvetica,sans-Serif" font-size="10.00">websocketpp/server.hpp</text>
</a>
</g>
</g>
<!-- Node6&#45;&gt;Node9 -->
<g id="edge8" class="edge">
<title>Node6&#45;&gt;Node9</title>
<path fill="none" stroke="midnightblue" d="M965.07,-56.32C954.83,-48.18 939.28,-35.84 927,-26.09"/>
<polygon fill="midnightblue" stroke="midnightblue" points="929.13,-23.31 919.12,-19.83 924.78,-28.79 929.13,-23.31"/>
</g>
<!-- Node10&#45;&gt;Node6 -->
<g id="edge11" class="edge">
<title>Node10&#45;&gt;Node6</title>
<path fill="none" stroke="midnightblue" d="M431.73,-121.43C546.23,-109.98 823.16,-82.28 931.49,-71.45"/>
<polygon fill="midnightblue" stroke="midnightblue" points="932.14,-74.9 941.74,-70.43 931.45,-67.94 932.14,-74.9"/>
</g>
<!-- Node11 -->
<g id="node11" class="node">
<title>Node11</title>
<g id="a_node11"><a xlink:href="field_8hpp.html" target="_top" xlink:title=" ">
<polygon fill="white" stroke="black" points="214.5,-56.5 214.5,-75.5 273.5,-75.5 273.5,-56.5 214.5,-56.5"/>
<text text-anchor="middle" x="244" y="-63.5" font-family="Helvetica,sans-Serif" font-size="10.00">field.hpp</text>
</a>
</g>
</g>
<!-- Node10&#45;&gt;Node11 -->
<g id="edge12" class="edge">
<title>Node10&#45;&gt;Node11</title>
<path fill="none" stroke="midnightblue" d="M361.37,-117.98C338.18,-107.9 299.38,-91.05 272.79,-79.5"/>
<polygon fill="midnightblue" stroke="midnightblue" points="274.16,-76.28 263.59,-75.51 271.37,-82.7 274.16,-76.28"/>
</g>
<!-- Node13 -->
<g id="node13" class="node">
<title>Node13</title>
<g id="a_node13"><a xlink:href="dot_8hpp.html" target="_top" xlink:title=" ">
<polygon fill="white" stroke="black" points="143.5,-56.5 143.5,-75.5 196.5,-75.5 196.5,-56.5 143.5,-56.5"/>
<text text-anchor="middle" x="170" y="-63.5" font-family="Helvetica,sans-Serif" font-size="10.00">dot.hpp</text>
</a>
</g>
</g>
<!-- Node10&#45;&gt;Node13 -->
<g id="edge16" class="edge">
<title>Node10&#45;&gt;Node13</title>
<path fill="none" stroke="midnightblue" d="M350.77,-117.98C312.64,-107.22 247.13,-88.75 206.32,-77.24"/>
<polygon fill="midnightblue" stroke="midnightblue" points="207.08,-73.82 196.51,-74.47 205.18,-80.56 207.08,-73.82"/>
</g>
<!-- Node11&#45;&gt;Node4 -->
<g id="edge15" class="edge">
<title>Node11&#45;&gt;Node4</title>
<path fill="none" stroke="midnightblue" d="M252.59,-56.08C260.16,-48.22 271.38,-36.57 280.51,-27.08"/>
<polygon fill="midnightblue" stroke="midnightblue" points="283.16,-29.38 287.57,-19.75 278.12,-24.53 283.16,-29.38"/>
</g>
<!-- Node11&#45;&gt;Node5 -->
<g id="edge14" class="edge">
<title>Node11&#45;&gt;Node5</title>
<path fill="none" stroke="midnightblue" d="M273.61,-59.53C321.88,-50.6 418.34,-32.76 479.89,-21.38"/>
<polygon fill="midnightblue" stroke="midnightblue" points="480.64,-24.8 489.84,-19.54 479.37,-17.91 480.64,-24.8"/>
</g>
<!-- Node12 -->
<g id="node12" class="node">
<title>Node12</title>
<g id="a_node12"><a xlink:href="position__type_8hpp.html" target="_top" xlink:title=" ">
<polygon fill="white" stroke="black" points="82,-0.5 82,-19.5 186,-19.5 186,-0.5 82,-0.5"/>
<text text-anchor="middle" x="134" y="-7.5" font-family="Helvetica,sans-Serif" font-size="10.00">position_type.hpp</text>
</a>
</g>
</g>
<!-- Node11&#45;&gt;Node12 -->
<g id="edge13" class="edge">
<title>Node11&#45;&gt;Node12</title>
<path fill="none" stroke="midnightblue" d="M226.33,-56.32C208.61,-47.62 181.1,-34.12 160.71,-24.11"/>
<polygon fill="midnightblue" stroke="midnightblue" points="162.15,-20.92 151.63,-19.65 159.06,-27.2 162.15,-20.92"/>
</g>
<!-- Node13&#45;&gt;Node4 -->
<g id="edge20" class="edge">
<title>Node13&#45;&gt;Node4</title>
<path fill="none" stroke="midnightblue" d="M189.97,-56.44C210.61,-47.6 243.06,-33.69 266.63,-23.59"/>
<polygon fill="midnightblue" stroke="midnightblue" points="268.32,-26.67 276.13,-19.52 265.56,-20.24 268.32,-26.67"/>
</g>
<!-- Node13&#45;&gt;Node5 -->
<g id="edge21" class="edge">
<title>Node13&#45;&gt;Node5</title>
<path fill="none" stroke="midnightblue" d="M196.68,-57.8C199.48,-57.14 202.29,-56.53 205,-56 296.62,-38.06 403.91,-24.88 470.92,-17.58"/>
<polygon fill="midnightblue" stroke="midnightblue" points="471.35,-21.05 480.92,-16.5 470.6,-14.09 471.35,-21.05"/>
</g>
<!-- Node13&#45;&gt;Node12 -->
<g id="edge17" class="edge">
<title>Node13&#45;&gt;Node12</title>
<path fill="none" stroke="midnightblue" d="M164.06,-56.08C159.02,-48.53 151.66,-37.49 145.49,-28.23"/>
<polygon fill="midnightblue" stroke="midnightblue" points="148.29,-26.13 139.83,-19.75 142.47,-30.01 148.29,-26.13"/>
</g>
<!-- Node14 -->
<g id="node14" class="node">
<title>Node14</title>
<g id="a_node14"><a xlink:title=" ">
<polygon fill="white" stroke="#bfbfbf" points="204,-0.5 204,-19.5 236,-19.5 236,-0.5 204,-0.5"/>
<text text-anchor="middle" x="220" y="-7.5" font-family="Helvetica,sans-Serif" font-size="10.00">set</text>
</a>
</g>
</g>
<!-- Node13&#45;&gt;Node14 -->
<g id="edge18" class="edge">
<title>Node13&#45;&gt;Node14</title>
<path fill="none" stroke="midnightblue" d="M178.26,-56.08C185.46,-48.3 196.11,-36.8 204.85,-27.37"/>
<polygon fill="midnightblue" stroke="midnightblue" points="207.67,-29.47 211.9,-19.75 202.53,-24.71 207.67,-29.47"/>
</g>
<!-- Node15 -->
<g id="node15" class="node">
<title>Node15</title>
<g id="a_node15"><a xlink:title=" ">
<polygon fill="white" stroke="#bfbfbf" points="0,-0.5 0,-19.5 38,-19.5 38,-0.5 0,-0.5"/>
<text text-anchor="middle" x="19" y="-7.5" font-family="Helvetica,sans-Serif" font-size="10.00">map</text>
</a>
</g>
</g>
<!-- Node13&#45;&gt;Node15 -->
<g id="edge19" class="edge">
<title>Node13&#45;&gt;Node15</title>
<path fill="none" stroke="midnightblue" d="M146.07,-56.44C119.41,-46.91 76.31,-31.49 47.81,-21.3"/>
<polygon fill="midnightblue" stroke="midnightblue" points="48.63,-17.88 38.03,-17.81 46.27,-24.47 48.63,-17.88"/>
</g>
<!-- Node16&#45;&gt;Node4 -->
<g id="edge25" class="edge">
<title>Node16&#45;&gt;Node4</title>
<path fill="none" stroke="midnightblue" d="M236.25,-179.44C252.22,-172.27 272.37,-160.38 283,-143 304.65,-107.59 302.26,-56.6 298.95,-29.53"/>
<polygon fill="midnightblue" stroke="midnightblue" points="302.4,-28.92 297.54,-19.51 295.46,-29.9 302.4,-28.92"/>
</g>
<!-- Node16&#45;&gt;Node5 -->
<g id="edge30" class="edge">
<title>Node16&#45;&gt;Node5</title>
<path fill="none" stroke="midnightblue" d="M258.37,-188.49C306.94,-186.98 384.49,-178.49 440,-143 484.23,-114.72 514.72,-58.25 528.19,-29.19"/>
<polygon fill="midnightblue" stroke="midnightblue" points="531.49,-30.39 532.38,-19.83 525.1,-27.53 531.49,-30.39"/>
</g>
<!-- Node16&#45;&gt;Node10 -->
<g id="edge31" class="edge">
<title>Node16&#45;&gt;Node10</title>
<path fill="none" stroke="midnightblue" d="M237.07,-179.48C266.01,-169.22 314.76,-151.96 347.4,-140.4"/>
<polygon fill="midnightblue" stroke="midnightblue" points="348.72,-143.65 356.97,-137.01 346.38,-137.05 348.72,-143.65"/>
</g>
<!-- Node16&#45;&gt;Node11 -->
<g id="edge27" class="edge">
<title>Node16&#45;&gt;Node11</title>
<path fill="none" stroke="midnightblue" d="M189.55,-179.41C173.84,-172.28 154.38,-160.46 145,-143 138.48,-130.86 137.54,-123.58 145,-112 152.31,-100.65 182.35,-87.94 207.44,-78.93"/>
<polygon fill="midnightblue" stroke="midnightblue" points="208.82,-82.15 217.11,-75.55 206.51,-75.54 208.82,-82.15"/>
</g>
<!-- Node16&#45;&gt;Node12 -->
<g id="edge29" class="edge">
<title>Node16&#45;&gt;Node12</title>
<path fill="none" stroke="midnightblue" d="M180.01,-179.44C161.54,-172.77 140.05,-161.45 129,-143 107.67,-107.38 119.01,-56.12 127.48,-29.16"/>
<polygon fill="midnightblue" stroke="midnightblue" points="130.86,-30.09 130.73,-19.5 124.22,-27.87 130.86,-30.09"/>
</g>
<!-- Node16&#45;&gt;Node13 -->
<g id="edge28" class="edge">
<title>Node16&#45;&gt;Node13</title>
<path fill="none" stroke="midnightblue" d="M184.63,-179.49C167.25,-172.65 146.4,-161.13 136,-143 124.61,-123.14 140.33,-98.76 153.97,-83.06"/>
<polygon fill="midnightblue" stroke="midnightblue" points="156.55,-85.43 160.76,-75.71 151.41,-80.68 156.55,-85.43"/>
</g>
<!-- Node16&#45;&gt;Node15 -->
<g id="edge24" class="edge">
<title>Node16&#45;&gt;Node15</title>
<path fill="none" stroke="midnightblue" d="M184.68,-179.35C163.86,-172.02 135.71,-159.96 115,-143 74.58,-109.9 42.59,-56.02 27.85,-28.45"/>
<polygon fill="midnightblue" stroke="midnightblue" points="30.95,-26.82 23.22,-19.57 24.74,-30.06 30.95,-26.82"/>
</g>
<!-- Node17 -->
<g id="node17" class="node">
<title>Node17</title>
<g id="a_node17"><a xlink:title=" ">
<polygon fill="white" stroke="#bfbfbf" points="154.5,-118 154.5,-137 201.5,-137 201.5,-118 154.5,-118"/>
<text text-anchor="middle" x="178" y="-125" font-family="Helvetica,sans-Serif" font-size="10.00">vector</text>
</a>
</g>
</g>
<!-- Node16&#45;&gt;Node17 -->
<g id="edge23" class="edge">
<title>Node16&#45;&gt;Node17</title>
<path fill="none" stroke="midnightblue" d="M207.99,-179.48C202.84,-170.73 194.69,-156.87 188.18,-145.81"/>
<polygon fill="midnightblue" stroke="midnightblue" points="191.09,-143.85 183.01,-137.01 185.06,-147.4 191.09,-143.85"/>
</g>
<!-- Node18 -->
<g id="node18" class="node">
<title>Node18</title>
<g id="a_node18"><a xlink:title=" ">
<polygon fill="white" stroke="#bfbfbf" points="220,-118 220,-137 274,-137 274,-118 220,-118"/>
<text text-anchor="middle" x="247" y="-125" font-family="Helvetica,sans-Serif" font-size="10.00">random</text>
</a>
</g>
</g>
<!-- Node16&#45;&gt;Node18 -->
<g id="edge26" class="edge">
<title>Node16&#45;&gt;Node18</title>
<path fill="none" stroke="midnightblue" d="M217.87,-179.48C222.87,-170.73 230.79,-156.87 237.11,-145.81"/>
<polygon fill="midnightblue" stroke="midnightblue" points="240.22,-147.43 242.14,-137.01 234.14,-143.96 240.22,-147.43"/>
</g>
<!-- Node19&#45;&gt;Node3 -->
<g id="edge39" class="edge">
<title>Node19&#45;&gt;Node3</title>
<path fill="none" stroke="midnightblue" d="M852.8,-179.46C880.84,-171.13 923.79,-157.62 960,-143 961.59,-142.36 963.21,-141.67 964.83,-140.96"/>
<polygon fill="midnightblue" stroke="midnightblue" points="966.38,-144.1 973.98,-136.73 963.44,-137.75 966.38,-144.1"/>
</g>
<!-- Node19&#45;&gt;Node5 -->
<g id="edge33" class="edge">
<title>Node19&#45;&gt;Node5</title>
<path fill="none" stroke="midnightblue" d="M804.41,-179.37C789.71,-171.7 769.62,-159.18 757,-143 731.66,-110.51 755.81,-83.35 725,-56 706.73,-39.78 648.61,-27.51 601.6,-19.91"/>
<polygon fill="midnightblue" stroke="midnightblue" points="601.87,-16.41 591.45,-18.31 600.78,-23.32 601.87,-16.41"/>
</g>
<!-- Node19&#45;&gt;Node6 -->
<g id="edge36" class="edge">
<title>Node19&#45;&gt;Node6</title>
<path fill="none" stroke="midnightblue" d="M851.67,-179.48C872.72,-172.21 901.18,-160.18 922,-143 941.64,-126.79 957.54,-101.8 966.87,-84.94"/>
<polygon fill="midnightblue" stroke="midnightblue" points="970.21,-86.12 971.81,-75.65 964.03,-82.84 970.21,-86.12"/>
</g>
<!-- Node19&#45;&gt;Node9 -->
<g id="edge35" class="edge">
<title>Node19&#45;&gt;Node9</title>
<path fill="none" stroke="midnightblue" d="M843.78,-179.43C858.87,-172.06 878.43,-159.94 889,-143 911.09,-107.59 911.49,-56.6 909.79,-29.53"/>
<polygon fill="midnightblue" stroke="midnightblue" points="913.28,-29.2 909,-19.51 906.3,-29.75 913.28,-29.2"/>
</g>
<!-- Node20 -->
<g id="node20" class="node">
<title>Node20</title>
<g id="a_node20"><a xlink:title=" ">
<polygon fill="white" stroke="#bfbfbf" points="766.5,-112.5 766.5,-142.5 879.5,-142.5 879.5,-112.5 766.5,-112.5"/>
<text text-anchor="start" x="774.5" y="-130.5" font-family="Helvetica,sans-Serif" font-size="10.00">websocketpp/config</text>
<text text-anchor="middle" x="823" y="-119.5" font-family="Helvetica,sans-Serif" font-size="10.00">/asio_no_tls.hpp</text>
</a>
</g>
</g>
<!-- Node19&#45;&gt;Node20 -->
<g id="edge34" class="edge">
<title>Node19&#45;&gt;Node20</title>
<path fill="none" stroke="midnightblue" d="M823,-179.48C823,-172.47 823,-162.19 823,-152.7"/>
<polygon fill="midnightblue" stroke="midnightblue" points="826.5,-152.52 823,-142.52 819.5,-152.52 826.5,-152.52"/>
</g>
<!-- Node21 -->
<g id="node21" class="node">
<title>Node21</title>
<g id="a_node21"><a xlink:href="json__schemas_8hpp.html" target="_top" xlink:title=" ">
<polygon fill="white" stroke="black" points="602.5,-118 602.5,-137 709.5,-137 709.5,-118 602.5,-118"/>
<text text-anchor="middle" x="656" y="-125" font-family="Helvetica,sans-Serif" font-size="10.00">json_schemas.hpp</text>
</a>
</g>
</g>
<!-- Node19&#45;&gt;Node21 -->
<g id="edge37" class="edge">
<title>Node19&#45;&gt;Node21</title>
<path fill="none" stroke="midnightblue" d="M799.07,-179.48C770.3,-169.22 721.84,-151.96 689.4,-140.4"/>
<polygon fill="midnightblue" stroke="midnightblue" points="690.48,-137.07 679.88,-137.01 688.13,-143.66 690.48,-137.07"/>
</g>
<!-- Node21&#45;&gt;Node22 -->
<g id="edge38" class="edge">
<title>Node21&#45;&gt;Node22</title>
<path fill="none" stroke="midnightblue" d="M653.71,-117.98C651.43,-109.49 647.85,-96.2 644.93,-85.32"/>
<polygon fill="midnightblue" stroke="midnightblue" points="648.26,-84.26 642.29,-75.51 641.51,-86.07 648.26,-84.26"/>
</g>
<!-- Node23&#45;&gt;Node5 -->
<g id="edge46" class="edge">
<title>Node23&#45;&gt;Node5</title>
<path fill="none" stroke="midnightblue" d="M1146.42,-179.26C1114.34,-161.39 1041.66,-121.5 1015,-112 871.87,-60.97 695.01,-31.95 601.36,-19.09"/>
<polygon fill="midnightblue" stroke="midnightblue" points="601.57,-15.59 591.19,-17.71 600.63,-22.53 601.57,-15.59"/>
</g>
<!-- Node23&#45;&gt;Node6 -->
<g id="edge41" class="edge">
<title>Node23&#45;&gt;Node6</title>
<path fill="none" stroke="midnightblue" d="M1155.34,-179.36C1143.09,-163.99 1115.52,-131.63 1086,-112 1064.25,-97.53 1037.11,-86.37 1015.23,-78.78"/>
<polygon fill="midnightblue" stroke="midnightblue" points="1016.17,-75.41 1005.58,-75.55 1013.95,-82.04 1016.17,-75.41"/>
</g>
<!-- Node24 -->
<g id="node24" class="node">
<title>Node24</title>
<g id="a_node24"><a xlink:title=" ">
<polygon fill="white" stroke="#bfbfbf" points="1138,-118 1138,-137 1186,-137 1186,-118 1138,-118"/>
<text text-anchor="middle" x="1162" y="-125" font-family="Helvetica,sans-Serif" font-size="10.00">thread</text>
</a>
</g>
</g>
<!-- Node23&#45;&gt;Node24 -->
<g id="edge42" class="edge">
<title>Node23&#45;&gt;Node24</title>
<path fill="none" stroke="midnightblue" d="M1162,-179.48C1162,-171.08 1162,-157.98 1162,-147.16"/>
<polygon fill="midnightblue" stroke="midnightblue" points="1165.5,-147.01 1162,-137.01 1158.5,-147.01 1165.5,-147.01"/>
</g>
<!-- Node25 -->
<g id="node25" class="node">
<title>Node25</title>
<g id="a_node25"><a xlink:title=" ">
<polygon fill="white" stroke="#bfbfbf" points="1204,-118 1204,-137 1252,-137 1252,-118 1204,-118"/>
<text text-anchor="middle" x="1228" y="-125" font-family="Helvetica,sans-Serif" font-size="10.00">mutex</text>
</a>
</g>
</g>
<!-- Node23&#45;&gt;Node25 -->
<g id="edge43" class="edge">
<title>Node23&#45;&gt;Node25</title>
<path fill="none" stroke="midnightblue" d="M1171.46,-179.48C1181.75,-170.2 1198.42,-155.17 1210.99,-143.83"/>
<polygon fill="midnightblue" stroke="midnightblue" points="1213.48,-146.3 1218.56,-137.01 1208.79,-141.11 1213.48,-146.3"/>
</g>
<!-- Node26 -->
<g id="node26" class="node">
<title>Node26</title>
<g id="a_node26"><a xlink:title=" ">
<polygon fill="white" stroke="#bfbfbf" points="1270,-118 1270,-137 1356,-137 1356,-118 1270,-118"/>
<text text-anchor="middle" x="1313" y="-125" font-family="Helvetica,sans-Serif" font-size="10.00">unordered_set</text>
</a>
</g>
</g>
<!-- Node23&#45;&gt;Node26 -->
<g id="edge44" class="edge">
<title>Node23&#45;&gt;Node26</title>
<path fill="none" stroke="midnightblue" d="M1183.63,-179.48C1209.42,-169.31 1252.71,-152.26 1282.04,-140.7"/>
<polygon fill="midnightblue" stroke="midnightblue" points="1283.38,-143.93 1291.41,-137.01 1280.82,-137.42 1283.38,-143.93"/>
</g>
<!-- Node27 -->
<g id="node27" class="node">
<title>Node27</title>
<g id="a_node27"><a xlink:title=" ">
<polygon fill="white" stroke="#bfbfbf" points="1374.5,-118 1374.5,-137 1439.5,-137 1439.5,-118 1374.5,-118"/>
<text text-anchor="middle" x="1407" y="-125" font-family="Helvetica,sans-Serif" font-size="10.00">functional</text>
</a>
</g>
</g>
<!-- Node23&#45;&gt;Node27 -->
<g id="edge45" class="edge">
<title>Node23&#45;&gt;Node27</title>
<path fill="none" stroke="midnightblue" d="M1207.52,-179.46C1248.91,-171.33 1311.5,-158.11 1365,-143 1367.95,-142.17 1370.99,-141.24 1374.03,-140.28"/>
<polygon fill="midnightblue" stroke="midnightblue" points="1375.21,-143.57 1383.6,-137.11 1373.01,-136.93 1375.21,-143.57"/>
</g>
<!-- Node29&#45;&gt;Node7 -->
<g id="edge52" class="edge">
<title>Node29&#45;&gt;Node7</title>
<path fill="none" stroke="midnightblue" d="M1093,-56.08C1093,-49.01 1093,-38.86 1093,-29.99"/>
<polygon fill="midnightblue" stroke="midnightblue" points="1096.5,-29.75 1093,-19.75 1089.5,-29.75 1096.5,-29.75"/>
</g>
<!-- Node29&#45;&gt;Node8 -->
<g id="edge51" class="edge">
<title>Node29&#45;&gt;Node8</title>
<path fill="none" stroke="midnightblue" d="M1081.75,-56.32C1071.2,-48.18 1055.2,-35.84 1042.56,-26.09"/>
<polygon fill="midnightblue" stroke="midnightblue" points="1044.51,-23.17 1034.45,-19.83 1040.23,-28.71 1044.51,-23.17"/>
</g>
</g>
</svg>
        <g id="navigator" transform="translate(0 0)" fill="#404254">
                <rect fill="#f2f5e9" fill-opacity="0.5" stroke="#606060" stroke-width=".5" x="0" y="0" width="60" height="60"/>
                <use id="zoomplus" xlink:href="#zoomPlus" x="17" y="9" onmousedown="handleZoom(evt,'in')"/>
                <use id="zoomminus" xlink:href="#zoomMin" x="42" y="9" onmousedown="handleZoom(evt,'out')"/>
                <use id="reset" xlink:href="#resetDef" x="30" y="36" onmousedown="handleReset()"/>
                <g id="arrowUp" xlink:href="#dirArrow" transform="translate(30 24)" onmousedown="handlePan(0,-1)">
                  <use xlink:href="#rim" fill="#404040">
                        <set attributeName="fill" to="#808080" begin="arrowUp.mouseover" end="arrowUp.mouseout"/>
                  </use>
                  <path fill="none" stroke="white" stroke-width="1.5" d="M0,-3.0v7 M-2.5,-0.5L0,-3.0L2.5,-0.5"/>
                </g>
                <g id="arrowRight" xlink:href="#dirArrow" transform="rotate(90) translate(36 -43)" onmousedown="handlePan(1,0)">
                  <use xlink:href="#rim" fill="#404040">
                        <set attributeName="fill" to="#808080" begin="arrowRight.mouseover" end="arrowRight.mouseout"/>
                  </use>
                  <path fill="none" stroke="white" stroke-width="1.5" d="M0,-3.0v7 M-2.5,-0.5L0,-3.0L2.5,-0.5"/>
                </g>
                <g id="arrowDown" xlink:href="#dirArrow" transform="rotate(180) translate(-30 -48)" onmousedown="handlePan(0,1)">
                  <use xlink:href="#rim" fill="#404040">
                        <set attributeName="fill" to="#808080" begin="arrowDown.mouseover" end="arrowDown.mouseout"/>
                  </use>
                  <path fill="none" stroke="white" stroke-width="1.5" d="M0,-3.0v7 M-2.5,-0.5L0,-3.0L2.5,-0.5"/>
                </g>
                <g id="arrowLeft" xlink:href="#dirArrow" transform="rotate(270) translate(-36 17)" onmousedown="handlePan(-1,0)">
                  <use xlink:href="#rim" fill="#404040">
                        <set attributeName="fill" to="#808080" begin="arrowLeft.mouseover" end="arrowLeft.mouseout"/>
                  </use>
                  <path fill="none" stroke="white" stroke-width="1.5" d="M0,-3.0v7 M-2.5,-0.5L0,-3.0L2.5,-0.5"/>
                </g>
        </g>
        <svg viewBox="0 0 15 15" width="100%" height="30px" preserveAspectRatio="xMaxYMin meet">
         <g id="arrow_out" transform="scale(0.3 0.3)">
          <a xlink:href="newgamepoll_8cpp__incl_org.svg" target="_base">
           <rect id="button" ry="5" rx="5" y="6" x="6" height="38" width="38"
                fill="#f2f5e9" fill-opacity="0.5" stroke="#606060" stroke-width="1.0"/>
           <path id="arrow"
             d="M 11.500037,31.436501 C 11.940474,20.09759 22.043105,11.32322 32.158766,21.979434 L 37.068811,17.246167 C 37.068811,17.246167 37.088388,32 37.088388,32 L 22.160133,31.978069 C 22.160133,31.978069 26.997745,27.140456 26.997745,27.140456 C 18.528582,18.264221 13.291696,25.230495 11.500037,31.436501 z"
             style="fill:#404040;"/>
          </a>
         </g>
        </svg>
</svg>
