<?xml version="1.0" encoding="UTF-8" standalone="no"?>
<!DOCTYPE svg PUBLIC "-//W3C//DTD SVG 1.1//EN"
 "http://www.w3.org/Graphics/SVG/1.1/DTD/svg11.dtd">
<!-- Generated by graphviz version 2.43.0 (0)
 -->
<!-- Title: src/player.cpp Pages: 1 -->
<svg width="410pt" height="140pt"
 viewBox="0.00 0.00 410.00 140.00" xmlns="http://www.w3.org/2000/svg" xmlns:xlink="http://www.w3.org/1999/xlink">
<g id="graph0" class="graph" transform="scale(1 1) rotate(0) translate(4 136)">
<title>src/player.cpp</title>
<polygon fill="white" stroke="transparent" points="-4,4 -4,-136 406,-136 406,4 -4,4"/>
<!-- Node1 -->
<g id="node1" class="node">
<title>Node1</title>
<g id="a_node1"><a xlink:title=" ">
<polygon fill="#bfbfbf" stroke="black" points="54,-112.5 54,-131.5 138,-131.5 138,-112.5 54,-112.5"/>
<text text-anchor="middle" x="96" y="-119.5" font-family="Helvetica,sans-Serif" font-size="10.00">src/player.cpp</text>
</a>
</g>
</g>
<!-- Node2 -->
<g id="node2" class="node">
<title>Node2</title>
<g id="a_node2"><a xlink:href="player_8hpp.html" target="_top" xlink:title=" ">
<polygon fill="white" stroke="black" points="173,-56.5 173,-75.5 241,-75.5 241,-56.5 173,-56.5"/>
<text text-anchor="middle" x="207" y="-63.5" font-family="Helvetica,sans-Serif" font-size="10.00">player.hpp</text>
</a>
</g>
</g>
<!-- Node1&#45;&gt;Node2 -->
<g id="edge1" class="edge">
<title>Node1&#45;&gt;Node2</title>
<path fill="none" stroke="midnightblue" d="M113.83,-112.32C131.72,-103.62 159.48,-90.12 180.05,-80.11"/>
<polygon fill="midnightblue" stroke="midnightblue" points="181.75,-83.18 189.21,-75.65 178.69,-76.88 181.75,-83.18"/>
</g>
<!-- Node4 -->
<g id="node4" class="node">
<title>Node4</title>
<g id="a_node4"><a xlink:title=" ">
<polygon fill="white" stroke="#bfbfbf" points="0,-0.5 0,-19.5 60,-19.5 60,-0.5 0,-0.5"/>
<text text-anchor="middle" x="30" y="-7.5" font-family="Helvetica,sans-Serif" font-size="10.00">iostream</text>
</a>
</g>
</g>
<!-- Node1&#45;&gt;Node4 -->
<g id="edge6" class="edge">
<title>Node1&#45;&gt;Node4</title>
<path fill="none" stroke="midnightblue" d="M72.55,-112.41C56.84,-105.28 37.38,-93.46 28,-76 20.33,-61.72 21.89,-43 24.74,-29.33"/>
<polygon fill="midnightblue" stroke="midnightblue" points="28.14,-30.17 27.16,-19.62 21.35,-28.48 28.14,-30.17"/>
</g>
<!-- Node7 -->
<g id="node7" class="node">
<title>Node7</title>
<g id="a_node7"><a xlink:href="debug__functions_8hpp.html" target="_top" xlink:title=" ">
<polygon fill="white" stroke="black" points="37,-56.5 37,-75.5 155,-75.5 155,-56.5 37,-56.5"/>
<text text-anchor="middle" x="96" y="-63.5" font-family="Helvetica,sans-Serif" font-size="10.00">debug_functions.hpp</text>
</a>
</g>
</g>
<!-- Node1&#45;&gt;Node7 -->
<g id="edge7" class="edge">
<title>Node1&#45;&gt;Node7</title>
<path fill="none" stroke="midnightblue" d="M96,-112.08C96,-105.01 96,-94.86 96,-85.99"/>
<polygon fill="midnightblue" stroke="midnightblue" points="99.5,-85.75 96,-75.75 92.5,-85.75 99.5,-85.75"/>
</g>
<!-- Node3 -->
<g id="node3" class="node">
<title>Node3</title>
<g id="a_node3"><a xlink:title=" ">
<polygon fill="white" stroke="#bfbfbf" points="78,-0.5 78,-19.5 122,-19.5 122,-0.5 78,-0.5"/>
<text text-anchor="middle" x="100" y="-7.5" font-family="Helvetica,sans-Serif" font-size="10.00">string</text>
</a>
</g>
</g>
<!-- Node2&#45;&gt;Node3 -->
<g id="edge2" class="edge">
<title>Node2&#45;&gt;Node3</title>
<path fill="none" stroke="midnightblue" d="M189.81,-56.32C172.65,-47.66 146.05,-34.24 126.25,-24.25"/>
<polygon fill="midnightblue" stroke="midnightblue" points="127.65,-21.04 117.15,-19.65 124.5,-27.28 127.65,-21.04"/>
</g>
<!-- Node2&#45;&gt;Node4 -->
<g id="edge3" class="edge">
<title>Node2&#45;&gt;Node4</title>
<path fill="none" stroke="midnightblue" d="M178.95,-56.44C148.92,-47.28 101.09,-32.69 67.76,-22.52"/>
<polygon fill="midnightblue" stroke="midnightblue" points="68.5,-19.09 57.91,-19.52 66.46,-25.78 68.5,-19.09"/>
</g>
<!-- Node5 -->
<g id="node5" class="node">
<title>Node5</title>
<g id="a_node5"><a xlink:title=" ">
<polygon fill="white" stroke="#bfbfbf" points="140,-0.5 140,-19.5 274,-19.5 274,-0.5 140,-0.5"/>
<text text-anchor="middle" x="207" y="-7.5" font-family="Helvetica,sans-Serif" font-size="10.00">websocketpp/server.hpp</text>
</a>
</g>
</g>
<!-- Node2&#45;&gt;Node5 -->
<g id="edge4" class="edge">
<title>Node2&#45;&gt;Node5</title>
<path fill="none" stroke="midnightblue" d="M207,-56.08C207,-49.01 207,-38.86 207,-29.99"/>
<polygon fill="midnightblue" stroke="midnightblue" points="210.5,-29.75 207,-19.75 203.5,-29.75 210.5,-29.75"/>
</g>
<!-- Node6 -->
<g id="node6" class="node">
<title>Node6</title>
<g id="a_node6"><a xlink:title=" ">
<polygon fill="white" stroke="#bfbfbf" points="292,-0.5 292,-19.5 402,-19.5 402,-0.5 292,-0.5"/>
<text text-anchor="middle" x="347" y="-7.5" font-family="Helvetica,sans-Serif" font-size="10.00">nlohmann/json.hpp</text>
</a>
</g>
</g>
<!-- Node2&#45;&gt;Node6 -->
<g id="edge5" class="edge">
<title>Node2&#45;&gt;Node6</title>
<path fill="none" stroke="midnightblue" d="M229.18,-56.44C252.43,-47.48 289.15,-33.31 315.42,-23.18"/>
<polygon fill="midnightblue" stroke="midnightblue" points="316.85,-26.38 324.92,-19.52 314.33,-19.85 316.85,-26.38"/>
</g>
<!-- Node7&#45;&gt;Node3 -->
<g id="edge9" class="edge">
<title>Node7&#45;&gt;Node3</title>
<path fill="none" stroke="midnightblue" d="M96.66,-56.08C97.18,-49.01 97.94,-38.86 98.59,-29.99"/>
<polygon fill="midnightblue" stroke="midnightblue" points="102.1,-29.98 99.35,-19.75 95.12,-29.47 102.1,-29.98"/>
</g>
<!-- Node7&#45;&gt;Node4 -->
<g id="edge8" class="edge">
<title>Node7&#45;&gt;Node4</title>
<path fill="none" stroke="midnightblue" d="M85.4,-56.32C75.54,-48.26 60.65,-36.08 48.78,-26.37"/>
<polygon fill="midnightblue" stroke="midnightblue" points="50.75,-23.46 40.8,-19.83 46.32,-28.88 50.75,-23.46"/>
</g>
</g>
</svg>
