<?xml version="1.0" encoding="UTF-8" standalone="no"?>
<!DOCTYPE svg PUBLIC "-//W3C//DTD SVG 1.1//EN"
 "http://www.w3.org/Graphics/SVG/1.1/DTD/svg11.dtd">
<!-- Generated by graphviz version 2.43.0 (0)
 -->
<!-- Title: include/player.hpp Pages: 1 -->
<svg width="642pt" height="252pt"
 viewBox="0.00 0.00 642.00 252.00" xmlns="http://www.w3.org/2000/svg" xmlns:xlink="http://www.w3.org/1999/xlink">
<g id="graph0" class="graph" transform="scale(1 1) rotate(0) translate(4 248)">
<title>include/player.hpp</title>
<polygon fill="white" stroke="transparent" points="-4,4 -4,-248 638,-248 638,4 -4,4"/>
<!-- Node1 -->
<g id="node1" class="node">
<title>Node1</title>
<g id="a_node1"><a xlink:title=" ">
<polygon fill="#bfbfbf" stroke="black" points="337,-224.5 337,-243.5 443,-243.5 443,-224.5 337,-224.5"/>
<text text-anchor="middle" x="390" y="-231.5" font-family="Helvetica,sans-Serif" font-size="10.00">include/player.hpp</text>
</a>
</g>
</g>
<!-- Node2 -->
<g id="node2" class="node">
<title>Node2</title>
<g id="a_node2"><a xlink:href="galaxy_8hpp.html" target="_top" xlink:title=" ">
<polygon fill="white" stroke="black" points="242.5,-56.5 242.5,-75.5 349.5,-75.5 349.5,-56.5 242.5,-56.5"/>
<text text-anchor="middle" x="296" y="-63.5" font-family="Helvetica,sans-Serif" font-size="10.00">include/galaxy.hpp</text>
</a>
</g>
</g>
<!-- Node1&#45;&gt;Node2 -->
<g id="edge1" class="edge">
<title>Node1&#45;&gt;Node2</title>
<path fill="none" stroke="midnightblue" d="M326.7,-227.44C274.11,-221.35 205.21,-209.46 188,-188 173.44,-169.84 189.89,-130.77 206,-112 221.47,-93.97 245.9,-82.4 265.41,-75.51"/>
<polygon fill="midnightblue" stroke="midnightblue" points="326.32,-230.92 336.65,-228.54 327.09,-223.96 326.32,-230.92"/>
</g>
<!-- Node7 -->
<g id="node7" class="node">
<title>Node7</title>
<g id="a_node7"><a xlink:href="gamechange_8hpp.html" target="_top" xlink:title=" ">
<polygon fill="white" stroke="black" points="197.5,-168.5 197.5,-187.5 336.5,-187.5 336.5,-168.5 197.5,-168.5"/>
<text text-anchor="middle" x="267" y="-175.5" font-family="Helvetica,sans-Serif" font-size="10.00">include/gamechange.hpp</text>
</a>
</g>
</g>
<!-- Node1&#45;&gt;Node7 -->
<g id="edge6" class="edge">
<title>Node1&#45;&gt;Node7</title>
<path fill="none" stroke="midnightblue" d="M361.23,-220.37C338.19,-210.26 306.52,-196.35 286.4,-187.52"/>
<polygon fill="midnightblue" stroke="midnightblue" points="359.95,-223.63 370.51,-224.44 362.76,-217.22 359.95,-223.63"/>
</g>
<!-- Node11 -->
<g id="node11" class="node">
<title>Node11</title>
<g id="a_node11"><a xlink:href="network_8hpp.html" target="_top" xlink:title=" ">
<polygon fill="white" stroke="black" points="358,-112.5 358,-131.5 474,-131.5 474,-112.5 358,-112.5"/>
<text text-anchor="middle" x="416" y="-119.5" font-family="Helvetica,sans-Serif" font-size="10.00">include/network.hpp</text>
</a>
</g>
</g>
<!-- Node1&#45;&gt;Node11 -->
<g id="edge13" class="edge">
<title>Node1&#45;&gt;Node11</title>
<path fill="none" stroke="midnightblue" d="M394.41,-214.35C400.1,-190.25 409.78,-149.31 413.97,-131.59"/>
<polygon fill="midnightblue" stroke="midnightblue" points="390.93,-213.83 392.04,-224.37 397.75,-215.44 390.93,-213.83"/>
</g>
<!-- Node12 -->
<g id="node12" class="node">
<title>Node12</title>
<g id="a_node12"><a xlink:href="newgamepoll_8hpp.html" target="_top" xlink:title=" ">
<polygon fill="white" stroke="black" points="492,-112.5 492,-131.5 634,-131.5 634,-112.5 492,-112.5"/>
<text text-anchor="middle" x="563" y="-119.5" font-family="Helvetica,sans-Serif" font-size="10.00">include/newgamepoll.hpp</text>
</a>
</g>
</g>
<!-- Node1&#45;&gt;Node12 -->
<g id="edge17" class="edge">
<title>Node1&#45;&gt;Node12</title>
<path fill="none" stroke="midnightblue" d="M401.54,-215.7C411.95,-201.26 428.44,-180.99 447,-168 471.96,-150.54 504.61,-138.66 528.91,-131.51"/>
<polygon fill="midnightblue" stroke="midnightblue" points="398.45,-214.02 395.62,-224.22 404.2,-218.01 398.45,-214.02"/>
</g>
<!-- Node13 -->
<g id="node13" class="node">
<title>Node13</title>
<g id="a_node13"><a xlink:href="player_8cpp.html" target="_top" xlink:title=" ">
<polygon fill="white" stroke="black" points="456,-168.5 456,-187.5 540,-187.5 540,-168.5 456,-168.5"/>
<text text-anchor="middle" x="498" y="-175.5" font-family="Helvetica,sans-Serif" font-size="10.00">src/player.cpp</text>
</a>
</g>
</g>
<!-- Node1&#45;&gt;Node13 -->
<g id="edge20" class="edge">
<title>Node1&#45;&gt;Node13</title>
<path fill="none" stroke="midnightblue" d="M416.55,-219.73C436.55,-209.73 463.39,-196.31 480.69,-187.65"/>
<polygon fill="midnightblue" stroke="midnightblue" points="414.73,-216.72 407.35,-224.32 417.86,-222.98 414.73,-216.72"/>
</g>
<!-- Node3 -->
<g id="node3" class="node">
<title>Node3</title>
<g id="a_node3"><a xlink:href="main_8cpp.html" target="_top" xlink:title=" ">
<polygon fill="white" stroke="black" points="106,-0.5 106,-19.5 168,-19.5 168,-0.5 106,-0.5"/>
<text text-anchor="middle" x="137" y="-7.5" font-family="Helvetica,sans-Serif" font-size="10.00">main.cpp</text>
</a>
</g>
</g>
<!-- Node2&#45;&gt;Node3 -->
<g id="edge2" class="edge">
<title>Node2&#45;&gt;Node3</title>
<path fill="none" stroke="midnightblue" d="M261.17,-53.17C231.23,-43 188.78,-28.59 162.08,-19.52"/>
<polygon fill="midnightblue" stroke="midnightblue" points="260.21,-56.54 270.81,-56.44 262.46,-49.91 260.21,-56.54"/>
</g>
<!-- Node4 -->
<g id="node4" class="node">
<title>Node4</title>
<g id="a_node4"><a xlink:href="galaxy_8cpp.html" target="_top" xlink:title=" ">
<polygon fill="white" stroke="black" points="256,-0.5 256,-19.5 342,-19.5 342,-0.5 256,-0.5"/>
<text text-anchor="middle" x="299" y="-7.5" font-family="Helvetica,sans-Serif" font-size="10.00">src/galaxy.cpp</text>
</a>
</g>
</g>
<!-- Node2&#45;&gt;Node4 -->
<g id="edge3" class="edge">
<title>Node2&#45;&gt;Node4</title>
<path fill="none" stroke="midnightblue" d="M297.07,-45.8C297.56,-36.91 298.12,-26.78 298.51,-19.75"/>
<polygon fill="midnightblue" stroke="midnightblue" points="293.56,-45.9 296.5,-56.08 300.54,-46.29 293.56,-45.9"/>
</g>
<!-- Node5 -->
<g id="node5" class="node">
<title>Node5</title>
<g id="a_node5"><a xlink:href="network_8cpp.html" target="_top" xlink:title=" ">
<polygon fill="white" stroke="black" points="366,-0.5 366,-19.5 460,-19.5 460,-0.5 366,-0.5"/>
<text text-anchor="middle" x="413" y="-7.5" font-family="Helvetica,sans-Serif" font-size="10.00">src/network.cpp</text>
</a>
</g>
</g>
<!-- Node2&#45;&gt;Node5 -->
<g id="edge4" class="edge">
<title>Node2&#45;&gt;Node5</title>
<path fill="none" stroke="midnightblue" d="M323.66,-52.23C345.55,-42.13 375.5,-28.31 394.55,-19.52"/>
<polygon fill="midnightblue" stroke="midnightblue" points="322.15,-49.08 314.54,-56.44 325.09,-55.43 322.15,-49.08"/>
</g>
<!-- Node6 -->
<g id="node6" class="node">
<title>Node6</title>
<g id="a_node6"><a xlink:href="newgamepoll_8cpp.html" target="_top" xlink:title=" ">
<polygon fill="white" stroke="black" points="492,-0.5 492,-19.5 612,-19.5 612,-0.5 492,-0.5"/>
<text text-anchor="middle" x="552" y="-7.5" font-family="Helvetica,sans-Serif" font-size="10.00">src/newgamepoll.cpp</text>
</a>
</g>
</g>
<!-- Node2&#45;&gt;Node6 -->
<g id="edge5" class="edge">
<title>Node2&#45;&gt;Node6</title>
<path fill="none" stroke="midnightblue" d="M346.51,-54.35C394.89,-44.14 466.95,-28.94 511.63,-19.52"/>
<polygon fill="midnightblue" stroke="midnightblue" points="345.63,-50.95 336.56,-56.44 347.07,-57.8 345.63,-50.95"/>
</g>
<!-- Node7&#45;&gt;Node2 -->
<g id="edge7" class="edge">
<title>Node7&#45;&gt;Node2</title>
<path fill="none" stroke="midnightblue" d="M242.09,-163.17C222.94,-150.64 201.55,-131.24 213,-112 223.98,-93.55 245.46,-82.2 263.82,-75.51"/>
<polygon fill="midnightblue" stroke="midnightblue" points="240.26,-166.16 250.61,-168.42 243.93,-160.2 240.26,-166.16"/>
</g>
<!-- Node8 -->
<g id="node8" class="node">
<title>Node8</title>
<g id="a_node8"><a xlink:href="gamestate_8hpp.html" target="_top" xlink:title=" ">
<polygon fill="white" stroke="black" points="0,-112.5 0,-131.5 128,-131.5 128,-112.5 0,-112.5"/>
<text text-anchor="middle" x="64" y="-119.5" font-family="Helvetica,sans-Serif" font-size="10.00">include/gamestate.hpp</text>
</a>
</g>
</g>
<!-- Node7&#45;&gt;Node8 -->
<g id="edge8" class="edge">
<title>Node7&#45;&gt;Node8</title>
<path fill="none" stroke="midnightblue" d="M225.01,-165.83C186.68,-155.63 130.85,-140.78 96.02,-131.52"/>
<polygon fill="midnightblue" stroke="midnightblue" points="224.27,-169.26 234.83,-168.44 226.07,-162.49 224.27,-169.26"/>
</g>
<!-- Node10 -->
<g id="node10" class="node">
<title>Node10</title>
<g id="a_node10"><a xlink:href="gamechange_8cpp.html" target="_top" xlink:title=" ">
<polygon fill="white" stroke="black" points="222.5,-112.5 222.5,-131.5 339.5,-131.5 339.5,-112.5 222.5,-112.5"/>
<text text-anchor="middle" x="281" y="-119.5" font-family="Helvetica,sans-Serif" font-size="10.00">src/gamechange.cpp</text>
</a>
</g>
</g>
<!-- Node7&#45;&gt;Node10 -->
<g id="edge12" class="edge">
<title>Node7&#45;&gt;Node10</title>
<path fill="none" stroke="midnightblue" d="M271.82,-158.4C274.17,-149.36 276.87,-138.94 278.73,-131.75"/>
<polygon fill="midnightblue" stroke="midnightblue" points="268.43,-157.52 269.31,-168.08 275.21,-159.28 268.43,-157.52"/>
</g>
<!-- Node8&#45;&gt;Node2 -->
<g id="edge9" class="edge">
<title>Node8&#45;&gt;Node2</title>
<path fill="none" stroke="midnightblue" d="M110.6,-110.15C154.44,-99.95 219.18,-84.88 259.41,-75.52"/>
<polygon fill="midnightblue" stroke="midnightblue" points="109.71,-106.77 100.76,-112.44 111.29,-113.59 109.71,-106.77"/>
</g>
<!-- Node8&#45;&gt;Node3 -->
<g id="edge10" class="edge">
<title>Node8&#45;&gt;Node3</title>
<path fill="none" stroke="midnightblue" d="M66.49,-102.17C68.99,-88.48 73.84,-69.98 83,-56 93.17,-40.49 110.3,-27.53 122.54,-19.56"/>
<polygon fill="midnightblue" stroke="midnightblue" points="62.99,-101.91 64.9,-112.33 69.91,-102.99 62.99,-101.91"/>
</g>
<!-- Node9 -->
<g id="node9" class="node">
<title>Node9</title>
<g id="a_node9"><a xlink:href="gamestate_8cpp.html" target="_top" xlink:title=" ">
<polygon fill="white" stroke="black" points="92.5,-56.5 92.5,-75.5 199.5,-75.5 199.5,-56.5 92.5,-56.5"/>
<text text-anchor="middle" x="146" y="-63.5" font-family="Helvetica,sans-Serif" font-size="10.00">src/gamestate.cpp</text>
</a>
</g>
</g>
<!-- Node8&#45;&gt;Node9 -->
<g id="edge11" class="edge">
<title>Node8&#45;&gt;Node9</title>
<path fill="none" stroke="midnightblue" d="M85.83,-106.62C100.81,-96.76 120.2,-83.99 132.86,-75.65"/>
<polygon fill="midnightblue" stroke="midnightblue" points="83.6,-103.9 77.17,-112.32 87.45,-109.75 83.6,-103.9"/>
</g>
<!-- Node11&#45;&gt;Node2 -->
<g id="edge14" class="edge">
<title>Node11&#45;&gt;Node2</title>
<path fill="none" stroke="midnightblue" d="M387.63,-108.23C365.18,-98.13 334.46,-84.31 314.93,-75.52"/>
<polygon fill="midnightblue" stroke="midnightblue" points="386.43,-111.53 396.99,-112.44 389.3,-105.15 386.43,-111.53"/>
</g>
<!-- Node11&#45;&gt;Node4 -->
<g id="edge15" class="edge">
<title>Node11&#45;&gt;Node4</title>
<path fill="none" stroke="midnightblue" d="M402.43,-104.08C391.17,-90.47 374.39,-71.17 358,-56 343.06,-42.17 324.09,-28.27 311.75,-19.66"/>
<polygon fill="midnightblue" stroke="midnightblue" points="399.95,-106.57 408.98,-112.11 405.37,-102.14 399.95,-106.57"/>
</g>
<!-- Node11&#45;&gt;Node5 -->
<g id="edge16" class="edge">
<title>Node11&#45;&gt;Node5</title>
<path fill="none" stroke="midnightblue" d="M415.49,-102.35C414.83,-78.25 413.72,-37.31 413.23,-19.59"/>
<polygon fill="midnightblue" stroke="midnightblue" points="411.99,-102.47 415.76,-112.37 418.99,-102.28 411.99,-102.47"/>
</g>
<!-- Node12&#45;&gt;Node2 -->
<g id="edge18" class="edge">
<title>Node12&#45;&gt;Node2</title>
<path fill="none" stroke="midnightblue" d="M510.64,-110.41C460.18,-100.2 384.8,-84.96 338.11,-75.52"/>
<polygon fill="midnightblue" stroke="midnightblue" points="510.2,-113.89 520.69,-112.44 511.59,-107.03 510.2,-113.89"/>
</g>
<!-- Node12&#45;&gt;Node6 -->
<g id="edge19" class="edge">
<title>Node12&#45;&gt;Node6</title>
<path fill="none" stroke="midnightblue" d="M561.13,-102.35C558.73,-78.25 554.63,-37.31 552.86,-19.59"/>
<polygon fill="midnightblue" stroke="midnightblue" points="557.66,-102.77 562.14,-112.37 564.62,-102.07 557.66,-102.77"/>
</g>
</g>
</svg>
