<?xml version="1.0" encoding="UTF-8" standalone="no"?>
<!DOCTYPE svg PUBLIC "-//W3C//DTD SVG 1.1//EN"
 "http://www.w3.org/Graphics/SVG/1.1/DTD/svg11.dtd">
<!-- Generated by graphviz version 2.43.0 (0)
 -->
<!-- Title: include/position_type.hpp Pages: 1 -->
<svg width="472pt" height="308pt"
 viewBox="0.00 0.00 472.12 308.00" xmlns="http://www.w3.org/2000/svg" xmlns:xlink="http://www.w3.org/1999/xlink">
<g id="graph0" class="graph" transform="scale(1 1) rotate(0) translate(4 304)">
<title>include/position_type.hpp</title>
<polygon fill="white" stroke="transparent" points="-4,4 -4,-304 468.12,-304 468.12,4 -4,4"/>
<!-- Node1 -->
<g id="node1" class="node">
<title>Node1</title>
<g id="a_node1"><a xlink:title=" ">
<polygon fill="#bfbfbf" stroke="black" points="321,-280.5 321,-299.5 463,-299.5 463,-280.5 321,-280.5"/>
<text text-anchor="middle" x="392" y="-287.5" font-family="Helvetica,sans-Serif" font-size="10.00">include/position_type.hpp</text>
</a>
</g>
</g>
<!-- Node2 -->
<g id="node2" class="node">
<title>Node2</title>
<g id="a_node2"><a xlink:href="dot_8hpp.html" target="_top" xlink:title=" ">
<polygon fill="white" stroke="black" points="233,-224.5 233,-243.5 325,-243.5 325,-224.5 233,-224.5"/>
<text text-anchor="middle" x="279" y="-231.5" font-family="Helvetica,sans-Serif" font-size="10.00">include/dot.hpp</text>
</a>
</g>
</g>
<!-- Node1&#45;&gt;Node2 -->
<g id="edge1" class="edge">
<title>Node1&#45;&gt;Node2</title>
<path fill="none" stroke="midnightblue" d="M365,-276.1C343.89,-266.01 315.14,-252.27 296.82,-243.52"/>
<polygon fill="midnightblue" stroke="midnightblue" points="363.56,-279.29 374.09,-280.44 366.58,-272.97 363.56,-279.29"/>
</g>
<!-- Node9 -->
<g id="node9" class="node">
<title>Node9</title>
<g id="a_node9"><a xlink:href="gamestate_8hpp.html" target="_top" xlink:title=" ">
<polygon fill="white" stroke="black" points="242,-112.5 242,-131.5 370,-131.5 370,-112.5 242,-112.5"/>
<text text-anchor="middle" x="306" y="-119.5" font-family="Helvetica,sans-Serif" font-size="10.00">include/gamestate.hpp</text>
</a>
</g>
</g>
<!-- Node1&#45;&gt;Node9 -->
<g id="edge21" class="edge">
<title>Node1&#45;&gt;Node9</title>
<path fill="none" stroke="midnightblue" d="M419.02,-275.27C430.77,-267.76 443.36,-257.26 450,-244 465.13,-213.8 471.04,-195.2 451,-168 432.4,-142.75 399.76,-131.25 370.15,-126.17"/>
<polygon fill="midnightblue" stroke="midnightblue" points="417.13,-272.32 410.31,-280.43 420.7,-278.35 417.13,-272.32"/>
</g>
<!-- Node14 -->
<g id="node14" class="node">
<title>Node14</title>
<g id="a_node14"><a xlink:href="field_8hpp.html" target="_top" xlink:title=" ">
<polygon fill="white" stroke="black" points="343.5,-224.5 343.5,-243.5 440.5,-243.5 440.5,-224.5 343.5,-224.5"/>
<text text-anchor="middle" x="392" y="-231.5" font-family="Helvetica,sans-Serif" font-size="10.00">include/field.hpp</text>
</a>
</g>
</g>
<!-- Node1&#45;&gt;Node14 -->
<g id="edge16" class="edge">
<title>Node1&#45;&gt;Node14</title>
<path fill="none" stroke="midnightblue" d="M392,-269.8C392,-260.91 392,-250.78 392,-243.75"/>
<polygon fill="midnightblue" stroke="midnightblue" points="388.5,-270.08 392,-280.08 395.5,-270.08 388.5,-270.08"/>
</g>
<!-- Node3 -->
<g id="node3" class="node">
<title>Node3</title>
<g id="a_node3"><a xlink:href="gamechange_8hpp.html" target="_top" xlink:title=" ">
<polygon fill="white" stroke="black" points="67.5,-168.5 67.5,-187.5 206.5,-187.5 206.5,-168.5 67.5,-168.5"/>
<text text-anchor="middle" x="137" y="-175.5" font-family="Helvetica,sans-Serif" font-size="10.00">include/gamechange.hpp</text>
</a>
</g>
</g>
<!-- Node2&#45;&gt;Node3 -->
<g id="edge2" class="edge">
<title>Node2&#45;&gt;Node3</title>
<path fill="none" stroke="midnightblue" d="M246.84,-220.77C220.17,-210.63 182.93,-196.47 159.4,-187.52"/>
<polygon fill="midnightblue" stroke="midnightblue" points="245.91,-224.16 256.5,-224.44 248.4,-217.62 245.91,-224.16"/>
</g>
<!-- Node2&#45;&gt;Node9 -->
<g id="edge13" class="edge">
<title>Node2&#45;&gt;Node9</title>
<path fill="none" stroke="midnightblue" d="M265.56,-216.25C256.63,-202.96 247.76,-184.04 255,-168 262.19,-152.07 278.11,-139.52 290.27,-131.76"/>
<polygon fill="midnightblue" stroke="midnightblue" points="262.82,-218.43 271.56,-224.43 268.47,-214.3 262.82,-218.43"/>
</g>
<!-- Node12 -->
<g id="node12" class="node">
<title>Node12</title>
<g id="a_node12"><a xlink:href="dot_8cpp.html" target="_top" xlink:title=" ">
<polygon fill="white" stroke="black" points="357,-168.5 357,-187.5 427,-187.5 427,-168.5 357,-168.5"/>
<text text-anchor="middle" x="392" y="-175.5" font-family="Helvetica,sans-Serif" font-size="10.00">src/dot.cpp</text>
</a>
</g>
</g>
<!-- Node2&#45;&gt;Node12 -->
<g id="edge14" class="edge">
<title>Node2&#45;&gt;Node12</title>
<path fill="none" stroke="midnightblue" d="M306,-220.1C327.11,-210.01 355.86,-196.27 374.18,-187.52"/>
<polygon fill="midnightblue" stroke="midnightblue" points="304.42,-216.97 296.91,-224.44 307.44,-223.29 304.42,-216.97"/>
</g>
<!-- Node13 -->
<g id="node13" class="node">
<title>Node13</title>
<g id="a_node13"><a xlink:href="field_8cpp.html" target="_top" xlink:title=" ">
<polygon fill="white" stroke="black" points="263.5,-168.5 263.5,-187.5 338.5,-187.5 338.5,-168.5 263.5,-168.5"/>
<text text-anchor="middle" x="301" y="-175.5" font-family="Helvetica,sans-Serif" font-size="10.00">src/field.cpp</text>
</a>
</g>
</g>
<!-- Node2&#45;&gt;Node13 -->
<g id="edge15" class="edge">
<title>Node2&#45;&gt;Node13</title>
<path fill="none" stroke="midnightblue" d="M286.46,-214.69C290.17,-205.59 294.48,-195.01 297.43,-187.75"/>
<polygon fill="midnightblue" stroke="midnightblue" points="283.16,-213.5 282.63,-224.08 289.65,-216.14 283.16,-213.5"/>
</g>
<!-- Node4 -->
<g id="node4" class="node">
<title>Node4</title>
<g id="a_node4"><a xlink:href="galaxy_8hpp.html" target="_top" xlink:title=" ">
<polygon fill="white" stroke="black" points="127.5,-56.5 127.5,-75.5 234.5,-75.5 234.5,-56.5 127.5,-56.5"/>
<text text-anchor="middle" x="181" y="-63.5" font-family="Helvetica,sans-Serif" font-size="10.00">include/galaxy.hpp</text>
</a>
</g>
</g>
<!-- Node3&#45;&gt;Node4 -->
<g id="edge3" class="edge">
<title>Node3&#45;&gt;Node4</title>
<path fill="none" stroke="midnightblue" d="M147.41,-159.37C151.96,-151.22 157.13,-141.3 161,-132 169.16,-112.38 175.73,-88.21 178.92,-75.6"/>
<polygon fill="midnightblue" stroke="midnightblue" points="144.24,-157.86 142.3,-168.28 150.31,-161.35 144.24,-157.86"/>
</g>
<!-- Node3&#45;&gt;Node9 -->
<g id="edge8" class="edge">
<title>Node3&#45;&gt;Node9</title>
<path fill="none" stroke="midnightblue" d="M173.6,-165.3C205.45,-155.13 250.84,-140.62 279.35,-131.52"/>
<polygon fill="midnightblue" stroke="midnightblue" points="172.24,-162.07 163.78,-168.44 174.37,-168.73 172.24,-162.07"/>
</g>
<!-- Node11 -->
<g id="node11" class="node">
<title>Node11</title>
<g id="a_node11"><a xlink:href="gamechange_8cpp.html" target="_top" xlink:title=" ">
<polygon fill="white" stroke="black" points="35.5,-112.5 35.5,-131.5 152.5,-131.5 152.5,-112.5 35.5,-112.5"/>
<text text-anchor="middle" x="94" y="-119.5" font-family="Helvetica,sans-Serif" font-size="10.00">src/gamechange.cpp</text>
</a>
</g>
</g>
<!-- Node3&#45;&gt;Node11 -->
<g id="edge12" class="edge">
<title>Node3&#45;&gt;Node11</title>
<path fill="none" stroke="midnightblue" d="M123.58,-160.14C116.09,-150.74 107.06,-139.4 100.97,-131.75"/>
<polygon fill="midnightblue" stroke="midnightblue" points="120.93,-162.44 129.9,-168.08 126.41,-158.08 120.93,-162.44"/>
</g>
<!-- Node5 -->
<g id="node5" class="node">
<title>Node5</title>
<g id="a_node5"><a xlink:href="main_8cpp.html" target="_top" xlink:title=" ">
<polygon fill="white" stroke="black" points="356,-0.5 356,-19.5 418,-19.5 418,-0.5 356,-0.5"/>
<text text-anchor="middle" x="387" y="-7.5" font-family="Helvetica,sans-Serif" font-size="10.00">main.cpp</text>
</a>
</g>
</g>
<!-- Node4&#45;&gt;Node5 -->
<g id="edge4" class="edge">
<title>Node4&#45;&gt;Node5</title>
<path fill="none" stroke="midnightblue" d="M223.49,-53.86C262.88,-43.54 320.58,-28.41 355.86,-19.16"/>
<polygon fill="midnightblue" stroke="midnightblue" points="222.43,-50.52 213.64,-56.44 224.2,-57.29 222.43,-50.52"/>
</g>
<!-- Node6 -->
<g id="node6" class="node">
<title>Node6</title>
<g id="a_node6"><a xlink:href="galaxy_8cpp.html" target="_top" xlink:title=" ">
<polygon fill="white" stroke="black" points="138,-0.5 138,-19.5 224,-19.5 224,-0.5 138,-0.5"/>
<text text-anchor="middle" x="181" y="-7.5" font-family="Helvetica,sans-Serif" font-size="10.00">src/galaxy.cpp</text>
</a>
</g>
</g>
<!-- Node4&#45;&gt;Node6 -->
<g id="edge5" class="edge">
<title>Node4&#45;&gt;Node6</title>
<path fill="none" stroke="midnightblue" d="M181,-45.8C181,-36.91 181,-26.78 181,-19.75"/>
<polygon fill="midnightblue" stroke="midnightblue" points="177.5,-46.08 181,-56.08 184.5,-46.08 177.5,-46.08"/>
</g>
<!-- Node7 -->
<g id="node7" class="node">
<title>Node7</title>
<g id="a_node7"><a xlink:href="network_8cpp.html" target="_top" xlink:title=" ">
<polygon fill="white" stroke="black" points="242,-0.5 242,-19.5 336,-19.5 336,-0.5 242,-0.5"/>
<text text-anchor="middle" x="289" y="-7.5" font-family="Helvetica,sans-Serif" font-size="10.00">src/network.cpp</text>
</a>
</g>
</g>
<!-- Node4&#45;&gt;Node7 -->
<g id="edge6" class="edge">
<title>Node4&#45;&gt;Node7</title>
<path fill="none" stroke="midnightblue" d="M207.55,-51.73C227.55,-41.73 254.39,-28.31 271.69,-19.65"/>
<polygon fill="midnightblue" stroke="midnightblue" points="205.73,-48.72 198.35,-56.32 208.86,-54.98 205.73,-48.72"/>
</g>
<!-- Node8 -->
<g id="node8" class="node">
<title>Node8</title>
<g id="a_node8"><a xlink:href="newgamepoll_8cpp.html" target="_top" xlink:title=" ">
<polygon fill="white" stroke="black" points="0,-0.5 0,-19.5 120,-19.5 120,-0.5 0,-0.5"/>
<text text-anchor="middle" x="60" y="-7.5" font-family="Helvetica,sans-Serif" font-size="10.00">src/newgamepoll.cpp</text>
</a>
</g>
</g>
<!-- Node4&#45;&gt;Node8 -->
<g id="edge7" class="edge">
<title>Node4&#45;&gt;Node8</title>
<path fill="none" stroke="midnightblue" d="M152.69,-52.37C130.03,-42.26 98.87,-28.35 79.08,-19.52"/>
<polygon fill="midnightblue" stroke="midnightblue" points="151.27,-55.56 161.83,-56.44 154.12,-49.17 151.27,-55.56"/>
</g>
<!-- Node9&#45;&gt;Node4 -->
<g id="edge9" class="edge">
<title>Node9&#45;&gt;Node4</title>
<path fill="none" stroke="midnightblue" d="M276.76,-108.37C253.35,-98.26 221.16,-84.35 200.71,-75.52"/>
<polygon fill="midnightblue" stroke="midnightblue" points="275.63,-111.69 286.19,-112.44 278.4,-105.26 275.63,-111.69"/>
</g>
<!-- Node9&#45;&gt;Node5 -->
<g id="edge10" class="edge">
<title>Node9&#45;&gt;Node5</title>
<path fill="none" stroke="midnightblue" d="M332.91,-107.41C345.55,-99.77 359.83,-89.12 369,-76 381.21,-58.54 385.16,-33.05 386.42,-19.78"/>
<polygon fill="midnightblue" stroke="midnightblue" points="331.05,-104.44 324.09,-112.43 334.51,-110.53 331.05,-104.44"/>
</g>
<!-- Node10 -->
<g id="node10" class="node">
<title>Node10</title>
<g id="a_node10"><a xlink:href="gamestate_8cpp.html" target="_top" xlink:title=" ">
<polygon fill="white" stroke="black" points="252.5,-56.5 252.5,-75.5 359.5,-75.5 359.5,-56.5 252.5,-56.5"/>
<text text-anchor="middle" x="306" y="-63.5" font-family="Helvetica,sans-Serif" font-size="10.00">src/gamestate.cpp</text>
</a>
</g>
</g>
<!-- Node9&#45;&gt;Node10 -->
<g id="edge11" class="edge">
<title>Node9&#45;&gt;Node10</title>
<path fill="none" stroke="midnightblue" d="M306,-101.8C306,-92.91 306,-82.78 306,-75.75"/>
<polygon fill="midnightblue" stroke="midnightblue" points="302.5,-102.08 306,-112.08 309.5,-102.08 302.5,-102.08"/>
</g>
<!-- Node14&#45;&gt;Node3 -->
<g id="edge17" class="edge">
<title>Node14&#45;&gt;Node3</title>
<path fill="none" stroke="midnightblue" d="M341.69,-222.35C293.5,-212.14 221.72,-196.94 177.22,-187.52"/>
<polygon fill="midnightblue" stroke="midnightblue" points="341.09,-225.8 351.59,-224.44 342.54,-218.95 341.09,-225.8"/>
</g>
<!-- Node14&#45;&gt;Node9 -->
<g id="edge18" class="edge">
<title>Node14&#45;&gt;Node9</title>
<path fill="none" stroke="midnightblue" d="M413.42,-218.22C429.95,-204.96 448.12,-185.01 436,-168 420.83,-146.7 394.85,-135.38 370.09,-129.41"/>
<polygon fill="midnightblue" stroke="midnightblue" points="410.97,-215.68 405.09,-224.5 415.19,-221.27 410.97,-215.68"/>
</g>
<!-- Node14&#45;&gt;Node12 -->
<g id="edge19" class="edge">
<title>Node14&#45;&gt;Node12</title>
<path fill="none" stroke="midnightblue" d="M392,-213.8C392,-204.91 392,-194.78 392,-187.75"/>
<polygon fill="midnightblue" stroke="midnightblue" points="388.5,-214.08 392,-224.08 395.5,-214.08 388.5,-214.08"/>
</g>
<!-- Node14&#45;&gt;Node13 -->
<g id="edge20" class="edge">
<title>Node14&#45;&gt;Node13</title>
<path fill="none" stroke="midnightblue" d="M368.71,-219.18C351.96,-209.24 329.9,-196.15 315.58,-187.65"/>
<polygon fill="midnightblue" stroke="midnightblue" points="366.99,-222.23 377.38,-224.32 370.57,-216.21 366.99,-222.23"/>
</g>
</g>
</svg>
