<?xml version="1.0" encoding="UTF-8" standalone="no"?>
<!DOCTYPE svg PUBLIC "-//W3C//DTD SVG 1.1//EN"
 "http://www.w3.org/Graphics/SVG/1.1/DTD/svg11.dtd">
<!-- Generated by graphviz version 2.42.3 (0)
 -->
<!-- Title: Galaxy::executeCommand Pages: 1 -->
<svg width="487pt" height="163pt"
 viewBox="0.00 0.00 487.00 163.00" xmlns="http://www.w3.org/2000/svg" xmlns:xlink="http://www.w3.org/1999/xlink">
<g id="graph0" class="graph" transform="scale(1 1) rotate(0) translate(4 159)">
<title>Galaxy::executeCommand</title>
<polygon fill="white" stroke="transparent" points="-4,4 -4,-159 483,-159 483,4 -4,4"/>
<!-- Node1 -->
<g id="node1" class="node">
<title>Node1</title>
<g id="a_node1"><a xlink:title=" ">
<polygon fill="#bfbfbf" stroke="black" points="0,-76.5 0,-95.5 146,-95.5 146,-76.5 0,-76.5"/>
<text text-anchor="middle" x="73" y="-83.5" font-family="Helvetica,sans-Serif" font-size="10.00">Galaxy::executeCommand</text>
</a>
</g>
</g>
<!-- Node2 -->
<g id="node2" class="node">
<title>Node2</title>
<g id="a_node2"><a xlink:href="classNetwork.html#a57f3c2d8b53d214d26822a52b899d69f" target="_top" xlink:title=" ">
<polygon fill="white" stroke="black" points="367,-133.5 367,-152.5 479,-152.5 479,-133.5 367,-133.5"/>
<text text-anchor="middle" x="423" y="-140.5" font-family="Helvetica,sans-Serif" font-size="10.00">Network::broadcast</text>
</a>
</g>
</g>
<!-- Node1&#45;&gt;Node2 -->
<g id="edge1" class="edge">
<title>Node1&#45;&gt;Node2</title>
<path fill="none" stroke="midnightblue" d="M87.11,-95.66C106.61,-109.37 144.96,-133.82 182,-143 239.77,-157.31 307.79,-155.65 356.64,-151.39"/>
<polygon fill="midnightblue" stroke="midnightblue" points="357.13,-154.86 366.76,-150.44 356.48,-147.89 357.13,-154.86"/>
</g>
<!-- Node3 -->
<g id="node3" class="node">
<title>Node3</title>
<g id="a_node3"><a xlink:href="classGalaxy.html#a92134e9c556eca12536abf89edbff577" target="_top" xlink:title=" ">
<polygon fill="white" stroke="black" points="182,-114.5 182,-133.5 331,-133.5 331,-114.5 182,-114.5"/>
<text text-anchor="middle" x="256.5" y="-121.5" font-family="Helvetica,sans-Serif" font-size="10.00">Galaxy::makeGameChange</text>
</a>
</g>
</g>
<!-- Node1&#45;&gt;Node3 -->
<g id="edge2" class="edge">
<title>Node1&#45;&gt;Node3</title>
<path fill="none" stroke="midnightblue" d="M119.8,-95.59C144.18,-100.69 174.36,-107.01 200.06,-112.39"/>
<polygon fill="midnightblue" stroke="midnightblue" points="199.52,-115.86 210.03,-114.48 200.96,-109 199.52,-115.86"/>
</g>
<!-- Node4 -->
<g id="node4" class="node">
<title>Node4</title>
<g id="a_node4"><a xlink:href="classNetwork.html#ad25ed6c4d5a404ed6ca66ecec14b569a" target="_top" xlink:title=" ">
<polygon fill="white" stroke="black" points="213,-76.5 213,-95.5 300,-95.5 300,-76.5 213,-76.5"/>
<text text-anchor="middle" x="256.5" y="-83.5" font-family="Helvetica,sans-Serif" font-size="10.00">Network::send</text>
</a>
</g>
</g>
<!-- Node1&#45;&gt;Node4 -->
<g id="edge4" class="edge">
<title>Node1&#45;&gt;Node4</title>
<path fill="none" stroke="midnightblue" d="M146.26,-86C165.1,-86 185.05,-86 202.67,-86"/>
<polygon fill="midnightblue" stroke="midnightblue" points="202.76,-89.5 212.76,-86 202.76,-82.5 202.76,-89.5"/>
</g>
<!-- Node5 -->
<g id="node5" class="node">
<title>Node5</title>
<g id="a_node5"><a xlink:href="classGalaxy.html#a58d3ec1dd980cd3adfc1eeb83c41f8e4" target="_top" xlink:title=" ">
<polygon fill="white" stroke="black" points="218,-38.5 218,-57.5 295,-57.5 295,-38.5 218,-38.5"/>
<text text-anchor="middle" x="256.5" y="-45.5" font-family="Helvetica,sans-Serif" font-size="10.00">Galaxy::stop</text>
</a>
</g>
</g>
<!-- Node1&#45;&gt;Node5 -->
<g id="edge5" class="edge">
<title>Node1&#45;&gt;Node5</title>
<path fill="none" stroke="midnightblue" d="M119.8,-76.41C146.71,-70.78 180.68,-63.67 207.9,-57.97"/>
<polygon fill="midnightblue" stroke="midnightblue" points="208.9,-61.33 217.97,-55.86 207.46,-54.48 208.9,-61.33"/>
</g>
<!-- Node8 -->
<g id="node8" class="node">
<title>Node8</title>
<g id="a_node8"><a xlink:href="classGalaxy.html#ad74f8049b46bdd7c1aafbc0225eaaae1" target="_top" xlink:title=" ">
<polygon fill="white" stroke="black" points="213.5,-0.5 213.5,-19.5 299.5,-19.5 299.5,-0.5 213.5,-0.5"/>
<text text-anchor="middle" x="256.5" y="-7.5" font-family="Helvetica,sans-Serif" font-size="10.00">Galaxy::toJson</text>
</a>
</g>
</g>
<!-- Node1&#45;&gt;Node8 -->
<g id="edge8" class="edge">
<title>Node1&#45;&gt;Node8</title>
<path fill="none" stroke="midnightblue" d="M89.55,-76.3C110.07,-63.86 147.6,-42.32 182,-29 188.84,-26.35 196.19,-23.96 203.49,-21.83"/>
<polygon fill="midnightblue" stroke="midnightblue" points="204.67,-25.13 213.38,-19.1 202.8,-18.39 204.67,-25.13"/>
</g>
<!-- Node3&#45;&gt;Node2 -->
<g id="edge3" class="edge">
<title>Node3&#45;&gt;Node2</title>
<path fill="none" stroke="midnightblue" d="M331.09,-132.5C339.6,-133.48 348.24,-134.48 356.64,-135.45"/>
<polygon fill="midnightblue" stroke="midnightblue" points="356.39,-138.95 366.73,-136.62 357.2,-131.99 356.39,-138.95"/>
</g>
<!-- Node6 -->
<g id="node6" class="node">
<title>Node6</title>
<g id="a_node6"><a xlink:href="classNetwork.html#a14eee72429fc77613fb20692b2101836" target="_top" xlink:title=" ">
<polygon fill="white" stroke="black" points="369,-76.5 369,-95.5 477,-95.5 477,-76.5 369,-76.5"/>
<text text-anchor="middle" x="423" y="-83.5" font-family="Helvetica,sans-Serif" font-size="10.00">Network::closeCon</text>
</a>
</g>
</g>
<!-- Node5&#45;&gt;Node6 -->
<g id="edge6" class="edge">
<title>Node5&#45;&gt;Node6</title>
<path fill="none" stroke="midnightblue" d="M295.24,-56.72C317.67,-61.9 346.41,-68.54 370.85,-74.19"/>
<polygon fill="midnightblue" stroke="midnightblue" points="370.16,-77.62 380.69,-76.46 371.73,-70.8 370.16,-77.62"/>
</g>
<!-- Node7 -->
<g id="node7" class="node">
<title>Node7</title>
<g id="a_node7"><a xlink:href="classNetwork.html#a223d8aca05065fb5a5c80b119c077831" target="_top" xlink:title=" ">
<polygon fill="white" stroke="black" points="380.5,-38.5 380.5,-57.5 465.5,-57.5 465.5,-38.5 380.5,-38.5"/>
<text text-anchor="middle" x="423" y="-45.5" font-family="Helvetica,sans-Serif" font-size="10.00">Network::stop</text>
</a>
</g>
</g>
<!-- Node5&#45;&gt;Node7 -->
<g id="edge7" class="edge">
<title>Node5&#45;&gt;Node7</title>
<path fill="none" stroke="midnightblue" d="M295.24,-48C317.48,-48 345.94,-48 370.26,-48"/>
<polygon fill="midnightblue" stroke="midnightblue" points="370.39,-51.5 380.39,-48 370.39,-44.5 370.39,-51.5"/>
</g>
<!-- Node9 -->
<g id="node9" class="node">
<title>Node9</title>
<g id="a_node9"><a xlink:href="classGameState.html#a77597717c0d0b6d4e93c7f299cf3f315" target="_top" xlink:title=" ">
<polygon fill="white" stroke="black" points="369.5,-0.5 369.5,-19.5 476.5,-19.5 476.5,-0.5 369.5,-0.5"/>
<text text-anchor="middle" x="423" y="-7.5" font-family="Helvetica,sans-Serif" font-size="10.00">GameState::toJson</text>
</a>
</g>
</g>
<!-- Node8&#45;&gt;Node9 -->
<g id="edge9" class="edge">
<title>Node8&#45;&gt;Node9</title>
<path fill="none" stroke="midnightblue" d="M299.86,-10C317.94,-10 339.41,-10 359.27,-10"/>
<polygon fill="midnightblue" stroke="midnightblue" points="359.48,-13.5 369.48,-10 359.48,-6.5 359.48,-13.5"/>
</g>
</g>
</svg>
