<?xml version="1.0" encoding="UTF-8" standalone="no"?>
<!DOCTYPE svg PUBLIC "-//W3C//DTD SVG 1.1//EN"
 "http://www.w3.org/Graphics/SVG/1.1/DTD/svg11.dtd">
<!-- Generated by graphviz version 2.42.3 (0)
 -->
<!-- Title: GameGen::generateGalaxyFromDot Pages: 1 -->
<svg width="623pt" height="116pt"
 viewBox="0.00 0.00 623.00 115.50" xmlns="http://www.w3.org/2000/svg" xmlns:xlink="http://www.w3.org/1999/xlink">
<g id="graph0" class="graph" transform="scale(1 1) rotate(0) translate(4 111.5)">
<title>GameGen::generateGalaxyFromDot</title>
<polygon fill="white" stroke="transparent" points="-4,4 -4,-111.5 619,-111.5 619,4 -4,4"/>
<!-- Node1 -->
<g id="node1" class="node">
<title>Node1</title>
<g id="a_node1"><a xlink:title=" ">
<polygon fill="#bfbfbf" stroke="black" points="0,-19.5 0,-38.5 191,-38.5 191,-19.5 0,-19.5"/>
<text text-anchor="middle" x="95.5" y="-26.5" font-family="Helvetica,sans-Serif" font-size="10.00">GameGen::generateGalaxyFromDot</text>
</a>
</g>
</g>
<!-- Node2 -->
<g id="node2" class="node">
<title>Node2</title>
<g id="a_node2"><a xlink:href="classGameGen.html#a4d7754bc07fc51f98c7d1855f242cb6d" target="_top" xlink:title=" ">
<polygon fill="white" stroke="black" points="227,-38.5 227,-57.5 384,-57.5 384,-38.5 227,-38.5"/>
<text text-anchor="middle" x="305.5" y="-45.5" font-family="Helvetica,sans-Serif" font-size="10.00">GameGen::addFieldToGalaxy</text>
</a>
</g>
</g>
<!-- Node1&#45;&gt;Node2 -->
<g id="edge1" class="edge">
<title>Node1&#45;&gt;Node2</title>
<path fill="none" stroke="midnightblue" d="M191.07,-37.64C199.71,-38.43 208.43,-39.22 217,-40.01"/>
<polygon fill="midnightblue" stroke="midnightblue" points="216.71,-43.49 226.98,-40.92 217.34,-36.52 216.71,-43.49"/>
</g>
<!-- Node4 -->
<g id="node4" class="node">
<title>Node4</title>
<g id="a_node4"><a xlink:href="classGameGen.html#ae65dd677544a65013b8a1e42ea0f6a4f" target="_top" xlink:title=" ">
<polygon fill="white" stroke="black" points="440.5,-0.5 440.5,-19.5 594.5,-19.5 594.5,-0.5 440.5,-0.5"/>
<text text-anchor="middle" x="517.5" y="-7.5" font-family="Helvetica,sans-Serif" font-size="10.00">GameGen::markAsOccupied</text>
</a>
</g>
</g>
<!-- Node1&#45;&gt;Node4 -->
<g id="edge5" class="edge">
<title>Node1&#45;&gt;Node4</title>
<path fill="none" stroke="midnightblue" d="M191.02,-24.72C262.72,-21.48 360.5,-17.06 430.12,-13.91"/>
<polygon fill="midnightblue" stroke="midnightblue" points="430.35,-17.4 440.18,-13.45 430.03,-10.41 430.35,-17.4"/>
</g>
<!-- Node3 -->
<g id="node3" class="node">
<title>Node3</title>
<g id="a_node3"><a xlink:href="classGameGen.html#ad685427ae4d27abc31a7ea674dc46767" target="_top" xlink:title=" ">
<polygon fill="white" stroke="black" points="437.5,-77 437.5,-107 597.5,-107 597.5,-77 437.5,-77"/>
<text text-anchor="start" x="445.5" y="-95" font-family="Helvetica,sans-Serif" font-size="10.00">GameGen::calculateNeighbor</text>
<text text-anchor="middle" x="517.5" y="-84" font-family="Helvetica,sans-Serif" font-size="10.00">Penalty</text>
</a>
</g>
</g>
<!-- Node2&#45;&gt;Node3 -->
<g id="edge2" class="edge">
<title>Node2&#45;&gt;Node3</title>
<path fill="none" stroke="midnightblue" d="M352.07,-57.55C376.24,-62.61 406.67,-68.99 434.77,-74.88"/>
<polygon fill="midnightblue" stroke="midnightblue" points="434.09,-78.31 444.6,-76.93 435.53,-71.46 434.09,-78.31"/>
</g>
<!-- Node2&#45;&gt;Node4 -->
<g id="edge3" class="edge">
<title>Node2&#45;&gt;Node4</title>
<path fill="none" stroke="midnightblue" d="M359.22,-38.46C387.93,-33.27 423.64,-26.8 453.77,-21.35"/>
<polygon fill="midnightblue" stroke="midnightblue" points="454.54,-24.77 463.76,-19.54 453.29,-17.88 454.54,-24.77"/>
</g>
<!-- Node5 -->
<g id="node5" class="node">
<title>Node5</title>
<g id="a_node5"><a xlink:href="classGameGen.html#a02490de53b4901bde30c6600dadf33c0" target="_top" xlink:title=" ">
<polygon fill="white" stroke="black" points="420,-38.5 420,-57.5 615,-57.5 615,-38.5 420,-38.5"/>
<text text-anchor="middle" x="517.5" y="-45.5" font-family="Helvetica,sans-Serif" font-size="10.00">GameGen::printDotSpaceCandidates</text>
</a>
</g>
</g>
<!-- Node2&#45;&gt;Node5 -->
<g id="edge4" class="edge">
<title>Node2&#45;&gt;Node5</title>
<path fill="none" stroke="midnightblue" d="M384.1,-48C392.5,-48 401.15,-48 409.81,-48"/>
<polygon fill="midnightblue" stroke="midnightblue" points="409.98,-51.5 419.98,-48 409.98,-44.5 409.98,-51.5"/>
</g>
</g>
</svg>
