<?xml version="1.0" encoding="UTF-8" standalone="no"?>
<!DOCTYPE svg PUBLIC "-//W3C//DTD SVG 1.1//EN"
 "http://www.w3.org/Graphics/SVG/1.1/DTD/svg11.dtd">
<!-- Generated by graphviz version 2.42.3 (0)
 -->
<!-- Title: GameGen::calculateNeighborPenalty Pages: 1 -->
<svg width="1001pt" height="78pt"
 viewBox="0.00 0.00 1001.00 77.50" xmlns="http://www.w3.org/2000/svg" xmlns:xlink="http://www.w3.org/1999/xlink">
<g id="graph0" class="graph" transform="scale(1 1) rotate(0) translate(4 73.5)">
<title>GameGen::calculateNeighborPenalty</title>
<polygon fill="white" stroke="transparent" points="-4,4 -4,-73.5 997,-73.5 997,4 -4,4"/>
<!-- Node1 -->
<g id="node1" class="node">
<title>Node1</title>
<g id="a_node1"><a xlink:title=" ">
<polygon fill="#bfbfbf" stroke="black" points="833,-22.5 833,-52.5 993,-52.5 993,-22.5 833,-22.5"/>
<text text-anchor="start" x="841" y="-40.5" font-family="Helvetica,sans-Serif" font-size="10.00">GameGen::calculateNeighbor</text>
<text text-anchor="middle" x="913" y="-29.5" font-family="Helvetica,sans-Serif" font-size="10.00">Penalty</text>
</a>
</g>
</g>
<!-- Node2 -->
<g id="node2" class="node">
<title>Node2</title>
<g id="a_node2"><a xlink:href="classGameGen.html#a4d7754bc07fc51f98c7d1855f242cb6d" target="_top" xlink:title=" ">
<polygon fill="white" stroke="black" points="618.5,-48 618.5,-67 775.5,-67 775.5,-48 618.5,-48"/>
<text text-anchor="middle" x="697" y="-55" font-family="Helvetica,sans-Serif" font-size="10.00">GameGen::addFieldToGalaxy</text>
</a>
</g>
</g>
<!-- Node1&#45;&gt;Node2 -->
<g id="edge1" class="edge">
<title>Node1&#45;&gt;Node2</title>
<path fill="none" stroke="midnightblue" d="M822.74,-45.84C807.11,-47.3 790.97,-48.81 775.68,-50.24"/>
<polygon fill="midnightblue" stroke="midnightblue" points="823.29,-49.31 832.92,-44.89 822.64,-42.34 823.29,-49.31"/>
</g>
<!-- Node6 -->
<g id="node6" class="node">
<title>Node6</title>
<g id="a_node6"><a xlink:href="classGameGen.html#aadd8ef21319cbd62abfb20303783641a" target="_top" xlink:title=" ">
<polygon fill="white" stroke="black" points="597,-9 597,-28 797,-28 797,-9 597,-9"/>
<text text-anchor="middle" x="697" y="-16" font-family="Helvetica,sans-Serif" font-size="10.00">GameGen::getRandomDotCandidates</text>
</a>
</g>
</g>
<!-- Node1&#45;&gt;Node6 -->
<g id="edge5" class="edge">
<title>Node1&#45;&gt;Node6</title>
<path fill="none" stroke="midnightblue" d="M822.7,-29.57C814.24,-28.82 805.64,-28.06 797.1,-27.3"/>
<polygon fill="midnightblue" stroke="midnightblue" points="822.65,-33.08 832.92,-30.48 823.27,-26.11 822.65,-33.08"/>
</g>
<!-- Node3 -->
<g id="node3" class="node">
<title>Node3</title>
<g id="a_node3"><a xlink:href="classGameGen.html#a7f1de577fbe021ce42b1851ce313a53c" target="_top" xlink:title=" ">
<polygon fill="white" stroke="black" points="370,-50 370,-69 561,-69 561,-50 370,-50"/>
<text text-anchor="middle" x="465.5" y="-57" font-family="Helvetica,sans-Serif" font-size="10.00">GameGen::generateGalaxyFromDot</text>
</a>
</g>
</g>
<!-- Node2&#45;&gt;Node3 -->
<g id="edge2" class="edge">
<title>Node2&#45;&gt;Node3</title>
<path fill="none" stroke="midnightblue" d="M608.29,-58.26C592.89,-58.4 576.8,-58.54 561.22,-58.67"/>
<polygon fill="midnightblue" stroke="midnightblue" points="608.33,-61.76 618.3,-58.18 608.27,-54.76 608.33,-61.76"/>
</g>
<!-- Node4 -->
<g id="node4" class="node">
<title>Node4</title>
<g id="a_node4"><a xlink:href="classGameGen.html#a60f3a45a60360c377d1868fbbbed27ff" target="_top" xlink:title=" ">
<polygon fill="white" stroke="black" points="173,-28 173,-47 334,-47 334,-28 173,-28"/>
<text text-anchor="middle" x="253.5" y="-35" font-family="Helvetica,sans-Serif" font-size="10.00">GameGen::generateNextDots</text>
</a>
</g>
</g>
<!-- Node3&#45;&gt;Node4 -->
<g id="edge3" class="edge">
<title>Node3&#45;&gt;Node4</title>
<path fill="none" stroke="midnightblue" d="M363.45,-48.91C353.67,-47.89 343.84,-46.86 334.31,-45.86"/>
<polygon fill="midnightblue" stroke="midnightblue" points="363.3,-52.42 373.61,-49.98 364.03,-45.46 363.3,-52.42"/>
</g>
<!-- Node5 -->
<g id="node5" class="node">
<title>Node5</title>
<g id="a_node5"><a xlink:href="classGameGen.html#a0ce6a9241bfbb198b0ba80ed8ea306eb" target="_top" xlink:title=" ">
<polygon fill="white" stroke="black" points="0,-28 0,-47 137,-47 137,-28 0,-28"/>
<text text-anchor="middle" x="68.5" y="-35" font-family="Helvetica,sans-Serif" font-size="10.00">GameGen::generateDots</text>
</a>
</g>
</g>
<!-- Node4&#45;&gt;Node5 -->
<g id="edge4" class="edge">
<title>Node4&#45;&gt;Node5</title>
<path fill="none" stroke="midnightblue" d="M162.72,-37.5C154.15,-37.5 145.55,-37.5 137.23,-37.5"/>
<polygon fill="midnightblue" stroke="midnightblue" points="162.77,-41 172.77,-37.5 162.77,-34 162.77,-41"/>
</g>
<!-- Node7 -->
<g id="node7" class="node">
<title>Node7</title>
<g id="a_node7"><a xlink:href="classGameGen.html#a79ecced48a44e20cb7ebfb96b8d89648" target="_top" xlink:title=" ">
<polygon fill="white" stroke="black" points="379,-0.5 379,-30.5 552,-30.5 552,-0.5 379,-0.5"/>
<text text-anchor="start" x="387" y="-18.5" font-family="Helvetica,sans-Serif" font-size="10.00">GameGen::generateRandomDot</text>
<text text-anchor="middle" x="465.5" y="-7.5" font-family="Helvetica,sans-Serif" font-size="10.00">InEmptySpot</text>
</a>
</g>
</g>
<!-- Node6&#45;&gt;Node7 -->
<g id="edge6" class="edge">
<title>Node6&#45;&gt;Node7</title>
<path fill="none" stroke="midnightblue" d="M586.59,-17.07C575.07,-16.92 563.49,-16.77 552.3,-16.62"/>
<polygon fill="midnightblue" stroke="midnightblue" points="586.63,-20.57 596.67,-17.2 586.72,-13.57 586.63,-20.57"/>
</g>
<!-- Node7&#45;&gt;Node4 -->
<g id="edge7" class="edge">
<title>Node7&#45;&gt;Node4</title>
<path fill="none" stroke="midnightblue" d="M368.69,-25.54C357.16,-26.75 345.47,-27.97 334.19,-29.15"/>
<polygon fill="midnightblue" stroke="midnightblue" points="369.2,-29 378.78,-24.48 368.47,-22.04 369.2,-29"/>
</g>
</g>
</svg>
