<?xml version="1.0" encoding="UTF-8" standalone="no"?>
<!DOCTYPE svg PUBLIC "-//W3C//DTD SVG 1.1//EN"
 "http://www.w3.org/Graphics/SVG/1.1/DTD/svg11.dtd">
<!-- Generated by graphviz version 2.42.3 (0)
 -->
<!-- Title: GameGen::generateDots Pages: 1 -->
<svg width="1036pt" height="224pt"
 viewBox="0.00 0.00 1036.00 224.00" xmlns="http://www.w3.org/2000/svg" xmlns:xlink="http://www.w3.org/1999/xlink">
<g id="graph0" class="graph" transform="scale(1 1) rotate(0) translate(4 220)">
<title>GameGen::generateDots</title>
<polygon fill="white" stroke="transparent" points="-4,4 -4,-220 1032,-220 1032,4 -4,4"/>
<!-- Node1 -->
<g id="node1" class="node">
<title>Node1</title>
<g id="a_node1"><a xlink:title=" ">
<polygon fill="#bfbfbf" stroke="black" points="0,-66.5 0,-85.5 137,-85.5 137,-66.5 0,-66.5"/>
<text text-anchor="middle" x="68.5" y="-73.5" font-family="Helvetica,sans-Serif" font-size="10.00">GameGen::generateDots</text>
</a>
</g>
</g>
<!-- Node2 -->
<g id="node2" class="node">
<title>Node2</title>
<g id="a_node2"><a xlink:href="classGameGen.html#a089409f51b983de8bb697d1fe0654f52" target="_top" xlink:title=" ">
<polygon fill="white" stroke="black" points="175,-104.5 175,-123.5 332,-123.5 332,-104.5 175,-104.5"/>
<text text-anchor="middle" x="253.5" y="-111.5" font-family="Helvetica,sans-Serif" font-size="10.00">GameGen::countEmptySpots</text>
</a>
</g>
</g>
<!-- Node1&#45;&gt;Node2 -->
<g id="edge1" class="edge">
<title>Node1&#45;&gt;Node2</title>
<path fill="none" stroke="midnightblue" d="M115.68,-85.59C140.26,-90.69 170.69,-97.01 196.6,-102.39"/>
<polygon fill="midnightblue" stroke="midnightblue" points="196.15,-105.87 206.65,-104.48 197.57,-99.02 196.15,-105.87"/>
</g>
<!-- Node3 -->
<g id="node3" class="node">
<title>Node3</title>
<g id="a_node3"><a xlink:href="classGameGen.html#a60f3a45a60360c377d1868fbbbed27ff" target="_top" xlink:title=" ">
<polygon fill="white" stroke="black" points="173,-66.5 173,-85.5 334,-85.5 334,-66.5 173,-66.5"/>
<text text-anchor="middle" x="253.5" y="-73.5" font-family="Helvetica,sans-Serif" font-size="10.00">GameGen::generateNextDots</text>
</a>
</g>
</g>
<!-- Node1&#45;&gt;Node3 -->
<g id="edge2" class="edge">
<title>Node1&#45;&gt;Node3</title>
<path fill="none" stroke="midnightblue" d="M137.12,-76C145.47,-76 154.09,-76 162.7,-76"/>
<polygon fill="midnightblue" stroke="midnightblue" points="162.78,-79.5 172.78,-76 162.78,-72.5 162.78,-79.5"/>
</g>
<!-- Node14 -->
<g id="node14" class="node">
<title>Node14</title>
<g id="a_node14"><a xlink:href="classGameGen.html#ac0bebf96b2d23f9d06cd8ca1c8b80e55" target="_top" xlink:title=" ">
<polygon fill="white" stroke="black" points="183.5,-28.5 183.5,-47.5 323.5,-47.5 323.5,-28.5 183.5,-28.5"/>
<text text-anchor="middle" x="253.5" y="-35.5" font-family="Helvetica,sans-Serif" font-size="10.00">GameGen::printDotSpace</text>
</a>
</g>
</g>
<!-- Node1&#45;&gt;Node14 -->
<g id="edge17" class="edge">
<title>Node1&#45;&gt;Node14</title>
<path fill="none" stroke="midnightblue" d="M115.68,-66.41C140.26,-61.31 170.69,-54.99 196.6,-49.61"/>
<polygon fill="midnightblue" stroke="midnightblue" points="197.57,-52.98 206.65,-47.52 196.15,-46.13 197.57,-52.98"/>
</g>
<!-- Node4 -->
<g id="node4" class="node">
<title>Node4</title>
<g id="a_node4"><a xlink:href="classGameGen.html#a7f1de577fbe021ce42b1851ce313a53c" target="_top" xlink:title=" ">
<polygon fill="white" stroke="black" points="370,-88.5 370,-107.5 561,-107.5 561,-88.5 370,-88.5"/>
<text text-anchor="middle" x="465.5" y="-95.5" font-family="Helvetica,sans-Serif" font-size="10.00">GameGen::generateGalaxyFromDot</text>
</a>
</g>
</g>
<!-- Node3&#45;&gt;Node4 -->
<g id="edge3" class="edge">
<title>Node3&#45;&gt;Node4</title>
<path fill="none" stroke="midnightblue" d="M334.19,-84.35C343.75,-85.35 353.61,-86.38 363.42,-87.41"/>
<polygon fill="midnightblue" stroke="midnightblue" points="363.3,-90.92 373.61,-88.48 364.03,-83.96 363.3,-90.92"/>
</g>
<!-- Node9 -->
<g id="node9" class="node">
<title>Node9</title>
<g id="a_node9"><a xlink:href="classGameGen.html#a0ac01e2e7044e85842deff2d1925138f" target="_top" xlink:title=" ">
<polygon fill="white" stroke="black" points="385,-39 385,-69 546,-69 546,-39 385,-39"/>
<text text-anchor="start" x="393" y="-57" font-family="Helvetica,sans-Serif" font-size="10.00">GameGen::generateNextDots</text>
<text text-anchor="middle" x="465.5" y="-46" font-family="Helvetica,sans-Serif" font-size="10.00">ByPattern</text>
</a>
</g>
</g>
<!-- Node3&#45;&gt;Node9 -->
<g id="edge9" class="edge">
<title>Node3&#45;&gt;Node9</title>
<path fill="none" stroke="midnightblue" d="M334.19,-67.65C347.41,-66.27 361.2,-64.82 374.66,-63.41"/>
<polygon fill="midnightblue" stroke="midnightblue" points="375.28,-66.87 384.86,-62.34 374.55,-59.9 375.28,-66.87"/>
</g>
<!-- Node11 -->
<g id="node11" class="node">
<title>Node11</title>
<g id="a_node11"><a xlink:href="classGameGen.html#a79ecced48a44e20cb7ebfb96b8d89648" target="_top" xlink:title=" ">
<polygon fill="white" stroke="black" points="379,-153 379,-183 552,-183 552,-153 379,-153"/>
<text text-anchor="start" x="387" y="-171" font-family="Helvetica,sans-Serif" font-size="10.00">GameGen::generateRandomDot</text>
<text text-anchor="middle" x="465.5" y="-160" font-family="Helvetica,sans-Serif" font-size="10.00">InEmptySpot</text>
</a>
</g>
</g>
<!-- Node3&#45;&gt;Node11 -->
<g id="edge12" class="edge">
<title>Node3&#45;&gt;Node11</title>
<path fill="none" stroke="midnightblue" d="M304.88,-85.51C314.71,-88.07 324.82,-91.21 334,-95 351.33,-102.16 353.74,-107.65 370,-117 388.41,-127.58 409.15,-138.85 426.49,-148.09"/>
<polygon fill="midnightblue" stroke="midnightblue" points="425.27,-151.4 435.75,-153 428.55,-145.22 425.27,-151.4"/>
</g>
<!-- Node13 -->
<g id="node13" class="node">
<title>Node13</title>
<g id="a_node13"><a xlink:href="classGameGen.html#a34c1e2fa651f615a03de47e2d51243d9" target="_top" xlink:title=" ">
<polygon fill="white" stroke="black" points="401.5,-0.5 401.5,-19.5 529.5,-19.5 529.5,-0.5 401.5,-0.5"/>
<text text-anchor="middle" x="465.5" y="-7.5" font-family="Helvetica,sans-Serif" font-size="10.00">GameGen::getPatterns</text>
</a>
</g>
</g>
<!-- Node3&#45;&gt;Node13 -->
<g id="edge16" class="edge">
<title>Node3&#45;&gt;Node13</title>
<path fill="none" stroke="midnightblue" d="M308.18,-66.49C317.03,-63.99 325.94,-60.87 334,-57 352.27,-48.22 351.57,-37.44 370,-29 376.82,-25.87 384.16,-23.26 391.61,-21.07"/>
<polygon fill="midnightblue" stroke="midnightblue" points="392.69,-24.41 401.45,-18.44 390.88,-17.65 392.69,-24.41"/>
</g>
<!-- Node5 -->
<g id="node5" class="node">
<title>Node5</title>
<g id="a_node5"><a xlink:href="classGameGen.html#a4d7754bc07fc51f98c7d1855f242cb6d" target="_top" xlink:title=" ">
<polygon fill="white" stroke="black" points="618.5,-120.5 618.5,-139.5 775.5,-139.5 775.5,-120.5 618.5,-120.5"/>
<text text-anchor="middle" x="697" y="-127.5" font-family="Helvetica,sans-Serif" font-size="10.00">GameGen::addFieldToGalaxy</text>
</a>
</g>
</g>
<!-- Node4&#45;&gt;Node5 -->
<g id="edge4" class="edge">
<title>Node4&#45;&gt;Node5</title>
<path fill="none" stroke="midnightblue" d="M534.74,-107.51C560.75,-111.14 590.59,-115.3 617.48,-119.05"/>
<polygon fill="midnightblue" stroke="midnightblue" points="617.24,-122.55 627.63,-120.47 618.21,-115.62 617.24,-122.55"/>
</g>
<!-- Node7 -->
<g id="node7" class="node">
<title>Node7</title>
<g id="a_node7"><a xlink:href="classGameGen.html#ae65dd677544a65013b8a1e42ea0f6a4f" target="_top" xlink:title=" ">
<polygon fill="white" stroke="black" points="853.5,-82.5 853.5,-101.5 1007.5,-101.5 1007.5,-82.5 853.5,-82.5"/>
<text text-anchor="middle" x="930.5" y="-89.5" font-family="Helvetica,sans-Serif" font-size="10.00">GameGen::markAsOccupied</text>
</a>
</g>
</g>
<!-- Node4&#45;&gt;Node7 -->
<g id="edge8" class="edge">
<title>Node4&#45;&gt;Node7</title>
<path fill="none" stroke="midnightblue" d="M561.03,-96.77C643.84,-95.7 763.17,-94.16 843.38,-93.12"/>
<polygon fill="midnightblue" stroke="midnightblue" points="843.5,-96.61 853.45,-92.99 843.41,-89.62 843.5,-96.61"/>
</g>
<!-- Node6 -->
<g id="node6" class="node">
<title>Node6</title>
<g id="a_node6"><a xlink:href="classGameGen.html#ad685427ae4d27abc31a7ea674dc46767" target="_top" xlink:title=" ">
<polygon fill="white" stroke="black" points="850.5,-183 850.5,-213 1010.5,-213 1010.5,-183 850.5,-183"/>
<text text-anchor="start" x="858.5" y="-201" font-family="Helvetica,sans-Serif" font-size="10.00">GameGen::calculateNeighbor</text>
<text text-anchor="middle" x="930.5" y="-190" font-family="Helvetica,sans-Serif" font-size="10.00">Penalty</text>
</a>
</g>
</g>
<!-- Node5&#45;&gt;Node6 -->
<g id="edge5" class="edge">
<title>Node5&#45;&gt;Node6</title>
<path fill="none" stroke="midnightblue" d="M730.68,-139.6C766.37,-150.08 824.32,-167.11 868.48,-180.08"/>
<polygon fill="midnightblue" stroke="midnightblue" points="867.66,-183.48 878.24,-182.94 869.64,-176.77 867.66,-183.48"/>
</g>
<!-- Node5&#45;&gt;Node7 -->
<g id="edge6" class="edge">
<title>Node5&#45;&gt;Node7</title>
<path fill="none" stroke="midnightblue" d="M756.12,-120.46C788.04,-115.22 827.82,-108.69 861.21,-103.21"/>
<polygon fill="midnightblue" stroke="midnightblue" points="862.06,-106.62 871.36,-101.54 860.92,-99.71 862.06,-106.62"/>
</g>
<!-- Node8 -->
<g id="node8" class="node">
<title>Node8</title>
<g id="a_node8"><a xlink:href="classGameGen.html#a02490de53b4901bde30c6600dadf33c0" target="_top" xlink:title=" ">
<polygon fill="white" stroke="black" points="833,-136.5 833,-155.5 1028,-155.5 1028,-136.5 833,-136.5"/>
<text text-anchor="middle" x="930.5" y="-143.5" font-family="Helvetica,sans-Serif" font-size="10.00">GameGen::printDotSpaceCandidates</text>
</a>
</g>
</g>
<!-- Node5&#45;&gt;Node8 -->
<g id="edge7" class="edge">
<title>Node5&#45;&gt;Node8</title>
<path fill="none" stroke="midnightblue" d="M775.73,-135.37C790.71,-136.41 806.64,-137.51 822.36,-138.6"/>
<polygon fill="midnightblue" stroke="midnightblue" points="822.43,-142.11 832.65,-139.31 822.91,-135.12 822.43,-142.11"/>
</g>
<!-- Node9&#45;&gt;Node7 -->
<g id="edge11" class="edge">
<title>Node9&#45;&gt;Node7</title>
<path fill="none" stroke="midnightblue" d="M546.09,-60.53C628.83,-67.32 757.91,-77.92 843.09,-84.91"/>
<polygon fill="midnightblue" stroke="midnightblue" points="843,-88.41 853.25,-85.74 843.57,-81.44 843,-88.41"/>
</g>
<!-- Node10 -->
<g id="node10" class="node">
<title>Node10</title>
<g id="a_node10"><a xlink:href="classGameGen.html#a63a2ff5e0ad3f88436c8ee9584ddeb40" target="_top" xlink:title=" ">
<polygon fill="white" stroke="black" points="636,-6.5 636,-25.5 758,-25.5 758,-6.5 636,-6.5"/>
<text text-anchor="middle" x="697" y="-13.5" font-family="Helvetica,sans-Serif" font-size="10.00">GameGen::addBorder</text>
</a>
</g>
</g>
<!-- Node9&#45;&gt;Node10 -->
<g id="edge10" class="edge">
<title>Node9&#45;&gt;Node10</title>
<path fill="none" stroke="midnightblue" d="M546.12,-40.82C572.98,-36.37 602.68,-31.45 628.51,-27.17"/>
<polygon fill="midnightblue" stroke="midnightblue" points="629.28,-30.59 638.58,-25.51 628.14,-23.69 629.28,-30.59"/>
</g>
<!-- Node11&#45;&gt;Node8 -->
<g id="edge15" class="edge">
<title>Node11&#45;&gt;Node8</title>
<path fill="none" stroke="midnightblue" d="M552.23,-163.93C628.52,-160.3 740.4,-154.99 822.53,-151.08"/>
<polygon fill="midnightblue" stroke="midnightblue" points="822.82,-154.57 832.64,-150.6 822.49,-147.58 822.82,-154.57"/>
</g>
<!-- Node12 -->
<g id="node12" class="node">
<title>Node12</title>
<g id="a_node12"><a xlink:href="classGameGen.html#aadd8ef21319cbd62abfb20303783641a" target="_top" xlink:title=" ">
<polygon fill="white" stroke="black" points="597,-196.5 597,-215.5 797,-215.5 797,-196.5 597,-196.5"/>
<text text-anchor="middle" x="697" y="-203.5" font-family="Helvetica,sans-Serif" font-size="10.00">GameGen::getRandomDotCandidates</text>
</a>
</g>
</g>
<!-- Node11&#45;&gt;Node12 -->
<g id="edge13" class="edge">
<title>Node11&#45;&gt;Node12</title>
<path fill="none" stroke="midnightblue" d="M552.28,-182.2C577.46,-186.37 604.63,-190.87 628.49,-194.82"/>
<polygon fill="midnightblue" stroke="midnightblue" points="628.07,-198.3 638.5,-196.48 629.21,-191.39 628.07,-198.3"/>
</g>
<!-- Node12&#45;&gt;Node6 -->
<g id="edge14" class="edge">
<title>Node12&#45;&gt;Node6</title>
<path fill="none" stroke="midnightblue" d="M797.18,-202.57C811.5,-202.08 826.17,-201.57 840.28,-201.08"/>
<polygon fill="midnightblue" stroke="midnightblue" points="840.57,-204.58 850.44,-200.73 840.32,-197.58 840.57,-204.58"/>
</g>
</g>
</svg>
