<?xml version="1.0" encoding="UTF-8" standalone="no"?>
<!DOCTYPE svg PUBLIC "-//W3C//DTD SVG 1.1//EN"
 "http://www.w3.org/Graphics/SVG/1.1/DTD/svg11.dtd">
<!-- Generated by graphviz version 2.42.3 (0)
 -->
<!-- Title: GameGen::generateNextDots Pages: 1 -->
<!--zoomable 224 -->
<svg id="main" version="1.1" xmlns="http://www.w3.org/2000/svg" xmlns:xlink="http://www.w3.org/1999/xlink" xml:space="preserve" onload="init(evt)">
<style type="text/css"><![CDATA[
.edge:hover path { stroke: red; }
.edge:hover polygon { stroke: red; fill: red; }
]]></style>
<script type="text/javascript"><![CDATA[
var edges = document.getElementsByTagName('g');
if (edges && edges.length) {
  for (var i=0;i<edges.length;i++) {
    if (edges[i].id.substr(0,4)=='edge') {
      edges[i].setAttribute('class','edge');
    }
  }
}
]]></script>
        <defs>
                <circle id="rim" cx="0" cy="0" r="7"/>
                <circle id="rim2" cx="0" cy="0" r="3.5"/>
                <g id="zoomPlus">
                        <use xlink:href="#rim" fill="#404040">
                                <set attributeName="fill" to="#808080" begin="zoomplus.mouseover" end="zoomplus.mouseout"/>
                        </use>
                        <path d="M-4,0h8M0,-4v8" fill="none" stroke="white" stroke-width="1.5" pointer-events="none"/>
                </g>
                <g id="zoomMin">
                        <use xlink:href="#rim" fill="#404040">
                                <set attributeName="fill" to="#808080" begin="zoomminus.mouseover" end="zoomminus.mouseout"/>
                        </use>
                        <path d="M-4,0h8" fill="none" stroke="white" stroke-width="1.5" pointer-events="none"/>
                </g>
                <g id="dirArrow">
                        <path fill="none" stroke="white" stroke-width="1.5" d="M0,-3.0v7 M-2.5,-0.5L0,-3.0L2.5,-0.5"/>
                </g>
               <g id="resetDef">
                       <use xlink:href="#rim2" fill="#404040">
                               <set attributeName="fill" to="#808080" begin="reset.mouseover" end="reset.mouseout"/>
                       </use>
               </g>
        </defs>

<script type="text/javascript">
var viewWidth = 863;
var viewHeight = 224;
var sectionId = 'dynsection-8';
</script>
<script xlink:href="svgpan.js"/>
<svg id="graph" class="graph">
<g id="viewport">
<title>GameGen::generateNextDots</title>
<polygon fill="white" stroke="transparent" points="-4,4 -4,-220 859,-220 859,4 -4,4"/>
<!-- Node1 -->
<g id="node1" class="node">
<title>Node1</title>
<g id="a_node1"><a xlink:title=" ">
<polygon fill="#bfbfbf" stroke="black" points="0,-66.5 0,-85.5 161,-85.5 161,-66.5 0,-66.5"/>
<text text-anchor="middle" x="80.5" y="-73.5" font-family="Helvetica,sans-Serif" font-size="10.00">GameGen::generateNextDots</text>
</a>
</g>
</g>
<!-- Node2 -->
<g id="node2" class="node">
<title>Node2</title>
<g id="a_node2"><a xlink:href="classGameGen.html#a7f1de577fbe021ce42b1851ce313a53c" target="_top" xlink:title=" ">
<polygon fill="white" stroke="black" points="197,-88.5 197,-107.5 388,-107.5 388,-88.5 197,-88.5"/>
<text text-anchor="middle" x="292.5" y="-95.5" font-family="Helvetica,sans-Serif" font-size="10.00">GameGen::generateGalaxyFromDot</text>
</a>
</g>
</g>
<!-- Node1&#45;&gt;Node2 -->
<g id="edge1" class="edge">
<title>Node1&#45;&gt;Node2</title>
<path fill="none" stroke="midnightblue" d="M161.19,-84.35C170.75,-85.35 180.61,-86.38 190.42,-87.41"/>
<polygon fill="midnightblue" stroke="midnightblue" points="190.3,-90.92 200.61,-88.48 191.03,-83.96 190.3,-90.92"/>
</g>
<!-- Node7 -->
<g id="node7" class="node">
<title>Node7</title>
<g id="a_node7"><a xlink:href="classGameGen.html#a0ac01e2e7044e85842deff2d1925138f" target="_top" xlink:title=" ">
<polygon fill="white" stroke="black" points="212,-39 212,-69 373,-69 373,-39 212,-39"/>
<text text-anchor="start" x="220" y="-57" font-family="Helvetica,sans-Serif" font-size="10.00">GameGen::generateNextDots</text>
<text text-anchor="middle" x="292.5" y="-46" font-family="Helvetica,sans-Serif" font-size="10.00">ByPattern</text>
</a>
</g>
</g>
<!-- Node1&#45;&gt;Node7 -->
<g id="edge7" class="edge">
<title>Node1&#45;&gt;Node7</title>
<path fill="none" stroke="midnightblue" d="M161.19,-67.65C174.41,-66.27 188.2,-64.82 201.66,-63.41"/>
<polygon fill="midnightblue" stroke="midnightblue" points="202.28,-66.87 211.86,-62.34 201.55,-59.9 202.28,-66.87"/>
</g>
<!-- Node9 -->
<g id="node9" class="node">
<title>Node9</title>
<g id="a_node9"><a xlink:href="classGameGen.html#a79ecced48a44e20cb7ebfb96b8d89648" target="_top" xlink:title=" ">
<polygon fill="white" stroke="black" points="206,-153 206,-183 379,-183 379,-153 206,-153"/>
<text text-anchor="start" x="214" y="-171" font-family="Helvetica,sans-Serif" font-size="10.00">GameGen::generateRandomDot</text>
<text text-anchor="middle" x="292.5" y="-160" font-family="Helvetica,sans-Serif" font-size="10.00">InEmptySpot</text>
</a>
</g>
</g>
<!-- Node1&#45;&gt;Node9 -->
<g id="edge10" class="edge">
<title>Node1&#45;&gt;Node9</title>
<path fill="none" stroke="midnightblue" d="M103.58,-85.67C137.62,-100.59 203.59,-129.49 247.6,-148.77"/>
<polygon fill="midnightblue" stroke="midnightblue" points="246.35,-152.04 256.91,-152.85 249.16,-145.63 246.35,-152.04"/>
</g>
<!-- Node11 -->
<g id="node11" class="node">
<title>Node11</title>
<g id="a_node11"><a xlink:href="classGameGen.html#a34c1e2fa651f615a03de47e2d51243d9" target="_top" xlink:title=" ">
<polygon fill="white" stroke="black" points="228.5,-0.5 228.5,-19.5 356.5,-19.5 356.5,-0.5 228.5,-0.5"/>
<text text-anchor="middle" x="292.5" y="-7.5" font-family="Helvetica,sans-Serif" font-size="10.00">GameGen::getPatterns</text>
</a>
</g>
</g>
<!-- Node1&#45;&gt;Node11 -->
<g id="edge14" class="edge">
<title>Node1&#45;&gt;Node11</title>
<path fill="none" stroke="midnightblue" d="M101.53,-66.5C124.24,-56.05 162.59,-39.36 197,-29 206.04,-26.28 215.68,-23.83 225.22,-21.68"/>
<polygon fill="midnightblue" stroke="midnightblue" points="226.07,-25.07 235.1,-19.53 224.59,-18.23 226.07,-25.07"/>
</g>
<!-- Node3 -->
<g id="node3" class="node">
<title>Node3</title>
<g id="a_node3"><a xlink:href="classGameGen.html#a4d7754bc07fc51f98c7d1855f242cb6d" target="_top" xlink:title=" ">
<polygon fill="white" stroke="black" points="445.5,-120.5 445.5,-139.5 602.5,-139.5 602.5,-120.5 445.5,-120.5"/>
<text text-anchor="middle" x="524" y="-127.5" font-family="Helvetica,sans-Serif" font-size="10.00">GameGen::addFieldToGalaxy</text>
</a>
</g>
</g>
<!-- Node2&#45;&gt;Node3 -->
<g id="edge2" class="edge">
<title>Node2&#45;&gt;Node3</title>
<path fill="none" stroke="midnightblue" d="M361.74,-107.51C387.75,-111.14 417.59,-115.3 444.48,-119.05"/>
<polygon fill="midnightblue" stroke="midnightblue" points="444.24,-122.55 454.63,-120.47 445.21,-115.62 444.24,-122.55"/>
</g>
<!-- Node5 -->
<g id="node5" class="node">
<title>Node5</title>
<g id="a_node5"><a xlink:href="classGameGen.html#ae65dd677544a65013b8a1e42ea0f6a4f" target="_top" xlink:title=" ">
<polygon fill="white" stroke="black" points="680.5,-82.5 680.5,-101.5 834.5,-101.5 834.5,-82.5 680.5,-82.5"/>
<text text-anchor="middle" x="757.5" y="-89.5" font-family="Helvetica,sans-Serif" font-size="10.00">GameGen::markAsOccupied</text>
</a>
</g>
</g>
<!-- Node2&#45;&gt;Node5 -->
<g id="edge6" class="edge">
<title>Node2&#45;&gt;Node5</title>
<path fill="none" stroke="midnightblue" d="M388.03,-96.77C470.84,-95.7 590.17,-94.16 670.38,-93.12"/>
<polygon fill="midnightblue" stroke="midnightblue" points="670.5,-96.61 680.45,-92.99 670.41,-89.62 670.5,-96.61"/>
</g>
<!-- Node4 -->
<g id="node4" class="node">
<title>Node4</title>
<g id="a_node4"><a xlink:href="classGameGen.html#ad685427ae4d27abc31a7ea674dc46767" target="_top" xlink:title=" ">
<polygon fill="white" stroke="black" points="677.5,-183 677.5,-213 837.5,-213 837.5,-183 677.5,-183"/>
<text text-anchor="start" x="685.5" y="-201" font-family="Helvetica,sans-Serif" font-size="10.00">GameGen::calculateNeighbor</text>
<text text-anchor="middle" x="757.5" y="-190" font-family="Helvetica,sans-Serif" font-size="10.00">Penalty</text>
</a>
</g>
</g>
<!-- Node3&#45;&gt;Node4 -->
<g id="edge3" class="edge">
<title>Node3&#45;&gt;Node4</title>
<path fill="none" stroke="midnightblue" d="M557.68,-139.6C593.37,-150.08 651.32,-167.11 695.48,-180.08"/>
<polygon fill="midnightblue" stroke="midnightblue" points="694.66,-183.48 705.24,-182.94 696.64,-176.77 694.66,-183.48"/>
</g>
<!-- Node3&#45;&gt;Node5 -->
<g id="edge4" class="edge">
<title>Node3&#45;&gt;Node5</title>
<path fill="none" stroke="midnightblue" d="M583.12,-120.46C615.04,-115.22 654.82,-108.69 688.21,-103.21"/>
<polygon fill="midnightblue" stroke="midnightblue" points="689.06,-106.62 698.36,-101.54 687.92,-99.71 689.06,-106.62"/>
</g>
<!-- Node6 -->
<g id="node6" class="node">
<title>Node6</title>
<g id="a_node6"><a xlink:href="classGameGen.html#a02490de53b4901bde30c6600dadf33c0" target="_top" xlink:title=" ">
<polygon fill="white" stroke="black" points="660,-136.5 660,-155.5 855,-155.5 855,-136.5 660,-136.5"/>
<text text-anchor="middle" x="757.5" y="-143.5" font-family="Helvetica,sans-Serif" font-size="10.00">GameGen::printDotSpaceCandidates</text>
</a>
</g>
</g>
<!-- Node3&#45;&gt;Node6 -->
<g id="edge5" class="edge">
<title>Node3&#45;&gt;Node6</title>
<path fill="none" stroke="midnightblue" d="M602.73,-135.37C617.71,-136.41 633.64,-137.51 649.36,-138.6"/>
<polygon fill="midnightblue" stroke="midnightblue" points="649.43,-142.11 659.65,-139.31 649.91,-135.12 649.43,-142.11"/>
</g>
<!-- Node7&#45;&gt;Node5 -->
<g id="edge9" class="edge">
<title>Node7&#45;&gt;Node5</title>
<path fill="none" stroke="midnightblue" d="M373.09,-60.53C455.83,-67.32 584.91,-77.92 670.09,-84.91"/>
<polygon fill="midnightblue" stroke="midnightblue" points="670,-88.41 680.25,-85.74 670.57,-81.44 670,-88.41"/>
</g>
<!-- Node8 -->
<g id="node8" class="node">
<title>Node8</title>
<g id="a_node8"><a xlink:href="classGameGen.html#a63a2ff5e0ad3f88436c8ee9584ddeb40" target="_top" xlink:title=" ">
<polygon fill="white" stroke="black" points="463,-6.5 463,-25.5 585,-25.5 585,-6.5 463,-6.5"/>
<text text-anchor="middle" x="524" y="-13.5" font-family="Helvetica,sans-Serif" font-size="10.00">GameGen::addBorder</text>
</a>
</g>
</g>
<!-- Node7&#45;&gt;Node8 -->
<g id="edge8" class="edge">
<title>Node7&#45;&gt;Node8</title>
<path fill="none" stroke="midnightblue" d="M373.12,-40.82C399.98,-36.37 429.68,-31.45 455.51,-27.17"/>
<polygon fill="midnightblue" stroke="midnightblue" points="456.28,-30.59 465.58,-25.51 455.14,-23.69 456.28,-30.59"/>
</g>
<!-- Node9&#45;&gt;Node6 -->
<g id="edge13" class="edge">
<title>Node9&#45;&gt;Node6</title>
<path fill="none" stroke="midnightblue" d="M379.23,-163.93C455.52,-160.3 567.4,-154.99 649.53,-151.08"/>
<polygon fill="midnightblue" stroke="midnightblue" points="649.82,-154.57 659.64,-150.6 649.49,-147.58 649.82,-154.57"/>
</g>
<!-- Node10 -->
<g id="node10" class="node">
<title>Node10</title>
<g id="a_node10"><a xlink:href="classGameGen.html#aadd8ef21319cbd62abfb20303783641a" target="_top" xlink:title=" ">
<polygon fill="white" stroke="black" points="424,-196.5 424,-215.5 624,-215.5 624,-196.5 424,-196.5"/>
<text text-anchor="middle" x="524" y="-203.5" font-family="Helvetica,sans-Serif" font-size="10.00">GameGen::getRandomDotCandidates</text>
</a>
</g>
</g>
<!-- Node9&#45;&gt;Node10 -->
<g id="edge11" class="edge">
<title>Node9&#45;&gt;Node10</title>
<path fill="none" stroke="midnightblue" d="M379.28,-182.2C404.46,-186.37 431.63,-190.87 455.49,-194.82"/>
<polygon fill="midnightblue" stroke="midnightblue" points="455.07,-198.3 465.5,-196.48 456.21,-191.39 455.07,-198.3"/>
</g>
<!-- Node10&#45;&gt;Node4 -->
<g id="edge12" class="edge">
<title>Node10&#45;&gt;Node4</title>
<path fill="none" stroke="midnightblue" d="M624.18,-202.57C638.5,-202.08 653.17,-201.57 667.28,-201.08"/>
<polygon fill="midnightblue" stroke="midnightblue" points="667.57,-204.58 677.44,-200.73 667.32,-197.58 667.57,-204.58"/>
</g>
</g>
</svg>
        <g id="navigator" transform="translate(0 0)" fill="#404254">
                <rect fill="#f2f5e9" fill-opacity="0.5" stroke="#606060" stroke-width=".5" x="0" y="0" width="60" height="60"/>
                <use id="zoomplus" xlink:href="#zoomPlus" x="17" y="9" onmousedown="handleZoom(evt,'in')"/>
                <use id="zoomminus" xlink:href="#zoomMin" x="42" y="9" onmousedown="handleZoom(evt,'out')"/>
                <use id="reset" xlink:href="#resetDef" x="30" y="36" onmousedown="handleReset()"/>
                <g id="arrowUp" xlink:href="#dirArrow" transform="translate(30 24)" onmousedown="handlePan(0,-1)">
                  <use xlink:href="#rim" fill="#404040">
                        <set attributeName="fill" to="#808080" begin="arrowUp.mouseover" end="arrowUp.mouseout"/>
                  </use>
                  <path fill="none" stroke="white" stroke-width="1.5" d="M0,-3.0v7 M-2.5,-0.5L0,-3.0L2.5,-0.5"/>
                </g>
                <g id="arrowRight" xlink:href="#dirArrow" transform="rotate(90) translate(36 -43)" onmousedown="handlePan(1,0)">
                  <use xlink:href="#rim" fill="#404040">
                        <set attributeName="fill" to="#808080" begin="arrowRight.mouseover" end="arrowRight.mouseout"/>
                  </use>
                  <path fill="none" stroke="white" stroke-width="1.5" d="M0,-3.0v7 M-2.5,-0.5L0,-3.0L2.5,-0.5"/>
                </g>
                <g id="arrowDown" xlink:href="#dirArrow" transform="rotate(180) translate(-30 -48)" onmousedown="handlePan(0,1)">
                  <use xlink:href="#rim" fill="#404040">
                        <set attributeName="fill" to="#808080" begin="arrowDown.mouseover" end="arrowDown.mouseout"/>
                  </use>
                  <path fill="none" stroke="white" stroke-width="1.5" d="M0,-3.0v7 M-2.5,-0.5L0,-3.0L2.5,-0.5"/>
                </g>
                <g id="arrowLeft" xlink:href="#dirArrow" transform="rotate(270) translate(-36 17)" onmousedown="handlePan(-1,0)">
                  <use xlink:href="#rim" fill="#404040">
                        <set attributeName="fill" to="#808080" begin="arrowLeft.mouseover" end="arrowLeft.mouseout"/>
                  </use>
                  <path fill="none" stroke="white" stroke-width="1.5" d="M0,-3.0v7 M-2.5,-0.5L0,-3.0L2.5,-0.5"/>
                </g>
        </g>
        <svg viewBox="0 0 15 15" width="100%" height="30px" preserveAspectRatio="xMaxYMin meet">
         <g id="arrow_out" transform="scale(0.3 0.3)">
          <a xlink:href="classGameGen_a60f3a45a60360c377d1868fbbbed27ff_cgraph_org.svg" target="_base">
           <rect id="button" ry="5" rx="5" y="6" x="6" height="38" width="38"
                fill="#f2f5e9" fill-opacity="0.5" stroke="#606060" stroke-width="1.0"/>
           <path id="arrow"
             d="M 11.500037,31.436501 C 11.940474,20.09759 22.043105,11.32322 32.158766,21.979434 L 37.068811,17.246167 C 37.068811,17.246167 37.088388,32 37.088388,32 L 22.160133,31.978069 C 22.160133,31.978069 26.997745,27.140456 26.997745,27.140456 C 18.528582,18.264221 13.291696,25.230495 11.500037,31.436501 z"
             style="fill:#404040;"/>
          </a>
         </g>
        </svg>
</svg>
