<?xml version="1.0" encoding="UTF-8" standalone="no"?>
<!DOCTYPE svg PUBLIC "-//W3C//DTD SVG 1.1//EN"
 "http://www.w3.org/Graphics/SVG/1.1/DTD/svg11.dtd">
<!-- Generated by graphviz version 2.42.3 (0)
 -->
<!-- Title: Network::processMessages Pages: 1 -->
<svg width="673pt" height="170pt"
 viewBox="0.00 0.00 673.00 169.98" xmlns="http://www.w3.org/2000/svg" xmlns:xlink="http://www.w3.org/1999/xlink">
<g id="graph0" class="graph" transform="scale(1 1) rotate(0) translate(4 165.98)">
<title>Network::processMessages</title>
<polygon fill="white" stroke="transparent" points="-4,4 -4,-165.98 669,-165.98 669,4 -4,4"/>
<!-- Node1 -->
<g id="node1" class="node">
<title>Node1</title>
<g id="a_node1"><a xlink:title="prozesses all incoming messages">
<polygon fill="#bfbfbf" stroke="black" points="0,-76.5 0,-95.5 150,-95.5 150,-76.5 0,-76.5"/>
<text text-anchor="middle" x="75" y="-83.5" font-family="Helvetica,sans-Serif" font-size="10.00">Network::processMessages</text>
</a>
</g>
</g>
<!-- Node2 -->
<g id="node2" class="node">
<title>Node2</title>
<g id="a_node2"><a xlink:href="classGalaxy.html#a60e26c21a827518c37d85d8d7bd8e1b5" target="_top" xlink:title="needs to be called when Player disconnects from server">
<polygon fill="white" stroke="black" points="200,-114.5 200,-133.5 318,-133.5 318,-114.5 200,-114.5"/>
<text text-anchor="middle" x="259" y="-121.5" font-family="Helvetica,sans-Serif" font-size="10.00">Galaxy::deletePlayer</text>
</a>
</g>
</g>
<!-- Node1&#45;&gt;Node2 -->
<g id="edge1" class="edge">
<title>Node1&#45;&gt;Node2</title>
<path fill="none" stroke="midnightblue" d="M121.93,-95.59C146.38,-100.69 176.63,-107.01 202.4,-112.39"/>
<polygon fill="midnightblue" stroke="midnightblue" points="201.9,-115.86 212.4,-114.48 203.33,-109.01 201.9,-115.86"/>
</g>
<!-- Node3 -->
<g id="node3" class="node">
<title>Node3</title>
<g id="a_node3"><a xlink:href="classGalaxy.html#a13dbcec35a2b7615acb153d7ca33bce3" target="_top" xlink:title="central method that manages incomming messages from clients">
<polygon fill="white" stroke="black" points="186,-76.5 186,-95.5 332,-95.5 332,-76.5 186,-76.5"/>
<text text-anchor="middle" x="259" y="-83.5" font-family="Helvetica,sans-Serif" font-size="10.00">Galaxy::executeCommand</text>
</a>
</g>
</g>
<!-- Node1&#45;&gt;Node3 -->
<g id="edge2" class="edge">
<title>Node1&#45;&gt;Node3</title>
<path fill="none" stroke="midnightblue" d="M150.03,-86C158.51,-86 167.21,-86 175.79,-86"/>
<polygon fill="midnightblue" stroke="midnightblue" points="175.81,-89.5 185.81,-86 175.81,-82.5 175.81,-89.5"/>
</g>
<!-- Node12 -->
<g id="node12" class="node">
<title>Node12</title>
<g id="a_node12"><a xlink:href="classGalaxy.html#ab70919238d14bc1c16435f477966e159" target="_top" xlink:title="needs to be called when a new Player connects to the server">
<polygon fill="white" stroke="black" points="186,-38.5 186,-57.5 332,-57.5 332,-38.5 186,-38.5"/>
<text text-anchor="middle" x="259" y="-45.5" font-family="Helvetica,sans-Serif" font-size="10.00">Galaxy::registerNewPlayer</text>
</a>
</g>
</g>
<!-- Node1&#45;&gt;Node12 -->
<g id="edge12" class="edge">
<title>Node1&#45;&gt;Node12</title>
<path fill="none" stroke="midnightblue" d="M121.93,-76.41C146.38,-71.31 176.63,-64.99 202.4,-59.61"/>
<polygon fill="midnightblue" stroke="midnightblue" points="203.33,-62.99 212.4,-57.52 201.9,-56.14 203.33,-62.99"/>
</g>
<!-- Node4 -->
<g id="node4" class="node">
<title>Node4</title>
<g id="a_node4"><a xlink:href="classNetwork.html#a57f3c2d8b53d214d26822a52b899d69f" target="_top" xlink:title="broadcast to all players">
<polygon fill="white" stroke="black" points="553,-133.5 553,-152.5 665,-152.5 665,-133.5 553,-133.5"/>
<text text-anchor="middle" x="609" y="-140.5" font-family="Helvetica,sans-Serif" font-size="10.00">Network::broadcast</text>
</a>
</g>
</g>
<!-- Node3&#45;&gt;Node4 -->
<g id="edge3" class="edge">
<title>Node3&#45;&gt;Node4</title>
<path fill="none" stroke="midnightblue" d="M310.63,-95.53C318.08,-98 325.44,-101.11 332,-105 352.01,-116.87 346.63,-133.81 368,-143 428.7,-169.11 506.29,-162.87 556.55,-154.34"/>
<polygon fill="midnightblue" stroke="midnightblue" points="557.31,-157.76 566.54,-152.56 556.08,-150.87 557.31,-157.76"/>
</g>
<!-- Node5 -->
<g id="node5" class="node">
<title>Node5</title>
<g id="a_node5"><a xlink:href="classGalaxy.html#a92134e9c556eca12536abf89edbff577" target="_top" xlink:title="converts data from the client into a GameChange and applies it">
<polygon fill="white" stroke="black" points="368,-114.5 368,-133.5 517,-133.5 517,-114.5 368,-114.5"/>
<text text-anchor="middle" x="442.5" y="-121.5" font-family="Helvetica,sans-Serif" font-size="10.00">Galaxy::makeGameChange</text>
</a>
</g>
</g>
<!-- Node3&#45;&gt;Node5 -->
<g id="edge4" class="edge">
<title>Node3&#45;&gt;Node5</title>
<path fill="none" stroke="midnightblue" d="M305.8,-95.59C330.18,-100.69 360.36,-107.01 386.06,-112.39"/>
<polygon fill="midnightblue" stroke="midnightblue" points="385.52,-115.86 396.03,-114.48 386.96,-109 385.52,-115.86"/>
</g>
<!-- Node6 -->
<g id="node6" class="node">
<title>Node6</title>
<g id="a_node6"><a xlink:href="classNetwork.html#ad25ed6c4d5a404ed6ca66ecec14b569a" target="_top" xlink:title="send a message to a player">
<polygon fill="white" stroke="black" points="399,-76.5 399,-95.5 486,-95.5 486,-76.5 399,-76.5"/>
<text text-anchor="middle" x="442.5" y="-83.5" font-family="Helvetica,sans-Serif" font-size="10.00">Network::send</text>
</a>
</g>
</g>
<!-- Node3&#45;&gt;Node6 -->
<g id="edge6" class="edge">
<title>Node3&#45;&gt;Node6</title>
<path fill="none" stroke="midnightblue" d="M332.26,-86C351.1,-86 371.05,-86 388.67,-86"/>
<polygon fill="midnightblue" stroke="midnightblue" points="388.76,-89.5 398.76,-86 388.76,-82.5 388.76,-89.5"/>
</g>
<!-- Node7 -->
<g id="node7" class="node">
<title>Node7</title>
<g id="a_node7"><a xlink:href="classGalaxy.html#a58d3ec1dd980cd3adfc1eeb83c41f8e4" target="_top" xlink:title="starts notifing all components to shutdown.">
<polygon fill="white" stroke="black" points="404,-38.5 404,-57.5 481,-57.5 481,-38.5 404,-38.5"/>
<text text-anchor="middle" x="442.5" y="-45.5" font-family="Helvetica,sans-Serif" font-size="10.00">Galaxy::stop</text>
</a>
</g>
</g>
<!-- Node3&#45;&gt;Node7 -->
<g id="edge7" class="edge">
<title>Node3&#45;&gt;Node7</title>
<path fill="none" stroke="midnightblue" d="M305.8,-76.41C332.71,-70.78 366.68,-63.67 393.9,-57.97"/>
<polygon fill="midnightblue" stroke="midnightblue" points="394.9,-61.33 403.97,-55.86 393.46,-54.48 394.9,-61.33"/>
</g>
<!-- Node10 -->
<g id="node10" class="node">
<title>Node10</title>
<g id="a_node10"><a xlink:href="classGalaxy.html#ad74f8049b46bdd7c1aafbc0225eaaae1" target="_top" xlink:title="generates a json object of the current state of the galaxy">
<polygon fill="white" stroke="black" points="399.5,-0.5 399.5,-19.5 485.5,-19.5 485.5,-0.5 399.5,-0.5"/>
<text text-anchor="middle" x="442.5" y="-7.5" font-family="Helvetica,sans-Serif" font-size="10.00">Galaxy::toJson</text>
</a>
</g>
</g>
<!-- Node3&#45;&gt;Node10 -->
<g id="edge10" class="edge">
<title>Node3&#45;&gt;Node10</title>
<path fill="none" stroke="midnightblue" d="M310.63,-76.47C318.08,-74 325.44,-70.89 332,-67 352.01,-55.13 347.96,-40.81 368,-29 374.71,-25.05 382.23,-21.91 389.84,-19.41"/>
<polygon fill="midnightblue" stroke="midnightblue" points="390.85,-22.76 399.46,-16.59 388.88,-16.05 390.85,-22.76"/>
</g>
<!-- Node5&#45;&gt;Node4 -->
<g id="edge5" class="edge">
<title>Node5&#45;&gt;Node4</title>
<path fill="none" stroke="midnightblue" d="M517.09,-132.5C525.6,-133.48 534.24,-134.48 542.64,-135.45"/>
<polygon fill="midnightblue" stroke="midnightblue" points="542.39,-138.95 552.73,-136.62 543.2,-131.99 542.39,-138.95"/>
</g>
<!-- Node8 -->
<g id="node8" class="node">
<title>Node8</title>
<g id="a_node8"><a xlink:href="classNetwork.html#a14eee72429fc77613fb20692b2101836" target="_top" xlink:title="closes a specific connection">
<polygon fill="white" stroke="black" points="555,-76.5 555,-95.5 663,-95.5 663,-76.5 555,-76.5"/>
<text text-anchor="middle" x="609" y="-83.5" font-family="Helvetica,sans-Serif" font-size="10.00">Network::closeCon</text>
</a>
</g>
</g>
<!-- Node7&#45;&gt;Node8 -->
<g id="edge8" class="edge">
<title>Node7&#45;&gt;Node8</title>
<path fill="none" stroke="midnightblue" d="M481.24,-56.72C503.67,-61.9 532.41,-68.54 556.85,-74.19"/>
<polygon fill="midnightblue" stroke="midnightblue" points="556.16,-77.62 566.69,-76.46 557.73,-70.8 556.16,-77.62"/>
</g>
<!-- Node9 -->
<g id="node9" class="node">
<title>Node9</title>
<g id="a_node9"><a xlink:href="classNetwork.html#a223d8aca05065fb5a5c80b119c077831" target="_top" xlink:title="starts the shutdown mechanism of the network operations">
<polygon fill="white" stroke="black" points="566.5,-38.5 566.5,-57.5 651.5,-57.5 651.5,-38.5 566.5,-38.5"/>
<text text-anchor="middle" x="609" y="-45.5" font-family="Helvetica,sans-Serif" font-size="10.00">Network::stop</text>
</a>
</g>
</g>
<!-- Node7&#45;&gt;Node9 -->
<g id="edge9" class="edge">
<title>Node7&#45;&gt;Node9</title>
<path fill="none" stroke="midnightblue" d="M481.24,-48C503.48,-48 531.94,-48 556.26,-48"/>
<polygon fill="midnightblue" stroke="midnightblue" points="556.39,-51.5 566.39,-48 556.39,-44.5 556.39,-51.5"/>
</g>
<!-- Node11 -->
<g id="node11" class="node">
<title>Node11</title>
<g id="a_node11"><a xlink:href="classGameState.html#a77597717c0d0b6d4e93c7f299cf3f315" target="_top" xlink:title=" ">
<polygon fill="white" stroke="black" points="555.5,-0.5 555.5,-19.5 662.5,-19.5 662.5,-0.5 555.5,-0.5"/>
<text text-anchor="middle" x="609" y="-7.5" font-family="Helvetica,sans-Serif" font-size="10.00">GameState::toJson</text>
</a>
</g>
</g>
<!-- Node10&#45;&gt;Node11 -->
<g id="edge11" class="edge">
<title>Node10&#45;&gt;Node11</title>
<path fill="none" stroke="midnightblue" d="M485.86,-10C503.94,-10 525.41,-10 545.27,-10"/>
<polygon fill="midnightblue" stroke="midnightblue" points="545.48,-13.5 555.48,-10 545.48,-6.5 545.48,-13.5"/>
</g>
</g>
</svg>
