<?xml version="1.0" encoding="UTF-8" standalone="no"?>
<!DOCTYPE svg PUBLIC "-//W3C//DTD SVG 1.1//EN"
 "http://www.w3.org/Graphics/SVG/1.1/DTD/svg11.dtd">
<!-- Generated by graphviz version 2.42.3 (0)
 -->
<!-- Title: Network Pages: 1 -->
<!--zoomable 499 -->
<svg id="main" version="1.1" xmlns="http://www.w3.org/2000/svg" xmlns:xlink="http://www.w3.org/1999/xlink" xml:space="preserve" onload="init(evt)">
<style type="text/css"><![CDATA[
.edge:hover path { stroke: red; }
.edge:hover polygon { stroke: red; fill: red; }
]]></style>
<script type="text/javascript"><![CDATA[
var edges = document.getElementsByTagName('g');
if (edges && edges.length) {
  for (var i=0;i<edges.length;i++) {
    if (edges[i].id.substr(0,4)=='edge') {
      edges[i].setAttribute('class','edge');
    }
  }
}
]]></script>
        <defs>
                <circle id="rim" cx="0" cy="0" r="7"/>
                <circle id="rim2" cx="0" cy="0" r="3.5"/>
                <g id="zoomPlus">
                        <use xlink:href="#rim" fill="#404040">
                                <set attributeName="fill" to="#808080" begin="zoomplus.mouseover" end="zoomplus.mouseout"/>
                        </use>
                        <path d="M-4,0h8M0,-4v8" fill="none" stroke="white" stroke-width="1.5" pointer-events="none"/>
                </g>
                <g id="zoomMin">
                        <use xlink:href="#rim" fill="#404040">
                                <set attributeName="fill" to="#808080" begin="zoomminus.mouseover" end="zoomminus.mouseout"/>
                        </use>
                        <path d="M-4,0h8" fill="none" stroke="white" stroke-width="1.5" pointer-events="none"/>
                </g>
                <g id="dirArrow">
                        <path fill="none" stroke="white" stroke-width="1.5" d="M0,-3.0v7 M-2.5,-0.5L0,-3.0L2.5,-0.5"/>
                </g>
               <g id="resetDef">
                       <use xlink:href="#rim2" fill="#404040">
                               <set attributeName="fill" to="#808080" begin="reset.mouseover" end="reset.mouseout"/>
                       </use>
               </g>
        </defs>

<script type="text/javascript">
var viewWidth = 2680;
var viewHeight = 499;
var sectionId = 'dynsection-0';
</script>
<script xlink:href="svgpan.js"/>
<svg id="graph" class="graph">
<g id="viewport">
<title>Network</title>
<polygon fill="white" stroke="transparent" points="-4,4 -4,-494.5 2676,-494.5 2676,4 -4,4"/>
<!-- Node1 -->
<g id="node1" class="node">
<title>Node1</title>
<g id="a_node1"><a xlink:title="Manages the Websocket connection.">
<polygon fill="#bfbfbf" stroke="black" points="2411,-424 2411,-443 2469,-443 2469,-424 2411,-424"/>
<text text-anchor="middle" x="2440" y="-431" font-family="Helvetica,sans-Serif" font-size="10.00">Network</text>
</a>
</g>
</g>
<!-- Node6 -->
<g id="node6" class="node">
<title>Node6</title>
<g id="a_node6"><a xlink:href="classGalaxy.html" target="_top" xlink:title="Main class of this project. Manages all ressources.">
<polygon fill="white" stroke="black" points="2621,-356 2621,-375 2672,-375 2672,-356 2621,-356"/>
<text text-anchor="middle" x="2646.5" y="-363" font-family="Helvetica,sans-Serif" font-size="10.00">Galaxy</text>
</a>
</g>
</g>
<!-- Node1&#45;&gt;Node6 -->
<g id="edge29" class="edge">
<title>Node1&#45;&gt;Node6</title>
<path fill="none" stroke="#9a32cd" stroke-dasharray="5,2" d="M2474.59,-420.38C2492.44,-413.56 2514.8,-405.27 2535,-398.5 2550.95,-393.16 2593.55,-380.61 2620.96,-372.62"/>
<polygon fill="#9a32cd" stroke="#9a32cd" points="2473.27,-417.14 2465.19,-423.99 2475.78,-423.67 2473.27,-417.14"/>
<text text-anchor="middle" x="2569" y="-401.5" font-family="Helvetica,sans-Serif" font-size="10.00"> net</text>
</g>
<!-- Node2 -->
<g id="node2" class="node">
<title>Node2</title>
<g id="a_node2"><a xlink:title="STL class.">
<polygon fill="white" stroke="#bfbfbf" points="2136,-471 2136,-490 2205,-490 2205,-471 2136,-471"/>
<text text-anchor="middle" x="2170.5" y="-478" font-family="Helvetica,sans-Serif" font-size="10.00">std::mutex</text>
</a>
</g>
</g>
<!-- Node2&#45;&gt;Node1 -->
<g id="edge1" class="edge">
<title>Node2&#45;&gt;Node1</title>
<path fill="none" stroke="#9a32cd" stroke-dasharray="5,2" d="M2215.11,-474.39C2250.27,-469.31 2300.93,-461.61 2345,-453.5 2367.15,-449.42 2392.08,-444.08 2410.7,-439.95"/>
<polygon fill="#9a32cd" stroke="#9a32cd" points="2214.58,-470.94 2205.18,-475.82 2215.57,-477.86 2214.58,-470.94"/>
<text text-anchor="middle" x="2302.5" y="-469.5" font-family="Helvetica,sans-Serif" font-size="10.00"> message_mutex</text>
</g>
<!-- Node3 -->
<g id="node3" class="node">
<title>Node3</title>
<g id="a_node3"><a xlink:title=" ">
<polygon fill="white" stroke="#bfbfbf" points="2099,-433 2099,-452 2242,-452 2242,-433 2099,-433"/>
<text text-anchor="middle" x="2170.5" y="-440" font-family="Helvetica,sans-Serif" font-size="10.00">std::queue&lt; message_t &gt;</text>
</a>
</g>
</g>
<!-- Node3&#45;&gt;Node1 -->
<g id="edge2" class="edge">
<title>Node3&#45;&gt;Node1</title>
<path fill="none" stroke="#9a32cd" stroke-dasharray="5,2" d="M2252.36,-439.78C2306.22,-437.97 2373.71,-435.7 2410.99,-434.44"/>
<polygon fill="#9a32cd" stroke="#9a32cd" points="2252.01,-436.29 2242.13,-440.12 2252.24,-443.29 2252.01,-436.29"/>
<text text-anchor="middle" x="2302.5" y="-441.5" font-family="Helvetica,sans-Serif" font-size="10.00"> to_process</text>
</g>
<!-- Node4 -->
<g id="node4" class="node">
<title>Node4</title>
<g id="a_node4"><a xlink:href="structmessage__t.html" target="_top" xlink:title="simple message type that stores relevant information about a message">
<polygon fill="white" stroke="black" points="1914.5,-433 1914.5,-452 1984.5,-452 1984.5,-433 1914.5,-433"/>
<text text-anchor="middle" x="1949.5" y="-440" font-family="Helvetica,sans-Serif" font-size="10.00">message_t</text>
</a>
</g>
</g>
<!-- Node4&#45;&gt;Node3 -->
<g id="edge3" class="edge">
<title>Node4&#45;&gt;Node3</title>
<path fill="none" stroke="#9a32cd" stroke-dasharray="5,2" d="M1994.82,-442.5C2024.67,-442.5 2064.66,-442.5 2098.85,-442.5"/>
<polygon fill="#9a32cd" stroke="#9a32cd" points="1994.72,-439 1984.72,-442.5 1994.72,-446 1994.72,-439"/>
<text text-anchor="middle" x="2056.5" y="-445.5" font-family="Helvetica,sans-Serif" font-size="10.00"> elements</text>
</g>
<!-- Node5 -->
<g id="node5" class="node">
<title>Node5</title>
<g id="a_node5"><a xlink:title="STL class.">
<polygon fill="white" stroke="#bfbfbf" points="2136,-395 2136,-414 2205,-414 2205,-395 2136,-395"/>
<text text-anchor="middle" x="2170.5" y="-402" font-family="Helvetica,sans-Serif" font-size="10.00">std::thread</text>
</a>
</g>
</g>
<!-- Node5&#45;&gt;Node1 -->
<g id="edge4" class="edge">
<title>Node5&#45;&gt;Node1</title>
<path fill="none" stroke="#9a32cd" stroke-dasharray="5,2" d="M2215.49,-408.45C2250.59,-411.69 2300.98,-416.53 2345,-421.5 2367.07,-423.99 2392,-427.19 2410.64,-429.66"/>
<polygon fill="#9a32cd" stroke="#9a32cd" points="2215.39,-404.93 2205.12,-407.5 2214.75,-411.9 2215.39,-404.93"/>
<text text-anchor="middle" x="2302.5" y="-424.5" font-family="Helvetica,sans-Serif" font-size="10.00"> process_thread</text>
</g>
<!-- Node6&#45;&gt;Node1 -->
<g id="edge5" class="edge">
<title>Node6&#45;&gt;Node1</title>
<path fill="none" stroke="#9a32cd" stroke-dasharray="5,2" d="M2633.62,-383.54C2626.07,-393.46 2615.41,-405.04 2603,-411.5 2560.2,-433.78 2502.81,-436.17 2469.07,-435.26"/>
<polygon fill="#9a32cd" stroke="#9a32cd" points="2636.69,-385.26 2639.63,-375.08 2630.98,-381.2 2636.69,-385.26"/>
<text text-anchor="middle" x="2569" y="-434.5" font-family="Helvetica,sans-Serif" font-size="10.00"> galaxy</text>
</g>
<!-- Node7 -->
<g id="node7" class="node">
<title>Node7</title>
<g id="a_node7"><a xlink:title=" ">
<polygon fill="white" stroke="#bfbfbf" points="2363,-353 2363,-394 2517,-394 2517,-353 2363,-353"/>
<text text-anchor="start" x="2371" y="-382" font-family="Helvetica,sans-Serif" font-size="10.00">std::map&lt; web_con,</text>
<text text-anchor="start" x="2371" y="-371" font-family="Helvetica,sans-Serif" font-size="10.00"> shared_player, std</text>
<text text-anchor="middle" x="2440" y="-360" font-family="Helvetica,sans-Serif" font-size="10.00">::owner_less&lt; web_con &gt; &gt;</text>
</a>
</g>
</g>
<!-- Node7&#45;&gt;Node6 -->
<g id="edge6" class="edge">
<title>Node7&#45;&gt;Node6</title>
<path fill="none" stroke="#9a32cd" stroke-dasharray="5,2" d="M2527.28,-366.85C2529.88,-366.72 2532.46,-366.61 2535,-366.5 2564.52,-365.27 2598.51,-365.16 2620.91,-365.26"/>
<polygon fill="#9a32cd" stroke="#9a32cd" points="2526.95,-363.37 2517.16,-367.41 2527.34,-370.36 2526.95,-363.37"/>
<text text-anchor="middle" x="2569" y="-369.5" font-family="Helvetica,sans-Serif" font-size="10.00"> players</text>
</g>
<!-- Node8 -->
<g id="node8" class="node">
<title>Node8</title>
<g id="a_node8"><a xlink:title="STL class.">
<polygon fill="white" stroke="#bfbfbf" points="2111.5,-357 2111.5,-376 2229.5,-376 2229.5,-357 2111.5,-357"/>
<text text-anchor="middle" x="2170.5" y="-364" font-family="Helvetica,sans-Serif" font-size="10.00">std::shared_ptr&lt; T &gt;</text>
</a>
</g>
</g>
<!-- Node8&#45;&gt;Node7 -->
<g id="edge7" class="edge">
<title>Node8&#45;&gt;Node7</title>
<path fill="none" stroke="#9a32cd" stroke-dasharray="5,2" d="M2239.88,-368.29C2277.42,-369.27 2324.07,-370.49 2362.78,-371.51"/>
<polygon fill="#9a32cd" stroke="#9a32cd" points="2239.63,-364.78 2229.54,-368.02 2239.45,-371.78 2239.63,-364.78"/>
<text text-anchor="middle" x="2302.5" y="-373.5" font-family="Helvetica,sans-Serif" font-size="10.00"> elements</text>
</g>
<!-- Node9 -->
<g id="node9" class="node">
<title>Node9</title>
<g id="a_node9"><a xlink:title=" ">
<polygon fill="white" stroke="#bfbfbf" points="1935,-357 1935,-376 1964,-376 1964,-357 1935,-357"/>
<text text-anchor="middle" x="1949.5" y="-364" font-family="Helvetica,sans-Serif" font-size="10.00">T</text>
</a>
</g>
</g>
<!-- Node9&#45;&gt;Node8 -->
<g id="edge8" class="edge">
<title>Node9&#45;&gt;Node8</title>
<path fill="none" stroke="#9a32cd" stroke-dasharray="5,2" d="M1974.58,-366.5C2007.27,-366.5 2066.74,-366.5 2111.43,-366.5"/>
<polygon fill="#9a32cd" stroke="#9a32cd" points="1974.2,-363 1964.2,-366.5 1974.2,-370 1974.2,-363"/>
<text text-anchor="middle" x="2056.5" y="-369.5" font-family="Helvetica,sans-Serif" font-size="10.00"> ptr</text>
</g>
<!-- Node10 -->
<g id="node10" class="node">
<title>Node10</title>
<g id="a_node10"><a xlink:title=" ">
<polygon fill="white" stroke="#bfbfbf" points="1106,-307.5 1106,-337.5 1241,-337.5 1241,-307.5 1106,-307.5"/>
<text text-anchor="start" x="1114" y="-325.5" font-family="Helvetica,sans-Serif" font-size="10.00">std::list&lt; std::shared</text>
<text text-anchor="middle" x="1173.5" y="-314.5" font-family="Helvetica,sans-Serif" font-size="10.00">_ptr&lt; GameChange &gt; &gt;</text>
</a>
</g>
</g>
<!-- Node10&#45;&gt;Node6 -->
<g id="edge9" class="edge">
<title>Node10&#45;&gt;Node6</title>
<path fill="none" stroke="#9a32cd" stroke-dasharray="5,2" d="M1251.13,-323.4C1302.91,-323.93 1372.82,-324.5 1434.5,-324.5 1434.5,-324.5 1434.5,-324.5 2441,-324.5 2507.08,-324.5 2582.88,-345.34 2620.95,-357.3"/>
<polygon fill="#9a32cd" stroke="#9a32cd" points="1251.06,-319.9 1241.02,-323.29 1250.99,-326.9 1251.06,-319.9"/>
<text text-anchor="middle" x="1848.5" y="-327.5" font-family="Helvetica,sans-Serif" font-size="10.00"> history</text>
</g>
<!-- Node11 -->
<g id="node11" class="node">
<title>Node11</title>
<g id="a_node11"><a xlink:title=" ">
<polygon fill="white" stroke="#bfbfbf" points="764,-306 764,-325 942,-325 942,-306 764,-306"/>
<text text-anchor="middle" x="853" y="-313" font-family="Helvetica,sans-Serif" font-size="10.00">std::shared_ptr&lt; GameChange &gt;</text>
</a>
</g>
</g>
<!-- Node11&#45;&gt;Node10 -->
<g id="edge10" class="edge">
<title>Node11&#45;&gt;Node10</title>
<path fill="none" stroke="#9a32cd" stroke-dasharray="5,2" d="M952.45,-317.66C1002.25,-318.76 1061.38,-320.06 1105.8,-321.03"/>
<polygon fill="#9a32cd" stroke="#9a32cd" points="952.37,-314.16 942.3,-317.44 952.22,-321.16 952.37,-314.16"/>
<text text-anchor="middle" x="995.5" y="-322.5" font-family="Helvetica,sans-Serif" font-size="10.00"> elements</text>
</g>
<!-- Node12 -->
<g id="node12" class="node">
<title>Node12</title>
<g id="a_node12"><a xlink:href="classGameChange.html" target="_top" xlink:title="Represents an atomic change to the gamestate. Can be reverted, once applied.">
<polygon fill="white" stroke="black" points="628,-239 628,-258 711,-258 711,-239 628,-239"/>
<text text-anchor="middle" x="669.5" y="-246" font-family="Helvetica,sans-Serif" font-size="10.00">GameChange</text>
</a>
</g>
</g>
<!-- Node12&#45;&gt;Node11 -->
<g id="edge11" class="edge">
<title>Node12&#45;&gt;Node11</title>
<path fill="none" stroke="#9a32cd" stroke-dasharray="5,2" d="M689.77,-264.48C700.68,-272.77 714.92,-282.42 729,-288.5 746.96,-296.26 767.4,-301.9 786.38,-305.94"/>
<polygon fill="#9a32cd" stroke="#9a32cd" points="691.83,-261.64 681.81,-258.21 687.5,-267.14 691.83,-261.64"/>
<text text-anchor="middle" x="737.5" y="-298.5" font-family="Helvetica,sans-Serif" font-size="10.00"> ptr</text>
</g>
<!-- Node17 -->
<g id="node17" class="node">
<title>Node17</title>
<g id="a_node17"><a xlink:title=" ">
<polygon fill="white" stroke="#bfbfbf" points="767.5,-111 767.5,-130 938.5,-130 938.5,-111 767.5,-111"/>
<text text-anchor="middle" x="853" y="-118" font-family="Helvetica,sans-Serif" font-size="10.00">std::weak_ptr&lt; GameChange &gt;</text>
</a>
</g>
</g>
<!-- Node12&#45;&gt;Node17 -->
<g id="edge17" class="edge">
<title>Node12&#45;&gt;Node17</title>
<path fill="none" stroke="#9a32cd" stroke-dasharray="5,2" d="M683.64,-230.78C700.23,-209.52 730.66,-174.04 764,-152.5 779.29,-142.62 798.05,-135.26 814.31,-130.1"/>
<polygon fill="#9a32cd" stroke="#9a32cd" points="680.69,-228.87 677.41,-238.94 686.26,-233.12 680.69,-228.87"/>
<text text-anchor="middle" x="737.5" y="-183.5" font-family="Helvetica,sans-Serif" font-size="10.00"> ptr</text>
</g>
<!-- Node13 -->
<g id="node13" class="node">
<title>Node13</title>
<g id="a_node13"><a xlink:title=" ">
<polygon fill="white" stroke="#bfbfbf" points="401,-251.5 401,-281.5 558,-281.5 558,-251.5 401,-251.5"/>
<text text-anchor="start" x="409" y="-269.5" font-family="Helvetica,sans-Serif" font-size="10.00">std::enable_shared</text>
<text text-anchor="middle" x="479.5" y="-258.5" font-family="Helvetica,sans-Serif" font-size="10.00">_from_this&lt; GameChange &gt;</text>
</a>
</g>
</g>
<!-- Node13&#45;&gt;Node12 -->
<g id="edge12" class="edge">
<title>Node13&#45;&gt;Node12</title>
<path fill="none" stroke="midnightblue" d="M568.23,-258.1C589.08,-256.1 610.34,-254.07 627.89,-252.39"/>
<polygon fill="midnightblue" stroke="midnightblue" points="567.67,-254.64 558.05,-259.07 568.34,-261.61 567.67,-254.64"/>
</g>
<!-- Node14 -->
<g id="node14" class="node">
<title>Node14</title>
<g id="a_node14"><a xlink:title=" ">
<polygon fill="white" stroke="#bfbfbf" points="1259,-54 1259,-73 1393,-73 1393,-54 1259,-54"/>
<text text-anchor="middle" x="1326" y="-61" font-family="Helvetica,sans-Serif" font-size="10.00">std::shared_ptr&lt; Field &gt;</text>
</a>
</g>
</g>
<!-- Node14&#45;&gt;Node12 -->
<g id="edge13" class="edge">
<title>Node14&#45;&gt;Node12</title>
<path fill="none" stroke="#9a32cd" stroke-dasharray="5,2" d="M1272.96,-51.98C1167.76,-31.72 926.09,-0.77 764,-101.5 710.31,-134.87 681.97,-211.73 673.37,-238.83"/>
<polygon fill="#9a32cd" stroke="#9a32cd" points="1272.51,-55.46 1283,-53.97 1273.87,-48.6 1272.51,-55.46"/>
<text text-anchor="middle" x="995.5" y="-40.5" font-family="Helvetica,sans-Serif" font-size="10.00"> affected_field</text>
</g>
<!-- Node20 -->
<g id="node20" class="node">
<title>Node20</title>
<g id="a_node20"><a xlink:title=" ">
<polygon fill="white" stroke="#bfbfbf" points="1490,-88 1490,-107 1615,-107 1615,-88 1490,-88"/>
<text text-anchor="middle" x="1552.5" y="-95" font-family="Helvetica,sans-Serif" font-size="10.00">std::set&lt; field_ptr_t &gt;</text>
</a>
</g>
</g>
<!-- Node14&#45;&gt;Node20 -->
<g id="edge22" class="edge">
<title>Node14&#45;&gt;Node20</title>
<path fill="none" stroke="#9a32cd" stroke-dasharray="5,2" d="M1399.92,-74.54C1428.97,-78.94 1462.03,-83.95 1489.85,-88.16"/>
<polygon fill="#9a32cd" stroke="#9a32cd" points="1400.25,-71.05 1389.83,-73.02 1399.2,-77.97 1400.25,-71.05"/>
<text text-anchor="middle" x="1435.5" y="-87.5" font-family="Helvetica,sans-Serif" font-size="10.00"> keys</text>
</g>
<!-- Node27 -->
<g id="node27" class="node">
<title>Node27</title>
<g id="a_node27"><a xlink:title=" ">
<polygon fill="white" stroke="#bfbfbf" points="1478,-0.5 1478,-30.5 1627,-30.5 1627,-0.5 1478,-0.5"/>
<text text-anchor="start" x="1486" y="-18.5" font-family="Helvetica,sans-Serif" font-size="10.00">std::map&lt; pos_type,</text>
<text text-anchor="middle" x="1552.5" y="-7.5" font-family="Helvetica,sans-Serif" font-size="10.00"> std::shared_ptr&lt; Field &gt; &gt;</text>
</a>
</g>
</g>
<!-- Node14&#45;&gt;Node27 -->
<g id="edge32" class="edge">
<title>Node14&#45;&gt;Node27</title>
<path fill="none" stroke="#9a32cd" stroke-dasharray="5,2" d="M1356.15,-49.81C1372.03,-42.93 1392.22,-35.1 1411,-30.5 1432.44,-25.24 1456.17,-21.83 1477.93,-19.61"/>
<polygon fill="#9a32cd" stroke="#9a32cd" points="1354.59,-46.68 1346.87,-53.94 1357.43,-53.07 1354.59,-46.68"/>
<text text-anchor="middle" x="1435.5" y="-33.5" font-family="Helvetica,sans-Serif" font-size="10.00"> elements</text>
</g>
<!-- Node30 -->
<g id="node30" class="node">
<title>Node30</title>
<g id="a_node30"><a xlink:title=" ">
<polygon fill="white" stroke="#bfbfbf" points="1645,-43 1645,-84 1760,-84 1760,-43 1645,-43"/>
<text text-anchor="start" x="1653" y="-72" font-family="Helvetica,sans-Serif" font-size="10.00">std::map&lt; unsigned</text>
<text text-anchor="start" x="1653" y="-61" font-family="Helvetica,sans-Serif" font-size="10.00"> int, std::shared_ptr</text>
<text text-anchor="middle" x="1702.5" y="-50" font-family="Helvetica,sans-Serif" font-size="10.00">&lt; Field &gt; &gt;</text>
</a>
</g>
</g>
<!-- Node14&#45;&gt;Node30 -->
<g id="edge40" class="edge">
<title>Node14&#45;&gt;Node30</title>
<path fill="none" stroke="#9a32cd" stroke-dasharray="5,2" d="M1403.23,-62.55C1405.85,-62.53 1408.45,-62.52 1411,-62.5 1492.32,-62.02 1586.46,-62.54 1644.99,-62.99"/>
<polygon fill="#9a32cd" stroke="#9a32cd" points="1403,-59.05 1393.03,-62.64 1403.06,-66.05 1403,-59.05"/>
<text text-anchor="middle" x="1435.5" y="-65.5" font-family="Helvetica,sans-Serif" font-size="10.00"> elements</text>
</g>
<!-- Node15 -->
<g id="node15" class="node">
<title>Node15</title>
<g id="a_node15"><a xlink:href="classField.html" target="_top" xlink:title="represents a Field in the game">
<polygon fill="white" stroke="black" points="1049,-130 1049,-149 1088,-149 1088,-130 1049,-130"/>
<text text-anchor="middle" x="1068.5" y="-137" font-family="Helvetica,sans-Serif" font-size="10.00">Field</text>
</a>
</g>
</g>
<!-- Node15&#45;&gt;Node14 -->
<g id="edge14" class="edge">
<title>Node15&#45;&gt;Node14</title>
<path fill="none" stroke="#9a32cd" stroke-dasharray="5,2" d="M1092.14,-124.85C1096.6,-122.43 1101.34,-120.18 1106,-118.5 1163.27,-97.89 1182.28,-111.52 1241,-95.5 1262.68,-89.58 1286.55,-80.2 1303.28,-73.12"/>
<polygon fill="#9a32cd" stroke="#9a32cd" points="1090.37,-121.83 1083.49,-129.89 1093.9,-127.87 1090.37,-121.83"/>
<text text-anchor="middle" x="1173.5" y="-121.5" font-family="Helvetica,sans-Serif" font-size="10.00"> ptr</text>
</g>
<!-- Node16 -->
<g id="node16" class="node">
<title>Node16</title>
<g id="a_node16"><a xlink:href="structpos__type.html" target="_top" xlink:title="simple position type for 2 dimensions. sortable">
<polygon fill="white" stroke="black" points="822.5,-162 822.5,-181 883.5,-181 883.5,-162 822.5,-162"/>
<text text-anchor="middle" x="853" y="-169" font-family="Helvetica,sans-Serif" font-size="10.00">pos_type</text>
</a>
</g>
</g>
<!-- Node16&#45;&gt;Node15 -->
<g id="edge15" class="edge">
<title>Node16&#45;&gt;Node15</title>
<path fill="none" stroke="#9a32cd" stroke-dasharray="5,2" d="M893.65,-165.56C939.85,-158.63 1014.24,-147.48 1048.78,-142.31"/>
<polygon fill="#9a32cd" stroke="#9a32cd" points="893.06,-162.11 883.69,-167.05 894.09,-169.03 893.06,-162.11"/>
<text text-anchor="middle" x="995.5" y="-158.5" font-family="Helvetica,sans-Serif" font-size="10.00"> position</text>
</g>
<!-- Node19 -->
<g id="node19" class="node">
<title>Node19</title>
<g id="a_node19"><a xlink:href="classDot.html" target="_top" xlink:title="Represents the center of the galaxy.">
<polygon fill="white" stroke="black" points="1778,-176 1778,-195 1812,-195 1812,-176 1778,-176"/>
<text text-anchor="middle" x="1795" y="-183" font-family="Helvetica,sans-Serif" font-size="10.00">Dot</text>
</a>
</g>
</g>
<!-- Node16&#45;&gt;Node19 -->
<g id="edge20" class="edge">
<title>Node16&#45;&gt;Node19</title>
<path fill="none" stroke="#9a32cd" stroke-dasharray="5,2" d="M893.64,-176.85C936.45,-182.16 1006.68,-189.5 1067.5,-189.5 1067.5,-189.5 1067.5,-189.5 1553.5,-189.5 1638.06,-189.5 1739.33,-187 1777.96,-185.95"/>
<polygon fill="#9a32cd" stroke="#9a32cd" points="894,-173.37 883.64,-175.58 893.12,-180.31 894,-173.37"/>
<text text-anchor="middle" x="1326" y="-192.5" font-family="Helvetica,sans-Serif" font-size="10.00"> position</text>
</g>
<!-- Node16&#45;&gt;Node27 -->
<g id="edge33" class="edge">
<title>Node16&#45;&gt;Node27</title>
<path fill="none" stroke="#9a32cd" stroke-dasharray="5,2" d="M890.59,-158.36C955.23,-135.17 1084.8,-88.86 1106,-82.5 1238.67,-42.7 1273.12,-31.69 1411,-18.5 1432.62,-16.43 1456.18,-15.44 1477.73,-15.02"/>
<polygon fill="#9a32cd" stroke="#9a32cd" points="889.04,-155.2 880.8,-161.87 891.4,-161.79 889.04,-155.2"/>
<text text-anchor="middle" x="1173.5" y="-85.5" font-family="Helvetica,sans-Serif" font-size="10.00"> keys</text>
</g>
<!-- Node29 -->
<g id="node29" class="node">
<title>Node29</title>
<g id="a_node29"><a xlink:title=" ">
<polygon fill="white" stroke="#bfbfbf" points="2099,-195.5 2099,-225.5 2242,-225.5 2242,-195.5 2099,-195.5"/>
<text text-anchor="start" x="2107" y="-213.5" font-family="Helvetica,sans-Serif" font-size="10.00">std::map&lt; pos_type,</text>
<text text-anchor="middle" x="2170.5" y="-202.5" font-family="Helvetica,sans-Serif" font-size="10.00"> std::shared_ptr&lt; Dot &gt; &gt;</text>
</a>
</g>
</g>
<!-- Node16&#45;&gt;Node29 -->
<g id="edge37" class="edge">
<title>Node16&#45;&gt;Node29</title>
<path fill="none" stroke="#9a32cd" stroke-dasharray="5,2" d="M891.64,-184.1C911.7,-190.23 936.92,-197 960,-200.5 999.13,-206.43 1009.44,-202.47 1049,-203.5 1485.81,-214.86 1595.06,-217.5 2032,-221.5 2053.78,-221.7 2059.26,-222.85 2081,-221.5 2086.72,-221.15 2092.63,-220.66 2098.56,-220.1"/>
<polygon fill="#9a32cd" stroke="#9a32cd" points="892.55,-180.72 881.96,-181.07 890.46,-187.4 892.55,-180.72"/>
<text text-anchor="middle" x="1552.5" y="-220.5" font-family="Helvetica,sans-Serif" font-size="10.00"> keys</text>
</g>
<!-- Node17&#45;&gt;Node15 -->
<g id="edge16" class="edge">
<title>Node17&#45;&gt;Node15</title>
<path fill="none" stroke="#9a32cd" stroke-dasharray="5,2" d="M948.89,-112.2C975.75,-112.07 1004.8,-114.09 1031,-120.5 1038.63,-122.37 1046.45,-126.14 1052.87,-129.83"/>
<polygon fill="#9a32cd" stroke="#9a32cd" points="948.67,-108.7 938.72,-112.34 948.77,-115.7 948.67,-108.7"/>
<text text-anchor="middle" x="995.5" y="-123.5" font-family="Helvetica,sans-Serif" font-size="10.00"> last_change</text>
</g>
<!-- Node18 -->
<g id="node18" class="node">
<title>Node18</title>
<g id="a_node18"><a xlink:title=" ">
<polygon fill="white" stroke="#bfbfbf" points="1888.5,-143 1888.5,-162 2010.5,-162 2010.5,-143 1888.5,-143"/>
<text text-anchor="middle" x="1949.5" y="-150" font-family="Helvetica,sans-Serif" font-size="10.00">std::weak_ptr&lt; Dot &gt;</text>
</a>
</g>
</g>
<!-- Node18&#45;&gt;Node15 -->
<g id="edge18" class="edge">
<title>Node18&#45;&gt;Node15</title>
<path fill="none" stroke="#9a32cd" stroke-dasharray="5,2" d="M1878.34,-146.62C1852.48,-144.92 1822.93,-143.5 1796,-143.5 1325,-143.5 1325,-143.5 1325,-143.5 1236.27,-143.5 1130.24,-141.06 1088.09,-139.99"/>
<polygon fill="#9a32cd" stroke="#9a32cd" points="1878.21,-150.12 1888.43,-147.32 1878.69,-143.14 1878.21,-150.12"/>
<text text-anchor="middle" x="1552.5" y="-146.5" font-family="Helvetica,sans-Serif" font-size="10.00"> assigned_dot</text>
</g>
<!-- Node19&#45;&gt;Node18 -->
<g id="edge19" class="edge">
<title>Node19&#45;&gt;Node18</title>
<path fill="none" stroke="#9a32cd" stroke-dasharray="5,2" d="M1821.85,-177.62C1824.59,-176.87 1827.35,-176.15 1830,-175.5 1850.67,-170.47 1873.57,-165.81 1893.7,-162.02"/>
<polygon fill="#9a32cd" stroke="#9a32cd" points="1820.82,-174.28 1812.17,-180.4 1822.75,-181 1820.82,-174.28"/>
<text text-anchor="middle" x="1848.5" y="-178.5" font-family="Helvetica,sans-Serif" font-size="10.00"> ptr</text>
</g>
<!-- Node21 -->
<g id="node21" class="node">
<title>Node21</title>
<g id="a_node21"><a xlink:title=" ">
<polygon fill="white" stroke="#bfbfbf" points="1885,-189 1885,-208 2014,-208 2014,-189 1885,-189"/>
<text text-anchor="middle" x="1949.5" y="-196" font-family="Helvetica,sans-Serif" font-size="10.00">std::shared_ptr&lt; Dot &gt;</text>
</a>
</g>
</g>
<!-- Node19&#45;&gt;Node21 -->
<g id="edge24" class="edge">
<title>Node19&#45;&gt;Node21</title>
<path fill="none" stroke="#9a32cd" stroke-dasharray="5,2" d="M1822.48,-187.85C1825.02,-188.07 1827.56,-188.29 1830,-188.5 1847.79,-190.04 1867.09,-191.68 1884.85,-193.17"/>
<polygon fill="#9a32cd" stroke="#9a32cd" points="1822.52,-184.34 1812.26,-186.95 1821.91,-191.31 1822.52,-184.34"/>
<text text-anchor="middle" x="1848.5" y="-195.5" font-family="Helvetica,sans-Serif" font-size="10.00"> ptr</text>
</g>
<!-- Node20&#45;&gt;Node19 -->
<g id="edge21" class="edge">
<title>Node20&#45;&gt;Node19</title>
<path fill="none" stroke="#9a32cd" stroke-dasharray="5,2" d="M1602.07,-109.71C1644.72,-121.25 1707.91,-140.39 1760,-164.5 1766.93,-167.71 1774.18,-172.03 1780.2,-175.93"/>
<polygon fill="#9a32cd" stroke="#9a32cd" points="1602.78,-106.28 1592.22,-107.08 1600.98,-113.04 1602.78,-106.28"/>
<text text-anchor="middle" x="1702.5" y="-167.5" font-family="Helvetica,sans-Serif" font-size="10.00"> fields</text>
</g>
<!-- Node21&#45;&gt;Node12 -->
<g id="edge23" class="edge">
<title>Node21&#45;&gt;Node12</title>
<path fill="none" stroke="#9a32cd" stroke-dasharray="5,2" d="M1930.04,-214.78C1902.75,-237.11 1849.12,-274.5 1796,-274.5 852,-274.5 852,-274.5 852,-274.5 803.3,-274.5 747.98,-265.21 711.35,-257.74"/>
<polygon fill="#9a32cd" stroke="#9a32cd" points="1932.55,-217.24 1937.94,-208.13 1928.04,-211.89 1932.55,-217.24"/>
<text text-anchor="middle" x="1326" y="-288.5" font-family="Helvetica,sans-Serif" font-size="10.00"> old_assoziation</text>
<text text-anchor="middle" x="1326" y="-277.5" font-family="Helvetica,sans-Serif" font-size="10.00">new_assoziation</text>
</g>
<!-- Node28 -->
<g id="node28" class="node">
<title>Node28</title>
<g id="a_node28"><a xlink:title=" ">
<polygon fill="white" stroke="#bfbfbf" points="2113,-135 2113,-176 2228,-176 2228,-135 2113,-135"/>
<text text-anchor="start" x="2121" y="-164" font-family="Helvetica,sans-Serif" font-size="10.00">std::map&lt; unsigned</text>
<text text-anchor="start" x="2121" y="-153" font-family="Helvetica,sans-Serif" font-size="10.00"> int, std::shared_ptr</text>
<text text-anchor="middle" x="2170.5" y="-142" font-family="Helvetica,sans-Serif" font-size="10.00">&lt; Dot &gt; &gt;</text>
</a>
</g>
</g>
<!-- Node21&#45;&gt;Node28 -->
<g id="edge35" class="edge">
<title>Node21&#45;&gt;Node28</title>
<path fill="none" stroke="#9a32cd" stroke-dasharray="5,2" d="M2009.26,-186.96C2041.43,-180.65 2081.09,-172.86 2112.9,-166.61"/>
<polygon fill="#9a32cd" stroke="#9a32cd" points="2008.24,-183.6 1999.1,-188.96 2009.59,-190.46 2008.24,-183.6"/>
<text text-anchor="middle" x="2056.5" y="-185.5" font-family="Helvetica,sans-Serif" font-size="10.00"> elements</text>
</g>
<!-- Node21&#45;&gt;Node29 -->
<g id="edge38" class="edge">
<title>Node21&#45;&gt;Node29</title>
<path fill="none" stroke="#9a32cd" stroke-dasharray="5,2" d="M2024.27,-202.54C2048.33,-203.86 2074.96,-205.32 2098.79,-206.63"/>
<polygon fill="#9a32cd" stroke="#9a32cd" points="2024.31,-199.04 2014.14,-201.99 2023.93,-206.03 2024.31,-199.04"/>
<text text-anchor="middle" x="2056.5" y="-209.5" font-family="Helvetica,sans-Serif" font-size="10.00"> elements</text>
</g>
<!-- Node22 -->
<g id="node22" class="node">
<title>Node22</title>
<g id="a_node22"><a xlink:title=" ">
<polygon fill="white" stroke="#bfbfbf" points="411.5,-213 411.5,-232 547.5,-232 547.5,-213 411.5,-213"/>
<text text-anchor="middle" x="479.5" y="-220" font-family="Helvetica,sans-Serif" font-size="10.00">std::weak_ptr&lt; Player &gt;</text>
</a>
</g>
</g>
<!-- Node22&#45;&gt;Node12 -->
<g id="edge25" class="edge">
<title>Node22&#45;&gt;Node12</title>
<path fill="none" stroke="#9a32cd" stroke-dasharray="5,2" d="M557.76,-232.36C574.96,-234.63 593.11,-237.09 610,-239.5 615.8,-240.33 621.92,-241.23 627.92,-242.14"/>
<polygon fill="#9a32cd" stroke="#9a32cd" points="558.12,-228.88 547.75,-231.04 557.21,-235.82 558.12,-228.88"/>
<text text-anchor="middle" x="593" y="-242.5" font-family="Helvetica,sans-Serif" font-size="10.00"> player</text>
</g>
<!-- Node23 -->
<g id="node23" class="node">
<title>Node23</title>
<g id="a_node23"><a xlink:href="classPlayer.html" target="_top" xlink:title="represents a individual player/client">
<polygon fill="white" stroke="black" points="301,-213 301,-232 348,-232 348,-213 301,-213"/>
<text text-anchor="middle" x="324.5" y="-220" font-family="Helvetica,sans-Serif" font-size="10.00">Player</text>
</a>
</g>
</g>
<!-- Node23&#45;&gt;Node22 -->
<g id="edge26" class="edge">
<title>Node23&#45;&gt;Node22</title>
<path fill="none" stroke="#9a32cd" stroke-dasharray="5,2" d="M358.21,-222.5C373.77,-222.5 392.97,-222.5 411.43,-222.5"/>
<polygon fill="#9a32cd" stroke="#9a32cd" points="358.08,-219 348.08,-222.5 358.08,-226 358.08,-219"/>
<text text-anchor="middle" x="374.5" y="-225.5" font-family="Helvetica,sans-Serif" font-size="10.00"> ptr</text>
</g>
<!-- Node24 -->
<g id="node24" class="node">
<title>Node24</title>
<g id="a_node24"><a xlink:title="STL class.">
<polygon fill="white" stroke="#bfbfbf" points="141,-213 141,-232 206,-232 206,-213 141,-213"/>
<text text-anchor="middle" x="173.5" y="-220" font-family="Helvetica,sans-Serif" font-size="10.00">std::string</text>
</a>
</g>
</g>
<!-- Node24&#45;&gt;Node23 -->
<g id="edge27" class="edge">
<title>Node24&#45;&gt;Node23</title>
<path fill="none" stroke="#9a32cd" stroke-dasharray="5,2" d="M216.18,-222.5C243.54,-222.5 278.27,-222.5 300.69,-222.5"/>
<polygon fill="#9a32cd" stroke="#9a32cd" points="216.1,-219 206.1,-222.5 216.1,-226 216.1,-219"/>
<text text-anchor="middle" x="253.5" y="-236.5" font-family="Helvetica,sans-Serif" font-size="10.00"> passphrase</text>
<text text-anchor="middle" x="253.5" y="-225.5" font-family="Helvetica,sans-Serif" font-size="10.00">name</text>
</g>
<!-- Node25 -->
<g id="node25" class="node">
<title>Node25</title>
<g id="a_node25"><a xlink:title="STL class.">
<polygon fill="white" stroke="#bfbfbf" points="0,-207.5 0,-237.5 104,-237.5 104,-207.5 0,-207.5"/>
<text text-anchor="start" x="8" y="-225.5" font-family="Helvetica,sans-Serif" font-size="10.00">std::basic_string&lt;</text>
<text text-anchor="middle" x="52" y="-214.5" font-family="Helvetica,sans-Serif" font-size="10.00"> char &gt;</text>
</a>
</g>
</g>
<!-- Node25&#45;&gt;Node24 -->
<g id="edge28" class="edge">
<title>Node25&#45;&gt;Node24</title>
<path fill="none" stroke="midnightblue" d="M114.1,-222.5C123.41,-222.5 132.68,-222.5 141,-222.5"/>
<polygon fill="midnightblue" stroke="midnightblue" points="114.03,-219 104.03,-222.5 114.03,-226 114.03,-219"/>
</g>
<!-- Node26 -->
<g id="node26" class="node">
<title>Node26</title>
<g id="a_node26"><a xlink:href="classGameState.html" target="_top" xlink:title="Represents the current state of the game.">
<polygon fill="white" stroke="black" points="2404.5,-146 2404.5,-165 2475.5,-165 2475.5,-146 2404.5,-146"/>
<text text-anchor="middle" x="2440" y="-153" font-family="Helvetica,sans-Serif" font-size="10.00">GameState</text>
</a>
</g>
</g>
<!-- Node26&#45;&gt;Node6 -->
<g id="edge30" class="edge">
<title>Node26&#45;&gt;Node6</title>
<path fill="none" stroke="#9a32cd" stroke-dasharray="5,2" d="M2462.25,-171.32C2494.9,-196.27 2558.29,-247.29 2603,-299.5 2618.78,-317.93 2633.16,-342.64 2640.46,-355.98"/>
<polygon fill="#9a32cd" stroke="#9a32cd" points="2464.36,-168.53 2454.27,-165.28 2460.13,-174.11 2464.36,-168.53"/>
<text text-anchor="middle" x="2569" y="-302.5" font-family="Helvetica,sans-Serif" font-size="10.00"> current_state</text>
</g>
<!-- Node27&#45;&gt;Node26 -->
<g id="edge31" class="edge">
<title>Node27&#45;&gt;Node26</title>
<path fill="none" stroke="#9a32cd" stroke-dasharray="5,2" d="M1637.43,-19.14C1683.62,-20.84 1741.96,-22.5 1794,-22.5 1794,-22.5 1794,-22.5 2171.5,-22.5 2282.49,-22.5 2394.85,-115.44 2428.72,-145.93"/>
<polygon fill="#9a32cd" stroke="#9a32cd" points="1637.29,-15.63 1627.16,-18.75 1637.03,-22.63 1637.29,-15.63"/>
<text text-anchor="middle" x="1949.5" y="-25.5" font-family="Helvetica,sans-Serif" font-size="10.00"> fields</text>
</g>
<!-- Node28&#45;&gt;Node26 -->
<g id="edge34" class="edge">
<title>Node28&#45;&gt;Node26</title>
<path fill="none" stroke="#9a32cd" stroke-dasharray="5,2" d="M2238.51,-155.5C2291.24,-155.5 2362.58,-155.5 2404.41,-155.5"/>
<polygon fill="#9a32cd" stroke="#9a32cd" points="2238.23,-152 2228.23,-155.5 2238.23,-159 2238.23,-152"/>
<text text-anchor="middle" x="2302.5" y="-158.5" font-family="Helvetica,sans-Serif" font-size="10.00"> dots_by_id</text>
</g>
<!-- Node29&#45;&gt;Node26 -->
<g id="edge36" class="edge">
<title>Node29&#45;&gt;Node26</title>
<path fill="none" stroke="#9a32cd" stroke-dasharray="5,2" d="M2252.13,-193.92C2302.97,-183.47 2366.04,-170.5 2404.37,-162.62"/>
<polygon fill="#9a32cd" stroke="#9a32cd" points="2251.22,-190.54 2242.13,-195.98 2252.63,-197.39 2251.22,-190.54"/>
<text text-anchor="middle" x="2302.5" y="-194.5" font-family="Helvetica,sans-Serif" font-size="10.00"> dots</text>
</g>
<!-- Node30&#45;&gt;Node26 -->
<g id="edge39" class="edge">
<title>Node30&#45;&gt;Node26</title>
<path fill="none" stroke="#9a32cd" stroke-dasharray="5,2" d="M1770.44,-78.03C1794.6,-82.13 1822.16,-85.5 1847.5,-85.5 1847.5,-85.5 1847.5,-85.5 2171.5,-85.5 2265.83,-85.5 2372.95,-126.74 2417.65,-145.91"/>
<polygon fill="#9a32cd" stroke="#9a32cd" points="1770.77,-74.53 1760.31,-76.23 1769.54,-81.42 1770.77,-74.53"/>
<text text-anchor="middle" x="1949.5" y="-88.5" font-family="Helvetica,sans-Serif" font-size="10.00"> fields_by_id</text>
</g>
</g>
</svg>
        <g id="navigator" transform="translate(0 0)" fill="#404254">
                <rect fill="#f2f5e9" fill-opacity="0.5" stroke="#606060" stroke-width=".5" x="0" y="0" width="60" height="60"/>
                <use id="zoomplus" xlink:href="#zoomPlus" x="17" y="9" onmousedown="handleZoom(evt,'in')"/>
                <use id="zoomminus" xlink:href="#zoomMin" x="42" y="9" onmousedown="handleZoom(evt,'out')"/>
                <use id="reset" xlink:href="#resetDef" x="30" y="36" onmousedown="handleReset()"/>
                <g id="arrowUp" xlink:href="#dirArrow" transform="translate(30 24)" onmousedown="handlePan(0,-1)">
                  <use xlink:href="#rim" fill="#404040">
                        <set attributeName="fill" to="#808080" begin="arrowUp.mouseover" end="arrowUp.mouseout"/>
                  </use>
                  <path fill="none" stroke="white" stroke-width="1.5" d="M0,-3.0v7 M-2.5,-0.5L0,-3.0L2.5,-0.5"/>
                </g>
                <g id="arrowRight" xlink:href="#dirArrow" transform="rotate(90) translate(36 -43)" onmousedown="handlePan(1,0)">
                  <use xlink:href="#rim" fill="#404040">
                        <set attributeName="fill" to="#808080" begin="arrowRight.mouseover" end="arrowRight.mouseout"/>
                  </use>
                  <path fill="none" stroke="white" stroke-width="1.5" d="M0,-3.0v7 M-2.5,-0.5L0,-3.0L2.5,-0.5"/>
                </g>
                <g id="arrowDown" xlink:href="#dirArrow" transform="rotate(180) translate(-30 -48)" onmousedown="handlePan(0,1)">
                  <use xlink:href="#rim" fill="#404040">
                        <set attributeName="fill" to="#808080" begin="arrowDown.mouseover" end="arrowDown.mouseout"/>
                  </use>
                  <path fill="none" stroke="white" stroke-width="1.5" d="M0,-3.0v7 M-2.5,-0.5L0,-3.0L2.5,-0.5"/>
                </g>
                <g id="arrowLeft" xlink:href="#dirArrow" transform="rotate(270) translate(-36 17)" onmousedown="handlePan(-1,0)">
                  <use xlink:href="#rim" fill="#404040">
                        <set attributeName="fill" to="#808080" begin="arrowLeft.mouseover" end="arrowLeft.mouseout"/>
                  </use>
                  <path fill="none" stroke="white" stroke-width="1.5" d="M0,-3.0v7 M-2.5,-0.5L0,-3.0L2.5,-0.5"/>
                </g>
        </g>
        <svg viewBox="0 0 15 15" width="100%" height="30px" preserveAspectRatio="xMaxYMin meet">
         <g id="arrow_out" transform="scale(0.3 0.3)">
          <a xlink:href="classNetwork__coll__graph_org.svg" target="_base">
           <rect id="button" ry="5" rx="5" y="6" x="6" height="38" width="38"
                fill="#f2f5e9" fill-opacity="0.5" stroke="#606060" stroke-width="1.0"/>
           <path id="arrow"
             d="M 11.500037,31.436501 C 11.940474,20.09759 22.043105,11.32322 32.158766,21.979434 L 37.068811,17.246167 C 37.068811,17.246167 37.088388,32 37.088388,32 L 22.160133,31.978069 C 22.160133,31.978069 26.997745,27.140456 26.997745,27.140456 C 18.528582,18.264221 13.291696,25.230495 11.500037,31.436501 z"
             style="fill:#404040;"/>
          </a>
         </g>
        </svg>
</svg>
