<?xml version="1.0" encoding="UTF-8" standalone="no"?>
<!DOCTYPE svg PUBLIC "-//W3C//DTD SVG 1.1//EN"
 "http://www.w3.org/Graphics/SVG/1.1/DTD/svg11.dtd">
<!-- Generated by graphviz version 2.42.3 (0)
 -->
<!-- Title: Network::run Pages: 1 -->
<svg width="789pt" height="170pt"
 viewBox="0.00 0.00 789.00 169.98" xmlns="http://www.w3.org/2000/svg" xmlns:xlink="http://www.w3.org/1999/xlink">
<g id="graph0" class="graph" transform="scale(1 1) rotate(0) translate(4 165.98)">
<title>Network::run</title>
<polygon fill="white" stroke="transparent" points="-4,4 -4,-165.98 785,-165.98 785,4 -4,4"/>
<!-- Node1 -->
<g id="node1" class="node">
<title>Node1</title>
<g id="a_node1"><a xlink:title=" ">
<polygon fill="#bfbfbf" stroke="black" points="0,-76.5 0,-95.5 80,-95.5 80,-76.5 0,-76.5"/>
<text text-anchor="middle" x="40" y="-83.5" font-family="Helvetica,sans-Serif" font-size="10.00">Network::run</text>
</a>
</g>
</g>
<!-- Node2 -->
<g id="node2" class="node">
<title>Node2</title>
<g id="a_node2"><a xlink:href="classNetwork.html#a356c8c0ec32e2795bd754b067838fd89" target="_top" xlink:title=" ">
<polygon fill="white" stroke="black" points="116,-76.5 116,-95.5 266,-95.5 266,-76.5 116,-76.5"/>
<text text-anchor="middle" x="191" y="-83.5" font-family="Helvetica,sans-Serif" font-size="10.00">Network::processMessages</text>
</a>
</g>
</g>
<!-- Node1&#45;&gt;Node2 -->
<g id="edge1" class="edge">
<title>Node1&#45;&gt;Node2</title>
<path fill="none" stroke="midnightblue" d="M80.15,-86C88.17,-86 96.9,-86 105.82,-86"/>
<polygon fill="midnightblue" stroke="midnightblue" points="105.94,-89.5 115.94,-86 105.94,-82.5 105.94,-89.5"/>
</g>
<!-- Node3 -->
<g id="node3" class="node">
<title>Node3</title>
<g id="a_node3"><a xlink:href="classGalaxy.html#a60e26c21a827518c37d85d8d7bd8e1b5" target="_top" xlink:title=" ">
<polygon fill="white" stroke="black" points="316,-114.5 316,-133.5 434,-133.5 434,-114.5 316,-114.5"/>
<text text-anchor="middle" x="375" y="-121.5" font-family="Helvetica,sans-Serif" font-size="10.00">Galaxy::deletePlayer</text>
</a>
</g>
</g>
<!-- Node2&#45;&gt;Node3 -->
<g id="edge2" class="edge">
<title>Node2&#45;&gt;Node3</title>
<path fill="none" stroke="midnightblue" d="M237.93,-95.59C262.38,-100.69 292.63,-107.01 318.4,-112.39"/>
<polygon fill="midnightblue" stroke="midnightblue" points="317.9,-115.86 328.4,-114.48 319.33,-109.01 317.9,-115.86"/>
</g>
<!-- Node4 -->
<g id="node4" class="node">
<title>Node4</title>
<g id="a_node4"><a xlink:href="classGalaxy.html#a13dbcec35a2b7615acb153d7ca33bce3" target="_top" xlink:title=" ">
<polygon fill="white" stroke="black" points="302,-76.5 302,-95.5 448,-95.5 448,-76.5 302,-76.5"/>
<text text-anchor="middle" x="375" y="-83.5" font-family="Helvetica,sans-Serif" font-size="10.00">Galaxy::executeCommand</text>
</a>
</g>
</g>
<!-- Node2&#45;&gt;Node4 -->
<g id="edge3" class="edge">
<title>Node2&#45;&gt;Node4</title>
<path fill="none" stroke="midnightblue" d="M266.03,-86C274.51,-86 283.21,-86 291.79,-86"/>
<polygon fill="midnightblue" stroke="midnightblue" points="291.81,-89.5 301.81,-86 291.81,-82.5 291.81,-89.5"/>
</g>
<!-- Node13 -->
<g id="node13" class="node">
<title>Node13</title>
<g id="a_node13"><a xlink:href="classGalaxy.html#ab70919238d14bc1c16435f477966e159" target="_top" xlink:title=" ">
<polygon fill="white" stroke="black" points="302,-38.5 302,-57.5 448,-57.5 448,-38.5 302,-38.5"/>
<text text-anchor="middle" x="375" y="-45.5" font-family="Helvetica,sans-Serif" font-size="10.00">Galaxy::registerNewPlayer</text>
</a>
</g>
</g>
<!-- Node2&#45;&gt;Node13 -->
<g id="edge13" class="edge">
<title>Node2&#45;&gt;Node13</title>
<path fill="none" stroke="midnightblue" d="M237.93,-76.41C262.38,-71.31 292.63,-64.99 318.4,-59.61"/>
<polygon fill="midnightblue" stroke="midnightblue" points="319.33,-62.99 328.4,-57.52 317.9,-56.14 319.33,-62.99"/>
</g>
<!-- Node5 -->
<g id="node5" class="node">
<title>Node5</title>
<g id="a_node5"><a xlink:href="classNetwork.html#a57f3c2d8b53d214d26822a52b899d69f" target="_top" xlink:title=" ">
<polygon fill="white" stroke="black" points="669,-133.5 669,-152.5 781,-152.5 781,-133.5 669,-133.5"/>
<text text-anchor="middle" x="725" y="-140.5" font-family="Helvetica,sans-Serif" font-size="10.00">Network::broadcast</text>
</a>
</g>
</g>
<!-- Node4&#45;&gt;Node5 -->
<g id="edge4" class="edge">
<title>Node4&#45;&gt;Node5</title>
<path fill="none" stroke="midnightblue" d="M426.63,-95.53C434.08,-98 441.44,-101.11 448,-105 468.01,-116.87 462.63,-133.81 484,-143 544.7,-169.11 622.29,-162.87 672.55,-154.34"/>
<polygon fill="midnightblue" stroke="midnightblue" points="673.31,-157.76 682.54,-152.56 672.08,-150.87 673.31,-157.76"/>
</g>
<!-- Node6 -->
<g id="node6" class="node">
<title>Node6</title>
<g id="a_node6"><a xlink:href="classGalaxy.html#a92134e9c556eca12536abf89edbff577" target="_top" xlink:title=" ">
<polygon fill="white" stroke="black" points="484,-114.5 484,-133.5 633,-133.5 633,-114.5 484,-114.5"/>
<text text-anchor="middle" x="558.5" y="-121.5" font-family="Helvetica,sans-Serif" font-size="10.00">Galaxy::makeGameChange</text>
</a>
</g>
</g>
<!-- Node4&#45;&gt;Node6 -->
<g id="edge5" class="edge">
<title>Node4&#45;&gt;Node6</title>
<path fill="none" stroke="midnightblue" d="M421.8,-95.59C446.18,-100.69 476.36,-107.01 502.06,-112.39"/>
<polygon fill="midnightblue" stroke="midnightblue" points="501.52,-115.86 512.03,-114.48 502.96,-109 501.52,-115.86"/>
</g>
<!-- Node7 -->
<g id="node7" class="node">
<title>Node7</title>
<g id="a_node7"><a xlink:href="classNetwork.html#ad25ed6c4d5a404ed6ca66ecec14b569a" target="_top" xlink:title=" ">
<polygon fill="white" stroke="black" points="515,-76.5 515,-95.5 602,-95.5 602,-76.5 515,-76.5"/>
<text text-anchor="middle" x="558.5" y="-83.5" font-family="Helvetica,sans-Serif" font-size="10.00">Network::send</text>
</a>
</g>
</g>
<!-- Node4&#45;&gt;Node7 -->
<g id="edge7" class="edge">
<title>Node4&#45;&gt;Node7</title>
<path fill="none" stroke="midnightblue" d="M448.26,-86C467.1,-86 487.05,-86 504.67,-86"/>
<polygon fill="midnightblue" stroke="midnightblue" points="504.76,-89.5 514.76,-86 504.76,-82.5 504.76,-89.5"/>
</g>
<!-- Node8 -->
<g id="node8" class="node">
<title>Node8</title>
<g id="a_node8"><a xlink:href="classGalaxy.html#a58d3ec1dd980cd3adfc1eeb83c41f8e4" target="_top" xlink:title=" ">
<polygon fill="white" stroke="black" points="520,-38.5 520,-57.5 597,-57.5 597,-38.5 520,-38.5"/>
<text text-anchor="middle" x="558.5" y="-45.5" font-family="Helvetica,sans-Serif" font-size="10.00">Galaxy::stop</text>
</a>
</g>
</g>
<!-- Node4&#45;&gt;Node8 -->
<g id="edge8" class="edge">
<title>Node4&#45;&gt;Node8</title>
<path fill="none" stroke="midnightblue" d="M421.8,-76.41C448.71,-70.78 482.68,-63.67 509.9,-57.97"/>
<polygon fill="midnightblue" stroke="midnightblue" points="510.9,-61.33 519.97,-55.86 509.46,-54.48 510.9,-61.33"/>
</g>
<!-- Node11 -->
<g id="node11" class="node">
<title>Node11</title>
<g id="a_node11"><a xlink:href="classGalaxy.html#ad74f8049b46bdd7c1aafbc0225eaaae1" target="_top" xlink:title=" ">
<polygon fill="white" stroke="black" points="515.5,-0.5 515.5,-19.5 601.5,-19.5 601.5,-0.5 515.5,-0.5"/>
<text text-anchor="middle" x="558.5" y="-7.5" font-family="Helvetica,sans-Serif" font-size="10.00">Galaxy::toJson</text>
</a>
</g>
</g>
<!-- Node4&#45;&gt;Node11 -->
<g id="edge11" class="edge">
<title>Node4&#45;&gt;Node11</title>
<path fill="none" stroke="midnightblue" d="M426.63,-76.47C434.08,-74 441.44,-70.89 448,-67 468.01,-55.13 463.96,-40.81 484,-29 490.71,-25.05 498.23,-21.91 505.84,-19.41"/>
<polygon fill="midnightblue" stroke="midnightblue" points="506.85,-22.76 515.46,-16.59 504.88,-16.05 506.85,-22.76"/>
</g>
<!-- Node6&#45;&gt;Node5 -->
<g id="edge6" class="edge">
<title>Node6&#45;&gt;Node5</title>
<path fill="none" stroke="midnightblue" d="M633.09,-132.5C641.6,-133.48 650.24,-134.48 658.64,-135.45"/>
<polygon fill="midnightblue" stroke="midnightblue" points="658.39,-138.95 668.73,-136.62 659.2,-131.99 658.39,-138.95"/>
</g>
<!-- Node9 -->
<g id="node9" class="node">
<title>Node9</title>
<g id="a_node9"><a xlink:href="classNetwork.html#a14eee72429fc77613fb20692b2101836" target="_top" xlink:title=" ">
<polygon fill="white" stroke="black" points="671,-76.5 671,-95.5 779,-95.5 779,-76.5 671,-76.5"/>
<text text-anchor="middle" x="725" y="-83.5" font-family="Helvetica,sans-Serif" font-size="10.00">Network::closeCon</text>
</a>
</g>
</g>
<!-- Node8&#45;&gt;Node9 -->
<g id="edge9" class="edge">
<title>Node8&#45;&gt;Node9</title>
<path fill="none" stroke="midnightblue" d="M597.24,-56.72C619.67,-61.9 648.41,-68.54 672.85,-74.19"/>
<polygon fill="midnightblue" stroke="midnightblue" points="672.16,-77.62 682.69,-76.46 673.73,-70.8 672.16,-77.62"/>
</g>
<!-- Node10 -->
<g id="node10" class="node">
<title>Node10</title>
<g id="a_node10"><a xlink:href="classNetwork.html#a223d8aca05065fb5a5c80b119c077831" target="_top" xlink:title=" ">
<polygon fill="white" stroke="black" points="682.5,-38.5 682.5,-57.5 767.5,-57.5 767.5,-38.5 682.5,-38.5"/>
<text text-anchor="middle" x="725" y="-45.5" font-family="Helvetica,sans-Serif" font-size="10.00">Network::stop</text>
</a>
</g>
</g>
<!-- Node8&#45;&gt;Node10 -->
<g id="edge10" class="edge">
<title>Node8&#45;&gt;Node10</title>
<path fill="none" stroke="midnightblue" d="M597.24,-48C619.48,-48 647.94,-48 672.26,-48"/>
<polygon fill="midnightblue" stroke="midnightblue" points="672.39,-51.5 682.39,-48 672.39,-44.5 672.39,-51.5"/>
</g>
<!-- Node12 -->
<g id="node12" class="node">
<title>Node12</title>
<g id="a_node12"><a xlink:href="classGameState.html#a77597717c0d0b6d4e93c7f299cf3f315" target="_top" xlink:title=" ">
<polygon fill="white" stroke="black" points="671.5,-0.5 671.5,-19.5 778.5,-19.5 778.5,-0.5 671.5,-0.5"/>
<text text-anchor="middle" x="725" y="-7.5" font-family="Helvetica,sans-Serif" font-size="10.00">GameState::toJson</text>
</a>
</g>
</g>
<!-- Node11&#45;&gt;Node12 -->
<g id="edge12" class="edge">
<title>Node11&#45;&gt;Node12</title>
<path fill="none" stroke="midnightblue" d="M601.86,-10C619.94,-10 641.41,-10 661.27,-10"/>
<polygon fill="midnightblue" stroke="midnightblue" points="661.48,-13.5 671.48,-10 661.48,-6.5 661.48,-13.5"/>
</g>
</g>
</svg>
