<?xml version="1.0" encoding="UTF-8" standalone="no"?>
<!DOCTYPE svg PUBLIC "-//W3C//DTD SVG 1.1//EN"
 "http://www.w3.org/Graphics/SVG/1.1/DTD/svg11.dtd">
<!-- Generated by graphviz version 2.42.3 (0)
 -->
<!-- Title: Galaxy Pages: 1 -->
<!--zoomable 429 -->
<svg id="main" version="1.1" xmlns="http://www.w3.org/2000/svg" xmlns:xlink="http://www.w3.org/1999/xlink" xml:space="preserve" onload="init(evt)">
<style type="text/css"><![CDATA[
.edge:hover path { stroke: red; }
.edge:hover polygon { stroke: red; fill: red; }
]]></style>
<script type="text/javascript"><![CDATA[
var edges = document.getElementsByTagName('g');
if (edges && edges.length) {
  for (var i=0;i<edges.length;i++) {
    if (edges[i].id.substr(0,4)=='edge') {
      edges[i].setAttribute('class','edge');
    }
  }
}
]]></script>
        <defs>
                <circle id="rim" cx="0" cy="0" r="7"/>
                <circle id="rim2" cx="0" cy="0" r="3.5"/>
                <g id="zoomPlus">
                        <use xlink:href="#rim" fill="#404040">
                                <set attributeName="fill" to="#808080" begin="zoomplus.mouseover" end="zoomplus.mouseout"/>
                        </use>
                        <path d="M-4,0h8M0,-4v8" fill="none" stroke="white" stroke-width="1.5" pointer-events="none"/>
                </g>
                <g id="zoomMin">
                        <use xlink:href="#rim" fill="#404040">
                                <set attributeName="fill" to="#808080" begin="zoomminus.mouseover" end="zoomminus.mouseout"/>
                        </use>
                        <path d="M-4,0h8" fill="none" stroke="white" stroke-width="1.5" pointer-events="none"/>
                </g>
                <g id="dirArrow">
                        <path fill="none" stroke="white" stroke-width="1.5" d="M0,-3.0v7 M-2.5,-0.5L0,-3.0L2.5,-0.5"/>
                </g>
               <g id="resetDef">
                       <use xlink:href="#rim2" fill="#404040">
                               <set attributeName="fill" to="#808080" begin="reset.mouseover" end="reset.mouseout"/>
                       </use>
               </g>
        </defs>

<script type="text/javascript">
var viewWidth = 2891;
var viewHeight = 429;
var sectionId = 'dynsection-0';
</script>
<script xlink:href="svgpan.js"/>
<svg id="graph" class="graph">
<g id="viewport">
<title>Galaxy</title>
<polygon fill="white" stroke="transparent" points="-4,4 -4,-425 2887,-425 2887,4 -4,4"/>
<!-- Node1 -->
<g id="node1" class="node">
<title>Node1</title>
<g id="a_node1"><a xlink:title=" ">
<polygon fill="#bfbfbf" stroke="black" points="2607,-267.5 2607,-286.5 2658,-286.5 2658,-267.5 2607,-267.5"/>
<text text-anchor="middle" x="2632.5" y="-274.5" font-family="Helvetica,sans-Serif" font-size="10.00">Galaxy</text>
</a>
</g>
</g>
<!-- Node5 -->
<g id="node5" class="node">
<title>Node5</title>
<g id="a_node5"><a xlink:href="classNetwork.html" target="_top" xlink:title=" ">
<polygon fill="white" stroke="black" points="2825,-326.5 2825,-345.5 2883,-345.5 2883,-326.5 2825,-326.5"/>
<text text-anchor="middle" x="2854" y="-333.5" font-family="Helvetica,sans-Serif" font-size="10.00">Network</text>
</a>
</g>
</g>
<!-- Node1&#45;&gt;Node5 -->
<g id="edge9" class="edge">
<title>Node1&#45;&gt;Node5</title>
<path fill="none" stroke="#9a32cd" stroke-dasharray="5,2" d="M2668.38,-270.04C2704.86,-264.52 2762.85,-260.84 2807,-282 2826.55,-291.37 2840.96,-313.38 2848.06,-326.22"/>
<polygon fill="#9a32cd" stroke="#9a32cd" points="2667.54,-266.63 2658.24,-271.7 2668.67,-273.54 2667.54,-266.63"/>
<text text-anchor="middle" x="2764.5" y="-285" font-family="Helvetica,sans-Serif" font-size="10.00"> galaxy</text>
</g>
<!-- Node2 -->
<g id="node2" class="node">
<title>Node2</title>
<g id="a_node2"><a xlink:title=" ">
<polygon fill="white" stroke="#bfbfbf" points="2303,-256.5 2303,-297.5 2457,-297.5 2457,-256.5 2303,-256.5"/>
<text text-anchor="start" x="2311" y="-285.5" font-family="Helvetica,sans-Serif" font-size="10.00">std::map&lt; web_con,</text>
<text text-anchor="start" x="2311" y="-274.5" font-family="Helvetica,sans-Serif" font-size="10.00"> shared_player, std</text>
<text text-anchor="middle" x="2380" y="-263.5" font-family="Helvetica,sans-Serif" font-size="10.00">::owner_less&lt; web_con &gt; &gt;</text>
</a>
</g>
</g>
<!-- Node2&#45;&gt;Node1 -->
<g id="edge1" class="edge">
<title>Node2&#45;&gt;Node1</title>
<path fill="none" stroke="#9a32cd" stroke-dasharray="5,2" d="M2467.21,-277C2516.41,-277 2574.54,-277 2606.79,-277"/>
<polygon fill="#9a32cd" stroke="#9a32cd" points="2467.18,-273.5 2457.18,-277 2467.18,-280.5 2467.18,-273.5"/>
<text text-anchor="middle" x="2509" y="-280" font-family="Helvetica,sans-Serif" font-size="10.00"> players</text>
</g>
<!-- Node3 -->
<g id="node3" class="node">
<title>Node3</title>
<g id="a_node3"><a xlink:title="STL class.">
<polygon fill="white" stroke="#bfbfbf" points="2080.5,-267.5 2080.5,-286.5 2198.5,-286.5 2198.5,-267.5 2080.5,-267.5"/>
<text text-anchor="middle" x="2139.5" y="-274.5" font-family="Helvetica,sans-Serif" font-size="10.00">std::shared_ptr&lt; T &gt;</text>
</a>
</g>
</g>
<!-- Node3&#45;&gt;Node2 -->
<g id="edge2" class="edge">
<title>Node3&#45;&gt;Node2</title>
<path fill="none" stroke="#9a32cd" stroke-dasharray="5,2" d="M2208.68,-277C2238.01,-277 2272.42,-277 2302.6,-277"/>
<polygon fill="#9a32cd" stroke="#9a32cd" points="2208.54,-273.5 2198.54,-277 2208.54,-280.5 2208.54,-273.5"/>
<text text-anchor="middle" x="2257" y="-280" font-family="Helvetica,sans-Serif" font-size="10.00"> elements</text>
</g>
<!-- Node4 -->
<g id="node4" class="node">
<title>Node4</title>
<g id="a_node4"><a xlink:title=" ">
<polygon fill="white" stroke="#bfbfbf" points="1904,-267.5 1904,-286.5 1933,-286.5 1933,-267.5 1904,-267.5"/>
<text text-anchor="middle" x="1918.5" y="-274.5" font-family="Helvetica,sans-Serif" font-size="10.00">T</text>
</a>
</g>
</g>
<!-- Node4&#45;&gt;Node3 -->
<g id="edge3" class="edge">
<title>Node4&#45;&gt;Node3</title>
<path fill="none" stroke="#9a32cd" stroke-dasharray="5,2" d="M1943.58,-277C1976.27,-277 2035.74,-277 2080.43,-277"/>
<polygon fill="#9a32cd" stroke="#9a32cd" points="1943.2,-273.5 1933.2,-277 1943.2,-280.5 1943.2,-273.5"/>
<text text-anchor="middle" x="2025.5" y="-280" font-family="Helvetica,sans-Serif" font-size="10.00"> ptr</text>
</g>
<!-- Node5&#45;&gt;Node1 -->
<g id="edge4" class="edge">
<title>Node5&#45;&gt;Node1</title>
<path fill="none" stroke="#9a32cd" stroke-dasharray="5,2" d="M2817.26,-323.21C2813.8,-322.08 2810.34,-320.99 2807,-320 2754.5,-304.4 2691.92,-289.87 2658.11,-282.35"/>
<polygon fill="#9a32cd" stroke="#9a32cd" points="2816.27,-326.57 2826.86,-326.44 2818.5,-319.94 2816.27,-326.57"/>
<text text-anchor="middle" x="2764.5" y="-323" font-family="Helvetica,sans-Serif" font-size="10.00"> net</text>
</g>
<!-- Node6 -->
<g id="node6" class="node">
<title>Node6</title>
<g id="a_node6"><a xlink:title="STL class.">
<polygon fill="white" stroke="#bfbfbf" points="2598,-401.5 2598,-420.5 2667,-420.5 2667,-401.5 2598,-401.5"/>
<text text-anchor="middle" x="2632.5" y="-408.5" font-family="Helvetica,sans-Serif" font-size="10.00">std::mutex</text>
</a>
</g>
</g>
<!-- Node6&#45;&gt;Node5 -->
<g id="edge5" class="edge">
<title>Node6&#45;&gt;Node5</title>
<path fill="none" stroke="#9a32cd" stroke-dasharray="5,2" d="M2677.54,-409.69C2713.97,-407.04 2766.18,-399.59 2807,-379 2823.01,-370.93 2837.38,-355.55 2845.65,-345.54"/>
<polygon fill="#9a32cd" stroke="#9a32cd" points="2677,-406.21 2667.24,-410.34 2677.44,-413.2 2677,-406.21"/>
<text text-anchor="middle" x="2764.5" y="-407" font-family="Helvetica,sans-Serif" font-size="10.00"> message_mutex</text>
</g>
<!-- Node7 -->
<g id="node7" class="node">
<title>Node7</title>
<g id="a_node7"><a xlink:title=" ">
<polygon fill="white" stroke="#bfbfbf" points="2561,-363.5 2561,-382.5 2704,-382.5 2704,-363.5 2561,-363.5"/>
<text text-anchor="middle" x="2632.5" y="-370.5" font-family="Helvetica,sans-Serif" font-size="10.00">std::queue&lt; message_t &gt;</text>
</a>
</g>
</g>
<!-- Node7&#45;&gt;Node5 -->
<g id="edge6" class="edge">
<title>Node7&#45;&gt;Node5</title>
<path fill="none" stroke="#9a32cd" stroke-dasharray="5,2" d="M2714.24,-365.08C2743.62,-361.47 2776.98,-356.51 2807,-350 2812.87,-348.73 2819.08,-347.06 2824.97,-345.33"/>
<polygon fill="#9a32cd" stroke="#9a32cd" points="2713.53,-361.64 2704.02,-366.3 2714.36,-368.59 2713.53,-361.64"/>
<text text-anchor="middle" x="2764.5" y="-367" font-family="Helvetica,sans-Serif" font-size="10.00"> to_process</text>
</g>
<!-- Node8 -->
<g id="node8" class="node">
<title>Node8</title>
<g id="a_node8"><a xlink:href="structmessage__t.html" target="_top" xlink:title=" ">
<polygon fill="white" stroke="black" points="2345,-363.5 2345,-382.5 2415,-382.5 2415,-363.5 2345,-363.5"/>
<text text-anchor="middle" x="2380" y="-370.5" font-family="Helvetica,sans-Serif" font-size="10.00">message_t</text>
</a>
</g>
</g>
<!-- Node8&#45;&gt;Node7 -->
<g id="edge7" class="edge">
<title>Node8&#45;&gt;Node7</title>
<path fill="none" stroke="#9a32cd" stroke-dasharray="5,2" d="M2425.15,-373C2462.65,-373 2517.17,-373 2560.75,-373"/>
<polygon fill="#9a32cd" stroke="#9a32cd" points="2425.04,-369.5 2415.04,-373 2425.04,-376.5 2425.04,-369.5"/>
<text text-anchor="middle" x="2509" y="-376" font-family="Helvetica,sans-Serif" font-size="10.00"> elements</text>
</g>
<!-- Node9 -->
<g id="node9" class="node">
<title>Node9</title>
<g id="a_node9"><a xlink:title="STL class.">
<polygon fill="white" stroke="#bfbfbf" points="2598,-325.5 2598,-344.5 2667,-344.5 2667,-325.5 2598,-325.5"/>
<text text-anchor="middle" x="2632.5" y="-332.5" font-family="Helvetica,sans-Serif" font-size="10.00">std::thread</text>
</a>
</g>
</g>
<!-- Node9&#45;&gt;Node5 -->
<g id="edge8" class="edge">
<title>Node9&#45;&gt;Node5</title>
<path fill="none" stroke="#9a32cd" stroke-dasharray="5,2" d="M2677.41,-335.2C2721.28,-335.4 2787.4,-335.7 2824.73,-335.87"/>
<polygon fill="#9a32cd" stroke="#9a32cd" points="2677.33,-331.7 2667.32,-335.15 2677.3,-338.7 2677.33,-331.7"/>
<text text-anchor="middle" x="2764.5" y="-338" font-family="Helvetica,sans-Serif" font-size="10.00"> process_thread</text>
</g>
<!-- Node10 -->
<g id="node10" class="node">
<title>Node10</title>
<g id="a_node10"><a xlink:title=" ">
<polygon fill="white" stroke="#bfbfbf" points="985,-318.5 985,-337.5 1126,-337.5 1126,-318.5 985,-318.5"/>
<text text-anchor="middle" x="1055.5" y="-325.5" font-family="Helvetica,sans-Serif" font-size="10.00">std::list&lt; GameChange &gt;</text>
</a>
</g>
</g>
<!-- Node10&#45;&gt;Node1 -->
<g id="edge10" class="edge">
<title>Node10&#45;&gt;Node1</title>
<path fill="none" stroke="#9a32cd" stroke-dasharray="5,2" d="M1136.23,-330.12C1160.85,-330.61 1188.04,-331 1213,-331 1213,-331 1213,-331 2381,-331 2465.53,-331 2562.57,-301.25 2606.99,-285.92"/>
<polygon fill="#9a32cd" stroke="#9a32cd" points="1136.29,-326.62 1126.22,-329.91 1136.14,-333.62 1136.29,-326.62"/>
<text text-anchor="middle" x="1782.5" y="-334" font-family="Helvetica,sans-Serif" font-size="10.00"> history</text>
</g>
<!-- Node11 -->
<g id="node11" class="node">
<title>Node11</title>
<g id="a_node11"><a xlink:href="classGameChange.html" target="_top" xlink:title=" ">
<polygon fill="white" stroke="black" points="628,-223.5 628,-242.5 711,-242.5 711,-223.5 628,-223.5"/>
<text text-anchor="middle" x="669.5" y="-230.5" font-family="Helvetica,sans-Serif" font-size="10.00">GameChange</text>
</a>
</g>
</g>
<!-- Node11&#45;&gt;Node10 -->
<g id="edge11" class="edge">
<title>Node11&#45;&gt;Node10</title>
<path fill="none" stroke="#9a32cd" stroke-dasharray="5,2" d="M682.19,-251.25C692.58,-265.77 709.18,-285.24 729,-295 810.14,-334.97 916.29,-337.98 984.94,-334.55"/>
<polygon fill="#9a32cd" stroke="#9a32cd" points="684.8,-248.86 676.28,-242.56 679.01,-252.8 684.8,-248.86"/>
<text text-anchor="middle" x="753.5" y="-316" font-family="Helvetica,sans-Serif" font-size="10.00"> elements</text>
</g>
<!-- Node16 -->
<g id="node16" class="node">
<title>Node16</title>
<g id="a_node16"><a xlink:title=" ">
<polygon fill="white" stroke="#bfbfbf" points="796,-86.5 796,-105.5 967,-105.5 967,-86.5 796,-86.5"/>
<text text-anchor="middle" x="881.5" y="-93.5" font-family="Helvetica,sans-Serif" font-size="10.00">std::weak_ptr&lt; GameChange &gt;</text>
</a>
</g>
</g>
<!-- Node11&#45;&gt;Node16 -->
<g id="edge17" class="edge">
<title>Node11&#45;&gt;Node16</title>
<path fill="none" stroke="#9a32cd" stroke-dasharray="5,2" d="M693.77,-217.82C737.27,-189.44 829.77,-129.1 865.75,-105.62"/>
<polygon fill="#9a32cd" stroke="#9a32cd" points="691.73,-214.97 685.27,-223.37 695.55,-220.83 691.73,-214.97"/>
<text text-anchor="middle" x="753.5" y="-196" font-family="Helvetica,sans-Serif" font-size="10.00"> ptr</text>
</g>
<!-- Node12 -->
<g id="node12" class="node">
<title>Node12</title>
<g id="a_node12"><a xlink:title=" ">
<polygon fill="white" stroke="#bfbfbf" points="401,-240 401,-270 558,-270 558,-240 401,-240"/>
<text text-anchor="start" x="409" y="-258" font-family="Helvetica,sans-Serif" font-size="10.00">std::enable_shared</text>
<text text-anchor="middle" x="479.5" y="-247" font-family="Helvetica,sans-Serif" font-size="10.00">_from_this&lt; GameChange &gt;</text>
</a>
</g>
</g>
<!-- Node12&#45;&gt;Node11 -->
<g id="edge12" class="edge">
<title>Node12&#45;&gt;Node11</title>
<path fill="none" stroke="midnightblue" d="M568.23,-244.73C589.08,-242.29 610.34,-239.81 627.89,-237.75"/>
<polygon fill="midnightblue" stroke="midnightblue" points="567.58,-241.29 558.05,-245.92 568.39,-248.24 567.58,-241.29"/>
</g>
<!-- Node13 -->
<g id="node13" class="node">
<title>Node13</title>
<g id="a_node13"><a xlink:title=" ">
<polygon fill="white" stroke="#bfbfbf" points="1245,-50.5 1245,-69.5 1379,-69.5 1379,-50.5 1245,-50.5"/>
<text text-anchor="middle" x="1312" y="-57.5" font-family="Helvetica,sans-Serif" font-size="10.00">std::shared_ptr&lt; Field &gt;</text>
</a>
</g>
</g>
<!-- Node13&#45;&gt;Node11 -->
<g id="edge13" class="edge">
<title>Node13&#45;&gt;Node11</title>
<path fill="none" stroke="#9a32cd" stroke-dasharray="5,2" d="M1260.08,-48.41C1163.6,-29.21 950.05,-0.07 796,-77 730.38,-109.77 687.68,-194.5 674.69,-223.27"/>
<polygon fill="#9a32cd" stroke="#9a32cd" points="1259.65,-51.9 1270.15,-50.47 1261.05,-45.04 1259.65,-51.9"/>
<text text-anchor="middle" x="1055.5" y="-33" font-family="Helvetica,sans-Serif" font-size="10.00"> affected_field</text>
</g>
<!-- Node19 -->
<g id="node19" class="node">
<title>Node19</title>
<g id="a_node19"><a xlink:title=" ">
<polygon fill="white" stroke="#bfbfbf" points="1476,-141.5 1476,-160.5 1601,-160.5 1601,-141.5 1476,-141.5"/>
<text text-anchor="middle" x="1538.5" y="-148.5" font-family="Helvetica,sans-Serif" font-size="10.00">std::set&lt; field_ptr_t &gt;</text>
</a>
</g>
</g>
<!-- Node13&#45;&gt;Node19 -->
<g id="edge22" class="edge">
<title>Node13&#45;&gt;Node19</title>
<path fill="none" stroke="#9a32cd" stroke-dasharray="5,2" d="M1341.85,-73.86C1371.97,-88.07 1420.75,-110.39 1464,-127 1477.53,-132.2 1492.73,-137.28 1505.78,-141.42"/>
<polygon fill="#9a32cd" stroke="#9a32cd" points="1343.29,-70.67 1332.76,-69.54 1340.29,-76.99 1343.29,-70.67"/>
<text text-anchor="middle" x="1421.5" y="-122" font-family="Helvetica,sans-Serif" font-size="10.00"> keys</text>
</g>
<!-- Node26 -->
<g id="node26" class="node">
<title>Node26</title>
<g id="a_node26"><a xlink:title=" ">
<polygon fill="white" stroke="#bfbfbf" points="1464,-45 1464,-75 1613,-75 1613,-45 1464,-45"/>
<text text-anchor="start" x="1472" y="-63" font-family="Helvetica,sans-Serif" font-size="10.00">std::map&lt; pos_type,</text>
<text text-anchor="middle" x="1538.5" y="-52" font-family="Helvetica,sans-Serif" font-size="10.00"> std::shared_ptr&lt; Field &gt; &gt;</text>
</a>
</g>
</g>
<!-- Node13&#45;&gt;Node26 -->
<g id="edge31" class="edge">
<title>Node13&#45;&gt;Node26</title>
<path fill="none" stroke="#9a32cd" stroke-dasharray="5,2" d="M1389.32,-60C1413.44,-60 1440.04,-60 1463.97,-60"/>
<polygon fill="#9a32cd" stroke="#9a32cd" points="1389.14,-56.5 1379.14,-60 1389.14,-63.5 1389.14,-56.5"/>
<text text-anchor="middle" x="1421.5" y="-63" font-family="Helvetica,sans-Serif" font-size="10.00"> elements</text>
</g>
<!-- Node29 -->
<g id="node29" class="node">
<title>Node29</title>
<g id="a_node29"><a xlink:title=" ">
<polygon fill="white" stroke="#bfbfbf" points="1631,-0.5 1631,-41.5 1746,-41.5 1746,-0.5 1631,-0.5"/>
<text text-anchor="start" x="1639" y="-29.5" font-family="Helvetica,sans-Serif" font-size="10.00">std::map&lt; unsigned</text>
<text text-anchor="start" x="1639" y="-18.5" font-family="Helvetica,sans-Serif" font-size="10.00"> int, std::shared_ptr</text>
<text text-anchor="middle" x="1688.5" y="-7.5" font-family="Helvetica,sans-Serif" font-size="10.00">&lt; Field &gt; &gt;</text>
</a>
</g>
</g>
<!-- Node13&#45;&gt;Node29 -->
<g id="edge39" class="edge">
<title>Node13&#45;&gt;Node29</title>
<path fill="none" stroke="#9a32cd" stroke-dasharray="5,2" d="M1374.98,-48.73C1382.4,-47.44 1389.86,-46.17 1397,-45 1426.71,-40.13 1434.06,-38.17 1464,-35 1520.64,-29.01 1585.65,-25.29 1630.9,-23.21"/>
<polygon fill="#9a32cd" stroke="#9a32cd" points="1374.18,-45.31 1364.94,-50.49 1375.39,-52.21 1374.18,-45.31"/>
<text text-anchor="middle" x="1421.5" y="-48" font-family="Helvetica,sans-Serif" font-size="10.00"> elements</text>
</g>
<!-- Node14 -->
<g id="node14" class="node">
<title>Node14</title>
<g id="a_node14"><a xlink:href="classField.html" target="_top" xlink:title=" ">
<polygon fill="white" stroke="black" points="1144,-87.5 1144,-106.5 1183,-106.5 1183,-87.5 1144,-87.5"/>
<text text-anchor="middle" x="1163.5" y="-94.5" font-family="Helvetica,sans-Serif" font-size="10.00">Field</text>
</a>
</g>
</g>
<!-- Node14&#45;&gt;Node13 -->
<g id="edge14" class="edge">
<title>Node14&#45;&gt;Node13</title>
<path fill="none" stroke="#9a32cd" stroke-dasharray="5,2" d="M1192.56,-84.84C1195.39,-83.8 1198.23,-82.84 1201,-82 1217.5,-77.01 1235.74,-72.84 1252.54,-69.52"/>
<polygon fill="#9a32cd" stroke="#9a32cd" points="1191.23,-81.6 1183.19,-88.51 1193.78,-88.12 1191.23,-81.6"/>
<text text-anchor="middle" x="1214" y="-85" font-family="Helvetica,sans-Serif" font-size="10.00"> ptr</text>
</g>
<!-- Node15 -->
<g id="node15" class="node">
<title>Node15</title>
<g id="a_node15"><a xlink:href="structpos__type.html" target="_top" xlink:title=" ">
<polygon fill="white" stroke="black" points="851,-163.5 851,-182.5 912,-182.5 912,-163.5 851,-163.5"/>
<text text-anchor="middle" x="881.5" y="-170.5" font-family="Helvetica,sans-Serif" font-size="10.00">pos_type</text>
</a>
</g>
</g>
<!-- Node15&#45;&gt;Node14 -->
<g id="edge15" class="edge">
<title>Node15&#45;&gt;Node14</title>
<path fill="none" stroke="#9a32cd" stroke-dasharray="5,2" d="M908.22,-158.47C928.48,-147.64 957.75,-133.35 985,-125 1000.03,-120.4 1101.37,-105.69 1143.83,-99.64"/>
<polygon fill="#9a32cd" stroke="#9a32cd" points="906.43,-155.46 899.32,-163.31 909.78,-161.61 906.43,-155.46"/>
<text text-anchor="middle" x="1055.5" y="-128" font-family="Helvetica,sans-Serif" font-size="10.00"> position</text>
</g>
<!-- Node18 -->
<g id="node18" class="node">
<title>Node18</title>
<g id="a_node18"><a xlink:href="classDot.html" target="_top" xlink:title=" ">
<polygon fill="white" stroke="black" points="1765.5,-147.5 1765.5,-166.5 1799.5,-166.5 1799.5,-147.5 1765.5,-147.5"/>
<text text-anchor="middle" x="1782.5" y="-154.5" font-family="Helvetica,sans-Serif" font-size="10.00">Dot</text>
</a>
</g>
</g>
<!-- Node15&#45;&gt;Node18 -->
<g id="edge20" class="edge">
<title>Node15&#45;&gt;Node18</title>
<path fill="none" stroke="#9a32cd" stroke-dasharray="5,2" d="M922.15,-177.3C941.14,-179.15 964.22,-181.09 985,-182 1047.61,-184.74 1063.34,-182.55 1126,-182 1401.59,-179.58 1475.72,-224.86 1746,-171 1752.5,-169.71 1759.34,-167.29 1765.26,-164.82"/>
<polygon fill="#9a32cd" stroke="#9a32cd" points="922.36,-173.8 912.06,-176.29 921.66,-180.77 922.36,-173.8"/>
<text text-anchor="middle" x="1312" y="-195" font-family="Helvetica,sans-Serif" font-size="10.00"> position</text>
</g>
<!-- Node15&#45;&gt;Node26 -->
<g id="edge32" class="edge">
<title>Node15&#45;&gt;Node26</title>
<path fill="none" stroke="#9a32cd" stroke-dasharray="5,2" d="M922.4,-172.64C1043.92,-171.23 1403.81,-164.49 1446,-134 1463.12,-121.62 1449.05,-104.93 1464,-90 1470.04,-83.96 1477.47,-79.09 1485.26,-75.17"/>
<polygon fill="#9a32cd" stroke="#9a32cd" points="922.02,-169.15 912.06,-172.76 922.1,-176.15 922.02,-169.15"/>
<text text-anchor="middle" x="1214" y="-168" font-family="Helvetica,sans-Serif" font-size="10.00"> keys</text>
</g>
<!-- Node28 -->
<g id="node28" class="node">
<title>Node28</title>
<g id="a_node28"><a xlink:title=" ">
<polygon fill="white" stroke="#bfbfbf" points="2068,-195 2068,-225 2211,-225 2211,-195 2068,-195"/>
<text text-anchor="start" x="2076" y="-213" font-family="Helvetica,sans-Serif" font-size="10.00">std::map&lt; pos_type,</text>
<text text-anchor="middle" x="2139.5" y="-202" font-family="Helvetica,sans-Serif" font-size="10.00"> std::shared_ptr&lt; Dot &gt; &gt;</text>
</a>
</g>
</g>
<!-- Node15&#45;&gt;Node28 -->
<g id="edge36" class="edge">
<title>Node15&#45;&gt;Node28</title>
<path fill="none" stroke="#9a32cd" stroke-dasharray="5,2" d="M917.45,-185.89C969.9,-204.06 1072.46,-235 1162.5,-235 1162.5,-235 1162.5,-235 1919.5,-235 1969.25,-235 2024.95,-228.55 2067.72,-222.21"/>
<polygon fill="#9a32cd" stroke="#9a32cd" points="918.54,-182.57 907.95,-182.55 916.22,-189.17 918.54,-182.57"/>
<text text-anchor="middle" x="1538.5" y="-238" font-family="Helvetica,sans-Serif" font-size="10.00"> keys</text>
</g>
<!-- Node16&#45;&gt;Node14 -->
<g id="edge16" class="edge">
<title>Node16&#45;&gt;Node14</title>
<path fill="none" stroke="#9a32cd" stroke-dasharray="5,2" d="M977.21,-89.58C1022.34,-87.66 1077.03,-87 1126,-91 1131.76,-91.47 1137.98,-92.35 1143.63,-93.3"/>
<polygon fill="#9a32cd" stroke="#9a32cd" points="976.98,-86.09 967.15,-90.03 977.29,-93.08 976.98,-86.09"/>
<text text-anchor="middle" x="1055.5" y="-94" font-family="Helvetica,sans-Serif" font-size="10.00"> last_change</text>
</g>
<!-- Node17 -->
<g id="node17" class="node">
<title>Node17</title>
<g id="a_node17"><a xlink:title=" ">
<polygon fill="white" stroke="#bfbfbf" points="1857.5,-120.5 1857.5,-139.5 1979.5,-139.5 1979.5,-120.5 1857.5,-120.5"/>
<text text-anchor="middle" x="1918.5" y="-127.5" font-family="Helvetica,sans-Serif" font-size="10.00">std::weak_ptr&lt; Dot &gt;</text>
</a>
</g>
</g>
<!-- Node17&#45;&gt;Node14 -->
<g id="edge18" class="edge">
<title>Node17&#45;&gt;Node14</title>
<path fill="none" stroke="#9a32cd" stroke-dasharray="5,2" d="M1847.33,-126.92C1681.98,-119.68 1274.95,-101.84 1183.11,-97.82"/>
<polygon fill="#9a32cd" stroke="#9a32cd" points="1847.25,-130.42 1857.39,-127.37 1847.55,-123.43 1847.25,-130.42"/>
<text text-anchor="middle" x="1538.5" y="-120" font-family="Helvetica,sans-Serif" font-size="10.00"> assigned_dot</text>
</g>
<!-- Node18&#45;&gt;Node17 -->
<g id="edge19" class="edge">
<title>Node18&#45;&gt;Node17</title>
<path fill="none" stroke="#9a32cd" stroke-dasharray="5,2" d="M1809.54,-151.75C1826.75,-148.29 1849.8,-143.64 1870.18,-139.53"/>
<polygon fill="#9a32cd" stroke="#9a32cd" points="1808.78,-148.34 1799.66,-153.74 1810.16,-155.2 1808.78,-148.34"/>
<text text-anchor="middle" x="1827.5" y="-153" font-family="Helvetica,sans-Serif" font-size="10.00"> ptr</text>
</g>
<!-- Node20 -->
<g id="node20" class="node">
<title>Node20</title>
<g id="a_node20"><a xlink:title=" ">
<polygon fill="white" stroke="#bfbfbf" points="1854,-181.5 1854,-200.5 1983,-200.5 1983,-181.5 1854,-181.5"/>
<text text-anchor="middle" x="1918.5" y="-188.5" font-family="Helvetica,sans-Serif" font-size="10.00">std::shared_ptr&lt; Dot &gt;</text>
</a>
</g>
</g>
<!-- Node18&#45;&gt;Node20 -->
<g id="edge24" class="edge">
<title>Node18&#45;&gt;Node20</title>
<path fill="none" stroke="#9a32cd" stroke-dasharray="5,2" d="M1809.62,-163.63C1829.64,-168.71 1857.55,-175.79 1879.97,-181.48"/>
<polygon fill="#9a32cd" stroke="#9a32cd" points="1810.22,-160.17 1799.66,-161.1 1808.5,-166.95 1810.22,-160.17"/>
<text text-anchor="middle" x="1827.5" y="-173" font-family="Helvetica,sans-Serif" font-size="10.00"> ptr</text>
</g>
<!-- Node19&#45;&gt;Node18 -->
<g id="edge21" class="edge">
<title>Node19&#45;&gt;Node18</title>
<path fill="none" stroke="#9a32cd" stroke-dasharray="5,2" d="M1611.39,-152.78C1665.19,-154.12 1734.61,-155.84 1765.48,-156.6"/>
<polygon fill="#9a32cd" stroke="#9a32cd" points="1611.28,-149.28 1601.19,-152.53 1611.1,-156.28 1611.28,-149.28"/>
<text text-anchor="middle" x="1688.5" y="-159" font-family="Helvetica,sans-Serif" font-size="10.00"> fields</text>
</g>
<!-- Node20&#45;&gt;Node11 -->
<g id="edge23" class="edge">
<title>Node20&#45;&gt;Node11</title>
<path fill="none" stroke="#9a32cd" stroke-dasharray="5,2" d="M1903.64,-208.66C1881.36,-234.87 1834.86,-281 1783.5,-281 880.5,-281 880.5,-281 880.5,-281 812.25,-281 734.58,-256.61 695.61,-242.6"/>
<polygon fill="#9a32cd" stroke="#9a32cd" points="1906.59,-210.58 1910.24,-200.63 1901.18,-206.14 1906.59,-210.58"/>
<text text-anchor="middle" x="1312" y="-295" font-family="Helvetica,sans-Serif" font-size="10.00"> old_assoziation</text>
<text text-anchor="middle" x="1312" y="-284" font-family="Helvetica,sans-Serif" font-size="10.00">new_assoziation</text>
</g>
<!-- Node27 -->
<g id="node27" class="node">
<title>Node27</title>
<g id="a_node27"><a xlink:title=" ">
<polygon fill="white" stroke="#bfbfbf" points="2082,-134.5 2082,-175.5 2197,-175.5 2197,-134.5 2082,-134.5"/>
<text text-anchor="start" x="2090" y="-163.5" font-family="Helvetica,sans-Serif" font-size="10.00">std::map&lt; unsigned</text>
<text text-anchor="start" x="2090" y="-152.5" font-family="Helvetica,sans-Serif" font-size="10.00"> int, std::shared_ptr</text>
<text text-anchor="middle" x="2139.5" y="-141.5" font-family="Helvetica,sans-Serif" font-size="10.00">&lt; Dot &gt; &gt;</text>
</a>
</g>
</g>
<!-- Node20&#45;&gt;Node27 -->
<g id="edge34" class="edge">
<title>Node20&#45;&gt;Node27</title>
<path fill="none" stroke="#9a32cd" stroke-dasharray="5,2" d="M1987.4,-179.84C2017.71,-174.86 2053.01,-169.05 2081.87,-164.31"/>
<polygon fill="#9a32cd" stroke="#9a32cd" points="1986.63,-176.42 1977.33,-181.49 1987.76,-183.33 1986.63,-176.42"/>
<text text-anchor="middle" x="2025.5" y="-181" font-family="Helvetica,sans-Serif" font-size="10.00"> elements</text>
</g>
<!-- Node20&#45;&gt;Node28 -->
<g id="edge37" class="edge">
<title>Node20&#45;&gt;Node28</title>
<path fill="none" stroke="#9a32cd" stroke-dasharray="5,2" d="M1993.27,-197.4C2017.33,-199.49 2043.96,-201.8 2067.79,-203.87"/>
<polygon fill="#9a32cd" stroke="#9a32cd" points="1993.4,-193.9 1983.14,-196.52 1992.8,-200.87 1993.4,-193.9"/>
<text text-anchor="middle" x="2025.5" y="-206" font-family="Helvetica,sans-Serif" font-size="10.00"> elements</text>
</g>
<!-- Node21 -->
<g id="node21" class="node">
<title>Node21</title>
<g id="a_node21"><a xlink:title=" ">
<polygon fill="white" stroke="#bfbfbf" points="411.5,-201.5 411.5,-220.5 547.5,-220.5 547.5,-201.5 411.5,-201.5"/>
<text text-anchor="middle" x="479.5" y="-208.5" font-family="Helvetica,sans-Serif" font-size="10.00">std::weak_ptr&lt; Player &gt;</text>
</a>
</g>
</g>
<!-- Node21&#45;&gt;Node11 -->
<g id="edge25" class="edge">
<title>Node21&#45;&gt;Node11</title>
<path fill="none" stroke="#9a32cd" stroke-dasharray="5,2" d="M557.76,-218.99C574.97,-220.87 593.11,-222.93 610,-225 615.8,-225.71 621.92,-226.5 627.92,-227.3"/>
<polygon fill="#9a32cd" stroke="#9a32cd" points="558.07,-215.5 547.75,-217.91 557.32,-222.46 558.07,-215.5"/>
<text text-anchor="middle" x="593" y="-228" font-family="Helvetica,sans-Serif" font-size="10.00"> player</text>
</g>
<!-- Node22 -->
<g id="node22" class="node">
<title>Node22</title>
<g id="a_node22"><a xlink:href="classPlayer.html" target="_top" xlink:title=" ">
<polygon fill="white" stroke="black" points="301,-201.5 301,-220.5 348,-220.5 348,-201.5 301,-201.5"/>
<text text-anchor="middle" x="324.5" y="-208.5" font-family="Helvetica,sans-Serif" font-size="10.00">Player</text>
</a>
</g>
</g>
<!-- Node22&#45;&gt;Node21 -->
<g id="edge26" class="edge">
<title>Node22&#45;&gt;Node21</title>
<path fill="none" stroke="#9a32cd" stroke-dasharray="5,2" d="M358.21,-211C373.77,-211 392.97,-211 411.43,-211"/>
<polygon fill="#9a32cd" stroke="#9a32cd" points="358.08,-207.5 348.08,-211 358.08,-214.5 358.08,-207.5"/>
<text text-anchor="middle" x="374.5" y="-214" font-family="Helvetica,sans-Serif" font-size="10.00"> ptr</text>
</g>
<!-- Node23 -->
<g id="node23" class="node">
<title>Node23</title>
<g id="a_node23"><a xlink:title="STL class.">
<polygon fill="white" stroke="#bfbfbf" points="141,-201.5 141,-220.5 206,-220.5 206,-201.5 141,-201.5"/>
<text text-anchor="middle" x="173.5" y="-208.5" font-family="Helvetica,sans-Serif" font-size="10.00">std::string</text>
</a>
</g>
</g>
<!-- Node23&#45;&gt;Node22 -->
<g id="edge27" class="edge">
<title>Node23&#45;&gt;Node22</title>
<path fill="none" stroke="#9a32cd" stroke-dasharray="5,2" d="M216.18,-211C243.54,-211 278.27,-211 300.69,-211"/>
<polygon fill="#9a32cd" stroke="#9a32cd" points="216.1,-207.5 206.1,-211 216.1,-214.5 216.1,-207.5"/>
<text text-anchor="middle" x="253.5" y="-225" font-family="Helvetica,sans-Serif" font-size="10.00"> passphrase</text>
<text text-anchor="middle" x="253.5" y="-214" font-family="Helvetica,sans-Serif" font-size="10.00">name</text>
</g>
<!-- Node24 -->
<g id="node24" class="node">
<title>Node24</title>
<g id="a_node24"><a xlink:title="STL class.">
<polygon fill="white" stroke="#bfbfbf" points="0,-196 0,-226 104,-226 104,-196 0,-196"/>
<text text-anchor="start" x="8" y="-214" font-family="Helvetica,sans-Serif" font-size="10.00">std::basic_string&lt;</text>
<text text-anchor="middle" x="52" y="-203" font-family="Helvetica,sans-Serif" font-size="10.00"> char &gt;</text>
</a>
</g>
</g>
<!-- Node24&#45;&gt;Node23 -->
<g id="edge28" class="edge">
<title>Node24&#45;&gt;Node23</title>
<path fill="none" stroke="midnightblue" d="M114.1,-211C123.41,-211 132.68,-211 141,-211"/>
<polygon fill="midnightblue" stroke="midnightblue" points="114.03,-207.5 104.03,-211 114.03,-214.5 114.03,-207.5"/>
</g>
<!-- Node25 -->
<g id="node25" class="node">
<title>Node25</title>
<g id="a_node25"><a xlink:href="classGameState.html" target="_top" xlink:title=" ">
<polygon fill="white" stroke="black" points="2344.5,-145.5 2344.5,-164.5 2415.5,-164.5 2415.5,-145.5 2344.5,-145.5"/>
<text text-anchor="middle" x="2380" y="-152.5" font-family="Helvetica,sans-Serif" font-size="10.00">GameState</text>
</a>
</g>
</g>
<!-- Node25&#45;&gt;Node1 -->
<g id="edge29" class="edge">
<title>Node25&#45;&gt;Node1</title>
<path fill="none" stroke="#9a32cd" stroke-dasharray="5,2" d="M2409.91,-169.08C2461.48,-194.19 2568.03,-246.09 2611.93,-267.47"/>
<polygon fill="#9a32cd" stroke="#9a32cd" points="2411.18,-165.81 2400.66,-164.57 2408.11,-172.1 2411.18,-165.81"/>
<text text-anchor="middle" x="2509" y="-234" font-family="Helvetica,sans-Serif" font-size="10.00"> current_state</text>
</g>
<!-- Node26&#45;&gt;Node25 -->
<g id="edge30" class="edge">
<title>Node26&#45;&gt;Node25</title>
<path fill="none" stroke="#9a32cd" stroke-dasharray="5,2" d="M1623.1,-66.71C1669.69,-69.89 1728.78,-73 1781.5,-73 1781.5,-73 1781.5,-73 2140.5,-73 2228.73,-73 2325.83,-123.8 2363.17,-145.43"/>
<polygon fill="#9a32cd" stroke="#9a32cd" points="1623.27,-63.21 1613.05,-66.01 1622.78,-70.19 1623.27,-63.21"/>
<text text-anchor="middle" x="1918.5" y="-76" font-family="Helvetica,sans-Serif" font-size="10.00"> fields</text>
</g>
<!-- Node27&#45;&gt;Node25 -->
<g id="edge33" class="edge">
<title>Node27&#45;&gt;Node25</title>
<path fill="none" stroke="#9a32cd" stroke-dasharray="5,2" d="M2207.19,-155C2251.72,-155 2308.48,-155 2344.3,-155"/>
<polygon fill="#9a32cd" stroke="#9a32cd" points="2207.02,-151.5 2197.02,-155 2207.02,-158.5 2207.02,-151.5"/>
<text text-anchor="middle" x="2257" y="-158" font-family="Helvetica,sans-Serif" font-size="10.00"> dots_by_id</text>
</g>
<!-- Node28&#45;&gt;Node25 -->
<g id="edge35" class="edge">
<title>Node28&#45;&gt;Node25</title>
<path fill="none" stroke="#9a32cd" stroke-dasharray="5,2" d="M2215.58,-192.69C2258.73,-182.74 2310.87,-170.71 2344.46,-162.96"/>
<polygon fill="#9a32cd" stroke="#9a32cd" points="2214.63,-189.31 2205.67,-194.97 2216.2,-196.13 2214.63,-189.31"/>
<text text-anchor="middle" x="2257" y="-193" font-family="Helvetica,sans-Serif" font-size="10.00"> dots</text>
</g>
<!-- Node29&#45;&gt;Node25 -->
<g id="edge38" class="edge">
<title>Node29&#45;&gt;Node25</title>
<path fill="none" stroke="#9a32cd" stroke-dasharray="5,2" d="M1756.21,-22.36C1778.56,-22.72 1803.6,-23 1826.5,-23 1826.5,-23 1826.5,-23 2140.5,-23 2206.69,-23 2227.56,-26.11 2285,-59 2324.67,-81.72 2358.7,-125.92 2372.47,-145.4"/>
<polygon fill="#9a32cd" stroke="#9a32cd" points="1756.21,-18.86 1746.15,-22.2 1756.09,-25.86 1756.21,-18.86"/>
<text text-anchor="middle" x="1918.5" y="-26" font-family="Helvetica,sans-Serif" font-size="10.00"> fields_by_id</text>
</g>
</g>
</svg>
        <g id="navigator" transform="translate(0 0)" fill="#404254">
                <rect fill="#f2f5e9" fill-opacity="0.5" stroke="#606060" stroke-width=".5" x="0" y="0" width="60" height="60"/>
                <use id="zoomplus" xlink:href="#zoomPlus" x="17" y="9" onmousedown="handleZoom(evt,'in')"/>
                <use id="zoomminus" xlink:href="#zoomMin" x="42" y="9" onmousedown="handleZoom(evt,'out')"/>
                <use id="reset" xlink:href="#resetDef" x="30" y="36" onmousedown="handleReset()"/>
                <g id="arrowUp" xlink:href="#dirArrow" transform="translate(30 24)" onmousedown="handlePan(0,-1)">
                  <use xlink:href="#rim" fill="#404040">
                        <set attributeName="fill" to="#808080" begin="arrowUp.mouseover" end="arrowUp.mouseout"/>
                  </use>
                  <path fill="none" stroke="white" stroke-width="1.5" d="M0,-3.0v7 M-2.5,-0.5L0,-3.0L2.5,-0.5"/>
                </g>
                <g id="arrowRight" xlink:href="#dirArrow" transform="rotate(90) translate(36 -43)" onmousedown="handlePan(1,0)">
                  <use xlink:href="#rim" fill="#404040">
                        <set attributeName="fill" to="#808080" begin="arrowRight.mouseover" end="arrowRight.mouseout"/>
                  </use>
                  <path fill="none" stroke="white" stroke-width="1.5" d="M0,-3.0v7 M-2.5,-0.5L0,-3.0L2.5,-0.5"/>
                </g>
                <g id="arrowDown" xlink:href="#dirArrow" transform="rotate(180) translate(-30 -48)" onmousedown="handlePan(0,1)">
                  <use xlink:href="#rim" fill="#404040">
                        <set attributeName="fill" to="#808080" begin="arrowDown.mouseover" end="arrowDown.mouseout"/>
                  </use>
                  <path fill="none" stroke="white" stroke-width="1.5" d="M0,-3.0v7 M-2.5,-0.5L0,-3.0L2.5,-0.5"/>
                </g>
                <g id="arrowLeft" xlink:href="#dirArrow" transform="rotate(270) translate(-36 17)" onmousedown="handlePan(-1,0)">
                  <use xlink:href="#rim" fill="#404040">
                        <set attributeName="fill" to="#808080" begin="arrowLeft.mouseover" end="arrowLeft.mouseout"/>
                  </use>
                  <path fill="none" stroke="white" stroke-width="1.5" d="M0,-3.0v7 M-2.5,-0.5L0,-3.0L2.5,-0.5"/>
                </g>
        </g>
        <svg viewBox="0 0 15 15" width="100%" height="30px" preserveAspectRatio="xMaxYMin meet">
         <g id="arrow_out" transform="scale(0.3 0.3)">
          <a xlink:href="classGalaxy__coll__graph_org.svg" target="_base">
           <rect id="button" ry="5" rx="5" y="6" x="6" height="38" width="38"
                fill="#f2f5e9" fill-opacity="0.5" stroke="#606060" stroke-width="1.0"/>
           <path id="arrow"
             d="M 11.500037,31.436501 C 11.940474,20.09759 22.043105,11.32322 32.158766,21.979434 L 37.068811,17.246167 C 37.068811,17.246167 37.088388,32 37.088388,32 L 22.160133,31.978069 C 22.160133,31.978069 26.997745,27.140456 26.997745,27.140456 C 18.528582,18.264221 13.291696,25.230495 11.500037,31.436501 z"
             style="fill:#404040;"/>
          </a>
         </g>
        </svg>
</svg>
