<?xml version="1.0" encoding="UTF-8" standalone="no"?>
<!DOCTYPE svg PUBLIC "-//W3C//DTD SVG 1.1//EN"
 "http://www.w3.org/Graphics/SVG/1.1/DTD/svg11.dtd">
<!-- Generated by graphviz version 2.42.3 (0)
 -->
<!-- Title: Galaxy::run Pages: 1 -->
<svg width="897pt" height="170pt"
 viewBox="0.00 0.00 897.00 169.98" xmlns="http://www.w3.org/2000/svg" xmlns:xlink="http://www.w3.org/1999/xlink">
<g id="graph0" class="graph" transform="scale(1 1) rotate(0) translate(4 165.98)">
<title>Galaxy::run</title>
<polygon fill="white" stroke="transparent" points="-4,4 -4,-165.98 893,-165.98 893,4 -4,4"/>
<!-- Node1 -->
<g id="node1" class="node">
<title>Node1</title>
<g id="a_node1"><a xlink:title="starts the &quot;game loop&quot;. this blocks the thread until server stops.">
<polygon fill="#bfbfbf" stroke="black" points="0,-76.5 0,-95.5 72,-95.5 72,-76.5 0,-76.5"/>
<text text-anchor="middle" x="36" y="-83.5" font-family="Helvetica,sans-Serif" font-size="10.00">Galaxy::run</text>
</a>
</g>
</g>
<!-- Node2 -->
<g id="node2" class="node">
<title>Node2</title>
<g id="a_node2"><a xlink:href="classNetwork.html#a7d9b412cc58237783bd431544374e11a" target="_top" xlink:title="starts server and prozessing thread">
<polygon fill="white" stroke="black" points="108,-76.5 108,-95.5 188,-95.5 188,-76.5 108,-76.5"/>
<text text-anchor="middle" x="148" y="-83.5" font-family="Helvetica,sans-Serif" font-size="10.00">Network::run</text>
</a>
</g>
</g>
<!-- Node1&#45;&gt;Node2 -->
<g id="edge1" class="edge">
<title>Node1&#45;&gt;Node2</title>
<path fill="none" stroke="midnightblue" d="M72.11,-86C80.15,-86 88.86,-86 97.38,-86"/>
<polygon fill="midnightblue" stroke="midnightblue" points="97.64,-89.5 107.64,-86 97.64,-82.5 97.64,-89.5"/>
</g>
<!-- Node3 -->
<g id="node3" class="node">
<title>Node3</title>
<g id="a_node3"><a xlink:href="classNetwork.html#a356c8c0ec32e2795bd754b067838fd89" target="_top" xlink:title="prozesses all incoming messages">
<polygon fill="white" stroke="black" points="224,-76.5 224,-95.5 374,-95.5 374,-76.5 224,-76.5"/>
<text text-anchor="middle" x="299" y="-83.5" font-family="Helvetica,sans-Serif" font-size="10.00">Network::processMessages</text>
</a>
</g>
</g>
<!-- Node2&#45;&gt;Node3 -->
<g id="edge2" class="edge">
<title>Node2&#45;&gt;Node3</title>
<path fill="none" stroke="midnightblue" d="M188.15,-86C196.17,-86 204.9,-86 213.82,-86"/>
<polygon fill="midnightblue" stroke="midnightblue" points="213.94,-89.5 223.94,-86 213.94,-82.5 213.94,-89.5"/>
</g>
<!-- Node4 -->
<g id="node4" class="node">
<title>Node4</title>
<g id="a_node4"><a xlink:href="classGalaxy.html#a60e26c21a827518c37d85d8d7bd8e1b5" target="_top" xlink:title="needs to be called when Player disconnects from server">
<polygon fill="white" stroke="black" points="424,-114.5 424,-133.5 542,-133.5 542,-114.5 424,-114.5"/>
<text text-anchor="middle" x="483" y="-121.5" font-family="Helvetica,sans-Serif" font-size="10.00">Galaxy::deletePlayer</text>
</a>
</g>
</g>
<!-- Node3&#45;&gt;Node4 -->
<g id="edge3" class="edge">
<title>Node3&#45;&gt;Node4</title>
<path fill="none" stroke="midnightblue" d="M345.93,-95.59C370.38,-100.69 400.63,-107.01 426.4,-112.39"/>
<polygon fill="midnightblue" stroke="midnightblue" points="425.9,-115.86 436.4,-114.48 427.33,-109.01 425.9,-115.86"/>
</g>
<!-- Node5 -->
<g id="node5" class="node">
<title>Node5</title>
<g id="a_node5"><a xlink:href="classGalaxy.html#a13dbcec35a2b7615acb153d7ca33bce3" target="_top" xlink:title="central method that manages incomming messages from clients">
<polygon fill="white" stroke="black" points="410,-76.5 410,-95.5 556,-95.5 556,-76.5 410,-76.5"/>
<text text-anchor="middle" x="483" y="-83.5" font-family="Helvetica,sans-Serif" font-size="10.00">Galaxy::executeCommand</text>
</a>
</g>
</g>
<!-- Node3&#45;&gt;Node5 -->
<g id="edge4" class="edge">
<title>Node3&#45;&gt;Node5</title>
<path fill="none" stroke="midnightblue" d="M374.03,-86C382.51,-86 391.21,-86 399.79,-86"/>
<polygon fill="midnightblue" stroke="midnightblue" points="399.81,-89.5 409.81,-86 399.81,-82.5 399.81,-89.5"/>
</g>
<!-- Node14 -->
<g id="node14" class="node">
<title>Node14</title>
<g id="a_node14"><a xlink:href="classGalaxy.html#ab70919238d14bc1c16435f477966e159" target="_top" xlink:title="needs to be called when a new Player connects to the server">
<polygon fill="white" stroke="black" points="410,-38.5 410,-57.5 556,-57.5 556,-38.5 410,-38.5"/>
<text text-anchor="middle" x="483" y="-45.5" font-family="Helvetica,sans-Serif" font-size="10.00">Galaxy::registerNewPlayer</text>
</a>
</g>
</g>
<!-- Node3&#45;&gt;Node14 -->
<g id="edge14" class="edge">
<title>Node3&#45;&gt;Node14</title>
<path fill="none" stroke="midnightblue" d="M345.93,-76.41C370.38,-71.31 400.63,-64.99 426.4,-59.61"/>
<polygon fill="midnightblue" stroke="midnightblue" points="427.33,-62.99 436.4,-57.52 425.9,-56.14 427.33,-62.99"/>
</g>
<!-- Node6 -->
<g id="node6" class="node">
<title>Node6</title>
<g id="a_node6"><a xlink:href="classNetwork.html#a57f3c2d8b53d214d26822a52b899d69f" target="_top" xlink:title="broadcast to all players">
<polygon fill="white" stroke="black" points="777,-133.5 777,-152.5 889,-152.5 889,-133.5 777,-133.5"/>
<text text-anchor="middle" x="833" y="-140.5" font-family="Helvetica,sans-Serif" font-size="10.00">Network::broadcast</text>
</a>
</g>
</g>
<!-- Node5&#45;&gt;Node6 -->
<g id="edge5" class="edge">
<title>Node5&#45;&gt;Node6</title>
<path fill="none" stroke="midnightblue" d="M534.63,-95.53C542.08,-98 549.44,-101.11 556,-105 576.01,-116.87 570.63,-133.81 592,-143 652.7,-169.11 730.29,-162.87 780.55,-154.34"/>
<polygon fill="midnightblue" stroke="midnightblue" points="781.31,-157.76 790.54,-152.56 780.08,-150.87 781.31,-157.76"/>
</g>
<!-- Node7 -->
<g id="node7" class="node">
<title>Node7</title>
<g id="a_node7"><a xlink:href="classGalaxy.html#a92134e9c556eca12536abf89edbff577" target="_top" xlink:title="converts data from the client into a GameChange and applies it">
<polygon fill="white" stroke="black" points="592,-114.5 592,-133.5 741,-133.5 741,-114.5 592,-114.5"/>
<text text-anchor="middle" x="666.5" y="-121.5" font-family="Helvetica,sans-Serif" font-size="10.00">Galaxy::makeGameChange</text>
</a>
</g>
</g>
<!-- Node5&#45;&gt;Node7 -->
<g id="edge6" class="edge">
<title>Node5&#45;&gt;Node7</title>
<path fill="none" stroke="midnightblue" d="M529.8,-95.59C554.18,-100.69 584.36,-107.01 610.06,-112.39"/>
<polygon fill="midnightblue" stroke="midnightblue" points="609.52,-115.86 620.03,-114.48 610.96,-109 609.52,-115.86"/>
</g>
<!-- Node8 -->
<g id="node8" class="node">
<title>Node8</title>
<g id="a_node8"><a xlink:href="classNetwork.html#ad25ed6c4d5a404ed6ca66ecec14b569a" target="_top" xlink:title="send a message to a player">
<polygon fill="white" stroke="black" points="623,-76.5 623,-95.5 710,-95.5 710,-76.5 623,-76.5"/>
<text text-anchor="middle" x="666.5" y="-83.5" font-family="Helvetica,sans-Serif" font-size="10.00">Network::send</text>
</a>
</g>
</g>
<!-- Node5&#45;&gt;Node8 -->
<g id="edge8" class="edge">
<title>Node5&#45;&gt;Node8</title>
<path fill="none" stroke="midnightblue" d="M556.26,-86C575.1,-86 595.05,-86 612.67,-86"/>
<polygon fill="midnightblue" stroke="midnightblue" points="612.76,-89.5 622.76,-86 612.76,-82.5 612.76,-89.5"/>
</g>
<!-- Node9 -->
<g id="node9" class="node">
<title>Node9</title>
<g id="a_node9"><a xlink:href="classGalaxy.html#a58d3ec1dd980cd3adfc1eeb83c41f8e4" target="_top" xlink:title="starts notifing all components to shutdown.">
<polygon fill="white" stroke="black" points="628,-38.5 628,-57.5 705,-57.5 705,-38.5 628,-38.5"/>
<text text-anchor="middle" x="666.5" y="-45.5" font-family="Helvetica,sans-Serif" font-size="10.00">Galaxy::stop</text>
</a>
</g>
</g>
<!-- Node5&#45;&gt;Node9 -->
<g id="edge9" class="edge">
<title>Node5&#45;&gt;Node9</title>
<path fill="none" stroke="midnightblue" d="M529.8,-76.41C556.71,-70.78 590.68,-63.67 617.9,-57.97"/>
<polygon fill="midnightblue" stroke="midnightblue" points="618.9,-61.33 627.97,-55.86 617.46,-54.48 618.9,-61.33"/>
</g>
<!-- Node12 -->
<g id="node12" class="node">
<title>Node12</title>
<g id="a_node12"><a xlink:href="classGalaxy.html#ad74f8049b46bdd7c1aafbc0225eaaae1" target="_top" xlink:title="generates a json object of the current state of the galaxy">
<polygon fill="white" stroke="black" points="623.5,-0.5 623.5,-19.5 709.5,-19.5 709.5,-0.5 623.5,-0.5"/>
<text text-anchor="middle" x="666.5" y="-7.5" font-family="Helvetica,sans-Serif" font-size="10.00">Galaxy::toJson</text>
</a>
</g>
</g>
<!-- Node5&#45;&gt;Node12 -->
<g id="edge12" class="edge">
<title>Node5&#45;&gt;Node12</title>
<path fill="none" stroke="midnightblue" d="M534.63,-76.47C542.08,-74 549.44,-70.89 556,-67 576.01,-55.13 571.96,-40.81 592,-29 598.71,-25.05 606.23,-21.91 613.84,-19.41"/>
<polygon fill="midnightblue" stroke="midnightblue" points="614.85,-22.76 623.46,-16.59 612.88,-16.05 614.85,-22.76"/>
</g>
<!-- Node7&#45;&gt;Node6 -->
<g id="edge7" class="edge">
<title>Node7&#45;&gt;Node6</title>
<path fill="none" stroke="midnightblue" d="M741.09,-132.5C749.6,-133.48 758.24,-134.48 766.64,-135.45"/>
<polygon fill="midnightblue" stroke="midnightblue" points="766.39,-138.95 776.73,-136.62 767.2,-131.99 766.39,-138.95"/>
</g>
<!-- Node10 -->
<g id="node10" class="node">
<title>Node10</title>
<g id="a_node10"><a xlink:href="classNetwork.html#a14eee72429fc77613fb20692b2101836" target="_top" xlink:title="closes a specific connection">
<polygon fill="white" stroke="black" points="779,-76.5 779,-95.5 887,-95.5 887,-76.5 779,-76.5"/>
<text text-anchor="middle" x="833" y="-83.5" font-family="Helvetica,sans-Serif" font-size="10.00">Network::closeCon</text>
</a>
</g>
</g>
<!-- Node9&#45;&gt;Node10 -->
<g id="edge10" class="edge">
<title>Node9&#45;&gt;Node10</title>
<path fill="none" stroke="midnightblue" d="M705.24,-56.72C727.67,-61.9 756.41,-68.54 780.85,-74.19"/>
<polygon fill="midnightblue" stroke="midnightblue" points="780.16,-77.62 790.69,-76.46 781.73,-70.8 780.16,-77.62"/>
</g>
<!-- Node11 -->
<g id="node11" class="node">
<title>Node11</title>
<g id="a_node11"><a xlink:href="classNetwork.html#a223d8aca05065fb5a5c80b119c077831" target="_top" xlink:title="starts the shutdown mechanism of the network operations">
<polygon fill="white" stroke="black" points="790.5,-38.5 790.5,-57.5 875.5,-57.5 875.5,-38.5 790.5,-38.5"/>
<text text-anchor="middle" x="833" y="-45.5" font-family="Helvetica,sans-Serif" font-size="10.00">Network::stop</text>
</a>
</g>
</g>
<!-- Node9&#45;&gt;Node11 -->
<g id="edge11" class="edge">
<title>Node9&#45;&gt;Node11</title>
<path fill="none" stroke="midnightblue" d="M705.24,-48C727.48,-48 755.94,-48 780.26,-48"/>
<polygon fill="midnightblue" stroke="midnightblue" points="780.39,-51.5 790.39,-48 780.39,-44.5 780.39,-51.5"/>
</g>
<!-- Node13 -->
<g id="node13" class="node">
<title>Node13</title>
<g id="a_node13"><a xlink:href="classGameState.html#a77597717c0d0b6d4e93c7f299cf3f315" target="_top" xlink:title=" ">
<polygon fill="white" stroke="black" points="779.5,-0.5 779.5,-19.5 886.5,-19.5 886.5,-0.5 779.5,-0.5"/>
<text text-anchor="middle" x="833" y="-7.5" font-family="Helvetica,sans-Serif" font-size="10.00">GameState::toJson</text>
</a>
</g>
</g>
<!-- Node12&#45;&gt;Node13 -->
<g id="edge13" class="edge">
<title>Node12&#45;&gt;Node13</title>
<path fill="none" stroke="midnightblue" d="M709.86,-10C727.94,-10 749.41,-10 769.27,-10"/>
<polygon fill="midnightblue" stroke="midnightblue" points="769.48,-13.5 779.48,-10 769.48,-6.5 769.48,-13.5"/>
</g>
</g>
</svg>
