<?xml version="1.0" encoding="UTF-8" standalone="no"?>
<!DOCTYPE svg PUBLIC "-//W3C//DTD SVG 1.1//EN"
 "http://www.w3.org/Graphics/SVG/1.1/DTD/svg11.dtd">
<!-- Generated by graphviz version 2.42.3 (0)
 -->
<!-- Title: GameGen::markAsOccupied Pages: 1 -->
<svg width="952pt" height="110pt"
 viewBox="0.00 0.00 952.00 109.50" xmlns="http://www.w3.org/2000/svg" xmlns:xlink="http://www.w3.org/1999/xlink">
<g id="graph0" class="graph" transform="scale(1 1) rotate(0) translate(4 105.5)">
<title>GameGen::markAsOccupied</title>
<polygon fill="white" stroke="transparent" points="-4,4 -4,-105.5 948,-105.5 948,4 -4,4"/>
<!-- Node1 -->
<g id="node1" class="node">
<title>Node1</title>
<g id="a_node1"><a xlink:title=" ">
<polygon fill="#bfbfbf" stroke="black" points="790,-44 790,-63 944,-63 944,-44 790,-44"/>
<text text-anchor="middle" x="867" y="-51" font-family="Helvetica,sans-Serif" font-size="10.00">GameGen::markAsOccupied</text>
</a>
</g>
</g>
<!-- Node2 -->
<g id="node2" class="node">
<title>Node2</title>
<g id="a_node2"><a xlink:href="classGameGen.html#a4d7754bc07fc51f98c7d1855f242cb6d" target="_top" xlink:title=" ">
<polygon fill="white" stroke="black" points="597,-82 597,-101 754,-101 754,-82 597,-82"/>
<text text-anchor="middle" x="675.5" y="-89" font-family="Helvetica,sans-Serif" font-size="10.00">GameGen::addFieldToGalaxy</text>
</a>
</g>
</g>
<!-- Node1&#45;&gt;Node2 -->
<g id="edge1" class="edge">
<title>Node1&#45;&gt;Node2</title>
<path fill="none" stroke="midnightblue" d="M808.11,-65.11C781.15,-70.51 749.49,-76.86 723.97,-81.98"/>
<polygon fill="midnightblue" stroke="midnightblue" points="809.06,-68.49 818.18,-63.09 807.69,-61.62 809.06,-68.49"/>
</g>
<!-- Node3 -->
<g id="node3" class="node">
<title>Node3</title>
<g id="a_node3"><a xlink:href="classGameGen.html#a7f1de577fbe021ce42b1851ce313a53c" target="_top" xlink:title=" ">
<polygon fill="white" stroke="black" points="370,-50 370,-69 561,-69 561,-50 370,-50"/>
<text text-anchor="middle" x="465.5" y="-57" font-family="Helvetica,sans-Serif" font-size="10.00">GameGen::generateGalaxyFromDot</text>
</a>
</g>
</g>
<!-- Node1&#45;&gt;Node3 -->
<g id="edge5" class="edge">
<title>Node1&#45;&gt;Node3</title>
<path fill="none" stroke="midnightblue" d="M779.8,-54.79C715.48,-55.76 627.64,-57.08 561.34,-58.08"/>
<polygon fill="midnightblue" stroke="midnightblue" points="779.97,-58.29 789.92,-54.64 779.87,-51.29 779.97,-58.29"/>
</g>
<!-- Node6 -->
<g id="node6" class="node">
<title>Node6</title>
<g id="a_node6"><a xlink:href="classGameGen.html#a0ac01e2e7044e85842deff2d1925138f" target="_top" xlink:title=" ">
<polygon fill="white" stroke="black" points="385,-0.5 385,-30.5 546,-30.5 546,-0.5 385,-0.5"/>
<text text-anchor="start" x="393" y="-18.5" font-family="Helvetica,sans-Serif" font-size="10.00">GameGen::generateNextDots</text>
<text text-anchor="middle" x="465.5" y="-7.5" font-family="Helvetica,sans-Serif" font-size="10.00">ByPattern</text>
</a>
</g>
</g>
<!-- Node1&#45;&gt;Node6 -->
<g id="edge6" class="edge">
<title>Node1&#45;&gt;Node6</title>
<path fill="none" stroke="midnightblue" d="M779.88,-45.31C710.48,-38.71 613.66,-29.5 546.06,-23.07"/>
<polygon fill="midnightblue" stroke="midnightblue" points="779.63,-48.8 789.92,-46.26 780.29,-41.83 779.63,-48.8"/>
</g>
<!-- Node2&#45;&gt;Node3 -->
<g id="edge2" class="edge">
<title>Node2&#45;&gt;Node3</title>
<path fill="none" stroke="midnightblue" d="M602.5,-80.42C578.39,-76.71 551.74,-72.61 528.46,-69.03"/>
<polygon fill="midnightblue" stroke="midnightblue" points="602.24,-83.92 612.66,-81.99 603.3,-77.01 602.24,-83.92"/>
</g>
<!-- Node4 -->
<g id="node4" class="node">
<title>Node4</title>
<g id="a_node4"><a xlink:href="classGameGen.html#a60f3a45a60360c377d1868fbbbed27ff" target="_top" xlink:title=" ">
<polygon fill="white" stroke="black" points="173,-28 173,-47 334,-47 334,-28 173,-28"/>
<text text-anchor="middle" x="253.5" y="-35" font-family="Helvetica,sans-Serif" font-size="10.00">GameGen::generateNextDots</text>
</a>
</g>
</g>
<!-- Node3&#45;&gt;Node4 -->
<g id="edge3" class="edge">
<title>Node3&#45;&gt;Node4</title>
<path fill="none" stroke="midnightblue" d="M363.45,-48.91C353.67,-47.89 343.84,-46.86 334.31,-45.86"/>
<polygon fill="midnightblue" stroke="midnightblue" points="363.3,-52.42 373.61,-49.98 364.03,-45.46 363.3,-52.42"/>
</g>
<!-- Node5 -->
<g id="node5" class="node">
<title>Node5</title>
<g id="a_node5"><a xlink:href="classGameGen.html#a0ce6a9241bfbb198b0ba80ed8ea306eb" target="_top" xlink:title=" ">
<polygon fill="white" stroke="black" points="0,-28 0,-47 137,-47 137,-28 0,-28"/>
<text text-anchor="middle" x="68.5" y="-35" font-family="Helvetica,sans-Serif" font-size="10.00">GameGen::generateDots</text>
</a>
</g>
</g>
<!-- Node4&#45;&gt;Node5 -->
<g id="edge4" class="edge">
<title>Node4&#45;&gt;Node5</title>
<path fill="none" stroke="midnightblue" d="M162.72,-37.5C154.15,-37.5 145.55,-37.5 137.23,-37.5"/>
<polygon fill="midnightblue" stroke="midnightblue" points="162.77,-41 172.77,-37.5 162.77,-34 162.77,-41"/>
</g>
<!-- Node6&#45;&gt;Node4 -->
<g id="edge7" class="edge">
<title>Node6&#45;&gt;Node4</title>
<path fill="none" stroke="midnightblue" d="M374.6,-24.92C361.15,-26.33 347.36,-27.77 334.14,-29.16"/>
<polygon fill="midnightblue" stroke="midnightblue" points="375.23,-28.37 384.81,-23.85 374.5,-21.41 375.23,-28.37"/>
</g>
</g>
</svg>
