<?xml version="1.0" encoding="UTF-8" standalone="no"?>
<!DOCTYPE svg PUBLIC "-//W3C//DTD SVG 1.1//EN"
 "http://www.w3.org/Graphics/SVG/1.1/DTD/svg11.dtd">
<!-- Generated by graphviz version 2.42.3 (0)
 -->
<!-- Title: Network Pages: 1 -->
<svg width="2649pt" height="499pt"
 viewBox="0.00 0.00 2649.00 498.50" xmlns="http://www.w3.org/2000/svg" xmlns:xlink="http://www.w3.org/1999/xlink">
<g id="graph0" class="graph" transform="scale(1 1) rotate(0) translate(4 494.5)">
<title>Network</title>
<polygon fill="white" stroke="transparent" points="-4,4 -4,-494.5 2645,-494.5 2645,4 -4,4"/>
<!-- Node1 -->
<g id="node1" class="node">
<title>Node1</title>
<g id="a_node1"><a xlink:title=" ">
<polygon fill="#bfbfbf" stroke="black" points="2380,-424 2380,-443 2438,-443 2438,-424 2380,-424"/>
<text text-anchor="middle" x="2409" y="-431" font-family="Helvetica,sans-Serif" font-size="10.00">Network</text>
</a>
</g>
</g>
<!-- Node6 -->
<g id="node6" class="node">
<title>Node6</title>
<g id="a_node6"><a xlink:href="classGalaxy.html" target="_top" xlink:title=" ">
<polygon fill="white" stroke="black" points="2590,-356 2590,-375 2641,-375 2641,-356 2590,-356"/>
<text text-anchor="middle" x="2615.5" y="-363" font-family="Helvetica,sans-Serif" font-size="10.00">Galaxy</text>
</a>
</g>
</g>
<!-- Node1&#45;&gt;Node6 -->
<g id="edge9" class="edge">
<title>Node1&#45;&gt;Node6</title>
<path fill="none" stroke="#9a32cd" stroke-dasharray="5,2" d="M2443.59,-420.38C2461.44,-413.56 2483.8,-405.27 2504,-398.5 2519.95,-393.16 2562.55,-380.61 2589.96,-372.62"/>
<polygon fill="#9a32cd" stroke="#9a32cd" points="2442.27,-417.14 2434.19,-423.99 2444.78,-423.67 2442.27,-417.14"/>
<text text-anchor="middle" x="2538" y="-401.5" font-family="Helvetica,sans-Serif" font-size="10.00"> net</text>
</g>
<!-- Node2 -->
<g id="node2" class="node">
<title>Node2</title>
<g id="a_node2"><a xlink:title="STL class.">
<polygon fill="white" stroke="#bfbfbf" points="2105,-471 2105,-490 2174,-490 2174,-471 2105,-471"/>
<text text-anchor="middle" x="2139.5" y="-478" font-family="Helvetica,sans-Serif" font-size="10.00">std::mutex</text>
</a>
</g>
</g>
<!-- Node2&#45;&gt;Node1 -->
<g id="edge1" class="edge">
<title>Node2&#45;&gt;Node1</title>
<path fill="none" stroke="#9a32cd" stroke-dasharray="5,2" d="M2184.11,-474.39C2219.27,-469.31 2269.93,-461.61 2314,-453.5 2336.15,-449.42 2361.08,-444.08 2379.7,-439.95"/>
<polygon fill="#9a32cd" stroke="#9a32cd" points="2183.58,-470.94 2174.18,-475.82 2184.57,-477.86 2183.58,-470.94"/>
<text text-anchor="middle" x="2271.5" y="-469.5" font-family="Helvetica,sans-Serif" font-size="10.00"> message_mutex</text>
</g>
<!-- Node3 -->
<g id="node3" class="node">
<title>Node3</title>
<g id="a_node3"><a xlink:title=" ">
<polygon fill="white" stroke="#bfbfbf" points="2068,-433 2068,-452 2211,-452 2211,-433 2068,-433"/>
<text text-anchor="middle" x="2139.5" y="-440" font-family="Helvetica,sans-Serif" font-size="10.00">std::queue&lt; message_t &gt;</text>
</a>
</g>
</g>
<!-- Node3&#45;&gt;Node1 -->
<g id="edge2" class="edge">
<title>Node3&#45;&gt;Node1</title>
<path fill="none" stroke="#9a32cd" stroke-dasharray="5,2" d="M2221.36,-439.78C2275.22,-437.97 2342.71,-435.7 2379.99,-434.44"/>
<polygon fill="#9a32cd" stroke="#9a32cd" points="2221.01,-436.29 2211.13,-440.12 2221.24,-443.29 2221.01,-436.29"/>
<text text-anchor="middle" x="2271.5" y="-441.5" font-family="Helvetica,sans-Serif" font-size="10.00"> to_process</text>
</g>
<!-- Node4 -->
<g id="node4" class="node">
<title>Node4</title>
<g id="a_node4"><a xlink:href="structmessage__t.html" target="_top" xlink:title=" ">
<polygon fill="white" stroke="black" points="1883.5,-433 1883.5,-452 1953.5,-452 1953.5,-433 1883.5,-433"/>
<text text-anchor="middle" x="1918.5" y="-440" font-family="Helvetica,sans-Serif" font-size="10.00">message_t</text>
</a>
</g>
</g>
<!-- Node4&#45;&gt;Node3 -->
<g id="edge3" class="edge">
<title>Node4&#45;&gt;Node3</title>
<path fill="none" stroke="#9a32cd" stroke-dasharray="5,2" d="M1963.82,-442.5C1993.67,-442.5 2033.66,-442.5 2067.85,-442.5"/>
<polygon fill="#9a32cd" stroke="#9a32cd" points="1963.72,-439 1953.72,-442.5 1963.72,-446 1963.72,-439"/>
<text text-anchor="middle" x="2025.5" y="-445.5" font-family="Helvetica,sans-Serif" font-size="10.00"> elements</text>
</g>
<!-- Node5 -->
<g id="node5" class="node">
<title>Node5</title>
<g id="a_node5"><a xlink:title="STL class.">
<polygon fill="white" stroke="#bfbfbf" points="2105,-395 2105,-414 2174,-414 2174,-395 2105,-395"/>
<text text-anchor="middle" x="2139.5" y="-402" font-family="Helvetica,sans-Serif" font-size="10.00">std::thread</text>
</a>
</g>
</g>
<!-- Node5&#45;&gt;Node1 -->
<g id="edge4" class="edge">
<title>Node5&#45;&gt;Node1</title>
<path fill="none" stroke="#9a32cd" stroke-dasharray="5,2" d="M2184.49,-408.45C2219.59,-411.69 2269.98,-416.53 2314,-421.5 2336.07,-423.99 2361,-427.19 2379.64,-429.66"/>
<polygon fill="#9a32cd" stroke="#9a32cd" points="2184.39,-404.93 2174.12,-407.5 2183.75,-411.9 2184.39,-404.93"/>
<text text-anchor="middle" x="2271.5" y="-424.5" font-family="Helvetica,sans-Serif" font-size="10.00"> process_thread</text>
</g>
<!-- Node6&#45;&gt;Node1 -->
<g id="edge5" class="edge">
<title>Node6&#45;&gt;Node1</title>
<path fill="none" stroke="#9a32cd" stroke-dasharray="5,2" d="M2602.62,-383.54C2595.07,-393.46 2584.41,-405.04 2572,-411.5 2529.2,-433.78 2471.81,-436.17 2438.07,-435.26"/>
<polygon fill="#9a32cd" stroke="#9a32cd" points="2605.69,-385.26 2608.63,-375.08 2599.98,-381.2 2605.69,-385.26"/>
<text text-anchor="middle" x="2538" y="-434.5" font-family="Helvetica,sans-Serif" font-size="10.00"> galaxy</text>
</g>
<!-- Node7 -->
<g id="node7" class="node">
<title>Node7</title>
<g id="a_node7"><a xlink:title=" ">
<polygon fill="white" stroke="#bfbfbf" points="2332,-353 2332,-394 2486,-394 2486,-353 2332,-353"/>
<text text-anchor="start" x="2340" y="-382" font-family="Helvetica,sans-Serif" font-size="10.00">std::map&lt; web_con,</text>
<text text-anchor="start" x="2340" y="-371" font-family="Helvetica,sans-Serif" font-size="10.00"> shared_player, std</text>
<text text-anchor="middle" x="2409" y="-360" font-family="Helvetica,sans-Serif" font-size="10.00">::owner_less&lt; web_con &gt; &gt;</text>
</a>
</g>
</g>
<!-- Node7&#45;&gt;Node6 -->
<g id="edge6" class="edge">
<title>Node7&#45;&gt;Node6</title>
<path fill="none" stroke="#9a32cd" stroke-dasharray="5,2" d="M2496.28,-366.85C2498.88,-366.72 2501.46,-366.61 2504,-366.5 2533.52,-365.27 2567.51,-365.16 2589.91,-365.26"/>
<polygon fill="#9a32cd" stroke="#9a32cd" points="2495.95,-363.37 2486.16,-367.41 2496.34,-370.36 2495.95,-363.37"/>
<text text-anchor="middle" x="2538" y="-369.5" font-family="Helvetica,sans-Serif" font-size="10.00"> players</text>
</g>
<!-- Node8 -->
<g id="node8" class="node">
<title>Node8</title>
<g id="a_node8"><a xlink:title="STL class.">
<polygon fill="white" stroke="#bfbfbf" points="2080.5,-357 2080.5,-376 2198.5,-376 2198.5,-357 2080.5,-357"/>
<text text-anchor="middle" x="2139.5" y="-364" font-family="Helvetica,sans-Serif" font-size="10.00">std::shared_ptr&lt; T &gt;</text>
</a>
</g>
</g>
<!-- Node8&#45;&gt;Node7 -->
<g id="edge7" class="edge">
<title>Node8&#45;&gt;Node7</title>
<path fill="none" stroke="#9a32cd" stroke-dasharray="5,2" d="M2208.88,-368.29C2246.42,-369.27 2293.07,-370.49 2331.78,-371.51"/>
<polygon fill="#9a32cd" stroke="#9a32cd" points="2208.63,-364.78 2198.54,-368.02 2208.45,-371.78 2208.63,-364.78"/>
<text text-anchor="middle" x="2271.5" y="-373.5" font-family="Helvetica,sans-Serif" font-size="10.00"> elements</text>
</g>
<!-- Node9 -->
<g id="node9" class="node">
<title>Node9</title>
<g id="a_node9"><a xlink:title=" ">
<polygon fill="white" stroke="#bfbfbf" points="1904,-357 1904,-376 1933,-376 1933,-357 1904,-357"/>
<text text-anchor="middle" x="1918.5" y="-364" font-family="Helvetica,sans-Serif" font-size="10.00">T</text>
</a>
</g>
</g>
<!-- Node9&#45;&gt;Node8 -->
<g id="edge8" class="edge">
<title>Node9&#45;&gt;Node8</title>
<path fill="none" stroke="#9a32cd" stroke-dasharray="5,2" d="M1943.58,-366.5C1976.27,-366.5 2035.74,-366.5 2080.43,-366.5"/>
<polygon fill="#9a32cd" stroke="#9a32cd" points="1943.2,-363 1933.2,-366.5 1943.2,-370 1943.2,-363"/>
<text text-anchor="middle" x="2025.5" y="-369.5" font-family="Helvetica,sans-Serif" font-size="10.00"> ptr</text>
</g>
<!-- Node10 -->
<g id="node10" class="node">
<title>Node10</title>
<g id="a_node10"><a xlink:title=" ">
<polygon fill="white" stroke="#bfbfbf" points="985,-312 985,-331 1126,-331 1126,-312 985,-312"/>
<text text-anchor="middle" x="1055.5" y="-319" font-family="Helvetica,sans-Serif" font-size="10.00">std::list&lt; GameChange &gt;</text>
</a>
</g>
</g>
<!-- Node10&#45;&gt;Node6 -->
<g id="edge10" class="edge">
<title>Node10&#45;&gt;Node6</title>
<path fill="none" stroke="#9a32cd" stroke-dasharray="5,2" d="M1136.23,-323.62C1160.85,-324.11 1188.04,-324.5 1213,-324.5 1213,-324.5 1213,-324.5 2410,-324.5 2476.08,-324.5 2551.88,-345.34 2589.95,-357.3"/>
<polygon fill="#9a32cd" stroke="#9a32cd" points="1136.29,-320.12 1126.22,-323.41 1136.14,-327.12 1136.29,-320.12"/>
<text text-anchor="middle" x="1782.5" y="-327.5" font-family="Helvetica,sans-Serif" font-size="10.00"> history</text>
</g>
<!-- Node11 -->
<g id="node11" class="node">
<title>Node11</title>
<g id="a_node11"><a xlink:href="classGameChange.html" target="_top" xlink:title=" ">
<polygon fill="white" stroke="black" points="628,-234 628,-253 711,-253 711,-234 628,-234"/>
<text text-anchor="middle" x="669.5" y="-241" font-family="Helvetica,sans-Serif" font-size="10.00">GameChange</text>
</a>
</g>
</g>
<!-- Node11&#45;&gt;Node10 -->
<g id="edge11" class="edge">
<title>Node11&#45;&gt;Node10</title>
<path fill="none" stroke="#9a32cd" stroke-dasharray="5,2" d="M687.25,-260.48C698.16,-270.43 713.25,-282.24 729,-288.5 812.53,-321.7 917.17,-326.47 984.9,-325.26"/>
<polygon fill="#9a32cd" stroke="#9a32cd" points="689.43,-257.73 679.78,-253.36 684.6,-262.8 689.43,-257.73"/>
<text text-anchor="middle" x="753.5" y="-307.5" font-family="Helvetica,sans-Serif" font-size="10.00"> elements</text>
</g>
<!-- Node16 -->
<g id="node16" class="node">
<title>Node16</title>
<g id="a_node16"><a xlink:title=" ">
<polygon fill="white" stroke="#bfbfbf" points="796,-110 796,-129 967,-129 967,-110 796,-110"/>
<text text-anchor="middle" x="881.5" y="-117" font-family="Helvetica,sans-Serif" font-size="10.00">std::weak_ptr&lt; GameChange &gt;</text>
</a>
</g>
</g>
<!-- Node11&#45;&gt;Node16 -->
<g id="edge17" class="edge">
<title>Node11&#45;&gt;Node16</title>
<path fill="none" stroke="#9a32cd" stroke-dasharray="5,2" d="M689.97,-227.59C713.9,-208.54 756.23,-176.47 796,-154.5 814.35,-144.36 836.24,-135.37 853.14,-129.05"/>
<polygon fill="#9a32cd" stroke="#9a32cd" points="687.63,-224.98 682.03,-233.97 692.01,-230.44 687.63,-224.98"/>
<text text-anchor="middle" x="753.5" y="-201.5" font-family="Helvetica,sans-Serif" font-size="10.00"> ptr</text>
</g>
<!-- Node12 -->
<g id="node12" class="node">
<title>Node12</title>
<g id="a_node12"><a xlink:title=" ">
<polygon fill="white" stroke="#bfbfbf" points="401,-250.5 401,-280.5 558,-280.5 558,-250.5 401,-250.5"/>
<text text-anchor="start" x="409" y="-268.5" font-family="Helvetica,sans-Serif" font-size="10.00">std::enable_shared</text>
<text text-anchor="middle" x="479.5" y="-257.5" font-family="Helvetica,sans-Serif" font-size="10.00">_from_this&lt; GameChange &gt;</text>
</a>
</g>
</g>
<!-- Node12&#45;&gt;Node11 -->
<g id="edge12" class="edge">
<title>Node12&#45;&gt;Node11</title>
<path fill="none" stroke="midnightblue" d="M568.23,-255.23C589.08,-252.79 610.34,-250.31 627.89,-248.25"/>
<polygon fill="midnightblue" stroke="midnightblue" points="567.58,-251.79 558.05,-256.42 568.39,-258.74 567.58,-251.79"/>
</g>
<!-- Node13 -->
<g id="node13" class="node">
<title>Node13</title>
<g id="a_node13"><a xlink:title=" ">
<polygon fill="white" stroke="#bfbfbf" points="1245,-54 1245,-73 1379,-73 1379,-54 1245,-54"/>
<text text-anchor="middle" x="1312" y="-61" font-family="Helvetica,sans-Serif" font-size="10.00">std::shared_ptr&lt; Field &gt;</text>
</a>
</g>
</g>
<!-- Node13&#45;&gt;Node11 -->
<g id="edge13" class="edge">
<title>Node13&#45;&gt;Node11</title>
<path fill="none" stroke="#9a32cd" stroke-dasharray="5,2" d="M1234.55,-53.57C1130.52,-43.41 940.77,-36.96 796,-100.5 732.79,-128.25 689.14,-206 675.25,-233.62"/>
<polygon fill="#9a32cd" stroke="#9a32cd" points="1234.35,-57.07 1244.65,-54.59 1235.05,-50.1 1234.35,-57.07"/>
<text text-anchor="middle" x="1055.5" y="-56.5" font-family="Helvetica,sans-Serif" font-size="10.00"> affected_field</text>
</g>
<!-- Node19 -->
<g id="node19" class="node">
<title>Node19</title>
<g id="a_node19"><a xlink:title=" ">
<polygon fill="white" stroke="#bfbfbf" points="1476,-88 1476,-107 1601,-107 1601,-88 1476,-88"/>
<text text-anchor="middle" x="1538.5" y="-95" font-family="Helvetica,sans-Serif" font-size="10.00">std::set&lt; field_ptr_t &gt;</text>
</a>
</g>
</g>
<!-- Node13&#45;&gt;Node19 -->
<g id="edge22" class="edge">
<title>Node13&#45;&gt;Node19</title>
<path fill="none" stroke="#9a32cd" stroke-dasharray="5,2" d="M1385.92,-74.54C1414.97,-78.94 1448.03,-83.95 1475.85,-88.16"/>
<polygon fill="#9a32cd" stroke="#9a32cd" points="1386.25,-71.05 1375.83,-73.02 1385.2,-77.97 1386.25,-71.05"/>
<text text-anchor="middle" x="1421.5" y="-87.5" font-family="Helvetica,sans-Serif" font-size="10.00"> keys</text>
</g>
<!-- Node26 -->
<g id="node26" class="node">
<title>Node26</title>
<g id="a_node26"><a xlink:title=" ">
<polygon fill="white" stroke="#bfbfbf" points="1464,-0.5 1464,-30.5 1613,-30.5 1613,-0.5 1464,-0.5"/>
<text text-anchor="start" x="1472" y="-18.5" font-family="Helvetica,sans-Serif" font-size="10.00">std::map&lt; pos_type,</text>
<text text-anchor="middle" x="1538.5" y="-7.5" font-family="Helvetica,sans-Serif" font-size="10.00"> std::shared_ptr&lt; Field &gt; &gt;</text>
</a>
</g>
</g>
<!-- Node13&#45;&gt;Node26 -->
<g id="edge31" class="edge">
<title>Node13&#45;&gt;Node26</title>
<path fill="none" stroke="#9a32cd" stroke-dasharray="5,2" d="M1342.15,-49.81C1358.03,-42.93 1378.22,-35.1 1397,-30.5 1418.44,-25.24 1442.17,-21.83 1463.93,-19.61"/>
<polygon fill="#9a32cd" stroke="#9a32cd" points="1340.59,-46.68 1332.87,-53.94 1343.43,-53.07 1340.59,-46.68"/>
<text text-anchor="middle" x="1421.5" y="-33.5" font-family="Helvetica,sans-Serif" font-size="10.00"> elements</text>
</g>
<!-- Node29 -->
<g id="node29" class="node">
<title>Node29</title>
<g id="a_node29"><a xlink:title=" ">
<polygon fill="white" stroke="#bfbfbf" points="1631,-43 1631,-84 1746,-84 1746,-43 1631,-43"/>
<text text-anchor="start" x="1639" y="-72" font-family="Helvetica,sans-Serif" font-size="10.00">std::map&lt; unsigned</text>
<text text-anchor="start" x="1639" y="-61" font-family="Helvetica,sans-Serif" font-size="10.00"> int, std::shared_ptr</text>
<text text-anchor="middle" x="1688.5" y="-50" font-family="Helvetica,sans-Serif" font-size="10.00">&lt; Field &gt; &gt;</text>
</a>
</g>
</g>
<!-- Node13&#45;&gt;Node29 -->
<g id="edge39" class="edge">
<title>Node13&#45;&gt;Node29</title>
<path fill="none" stroke="#9a32cd" stroke-dasharray="5,2" d="M1389.23,-62.55C1391.85,-62.53 1394.45,-62.52 1397,-62.5 1478.32,-62.02 1572.46,-62.54 1630.99,-62.99"/>
<polygon fill="#9a32cd" stroke="#9a32cd" points="1389,-59.05 1379.03,-62.64 1389.06,-66.05 1389,-59.05"/>
<text text-anchor="middle" x="1421.5" y="-65.5" font-family="Helvetica,sans-Serif" font-size="10.00"> elements</text>
</g>
<!-- Node14 -->
<g id="node14" class="node">
<title>Node14</title>
<g id="a_node14"><a xlink:href="classField.html" target="_top" xlink:title=" ">
<polygon fill="white" stroke="black" points="1144,-130 1144,-149 1183,-149 1183,-130 1144,-130"/>
<text text-anchor="middle" x="1163.5" y="-137" font-family="Helvetica,sans-Serif" font-size="10.00">Field</text>
</a>
</g>
</g>
<!-- Node14&#45;&gt;Node13 -->
<g id="edge14" class="edge">
<title>Node14&#45;&gt;Node13</title>
<path fill="none" stroke="#9a32cd" stroke-dasharray="5,2" d="M1189.43,-124.9C1193.28,-122.72 1197.23,-120.52 1201,-118.5 1232.04,-101.83 1268.76,-83.8 1290.95,-73.09"/>
<polygon fill="#9a32cd" stroke="#9a32cd" points="1187.67,-121.87 1180.74,-129.89 1191.15,-127.95 1187.67,-121.87"/>
<text text-anchor="middle" x="1214" y="-121.5" font-family="Helvetica,sans-Serif" font-size="10.00"> ptr</text>
</g>
<!-- Node15 -->
<g id="node15" class="node">
<title>Node15</title>
<g id="a_node15"><a xlink:href="structpos__type.html" target="_top" xlink:title=" ">
<polygon fill="white" stroke="black" points="851,-164 851,-183 912,-183 912,-164 851,-164"/>
<text text-anchor="middle" x="881.5" y="-171" font-family="Helvetica,sans-Serif" font-size="10.00">pos_type</text>
</a>
</g>
</g>
<!-- Node15&#45;&gt;Node14 -->
<g id="edge15" class="edge">
<title>Node15&#45;&gt;Node14</title>
<path fill="none" stroke="#9a32cd" stroke-dasharray="5,2" d="M922.28,-168.67C983.62,-161.22 1098.91,-147.22 1143.88,-141.76"/>
<polygon fill="#9a32cd" stroke="#9a32cd" points="921.7,-165.21 912.2,-169.89 922.55,-172.16 921.7,-165.21"/>
<text text-anchor="middle" x="1055.5" y="-164.5" font-family="Helvetica,sans-Serif" font-size="10.00"> position</text>
</g>
<!-- Node18 -->
<g id="node18" class="node">
<title>Node18</title>
<g id="a_node18"><a xlink:href="classDot.html" target="_top" xlink:title=" ">
<polygon fill="white" stroke="black" points="1765.5,-176 1765.5,-195 1799.5,-195 1799.5,-176 1765.5,-176"/>
<text text-anchor="middle" x="1782.5" y="-183" font-family="Helvetica,sans-Serif" font-size="10.00">Dot</text>
</a>
</g>
</g>
<!-- Node15&#45;&gt;Node18 -->
<g id="edge20" class="edge">
<title>Node15&#45;&gt;Node18</title>
<path fill="none" stroke="#9a32cd" stroke-dasharray="5,2" d="M922.54,-177.23C976.85,-181.96 1076.91,-189.5 1162.5,-189.5 1162.5,-189.5 1162.5,-189.5 1539.5,-189.5 1624.59,-189.5 1726.49,-187 1765.36,-185.95"/>
<polygon fill="#9a32cd" stroke="#9a32cd" points="922.57,-173.72 912.3,-176.32 921.96,-180.69 922.57,-173.72"/>
<text text-anchor="middle" x="1312" y="-192.5" font-family="Helvetica,sans-Serif" font-size="10.00"> position</text>
</g>
<!-- Node15&#45;&gt;Node26 -->
<g id="edge32" class="edge">
<title>Node15&#45;&gt;Node26</title>
<path fill="none" stroke="#9a32cd" stroke-dasharray="5,2" d="M921.65,-160.81C940.74,-154.64 964.06,-147.14 985,-140.5 1047.58,-120.66 1064.5,-119.46 1126,-96.5 1180.07,-76.32 1189.7,-61.04 1245,-44.5 1310.66,-24.86 1328.77,-25.03 1397,-18.5 1418.62,-16.43 1442.18,-15.44 1463.73,-15.02"/>
<polygon fill="#9a32cd" stroke="#9a32cd" points="920.52,-157.49 912.08,-163.9 922.67,-164.15 920.52,-157.49"/>
<text text-anchor="middle" x="1214" y="-64.5" font-family="Helvetica,sans-Serif" font-size="10.00"> keys</text>
</g>
<!-- Node28 -->
<g id="node28" class="node">
<title>Node28</title>
<g id="a_node28"><a xlink:title=" ">
<polygon fill="white" stroke="#bfbfbf" points="2068,-195.5 2068,-225.5 2211,-225.5 2211,-195.5 2068,-195.5"/>
<text text-anchor="start" x="2076" y="-213.5" font-family="Helvetica,sans-Serif" font-size="10.00">std::map&lt; pos_type,</text>
<text text-anchor="middle" x="2139.5" y="-202.5" font-family="Helvetica,sans-Serif" font-size="10.00"> std::shared_ptr&lt; Dot &gt; &gt;</text>
</a>
</g>
</g>
<!-- Node15&#45;&gt;Node28 -->
<g id="edge36" class="edge">
<title>Node15&#45;&gt;Node28</title>
<path fill="none" stroke="#9a32cd" stroke-dasharray="5,2" d="M921.08,-185.98C940.11,-191.53 963.53,-197.49 985,-200.5 1432.29,-263.13 1549.37,-216.83 2001,-221.5 2022.78,-221.73 2028.26,-222.85 2050,-221.5 2055.72,-221.15 2061.63,-220.66 2067.56,-220.1"/>
<polygon fill="#9a32cd" stroke="#9a32cd" points="921.87,-182.56 911.29,-183.04 919.86,-189.27 921.87,-182.56"/>
<text text-anchor="middle" x="1538.5" y="-236.5" font-family="Helvetica,sans-Serif" font-size="10.00"> keys</text>
</g>
<!-- Node16&#45;&gt;Node14 -->
<g id="edge16" class="edge">
<title>Node16&#45;&gt;Node14</title>
<path fill="none" stroke="#9a32cd" stroke-dasharray="5,2" d="M977.27,-109.59C1022.86,-107.41 1077.92,-108.63 1126,-120.5 1133.63,-122.38 1141.44,-126.16 1147.87,-129.85"/>
<polygon fill="#9a32cd" stroke="#9a32cd" points="976.89,-106.1 967.1,-110.14 977.27,-113.09 976.89,-106.1"/>
<text text-anchor="middle" x="1055.5" y="-123.5" font-family="Helvetica,sans-Serif" font-size="10.00"> last_change</text>
</g>
<!-- Node17 -->
<g id="node17" class="node">
<title>Node17</title>
<g id="a_node17"><a xlink:title=" ">
<polygon fill="white" stroke="#bfbfbf" points="1857.5,-143 1857.5,-162 1979.5,-162 1979.5,-143 1857.5,-143"/>
<text text-anchor="middle" x="1918.5" y="-150" font-family="Helvetica,sans-Serif" font-size="10.00">std::weak_ptr&lt; Dot &gt;</text>
</a>
</g>
</g>
<!-- Node17&#45;&gt;Node14 -->
<g id="edge18" class="edge">
<title>Node17&#45;&gt;Node14</title>
<path fill="none" stroke="#9a32cd" stroke-dasharray="5,2" d="M1847,-145.99C1826.54,-144.58 1804.14,-143.5 1783.5,-143.5 1311,-143.5 1311,-143.5 1311,-143.5 1265.2,-143.5 1211.38,-141.52 1183.46,-140.35"/>
<polygon fill="#9a32cd" stroke="#9a32cd" points="1846.96,-149.49 1857.19,-146.72 1847.47,-142.51 1846.96,-149.49"/>
<text text-anchor="middle" x="1538.5" y="-146.5" font-family="Helvetica,sans-Serif" font-size="10.00"> assigned_dot</text>
</g>
<!-- Node18&#45;&gt;Node17 -->
<g id="edge19" class="edge">
<title>Node18&#45;&gt;Node17</title>
<path fill="none" stroke="#9a32cd" stroke-dasharray="5,2" d="M1809.56,-178.01C1812.73,-177.15 1815.94,-176.29 1819,-175.5 1837.2,-170.82 1857.39,-166.03 1874.73,-162.04"/>
<polygon fill="#9a32cd" stroke="#9a32cd" points="1808.41,-174.7 1799.72,-180.77 1810.29,-181.44 1808.41,-174.7"/>
<text text-anchor="middle" x="1827.5" y="-178.5" font-family="Helvetica,sans-Serif" font-size="10.00"> ptr</text>
</g>
<!-- Node20 -->
<g id="node20" class="node">
<title>Node20</title>
<g id="a_node20"><a xlink:title=" ">
<polygon fill="white" stroke="#bfbfbf" points="1854,-189 1854,-208 1983,-208 1983,-189 1854,-189"/>
<text text-anchor="middle" x="1918.5" y="-196" font-family="Helvetica,sans-Serif" font-size="10.00">std::shared_ptr&lt; Dot &gt;</text>
</a>
</g>
</g>
<!-- Node18&#45;&gt;Node20 -->
<g id="edge24" class="edge">
<title>Node18&#45;&gt;Node20</title>
<path fill="none" stroke="#9a32cd" stroke-dasharray="5,2" d="M1809.9,-188.06C1822.56,-189.29 1838.32,-190.82 1853.84,-192.32"/>
<polygon fill="#9a32cd" stroke="#9a32cd" points="1809.95,-184.55 1799.66,-187.07 1809.28,-191.52 1809.95,-184.55"/>
<text text-anchor="middle" x="1827.5" y="-193.5" font-family="Helvetica,sans-Serif" font-size="10.00"> ptr</text>
</g>
<!-- Node19&#45;&gt;Node18 -->
<g id="edge21" class="edge">
<title>Node19&#45;&gt;Node18</title>
<path fill="none" stroke="#9a32cd" stroke-dasharray="5,2" d="M1587.18,-109.74C1629.76,-121.42 1693.36,-140.74 1746,-164.5 1753.18,-167.74 1760.74,-172.07 1767.04,-175.96"/>
<polygon fill="#9a32cd" stroke="#9a32cd" points="1587.93,-106.32 1577.36,-107.08 1586.09,-113.07 1587.93,-106.32"/>
<text text-anchor="middle" x="1688.5" y="-167.5" font-family="Helvetica,sans-Serif" font-size="10.00"> fields</text>
</g>
<!-- Node20&#45;&gt;Node11 -->
<g id="edge23" class="edge">
<title>Node20&#45;&gt;Node11</title>
<path fill="none" stroke="#9a32cd" stroke-dasharray="5,2" d="M1901.02,-215.36C1877.3,-237.75 1831.11,-274.5 1783.5,-274.5 880.5,-274.5 880.5,-274.5 880.5,-274.5 820.98,-274.5 752.98,-262.16 710.89,-253.05"/>
<polygon fill="#9a32cd" stroke="#9a32cd" points="1903.73,-217.61 1908.44,-208.13 1898.84,-212.6 1903.73,-217.61"/>
<text text-anchor="middle" x="1312" y="-288.5" font-family="Helvetica,sans-Serif" font-size="10.00"> old_assoziation</text>
<text text-anchor="middle" x="1312" y="-277.5" font-family="Helvetica,sans-Serif" font-size="10.00">new_assoziation</text>
</g>
<!-- Node27 -->
<g id="node27" class="node">
<title>Node27</title>
<g id="a_node27"><a xlink:title=" ">
<polygon fill="white" stroke="#bfbfbf" points="2082,-135 2082,-176 2197,-176 2197,-135 2082,-135"/>
<text text-anchor="start" x="2090" y="-164" font-family="Helvetica,sans-Serif" font-size="10.00">std::map&lt; unsigned</text>
<text text-anchor="start" x="2090" y="-153" font-family="Helvetica,sans-Serif" font-size="10.00"> int, std::shared_ptr</text>
<text text-anchor="middle" x="2139.5" y="-142" font-family="Helvetica,sans-Serif" font-size="10.00">&lt; Dot &gt; &gt;</text>
</a>
</g>
</g>
<!-- Node20&#45;&gt;Node27 -->
<g id="edge34" class="edge">
<title>Node20&#45;&gt;Node27</title>
<path fill="none" stroke="#9a32cd" stroke-dasharray="5,2" d="M1978.26,-186.96C2010.43,-180.65 2050.09,-172.86 2081.9,-166.61"/>
<polygon fill="#9a32cd" stroke="#9a32cd" points="1977.24,-183.6 1968.1,-188.96 1978.59,-190.46 1977.24,-183.6"/>
<text text-anchor="middle" x="2025.5" y="-185.5" font-family="Helvetica,sans-Serif" font-size="10.00"> elements</text>
</g>
<!-- Node20&#45;&gt;Node28 -->
<g id="edge37" class="edge">
<title>Node20&#45;&gt;Node28</title>
<path fill="none" stroke="#9a32cd" stroke-dasharray="5,2" d="M1993.27,-202.54C2017.33,-203.86 2043.96,-205.32 2067.79,-206.63"/>
<polygon fill="#9a32cd" stroke="#9a32cd" points="1993.31,-199.04 1983.14,-201.99 1992.93,-206.03 1993.31,-199.04"/>
<text text-anchor="middle" x="2025.5" y="-209.5" font-family="Helvetica,sans-Serif" font-size="10.00"> elements</text>
</g>
<!-- Node21 -->
<g id="node21" class="node">
<title>Node21</title>
<g id="a_node21"><a xlink:title=" ">
<polygon fill="white" stroke="#bfbfbf" points="411.5,-212 411.5,-231 547.5,-231 547.5,-212 411.5,-212"/>
<text text-anchor="middle" x="479.5" y="-219" font-family="Helvetica,sans-Serif" font-size="10.00">std::weak_ptr&lt; Player &gt;</text>
</a>
</g>
</g>
<!-- Node21&#45;&gt;Node11 -->
<g id="edge25" class="edge">
<title>Node21&#45;&gt;Node11</title>
<path fill="none" stroke="#9a32cd" stroke-dasharray="5,2" d="M557.72,-230.4C574.93,-232.39 593.09,-234.51 610,-236.5 615.79,-237.18 621.9,-237.91 627.91,-238.62"/>
<polygon fill="#9a32cd" stroke="#9a32cd" points="558.06,-226.91 547.72,-229.24 557.25,-233.86 558.06,-226.91"/>
<text text-anchor="middle" x="593" y="-239.5" font-family="Helvetica,sans-Serif" font-size="10.00"> player</text>
</g>
<!-- Node22 -->
<g id="node22" class="node">
<title>Node22</title>
<g id="a_node22"><a xlink:href="classPlayer.html" target="_top" xlink:title=" ">
<polygon fill="white" stroke="black" points="301,-212 301,-231 348,-231 348,-212 301,-212"/>
<text text-anchor="middle" x="324.5" y="-219" font-family="Helvetica,sans-Serif" font-size="10.00">Player</text>
</a>
</g>
</g>
<!-- Node22&#45;&gt;Node21 -->
<g id="edge26" class="edge">
<title>Node22&#45;&gt;Node21</title>
<path fill="none" stroke="#9a32cd" stroke-dasharray="5,2" d="M358.21,-221.5C373.77,-221.5 392.97,-221.5 411.43,-221.5"/>
<polygon fill="#9a32cd" stroke="#9a32cd" points="358.08,-218 348.08,-221.5 358.08,-225 358.08,-218"/>
<text text-anchor="middle" x="374.5" y="-224.5" font-family="Helvetica,sans-Serif" font-size="10.00"> ptr</text>
</g>
<!-- Node23 -->
<g id="node23" class="node">
<title>Node23</title>
<g id="a_node23"><a xlink:title="STL class.">
<polygon fill="white" stroke="#bfbfbf" points="141,-212 141,-231 206,-231 206,-212 141,-212"/>
<text text-anchor="middle" x="173.5" y="-219" font-family="Helvetica,sans-Serif" font-size="10.00">std::string</text>
</a>
</g>
</g>
<!-- Node23&#45;&gt;Node22 -->
<g id="edge27" class="edge">
<title>Node23&#45;&gt;Node22</title>
<path fill="none" stroke="#9a32cd" stroke-dasharray="5,2" d="M216.18,-221.5C243.54,-221.5 278.27,-221.5 300.69,-221.5"/>
<polygon fill="#9a32cd" stroke="#9a32cd" points="216.1,-218 206.1,-221.5 216.1,-225 216.1,-218"/>
<text text-anchor="middle" x="253.5" y="-235.5" font-family="Helvetica,sans-Serif" font-size="10.00"> passphrase</text>
<text text-anchor="middle" x="253.5" y="-224.5" font-family="Helvetica,sans-Serif" font-size="10.00">name</text>
</g>
<!-- Node24 -->
<g id="node24" class="node">
<title>Node24</title>
<g id="a_node24"><a xlink:title="STL class.">
<polygon fill="white" stroke="#bfbfbf" points="0,-206.5 0,-236.5 104,-236.5 104,-206.5 0,-206.5"/>
<text text-anchor="start" x="8" y="-224.5" font-family="Helvetica,sans-Serif" font-size="10.00">std::basic_string&lt;</text>
<text text-anchor="middle" x="52" y="-213.5" font-family="Helvetica,sans-Serif" font-size="10.00"> char &gt;</text>
</a>
</g>
</g>
<!-- Node24&#45;&gt;Node23 -->
<g id="edge28" class="edge">
<title>Node24&#45;&gt;Node23</title>
<path fill="none" stroke="midnightblue" d="M114.1,-221.5C123.41,-221.5 132.68,-221.5 141,-221.5"/>
<polygon fill="midnightblue" stroke="midnightblue" points="114.03,-218 104.03,-221.5 114.03,-225 114.03,-218"/>
</g>
<!-- Node25 -->
<g id="node25" class="node">
<title>Node25</title>
<g id="a_node25"><a xlink:href="classGameState.html" target="_top" xlink:title=" ">
<polygon fill="white" stroke="black" points="2373.5,-146 2373.5,-165 2444.5,-165 2444.5,-146 2373.5,-146"/>
<text text-anchor="middle" x="2409" y="-153" font-family="Helvetica,sans-Serif" font-size="10.00">GameState</text>
</a>
</g>
</g>
<!-- Node25&#45;&gt;Node6 -->
<g id="edge29" class="edge">
<title>Node25&#45;&gt;Node6</title>
<path fill="none" stroke="#9a32cd" stroke-dasharray="5,2" d="M2431.25,-171.32C2463.9,-196.27 2527.29,-247.29 2572,-299.5 2587.78,-317.93 2602.16,-342.64 2609.46,-355.98"/>
<polygon fill="#9a32cd" stroke="#9a32cd" points="2433.36,-168.53 2423.27,-165.28 2429.13,-174.11 2433.36,-168.53"/>
<text text-anchor="middle" x="2538" y="-302.5" font-family="Helvetica,sans-Serif" font-size="10.00"> current_state</text>
</g>
<!-- Node26&#45;&gt;Node25 -->
<g id="edge30" class="edge">
<title>Node26&#45;&gt;Node25</title>
<path fill="none" stroke="#9a32cd" stroke-dasharray="5,2" d="M1623.14,-19.11C1669.74,-20.82 1728.83,-22.5 1781.5,-22.5 1781.5,-22.5 1781.5,-22.5 2140.5,-22.5 2251.49,-22.5 2363.85,-115.44 2397.72,-145.93"/>
<polygon fill="#9a32cd" stroke="#9a32cd" points="1623.21,-15.61 1613.09,-18.73 1622.95,-22.61 1623.21,-15.61"/>
<text text-anchor="middle" x="1918.5" y="-25.5" font-family="Helvetica,sans-Serif" font-size="10.00"> fields</text>
</g>
<!-- Node27&#45;&gt;Node25 -->
<g id="edge33" class="edge">
<title>Node27&#45;&gt;Node25</title>
<path fill="none" stroke="#9a32cd" stroke-dasharray="5,2" d="M2207.51,-155.5C2260.24,-155.5 2331.58,-155.5 2373.41,-155.5"/>
<polygon fill="#9a32cd" stroke="#9a32cd" points="2207.23,-152 2197.23,-155.5 2207.23,-159 2207.23,-152"/>
<text text-anchor="middle" x="2271.5" y="-158.5" font-family="Helvetica,sans-Serif" font-size="10.00"> dots_by_id</text>
</g>
<!-- Node28&#45;&gt;Node25 -->
<g id="edge35" class="edge">
<title>Node28&#45;&gt;Node25</title>
<path fill="none" stroke="#9a32cd" stroke-dasharray="5,2" d="M2221.13,-193.92C2271.97,-183.47 2335.04,-170.5 2373.37,-162.62"/>
<polygon fill="#9a32cd" stroke="#9a32cd" points="2220.22,-190.54 2211.13,-195.98 2221.63,-197.39 2220.22,-190.54"/>
<text text-anchor="middle" x="2271.5" y="-194.5" font-family="Helvetica,sans-Serif" font-size="10.00"> dots</text>
</g>
<!-- Node29&#45;&gt;Node25 -->
<g id="edge38" class="edge">
<title>Node29&#45;&gt;Node25</title>
<path fill="none" stroke="#9a32cd" stroke-dasharray="5,2" d="M1756.11,-79.93C1778.35,-84.14 1803.36,-87.5 1826.5,-87.5 1826.5,-87.5 1826.5,-87.5 2140.5,-87.5 2234.18,-87.5 2340.78,-127.16 2385.94,-145.9"/>
<polygon fill="#9a32cd" stroke="#9a32cd" points="1756.59,-76.46 1746.1,-77.95 1755.23,-83.32 1756.59,-76.46"/>
<text text-anchor="middle" x="1918.5" y="-90.5" font-family="Helvetica,sans-Serif" font-size="10.00"> fields_by_id</text>
</g>
</g>
</svg>
