<?xml version="1.0" encoding="UTF-8" standalone="no"?>
<!DOCTYPE svg PUBLIC "-//W3C//DTD SVG 1.1//EN"
 "http://www.w3.org/Graphics/SVG/1.1/DTD/svg11.dtd">
<!-- Generated by graphviz version 2.42.3 (0)
 -->
<!-- Title: Field Pages: 1 -->
<svg width="1362pt" height="286pt"
 viewBox="0.00 0.00 1362.00 286.00" xmlns="http://www.w3.org/2000/svg" xmlns:xlink="http://www.w3.org/1999/xlink">
<g id="graph0" class="graph" transform="scale(1 1) rotate(0) translate(4 282)">
<title>Field</title>
<polygon fill="white" stroke="transparent" points="-4,4 -4,-282 1358,-282 1358,4 -4,4"/>
<!-- Node1 -->
<g id="node1" class="node">
<title>Node1</title>
<g id="a_node1"><a xlink:title="represents a Field in the game">
<polygon fill="#bfbfbf" stroke="black" points="140,-56.5 140,-75.5 179,-75.5 179,-56.5 140,-56.5"/>
<text text-anchor="middle" x="159.5" y="-63.5" font-family="Helvetica,sans-Serif" font-size="10.00">Field</text>
</a>
</g>
</g>
<!-- Node6 -->
<g id="node6" class="node">
<title>Node6</title>
<g id="a_node6"><a xlink:title=" ">
<polygon fill="white" stroke="#bfbfbf" points="232,-82.5 232,-101.5 366,-101.5 366,-82.5 232,-82.5"/>
<text text-anchor="middle" x="299" y="-89.5" font-family="Helvetica,sans-Serif" font-size="10.00">std::shared_ptr&lt; Field &gt;</text>
</a>
</g>
</g>
<!-- Node1&#45;&gt;Node6 -->
<g id="edge6" class="edge">
<title>Node1&#45;&gt;Node6</title>
<path fill="none" stroke="#9a32cd" stroke-dasharray="5,2" d="M189.34,-71.45C206.19,-74.64 227.94,-78.75 247.55,-82.46"/>
<polygon fill="#9a32cd" stroke="#9a32cd" points="189.52,-67.93 179.04,-69.51 188.22,-74.8 189.52,-67.93"/>
<text text-anchor="middle" x="205.5" y="-79" font-family="Helvetica,sans-Serif" font-size="10.00"> ptr</text>
</g>
<!-- Node2 -->
<g id="node2" class="node">
<title>Node2</title>
<g id="a_node2"><a xlink:href="structpos__type.html" target="_top" xlink:title="simple position type for 2 dimensions. sortable">
<polygon fill="white" stroke="black" points="0,-120.5 0,-139.5 61,-139.5 61,-120.5 0,-120.5"/>
<text text-anchor="middle" x="30.5" y="-127.5" font-family="Helvetica,sans-Serif" font-size="10.00">pos_type</text>
</a>
</g>
</g>
<!-- Node2&#45;&gt;Node1 -->
<g id="edge1" class="edge">
<title>Node2&#45;&gt;Node1</title>
<path fill="none" stroke="#9a32cd" stroke-dasharray="5,2" d="M59.63,-115.82C84.02,-103.53 118.63,-86.09 139.77,-75.44"/>
<polygon fill="#9a32cd" stroke="#9a32cd" points="57.87,-112.79 50.51,-120.42 61.02,-119.04 57.87,-112.79"/>
<text text-anchor="middle" x="100.5" y="-109" font-family="Helvetica,sans-Serif" font-size="10.00"> position</text>
</g>
<!-- Node8 -->
<g id="node8" class="node">
<title>Node8</title>
<g id="a_node8"><a xlink:href="classDot.html" target="_top" xlink:title="Represents the center of the galaxy.">
<polygon fill="white" stroke="black" points="666.5,-139.5 666.5,-158.5 700.5,-158.5 700.5,-139.5 666.5,-139.5"/>
<text text-anchor="middle" x="683.5" y="-146.5" font-family="Helvetica,sans-Serif" font-size="10.00">Dot</text>
</a>
</g>
</g>
<!-- Node2&#45;&gt;Node8 -->
<g id="edge9" class="edge">
<title>Node2&#45;&gt;Node8</title>
<path fill="none" stroke="#9a32cd" stroke-dasharray="5,2" d="M60.11,-143.75C85.38,-154.63 123.55,-168 158.5,-168 158.5,-168 158.5,-168 491.5,-168 556.65,-168 633.68,-156.92 666.46,-151.68"/>
<polygon fill="#9a32cd" stroke="#9a32cd" points="61.32,-140.46 50.76,-139.59 58.47,-146.86 61.32,-140.46"/>
<text text-anchor="middle" x="299" y="-171" font-family="Helvetica,sans-Serif" font-size="10.00"> position</text>
</g>
<!-- Node3 -->
<g id="node3" class="node">
<title>Node3</title>
<g id="a_node3"><a xlink:title=" ">
<polygon fill="white" stroke="#bfbfbf" points="1183,-6.5 1183,-25.5 1354,-25.5 1354,-6.5 1183,-6.5"/>
<text text-anchor="middle" x="1268.5" y="-13.5" font-family="Helvetica,sans-Serif" font-size="10.00">std::weak_ptr&lt; GameChange &gt;</text>
</a>
</g>
</g>
<!-- Node3&#45;&gt;Node1 -->
<g id="edge2" class="edge">
<title>Node3&#45;&gt;Node1</title>
<path fill="none" stroke="#9a32cd" stroke-dasharray="5,2" d="M1184.48,-5.43C1154.59,-2.45 1120.58,0 1089.5,0 298,0 298,0 298,0 246.63,0 194.15,-37.9 171.75,-56.26"/>
<polygon fill="#9a32cd" stroke="#9a32cd" points="1184.15,-8.92 1194.45,-6.46 1184.87,-1.95 1184.15,-8.92"/>
<text text-anchor="middle" x="683.5" y="-3" font-family="Helvetica,sans-Serif" font-size="10.00"> last_change</text>
</g>
<!-- Node4 -->
<g id="node4" class="node">
<title>Node4</title>
<g id="a_node4"><a xlink:href="classGameChange.html" target="_top" xlink:title="Represents an atomic change to the gamestate. Can be reverted, once applied.">
<polygon fill="white" stroke="black" points="1047,-158.5 1047,-177.5 1130,-177.5 1130,-158.5 1047,-158.5"/>
<text text-anchor="middle" x="1088.5" y="-165.5" font-family="Helvetica,sans-Serif" font-size="10.00">GameChange</text>
</a>
</g>
</g>
<!-- Node4&#45;&gt;Node3 -->
<g id="edge3" class="edge">
<title>Node4&#45;&gt;Node3</title>
<path fill="none" stroke="#9a32cd" stroke-dasharray="5,2" d="M1108.69,-151.61C1145.9,-119.84 1226.78,-50.77 1256.37,-25.5"/>
<polygon fill="#9a32cd" stroke="#9a32cd" points="1105.97,-149.34 1100.63,-158.49 1110.51,-154.66 1105.97,-149.34"/>
<text text-anchor="middle" x="1156.5" y="-118" font-family="Helvetica,sans-Serif" font-size="10.00"> ptr</text>
</g>
<!-- Node5 -->
<g id="node5" class="node">
<title>Node5</title>
<g id="a_node5"><a xlink:title=" ">
<polygon fill="white" stroke="#bfbfbf" points="772,-197 772,-227 929,-227 929,-197 772,-197"/>
<text text-anchor="start" x="780" y="-215" font-family="Helvetica,sans-Serif" font-size="10.00">std::enable_shared</text>
<text text-anchor="middle" x="850.5" y="-204" font-family="Helvetica,sans-Serif" font-size="10.00">_from_this&lt; GameChange &gt;</text>
</a>
</g>
</g>
<!-- Node5&#45;&gt;Node4 -->
<g id="edge4" class="edge">
<title>Node5&#45;&gt;Node4</title>
<path fill="none" stroke="midnightblue" d="M939.42,-208.62C968.31,-206.05 1000.35,-201.61 1029,-194 1043.29,-190.2 1058.52,-183.34 1069.86,-177.61"/>
<polygon fill="midnightblue" stroke="midnightblue" points="939.02,-205.14 929.34,-209.45 939.6,-212.12 939.02,-205.14"/>
</g>
<!-- Node6&#45;&gt;Node4 -->
<g id="edge5" class="edge">
<title>Node6&#45;&gt;Node4</title>
<path fill="none" stroke="#9a32cd" stroke-dasharray="5,2" d="M376.24,-92C410.82,-92 452.22,-92 489.5,-92 489.5,-92 489.5,-92 851.5,-92 937.16,-92 1032.25,-137.92 1070.35,-158.37"/>
<polygon fill="#9a32cd" stroke="#9a32cd" points="376.21,-88.5 366.21,-92 376.21,-95.5 376.21,-88.5"/>
<text text-anchor="middle" x="683.5" y="-95" font-family="Helvetica,sans-Serif" font-size="10.00"> affected_field</text>
</g>
<!-- Node9 -->
<g id="node9" class="node">
<title>Node9</title>
<g id="a_node9"><a xlink:title=" ">
<polygon fill="white" stroke="#bfbfbf" points="428,-120.5 428,-139.5 553,-139.5 553,-120.5 428,-120.5"/>
<text text-anchor="middle" x="490.5" y="-127.5" font-family="Helvetica,sans-Serif" font-size="10.00">std::set&lt; field_ptr_t &gt;</text>
</a>
</g>
</g>
<!-- Node6&#45;&gt;Node9 -->
<g id="edge11" class="edge">
<title>Node6&#45;&gt;Node9</title>
<path fill="none" stroke="#9a32cd" stroke-dasharray="5,2" d="M357.89,-103.61C384.85,-109.01 416.51,-115.36 442.03,-120.48"/>
<polygon fill="#9a32cd" stroke="#9a32cd" points="358.31,-100.12 347.82,-101.59 356.94,-106.99 358.31,-100.12"/>
<text text-anchor="middle" x="397" y="-117" font-family="Helvetica,sans-Serif" font-size="10.00"> keys</text>
</g>
<!-- Node7 -->
<g id="node7" class="node">
<title>Node7</title>
<g id="a_node7"><a xlink:title=" ">
<polygon fill="white" stroke="#bfbfbf" points="786,-158.5 786,-177.5 915,-177.5 915,-158.5 786,-158.5"/>
<text text-anchor="middle" x="850.5" y="-165.5" font-family="Helvetica,sans-Serif" font-size="10.00">std::shared_ptr&lt; Dot &gt;</text>
</a>
</g>
</g>
<!-- Node7&#45;&gt;Node4 -->
<g id="edge7" class="edge">
<title>Node7&#45;&gt;Node4</title>
<path fill="none" stroke="#9a32cd" stroke-dasharray="5,2" d="M925.08,-168C965.24,-168 1013.45,-168 1046.86,-168"/>
<polygon fill="#9a32cd" stroke="#9a32cd" points="925.05,-164.5 915.05,-168 925.05,-171.5 925.05,-164.5"/>
<text text-anchor="middle" x="988" y="-182" font-family="Helvetica,sans-Serif" font-size="10.00"> old_assoziation</text>
<text text-anchor="middle" x="988" y="-171" font-family="Helvetica,sans-Serif" font-size="10.00">new_assoziation</text>
</g>
<!-- Node8&#45;&gt;Node7 -->
<g id="edge8" class="edge">
<title>Node8&#45;&gt;Node7</title>
<path fill="none" stroke="#9a32cd" stroke-dasharray="5,2" d="M710.59,-152C730.76,-154.33 759.56,-157.64 785.71,-160.65"/>
<polygon fill="#9a32cd" stroke="#9a32cd" points="710.96,-148.52 700.62,-150.86 710.16,-155.48 710.96,-148.52"/>
<text text-anchor="middle" x="745.5" y="-160" font-family="Helvetica,sans-Serif" font-size="10.00"> ptr</text>
</g>
<!-- Node14 -->
<g id="node14" class="node">
<title>Node14</title>
<g id="a_node14"><a xlink:title=" ">
<polygon fill="white" stroke="#bfbfbf" points="789.5,-120.5 789.5,-139.5 911.5,-139.5 911.5,-120.5 789.5,-120.5"/>
<text text-anchor="middle" x="850.5" y="-127.5" font-family="Helvetica,sans-Serif" font-size="10.00">std::weak_ptr&lt; Dot &gt;</text>
</a>
</g>
</g>
<!-- Node8&#45;&gt;Node14 -->
<g id="edge17" class="edge">
<title>Node8&#45;&gt;Node14</title>
<path fill="none" stroke="#9a32cd" stroke-dasharray="5,2" d="M710.57,-144.74C718.99,-143.45 728.38,-142.08 737,-141 753.94,-138.88 772.36,-136.93 789.3,-135.28"/>
<polygon fill="#9a32cd" stroke="#9a32cd" points="709.89,-141.31 700.55,-146.33 710.98,-148.22 709.89,-141.31"/>
<text text-anchor="middle" x="745.5" y="-144" font-family="Helvetica,sans-Serif" font-size="10.00"> ptr</text>
</g>
<!-- Node9&#45;&gt;Node8 -->
<g id="edge10" class="edge">
<title>Node9&#45;&gt;Node8</title>
<path fill="none" stroke="#9a32cd" stroke-dasharray="5,2" d="M563.26,-136.46C584.73,-138.46 608.33,-140.74 630,-143 642.23,-144.27 656.04,-145.86 666.43,-147.08"/>
<polygon fill="#9a32cd" stroke="#9a32cd" points="563.51,-132.97 553.23,-135.53 562.87,-139.94 563.51,-132.97"/>
<text text-anchor="middle" x="600.5" y="-146" font-family="Helvetica,sans-Serif" font-size="10.00"> fields</text>
</g>
<!-- Node10 -->
<g id="node10" class="node">
<title>Node10</title>
<g id="a_node10"><a xlink:title=" ">
<polygon fill="white" stroke="#bfbfbf" points="782.5,-246.5 782.5,-265.5 918.5,-265.5 918.5,-246.5 782.5,-246.5"/>
<text text-anchor="middle" x="850.5" y="-253.5" font-family="Helvetica,sans-Serif" font-size="10.00">std::weak_ptr&lt; Player &gt;</text>
</a>
</g>
</g>
<!-- Node10&#45;&gt;Node4 -->
<g id="edge12" class="edge">
<title>Node10&#45;&gt;Node4</title>
<path fill="none" stroke="#9a32cd" stroke-dasharray="5,2" d="M929.03,-245.89C961.08,-239.75 997.93,-230.08 1029,-215 1048.46,-205.56 1067.28,-188.6 1078.11,-177.84"/>
<polygon fill="#9a32cd" stroke="#9a32cd" points="928.01,-242.52 918.8,-247.76 929.27,-249.41 928.01,-242.52"/>
<text text-anchor="middle" x="988" y="-245" font-family="Helvetica,sans-Serif" font-size="10.00"> player</text>
</g>
<!-- Node11 -->
<g id="node11" class="node">
<title>Node11</title>
<g id="a_node11"><a xlink:href="classPlayer.html" target="_top" xlink:title="represents a individual player/client">
<polygon fill="white" stroke="black" points="660,-246.5 660,-265.5 707,-265.5 707,-246.5 660,-246.5"/>
<text text-anchor="middle" x="683.5" y="-253.5" font-family="Helvetica,sans-Serif" font-size="10.00">Player</text>
</a>
</g>
</g>
<!-- Node11&#45;&gt;Node10 -->
<g id="edge13" class="edge">
<title>Node11&#45;&gt;Node10</title>
<path fill="none" stroke="#9a32cd" stroke-dasharray="5,2" d="M717.12,-256C735.75,-256 759.83,-256 782.32,-256"/>
<polygon fill="#9a32cd" stroke="#9a32cd" points="717.1,-252.5 707.1,-256 717.1,-259.5 717.1,-252.5"/>
<text text-anchor="middle" x="745.5" y="-259" font-family="Helvetica,sans-Serif" font-size="10.00"> ptr</text>
</g>
<!-- Node12 -->
<g id="node12" class="node">
<title>Node12</title>
<g id="a_node12"><a xlink:title="STL class.">
<polygon fill="white" stroke="#bfbfbf" points="458,-246.5 458,-265.5 523,-265.5 523,-246.5 458,-246.5"/>
<text text-anchor="middle" x="490.5" y="-253.5" font-family="Helvetica,sans-Serif" font-size="10.00">std::string</text>
</a>
</g>
</g>
<!-- Node12&#45;&gt;Node11 -->
<g id="edge14" class="edge">
<title>Node12&#45;&gt;Node11</title>
<path fill="none" stroke="#9a32cd" stroke-dasharray="5,2" d="M533.52,-256C572.44,-256 628.85,-256 659.9,-256"/>
<polygon fill="#9a32cd" stroke="#9a32cd" points="533.04,-252.5 523.04,-256 533.04,-259.5 533.04,-252.5"/>
<text text-anchor="middle" x="600.5" y="-270" font-family="Helvetica,sans-Serif" font-size="10.00"> passphrase</text>
<text text-anchor="middle" x="600.5" y="-259" font-family="Helvetica,sans-Serif" font-size="10.00">name</text>
</g>
<!-- Node13 -->
<g id="node13" class="node">
<title>Node13</title>
<g id="a_node13"><a xlink:title="STL class.">
<polygon fill="white" stroke="#bfbfbf" points="247,-241 247,-271 351,-271 351,-241 247,-241"/>
<text text-anchor="start" x="255" y="-259" font-family="Helvetica,sans-Serif" font-size="10.00">std::basic_string&lt;</text>
<text text-anchor="middle" x="299" y="-248" font-family="Helvetica,sans-Serif" font-size="10.00"> char &gt;</text>
</a>
</g>
</g>
<!-- Node13&#45;&gt;Node12 -->
<g id="edge15" class="edge">
<title>Node13&#45;&gt;Node12</title>
<path fill="none" stroke="midnightblue" d="M361.49,-256C393.62,-256 431.6,-256 457.8,-256"/>
<polygon fill="midnightblue" stroke="midnightblue" points="361.28,-252.5 351.28,-256 361.28,-259.5 361.28,-252.5"/>
</g>
<!-- Node14&#45;&gt;Node1 -->
<g id="edge16" class="edge">
<title>Node14&#45;&gt;Node1</title>
<path fill="none" stroke="#9a32cd" stroke-dasharray="5,2" d="M831.65,-113.74C802.91,-89.32 743.6,-46 684.5,-46 298,-46 298,-46 298,-46 255.06,-46 205.36,-55.67 179.06,-61.56"/>
<polygon fill="#9a32cd" stroke="#9a32cd" points="829.4,-116.43 839.24,-120.36 834.01,-111.15 829.4,-116.43"/>
<text text-anchor="middle" x="490.5" y="-49" font-family="Helvetica,sans-Serif" font-size="10.00"> assigned_dot</text>
</g>
</g>
</svg>
