<?xml version="1.0" encoding="UTF-8" standalone="no"?>
<!DOCTYPE svg PUBLIC "-//W3C//DTD SVG 1.1//EN"
 "http://www.w3.org/Graphics/SVG/1.1/DTD/svg11.dtd">
<!-- Generated by graphviz version 2.42.3 (0)
 -->
<!-- Title: Dot Pages: 1 -->
<!--zoomable 240 -->
<svg id="main" version="1.1" xmlns="http://www.w3.org/2000/svg" xmlns:xlink="http://www.w3.org/1999/xlink" xml:space="preserve" onload="init(evt)">
<style type="text/css"><![CDATA[
.edge:hover path { stroke: red; }
.edge:hover polygon { stroke: red; fill: red; }
]]></style>
<script type="text/javascript"><![CDATA[
var edges = document.getElementsByTagName('g');
if (edges && edges.length) {
  for (var i=0;i<edges.length;i++) {
    if (edges[i].id.substr(0,4)=='edge') {
      edges[i].setAttribute('class','edge');
    }
  }
}
]]></script>
        <defs>
                <circle id="rim" cx="0" cy="0" r="7"/>
                <circle id="rim2" cx="0" cy="0" r="3.5"/>
                <g id="zoomPlus">
                        <use xlink:href="#rim" fill="#404040">
                                <set attributeName="fill" to="#808080" begin="zoomplus.mouseover" end="zoomplus.mouseout"/>
                        </use>
                        <path d="M-4,0h8M0,-4v8" fill="none" stroke="white" stroke-width="1.5" pointer-events="none"/>
                </g>
                <g id="zoomMin">
                        <use xlink:href="#rim" fill="#404040">
                                <set attributeName="fill" to="#808080" begin="zoomminus.mouseover" end="zoomminus.mouseout"/>
                        </use>
                        <path d="M-4,0h8" fill="none" stroke="white" stroke-width="1.5" pointer-events="none"/>
                </g>
                <g id="dirArrow">
                        <path fill="none" stroke="white" stroke-width="1.5" d="M0,-3.0v7 M-2.5,-0.5L0,-3.0L2.5,-0.5"/>
                </g>
               <g id="resetDef">
                       <use xlink:href="#rim2" fill="#404040">
                               <set attributeName="fill" to="#808080" begin="reset.mouseover" end="reset.mouseout"/>
                       </use>
               </g>
        </defs>

<script type="text/javascript">
var viewWidth = 1602;
var viewHeight = 240;
var sectionId = 'dynsection-0';
</script>
<script xlink:href="svgpan.js"/>
<svg id="graph" class="graph">
<g id="viewport">
<title>Dot</title>
<polygon fill="white" stroke="transparent" points="-4,4 -4,-236 1598,-236 1598,4 -4,4"/>
<!-- Node1 -->
<g id="node1" class="node">
<title>Node1</title>
<g id="a_node1"><a xlink:title="Represents the center of the galaxy.">
<polygon fill="#bfbfbf" stroke="black" points="307.5,-55.5 307.5,-74.5 341.5,-74.5 341.5,-55.5 307.5,-55.5"/>
<text text-anchor="middle" x="324.5" y="-62.5" font-family="Helvetica,sans-Serif" font-size="10.00">Dot</text>
</a>
</g>
</g>
<!-- Node9 -->
<g id="node9" class="node">
<title>Node9</title>
<g id="a_node9"><a xlink:title=" ">
<polygon fill="white" stroke="#bfbfbf" points="415,-112.5 415,-131.5 544,-131.5 544,-112.5 415,-112.5"/>
<text text-anchor="middle" x="479.5" y="-119.5" font-family="Helvetica,sans-Serif" font-size="10.00">std::shared_ptr&lt; Dot &gt;</text>
</a>
</g>
</g>
<!-- Node1&#45;&gt;Node9 -->
<g id="edge11" class="edge">
<title>Node1&#45;&gt;Node9</title>
<path fill="none" stroke="#9a32cd" stroke-dasharray="5,2" d="M341.92,-81.37C348.84,-87.43 357.3,-93.83 366,-98 381.13,-105.25 398.44,-110.33 414.88,-113.88"/>
<polygon fill="#9a32cd" stroke="#9a32cd" points="344.29,-78.8 334.58,-74.57 339.53,-83.93 344.29,-78.8"/>
<text text-anchor="middle" x="374.5" y="-108" font-family="Helvetica,sans-Serif" font-size="10.00"> ptr</text>
</g>
<!-- Node14 -->
<g id="node14" class="node">
<title>Node14</title>
<g id="a_node14"><a xlink:title=" ">
<polygon fill="white" stroke="#bfbfbf" points="576,-74.5 576,-93.5 698,-93.5 698,-74.5 576,-74.5"/>
<text text-anchor="middle" x="637" y="-81.5" font-family="Helvetica,sans-Serif" font-size="10.00">std::weak_ptr&lt; Dot &gt;</text>
</a>
</g>
</g>
<!-- Node1&#45;&gt;Node14 -->
<g id="edge17" class="edge">
<title>Node1&#45;&gt;Node14</title>
<path fill="none" stroke="#9a32cd" stroke-dasharray="5,2" d="M351.9,-66.62C401.16,-69.63 508.22,-76.18 575.93,-80.32"/>
<polygon fill="#9a32cd" stroke="#9a32cd" points="351.95,-63.11 341.76,-65.99 351.52,-70.1 351.95,-63.11"/>
<text text-anchor="middle" x="374.5" y="-72" font-family="Helvetica,sans-Serif" font-size="10.00"> ptr</text>
</g>
<!-- Node2 -->
<g id="node2" class="node">
<title>Node2</title>
<g id="a_node2"><a xlink:href="structpos__type.html" target="_top" xlink:title="simple position type for 2 dimensions. sortable">
<polygon fill="white" stroke="black" points="143,-15.5 143,-34.5 204,-34.5 204,-15.5 143,-15.5"/>
<text text-anchor="middle" x="173.5" y="-22.5" font-family="Helvetica,sans-Serif" font-size="10.00">pos_type</text>
</a>
</g>
</g>
<!-- Node2&#45;&gt;Node1 -->
<g id="edge1" class="edge">
<title>Node2&#45;&gt;Node1</title>
<path fill="none" stroke="#9a32cd" stroke-dasharray="5,2" d="M214.18,-35.65C244.56,-43.81 284.93,-54.64 307.13,-60.6"/>
<polygon fill="#9a32cd" stroke="#9a32cd" points="214.86,-32.21 204.29,-33 213.04,-38.97 214.86,-32.21"/>
<text text-anchor="middle" x="253.5" y="-57" font-family="Helvetica,sans-Serif" font-size="10.00"> position</text>
</g>
<!-- Node5 -->
<g id="node5" class="node">
<title>Node5</title>
<g id="a_node5"><a xlink:href="classField.html" target="_top" xlink:title="represents a Field in the game">
<polygon fill="white" stroke="black" points="1181,-75.5 1181,-94.5 1220,-94.5 1220,-75.5 1181,-75.5"/>
<text text-anchor="middle" x="1200.5" y="-82.5" font-family="Helvetica,sans-Serif" font-size="10.00">Field</text>
</a>
</g>
</g>
<!-- Node2&#45;&gt;Node5 -->
<g id="edge5" class="edge">
<title>Node2&#45;&gt;Node5</title>
<path fill="none" stroke="#9a32cd" stroke-dasharray="5,2" d="M214.24,-14.64C244.08,-7.77 286.08,0 323.5,0 323.5,0 323.5,0 989.5,0 1068.95,0 1153.77,-52.92 1186.02,-75.25"/>
<polygon fill="#9a32cd" stroke="#9a32cd" points="213.14,-11.3 204.22,-17.02 214.76,-18.12 213.14,-11.3"/>
<text text-anchor="middle" x="637" y="-3" font-family="Helvetica,sans-Serif" font-size="10.00"> position</text>
</g>
<!-- Node3 -->
<g id="node3" class="node">
<title>Node3</title>
<g id="a_node3"><a xlink:title=" ">
<polygon fill="white" stroke="#bfbfbf" points="1469,-52.5 1469,-71.5 1594,-71.5 1594,-52.5 1469,-52.5"/>
<text text-anchor="middle" x="1531.5" y="-59.5" font-family="Helvetica,sans-Serif" font-size="10.00">std::set&lt; field_ptr_t &gt;</text>
</a>
</g>
</g>
<!-- Node3&#45;&gt;Node1 -->
<g id="edge2" class="edge">
<title>Node3&#45;&gt;Node1</title>
<path fill="none" stroke="#9a32cd" stroke-dasharray="5,2" d="M1458.51,-53.05C1423.17,-49.39 1379.91,-46 1341,-46 478.5,-46 478.5,-46 478.5,-46 428.45,-46 369.88,-56.14 341.94,-61.6"/>
<polygon fill="#9a32cd" stroke="#9a32cd" points="1458.42,-56.56 1468.74,-54.14 1459.16,-49.6 1458.42,-56.56"/>
<text text-anchor="middle" x="988.5" y="-49" font-family="Helvetica,sans-Serif" font-size="10.00"> fields</text>
</g>
<!-- Node4 -->
<g id="node4" class="node">
<title>Node4</title>
<g id="a_node4"><a xlink:title=" ">
<polygon fill="white" stroke="#bfbfbf" points="1273,-75.5 1273,-94.5 1407,-94.5 1407,-75.5 1273,-75.5"/>
<text text-anchor="middle" x="1340" y="-82.5" font-family="Helvetica,sans-Serif" font-size="10.00">std::shared_ptr&lt; Field &gt;</text>
</a>
</g>
</g>
<!-- Node4&#45;&gt;Node3 -->
<g id="edge3" class="edge">
<title>Node4&#45;&gt;Node3</title>
<path fill="none" stroke="#9a32cd" stroke-dasharray="5,2" d="M1417.03,-75.77C1434.25,-73.68 1452.32,-71.49 1468.86,-69.48"/>
<polygon fill="#9a32cd" stroke="#9a32cd" points="1416.52,-72.31 1407.01,-76.99 1417.36,-79.26 1416.52,-72.31"/>
<text text-anchor="middle" x="1438" y="-78" font-family="Helvetica,sans-Serif" font-size="10.00"> keys</text>
</g>
<!-- Node7 -->
<g id="node7" class="node">
<title>Node7</title>
<g id="a_node7"><a xlink:href="classGameChange.html" target="_top" xlink:title="Represents an atomic change to the gamestate. Can be reverted, once applied.">
<polygon fill="white" stroke="black" points="716,-151.5 716,-170.5 799,-170.5 799,-151.5 716,-151.5"/>
<text text-anchor="middle" x="757.5" y="-158.5" font-family="Helvetica,sans-Serif" font-size="10.00">GameChange</text>
</a>
</g>
</g>
<!-- Node4&#45;&gt;Node7 -->
<g id="edge9" class="edge">
<title>Node4&#45;&gt;Node7</title>
<path fill="none" stroke="#9a32cd" stroke-dasharray="5,2" d="M1293.77,-97.15C1258.36,-106.4 1207.77,-119.03 1163,-128 1031.74,-154.31 872.5,-159.74 799.12,-160.8"/>
<polygon fill="#9a32cd" stroke="#9a32cd" points="1295.02,-100.45 1303.8,-94.52 1293.24,-93.68 1295.02,-100.45"/>
<text text-anchor="middle" x="1127.5" y="-143" font-family="Helvetica,sans-Serif" font-size="10.00"> affected_field</text>
</g>
<!-- Node5&#45;&gt;Node4 -->
<g id="edge4" class="edge">
<title>Node5&#45;&gt;Node4</title>
<path fill="none" stroke="#9a32cd" stroke-dasharray="5,2" d="M1230.25,-85C1242.74,-85 1257.92,-85 1272.94,-85"/>
<polygon fill="#9a32cd" stroke="#9a32cd" points="1230.04,-81.5 1220.04,-85 1230.04,-88.5 1230.04,-81.5"/>
<text text-anchor="middle" x="1246.5" y="-88" font-family="Helvetica,sans-Serif" font-size="10.00"> ptr</text>
</g>
<!-- Node6 -->
<g id="node6" class="node">
<title>Node6</title>
<g id="a_node6"><a xlink:title=" ">
<polygon fill="white" stroke="#bfbfbf" points="903,-113.5 903,-132.5 1074,-132.5 1074,-113.5 903,-113.5"/>
<text text-anchor="middle" x="988.5" y="-120.5" font-family="Helvetica,sans-Serif" font-size="10.00">std::weak_ptr&lt; GameChange &gt;</text>
</a>
</g>
</g>
<!-- Node6&#45;&gt;Node5 -->
<g id="edge6" class="edge">
<title>Node6&#45;&gt;Node5</title>
<path fill="none" stroke="#9a32cd" stroke-dasharray="5,2" d="M1084.24,-113.88C1110.02,-110.32 1137.78,-105.49 1163,-99 1168.92,-97.48 1175.18,-95.3 1180.82,-93.11"/>
<polygon fill="#9a32cd" stroke="#9a32cd" points="1083.54,-110.44 1074.09,-115.23 1084.46,-117.38 1083.54,-110.44"/>
<text text-anchor="middle" x="1127.5" y="-116" font-family="Helvetica,sans-Serif" font-size="10.00"> last_change</text>
</g>
<!-- Node7&#45;&gt;Node6 -->
<g id="edge7" class="edge">
<title>Node7&#45;&gt;Node6</title>
<path fill="none" stroke="#9a32cd" stroke-dasharray="5,2" d="M785.76,-147.16C795.39,-142.86 806.46,-138.58 817,-136 844.54,-129.26 875.26,-125.74 902.95,-123.98"/>
<polygon fill="#9a32cd" stroke="#9a32cd" points="784.25,-144 776.67,-151.4 787.21,-150.34 784.25,-144"/>
<text text-anchor="middle" x="851" y="-139" font-family="Helvetica,sans-Serif" font-size="10.00"> ptr</text>
</g>
<!-- Node8 -->
<g id="node8" class="node">
<title>Node8</title>
<g id="a_node8"><a xlink:title=" ">
<polygon fill="white" stroke="#bfbfbf" points="401,-151 401,-181 558,-181 558,-151 401,-151"/>
<text text-anchor="start" x="409" y="-169" font-family="Helvetica,sans-Serif" font-size="10.00">std::enable_shared</text>
<text text-anchor="middle" x="479.5" y="-158" font-family="Helvetica,sans-Serif" font-size="10.00">_from_this&lt; GameChange &gt;</text>
</a>
</g>
</g>
<!-- Node8&#45;&gt;Node7 -->
<g id="edge8" class="edge">
<title>Node8&#45;&gt;Node7</title>
<path fill="none" stroke="midnightblue" d="M568.17,-164.41C617.58,-163.52 676.95,-162.44 715.64,-161.74"/>
<polygon fill="midnightblue" stroke="midnightblue" points="568.05,-160.91 558.12,-164.59 568.18,-167.91 568.05,-160.91"/>
</g>
<!-- Node9&#45;&gt;Node7 -->
<g id="edge10" class="edge">
<title>Node9&#45;&gt;Node7</title>
<path fill="none" stroke="#9a32cd" stroke-dasharray="5,2" d="M554.37,-121.26C596.88,-122.28 651.01,-126.04 698,-137 711.68,-140.19 726.31,-146.19 737.51,-151.39"/>
<polygon fill="#9a32cd" stroke="#9a32cd" points="554.17,-117.76 544.11,-121.06 554.04,-124.75 554.17,-117.76"/>
<text text-anchor="middle" x="637" y="-151" font-family="Helvetica,sans-Serif" font-size="10.00"> old_assoziation</text>
<text text-anchor="middle" x="637" y="-140" font-family="Helvetica,sans-Serif" font-size="10.00">new_assoziation</text>
</g>
<!-- Node10 -->
<g id="node10" class="node">
<title>Node10</title>
<g id="a_node10"><a xlink:title=" ">
<polygon fill="white" stroke="#bfbfbf" points="411.5,-200.5 411.5,-219.5 547.5,-219.5 547.5,-200.5 411.5,-200.5"/>
<text text-anchor="middle" x="479.5" y="-207.5" font-family="Helvetica,sans-Serif" font-size="10.00">std::weak_ptr&lt; Player &gt;</text>
</a>
</g>
</g>
<!-- Node10&#45;&gt;Node7 -->
<g id="edge12" class="edge">
<title>Node10&#45;&gt;Node7</title>
<path fill="none" stroke="#9a32cd" stroke-dasharray="5,2" d="M557.67,-201.26C599.46,-195.87 651.83,-188.05 698,-178 707.4,-175.95 717.51,-173.21 726.64,-170.53"/>
<polygon fill="#9a32cd" stroke="#9a32cd" points="557.04,-197.81 547.56,-202.54 557.92,-204.75 557.04,-197.81"/>
<text text-anchor="middle" x="637" y="-202" font-family="Helvetica,sans-Serif" font-size="10.00"> player</text>
</g>
<!-- Node11 -->
<g id="node11" class="node">
<title>Node11</title>
<g id="a_node11"><a xlink:href="classPlayer.html" target="_top" xlink:title="represents a individual player/client">
<polygon fill="white" stroke="black" points="301,-200.5 301,-219.5 348,-219.5 348,-200.5 301,-200.5"/>
<text text-anchor="middle" x="324.5" y="-207.5" font-family="Helvetica,sans-Serif" font-size="10.00">Player</text>
</a>
</g>
</g>
<!-- Node11&#45;&gt;Node10 -->
<g id="edge13" class="edge">
<title>Node11&#45;&gt;Node10</title>
<path fill="none" stroke="#9a32cd" stroke-dasharray="5,2" d="M358.21,-210C373.77,-210 392.97,-210 411.43,-210"/>
<polygon fill="#9a32cd" stroke="#9a32cd" points="358.08,-206.5 348.08,-210 358.08,-213.5 358.08,-206.5"/>
<text text-anchor="middle" x="374.5" y="-213" font-family="Helvetica,sans-Serif" font-size="10.00"> ptr</text>
</g>
<!-- Node12 -->
<g id="node12" class="node">
<title>Node12</title>
<g id="a_node12"><a xlink:title="STL class.">
<polygon fill="white" stroke="#bfbfbf" points="141,-200.5 141,-219.5 206,-219.5 206,-200.5 141,-200.5"/>
<text text-anchor="middle" x="173.5" y="-207.5" font-family="Helvetica,sans-Serif" font-size="10.00">std::string</text>
</a>
</g>
</g>
<!-- Node12&#45;&gt;Node11 -->
<g id="edge14" class="edge">
<title>Node12&#45;&gt;Node11</title>
<path fill="none" stroke="#9a32cd" stroke-dasharray="5,2" d="M216.18,-210C243.54,-210 278.27,-210 300.69,-210"/>
<polygon fill="#9a32cd" stroke="#9a32cd" points="216.1,-206.5 206.1,-210 216.1,-213.5 216.1,-206.5"/>
<text text-anchor="middle" x="253.5" y="-224" font-family="Helvetica,sans-Serif" font-size="10.00"> passphrase</text>
<text text-anchor="middle" x="253.5" y="-213" font-family="Helvetica,sans-Serif" font-size="10.00">name</text>
</g>
<!-- Node13 -->
<g id="node13" class="node">
<title>Node13</title>
<g id="a_node13"><a xlink:title="STL class.">
<polygon fill="white" stroke="#bfbfbf" points="0,-195 0,-225 104,-225 104,-195 0,-195"/>
<text text-anchor="start" x="8" y="-213" font-family="Helvetica,sans-Serif" font-size="10.00">std::basic_string&lt;</text>
<text text-anchor="middle" x="52" y="-202" font-family="Helvetica,sans-Serif" font-size="10.00"> char &gt;</text>
</a>
</g>
</g>
<!-- Node13&#45;&gt;Node12 -->
<g id="edge15" class="edge">
<title>Node13&#45;&gt;Node12</title>
<path fill="none" stroke="midnightblue" d="M114.1,-210C123.41,-210 132.68,-210 141,-210"/>
<polygon fill="midnightblue" stroke="midnightblue" points="114.03,-206.5 104.03,-210 114.03,-213.5 114.03,-206.5"/>
</g>
<!-- Node14&#45;&gt;Node5 -->
<g id="edge16" class="edge">
<title>Node14&#45;&gt;Node5</title>
<path fill="none" stroke="#9a32cd" stroke-dasharray="5,2" d="M708.3,-84.13C837.91,-84.36 1107.94,-84.84 1180.96,-84.97"/>
<polygon fill="#9a32cd" stroke="#9a32cd" points="708.1,-80.62 698.09,-84.11 708.08,-87.62 708.1,-80.62"/>
<text text-anchor="middle" x="851" y="-88" font-family="Helvetica,sans-Serif" font-size="10.00"> assigned_dot</text>
</g>
</g>
</svg>
        <g id="navigator" transform="translate(0 0)" fill="#404254">
                <rect fill="#f2f5e9" fill-opacity="0.5" stroke="#606060" stroke-width=".5" x="0" y="0" width="60" height="60"/>
                <use id="zoomplus" xlink:href="#zoomPlus" x="17" y="9" onmousedown="handleZoom(evt,'in')"/>
                <use id="zoomminus" xlink:href="#zoomMin" x="42" y="9" onmousedown="handleZoom(evt,'out')"/>
                <use id="reset" xlink:href="#resetDef" x="30" y="36" onmousedown="handleReset()"/>
                <g id="arrowUp" xlink:href="#dirArrow" transform="translate(30 24)" onmousedown="handlePan(0,-1)">
                  <use xlink:href="#rim" fill="#404040">
                        <set attributeName="fill" to="#808080" begin="arrowUp.mouseover" end="arrowUp.mouseout"/>
                  </use>
                  <path fill="none" stroke="white" stroke-width="1.5" d="M0,-3.0v7 M-2.5,-0.5L0,-3.0L2.5,-0.5"/>
                </g>
                <g id="arrowRight" xlink:href="#dirArrow" transform="rotate(90) translate(36 -43)" onmousedown="handlePan(1,0)">
                  <use xlink:href="#rim" fill="#404040">
                        <set attributeName="fill" to="#808080" begin="arrowRight.mouseover" end="arrowRight.mouseout"/>
                  </use>
                  <path fill="none" stroke="white" stroke-width="1.5" d="M0,-3.0v7 M-2.5,-0.5L0,-3.0L2.5,-0.5"/>
                </g>
                <g id="arrowDown" xlink:href="#dirArrow" transform="rotate(180) translate(-30 -48)" onmousedown="handlePan(0,1)">
                  <use xlink:href="#rim" fill="#404040">
                        <set attributeName="fill" to="#808080" begin="arrowDown.mouseover" end="arrowDown.mouseout"/>
                  </use>
                  <path fill="none" stroke="white" stroke-width="1.5" d="M0,-3.0v7 M-2.5,-0.5L0,-3.0L2.5,-0.5"/>
                </g>
                <g id="arrowLeft" xlink:href="#dirArrow" transform="rotate(270) translate(-36 17)" onmousedown="handlePan(-1,0)">
                  <use xlink:href="#rim" fill="#404040">
                        <set attributeName="fill" to="#808080" begin="arrowLeft.mouseover" end="arrowLeft.mouseout"/>
                  </use>
                  <path fill="none" stroke="white" stroke-width="1.5" d="M0,-3.0v7 M-2.5,-0.5L0,-3.0L2.5,-0.5"/>
                </g>
        </g>
        <svg viewBox="0 0 15 15" width="100%" height="30px" preserveAspectRatio="xMaxYMin meet">
         <g id="arrow_out" transform="scale(0.3 0.3)">
          <a xlink:href="classDot__coll__graph_org.svg" target="_base">
           <rect id="button" ry="5" rx="5" y="6" x="6" height="38" width="38"
                fill="#f2f5e9" fill-opacity="0.5" stroke="#606060" stroke-width="1.0"/>
           <path id="arrow"
             d="M 11.500037,31.436501 C 11.940474,20.09759 22.043105,11.32322 32.158766,21.979434 L 37.068811,17.246167 C 37.068811,17.246167 37.088388,32 37.088388,32 L 22.160133,31.978069 C 22.160133,31.978069 26.997745,27.140456 26.997745,27.140456 C 18.528582,18.264221 13.291696,25.230495 11.500037,31.436501 z"
             style="fill:#404040;"/>
          </a>
         </g>
        </svg>
</svg>
