<?xml version="1.0" encoding="UTF-8" standalone="no"?>
<!DOCTYPE svg PUBLIC "-//W3C//DTD SVG 1.1//EN"
 "http://www.w3.org/Graphics/SVG/1.1/DTD/svg11.dtd">
<!-- Generated by graphviz version 2.42.3 (0)
 -->
<!-- Title: Galaxy::stop Pages: 1 -->
<svg width="754pt" height="66pt"
 viewBox="0.00 0.00 754.00 66.00" xmlns="http://www.w3.org/2000/svg" xmlns:xlink="http://www.w3.org/1999/xlink">
<g id="graph0" class="graph" transform="scale(1 1) rotate(0) translate(4 62)">
<title>Galaxy::stop</title>
<polygon fill="white" stroke="transparent" points="-4,4 -4,-62 750,-62 750,4 -4,4"/>
<!-- Node1 -->
<g id="node1" class="node">
<title>Node1</title>
<g id="a_node1"><a xlink:title="starts notifing all components to shutdown.">
<polygon fill="#bfbfbf" stroke="black" points="669,-19.5 669,-38.5 746,-38.5 746,-19.5 669,-19.5"/>
<text text-anchor="middle" x="707.5" y="-26.5" font-family="Helvetica,sans-Serif" font-size="10.00">Galaxy::stop</text>
</a>
</g>
</g>
<!-- Node2 -->
<g id="node2" class="node">
<title>Node2</title>
<g id="a_node2"><a xlink:href="classGalaxy.html#a13dbcec35a2b7615acb153d7ca33bce3" target="_top" xlink:title="central method that manages incomming messages from clients">
<polygon fill="white" stroke="black" points="487,-38.5 487,-57.5 633,-57.5 633,-38.5 487,-38.5"/>
<text text-anchor="middle" x="560" y="-45.5" font-family="Helvetica,sans-Serif" font-size="10.00">Galaxy::executeCommand</text>
</a>
</g>
</g>
<!-- Node1&#45;&gt;Node2 -->
<g id="edge1" class="edge">
<title>Node1&#45;&gt;Node2</title>
<path fill="none" stroke="midnightblue" d="M658.57,-35.26C650.39,-36.33 641.73,-37.46 633.08,-38.59"/>
<polygon fill="midnightblue" stroke="midnightblue" points="659.19,-38.71 668.65,-33.94 658.28,-31.77 659.19,-38.71"/>
</g>
<!-- Node7 -->
<g id="node7" class="node">
<title>Node7</title>
<g id="a_node7"><a xlink:href="main_8cpp.html#a13848d945610347db87a059fe0b43f35" target="_top" xlink:title=" ">
<polygon fill="white" stroke="black" points="339,-0.5 339,-19.5 413,-19.5 413,-0.5 339,-0.5"/>
<text text-anchor="middle" x="376" y="-7.5" font-family="Helvetica,sans-Serif" font-size="10.00">my_handler</text>
</a>
</g>
</g>
<!-- Node1&#45;&gt;Node7 -->
<g id="edge6" class="edge">
<title>Node1&#45;&gt;Node7</title>
<path fill="none" stroke="midnightblue" d="M658.48,-26.23C591.92,-22.39 473.07,-15.54 413.35,-12.1"/>
<polygon fill="midnightblue" stroke="midnightblue" points="658.52,-29.74 668.7,-26.82 658.92,-22.75 658.52,-29.74"/>
</g>
<!-- Node3 -->
<g id="node3" class="node">
<title>Node3</title>
<g id="a_node3"><a xlink:href="classNetwork.html#a356c8c0ec32e2795bd754b067838fd89" target="_top" xlink:title="prozesses all incoming messages">
<polygon fill="white" stroke="black" points="301,-38.5 301,-57.5 451,-57.5 451,-38.5 301,-38.5"/>
<text text-anchor="middle" x="376" y="-45.5" font-family="Helvetica,sans-Serif" font-size="10.00">Network::processMessages</text>
</a>
</g>
</g>
<!-- Node2&#45;&gt;Node3 -->
<g id="edge2" class="edge">
<title>Node2&#45;&gt;Node3</title>
<path fill="none" stroke="midnightblue" d="M476.56,-48C468.11,-48 459.55,-48 451.19,-48"/>
<polygon fill="midnightblue" stroke="midnightblue" points="476.81,-51.5 486.81,-48 476.81,-44.5 476.81,-51.5"/>
</g>
<!-- Node4 -->
<g id="node4" class="node">
<title>Node4</title>
<g id="a_node4"><a xlink:href="classNetwork.html#a7d9b412cc58237783bd431544374e11a" target="_top" xlink:title="starts server and prozessing thread">
<polygon fill="white" stroke="black" points="185,-38.5 185,-57.5 265,-57.5 265,-38.5 185,-38.5"/>
<text text-anchor="middle" x="225" y="-45.5" font-family="Helvetica,sans-Serif" font-size="10.00">Network::run</text>
</a>
</g>
</g>
<!-- Node3&#45;&gt;Node4 -->
<g id="edge3" class="edge">
<title>Node3&#45;&gt;Node4</title>
<path fill="none" stroke="midnightblue" d="M290.78,-48C281.82,-48 273.06,-48 265.02,-48"/>
<polygon fill="midnightblue" stroke="midnightblue" points="290.94,-51.5 300.94,-48 290.94,-44.5 290.94,-51.5"/>
</g>
<!-- Node5 -->
<g id="node5" class="node">
<title>Node5</title>
<g id="a_node5"><a xlink:href="classGalaxy.html#a06c64a89d3bd684797c725c8419c10ca" target="_top" xlink:title="starts the &quot;game loop&quot;. this blocks the thread until server stops.">
<polygon fill="white" stroke="black" points="77,-38.5 77,-57.5 149,-57.5 149,-38.5 77,-38.5"/>
<text text-anchor="middle" x="113" y="-45.5" font-family="Helvetica,sans-Serif" font-size="10.00">Galaxy::run</text>
</a>
</g>
</g>
<!-- Node4&#45;&gt;Node5 -->
<g id="edge4" class="edge">
<title>Node4&#45;&gt;Node5</title>
<path fill="none" stroke="midnightblue" d="M174.64,-48C166.1,-48 157.37,-48 149.3,-48"/>
<polygon fill="midnightblue" stroke="midnightblue" points="174.91,-51.5 184.91,-48 174.91,-44.5 174.91,-51.5"/>
</g>
<!-- Node6 -->
<g id="node6" class="node">
<title>Node6</title>
<g id="a_node6"><a xlink:href="main_8cpp.html#a3c04138a5bfe5d72780bb7e82a18e627" target="_top" xlink:title=" ">
<polygon fill="white" stroke="black" points="0,-19.5 0,-38.5 41,-38.5 41,-19.5 0,-19.5"/>
<text text-anchor="middle" x="20.5" y="-26.5" font-family="Helvetica,sans-Serif" font-size="10.00">main</text>
</a>
</g>
</g>
<!-- Node5&#45;&gt;Node6 -->
<g id="edge5" class="edge">
<title>Node5&#45;&gt;Node6</title>
<path fill="none" stroke="midnightblue" d="M66.96,-38.54C57.86,-36.63 48.76,-34.72 41.11,-33.12"/>
<polygon fill="midnightblue" stroke="midnightblue" points="66.25,-41.97 76.75,-40.6 67.68,-35.12 66.25,-41.97"/>
</g>
<!-- Node7&#45;&gt;Node6 -->
<g id="edge7" class="edge">
<title>Node7&#45;&gt;Node6</title>
<path fill="none" stroke="midnightblue" d="M328.81,-12.48C250.84,-16.67 96.27,-24.98 41.4,-27.93"/>
<polygon fill="midnightblue" stroke="midnightblue" points="329.03,-15.98 338.83,-11.94 328.66,-8.99 329.03,-15.98"/>
</g>
</g>
</svg>
