<?xml version="1.0" encoding="UTF-8" standalone="no"?>
<!DOCTYPE svg PUBLIC "-//W3C//DTD SVG 1.1//EN"
 "http://www.w3.org/Graphics/SVG/1.1/DTD/svg11.dtd">
<!-- Generated by graphviz version 2.42.3 (0)
 -->
<!-- Title: GameGen::printDotSpaceCandidates Pages: 1 -->
<svg width="993pt" height="78pt"
 viewBox="0.00 0.00 993.00 77.50" xmlns="http://www.w3.org/2000/svg" xmlns:xlink="http://www.w3.org/1999/xlink">
<g id="graph0" class="graph" transform="scale(1 1) rotate(0) translate(4 73.5)">
<title>GameGen::printDotSpaceCandidates</title>
<polygon fill="white" stroke="transparent" points="-4,4 -4,-73.5 989,-73.5 989,4 -4,4"/>
<!-- Node1 -->
<g id="node1" class="node">
<title>Node1</title>
<g id="a_node1"><a xlink:title=" ">
<polygon fill="#bfbfbf" stroke="black" points="790,-28 790,-47 985,-47 985,-28 790,-28"/>
<text text-anchor="middle" x="887.5" y="-35" font-family="Helvetica,sans-Serif" font-size="10.00">GameGen::printDotSpaceCandidates</text>
</a>
</g>
</g>
<!-- Node2 -->
<g id="node2" class="node">
<title>Node2</title>
<g id="a_node2"><a xlink:href="classGameGen.html#a4d7754bc07fc51f98c7d1855f242cb6d" target="_top" xlink:title=" ">
<polygon fill="white" stroke="black" points="597,-48 597,-67 754,-67 754,-48 597,-48"/>
<text text-anchor="middle" x="675.5" y="-55" font-family="Helvetica,sans-Serif" font-size="10.00">GameGen::addFieldToGalaxy</text>
</a>
</g>
</g>
<!-- Node1&#45;&gt;Node2 -->
<g id="edge1" class="edge">
<title>Node1&#45;&gt;Node2</title>
<path fill="none" stroke="midnightblue" d="M779.7,-47.67C771.08,-48.49 762.49,-49.31 754.14,-50.11"/>
<polygon fill="midnightblue" stroke="midnightblue" points="780.17,-51.14 789.8,-46.71 779.51,-44.17 780.17,-51.14"/>
</g>
<!-- Node6 -->
<g id="node6" class="node">
<title>Node6</title>
<g id="a_node6"><a xlink:href="classGameGen.html#a79ecced48a44e20cb7ebfb96b8d89648" target="_top" xlink:title=" ">
<polygon fill="white" stroke="black" points="379,-0.5 379,-30.5 552,-30.5 552,-0.5 379,-0.5"/>
<text text-anchor="start" x="387" y="-18.5" font-family="Helvetica,sans-Serif" font-size="10.00">GameGen::generateRandomDot</text>
<text text-anchor="middle" x="465.5" y="-7.5" font-family="Helvetica,sans-Serif" font-size="10.00">InEmptySpot</text>
</a>
</g>
</g>
<!-- Node1&#45;&gt;Node6 -->
<g id="edge5" class="edge">
<title>Node1&#45;&gt;Node6</title>
<path fill="none" stroke="midnightblue" d="M779.64,-31.9C709.16,-28.21 618.07,-23.44 552.32,-20"/>
<polygon fill="midnightblue" stroke="midnightblue" points="779.71,-35.41 789.88,-32.44 780.08,-28.42 779.71,-35.41"/>
</g>
<!-- Node3 -->
<g id="node3" class="node">
<title>Node3</title>
<g id="a_node3"><a xlink:href="classGameGen.html#a7f1de577fbe021ce42b1851ce313a53c" target="_top" xlink:title=" ">
<polygon fill="white" stroke="black" points="370,-50 370,-69 561,-69 561,-50 370,-50"/>
<text text-anchor="middle" x="465.5" y="-57" font-family="Helvetica,sans-Serif" font-size="10.00">GameGen::generateGalaxyFromDot</text>
</a>
</g>
</g>
<!-- Node2&#45;&gt;Node3 -->
<g id="edge2" class="edge">
<title>Node2&#45;&gt;Node3</title>
<path fill="none" stroke="midnightblue" d="M586.54,-58.35C578.1,-58.43 569.52,-58.51 561.02,-58.59"/>
<polygon fill="midnightblue" stroke="midnightblue" points="586.79,-61.84 596.75,-58.25 586.72,-54.84 586.79,-61.84"/>
</g>
<!-- Node4 -->
<g id="node4" class="node">
<title>Node4</title>
<g id="a_node4"><a xlink:href="classGameGen.html#a60f3a45a60360c377d1868fbbbed27ff" target="_top" xlink:title=" ">
<polygon fill="white" stroke="black" points="173,-28 173,-47 334,-47 334,-28 173,-28"/>
<text text-anchor="middle" x="253.5" y="-35" font-family="Helvetica,sans-Serif" font-size="10.00">GameGen::generateNextDots</text>
</a>
</g>
</g>
<!-- Node3&#45;&gt;Node4 -->
<g id="edge3" class="edge">
<title>Node3&#45;&gt;Node4</title>
<path fill="none" stroke="midnightblue" d="M363.45,-48.91C353.67,-47.89 343.84,-46.86 334.31,-45.86"/>
<polygon fill="midnightblue" stroke="midnightblue" points="363.3,-52.42 373.61,-49.98 364.03,-45.46 363.3,-52.42"/>
</g>
<!-- Node5 -->
<g id="node5" class="node">
<title>Node5</title>
<g id="a_node5"><a xlink:href="classGameGen.html#a0ce6a9241bfbb198b0ba80ed8ea306eb" target="_top" xlink:title=" ">
<polygon fill="white" stroke="black" points="0,-28 0,-47 137,-47 137,-28 0,-28"/>
<text text-anchor="middle" x="68.5" y="-35" font-family="Helvetica,sans-Serif" font-size="10.00">GameGen::generateDots</text>
</a>
</g>
</g>
<!-- Node4&#45;&gt;Node5 -->
<g id="edge4" class="edge">
<title>Node4&#45;&gt;Node5</title>
<path fill="none" stroke="midnightblue" d="M162.72,-37.5C154.15,-37.5 145.55,-37.5 137.23,-37.5"/>
<polygon fill="midnightblue" stroke="midnightblue" points="162.77,-41 172.77,-37.5 162.77,-34 162.77,-41"/>
</g>
<!-- Node6&#45;&gt;Node4 -->
<g id="edge6" class="edge">
<title>Node6&#45;&gt;Node4</title>
<path fill="none" stroke="midnightblue" d="M368.69,-25.54C357.16,-26.75 345.47,-27.97 334.19,-29.15"/>
<polygon fill="midnightblue" stroke="midnightblue" points="369.2,-29 378.78,-24.48 368.47,-22.04 369.2,-29"/>
</g>
</g>
</svg>
