<?xml version="1.0" encoding="UTF-8" standalone="no"?>
<!DOCTYPE svg PUBLIC "-//W3C//DTD SVG 1.1//EN"
 "http://www.w3.org/Graphics/SVG/1.1/DTD/svg11.dtd">
<!-- Generated by graphviz version 2.42.3 (0)
 -->
<!-- Title: Galaxy Pages: 1 -->
<svg width="2922pt" height="432pt"
 viewBox="0.00 0.00 2922.00 432.00" xmlns="http://www.w3.org/2000/svg" xmlns:xlink="http://www.w3.org/1999/xlink">
<g id="graph0" class="graph" transform="scale(1 1) rotate(0) translate(4 428)">
<title>Galaxy</title>
<polygon fill="white" stroke="transparent" points="-4,4 -4,-428 2918,-428 2918,4 -4,4"/>
<!-- Node1 -->
<g id="node1" class="node">
<title>Node1</title>
<g id="a_node1"><a xlink:title="Main class of this project. Manages all ressources.">
<polygon fill="#bfbfbf" stroke="black" points="2638,-269.5 2638,-288.5 2689,-288.5 2689,-269.5 2638,-269.5"/>
<text text-anchor="middle" x="2663.5" y="-276.5" font-family="Helvetica,sans-Serif" font-size="10.00">Galaxy</text>
</a>
</g>
</g>
<!-- Node21 -->
<g id="node21" class="node">
<title>Node21</title>
<g id="a_node21"><a xlink:href="classNetwork.html" target="_top" xlink:title="Manages the Websocket connection.">
<polygon fill="white" stroke="black" points="2856,-329.5 2856,-348.5 2914,-348.5 2914,-329.5 2856,-329.5"/>
<text text-anchor="middle" x="2885" y="-336.5" font-family="Helvetica,sans-Serif" font-size="10.00">Network</text>
</a>
</g>
</g>
<!-- Node1&#45;&gt;Node21 -->
<g id="edge29" class="edge">
<title>Node1&#45;&gt;Node21</title>
<path fill="none" stroke="#9a32cd" stroke-dasharray="5,2" d="M2699.42,-271.96C2735.93,-266.38 2793.95,-262.64 2838,-284 2857.94,-293.67 2872.39,-316.48 2879.34,-329.49"/>
<polygon fill="#9a32cd" stroke="#9a32cd" points="2698.56,-268.55 2689.27,-273.64 2699.71,-275.46 2698.56,-268.55"/>
<text text-anchor="middle" x="2795.5" y="-287" font-family="Helvetica,sans-Serif" font-size="10.00"> galaxy</text>
</g>
<!-- Node2 -->
<g id="node2" class="node">
<title>Node2</title>
<g id="a_node2"><a xlink:title=" ">
<polygon fill="white" stroke="#bfbfbf" points="2334,-258.5 2334,-299.5 2488,-299.5 2488,-258.5 2334,-258.5"/>
<text text-anchor="start" x="2342" y="-287.5" font-family="Helvetica,sans-Serif" font-size="10.00">std::map&lt; web_con,</text>
<text text-anchor="start" x="2342" y="-276.5" font-family="Helvetica,sans-Serif" font-size="10.00"> shared_player, std</text>
<text text-anchor="middle" x="2411" y="-265.5" font-family="Helvetica,sans-Serif" font-size="10.00">::owner_less&lt; web_con &gt; &gt;</text>
</a>
</g>
</g>
<!-- Node2&#45;&gt;Node1 -->
<g id="edge1" class="edge">
<title>Node2&#45;&gt;Node1</title>
<path fill="none" stroke="#9a32cd" stroke-dasharray="5,2" d="M2498.21,-279C2547.41,-279 2605.54,-279 2637.79,-279"/>
<polygon fill="#9a32cd" stroke="#9a32cd" points="2498.18,-275.5 2488.18,-279 2498.18,-282.5 2498.18,-275.5"/>
<text text-anchor="middle" x="2540" y="-282" font-family="Helvetica,sans-Serif" font-size="10.00"> players</text>
</g>
<!-- Node3 -->
<g id="node3" class="node">
<title>Node3</title>
<g id="a_node3"><a xlink:title="STL class.">
<polygon fill="white" stroke="#bfbfbf" points="2111.5,-269.5 2111.5,-288.5 2229.5,-288.5 2229.5,-269.5 2111.5,-269.5"/>
<text text-anchor="middle" x="2170.5" y="-276.5" font-family="Helvetica,sans-Serif" font-size="10.00">std::shared_ptr&lt; T &gt;</text>
</a>
</g>
</g>
<!-- Node3&#45;&gt;Node2 -->
<g id="edge2" class="edge">
<title>Node3&#45;&gt;Node2</title>
<path fill="none" stroke="#9a32cd" stroke-dasharray="5,2" d="M2239.68,-279C2269.01,-279 2303.42,-279 2333.6,-279"/>
<polygon fill="#9a32cd" stroke="#9a32cd" points="2239.54,-275.5 2229.54,-279 2239.54,-282.5 2239.54,-275.5"/>
<text text-anchor="middle" x="2288" y="-282" font-family="Helvetica,sans-Serif" font-size="10.00"> elements</text>
</g>
<!-- Node4 -->
<g id="node4" class="node">
<title>Node4</title>
<g id="a_node4"><a xlink:title=" ">
<polygon fill="white" stroke="#bfbfbf" points="1935,-269.5 1935,-288.5 1964,-288.5 1964,-269.5 1935,-269.5"/>
<text text-anchor="middle" x="1949.5" y="-276.5" font-family="Helvetica,sans-Serif" font-size="10.00">T</text>
</a>
</g>
</g>
<!-- Node4&#45;&gt;Node3 -->
<g id="edge3" class="edge">
<title>Node4&#45;&gt;Node3</title>
<path fill="none" stroke="#9a32cd" stroke-dasharray="5,2" d="M1974.58,-279C2007.27,-279 2066.74,-279 2111.43,-279"/>
<polygon fill="#9a32cd" stroke="#9a32cd" points="1974.2,-275.5 1964.2,-279 1974.2,-282.5 1974.2,-275.5"/>
<text text-anchor="middle" x="2056.5" y="-282" font-family="Helvetica,sans-Serif" font-size="10.00"> ptr</text>
</g>
<!-- Node5 -->
<g id="node5" class="node">
<title>Node5</title>
<g id="a_node5"><a xlink:title=" ">
<polygon fill="white" stroke="#bfbfbf" points="1106,-317 1106,-347 1241,-347 1241,-317 1106,-317"/>
<text text-anchor="start" x="1114" y="-335" font-family="Helvetica,sans-Serif" font-size="10.00">std::list&lt; std::shared</text>
<text text-anchor="middle" x="1173.5" y="-324" font-family="Helvetica,sans-Serif" font-size="10.00">_ptr&lt; GameChange &gt; &gt;</text>
</a>
</g>
</g>
<!-- Node5&#45;&gt;Node1 -->
<g id="edge4" class="edge">
<title>Node5&#45;&gt;Node1</title>
<path fill="none" stroke="#9a32cd" stroke-dasharray="5,2" d="M1251.13,-332.9C1302.91,-333.43 1372.82,-334 1434.5,-334 1434.5,-334 1434.5,-334 2412,-334 2496.38,-334 2593.1,-303.86 2637.65,-288.21"/>
<polygon fill="#9a32cd" stroke="#9a32cd" points="1251.06,-329.4 1241.02,-332.79 1250.99,-336.4 1251.06,-329.4"/>
<text text-anchor="middle" x="1848.5" y="-337" font-family="Helvetica,sans-Serif" font-size="10.00"> history</text>
</g>
<!-- Node6 -->
<g id="node6" class="node">
<title>Node6</title>
<g id="a_node6"><a xlink:title=" ">
<polygon fill="white" stroke="#bfbfbf" points="764,-315.5 764,-334.5 942,-334.5 942,-315.5 764,-315.5"/>
<text text-anchor="middle" x="853" y="-322.5" font-family="Helvetica,sans-Serif" font-size="10.00">std::shared_ptr&lt; GameChange &gt;</text>
</a>
</g>
</g>
<!-- Node6&#45;&gt;Node5 -->
<g id="edge5" class="edge">
<title>Node6&#45;&gt;Node5</title>
<path fill="none" stroke="#9a32cd" stroke-dasharray="5,2" d="M952.45,-327.16C1002.25,-328.26 1061.38,-329.56 1105.8,-330.53"/>
<polygon fill="#9a32cd" stroke="#9a32cd" points="952.37,-323.66 942.3,-326.94 952.22,-330.66 952.37,-323.66"/>
<text text-anchor="middle" x="995.5" y="-331" font-family="Helvetica,sans-Serif" font-size="10.00"> elements</text>
</g>
<!-- Node7 -->
<g id="node7" class="node">
<title>Node7</title>
<g id="a_node7"><a xlink:href="classGameChange.html" target="_top" xlink:title="Represents an atomic change to the gamestate. Can be reverted, once applied.">
<polygon fill="white" stroke="black" points="628,-228.5 628,-247.5 711,-247.5 711,-228.5 628,-228.5"/>
<text text-anchor="middle" x="669.5" y="-235.5" font-family="Helvetica,sans-Serif" font-size="10.00">GameChange</text>
</a>
</g>
</g>
<!-- Node7&#45;&gt;Node6 -->
<g id="edge6" class="edge">
<title>Node7&#45;&gt;Node6</title>
<path fill="none" stroke="#9a32cd" stroke-dasharray="5,2" d="M683.33,-256C694.01,-269.62 710.43,-287.68 729,-298 743.24,-305.91 759.61,-311.5 775.66,-315.46"/>
<polygon fill="#9a32cd" stroke="#9a32cd" points="685.99,-253.7 677.18,-247.81 680.39,-257.91 685.99,-253.7"/>
<text text-anchor="middle" x="737.5" y="-308" font-family="Helvetica,sans-Serif" font-size="10.00"> ptr</text>
</g>
<!-- Node12 -->
<g id="node12" class="node">
<title>Node12</title>
<g id="a_node12"><a xlink:title=" ">
<polygon fill="white" stroke="#bfbfbf" points="767.5,-91.5 767.5,-110.5 938.5,-110.5 938.5,-91.5 767.5,-91.5"/>
<text text-anchor="middle" x="853" y="-98.5" font-family="Helvetica,sans-Serif" font-size="10.00">std::weak_ptr&lt; GameChange &gt;</text>
</a>
</g>
</g>
<!-- Node7&#45;&gt;Node12 -->
<g id="edge12" class="edge">
<title>Node7&#45;&gt;Node12</title>
<path fill="none" stroke="#9a32cd" stroke-dasharray="5,2" d="M688.01,-221.44C706.33,-204.47 736.22,-177.7 764,-157 787.82,-139.26 817.23,-121.26 835.3,-110.62"/>
<polygon fill="#9a32cd" stroke="#9a32cd" points="685.38,-219.11 680.46,-228.5 690.16,-224.23 685.38,-219.11"/>
<text text-anchor="middle" x="737.5" y="-188" font-family="Helvetica,sans-Serif" font-size="10.00"> ptr</text>
</g>
<!-- Node8 -->
<g id="node8" class="node">
<title>Node8</title>
<g id="a_node8"><a xlink:title=" ">
<polygon fill="white" stroke="#bfbfbf" points="401,-241 401,-271 558,-271 558,-241 401,-241"/>
<text text-anchor="start" x="409" y="-259" font-family="Helvetica,sans-Serif" font-size="10.00">std::enable_shared</text>
<text text-anchor="middle" x="479.5" y="-248" font-family="Helvetica,sans-Serif" font-size="10.00">_from_this&lt; GameChange &gt;</text>
</a>
</g>
</g>
<!-- Node8&#45;&gt;Node7 -->
<g id="edge7" class="edge">
<title>Node8&#45;&gt;Node7</title>
<path fill="none" stroke="midnightblue" d="M568.23,-247.6C589.08,-245.6 610.34,-243.57 627.89,-241.89"/>
<polygon fill="midnightblue" stroke="midnightblue" points="567.67,-244.14 558.05,-248.57 568.34,-251.11 567.67,-244.14"/>
</g>
<!-- Node9 -->
<g id="node9" class="node">
<title>Node9</title>
<g id="a_node9"><a xlink:title=" ">
<polygon fill="white" stroke="#bfbfbf" points="1259,-53.5 1259,-72.5 1393,-72.5 1393,-53.5 1259,-53.5"/>
<text text-anchor="middle" x="1326" y="-60.5" font-family="Helvetica,sans-Serif" font-size="10.00">std::shared_ptr&lt; Field &gt;</text>
</a>
</g>
</g>
<!-- Node9&#45;&gt;Node7 -->
<g id="edge8" class="edge">
<title>Node9&#45;&gt;Node7</title>
<path fill="none" stroke="#9a32cd" stroke-dasharray="5,2" d="M1280.44,-51.05C1179.98,-26.81 931.54,17.83 764,-82 706.77,-116.1 680.36,-199.97 672.85,-228.39"/>
<polygon fill="#9a32cd" stroke="#9a32cd" points="1279.71,-54.48 1290.26,-53.47 1281.38,-47.68 1279.71,-54.48"/>
<text text-anchor="middle" x="995.5" y="-26" font-family="Helvetica,sans-Serif" font-size="10.00"> affected_field</text>
</g>
<!-- Node15 -->
<g id="node15" class="node">
<title>Node15</title>
<g id="a_node15"><a xlink:title=" ">
<polygon fill="white" stroke="#bfbfbf" points="1490,-144.5 1490,-163.5 1615,-163.5 1615,-144.5 1490,-144.5"/>
<text text-anchor="middle" x="1552.5" y="-151.5" font-family="Helvetica,sans-Serif" font-size="10.00">std::set&lt; field_ptr_t &gt;</text>
</a>
</g>
</g>
<!-- Node9&#45;&gt;Node15 -->
<g id="edge17" class="edge">
<title>Node9&#45;&gt;Node15</title>
<path fill="none" stroke="#9a32cd" stroke-dasharray="5,2" d="M1355.85,-76.86C1385.97,-91.07 1434.75,-113.39 1478,-130 1491.53,-135.2 1506.73,-140.28 1519.78,-144.42"/>
<polygon fill="#9a32cd" stroke="#9a32cd" points="1357.29,-73.67 1346.76,-72.54 1354.29,-79.99 1357.29,-73.67"/>
<text text-anchor="middle" x="1435.5" y="-125" font-family="Helvetica,sans-Serif" font-size="10.00"> keys</text>
</g>
<!-- Node27 -->
<g id="node27" class="node">
<title>Node27</title>
<g id="a_node27"><a xlink:title=" ">
<polygon fill="white" stroke="#bfbfbf" points="1478,-48 1478,-78 1627,-78 1627,-48 1478,-48"/>
<text text-anchor="start" x="1486" y="-66" font-family="Helvetica,sans-Serif" font-size="10.00">std::map&lt; pos_type,</text>
<text text-anchor="middle" x="1552.5" y="-55" font-family="Helvetica,sans-Serif" font-size="10.00"> std::shared_ptr&lt; Field &gt; &gt;</text>
</a>
</g>
</g>
<!-- Node9&#45;&gt;Node27 -->
<g id="edge32" class="edge">
<title>Node9&#45;&gt;Node27</title>
<path fill="none" stroke="#9a32cd" stroke-dasharray="5,2" d="M1403.32,-63C1427.44,-63 1454.04,-63 1477.97,-63"/>
<polygon fill="#9a32cd" stroke="#9a32cd" points="1403.14,-59.5 1393.14,-63 1403.14,-66.5 1403.14,-59.5"/>
<text text-anchor="middle" x="1435.5" y="-66" font-family="Helvetica,sans-Serif" font-size="10.00"> elements</text>
</g>
<!-- Node30 -->
<g id="node30" class="node">
<title>Node30</title>
<g id="a_node30"><a xlink:title=" ">
<polygon fill="white" stroke="#bfbfbf" points="1645,-0.5 1645,-41.5 1760,-41.5 1760,-0.5 1645,-0.5"/>
<text text-anchor="start" x="1653" y="-29.5" font-family="Helvetica,sans-Serif" font-size="10.00">std::map&lt; unsigned</text>
<text text-anchor="start" x="1653" y="-18.5" font-family="Helvetica,sans-Serif" font-size="10.00"> int, std::shared_ptr</text>
<text text-anchor="middle" x="1702.5" y="-7.5" font-family="Helvetica,sans-Serif" font-size="10.00">&lt; Field &gt; &gt;</text>
</a>
</g>
</g>
<!-- Node9&#45;&gt;Node30 -->
<g id="edge40" class="edge">
<title>Node9&#45;&gt;Node30</title>
<path fill="none" stroke="#9a32cd" stroke-dasharray="5,2" d="M1388.98,-51.73C1396.4,-50.44 1403.86,-49.17 1411,-48 1440.71,-43.13 1448.08,-41.37 1478,-38 1534.65,-31.63 1599.66,-26.98 1644.9,-24.17"/>
<polygon fill="#9a32cd" stroke="#9a32cd" points="1388.18,-48.31 1378.94,-53.49 1389.39,-55.21 1388.18,-48.31"/>
<text text-anchor="middle" x="1435.5" y="-51" font-family="Helvetica,sans-Serif" font-size="10.00"> elements</text>
</g>
<!-- Node10 -->
<g id="node10" class="node">
<title>Node10</title>
<g id="a_node10"><a xlink:href="classField.html" target="_top" xlink:title="represents a Field in the game">
<polygon fill="white" stroke="black" points="1049,-92.5 1049,-111.5 1088,-111.5 1088,-92.5 1049,-92.5"/>
<text text-anchor="middle" x="1068.5" y="-99.5" font-family="Helvetica,sans-Serif" font-size="10.00">Field</text>
</a>
</g>
</g>
<!-- Node10&#45;&gt;Node9 -->
<g id="edge9" class="edge">
<title>Node10&#45;&gt;Node9</title>
<path fill="none" stroke="#9a32cd" stroke-dasharray="5,2" d="M1097.49,-89.58C1100.33,-88.6 1103.2,-87.71 1106,-87 1156.41,-74.15 1215.06,-68.18 1258.98,-65.41"/>
<polygon fill="#9a32cd" stroke="#9a32cd" points="1096.19,-86.33 1088.1,-93.18 1098.69,-92.87 1096.19,-86.33"/>
<text text-anchor="middle" x="1173.5" y="-90" font-family="Helvetica,sans-Serif" font-size="10.00"> ptr</text>
</g>
<!-- Node11 -->
<g id="node11" class="node">
<title>Node11</title>
<g id="a_node11"><a xlink:href="structpos__type.html" target="_top" xlink:title="simple position type for 2 dimensions. sortable">
<polygon fill="white" stroke="black" points="822.5,-166.5 822.5,-185.5 883.5,-185.5 883.5,-166.5 822.5,-166.5"/>
<text text-anchor="middle" x="853" y="-173.5" font-family="Helvetica,sans-Serif" font-size="10.00">pos_type</text>
</a>
</g>
</g>
<!-- Node11&#45;&gt;Node10 -->
<g id="edge10" class="edge">
<title>Node11&#45;&gt;Node10</title>
<path fill="none" stroke="#9a32cd" stroke-dasharray="5,2" d="M881.34,-161.9C902.41,-151.46 932.5,-137.46 960,-128 990.5,-117.51 1027.27,-109.59 1048.94,-105.39"/>
<polygon fill="#9a32cd" stroke="#9a32cd" points="879.7,-158.8 872.33,-166.42 882.84,-165.06 879.7,-158.8"/>
<text text-anchor="middle" x="995.5" y="-131" font-family="Helvetica,sans-Serif" font-size="10.00"> position</text>
</g>
<!-- Node14 -->
<g id="node14" class="node">
<title>Node14</title>
<g id="a_node14"><a xlink:href="classDot.html" target="_top" xlink:title="Represents the center of the galaxy.">
<polygon fill="white" stroke="black" points="1778,-161.5 1778,-180.5 1812,-180.5 1812,-161.5 1778,-161.5"/>
<text text-anchor="middle" x="1795" y="-168.5" font-family="Helvetica,sans-Serif" font-size="10.00">Dot</text>
</a>
</g>
</g>
<!-- Node11&#45;&gt;Node14 -->
<g id="edge15" class="edge">
<title>Node11&#45;&gt;Node14</title>
<path fill="none" stroke="#9a32cd" stroke-dasharray="5,2" d="M893.88,-180.19C913.73,-182.07 938.1,-184.07 960,-185 1116.84,-191.65 1748.41,-179.26 1760,-178 1765.87,-177.36 1772.23,-176.19 1777.84,-174.98"/>
<polygon fill="#9a32cd" stroke="#9a32cd" points="893.95,-176.68 883.66,-179.19 893.27,-183.65 893.95,-176.68"/>
<text text-anchor="middle" x="1326" y="-190" font-family="Helvetica,sans-Serif" font-size="10.00"> position</text>
</g>
<!-- Node11&#45;&gt;Node27 -->
<g id="edge33" class="edge">
<title>Node11&#45;&gt;Node27</title>
<path fill="none" stroke="#9a32cd" stroke-dasharray="5,2" d="M893.91,-175.85C1021.56,-175.06 1414.21,-169.92 1460,-137 1477.15,-124.67 1463.05,-107.93 1478,-93 1484.04,-86.96 1491.47,-82.09 1499.26,-78.17"/>
<polygon fill="#9a32cd" stroke="#9a32cd" points="893.77,-172.35 883.79,-175.91 893.81,-179.35 893.77,-172.35"/>
<text text-anchor="middle" x="1173.5" y="-176" font-family="Helvetica,sans-Serif" font-size="10.00"> keys</text>
</g>
<!-- Node29 -->
<g id="node29" class="node">
<title>Node29</title>
<g id="a_node29"><a xlink:title=" ">
<polygon fill="white" stroke="#bfbfbf" points="2099,-215 2099,-245 2242,-245 2242,-215 2099,-215"/>
<text text-anchor="start" x="2107" y="-233" font-family="Helvetica,sans-Serif" font-size="10.00">std::map&lt; pos_type,</text>
<text text-anchor="middle" x="2170.5" y="-222" font-family="Helvetica,sans-Serif" font-size="10.00"> std::shared_ptr&lt; Dot &gt; &gt;</text>
</a>
</g>
</g>
<!-- Node11&#45;&gt;Node29 -->
<g id="edge37" class="edge">
<title>Node11&#45;&gt;Node29</title>
<path fill="none" stroke="#9a32cd" stroke-dasharray="5,2" d="M882.36,-189.81C922.56,-208.08 998.86,-238 1067.5,-238 1067.5,-238 1067.5,-238 1950.5,-238 1999.96,-238 2055.66,-235.94 2098.51,-233.91"/>
<polygon fill="#9a32cd" stroke="#9a32cd" points="883.72,-186.58 873.18,-185.55 880.78,-192.93 883.72,-186.58"/>
<text text-anchor="middle" x="1552.5" y="-241" font-family="Helvetica,sans-Serif" font-size="10.00"> keys</text>
</g>
<!-- Node12&#45;&gt;Node10 -->
<g id="edge11" class="edge">
<title>Node12&#45;&gt;Node10</title>
<path fill="none" stroke="#9a32cd" stroke-dasharray="5,2" d="M948.88,-92.11C975.51,-91.01 1004.43,-91.12 1031,-94 1036.8,-94.63 1043.04,-95.8 1048.68,-97.06"/>
<polygon fill="#9a32cd" stroke="#9a32cd" points="948.63,-88.61 938.8,-92.58 948.96,-95.61 948.63,-88.61"/>
<text text-anchor="middle" x="995.5" y="-97" font-family="Helvetica,sans-Serif" font-size="10.00"> last_change</text>
</g>
<!-- Node13 -->
<g id="node13" class="node">
<title>Node13</title>
<g id="a_node13"><a xlink:title=" ">
<polygon fill="white" stroke="#bfbfbf" points="1888.5,-124.5 1888.5,-143.5 2010.5,-143.5 2010.5,-124.5 1888.5,-124.5"/>
<text text-anchor="middle" x="1949.5" y="-131.5" font-family="Helvetica,sans-Serif" font-size="10.00">std::weak_ptr&lt; Dot &gt;</text>
</a>
</g>
</g>
<!-- Node13&#45;&gt;Node10 -->
<g id="edge13" class="edge">
<title>Node13&#45;&gt;Node10</title>
<path fill="none" stroke="#9a32cd" stroke-dasharray="5,2" d="M1878.23,-131.44C1691.73,-124.65 1191.44,-106.44 1088.27,-102.68"/>
<polygon fill="#9a32cd" stroke="#9a32cd" points="1878.35,-134.95 1888.47,-131.81 1878.6,-127.95 1878.35,-134.95"/>
<text text-anchor="middle" x="1552.5" y="-126" font-family="Helvetica,sans-Serif" font-size="10.00"> assigned_dot</text>
</g>
<!-- Node14&#45;&gt;Node13 -->
<g id="edge14" class="edge">
<title>Node14&#45;&gt;Node13</title>
<path fill="none" stroke="#9a32cd" stroke-dasharray="5,2" d="M1822.18,-164C1824.82,-163.31 1827.46,-162.64 1830,-162 1855.53,-155.61 1884.26,-148.81 1907.03,-143.51"/>
<polygon fill="#9a32cd" stroke="#9a32cd" points="1821.02,-160.68 1812.23,-166.61 1822.79,-167.45 1821.02,-160.68"/>
<text text-anchor="middle" x="1848.5" y="-165" font-family="Helvetica,sans-Serif" font-size="10.00"> ptr</text>
</g>
<!-- Node16 -->
<g id="node16" class="node">
<title>Node16</title>
<g id="a_node16"><a xlink:title=" ">
<polygon fill="white" stroke="#bfbfbf" points="1885,-183.5 1885,-202.5 2014,-202.5 2014,-183.5 1885,-183.5"/>
<text text-anchor="middle" x="1949.5" y="-190.5" font-family="Helvetica,sans-Serif" font-size="10.00">std::shared_ptr&lt; Dot &gt;</text>
</a>
</g>
</g>
<!-- Node14&#45;&gt;Node16 -->
<g id="edge19" class="edge">
<title>Node14&#45;&gt;Node16</title>
<path fill="none" stroke="#9a32cd" stroke-dasharray="5,2" d="M1822.42,-174.81C1839.67,-177.3 1862.98,-180.66 1884.86,-183.82"/>
<polygon fill="#9a32cd" stroke="#9a32cd" points="1822.43,-171.28 1812.03,-173.31 1821.43,-178.2 1822.43,-171.28"/>
<text text-anchor="middle" x="1848.5" y="-184" font-family="Helvetica,sans-Serif" font-size="10.00"> ptr</text>
</g>
<!-- Node15&#45;&gt;Node14 -->
<g id="edge16" class="edge">
<title>Node15&#45;&gt;Node14</title>
<path fill="none" stroke="#9a32cd" stroke-dasharray="5,2" d="M1625.14,-157.55C1664.91,-159.77 1715.24,-162.96 1760,-167 1765.8,-167.52 1772.14,-168.23 1777.76,-168.91"/>
<polygon fill="#9a32cd" stroke="#9a32cd" points="1625.19,-154.05 1615.01,-157 1624.8,-161.04 1625.19,-154.05"/>
<text text-anchor="middle" x="1702.5" y="-170" font-family="Helvetica,sans-Serif" font-size="10.00"> fields</text>
</g>
<!-- Node16&#45;&gt;Node7 -->
<g id="edge18" class="edge">
<title>Node16&#45;&gt;Node7</title>
<path fill="none" stroke="#9a32cd" stroke-dasharray="5,2" d="M1932.93,-210.17C1907.21,-236.54 1853,-284 1796,-284 852,-284 852,-284 852,-284 793.16,-284 726.79,-261 692.96,-247.53"/>
<polygon fill="#9a32cd" stroke="#9a32cd" points="1935.63,-212.41 1939.96,-202.74 1930.55,-207.59 1935.63,-212.41"/>
<text text-anchor="middle" x="1326" y="-298" font-family="Helvetica,sans-Serif" font-size="10.00"> old_assoziation</text>
<text text-anchor="middle" x="1326" y="-287" font-family="Helvetica,sans-Serif" font-size="10.00">new_assoziation</text>
</g>
<!-- Node28 -->
<g id="node28" class="node">
<title>Node28</title>
<g id="a_node28"><a xlink:title=" ">
<polygon fill="white" stroke="#bfbfbf" points="2113,-154.5 2113,-195.5 2228,-195.5 2228,-154.5 2113,-154.5"/>
<text text-anchor="start" x="2121" y="-183.5" font-family="Helvetica,sans-Serif" font-size="10.00">std::map&lt; unsigned</text>
<text text-anchor="start" x="2121" y="-172.5" font-family="Helvetica,sans-Serif" font-size="10.00"> int, std::shared_ptr</text>
<text text-anchor="middle" x="2170.5" y="-161.5" font-family="Helvetica,sans-Serif" font-size="10.00">&lt; Dot &gt; &gt;</text>
</a>
</g>
</g>
<!-- Node16&#45;&gt;Node28 -->
<g id="edge35" class="edge">
<title>Node16&#45;&gt;Node28</title>
<path fill="none" stroke="#9a32cd" stroke-dasharray="5,2" d="M2001.26,-181.58C2011.39,-179.71 2022,-178.05 2032,-177 2058.48,-174.23 2087.97,-173.49 2112.84,-173.55"/>
<polygon fill="#9a32cd" stroke="#9a32cd" points="2000.48,-178.16 1991.33,-183.5 2001.81,-185.04 2000.48,-178.16"/>
<text text-anchor="middle" x="2056.5" y="-180" font-family="Helvetica,sans-Serif" font-size="10.00"> elements</text>
</g>
<!-- Node16&#45;&gt;Node29 -->
<g id="edge38" class="edge">
<title>Node16&#45;&gt;Node29</title>
<path fill="none" stroke="#9a32cd" stroke-dasharray="5,2" d="M2024.43,-203.83C2042.92,-206.68 2062.7,-209.84 2081,-213 2086.7,-213.98 2092.61,-215.04 2098.54,-216.12"/>
<polygon fill="#9a32cd" stroke="#9a32cd" points="2024.71,-200.34 2014.3,-202.29 2023.66,-207.26 2024.71,-200.34"/>
<text text-anchor="middle" x="2056.5" y="-216" font-family="Helvetica,sans-Serif" font-size="10.00"> elements</text>
</g>
<!-- Node17 -->
<g id="node17" class="node">
<title>Node17</title>
<g id="a_node17"><a xlink:title=" ">
<polygon fill="white" stroke="#bfbfbf" points="411.5,-202.5 411.5,-221.5 547.5,-221.5 547.5,-202.5 411.5,-202.5"/>
<text text-anchor="middle" x="479.5" y="-209.5" font-family="Helvetica,sans-Serif" font-size="10.00">std::weak_ptr&lt; Player &gt;</text>
</a>
</g>
</g>
<!-- Node17&#45;&gt;Node7 -->
<g id="edge20" class="edge">
<title>Node17&#45;&gt;Node7</title>
<path fill="none" stroke="#9a32cd" stroke-dasharray="5,2" d="M557.8,-220.95C575,-223.11 593.14,-225.52 610,-228 615.81,-228.86 621.93,-229.83 627.94,-230.82"/>
<polygon fill="#9a32cd" stroke="#9a32cd" points="558.15,-217.47 547.79,-219.71 557.29,-224.42 558.15,-217.47"/>
<text text-anchor="middle" x="593" y="-231" font-family="Helvetica,sans-Serif" font-size="10.00"> player</text>
</g>
<!-- Node18 -->
<g id="node18" class="node">
<title>Node18</title>
<g id="a_node18"><a xlink:href="classPlayer.html" target="_top" xlink:title="represents a individual player/client">
<polygon fill="white" stroke="black" points="301,-202.5 301,-221.5 348,-221.5 348,-202.5 301,-202.5"/>
<text text-anchor="middle" x="324.5" y="-209.5" font-family="Helvetica,sans-Serif" font-size="10.00">Player</text>
</a>
</g>
</g>
<!-- Node18&#45;&gt;Node17 -->
<g id="edge21" class="edge">
<title>Node18&#45;&gt;Node17</title>
<path fill="none" stroke="#9a32cd" stroke-dasharray="5,2" d="M358.21,-212C373.77,-212 392.97,-212 411.43,-212"/>
<polygon fill="#9a32cd" stroke="#9a32cd" points="358.08,-208.5 348.08,-212 358.08,-215.5 358.08,-208.5"/>
<text text-anchor="middle" x="374.5" y="-215" font-family="Helvetica,sans-Serif" font-size="10.00"> ptr</text>
</g>
<!-- Node19 -->
<g id="node19" class="node">
<title>Node19</title>
<g id="a_node19"><a xlink:title="STL class.">
<polygon fill="white" stroke="#bfbfbf" points="141,-202.5 141,-221.5 206,-221.5 206,-202.5 141,-202.5"/>
<text text-anchor="middle" x="173.5" y="-209.5" font-family="Helvetica,sans-Serif" font-size="10.00">std::string</text>
</a>
</g>
</g>
<!-- Node19&#45;&gt;Node18 -->
<g id="edge22" class="edge">
<title>Node19&#45;&gt;Node18</title>
<path fill="none" stroke="#9a32cd" stroke-dasharray="5,2" d="M216.18,-212C243.54,-212 278.27,-212 300.69,-212"/>
<polygon fill="#9a32cd" stroke="#9a32cd" points="216.1,-208.5 206.1,-212 216.1,-215.5 216.1,-208.5"/>
<text text-anchor="middle" x="253.5" y="-226" font-family="Helvetica,sans-Serif" font-size="10.00"> passphrase</text>
<text text-anchor="middle" x="253.5" y="-215" font-family="Helvetica,sans-Serif" font-size="10.00">name</text>
</g>
<!-- Node20 -->
<g id="node20" class="node">
<title>Node20</title>
<g id="a_node20"><a xlink:title="STL class.">
<polygon fill="white" stroke="#bfbfbf" points="0,-197 0,-227 104,-227 104,-197 0,-197"/>
<text text-anchor="start" x="8" y="-215" font-family="Helvetica,sans-Serif" font-size="10.00">std::basic_string&lt;</text>
<text text-anchor="middle" x="52" y="-204" font-family="Helvetica,sans-Serif" font-size="10.00"> char &gt;</text>
</a>
</g>
</g>
<!-- Node20&#45;&gt;Node19 -->
<g id="edge23" class="edge">
<title>Node20&#45;&gt;Node19</title>
<path fill="none" stroke="midnightblue" d="M114.1,-212C123.41,-212 132.68,-212 141,-212"/>
<polygon fill="midnightblue" stroke="midnightblue" points="114.03,-208.5 104.03,-212 114.03,-215.5 114.03,-208.5"/>
</g>
<!-- Node21&#45;&gt;Node1 -->
<g id="edge24" class="edge">
<title>Node21&#45;&gt;Node1</title>
<path fill="none" stroke="#9a32cd" stroke-dasharray="5,2" d="M2848.25,-326.23C2844.8,-325.1 2841.34,-324 2838,-323 2785.47,-307.23 2722.9,-292.29 2689.11,-284.53"/>
<polygon fill="#9a32cd" stroke="#9a32cd" points="2847.26,-329.59 2857.86,-329.47 2849.5,-322.96 2847.26,-329.59"/>
<text text-anchor="middle" x="2795.5" y="-326" font-family="Helvetica,sans-Serif" font-size="10.00"> net</text>
</g>
<!-- Node22 -->
<g id="node22" class="node">
<title>Node22</title>
<g id="a_node22"><a xlink:title="STL class.">
<polygon fill="white" stroke="#bfbfbf" points="2629,-404.5 2629,-423.5 2698,-423.5 2698,-404.5 2629,-404.5"/>
<text text-anchor="middle" x="2663.5" y="-411.5" font-family="Helvetica,sans-Serif" font-size="10.00">std::mutex</text>
</a>
</g>
</g>
<!-- Node22&#45;&gt;Node21 -->
<g id="edge25" class="edge">
<title>Node22&#45;&gt;Node21</title>
<path fill="none" stroke="#9a32cd" stroke-dasharray="5,2" d="M2708.54,-412.69C2744.97,-410.04 2797.18,-402.59 2838,-382 2854.01,-373.93 2868.38,-358.55 2876.65,-348.54"/>
<polygon fill="#9a32cd" stroke="#9a32cd" points="2708,-409.21 2698.24,-413.34 2708.44,-416.2 2708,-409.21"/>
<text text-anchor="middle" x="2795.5" y="-410" font-family="Helvetica,sans-Serif" font-size="10.00"> message_mutex</text>
</g>
<!-- Node23 -->
<g id="node23" class="node">
<title>Node23</title>
<g id="a_node23"><a xlink:title=" ">
<polygon fill="white" stroke="#bfbfbf" points="2592,-366.5 2592,-385.5 2735,-385.5 2735,-366.5 2592,-366.5"/>
<text text-anchor="middle" x="2663.5" y="-373.5" font-family="Helvetica,sans-Serif" font-size="10.00">std::queue&lt; message_t &gt;</text>
</a>
</g>
</g>
<!-- Node23&#45;&gt;Node21 -->
<g id="edge26" class="edge">
<title>Node23&#45;&gt;Node21</title>
<path fill="none" stroke="#9a32cd" stroke-dasharray="5,2" d="M2745.24,-368.08C2774.62,-364.47 2807.98,-359.51 2838,-353 2843.87,-351.73 2850.08,-350.06 2855.97,-348.33"/>
<polygon fill="#9a32cd" stroke="#9a32cd" points="2744.53,-364.64 2735.02,-369.3 2745.36,-371.59 2744.53,-364.64"/>
<text text-anchor="middle" x="2795.5" y="-370" font-family="Helvetica,sans-Serif" font-size="10.00"> to_process</text>
</g>
<!-- Node24 -->
<g id="node24" class="node">
<title>Node24</title>
<g id="a_node24"><a xlink:href="structmessage__t.html" target="_top" xlink:title="simple message type that stores relevant information about a message">
<polygon fill="white" stroke="black" points="2376,-366.5 2376,-385.5 2446,-385.5 2446,-366.5 2376,-366.5"/>
<text text-anchor="middle" x="2411" y="-373.5" font-family="Helvetica,sans-Serif" font-size="10.00">message_t</text>
</a>
</g>
</g>
<!-- Node24&#45;&gt;Node23 -->
<g id="edge27" class="edge">
<title>Node24&#45;&gt;Node23</title>
<path fill="none" stroke="#9a32cd" stroke-dasharray="5,2" d="M2456.15,-376C2493.65,-376 2548.17,-376 2591.75,-376"/>
<polygon fill="#9a32cd" stroke="#9a32cd" points="2456.04,-372.5 2446.04,-376 2456.04,-379.5 2456.04,-372.5"/>
<text text-anchor="middle" x="2540" y="-379" font-family="Helvetica,sans-Serif" font-size="10.00"> elements</text>
</g>
<!-- Node25 -->
<g id="node25" class="node">
<title>Node25</title>
<g id="a_node25"><a xlink:title="STL class.">
<polygon fill="white" stroke="#bfbfbf" points="2629,-328.5 2629,-347.5 2698,-347.5 2698,-328.5 2629,-328.5"/>
<text text-anchor="middle" x="2663.5" y="-335.5" font-family="Helvetica,sans-Serif" font-size="10.00">std::thread</text>
</a>
</g>
</g>
<!-- Node25&#45;&gt;Node21 -->
<g id="edge28" class="edge">
<title>Node25&#45;&gt;Node21</title>
<path fill="none" stroke="#9a32cd" stroke-dasharray="5,2" d="M2708.41,-338.2C2752.28,-338.4 2818.4,-338.7 2855.73,-338.87"/>
<polygon fill="#9a32cd" stroke="#9a32cd" points="2708.33,-334.7 2698.32,-338.15 2708.3,-341.7 2708.33,-334.7"/>
<text text-anchor="middle" x="2795.5" y="-341" font-family="Helvetica,sans-Serif" font-size="10.00"> process_thread</text>
</g>
<!-- Node26 -->
<g id="node26" class="node">
<title>Node26</title>
<g id="a_node26"><a xlink:href="classGameState.html" target="_top" xlink:title="Represents the current state of the game.">
<polygon fill="white" stroke="black" points="2375.5,-165.5 2375.5,-184.5 2446.5,-184.5 2446.5,-165.5 2375.5,-165.5"/>
<text text-anchor="middle" x="2411" y="-172.5" font-family="Helvetica,sans-Serif" font-size="10.00">GameState</text>
</a>
</g>
</g>
<!-- Node26&#45;&gt;Node1 -->
<g id="edge30" class="edge">
<title>Node26&#45;&gt;Node1</title>
<path fill="none" stroke="#9a32cd" stroke-dasharray="5,2" d="M2444.43,-188.46C2495.8,-209.79 2594.65,-250.83 2639.44,-269.43"/>
<polygon fill="#9a32cd" stroke="#9a32cd" points="2445.7,-185.2 2435.12,-184.6 2443.01,-191.66 2445.7,-185.2"/>
<text text-anchor="middle" x="2540" y="-242" font-family="Helvetica,sans-Serif" font-size="10.00"> current_state</text>
</g>
<!-- Node27&#45;&gt;Node26 -->
<g id="edge31" class="edge">
<title>Node27&#45;&gt;Node26</title>
<path fill="none" stroke="#9a32cd" stroke-dasharray="5,2" d="M1637.39,-69.76C1683.56,-72.92 1741.91,-76 1794,-76 1794,-76 1794,-76 2171.5,-76 2264.08,-76 2362.49,-140.42 2397.08,-165.33"/>
<polygon fill="#9a32cd" stroke="#9a32cd" points="1637.34,-66.25 1627.12,-69.04 1636.86,-73.23 1637.34,-66.25"/>
<text text-anchor="middle" x="1949.5" y="-79" font-family="Helvetica,sans-Serif" font-size="10.00"> fields</text>
</g>
<!-- Node28&#45;&gt;Node26 -->
<g id="edge34" class="edge">
<title>Node28&#45;&gt;Node26</title>
<path fill="none" stroke="#9a32cd" stroke-dasharray="5,2" d="M2238.19,-175C2282.72,-175 2339.48,-175 2375.3,-175"/>
<polygon fill="#9a32cd" stroke="#9a32cd" points="2238.02,-171.5 2228.02,-175 2238.02,-178.5 2238.02,-171.5"/>
<text text-anchor="middle" x="2288" y="-178" font-family="Helvetica,sans-Serif" font-size="10.00"> dots_by_id</text>
</g>
<!-- Node29&#45;&gt;Node26 -->
<g id="edge36" class="edge">
<title>Node29&#45;&gt;Node26</title>
<path fill="none" stroke="#9a32cd" stroke-dasharray="5,2" d="M2246.58,-212.69C2289.73,-202.74 2341.87,-190.71 2375.46,-182.96"/>
<polygon fill="#9a32cd" stroke="#9a32cd" points="2245.63,-209.31 2236.67,-214.97 2247.2,-216.13 2245.63,-209.31"/>
<text text-anchor="middle" x="2288" y="-213" font-family="Helvetica,sans-Serif" font-size="10.00"> dots</text>
</g>
<!-- Node30&#45;&gt;Node26 -->
<g id="edge39" class="edge">
<title>Node30&#45;&gt;Node26</title>
<path fill="none" stroke="#9a32cd" stroke-dasharray="5,2" d="M1770.43,-24.29C1794.7,-25.23 1822.33,-26 1847.5,-26 1847.5,-26 1847.5,-26 2171.5,-26 2237.69,-26 2259.94,-26.81 2316,-62 2359.44,-89.27 2392.61,-143.38 2404.86,-165.37"/>
<polygon fill="#9a32cd" stroke="#9a32cd" points="1770.38,-20.79 1760.25,-23.88 1770.1,-27.78 1770.38,-20.79"/>
<text text-anchor="middle" x="1949.5" y="-29" font-family="Helvetica,sans-Serif" font-size="10.00"> fields_by_id</text>
</g>
</g>
</svg>
