<?xml version="1.0" encoding="UTF-8" standalone="no"?>
<!DOCTYPE svg PUBLIC "-//W3C//DTD SVG 1.1//EN"
 "http://www.w3.org/Graphics/SVG/1.1/DTD/svg11.dtd">
<!-- Generated by graphviz version 2.42.3 (0)
 -->
<!-- Title: GameChange Pages: 1 -->
<!--zoomable 171 -->
<svg id="main" version="1.1" xmlns="http://www.w3.org/2000/svg" xmlns:xlink="http://www.w3.org/1999/xlink" xml:space="preserve" onload="init(evt)">
<style type="text/css"><![CDATA[
.edge:hover path { stroke: red; }
.edge:hover polygon { stroke: red; fill: red; }
]]></style>
<script type="text/javascript"><![CDATA[
var edges = document.getElementsByTagName('g');
if (edges && edges.length) {
  for (var i=0;i<edges.length;i++) {
    if (edges[i].id.substr(0,4)=='edge') {
      edges[i].setAttribute('class','edge');
    }
  }
}
]]></script>
        <defs>
                <circle id="rim" cx="0" cy="0" r="7"/>
                <circle id="rim2" cx="0" cy="0" r="3.5"/>
                <g id="zoomPlus">
                        <use xlink:href="#rim" fill="#404040">
                                <set attributeName="fill" to="#808080" begin="zoomplus.mouseover" end="zoomplus.mouseout"/>
                        </use>
                        <path d="M-4,0h8M0,-4v8" fill="none" stroke="white" stroke-width="1.5" pointer-events="none"/>
                </g>
                <g id="zoomMin">
                        <use xlink:href="#rim" fill="#404040">
                                <set attributeName="fill" to="#808080" begin="zoomminus.mouseover" end="zoomminus.mouseout"/>
                        </use>
                        <path d="M-4,0h8" fill="none" stroke="white" stroke-width="1.5" pointer-events="none"/>
                </g>
                <g id="dirArrow">
                        <path fill="none" stroke="white" stroke-width="1.5" d="M0,-3.0v7 M-2.5,-0.5L0,-3.0L2.5,-0.5"/>
                </g>
               <g id="resetDef">
                       <use xlink:href="#rim2" fill="#404040">
                               <set attributeName="fill" to="#808080" begin="reset.mouseover" end="reset.mouseout"/>
                       </use>
               </g>
        </defs>

<script type="text/javascript">
var viewWidth = 1746;
var viewHeight = 171;
var sectionId = 'dynsection-1';
</script>
<script xlink:href="svgpan.js"/>
<svg id="graph" class="graph">
<g id="viewport">
<title>GameChange</title>
<polygon fill="white" stroke="transparent" points="-4,4 -4,-166.5 1742,-166.5 1742,4 -4,4"/>
<!-- Node1 -->
<g id="node1" class="node">
<title>Node1</title>
<g id="a_node1"><a xlink:title=" ">
<polygon fill="#bfbfbf" stroke="black" points="628,-115.5 628,-134.5 711,-134.5 711,-115.5 628,-115.5"/>
<text text-anchor="middle" x="669.5" y="-122.5" font-family="Helvetica,sans-Serif" font-size="10.00">GameChange</text>
</a>
</g>
</g>
<!-- Node6 -->
<g id="node6" class="node">
<title>Node6</title>
<g id="a_node6"><a xlink:title=" ">
<polygon fill="white" stroke="#bfbfbf" points="764,-115.5 764,-134.5 935,-134.5 935,-115.5 764,-115.5"/>
<text text-anchor="middle" x="849.5" y="-122.5" font-family="Helvetica,sans-Serif" font-size="10.00">std::weak_ptr&lt; GameChange &gt;</text>
</a>
</g>
</g>
<!-- Node1&#45;&gt;Node6 -->
<g id="edge6" class="edge">
<title>Node1&#45;&gt;Node6</title>
<path fill="none" stroke="#9a32cd" stroke-dasharray="5,2" d="M721.63,-125C734.86,-125 749.47,-125 763.92,-125"/>
<polygon fill="#9a32cd" stroke="#9a32cd" points="721.34,-121.5 711.34,-125 721.34,-128.5 721.34,-121.5"/>
<text text-anchor="middle" x="737.5" y="-128" font-family="Helvetica,sans-Serif" font-size="10.00"> ptr</text>
</g>
<!-- Node2 -->
<g id="node2" class="node">
<title>Node2</title>
<g id="a_node2"><a xlink:title=" ">
<polygon fill="white" stroke="#bfbfbf" points="401,-132 401,-162 558,-162 558,-132 401,-132"/>
<text text-anchor="start" x="409" y="-150" font-family="Helvetica,sans-Serif" font-size="10.00">std::enable_shared</text>
<text text-anchor="middle" x="479.5" y="-139" font-family="Helvetica,sans-Serif" font-size="10.00">_from_this&lt; GameChange &gt;</text>
</a>
</g>
</g>
<!-- Node2&#45;&gt;Node1 -->
<g id="edge1" class="edge">
<title>Node2&#45;&gt;Node1</title>
<path fill="none" stroke="midnightblue" d="M568.23,-136.73C589.08,-134.29 610.34,-131.81 627.89,-129.75"/>
<polygon fill="midnightblue" stroke="midnightblue" points="567.58,-133.29 558.05,-137.92 568.39,-140.24 567.58,-133.29"/>
</g>
<!-- Node3 -->
<g id="node3" class="node">
<title>Node3</title>
<g id="a_node3"><a xlink:title=" ">
<polygon fill="white" stroke="#bfbfbf" points="1134,-94.5 1134,-113.5 1268,-113.5 1268,-94.5 1134,-94.5"/>
<text text-anchor="middle" x="1201" y="-101.5" font-family="Helvetica,sans-Serif" font-size="10.00">std::shared_ptr&lt; Field &gt;</text>
</a>
</g>
</g>
<!-- Node3&#45;&gt;Node1 -->
<g id="edge2" class="edge">
<title>Node3&#45;&gt;Node1</title>
<path fill="none" stroke="#9a32cd" stroke-dasharray="5,2" d="M1161.3,-116.43C1138.26,-123.15 1108.27,-130.74 1081,-134 941.04,-150.75 904.73,-152.02 764,-144 748.37,-143.11 744.4,-142.84 729,-140 720.96,-138.52 712.39,-136.54 704.35,-134.52"/>
<polygon fill="#9a32cd" stroke="#9a32cd" points="1162.47,-119.73 1171.05,-113.51 1160.47,-113.02 1162.47,-119.73"/>
<text text-anchor="middle" x="988.5" y="-149" font-family="Helvetica,sans-Serif" font-size="10.00"> affected_field</text>
</g>
<!-- Node9 -->
<g id="node9" class="node">
<title>Node9</title>
<g id="a_node9"><a xlink:title=" ">
<polygon fill="white" stroke="#bfbfbf" points="1330,-86.5 1330,-105.5 1455,-105.5 1455,-86.5 1330,-86.5"/>
<text text-anchor="middle" x="1392.5" y="-93.5" font-family="Helvetica,sans-Serif" font-size="10.00">std::set&lt; field_ptr_t &gt;</text>
</a>
</g>
</g>
<!-- Node3&#45;&gt;Node9 -->
<g id="edge11" class="edge">
<title>Node3&#45;&gt;Node9</title>
<path fill="none" stroke="#9a32cd" stroke-dasharray="5,2" d="M1278.03,-100.79C1295.25,-100.06 1313.32,-99.3 1329.86,-98.6"/>
<polygon fill="#9a32cd" stroke="#9a32cd" points="1277.86,-97.29 1268.01,-101.21 1278.15,-104.29 1277.86,-97.29"/>
<text text-anchor="middle" x="1299" y="-104" font-family="Helvetica,sans-Serif" font-size="10.00"> keys</text>
</g>
<!-- Node4 -->
<g id="node4" class="node">
<title>Node4</title>
<g id="a_node4"><a xlink:href="classField.html" target="_top" xlink:title=" ">
<polygon fill="white" stroke="black" points="1042,-105.5 1042,-124.5 1081,-124.5 1081,-105.5 1042,-105.5"/>
<text text-anchor="middle" x="1061.5" y="-112.5" font-family="Helvetica,sans-Serif" font-size="10.00">Field</text>
</a>
</g>
</g>
<!-- Node4&#45;&gt;Node3 -->
<g id="edge3" class="edge">
<title>Node4&#45;&gt;Node3</title>
<path fill="none" stroke="#9a32cd" stroke-dasharray="5,2" d="M1091.25,-112.7C1103.74,-111.7 1118.92,-110.49 1133.94,-109.29"/>
<polygon fill="#9a32cd" stroke="#9a32cd" points="1090.73,-109.23 1081.04,-113.52 1091.29,-116.21 1090.73,-109.23"/>
<text text-anchor="middle" x="1107.5" y="-116" font-family="Helvetica,sans-Serif" font-size="10.00"> ptr</text>
</g>
<!-- Node5 -->
<g id="node5" class="node">
<title>Node5</title>
<g id="a_node5"><a xlink:href="structpos__type.html" target="_top" xlink:title=" ">
<polygon fill="white" stroke="black" points="819,-63.5 819,-82.5 880,-82.5 880,-63.5 819,-63.5"/>
<text text-anchor="middle" x="849.5" y="-70.5" font-family="Helvetica,sans-Serif" font-size="10.00">pos_type</text>
</a>
</g>
</g>
<!-- Node5&#45;&gt;Node4 -->
<g id="edge4" class="edge">
<title>Node5&#45;&gt;Node4</title>
<path fill="none" stroke="#9a32cd" stroke-dasharray="5,2" d="M890.26,-77.61C925.7,-82.21 978.8,-90.27 1024,-102 1029.86,-103.52 1036.11,-105.58 1041.75,-107.61"/>
<polygon fill="#9a32cd" stroke="#9a32cd" points="890.67,-74.14 880.31,-76.36 889.79,-81.08 890.67,-74.14"/>
<text text-anchor="middle" x="988.5" y="-105" font-family="Helvetica,sans-Serif" font-size="10.00"> position</text>
</g>
<!-- Node8 -->
<g id="node8" class="node">
<title>Node8</title>
<g id="a_node8"><a xlink:href="classDot.html" target="_top" xlink:title=" ">
<polygon fill="white" stroke="black" points="1522,-63.5 1522,-82.5 1556,-82.5 1556,-63.5 1522,-63.5"/>
<text text-anchor="middle" x="1539" y="-70.5" font-family="Helvetica,sans-Serif" font-size="10.00">Dot</text>
</a>
</g>
</g>
<!-- Node5&#45;&gt;Node8 -->
<g id="edge9" class="edge">
<title>Node5&#45;&gt;Node8</title>
<path fill="none" stroke="#9a32cd" stroke-dasharray="5,2" d="M890.14,-68.48C932.32,-64.06 1001.03,-58 1060.5,-58 1060.5,-58 1060.5,-58 1393.5,-58 1440.16,-58 1494.84,-65.83 1521.59,-70.18"/>
<polygon fill="#9a32cd" stroke="#9a32cd" points="889.58,-65.02 880.01,-69.56 890.33,-71.98 889.58,-65.02"/>
<text text-anchor="middle" x="1201" y="-61" font-family="Helvetica,sans-Serif" font-size="10.00"> position</text>
</g>
<!-- Node6&#45;&gt;Node4 -->
<g id="edge5" class="edge">
<title>Node6&#45;&gt;Node4</title>
<path fill="none" stroke="#9a32cd" stroke-dasharray="5,2" d="M945.25,-120.49C981.77,-118.75 1019.95,-116.93 1041.92,-115.88"/>
<polygon fill="#9a32cd" stroke="#9a32cd" points="944.83,-117 935.01,-120.98 945.16,-124 944.83,-117"/>
<text text-anchor="middle" x="988.5" y="-123" font-family="Helvetica,sans-Serif" font-size="10.00"> last_change</text>
</g>
<!-- Node7 -->
<g id="node7" class="node">
<title>Node7</title>
<g id="a_node7"><a xlink:title=" ">
<polygon fill="white" stroke="#bfbfbf" points="1612.5,-83.5 1612.5,-102.5 1734.5,-102.5 1734.5,-83.5 1612.5,-83.5"/>
<text text-anchor="middle" x="1673.5" y="-90.5" font-family="Helvetica,sans-Serif" font-size="10.00">std::weak_ptr&lt; Dot &gt;</text>
</a>
</g>
</g>
<!-- Node7&#45;&gt;Node4 -->
<g id="edge7" class="edge">
<title>Node7&#45;&gt;Node4</title>
<path fill="none" stroke="#9a32cd" stroke-dasharray="5,2" d="M1648.57,-107.71C1622.75,-122.14 1579.97,-142 1540,-142 1200,-142 1200,-142 1200,-142 1154.68,-142 1143.02,-138.77 1099,-128 1093.12,-126.56 1086.86,-124.53 1081.22,-122.49"/>
<polygon fill="#9a32cd" stroke="#9a32cd" points="1650.36,-110.71 1657.27,-102.68 1646.86,-104.65 1650.36,-110.71"/>
<text text-anchor="middle" x="1392.5" y="-145" font-family="Helvetica,sans-Serif" font-size="10.00"> assigned_dot</text>
</g>
<!-- Node8&#45;&gt;Node7 -->
<g id="edge8" class="edge">
<title>Node8&#45;&gt;Node7</title>
<path fill="none" stroke="#9a32cd" stroke-dasharray="5,2" d="M1566.45,-76.99C1579.63,-78.98 1596.16,-81.48 1612.21,-83.9"/>
<polygon fill="#9a32cd" stroke="#9a32cd" points="1566.66,-73.48 1556.25,-75.45 1565.61,-80.41 1566.66,-73.48"/>
<text text-anchor="middle" x="1582.5" y="-84" font-family="Helvetica,sans-Serif" font-size="10.00"> ptr</text>
</g>
<!-- Node10 -->
<g id="node10" class="node">
<title>Node10</title>
<g id="a_node10"><a xlink:title=" ">
<polygon fill="white" stroke="#bfbfbf" points="1609,-31.5 1609,-50.5 1738,-50.5 1738,-31.5 1609,-31.5"/>
<text text-anchor="middle" x="1673.5" y="-38.5" font-family="Helvetica,sans-Serif" font-size="10.00">std::shared_ptr&lt; Dot &gt;</text>
</a>
</g>
</g>
<!-- Node8&#45;&gt;Node10 -->
<g id="edge13" class="edge">
<title>Node8&#45;&gt;Node10</title>
<path fill="none" stroke="#9a32cd" stroke-dasharray="5,2" d="M1566.18,-65.99C1568.82,-65.31 1571.46,-64.63 1574,-64 1592.4,-59.42 1612.81,-54.61 1630.25,-50.58"/>
<polygon fill="#9a32cd" stroke="#9a32cd" points="1565.01,-62.67 1556.23,-68.6 1566.79,-69.45 1565.01,-62.67"/>
<text text-anchor="middle" x="1582.5" y="-67" font-family="Helvetica,sans-Serif" font-size="10.00"> ptr</text>
</g>
<!-- Node9&#45;&gt;Node8 -->
<g id="edge10" class="edge">
<title>Node9&#45;&gt;Node8</title>
<path fill="none" stroke="#9a32cd" stroke-dasharray="5,2" d="M1463.49,-84.86C1485.28,-81.39 1507.34,-77.88 1521.74,-75.59"/>
<polygon fill="#9a32cd" stroke="#9a32cd" points="1462.85,-81.42 1453.53,-86.45 1463.95,-88.33 1462.85,-81.42"/>
<text text-anchor="middle" x="1488.5" y="-87" font-family="Helvetica,sans-Serif" font-size="10.00"> fields</text>
</g>
<!-- Node10&#45;&gt;Node1 -->
<g id="edge12" class="edge">
<title>Node10&#45;&gt;Node1</title>
<path fill="none" stroke="#9a32cd" stroke-dasharray="5,2" d="M1644.87,-27.13C1618.58,-15.24 1577.58,0 1540,0 848.5,0 848.5,0 848.5,0 768.45,0 698.91,-85.72 677.37,-115.19"/>
<polygon fill="#9a32cd" stroke="#9a32cd" points="1643.64,-30.42 1654.18,-31.49 1646.61,-24.08 1643.64,-30.42"/>
<text text-anchor="middle" x="1201" y="-14" font-family="Helvetica,sans-Serif" font-size="10.00"> old_assoziation</text>
<text text-anchor="middle" x="1201" y="-3" font-family="Helvetica,sans-Serif" font-size="10.00">new_assoziation</text>
</g>
<!-- Node11 -->
<g id="node11" class="node">
<title>Node11</title>
<g id="a_node11"><a xlink:title=" ">
<polygon fill="white" stroke="#bfbfbf" points="411.5,-93.5 411.5,-112.5 547.5,-112.5 547.5,-93.5 411.5,-93.5"/>
<text text-anchor="middle" x="479.5" y="-100.5" font-family="Helvetica,sans-Serif" font-size="10.00">std::weak_ptr&lt; Player &gt;</text>
</a>
</g>
</g>
<!-- Node11&#45;&gt;Node1 -->
<g id="edge14" class="edge">
<title>Node11&#45;&gt;Node1</title>
<path fill="none" stroke="#9a32cd" stroke-dasharray="5,2" d="M557.76,-110.99C574.97,-112.87 593.11,-114.93 610,-117 615.8,-117.71 621.92,-118.5 627.92,-119.3"/>
<polygon fill="#9a32cd" stroke="#9a32cd" points="558.07,-107.5 547.75,-109.91 557.32,-114.46 558.07,-107.5"/>
<text text-anchor="middle" x="593" y="-120" font-family="Helvetica,sans-Serif" font-size="10.00"> player</text>
</g>
<!-- Node12 -->
<g id="node12" class="node">
<title>Node12</title>
<g id="a_node12"><a xlink:href="classPlayer.html" target="_top" xlink:title=" ">
<polygon fill="white" stroke="black" points="301,-93.5 301,-112.5 348,-112.5 348,-93.5 301,-93.5"/>
<text text-anchor="middle" x="324.5" y="-100.5" font-family="Helvetica,sans-Serif" font-size="10.00">Player</text>
</a>
</g>
</g>
<!-- Node12&#45;&gt;Node11 -->
<g id="edge15" class="edge">
<title>Node12&#45;&gt;Node11</title>
<path fill="none" stroke="#9a32cd" stroke-dasharray="5,2" d="M358.21,-103C373.77,-103 392.97,-103 411.43,-103"/>
<polygon fill="#9a32cd" stroke="#9a32cd" points="358.08,-99.5 348.08,-103 358.08,-106.5 358.08,-99.5"/>
<text text-anchor="middle" x="374.5" y="-106" font-family="Helvetica,sans-Serif" font-size="10.00"> ptr</text>
</g>
<!-- Node13 -->
<g id="node13" class="node">
<title>Node13</title>
<g id="a_node13"><a xlink:title="STL class.">
<polygon fill="white" stroke="#bfbfbf" points="141,-93.5 141,-112.5 206,-112.5 206,-93.5 141,-93.5"/>
<text text-anchor="middle" x="173.5" y="-100.5" font-family="Helvetica,sans-Serif" font-size="10.00">std::string</text>
</a>
</g>
</g>
<!-- Node13&#45;&gt;Node12 -->
<g id="edge16" class="edge">
<title>Node13&#45;&gt;Node12</title>
<path fill="none" stroke="#9a32cd" stroke-dasharray="5,2" d="M216.18,-103C243.54,-103 278.27,-103 300.69,-103"/>
<polygon fill="#9a32cd" stroke="#9a32cd" points="216.1,-99.5 206.1,-103 216.1,-106.5 216.1,-99.5"/>
<text text-anchor="middle" x="253.5" y="-117" font-family="Helvetica,sans-Serif" font-size="10.00"> passphrase</text>
<text text-anchor="middle" x="253.5" y="-106" font-family="Helvetica,sans-Serif" font-size="10.00">name</text>
</g>
<!-- Node14 -->
<g id="node14" class="node">
<title>Node14</title>
<g id="a_node14"><a xlink:title="STL class.">
<polygon fill="white" stroke="#bfbfbf" points="0,-88 0,-118 104,-118 104,-88 0,-88"/>
<text text-anchor="start" x="8" y="-106" font-family="Helvetica,sans-Serif" font-size="10.00">std::basic_string&lt;</text>
<text text-anchor="middle" x="52" y="-95" font-family="Helvetica,sans-Serif" font-size="10.00"> char &gt;</text>
</a>
</g>
</g>
<!-- Node14&#45;&gt;Node13 -->
<g id="edge17" class="edge">
<title>Node14&#45;&gt;Node13</title>
<path fill="none" stroke="midnightblue" d="M114.1,-103C123.41,-103 132.68,-103 141,-103"/>
<polygon fill="midnightblue" stroke="midnightblue" points="114.03,-99.5 104.03,-103 114.03,-106.5 114.03,-99.5"/>
</g>
</g>
</svg>
        <g id="navigator" transform="translate(0 0)" fill="#404254">
                <rect fill="#f2f5e9" fill-opacity="0.5" stroke="#606060" stroke-width=".5" x="0" y="0" width="60" height="60"/>
                <use id="zoomplus" xlink:href="#zoomPlus" x="17" y="9" onmousedown="handleZoom(evt,'in')"/>
                <use id="zoomminus" xlink:href="#zoomMin" x="42" y="9" onmousedown="handleZoom(evt,'out')"/>
                <use id="reset" xlink:href="#resetDef" x="30" y="36" onmousedown="handleReset()"/>
                <g id="arrowUp" xlink:href="#dirArrow" transform="translate(30 24)" onmousedown="handlePan(0,-1)">
                  <use xlink:href="#rim" fill="#404040">
                        <set attributeName="fill" to="#808080" begin="arrowUp.mouseover" end="arrowUp.mouseout"/>
                  </use>
                  <path fill="none" stroke="white" stroke-width="1.5" d="M0,-3.0v7 M-2.5,-0.5L0,-3.0L2.5,-0.5"/>
                </g>
                <g id="arrowRight" xlink:href="#dirArrow" transform="rotate(90) translate(36 -43)" onmousedown="handlePan(1,0)">
                  <use xlink:href="#rim" fill="#404040">
                        <set attributeName="fill" to="#808080" begin="arrowRight.mouseover" end="arrowRight.mouseout"/>
                  </use>
                  <path fill="none" stroke="white" stroke-width="1.5" d="M0,-3.0v7 M-2.5,-0.5L0,-3.0L2.5,-0.5"/>
                </g>
                <g id="arrowDown" xlink:href="#dirArrow" transform="rotate(180) translate(-30 -48)" onmousedown="handlePan(0,1)">
                  <use xlink:href="#rim" fill="#404040">
                        <set attributeName="fill" to="#808080" begin="arrowDown.mouseover" end="arrowDown.mouseout"/>
                  </use>
                  <path fill="none" stroke="white" stroke-width="1.5" d="M0,-3.0v7 M-2.5,-0.5L0,-3.0L2.5,-0.5"/>
                </g>
                <g id="arrowLeft" xlink:href="#dirArrow" transform="rotate(270) translate(-36 17)" onmousedown="handlePan(-1,0)">
                  <use xlink:href="#rim" fill="#404040">
                        <set attributeName="fill" to="#808080" begin="arrowLeft.mouseover" end="arrowLeft.mouseout"/>
                  </use>
                  <path fill="none" stroke="white" stroke-width="1.5" d="M0,-3.0v7 M-2.5,-0.5L0,-3.0L2.5,-0.5"/>
                </g>
        </g>
        <svg viewBox="0 0 15 15" width="100%" height="30px" preserveAspectRatio="xMaxYMin meet">
         <g id="arrow_out" transform="scale(0.3 0.3)">
          <a xlink:href="classGameChange__coll__graph_org.svg" target="_base">
           <rect id="button" ry="5" rx="5" y="6" x="6" height="38" width="38"
                fill="#f2f5e9" fill-opacity="0.5" stroke="#606060" stroke-width="1.0"/>
           <path id="arrow"
             d="M 11.500037,31.436501 C 11.940474,20.09759 22.043105,11.32322 32.158766,21.979434 L 37.068811,17.246167 C 37.068811,17.246167 37.088388,32 37.088388,32 L 22.160133,31.978069 C 22.160133,31.978069 26.997745,27.140456 26.997745,27.140456 C 18.528582,18.264221 13.291696,25.230495 11.500037,31.436501 z"
             style="fill:#404040;"/>
          </a>
         </g>
        </svg>
</svg>
