<?xml version="1.0" encoding="UTF-8" standalone="no"?>
<!DOCTYPE svg PUBLIC "-//W3C//DTD SVG 1.1//EN"
 "http://www.w3.org/Graphics/SVG/1.1/DTD/svg11.dtd">
<!-- Generated by graphviz version 2.42.3 (0)
 -->
<!-- Title: include/dot.hpp Pages: 1 -->
<svg width="486pt" height="252pt"
 viewBox="0.00 0.00 486.00 252.00" xmlns="http://www.w3.org/2000/svg" xmlns:xlink="http://www.w3.org/1999/xlink">
<g id="graph0" class="graph" transform="scale(1 1) rotate(0) translate(4 248)">
<title>include/dot.hpp</title>
<polygon fill="white" stroke="transparent" points="-4,4 -4,-248 482,-248 482,4 -4,4"/>
<!-- Node1 -->
<g id="node1" class="node">
<title>Node1</title>
<g id="a_node1"><a xlink:title=" ">
<polygon fill="#bfbfbf" stroke="black" points="271,-224.5 271,-243.5 363,-243.5 363,-224.5 271,-224.5"/>
<text text-anchor="middle" x="317" y="-231.5" font-family="Helvetica,sans-Serif" font-size="10.00">include/dot.hpp</text>
</a>
</g>
</g>
<!-- Node2 -->
<g id="node2" class="node">
<title>Node2</title>
<g id="a_node2"><a xlink:href="gamechange_8hpp.html" target="_top" xlink:title=" ">
<polygon fill="white" stroke="black" points="107.5,-168.5 107.5,-187.5 246.5,-187.5 246.5,-168.5 107.5,-168.5"/>
<text text-anchor="middle" x="177" y="-175.5" font-family="Helvetica,sans-Serif" font-size="10.00">include/gamechange.hpp</text>
</a>
</g>
</g>
<!-- Node1&#45;&gt;Node2 -->
<g id="edge1" class="edge">
<title>Node1&#45;&gt;Node2</title>
<path fill="none" stroke="midnightblue" d="M285.3,-220.77C259,-210.63 222.28,-196.47 199.08,-187.52"/>
<polygon fill="midnightblue" stroke="midnightblue" points="284.23,-224.11 294.82,-224.44 286.75,-217.58 284.23,-224.11"/>
</g>
<!-- Node7 -->
<g id="node7" class="node">
<title>Node7</title>
<g id="a_node7"><a xlink:href="gamestate_8hpp.html" target="_top" xlink:title=" ">
<polygon fill="white" stroke="black" points="233,-112.5 233,-131.5 361,-131.5 361,-112.5 233,-112.5"/>
<text text-anchor="middle" x="297" y="-119.5" font-family="Helvetica,sans-Serif" font-size="10.00">include/gamestate.hpp</text>
</a>
</g>
</g>
<!-- Node1&#45;&gt;Node7 -->
<g id="edge11" class="edge">
<title>Node1&#45;&gt;Node7</title>
<path fill="none" stroke="midnightblue" d="M311.48,-214.61C309.21,-206.51 306.71,-196.84 305,-188 301.15,-168.13 298.78,-144.47 297.7,-131.89"/>
<polygon fill="midnightblue" stroke="midnightblue" points="308.19,-215.83 314.34,-224.46 314.91,-213.88 308.19,-215.83"/>
</g>
<!-- Node10 -->
<g id="node10" class="node">
<title>Node10</title>
<g id="a_node10"><a xlink:href="dot_8cpp.html" target="_top" xlink:title=" ">
<polygon fill="white" stroke="black" points="314,-168.5 314,-187.5 384,-187.5 384,-168.5 314,-168.5"/>
<text text-anchor="middle" x="349" y="-175.5" font-family="Helvetica,sans-Serif" font-size="10.00">src/dot.cpp</text>
</a>
</g>
</g>
<!-- Node1&#45;&gt;Node10 -->
<g id="edge12" class="edge">
<title>Node1&#45;&gt;Node10</title>
<path fill="none" stroke="midnightblue" d="M327.5,-215.27C332.97,-206.05 339.42,-195.17 343.81,-187.75"/>
<polygon fill="midnightblue" stroke="midnightblue" points="324.37,-213.7 322.28,-224.08 330.39,-217.26 324.37,-213.7"/>
</g>
<!-- Node11 -->
<g id="node11" class="node">
<title>Node11</title>
<g id="a_node11"><a xlink:href="field_8cpp.html" target="_top" xlink:title=" ">
<polygon fill="white" stroke="black" points="402,-168.5 402,-187.5 478,-187.5 478,-168.5 402,-168.5"/>
<text text-anchor="middle" x="440" y="-175.5" font-family="Helvetica,sans-Serif" font-size="10.00">src/field.cpp</text>
</a>
</g>
</g>
<!-- Node1&#45;&gt;Node11 -->
<g id="edge13" class="edge">
<title>Node1&#45;&gt;Node11</title>
<path fill="none" stroke="midnightblue" d="M345.77,-220.37C368.81,-210.26 400.48,-196.35 420.6,-187.52"/>
<polygon fill="midnightblue" stroke="midnightblue" points="344.24,-217.22 336.49,-224.44 347.05,-223.63 344.24,-217.22"/>
</g>
<!-- Node3 -->
<g id="node3" class="node">
<title>Node3</title>
<g id="a_node3"><a xlink:href="galaxy_8hpp.html" target="_top" xlink:title=" ">
<polygon fill="white" stroke="black" points="97.5,-56.5 97.5,-75.5 204.5,-75.5 204.5,-56.5 97.5,-56.5"/>
<text text-anchor="middle" x="151" y="-63.5" font-family="Helvetica,sans-Serif" font-size="10.00">include/galaxy.hpp</text>
</a>
</g>
</g>
<!-- Node2&#45;&gt;Node3 -->
<g id="edge2" class="edge">
<title>Node2&#45;&gt;Node3</title>
<path fill="none" stroke="midnightblue" d="M130.73,-164.73C114.31,-157.9 97.55,-147.53 88,-132 73.68,-108.71 107.93,-87.05 131.34,-75.57"/>
<polygon fill="midnightblue" stroke="midnightblue" points="129.71,-168.08 140.3,-168.35 132.18,-161.54 129.71,-168.08"/>
</g>
<!-- Node2&#45;&gt;Node7 -->
<g id="edge6" class="edge">
<title>Node2&#45;&gt;Node7</title>
<path fill="none" stroke="midnightblue" d="M205.37,-164.23C227.82,-154.13 258.54,-140.31 278.07,-131.52"/>
<polygon fill="midnightblue" stroke="midnightblue" points="203.7,-161.15 196.01,-168.44 206.57,-167.53 203.7,-161.15"/>
</g>
<!-- Node9 -->
<g id="node9" class="node">
<title>Node9</title>
<g id="a_node9"><a xlink:href="gamechange_8cpp.html" target="_top" xlink:title=" ">
<polygon fill="white" stroke="black" points="97.5,-112.5 97.5,-131.5 214.5,-131.5 214.5,-112.5 97.5,-112.5"/>
<text text-anchor="middle" x="156" y="-119.5" font-family="Helvetica,sans-Serif" font-size="10.00">src/gamechange.cpp</text>
</a>
</g>
</g>
<!-- Node2&#45;&gt;Node9 -->
<g id="edge10" class="edge">
<title>Node2&#45;&gt;Node9</title>
<path fill="none" stroke="midnightblue" d="M169.88,-158.69C166.34,-149.59 162.23,-139.01 159.4,-131.75"/>
<polygon fill="midnightblue" stroke="midnightblue" points="166.65,-160.03 173.53,-168.08 173.17,-157.49 166.65,-160.03"/>
</g>
<!-- Node4 -->
<g id="node4" class="node">
<title>Node4</title>
<g id="a_node4"><a xlink:href="galaxy_8cpp.html" target="_top" xlink:title=" ">
<polygon fill="white" stroke="black" points="0,-0.5 0,-19.5 86,-19.5 86,-0.5 0,-0.5"/>
<text text-anchor="middle" x="43" y="-7.5" font-family="Helvetica,sans-Serif" font-size="10.00">src/galaxy.cpp</text>
</a>
</g>
</g>
<!-- Node3&#45;&gt;Node4 -->
<g id="edge3" class="edge">
<title>Node3&#45;&gt;Node4</title>
<path fill="none" stroke="midnightblue" d="M124.45,-51.73C104.45,-41.73 77.61,-28.31 60.31,-19.65"/>
<polygon fill="midnightblue" stroke="midnightblue" points="123.14,-54.98 133.65,-56.32 126.27,-48.72 123.14,-54.98"/>
</g>
<!-- Node5 -->
<g id="node5" class="node">
<title>Node5</title>
<g id="a_node5"><a xlink:href="main_8cpp.html" target="_top" xlink:title=" ">
<polygon fill="white" stroke="black" points="216.5,-0.5 216.5,-19.5 295.5,-19.5 295.5,-0.5 216.5,-0.5"/>
<text text-anchor="middle" x="256" y="-7.5" font-family="Helvetica,sans-Serif" font-size="10.00">src/main.cpp</text>
</a>
</g>
</g>
<!-- Node3&#45;&gt;Node5 -->
<g id="edge4" class="edge">
<title>Node3&#45;&gt;Node5</title>
<path fill="none" stroke="midnightblue" d="M176.81,-51.73C196.25,-41.73 222.35,-28.31 239.17,-19.65"/>
<polygon fill="midnightblue" stroke="midnightblue" points="175.16,-48.64 167.87,-56.32 178.36,-54.86 175.16,-48.64"/>
</g>
<!-- Node6 -->
<g id="node6" class="node">
<title>Node6</title>
<g id="a_node6"><a xlink:href="network_8cpp.html" target="_top" xlink:title=" ">
<polygon fill="white" stroke="black" points="104,-0.5 104,-19.5 198,-19.5 198,-0.5 104,-0.5"/>
<text text-anchor="middle" x="151" y="-7.5" font-family="Helvetica,sans-Serif" font-size="10.00">src/network.cpp</text>
</a>
</g>
</g>
<!-- Node3&#45;&gt;Node6 -->
<g id="edge5" class="edge">
<title>Node3&#45;&gt;Node6</title>
<path fill="none" stroke="midnightblue" d="M151,-45.8C151,-36.91 151,-26.78 151,-19.75"/>
<polygon fill="midnightblue" stroke="midnightblue" points="147.5,-46.08 151,-56.08 154.5,-46.08 147.5,-46.08"/>
</g>
<!-- Node7&#45;&gt;Node3 -->
<g id="edge7" class="edge">
<title>Node7&#45;&gt;Node3</title>
<path fill="none" stroke="midnightblue" d="M264.3,-108.91C236.85,-98.75 198.33,-84.51 174.03,-75.52"/>
<polygon fill="midnightblue" stroke="midnightblue" points="263.27,-112.26 273.87,-112.44 265.7,-105.69 263.27,-112.26"/>
</g>
<!-- Node7&#45;&gt;Node5 -->
<g id="edge9" class="edge">
<title>Node7&#45;&gt;Node5</title>
<path fill="none" stroke="midnightblue" d="M287.48,-103.3C283.31,-95.14 278.57,-85.22 275,-76 267.36,-56.27 261.07,-32.15 258.01,-19.57"/>
<polygon fill="midnightblue" stroke="midnightblue" points="284.42,-105 292.16,-112.24 290.62,-101.75 284.42,-105"/>
</g>
<!-- Node8 -->
<g id="node8" class="node">
<title>Node8</title>
<g id="a_node8"><a xlink:href="gamestate_8cpp.html" target="_top" xlink:title=" ">
<polygon fill="white" stroke="black" points="284.5,-56.5 284.5,-75.5 391.5,-75.5 391.5,-56.5 284.5,-56.5"/>
<text text-anchor="middle" x="338" y="-63.5" font-family="Helvetica,sans-Serif" font-size="10.00">src/gamestate.cpp</text>
</a>
</g>
</g>
<!-- Node7&#45;&gt;Node8 -->
<g id="edge8" class="edge">
<title>Node7&#45;&gt;Node8</title>
<path fill="none" stroke="midnightblue" d="M310.02,-103.86C317.12,-94.5 325.6,-83.33 331.36,-75.75"/>
<polygon fill="midnightblue" stroke="midnightblue" points="307.03,-102 303.77,-112.08 312.61,-106.24 307.03,-102"/>
</g>
</g>
</svg>
