<?xml version="1.0" encoding="UTF-8" standalone="no"?>
<!DOCTYPE svg PUBLIC "-//W3C//DTD SVG 1.1//EN"
 "http://www.w3.org/Graphics/SVG/1.1/DTD/svg11.dtd">
<!-- Generated by graphviz version 2.42.3 (0)
 -->
<!-- Title: src/galaxy.cpp Pages: 1 -->
<svg width="825pt" height="319pt"
 viewBox="0.00 0.00 824.50 319.00" xmlns="http://www.w3.org/2000/svg" xmlns:xlink="http://www.w3.org/1999/xlink">
<g id="graph0" class="graph" transform="scale(1 1) rotate(0) translate(4 315)">
<title>src/galaxy.cpp</title>
<polygon fill="white" stroke="transparent" points="-4,4 -4,-315 820.5,-315 820.5,4 -4,4"/>
<!-- Node1 -->
<g id="node1" class="node">
<title>Node1</title>
<g id="a_node1"><a xlink:title=" ">
<polygon fill="#bfbfbf" stroke="black" points="278.5,-291.5 278.5,-310.5 364.5,-310.5 364.5,-291.5 278.5,-291.5"/>
<text text-anchor="middle" x="321.5" y="-298.5" font-family="Helvetica,sans-Serif" font-size="10.00">src/galaxy.cpp</text>
</a>
</g>
</g>
<!-- Node2 -->
<g id="node2" class="node">
<title>Node2</title>
<g id="a_node2"><a xlink:href="galaxy_8hpp.html" target="_top" xlink:title=" ">
<polygon fill="white" stroke="black" points="287,-235.5 287,-254.5 356,-254.5 356,-235.5 287,-235.5"/>
<text text-anchor="middle" x="321.5" y="-242.5" font-family="Helvetica,sans-Serif" font-size="10.00">galaxy.hpp</text>
</a>
</g>
</g>
<!-- Node1&#45;&gt;Node2 -->
<g id="edge1" class="edge">
<title>Node1&#45;&gt;Node2</title>
<path fill="none" stroke="midnightblue" d="M321.5,-291.08C321.5,-284.01 321.5,-273.86 321.5,-264.99"/>
<polygon fill="midnightblue" stroke="midnightblue" points="325,-264.75 321.5,-254.75 318,-264.75 325,-264.75"/>
</g>
<!-- Node12 -->
<g id="node12" class="node">
<title>Node12</title>
<g id="a_node12"><a xlink:title=" ">
<polygon fill="white" stroke="#bfbfbf" points="674.5,-0.5 674.5,-19.5 732.5,-19.5 732.5,-0.5 674.5,-0.5"/>
<text text-anchor="middle" x="703.5" y="-7.5" font-family="Helvetica,sans-Serif" font-size="10.00">memory</text>
</a>
</g>
</g>
<!-- Node1&#45;&gt;Node12 -->
<g id="edge37" class="edge">
<title>Node1&#45;&gt;Node12</title>
<path fill="none" stroke="midnightblue" d="M364.56,-299.56C484.99,-297.17 816.5,-282.22 816.5,-190 816.5,-190 816.5,-190 816.5,-132 816.5,-81.56 763.39,-43.41 729.99,-24.41"/>
<polygon fill="midnightblue" stroke="midnightblue" points="731.61,-21.3 721.16,-19.56 728.24,-27.44 731.61,-21.3"/>
</g>
<!-- Node19 -->
<g id="node19" class="node">
<title>Node19</title>
<g id="a_node19"><a xlink:href="network_8hpp.html" target="_top" xlink:title=" ">
<polygon fill="white" stroke="black" points="140,-123.5 140,-142.5 217,-142.5 217,-123.5 140,-123.5"/>
<text text-anchor="middle" x="178.5" y="-130.5" font-family="Helvetica,sans-Serif" font-size="10.00">network.hpp</text>
</a>
</g>
</g>
<!-- Node1&#45;&gt;Node19 -->
<g id="edge36" class="edge">
<title>Node1&#45;&gt;Node19</title>
<path fill="none" stroke="midnightblue" d="M310.42,-291.48C289.72,-275.19 244.57,-237.75 214.5,-199 203.03,-184.22 193,-165.32 186.46,-151.72"/>
<polygon fill="midnightblue" stroke="midnightblue" points="189.57,-150.1 182.18,-142.5 183.22,-153.05 189.57,-150.1"/>
</g>
<!-- Node3 -->
<g id="node3" class="node">
<title>Node3</title>
<g id="a_node3"><a xlink:title=" ">
<polygon fill="white" stroke="#bfbfbf" points="589.5,-179.5 589.5,-198.5 621.5,-198.5 621.5,-179.5 589.5,-179.5"/>
<text text-anchor="middle" x="605.5" y="-186.5" font-family="Helvetica,sans-Serif" font-size="10.00">list</text>
</a>
</g>
</g>
<!-- Node2&#45;&gt;Node3 -->
<g id="edge2" class="edge">
<title>Node2&#45;&gt;Node3</title>
<path fill="none" stroke="midnightblue" d="M356.27,-239.91C404.51,-233.81 494.53,-220.91 579.67,-198.82"/>
<polygon fill="midnightblue" stroke="midnightblue" points="580.72,-202.17 589.49,-196.23 578.93,-195.4 580.72,-202.17"/>
</g>
<!-- Node4 -->
<g id="node4" class="node">
<title>Node4</title>
<g id="a_node4"><a xlink:title=" ">
<polygon fill="white" stroke="#bfbfbf" points="365.5,-0.5 365.5,-19.5 475.5,-19.5 475.5,-0.5 365.5,-0.5"/>
<text text-anchor="middle" x="420.5" y="-7.5" font-family="Helvetica,sans-Serif" font-size="10.00">nlohmann/json.hpp</text>
</a>
</g>
</g>
<!-- Node2&#45;&gt;Node4 -->
<g id="edge3" class="edge">
<title>Node2&#45;&gt;Node4</title>
<path fill="none" stroke="midnightblue" d="M318.21,-235.39C310.96,-214.98 295.47,-162.45 311.5,-123 320.98,-99.66 374.05,-51.26 402.49,-26.43"/>
<polygon fill="midnightblue" stroke="midnightblue" points="404.86,-29.01 410.12,-19.81 400.28,-23.72 404.86,-29.01"/>
</g>
<!-- Node5 -->
<g id="node5" class="node">
<title>Node5</title>
<g id="a_node5"><a xlink:href="player_8hpp.html" target="_top" xlink:title=" ">
<polygon fill="white" stroke="black" points="220.5,-62 220.5,-81 288.5,-81 288.5,-62 220.5,-62"/>
<text text-anchor="middle" x="254.5" y="-69" font-family="Helvetica,sans-Serif" font-size="10.00">player.hpp</text>
</a>
</g>
</g>
<!-- Node2&#45;&gt;Node5 -->
<g id="edge4" class="edge">
<title>Node2&#45;&gt;Node5</title>
<path fill="none" stroke="midnightblue" d="M310.09,-235.31C300.13,-227.08 286.11,-213.8 278.5,-199 260.41,-163.83 255.86,-116.86 254.78,-91.19"/>
<polygon fill="midnightblue" stroke="midnightblue" points="258.27,-90.91 254.49,-81.02 251.27,-91.11 258.27,-90.91"/>
</g>
<!-- Node9 -->
<g id="node9" class="node">
<title>Node9</title>
<g id="a_node9"><a xlink:href="gamechange_8hpp.html" target="_top" xlink:title=" ">
<polygon fill="white" stroke="black" points="321,-123.5 321,-142.5 422,-142.5 422,-123.5 321,-123.5"/>
<text text-anchor="middle" x="371.5" y="-130.5" font-family="Helvetica,sans-Serif" font-size="10.00">gamechange.hpp</text>
</a>
</g>
</g>
<!-- Node2&#45;&gt;Node9 -->
<g id="edge8" class="edge">
<title>Node2&#45;&gt;Node9</title>
<path fill="none" stroke="midnightblue" d="M325.42,-235.37C333.57,-217.46 352.44,-175.92 363.34,-151.95"/>
<polygon fill="midnightblue" stroke="midnightblue" points="366.64,-153.14 367.59,-142.59 360.27,-150.25 366.64,-153.14"/>
</g>
<!-- Node16 -->
<g id="node16" class="node">
<title>Node16</title>
<g id="a_node16"><a xlink:href="gamestate_8hpp.html" target="_top" xlink:title=" ">
<polygon fill="white" stroke="black" points="481.5,-179.5 481.5,-198.5 571.5,-198.5 571.5,-179.5 481.5,-179.5"/>
<text text-anchor="middle" x="526.5" y="-186.5" font-family="Helvetica,sans-Serif" font-size="10.00">gamestate.hpp</text>
</a>
</g>
</g>
<!-- Node2&#45;&gt;Node16 -->
<g id="edge20" class="edge">
<title>Node2&#45;&gt;Node16</title>
<path fill="none" stroke="midnightblue" d="M353.98,-235.44C389.22,-226.16 445.6,-211.31 484.26,-201.13"/>
<polygon fill="midnightblue" stroke="midnightblue" points="485.39,-204.45 494.17,-198.52 483.61,-197.68 485.39,-204.45"/>
</g>
<!-- Node2&#45;&gt;Node19 -->
<g id="edge30" class="edge">
<title>Node2&#45;&gt;Node19</title>
<path fill="none" stroke="midnightblue" d="M302.51,-235.48C285.43,-227.36 260.1,-214.15 240.5,-199 221.9,-184.62 203.71,-164.65 191.9,-150.64"/>
<polygon fill="midnightblue" stroke="midnightblue" points="194.49,-148.28 185.42,-142.8 189.09,-152.74 194.49,-148.28"/>
</g>
<!-- Node6 -->
<g id="node6" class="node">
<title>Node6</title>
<g id="a_node6"><a xlink:title=" ">
<polygon fill="white" stroke="#bfbfbf" points="267.5,-0.5 267.5,-19.5 311.5,-19.5 311.5,-0.5 267.5,-0.5"/>
<text text-anchor="middle" x="289.5" y="-7.5" font-family="Helvetica,sans-Serif" font-size="10.00">string</text>
</a>
</g>
</g>
<!-- Node5&#45;&gt;Node6 -->
<g id="edge5" class="edge">
<title>Node5&#45;&gt;Node6</title>
<path fill="none" stroke="midnightblue" d="M259.51,-61.98C264.66,-53.23 272.81,-39.37 279.32,-28.31"/>
<polygon fill="midnightblue" stroke="midnightblue" points="282.44,-29.9 284.49,-19.51 276.41,-26.35 282.44,-29.9"/>
</g>
<!-- Node7 -->
<g id="node7" class="node">
<title>Node7</title>
<g id="a_node7"><a xlink:title=" ">
<polygon fill="white" stroke="#bfbfbf" points="189.5,-0.5 189.5,-19.5 249.5,-19.5 249.5,-0.5 189.5,-0.5"/>
<text text-anchor="middle" x="219.5" y="-7.5" font-family="Helvetica,sans-Serif" font-size="10.00">iostream</text>
</a>
</g>
</g>
<!-- Node5&#45;&gt;Node7 -->
<g id="edge6" class="edge">
<title>Node5&#45;&gt;Node7</title>
<path fill="none" stroke="midnightblue" d="M249.49,-61.98C244.34,-53.23 236.19,-39.37 229.68,-28.31"/>
<polygon fill="midnightblue" stroke="midnightblue" points="232.59,-26.35 224.51,-19.51 226.56,-29.9 232.59,-26.35"/>
</g>
<!-- Node8 -->
<g id="node8" class="node">
<title>Node8</title>
<g id="a_node8"><a xlink:title=" ">
<polygon fill="white" stroke="#bfbfbf" points="0,-0.5 0,-19.5 135,-19.5 135,-0.5 0,-0.5"/>
<text text-anchor="middle" x="67.5" y="-7.5" font-family="Helvetica,sans-Serif" font-size="10.00">websocketpp/server.hpp</text>
</a>
</g>
</g>
<!-- Node5&#45;&gt;Node8 -->
<g id="edge7" class="edge">
<title>Node5&#45;&gt;Node8</title>
<path fill="none" stroke="midnightblue" d="M228.46,-61.85C222.56,-59.91 216.32,-57.87 210.5,-56 174.6,-44.44 133.52,-31.55 104.63,-22.53"/>
<polygon fill="midnightblue" stroke="midnightblue" points="105.54,-19.15 94.95,-19.52 103.45,-25.83 105.54,-19.15"/>
</g>
<!-- Node9&#45;&gt;Node5 -->
<g id="edge9" class="edge">
<title>Node9&#45;&gt;Node5</title>
<path fill="none" stroke="midnightblue" d="M354.74,-123.48C335.28,-113.58 302.95,-97.14 280.29,-85.62"/>
<polygon fill="midnightblue" stroke="midnightblue" points="281.73,-82.42 271.23,-81.01 278.56,-88.66 281.73,-82.42"/>
</g>
<!-- Node10 -->
<g id="node10" class="node">
<title>Node10</title>
<g id="a_node10"><a xlink:href="field_8hpp.html" target="_top" xlink:title=" ">
<polygon fill="white" stroke="black" points="458,-62 458,-81 517,-81 517,-62 458,-62"/>
<text text-anchor="middle" x="487.5" y="-69" font-family="Helvetica,sans-Serif" font-size="10.00">field.hpp</text>
</a>
</g>
</g>
<!-- Node9&#45;&gt;Node10 -->
<g id="edge10" class="edge">
<title>Node9&#45;&gt;Node10</title>
<path fill="none" stroke="midnightblue" d="M388.12,-123.48C407.42,-113.58 439.46,-97.14 461.93,-85.62"/>
<polygon fill="midnightblue" stroke="midnightblue" points="463.61,-88.69 470.91,-81.01 460.42,-82.46 463.61,-88.69"/>
</g>
<!-- Node13 -->
<g id="node13" class="node">
<title>Node13</title>
<g id="a_node13"><a xlink:href="dot_8hpp.html" target="_top" xlink:title=" ">
<polygon fill="white" stroke="black" points="604,-62 604,-81 657,-81 657,-62 604,-62"/>
<text text-anchor="middle" x="630.5" y="-69" font-family="Helvetica,sans-Serif" font-size="10.00">dot.hpp</text>
</a>
</g>
</g>
<!-- Node9&#45;&gt;Node13 -->
<g id="edge14" class="edge">
<title>Node9&#45;&gt;Node13</title>
<path fill="none" stroke="midnightblue" d="M408.61,-123.48C457.97,-112.14 544.7,-92.21 593.84,-80.92"/>
<polygon fill="midnightblue" stroke="midnightblue" points="594.76,-84.3 603.72,-78.65 593.19,-77.48 594.76,-84.3"/>
</g>
<!-- Node10&#45;&gt;Node4 -->
<g id="edge12" class="edge">
<title>Node10&#45;&gt;Node4</title>
<path fill="none" stroke="midnightblue" d="M477.9,-61.98C467.45,-52.7 450.53,-37.67 437.76,-26.33"/>
<polygon fill="midnightblue" stroke="midnightblue" points="439.88,-23.53 430.08,-19.51 435.23,-28.77 439.88,-23.53"/>
</g>
<!-- Node11 -->
<g id="node11" class="node">
<title>Node11</title>
<g id="a_node11"><a xlink:href="position__type_8hpp.html" target="_top" xlink:title=" ">
<polygon fill="white" stroke="black" points="493.5,-0.5 493.5,-19.5 597.5,-19.5 597.5,-0.5 493.5,-0.5"/>
<text text-anchor="middle" x="545.5" y="-7.5" font-family="Helvetica,sans-Serif" font-size="10.00">position_type.hpp</text>
</a>
</g>
</g>
<!-- Node10&#45;&gt;Node11 -->
<g id="edge11" class="edge">
<title>Node10&#45;&gt;Node11</title>
<path fill="none" stroke="midnightblue" d="M495.81,-61.98C504.68,-52.87 518.95,-38.24 529.92,-26.98"/>
<polygon fill="midnightblue" stroke="midnightblue" points="532.73,-29.11 537.21,-19.51 527.72,-24.23 532.73,-29.11"/>
</g>
<!-- Node10&#45;&gt;Node12 -->
<g id="edge13" class="edge">
<title>Node10&#45;&gt;Node12</title>
<path fill="none" stroke="midnightblue" d="M517.08,-62.35C555.37,-51.8 622.21,-33.39 664.58,-21.72"/>
<polygon fill="midnightblue" stroke="midnightblue" points="665.56,-25.08 674.28,-19.05 663.71,-18.33 665.56,-25.08"/>
</g>
<!-- Node13&#45;&gt;Node4 -->
<g id="edge19" class="edge">
<title>Node13&#45;&gt;Node4</title>
<path fill="none" stroke="midnightblue" d="M603.9,-62.96C567.63,-52.69 502.36,-34.19 460.26,-22.26"/>
<polygon fill="midnightblue" stroke="midnightblue" points="461.18,-18.89 450.61,-19.53 459.27,-25.62 461.18,-18.89"/>
</g>
<!-- Node13&#45;&gt;Node11 -->
<g id="edge15" class="edge">
<title>Node13&#45;&gt;Node11</title>
<path fill="none" stroke="midnightblue" d="M618.32,-61.98C604.69,-52.43 582.37,-36.81 566.03,-25.37"/>
<polygon fill="midnightblue" stroke="midnightblue" points="567.86,-22.38 557.66,-19.51 563.84,-28.11 567.86,-22.38"/>
</g>
<!-- Node13&#45;&gt;Node12 -->
<g id="edge18" class="edge">
<title>Node13&#45;&gt;Node12</title>
<path fill="none" stroke="midnightblue" d="M640.96,-61.98C652.45,-52.61 671.13,-37.38 685.09,-26.01"/>
<polygon fill="midnightblue" stroke="midnightblue" points="687.52,-28.54 693.06,-19.51 683.1,-23.11 687.52,-28.54"/>
</g>
<!-- Node14 -->
<g id="node14" class="node">
<title>Node14</title>
<g id="a_node14"><a xlink:title=" ">
<polygon fill="white" stroke="#bfbfbf" points="615.5,-0.5 615.5,-19.5 647.5,-19.5 647.5,-0.5 615.5,-0.5"/>
<text text-anchor="middle" x="631.5" y="-7.5" font-family="Helvetica,sans-Serif" font-size="10.00">set</text>
</a>
</g>
</g>
<!-- Node13&#45;&gt;Node14 -->
<g id="edge16" class="edge">
<title>Node13&#45;&gt;Node14</title>
<path fill="none" stroke="midnightblue" d="M630.64,-61.98C630.78,-53.58 631,-40.48 631.19,-29.66"/>
<polygon fill="midnightblue" stroke="midnightblue" points="634.69,-29.57 631.36,-19.51 627.69,-29.45 634.69,-29.57"/>
</g>
<!-- Node15 -->
<g id="node15" class="node">
<title>Node15</title>
<g id="a_node15"><a xlink:title=" ">
<polygon fill="white" stroke="#bfbfbf" points="755.5,-0.5 755.5,-19.5 793.5,-19.5 793.5,-0.5 755.5,-0.5"/>
<text text-anchor="middle" x="774.5" y="-7.5" font-family="Helvetica,sans-Serif" font-size="10.00">map</text>
</a>
</g>
</g>
<!-- Node13&#45;&gt;Node15 -->
<g id="edge17" class="edge">
<title>Node13&#45;&gt;Node15</title>
<path fill="none" stroke="midnightblue" d="M651.13,-61.98C676.04,-51.68 718.05,-34.32 746.03,-22.76"/>
<polygon fill="midnightblue" stroke="midnightblue" points="747.38,-25.99 755.29,-18.94 744.71,-19.52 747.38,-25.99"/>
</g>
<!-- Node16&#45;&gt;Node4 -->
<g id="edge28" class="edge">
<title>Node16&#45;&gt;Node4</title>
<path fill="none" stroke="midnightblue" d="M518.41,-179.46C503.02,-162.82 469.2,-124.42 448.5,-87 438.21,-68.41 430.31,-45.28 425.57,-29.45"/>
<polygon fill="midnightblue" stroke="midnightblue" points="428.92,-28.45 422.8,-19.81 422.19,-30.38 428.92,-28.45"/>
</g>
<!-- Node16&#45;&gt;Node9 -->
<g id="edge29" class="edge">
<title>Node16&#45;&gt;Node9</title>
<path fill="none" stroke="midnightblue" d="M501.94,-179.44C475.98,-170.4 434.83,-156.06 405.7,-145.92"/>
<polygon fill="midnightblue" stroke="midnightblue" points="406.54,-142.5 395.95,-142.52 404.24,-149.11 406.54,-142.5"/>
</g>
<!-- Node16&#45;&gt;Node10 -->
<g id="edge25" class="edge">
<title>Node16&#45;&gt;Node10</title>
<path fill="none" stroke="midnightblue" d="M523.57,-179.32C517.24,-160.59 502.2,-116.05 493.68,-90.79"/>
<polygon fill="midnightblue" stroke="midnightblue" points="496.98,-89.64 490.47,-81.28 490.35,-91.88 496.98,-89.64"/>
</g>
<!-- Node16&#45;&gt;Node11 -->
<g id="edge27" class="edge">
<title>Node16&#45;&gt;Node11</title>
<path fill="none" stroke="midnightblue" d="M527.42,-179.46C530.32,-152.43 539.36,-68.24 543.45,-30.11"/>
<polygon fill="midnightblue" stroke="midnightblue" points="546.96,-30.18 544.55,-19.87 540,-29.44 546.96,-30.18"/>
</g>
<!-- Node16&#45;&gt;Node12 -->
<g id="edge23" class="edge">
<title>Node16&#45;&gt;Node12</title>
<path fill="none" stroke="midnightblue" d="M569.86,-179.41C625.84,-168.12 716.73,-149 721.5,-143 748.05,-109.63 727.02,-55.87 713.18,-28.39"/>
<polygon fill="midnightblue" stroke="midnightblue" points="716.27,-26.75 708.5,-19.54 710.08,-30.02 716.27,-26.75"/>
</g>
<!-- Node16&#45;&gt;Node13 -->
<g id="edge26" class="edge">
<title>Node16&#45;&gt;Node13</title>
<path fill="none" stroke="midnightblue" d="M554.46,-179.47C572.89,-172.47 596.18,-160.79 610.5,-143 622.32,-128.31 627.16,-107 629.14,-91.66"/>
<polygon fill="midnightblue" stroke="midnightblue" points="632.66,-91.59 630.16,-81.3 625.69,-90.9 632.66,-91.59"/>
</g>
<!-- Node16&#45;&gt;Node15 -->
<g id="edge22" class="edge">
<title>Node16&#45;&gt;Node15</title>
<path fill="none" stroke="midnightblue" d="M571.52,-179.78C632.47,-168.48 734.37,-148.86 740.5,-143 771.77,-113.1 775.72,-58.59 775.42,-29.87"/>
<polygon fill="midnightblue" stroke="midnightblue" points="778.91,-29.49 775.11,-19.59 771.91,-29.69 778.91,-29.49"/>
</g>
<!-- Node17 -->
<g id="node17" class="node">
<title>Node17</title>
<g id="a_node17"><a xlink:title=" ">
<polygon fill="white" stroke="#bfbfbf" points="555,-123.5 555,-142.5 602,-142.5 602,-123.5 555,-123.5"/>
<text text-anchor="middle" x="578.5" y="-130.5" font-family="Helvetica,sans-Serif" font-size="10.00">vector</text>
</a>
</g>
</g>
<!-- Node16&#45;&gt;Node17 -->
<g id="edge21" class="edge">
<title>Node16&#45;&gt;Node17</title>
<path fill="none" stroke="midnightblue" d="M535.09,-179.08C542.66,-171.22 553.88,-159.57 563.01,-150.08"/>
<polygon fill="midnightblue" stroke="midnightblue" points="565.66,-152.38 570.07,-142.75 560.62,-147.53 565.66,-152.38"/>
</g>
<!-- Node18 -->
<g id="node18" class="node">
<title>Node18</title>
<g id="a_node18"><a xlink:title=" ">
<polygon fill="white" stroke="#bfbfbf" points="658.5,-123.5 658.5,-142.5 712.5,-142.5 712.5,-123.5 658.5,-123.5"/>
<text text-anchor="middle" x="685.5" y="-130.5" font-family="Helvetica,sans-Serif" font-size="10.00">random</text>
</a>
</g>
</g>
<!-- Node16&#45;&gt;Node18 -->
<g id="edge24" class="edge">
<title>Node16&#45;&gt;Node18</title>
<path fill="none" stroke="midnightblue" d="M551.69,-179.44C578.44,-170.36 620.9,-155.94 650.81,-145.78"/>
<polygon fill="midnightblue" stroke="midnightblue" points="652.08,-149.05 660.42,-142.52 649.83,-142.42 652.08,-149.05"/>
</g>
<!-- Node19&#45;&gt;Node4 -->
<g id="edge31" class="edge">
<title>Node19&#45;&gt;Node4</title>
<path fill="none" stroke="midnightblue" d="M207.31,-123.47C232,-115.61 268.12,-102.79 297.5,-87 318.25,-75.85 320.65,-68.68 340.5,-56 358.18,-44.7 378.84,-33.12 394.73,-24.54"/>
<polygon fill="midnightblue" stroke="midnightblue" points="396.78,-27.41 403.94,-19.61 393.48,-21.24 396.78,-27.41"/>
</g>
<!-- Node19&#45;&gt;Node5 -->
<g id="edge34" class="edge">
<title>Node19&#45;&gt;Node5</title>
<path fill="none" stroke="midnightblue" d="M189.39,-123.48C201.47,-114.02 221.17,-98.6 235.74,-87.19"/>
<polygon fill="midnightblue" stroke="midnightblue" points="237.91,-89.93 243.63,-81.01 233.6,-84.42 237.91,-89.93"/>
</g>
<!-- Node19&#45;&gt;Node8 -->
<g id="edge33" class="edge">
<title>Node19&#45;&gt;Node8</title>
<path fill="none" stroke="midnightblue" d="M139.79,-126.81C96.25,-120.1 29.63,-106.84 14.5,-87 6.15,-76.04 8.71,-68.5 14.5,-56 20.42,-43.21 31.97,-32.72 42.78,-25.1"/>
<polygon fill="midnightblue" stroke="midnightblue" points="44.71,-28.02 51.17,-19.61 40.88,-22.16 44.71,-28.02"/>
</g>
<!-- Node20 -->
<g id="node20" class="node">
<title>Node20</title>
<g id="a_node20"><a xlink:title=" ">
<polygon fill="white" stroke="#bfbfbf" points="24,-56.5 24,-86.5 137,-86.5 137,-56.5 24,-56.5"/>
<text text-anchor="start" x="32" y="-74.5" font-family="Helvetica,sans-Serif" font-size="10.00">websocketpp/config</text>
<text text-anchor="middle" x="80.5" y="-63.5" font-family="Helvetica,sans-Serif" font-size="10.00">/asio_no_tls.hpp</text>
</a>
</g>
</g>
<!-- Node19&#45;&gt;Node20 -->
<g id="edge32" class="edge">
<title>Node19&#45;&gt;Node20</title>
<path fill="none" stroke="midnightblue" d="M164.46,-123.48C150.94,-115.27 130.01,-102.56 112.43,-91.88"/>
<polygon fill="midnightblue" stroke="midnightblue" points="113.96,-88.72 103.6,-86.52 110.33,-94.7 113.96,-88.72"/>
</g>
<!-- Node21 -->
<g id="node21" class="node">
<title>Node21</title>
<g id="a_node21"><a xlink:title=" ">
<polygon fill="white" stroke="#bfbfbf" points="155,-62 155,-81 202,-81 202,-62 155,-62"/>
<text text-anchor="middle" x="178.5" y="-69" font-family="Helvetica,sans-Serif" font-size="10.00">queue</text>
</a>
</g>
</g>
<!-- Node19&#45;&gt;Node21 -->
<g id="edge35" class="edge">
<title>Node19&#45;&gt;Node21</title>
<path fill="none" stroke="midnightblue" d="M178.5,-123.48C178.5,-115.08 178.5,-101.98 178.5,-91.16"/>
<polygon fill="midnightblue" stroke="midnightblue" points="182,-91.01 178.5,-81.01 175,-91.01 182,-91.01"/>
</g>
</g>
</svg>
