<?xml version="1.0" encoding="UTF-8" standalone="no"?>
<!DOCTYPE svg PUBLIC "-//W3C//DTD SVG 1.1//EN"
 "http://www.w3.org/Graphics/SVG/1.1/DTD/svg11.dtd">
<!-- Generated by graphviz version 2.42.3 (0)
 -->
<!-- Title: include/galaxy.hpp Pages: 1 -->
<!--zoomable 263 -->
<svg id="main" version="1.1" xmlns="http://www.w3.org/2000/svg" xmlns:xlink="http://www.w3.org/1999/xlink" xml:space="preserve" onload="init(evt)">
<style type="text/css"><![CDATA[
.edge:hover path { stroke: red; }
.edge:hover polygon { stroke: red; fill: red; }
]]></style>
<script type="text/javascript"><![CDATA[
var edges = document.getElementsByTagName('g');
if (edges && edges.length) {
  for (var i=0;i<edges.length;i++) {
    if (edges[i].id.substr(0,4)=='edge') {
      edges[i].setAttribute('class','edge');
    }
  }
}
]]></script>
        <defs>
                <circle id="rim" cx="0" cy="0" r="7"/>
                <circle id="rim2" cx="0" cy="0" r="3.5"/>
                <g id="zoomPlus">
                        <use xlink:href="#rim" fill="#404040">
                                <set attributeName="fill" to="#808080" begin="zoomplus.mouseover" end="zoomplus.mouseout"/>
                        </use>
                        <path d="M-4,0h8M0,-4v8" fill="none" stroke="white" stroke-width="1.5" pointer-events="none"/>
                </g>
                <g id="zoomMin">
                        <use xlink:href="#rim" fill="#404040">
                                <set attributeName="fill" to="#808080" begin="zoomminus.mouseover" end="zoomminus.mouseout"/>
                        </use>
                        <path d="M-4,0h8" fill="none" stroke="white" stroke-width="1.5" pointer-events="none"/>
                </g>
                <g id="dirArrow">
                        <path fill="none" stroke="white" stroke-width="1.5" d="M0,-3.0v7 M-2.5,-0.5L0,-3.0L2.5,-0.5"/>
                </g>
               <g id="resetDef">
                       <use xlink:href="#rim2" fill="#404040">
                               <set attributeName="fill" to="#808080" begin="reset.mouseover" end="reset.mouseout"/>
                       </use>
               </g>
        </defs>

<script type="text/javascript">
var viewWidth = 815;
var viewHeight = 263;
var sectionId = 'dynsection-0';
</script>
<script xlink:href="svgpan.js"/>
<svg id="graph" class="graph">
<g id="viewport">
<title>include/galaxy.hpp</title>
<polygon fill="white" stroke="transparent" points="-4,4 -4,-259 810.5,-259 810.5,4 -4,4"/>
<!-- Node1 -->
<g id="node1" class="node">
<title>Node1</title>
<g id="a_node1"><a xlink:title=" ">
<polygon fill="#bfbfbf" stroke="black" points="417.5,-235.5 417.5,-254.5 524.5,-254.5 524.5,-235.5 417.5,-235.5"/>
<text text-anchor="middle" x="471" y="-242.5" font-family="Helvetica,sans-Serif" font-size="10.00">include/galaxy.hpp</text>
</a>
</g>
</g>
<!-- Node2 -->
<g id="node2" class="node">
<title>Node2</title>
<g id="a_node2"><a xlink:title=" ">
<polygon fill="white" stroke="#bfbfbf" points="162,-179.5 162,-198.5 194,-198.5 194,-179.5 162,-179.5"/>
<text text-anchor="middle" x="178" y="-186.5" font-family="Helvetica,sans-Serif" font-size="10.00">list</text>
</a>
</g>
</g>
<!-- Node1&#45;&gt;Node2 -->
<g id="edge1" class="edge">
<title>Node1&#45;&gt;Node2</title>
<path fill="none" stroke="midnightblue" d="M417.27,-237.86C364.97,-231.23 283.19,-219.18 204.13,-198.89"/>
<polygon fill="midnightblue" stroke="midnightblue" points="204.56,-195.38 194,-196.24 202.79,-202.16 204.56,-195.38"/>
</g>
<!-- Node3 -->
<g id="node3" class="node">
<title>Node3</title>
<g id="a_node3"><a xlink:title=" ">
<polygon fill="white" stroke="#bfbfbf" points="318,-0.5 318,-19.5 428,-19.5 428,-0.5 318,-0.5"/>
<text text-anchor="middle" x="373" y="-7.5" font-family="Helvetica,sans-Serif" font-size="10.00">nlohmann/json.hpp</text>
</a>
</g>
</g>
<!-- Node1&#45;&gt;Node3 -->
<g id="edge2" class="edge">
<title>Node1&#45;&gt;Node3</title>
<path fill="none" stroke="midnightblue" d="M473.12,-235.42C477.72,-215.08 487.03,-162.69 472,-123 463.46,-100.45 415.18,-51.65 389.33,-26.57"/>
<polygon fill="midnightblue" stroke="midnightblue" points="391.73,-24.02 382.1,-19.6 386.87,-29.06 391.73,-24.02"/>
</g>
<!-- Node4 -->
<g id="node4" class="node">
<title>Node4</title>
<g id="a_node4"><a xlink:href="player_8hpp.html" target="_top" xlink:title=" ">
<polygon fill="white" stroke="black" points="504,-62 504,-81 572,-81 572,-62 504,-62"/>
<text text-anchor="middle" x="538" y="-69" font-family="Helvetica,sans-Serif" font-size="10.00">player.hpp</text>
</a>
</g>
</g>
<!-- Node1&#45;&gt;Node4 -->
<g id="edge3" class="edge">
<title>Node1&#45;&gt;Node4</title>
<path fill="none" stroke="midnightblue" d="M479.17,-235.39C486.88,-226.8 498.26,-212.92 505,-199 522.42,-163.04 531.49,-116.72 535.45,-91.29"/>
<polygon fill="midnightblue" stroke="midnightblue" points="538.94,-91.59 536.93,-81.19 532.02,-90.58 538.94,-91.59"/>
</g>
<!-- Node8 -->
<g id="node8" class="node">
<title>Node8</title>
<g id="a_node8"><a xlink:href="gamechange_8hpp.html" target="_top" xlink:title=" ">
<polygon fill="white" stroke="black" points="361.5,-123.5 361.5,-142.5 462.5,-142.5 462.5,-123.5 361.5,-123.5"/>
<text text-anchor="middle" x="412" y="-130.5" font-family="Helvetica,sans-Serif" font-size="10.00">gamechange.hpp</text>
</a>
</g>
</g>
<!-- Node1&#45;&gt;Node8 -->
<g id="edge7" class="edge">
<title>Node1&#45;&gt;Node8</title>
<path fill="none" stroke="midnightblue" d="M466.37,-235.37C456.72,-217.38 434.29,-175.55 421.45,-151.63"/>
<polygon fill="midnightblue" stroke="midnightblue" points="424.42,-149.75 416.61,-142.59 418.25,-153.06 424.42,-149.75"/>
</g>
<!-- Node15 -->
<g id="node15" class="node">
<title>Node15</title>
<g id="a_node15"><a xlink:href="gamestate_8hpp.html" target="_top" xlink:title=" ">
<polygon fill="white" stroke="black" points="212,-179.5 212,-198.5 302,-198.5 302,-179.5 212,-179.5"/>
<text text-anchor="middle" x="257" y="-186.5" font-family="Helvetica,sans-Serif" font-size="10.00">gamestate.hpp</text>
</a>
</g>
</g>
<!-- Node1&#45;&gt;Node15 -->
<g id="edge19" class="edge">
<title>Node1&#45;&gt;Node15</title>
<path fill="none" stroke="midnightblue" d="M437.09,-235.44C400.15,-226.12 340.95,-211.18 300.58,-201"/>
<polygon fill="midnightblue" stroke="midnightblue" points="301.3,-197.57 290.75,-198.52 299.59,-204.36 301.3,-197.57"/>
</g>
<!-- Node18 -->
<g id="node18" class="node">
<title>Node18</title>
<g id="a_node18"><a xlink:href="network_8hpp.html" target="_top" xlink:title=" ">
<polygon fill="white" stroke="black" points="560.5,-123.5 560.5,-142.5 637.5,-142.5 637.5,-123.5 560.5,-123.5"/>
<text text-anchor="middle" x="599" y="-130.5" font-family="Helvetica,sans-Serif" font-size="10.00">network.hpp</text>
</a>
</g>
</g>
<!-- Node1&#45;&gt;Node18 -->
<g id="edge29" class="edge">
<title>Node1&#45;&gt;Node18</title>
<path fill="none" stroke="midnightblue" d="M488.53,-235.47C504.25,-227.34 527.47,-214.13 545,-199 561.58,-184.69 577.19,-164.96 587.32,-151.01"/>
<polygon fill="midnightblue" stroke="midnightblue" points="590.22,-152.97 593.14,-142.78 584.51,-148.92 590.22,-152.97"/>
</g>
<!-- Node5 -->
<g id="node5" class="node">
<title>Node5</title>
<g id="a_node5"><a xlink:title=" ">
<polygon fill="white" stroke="#bfbfbf" points="446,-0.5 446,-19.5 490,-19.5 490,-0.5 446,-0.5"/>
<text text-anchor="middle" x="468" y="-7.5" font-family="Helvetica,sans-Serif" font-size="10.00">string</text>
</a>
</g>
</g>
<!-- Node4&#45;&gt;Node5 -->
<g id="edge4" class="edge">
<title>Node4&#45;&gt;Node5</title>
<path fill="none" stroke="midnightblue" d="M527.97,-61.98C516.95,-52.61 499.04,-37.38 485.66,-26.01"/>
<polygon fill="midnightblue" stroke="midnightblue" points="487.9,-23.32 478.01,-19.51 483.36,-28.65 487.9,-23.32"/>
</g>
<!-- Node6 -->
<g id="node6" class="node">
<title>Node6</title>
<g id="a_node6"><a xlink:title=" ">
<polygon fill="white" stroke="#bfbfbf" points="508,-0.5 508,-19.5 568,-19.5 568,-0.5 508,-0.5"/>
<text text-anchor="middle" x="538" y="-7.5" font-family="Helvetica,sans-Serif" font-size="10.00">iostream</text>
</a>
</g>
</g>
<!-- Node4&#45;&gt;Node6 -->
<g id="edge5" class="edge">
<title>Node4&#45;&gt;Node6</title>
<path fill="none" stroke="midnightblue" d="M538,-61.98C538,-53.58 538,-40.48 538,-29.66"/>
<polygon fill="midnightblue" stroke="midnightblue" points="541.5,-29.51 538,-19.51 534.5,-29.51 541.5,-29.51"/>
</g>
<!-- Node7 -->
<g id="node7" class="node">
<title>Node7</title>
<g id="a_node7"><a xlink:title=" ">
<polygon fill="white" stroke="#bfbfbf" points="586.5,-0.5 586.5,-19.5 721.5,-19.5 721.5,-0.5 586.5,-0.5"/>
<text text-anchor="middle" x="654" y="-7.5" font-family="Helvetica,sans-Serif" font-size="10.00">websocketpp/server.hpp</text>
</a>
</g>
</g>
<!-- Node4&#45;&gt;Node7 -->
<g id="edge6" class="edge">
<title>Node4&#45;&gt;Node7</title>
<path fill="none" stroke="midnightblue" d="M554.62,-61.98C573.92,-52.08 605.96,-35.64 628.43,-24.12"/>
<polygon fill="midnightblue" stroke="midnightblue" points="630.11,-27.19 637.41,-19.51 626.92,-20.96 630.11,-27.19"/>
</g>
<!-- Node8&#45;&gt;Node4 -->
<g id="edge8" class="edge">
<title>Node8&#45;&gt;Node4</title>
<path fill="none" stroke="midnightblue" d="M430.05,-123.48C451.2,-113.49 486.44,-96.85 510.88,-85.31"/>
<polygon fill="midnightblue" stroke="midnightblue" points="512.43,-88.44 519.98,-81.01 509.44,-82.11 512.43,-88.44"/>
</g>
<!-- Node9 -->
<g id="node9" class="node">
<title>Node9</title>
<g id="a_node9"><a xlink:href="field_8hpp.html" target="_top" xlink:title=" ">
<polygon fill="white" stroke="black" points="285.5,-62 285.5,-81 344.5,-81 344.5,-62 285.5,-62"/>
<text text-anchor="middle" x="315" y="-69" font-family="Helvetica,sans-Serif" font-size="10.00">field.hpp</text>
</a>
</g>
</g>
<!-- Node8&#45;&gt;Node9 -->
<g id="edge9" class="edge">
<title>Node8&#45;&gt;Node9</title>
<path fill="none" stroke="midnightblue" d="M398.1,-123.48C382.33,-113.8 356.36,-97.87 337.65,-86.39"/>
<polygon fill="midnightblue" stroke="midnightblue" points="339.23,-83.25 328.87,-81.01 335.57,-89.22 339.23,-83.25"/>
</g>
<!-- Node12 -->
<g id="node12" class="node">
<title>Node12</title>
<g id="a_node12"><a xlink:href="dot_8hpp.html" target="_top" xlink:title=" ">
<polygon fill="white" stroke="black" points="175.5,-62 175.5,-81 228.5,-81 228.5,-62 175.5,-62"/>
<text text-anchor="middle" x="202" y="-69" font-family="Helvetica,sans-Serif" font-size="10.00">dot.hpp</text>
</a>
</g>
</g>
<!-- Node8&#45;&gt;Node12 -->
<g id="edge13" class="edge">
<title>Node8&#45;&gt;Node12</title>
<path fill="none" stroke="midnightblue" d="M381.91,-123.48C344.06,-112.75 279.12,-94.35 238.48,-82.84"/>
<polygon fill="midnightblue" stroke="midnightblue" points="239.28,-79.43 228.71,-80.07 237.37,-86.16 239.28,-79.43"/>
</g>
<!-- Node9&#45;&gt;Node3 -->
<g id="edge11" class="edge">
<title>Node9&#45;&gt;Node3</title>
<path fill="none" stroke="midnightblue" d="M323.31,-61.98C332.18,-52.87 346.45,-38.24 357.42,-26.98"/>
<polygon fill="midnightblue" stroke="midnightblue" points="360.23,-29.11 364.71,-19.51 355.22,-24.23 360.23,-29.11"/>
</g>
<!-- Node10 -->
<g id="node10" class="node">
<title>Node10</title>
<g id="a_node10"><a xlink:href="position__type_8hpp.html" target="_top" xlink:title=" ">
<polygon fill="white" stroke="black" points="70,-0.5 70,-19.5 174,-19.5 174,-0.5 70,-0.5"/>
<text text-anchor="middle" x="122" y="-7.5" font-family="Helvetica,sans-Serif" font-size="10.00">position_type.hpp</text>
</a>
</g>
</g>
<!-- Node9&#45;&gt;Node10 -->
<g id="edge10" class="edge">
<title>Node9&#45;&gt;Node10</title>
<path fill="none" stroke="midnightblue" d="M287.35,-61.98C253.81,-51.64 197.13,-34.16 159.63,-22.6"/>
<polygon fill="midnightblue" stroke="midnightblue" points="160.19,-19.11 149.6,-19.51 158.13,-25.8 160.19,-19.11"/>
</g>
<!-- Node11 -->
<g id="node11" class="node">
<title>Node11</title>
<g id="a_node11"><a xlink:title=" ">
<polygon fill="white" stroke="#bfbfbf" points="242,-0.5 242,-19.5 300,-19.5 300,-0.5 242,-0.5"/>
<text text-anchor="middle" x="271" y="-7.5" font-family="Helvetica,sans-Serif" font-size="10.00">memory</text>
</a>
</g>
</g>
<!-- Node9&#45;&gt;Node11 -->
<g id="edge12" class="edge">
<title>Node9&#45;&gt;Node11</title>
<path fill="none" stroke="midnightblue" d="M308.7,-61.98C302.1,-53.05 291.56,-38.81 283.31,-27.64"/>
<polygon fill="midnightblue" stroke="midnightblue" points="286.05,-25.47 277.29,-19.51 280.42,-29.63 286.05,-25.47"/>
</g>
<!-- Node12&#45;&gt;Node3 -->
<g id="edge18" class="edge">
<title>Node12&#45;&gt;Node3</title>
<path fill="none" stroke="midnightblue" d="M226.5,-61.98C255.96,-51.72 305.58,-34.46 338.8,-22.9"/>
<polygon fill="midnightblue" stroke="midnightblue" points="340.25,-26.1 348.55,-19.51 337.95,-19.49 340.25,-26.1"/>
</g>
<!-- Node12&#45;&gt;Node10 -->
<g id="edge14" class="edge">
<title>Node12&#45;&gt;Node10</title>
<path fill="none" stroke="midnightblue" d="M190.54,-61.98C177.83,-52.52 157.09,-37.1 141.75,-25.69"/>
<polygon fill="midnightblue" stroke="midnightblue" points="143.55,-22.67 133.44,-19.51 139.38,-28.29 143.55,-22.67"/>
</g>
<!-- Node12&#45;&gt;Node11 -->
<g id="edge17" class="edge">
<title>Node12&#45;&gt;Node11</title>
<path fill="none" stroke="midnightblue" d="M211.89,-61.98C222.65,-52.7 240.07,-37.67 253.22,-26.33"/>
<polygon fill="midnightblue" stroke="midnightblue" points="255.84,-28.69 261.13,-19.51 251.27,-23.39 255.84,-28.69"/>
</g>
<!-- Node13 -->
<g id="node13" class="node">
<title>Node13</title>
<g id="a_node13"><a xlink:title=" ">
<polygon fill="white" stroke="#bfbfbf" points="192,-0.5 192,-19.5 224,-19.5 224,-0.5 192,-0.5"/>
<text text-anchor="middle" x="208" y="-7.5" font-family="Helvetica,sans-Serif" font-size="10.00">set</text>
</a>
</g>
</g>
<!-- Node12&#45;&gt;Node13 -->
<g id="edge15" class="edge">
<title>Node12&#45;&gt;Node13</title>
<path fill="none" stroke="midnightblue" d="M202.86,-61.98C203.71,-53.58 205.03,-40.48 206.12,-29.66"/>
<polygon fill="midnightblue" stroke="midnightblue" points="209.62,-29.81 207.14,-19.51 202.66,-29.11 209.62,-29.81"/>
</g>
<!-- Node14 -->
<g id="node14" class="node">
<title>Node14</title>
<g id="a_node14"><a xlink:title=" ">
<polygon fill="white" stroke="#bfbfbf" points="0,-0.5 0,-19.5 38,-19.5 38,-0.5 0,-0.5"/>
<text text-anchor="middle" x="19" y="-7.5" font-family="Helvetica,sans-Serif" font-size="10.00">map</text>
</a>
</g>
</g>
<!-- Node12&#45;&gt;Node14 -->
<g id="edge16" class="edge">
<title>Node12&#45;&gt;Node14</title>
<path fill="none" stroke="midnightblue" d="M175.78,-61.98C141.87,-50.95 83,-31.81 47.85,-20.38"/>
<polygon fill="midnightblue" stroke="midnightblue" points="48.77,-17 38.18,-17.24 46.61,-23.66 48.77,-17"/>
</g>
<!-- Node15&#45;&gt;Node3 -->
<g id="edge27" class="edge">
<title>Node15&#45;&gt;Node3</title>
<path fill="none" stroke="midnightblue" d="M268.56,-179.38C289.04,-163.48 331.65,-127.42 354,-87 363.96,-68.99 368.78,-45.73 371.06,-29.71"/>
<polygon fill="midnightblue" stroke="midnightblue" points="374.57,-29.85 372.31,-19.5 367.62,-29 374.57,-29.85"/>
</g>
<!-- Node15&#45;&gt;Node8 -->
<g id="edge28" class="edge">
<title>Node15&#45;&gt;Node8</title>
<path fill="none" stroke="midnightblue" d="M281.56,-179.44C307.52,-170.4 348.67,-156.06 377.8,-145.92"/>
<polygon fill="midnightblue" stroke="midnightblue" points="379.26,-149.11 387.55,-142.52 376.96,-142.5 379.26,-149.11"/>
</g>
<!-- Node15&#45;&gt;Node9 -->
<g id="edge24" class="edge">
<title>Node15&#45;&gt;Node9</title>
<path fill="none" stroke="midnightblue" d="M261.36,-179.32C270.81,-160.51 293.33,-115.65 305.98,-90.46"/>
<polygon fill="midnightblue" stroke="midnightblue" points="309.23,-91.79 310.59,-81.28 302.97,-88.65 309.23,-91.79"/>
</g>
<!-- Node15&#45;&gt;Node10 -->
<g id="edge26" class="edge">
<title>Node15&#45;&gt;Node10</title>
<path fill="none" stroke="midnightblue" d="M248.19,-179.31C231.32,-162.42 193.75,-123.59 167,-87 153.19,-68.11 139.86,-44.74 131.34,-28.94"/>
<polygon fill="midnightblue" stroke="midnightblue" points="134.26,-26.97 126.48,-19.77 128.07,-30.25 134.26,-26.97"/>
</g>
<!-- Node15&#45;&gt;Node11 -->
<g id="edge22" class="edge">
<title>Node15&#45;&gt;Node11</title>
<path fill="none" stroke="midnightblue" d="M257.68,-179.46C259.81,-152.43 266.47,-68.24 269.49,-30.11"/>
<polygon fill="midnightblue" stroke="midnightblue" points="273,-30.11 270.3,-19.87 266.02,-29.56 273,-30.11"/>
</g>
<!-- Node15&#45;&gt;Node12 -->
<g id="edge25" class="edge">
<title>Node15&#45;&gt;Node12</title>
<path fill="none" stroke="midnightblue" d="M252.87,-179.32C243.91,-160.51 222.55,-115.65 210.55,-90.46"/>
<polygon fill="midnightblue" stroke="midnightblue" points="213.64,-88.81 206.18,-81.28 207.32,-91.82 213.64,-88.81"/>
</g>
<!-- Node15&#45;&gt;Node14 -->
<g id="edge21" class="edge">
<title>Node15&#45;&gt;Node14</title>
<path fill="none" stroke="midnightblue" d="M211.99,-180.03C145.13,-168.09 27.07,-146.58 24,-143 -3.28,-111.19 5.84,-57.53 13.29,-29.43"/>
<polygon fill="midnightblue" stroke="midnightblue" points="16.69,-30.27 16.08,-19.7 9.96,-28.34 16.69,-30.27"/>
</g>
<!-- Node16 -->
<g id="node16" class="node">
<title>Node16</title>
<g id="a_node16"><a xlink:title=" ">
<polygon fill="white" stroke="#bfbfbf" points="33.5,-123.5 33.5,-142.5 80.5,-142.5 80.5,-123.5 33.5,-123.5"/>
<text text-anchor="middle" x="57" y="-130.5" font-family="Helvetica,sans-Serif" font-size="10.00">vector</text>
</a>
</g>
</g>
<!-- Node15&#45;&gt;Node16 -->
<g id="edge20" class="edge">
<title>Node15&#45;&gt;Node16</title>
<path fill="none" stroke="midnightblue" d="M225.29,-179.49C193.66,-170.99 143.42,-157.47 90.67,-143.17"/>
<polygon fill="midnightblue" stroke="midnightblue" points="91.36,-139.74 80.79,-140.5 89.53,-146.49 91.36,-139.74"/>
</g>
<!-- Node17 -->
<g id="node17" class="node">
<title>Node17</title>
<g id="a_node17"><a xlink:title=" ">
<polygon fill="white" stroke="#bfbfbf" points="99,-123.5 99,-142.5 153,-142.5 153,-123.5 99,-123.5"/>
<text text-anchor="middle" x="126" y="-130.5" font-family="Helvetica,sans-Serif" font-size="10.00">random</text>
</a>
</g>
</g>
<!-- Node15&#45;&gt;Node17 -->
<g id="edge23" class="edge">
<title>Node15&#45;&gt;Node17</title>
<path fill="none" stroke="midnightblue" d="M236.24,-179.44C214.68,-170.56 180.74,-156.56 156.21,-146.45"/>
<polygon fill="midnightblue" stroke="midnightblue" points="157.24,-143.09 146.66,-142.52 154.57,-149.56 157.24,-143.09"/>
</g>
<!-- Node18&#45;&gt;Node3 -->
<g id="edge30" class="edge">
<title>Node18&#45;&gt;Node3</title>
<path fill="none" stroke="midnightblue" d="M575.17,-123.39C553.63,-115.21 521.34,-101.96 495,-87 474.51,-75.37 471.82,-68.74 452,-56 434.52,-44.76 414.12,-33.18 398.43,-24.58"/>
<polygon fill="midnightblue" stroke="midnightblue" points="399.8,-21.34 389.34,-19.64 396.45,-27.49 399.8,-21.34"/>
</g>
<!-- Node18&#45;&gt;Node4 -->
<g id="edge33" class="edge">
<title>Node18&#45;&gt;Node4</title>
<path fill="none" stroke="midnightblue" d="M590.26,-123.48C580.84,-114.28 565.64,-99.46 554.05,-88.16"/>
<polygon fill="midnightblue" stroke="midnightblue" points="556.33,-85.49 546.72,-81.01 551.44,-90.5 556.33,-85.49"/>
</g>
<!-- Node18&#45;&gt;Node7 -->
<g id="edge32" class="edge">
<title>Node18&#45;&gt;Node7</title>
<path fill="none" stroke="midnightblue" d="M600.32,-123.18C602.75,-108.61 608.73,-78.83 620,-56 625.08,-45.7 632.64,-35.4 639.34,-27.25"/>
<polygon fill="midnightblue" stroke="midnightblue" points="642.02,-29.5 645.88,-19.64 636.71,-24.95 642.02,-29.5"/>
</g>
<!-- Node19 -->
<g id="node19" class="node">
<title>Node19</title>
<g id="a_node19"><a xlink:title=" ">
<polygon fill="white" stroke="#bfbfbf" points="628.5,-56.5 628.5,-86.5 741.5,-86.5 741.5,-56.5 628.5,-56.5"/>
<text text-anchor="start" x="636.5" y="-74.5" font-family="Helvetica,sans-Serif" font-size="10.00">websocketpp/config</text>
<text text-anchor="middle" x="685" y="-63.5" font-family="Helvetica,sans-Serif" font-size="10.00">/asio_no_tls.hpp</text>
</a>
</g>
</g>
<!-- Node18&#45;&gt;Node19 -->
<g id="edge31" class="edge">
<title>Node18&#45;&gt;Node19</title>
<path fill="none" stroke="midnightblue" d="M611.32,-123.48C622.97,-115.42 640.88,-103.02 656.13,-92.47"/>
<polygon fill="midnightblue" stroke="midnightblue" points="658.5,-95.09 664.73,-86.52 654.52,-89.33 658.5,-95.09"/>
</g>
<!-- Node20 -->
<g id="node20" class="node">
<title>Node20</title>
<g id="a_node20"><a xlink:title=" ">
<polygon fill="white" stroke="#bfbfbf" points="759.5,-62 759.5,-81 806.5,-81 806.5,-62 759.5,-62"/>
<text text-anchor="middle" x="783" y="-69" font-family="Helvetica,sans-Serif" font-size="10.00">queue</text>
</a>
</g>
</g>
<!-- Node18&#45;&gt;Node20 -->
<g id="edge34" class="edge">
<title>Node18&#45;&gt;Node20</title>
<path fill="none" stroke="midnightblue" d="M632.64,-123.47C663.74,-115.25 711.03,-101.89 751,-87 752.61,-86.4 754.26,-85.76 755.91,-85.09"/>
<polygon fill="midnightblue" stroke="midnightblue" points="757.44,-88.24 765.24,-81.07 754.67,-81.81 757.44,-88.24"/>
</g>
</g>
</svg>
        <g id="navigator" transform="translate(0 0)" fill="#404254">
                <rect fill="#f2f5e9" fill-opacity="0.5" stroke="#606060" stroke-width=".5" x="0" y="0" width="60" height="60"/>
                <use id="zoomplus" xlink:href="#zoomPlus" x="17" y="9" onmousedown="handleZoom(evt,'in')"/>
                <use id="zoomminus" xlink:href="#zoomMin" x="42" y="9" onmousedown="handleZoom(evt,'out')"/>
                <use id="reset" xlink:href="#resetDef" x="30" y="36" onmousedown="handleReset()"/>
                <g id="arrowUp" xlink:href="#dirArrow" transform="translate(30 24)" onmousedown="handlePan(0,-1)">
                  <use xlink:href="#rim" fill="#404040">
                        <set attributeName="fill" to="#808080" begin="arrowUp.mouseover" end="arrowUp.mouseout"/>
                  </use>
                  <path fill="none" stroke="white" stroke-width="1.5" d="M0,-3.0v7 M-2.5,-0.5L0,-3.0L2.5,-0.5"/>
                </g>
                <g id="arrowRight" xlink:href="#dirArrow" transform="rotate(90) translate(36 -43)" onmousedown="handlePan(1,0)">
                  <use xlink:href="#rim" fill="#404040">
                        <set attributeName="fill" to="#808080" begin="arrowRight.mouseover" end="arrowRight.mouseout"/>
                  </use>
                  <path fill="none" stroke="white" stroke-width="1.5" d="M0,-3.0v7 M-2.5,-0.5L0,-3.0L2.5,-0.5"/>
                </g>
                <g id="arrowDown" xlink:href="#dirArrow" transform="rotate(180) translate(-30 -48)" onmousedown="handlePan(0,1)">
                  <use xlink:href="#rim" fill="#404040">
                        <set attributeName="fill" to="#808080" begin="arrowDown.mouseover" end="arrowDown.mouseout"/>
                  </use>
                  <path fill="none" stroke="white" stroke-width="1.5" d="M0,-3.0v7 M-2.5,-0.5L0,-3.0L2.5,-0.5"/>
                </g>
                <g id="arrowLeft" xlink:href="#dirArrow" transform="rotate(270) translate(-36 17)" onmousedown="handlePan(-1,0)">
                  <use xlink:href="#rim" fill="#404040">
                        <set attributeName="fill" to="#808080" begin="arrowLeft.mouseover" end="arrowLeft.mouseout"/>
                  </use>
                  <path fill="none" stroke="white" stroke-width="1.5" d="M0,-3.0v7 M-2.5,-0.5L0,-3.0L2.5,-0.5"/>
                </g>
        </g>
        <svg viewBox="0 0 15 15" width="100%" height="30px" preserveAspectRatio="xMaxYMin meet">
         <g id="arrow_out" transform="scale(0.3 0.3)">
          <a xlink:href="galaxy_8hpp__incl_org.svg" target="_base">
           <rect id="button" ry="5" rx="5" y="6" x="6" height="38" width="38"
                fill="#f2f5e9" fill-opacity="0.5" stroke="#606060" stroke-width="1.0"/>
           <path id="arrow"
             d="M 11.500037,31.436501 C 11.940474,20.09759 22.043105,11.32322 32.158766,21.979434 L 37.068811,17.246167 C 37.068811,17.246167 37.088388,32 37.088388,32 L 22.160133,31.978069 C 22.160133,31.978069 26.997745,27.140456 26.997745,27.140456 C 18.528582,18.264221 13.291696,25.230495 11.500037,31.436501 z"
             style="fill:#404040;"/>
          </a>
         </g>
        </svg>
</svg>
