<?xml version="1.0" encoding="UTF-8" standalone="no"?>
<!DOCTYPE svg PUBLIC "-//W3C//DTD SVG 1.1//EN"
 "http://www.w3.org/Graphics/SVG/1.1/DTD/svg11.dtd">
<!-- Generated by graphviz version 2.42.3 (0)
 -->
<!-- Title: include/gamestate.hpp Pages: 1 -->
<svg width="744pt" height="196pt"
 viewBox="0.00 0.00 744.00 196.00" xmlns="http://www.w3.org/2000/svg" xmlns:xlink="http://www.w3.org/1999/xlink">
<g id="graph0" class="graph" transform="scale(1 1) rotate(0) translate(4 192)">
<title>include/gamestate.hpp</title>
<polygon fill="white" stroke="transparent" points="-4,4 -4,-192 740,-192 740,4 -4,4"/>
<!-- Node1 -->
<g id="node1" class="node">
<title>Node1</title>
<g id="a_node1"><a xlink:title=" ">
<polygon fill="#bfbfbf" stroke="black" points="166.5,-168.5 166.5,-187.5 294.5,-187.5 294.5,-168.5 166.5,-168.5"/>
<text text-anchor="middle" x="230.5" y="-175.5" font-family="Helvetica,sans-Serif" font-size="10.00">include/gamestate.hpp</text>
</a>
</g>
</g>
<!-- Node2 -->
<g id="node2" class="node">
<title>Node2</title>
<g id="a_node2"><a xlink:title=" ">
<polygon fill="white" stroke="#bfbfbf" points="0,-112.5 0,-131.5 47,-131.5 47,-112.5 0,-112.5"/>
<text text-anchor="middle" x="23.5" y="-119.5" font-family="Helvetica,sans-Serif" font-size="10.00">vector</text>
</a>
</g>
</g>
<!-- Node1&#45;&gt;Node2 -->
<g id="edge1" class="edge">
<title>Node1&#45;&gt;Node2</title>
<path fill="none" stroke="midnightblue" d="M197.7,-168.44C159.19,-158.4 95.66,-141.83 56.9,-131.71"/>
<polygon fill="midnightblue" stroke="midnightblue" points="57.69,-128.3 47.13,-129.16 55.92,-135.08 57.69,-128.3"/>
</g>
<!-- Node3 -->
<g id="node3" class="node">
<title>Node3</title>
<g id="a_node3"><a xlink:title=" ">
<polygon fill="white" stroke="#bfbfbf" points="28.5,-0.5 28.5,-19.5 66.5,-19.5 66.5,-0.5 28.5,-0.5"/>
<text text-anchor="middle" x="47.5" y="-7.5" font-family="Helvetica,sans-Serif" font-size="10.00">map</text>
</a>
</g>
</g>
<!-- Node1&#45;&gt;Node3 -->
<g id="edge2" class="edge">
<title>Node1&#45;&gt;Node3</title>
<path fill="none" stroke="midnightblue" d="M209.08,-168.35C191.21,-160.51 165.66,-147.77 146.5,-132 108.58,-100.81 74.82,-53.28 58.27,-28.08"/>
<polygon fill="midnightblue" stroke="midnightblue" points="61.16,-26.1 52.8,-19.59 55.28,-29.9 61.16,-26.1"/>
</g>
<!-- Node4 -->
<g id="node4" class="node">
<title>Node4</title>
<g id="a_node4"><a xlink:title=" ">
<polygon fill="white" stroke="#bfbfbf" points="84.5,-0.5 84.5,-19.5 142.5,-19.5 142.5,-0.5 84.5,-0.5"/>
<text text-anchor="middle" x="113.5" y="-7.5" font-family="Helvetica,sans-Serif" font-size="10.00">memory</text>
</a>
</g>
</g>
<!-- Node1&#45;&gt;Node4 -->
<g id="edge3" class="edge">
<title>Node1&#45;&gt;Node4</title>
<path fill="none" stroke="midnightblue" d="M211.49,-168.39C196.42,-160.72 175.76,-148.22 162.5,-132 137,-100.82 123.29,-54.63 117.29,-29.28"/>
<polygon fill="midnightblue" stroke="midnightblue" points="120.71,-28.52 115.12,-19.52 113.88,-30.04 120.71,-28.52"/>
</g>
<!-- Node5 -->
<g id="node5" class="node">
<title>Node5</title>
<g id="a_node5"><a xlink:title=" ">
<polygon fill="white" stroke="#bfbfbf" points="413.5,-112.5 413.5,-131.5 467.5,-131.5 467.5,-112.5 413.5,-112.5"/>
<text text-anchor="middle" x="440.5" y="-119.5" font-family="Helvetica,sans-Serif" font-size="10.00">random</text>
</a>
</g>
</g>
<!-- Node1&#45;&gt;Node5 -->
<g id="edge4" class="edge">
<title>Node1&#45;&gt;Node5</title>
<path fill="none" stroke="midnightblue" d="M263.78,-168.44C301.86,-158.65 364.07,-142.65 403.61,-132.49"/>
<polygon fill="midnightblue" stroke="midnightblue" points="404.58,-135.85 413.39,-129.97 402.83,-129.07 404.58,-135.85"/>
</g>
<!-- Node6 -->
<g id="node6" class="node">
<title>Node6</title>
<g id="a_node6"><a xlink:href="field_8hpp.html" target="_top" xlink:title=" ">
<polygon fill="white" stroke="black" points="233,-56.5 233,-75.5 292,-75.5 292,-56.5 233,-56.5"/>
<text text-anchor="middle" x="262.5" y="-63.5" font-family="Helvetica,sans-Serif" font-size="10.00">field.hpp</text>
</a>
</g>
</g>
<!-- Node1&#45;&gt;Node6 -->
<g id="edge5" class="edge">
<title>Node1&#45;&gt;Node6</title>
<path fill="none" stroke="midnightblue" d="M249.48,-168.4C263.39,-160.95 281.21,-148.74 289.5,-132 297.5,-115.83 287.29,-96.69 277.22,-83.38"/>
<polygon fill="midnightblue" stroke="midnightblue" points="279.86,-81.08 270.81,-75.57 274.44,-85.52 279.86,-81.08"/>
</g>
<!-- Node7 -->
<g id="node7" class="node">
<title>Node7</title>
<g id="a_node7"><a xlink:href="position__type_8hpp.html" target="_top" xlink:title=" ">
<polygon fill="white" stroke="black" points="210.5,-0.5 210.5,-19.5 314.5,-19.5 314.5,-0.5 210.5,-0.5"/>
<text text-anchor="middle" x="262.5" y="-7.5" font-family="Helvetica,sans-Serif" font-size="10.00">position_type.hpp</text>
</a>
</g>
</g>
<!-- Node1&#45;&gt;Node7 -->
<g id="edge15" class="edge">
<title>Node1&#45;&gt;Node7</title>
<path fill="none" stroke="midnightblue" d="M257.78,-168.45C274.79,-161.55 295.33,-149.97 305.5,-132 312.3,-119.99 312.15,-83.94 300.5,-56 295.95,-45.1 287.77,-34.88 280.17,-26.94"/>
<polygon fill="midnightblue" stroke="midnightblue" points="282.5,-24.32 272.9,-19.82 277.6,-29.32 282.5,-24.32"/>
</g>
<!-- Node8 -->
<g id="node8" class="node">
<title>Node8</title>
<g id="a_node8"><a xlink:title=" ">
<polygon fill="white" stroke="#bfbfbf" points="332.5,-0.5 332.5,-19.5 442.5,-19.5 442.5,-0.5 332.5,-0.5"/>
<text text-anchor="middle" x="387.5" y="-7.5" font-family="Helvetica,sans-Serif" font-size="10.00">nlohmann/json.hpp</text>
</a>
</g>
</g>
<!-- Node1&#45;&gt;Node8 -->
<g id="edge16" class="edge">
<title>Node1&#45;&gt;Node8</title>
<path fill="none" stroke="midnightblue" d="M258.58,-168.44C278.36,-161.27 304.44,-149.39 322.5,-132 353.17,-102.48 372.67,-55.3 381.67,-29.44"/>
<polygon fill="midnightblue" stroke="midnightblue" points="385.05,-30.37 384.88,-19.77 378.4,-28.16 385.05,-30.37"/>
</g>
<!-- Node9 -->
<g id="node9" class="node">
<title>Node9</title>
<g id="a_node9"><a xlink:href="dot_8hpp.html" target="_top" xlink:title=" ">
<polygon fill="white" stroke="black" points="150,-56.5 150,-75.5 203,-75.5 203,-56.5 150,-56.5"/>
<text text-anchor="middle" x="176.5" y="-63.5" font-family="Helvetica,sans-Serif" font-size="10.00">dot.hpp</text>
</a>
</g>
</g>
<!-- Node1&#45;&gt;Node9 -->
<g id="edge9" class="edge">
<title>Node1&#45;&gt;Node9</title>
<path fill="none" stroke="midnightblue" d="M211.2,-168.48C197.07,-161.08 178.94,-148.89 170.5,-132 163.22,-117.44 166,-98.76 169.84,-85.17"/>
<polygon fill="midnightblue" stroke="midnightblue" points="173.21,-86.12 172.97,-75.53 166.55,-83.96 173.21,-86.12"/>
</g>
<!-- Node11 -->
<g id="node11" class="node">
<title>Node11</title>
<g id="a_node11"><a xlink:href="gamechange_8hpp.html" target="_top" xlink:title=" ">
<polygon fill="white" stroke="black" points="180,-112.5 180,-131.5 281,-131.5 281,-112.5 180,-112.5"/>
<text text-anchor="middle" x="230.5" y="-119.5" font-family="Helvetica,sans-Serif" font-size="10.00">gamechange.hpp</text>
</a>
</g>
</g>
<!-- Node1&#45;&gt;Node11 -->
<g id="edge17" class="edge">
<title>Node1&#45;&gt;Node11</title>
<path fill="none" stroke="midnightblue" d="M230.5,-168.08C230.5,-161.01 230.5,-150.86 230.5,-141.99"/>
<polygon fill="midnightblue" stroke="midnightblue" points="234,-141.75 230.5,-131.75 227,-141.75 234,-141.75"/>
</g>
<!-- Node6&#45;&gt;Node4 -->
<g id="edge8" class="edge">
<title>Node6&#45;&gt;Node4</title>
<path fill="none" stroke="midnightblue" d="M238.89,-56.44C214.04,-47.44 174.73,-33.19 146.75,-23.05"/>
<polygon fill="midnightblue" stroke="midnightblue" points="147.59,-19.63 137,-19.52 145.21,-26.21 147.59,-19.63"/>
</g>
<!-- Node6&#45;&gt;Node7 -->
<g id="edge6" class="edge">
<title>Node6&#45;&gt;Node7</title>
<path fill="none" stroke="midnightblue" d="M262.5,-56.08C262.5,-49.01 262.5,-38.86 262.5,-29.99"/>
<polygon fill="midnightblue" stroke="midnightblue" points="266,-29.75 262.5,-19.75 259,-29.75 266,-29.75"/>
</g>
<!-- Node6&#45;&gt;Node8 -->
<g id="edge7" class="edge">
<title>Node6&#45;&gt;Node8</title>
<path fill="none" stroke="midnightblue" d="M282.31,-56.44C302.79,-47.6 334.98,-33.69 358.36,-23.59"/>
<polygon fill="midnightblue" stroke="midnightblue" points="359.99,-26.7 367.79,-19.52 357.22,-20.27 359.99,-26.7"/>
</g>
<!-- Node9&#45;&gt;Node3 -->
<g id="edge12" class="edge">
<title>Node9&#45;&gt;Node3</title>
<path fill="none" stroke="midnightblue" d="M156.06,-56.44C134.45,-47.4 100.22,-33.07 75.97,-22.92"/>
<polygon fill="midnightblue" stroke="midnightblue" points="77.16,-19.62 66.58,-18.99 74.46,-26.08 77.16,-19.62"/>
</g>
<!-- Node9&#45;&gt;Node4 -->
<g id="edge13" class="edge">
<title>Node9&#45;&gt;Node4</title>
<path fill="none" stroke="midnightblue" d="M166.38,-56.32C156.97,-48.26 142.76,-36.08 131.43,-26.37"/>
<polygon fill="midnightblue" stroke="midnightblue" points="133.68,-23.68 123.81,-19.83 129.12,-29 133.68,-23.68"/>
</g>
<!-- Node9&#45;&gt;Node7 -->
<g id="edge10" class="edge">
<title>Node9&#45;&gt;Node7</title>
<path fill="none" stroke="midnightblue" d="M190.32,-56.32C203.73,-47.9 224.32,-34.97 240.09,-25.07"/>
<polygon fill="midnightblue" stroke="midnightblue" points="242.11,-27.94 248.72,-19.65 238.39,-22.01 242.11,-27.94"/>
</g>
<!-- Node9&#45;&gt;Node8 -->
<g id="edge14" class="edge">
<title>Node9&#45;&gt;Node8</title>
<path fill="none" stroke="midnightblue" d="M203.22,-58.16C238.74,-49.07 301.95,-32.9 344.29,-22.06"/>
<polygon fill="midnightblue" stroke="midnightblue" points="345.23,-25.43 354.05,-19.56 343.49,-18.65 345.23,-25.43"/>
</g>
<!-- Node10 -->
<g id="node10" class="node">
<title>Node10</title>
<g id="a_node10"><a xlink:title=" ">
<polygon fill="white" stroke="#bfbfbf" points="160.5,-0.5 160.5,-19.5 192.5,-19.5 192.5,-0.5 160.5,-0.5"/>
<text text-anchor="middle" x="176.5" y="-7.5" font-family="Helvetica,sans-Serif" font-size="10.00">set</text>
</a>
</g>
</g>
<!-- Node9&#45;&gt;Node10 -->
<g id="edge11" class="edge">
<title>Node9&#45;&gt;Node10</title>
<path fill="none" stroke="midnightblue" d="M176.5,-56.08C176.5,-49.01 176.5,-38.86 176.5,-29.99"/>
<polygon fill="midnightblue" stroke="midnightblue" points="180,-29.75 176.5,-19.75 173,-29.75 180,-29.75"/>
</g>
<!-- Node11&#45;&gt;Node6 -->
<g id="edge22" class="edge">
<title>Node11&#45;&gt;Node6</title>
<path fill="none" stroke="midnightblue" d="M235.78,-112.08C240.21,-104.61 246.66,-93.72 252.12,-84.52"/>
<polygon fill="midnightblue" stroke="midnightblue" points="255.23,-86.14 257.31,-75.75 249.21,-82.57 255.23,-86.14"/>
</g>
<!-- Node11&#45;&gt;Node9 -->
<g id="edge23" class="edge">
<title>Node11&#45;&gt;Node9</title>
<path fill="none" stroke="midnightblue" d="M221.58,-112.08C213.72,-104.22 202.07,-92.57 192.58,-83.08"/>
<polygon fill="midnightblue" stroke="midnightblue" points="194.8,-80.35 185.25,-75.75 189.85,-85.3 194.8,-80.35"/>
</g>
<!-- Node12 -->
<g id="node12" class="node">
<title>Node12</title>
<g id="a_node12"><a xlink:href="player_8hpp.html" target="_top" xlink:title=" ">
<polygon fill="white" stroke="black" points="483.5,-56.5 483.5,-75.5 551.5,-75.5 551.5,-56.5 483.5,-56.5"/>
<text text-anchor="middle" x="517.5" y="-63.5" font-family="Helvetica,sans-Serif" font-size="10.00">player.hpp</text>
</a>
</g>
</g>
<!-- Node11&#45;&gt;Node12 -->
<g id="edge18" class="edge">
<title>Node11&#45;&gt;Node12</title>
<path fill="none" stroke="midnightblue" d="M275.98,-112.44C330.17,-102.25 420.11,-85.32 473.6,-75.26"/>
<polygon fill="midnightblue" stroke="midnightblue" points="474.29,-78.69 483.47,-73.4 473,-71.81 474.29,-78.69"/>
</g>
<!-- Node13 -->
<g id="node13" class="node">
<title>Node13</title>
<g id="a_node13"><a xlink:title=" ">
<polygon fill="white" stroke="#bfbfbf" points="460.5,-0.5 460.5,-19.5 504.5,-19.5 504.5,-0.5 460.5,-0.5"/>
<text text-anchor="middle" x="482.5" y="-7.5" font-family="Helvetica,sans-Serif" font-size="10.00">string</text>
</a>
</g>
</g>
<!-- Node12&#45;&gt;Node13 -->
<g id="edge19" class="edge">
<title>Node12&#45;&gt;Node13</title>
<path fill="none" stroke="midnightblue" d="M511.72,-56.08C506.83,-48.53 499.67,-37.49 493.67,-28.23"/>
<polygon fill="midnightblue" stroke="midnightblue" points="496.55,-26.24 488.17,-19.75 490.67,-30.05 496.55,-26.24"/>
</g>
<!-- Node14 -->
<g id="node14" class="node">
<title>Node14</title>
<g id="a_node14"><a xlink:title=" ">
<polygon fill="white" stroke="#bfbfbf" points="522.5,-0.5 522.5,-19.5 582.5,-19.5 582.5,-0.5 522.5,-0.5"/>
<text text-anchor="middle" x="552.5" y="-7.5" font-family="Helvetica,sans-Serif" font-size="10.00">iostream</text>
</a>
</g>
</g>
<!-- Node12&#45;&gt;Node14 -->
<g id="edge20" class="edge">
<title>Node12&#45;&gt;Node14</title>
<path fill="none" stroke="midnightblue" d="M523.28,-56.08C528.17,-48.53 535.33,-37.49 541.33,-28.23"/>
<polygon fill="midnightblue" stroke="midnightblue" points="544.33,-30.05 546.83,-19.75 538.45,-26.24 544.33,-30.05"/>
</g>
<!-- Node15 -->
<g id="node15" class="node">
<title>Node15</title>
<g id="a_node15"><a xlink:title=" ">
<polygon fill="white" stroke="#bfbfbf" points="601,-0.5 601,-19.5 736,-19.5 736,-0.5 601,-0.5"/>
<text text-anchor="middle" x="668.5" y="-7.5" font-family="Helvetica,sans-Serif" font-size="10.00">websocketpp/server.hpp</text>
</a>
</g>
</g>
<!-- Node12&#45;&gt;Node15 -->
<g id="edge21" class="edge">
<title>Node12&#45;&gt;Node15</title>
<path fill="none" stroke="midnightblue" d="M541.43,-56.44C566.72,-47.4 606.8,-33.06 635.18,-22.92"/>
<polygon fill="midnightblue" stroke="midnightblue" points="636.45,-26.18 644.69,-19.52 634.09,-19.59 636.45,-26.18"/>
</g>
</g>
</svg>
