<?xml version="1.0" encoding="UTF-8" standalone="no"?>
<!DOCTYPE svg PUBLIC "-//W3C//DTD SVG 1.1//EN"
 "http://www.w3.org/Graphics/SVG/1.1/DTD/svg11.dtd">
<!-- Generated by graphviz version 2.42.3 (0)
 -->
<!-- Title: include/gamestate.hpp Pages: 1 -->
<svg width="394pt" height="140pt"
 viewBox="0.00 0.00 393.50 140.00" xmlns="http://www.w3.org/2000/svg" xmlns:xlink="http://www.w3.org/1999/xlink">
<g id="graph0" class="graph" transform="scale(1 1) rotate(0) translate(4 136)">
<title>include/gamestate.hpp</title>
<polygon fill="white" stroke="transparent" points="-4,4 -4,-136 389.5,-136 389.5,4 -4,4"/>
<!-- Node1 -->
<g id="node1" class="node">
<title>Node1</title>
<g id="a_node1"><a xlink:title=" ">
<polygon fill="#bfbfbf" stroke="black" points="186,-112.5 186,-131.5 314,-131.5 314,-112.5 186,-112.5"/>
<text text-anchor="middle" x="250" y="-119.5" font-family="Helvetica,sans-Serif" font-size="10.00">include/gamestate.hpp</text>
</a>
</g>
</g>
<!-- Node2 -->
<g id="node2" class="node">
<title>Node2</title>
<g id="a_node2"><a xlink:href="galaxy_8hpp.html" target="_top" xlink:title=" ">
<polygon fill="white" stroke="black" points="108.5,-56.5 108.5,-75.5 215.5,-75.5 215.5,-56.5 108.5,-56.5"/>
<text text-anchor="middle" x="162" y="-63.5" font-family="Helvetica,sans-Serif" font-size="10.00">include/galaxy.hpp</text>
</a>
</g>
</g>
<!-- Node1&#45;&gt;Node2 -->
<g id="edge1" class="edge">
<title>Node1&#45;&gt;Node2</title>
<path fill="none" stroke="midnightblue" d="M227.02,-106.9C210.89,-97 189.82,-84.07 176.1,-75.65"/>
<polygon fill="midnightblue" stroke="midnightblue" points="225.51,-110.08 235.86,-112.32 229.17,-104.11 225.51,-110.08"/>
</g>
<!-- Node4 -->
<g id="node4" class="node">
<title>Node4</title>
<g id="a_node4"><a xlink:href="main_8cpp.html" target="_top" xlink:title=" ">
<polygon fill="white" stroke="black" points="216.5,-0.5 216.5,-19.5 295.5,-19.5 295.5,-0.5 216.5,-0.5"/>
<text text-anchor="middle" x="256" y="-7.5" font-family="Helvetica,sans-Serif" font-size="10.00">src/main.cpp</text>
</a>
</g>
</g>
<!-- Node1&#45;&gt;Node4 -->
<g id="edge6" class="edge">
<title>Node1&#45;&gt;Node4</title>
<path fill="none" stroke="midnightblue" d="M251.02,-102.35C252.33,-78.25 254.57,-37.31 255.53,-19.59"/>
<polygon fill="midnightblue" stroke="midnightblue" points="247.52,-102.19 250.47,-112.37 254.51,-102.57 247.52,-102.19"/>
</g>
<!-- Node6 -->
<g id="node6" class="node">
<title>Node6</title>
<g id="a_node6"><a xlink:href="gamestate_8cpp.html" target="_top" xlink:title=" ">
<polygon fill="white" stroke="black" points="278.5,-56.5 278.5,-75.5 385.5,-75.5 385.5,-56.5 278.5,-56.5"/>
<text text-anchor="middle" x="332" y="-63.5" font-family="Helvetica,sans-Serif" font-size="10.00">src/gamestate.cpp</text>
</a>
</g>
</g>
<!-- Node1&#45;&gt;Node6 -->
<g id="edge5" class="edge">
<title>Node1&#45;&gt;Node6</title>
<path fill="none" stroke="midnightblue" d="M271.83,-106.62C286.81,-96.76 306.2,-83.99 318.86,-75.65"/>
<polygon fill="midnightblue" stroke="midnightblue" points="269.6,-103.9 263.17,-112.32 273.45,-109.75 269.6,-103.9"/>
</g>
<!-- Node3 -->
<g id="node3" class="node">
<title>Node3</title>
<g id="a_node3"><a xlink:href="galaxy_8cpp.html" target="_top" xlink:title=" ">
<polygon fill="white" stroke="black" points="0,-0.5 0,-19.5 86,-19.5 86,-0.5 0,-0.5"/>
<text text-anchor="middle" x="43" y="-7.5" font-family="Helvetica,sans-Serif" font-size="10.00">src/galaxy.cpp</text>
</a>
</g>
</g>
<!-- Node2&#45;&gt;Node3 -->
<g id="edge2" class="edge">
<title>Node2&#45;&gt;Node3</title>
<path fill="none" stroke="midnightblue" d="M133.86,-52.23C111.6,-42.13 81.14,-28.31 61.77,-19.52"/>
<polygon fill="midnightblue" stroke="midnightblue" points="132.59,-55.5 143.14,-56.44 135.48,-49.12 132.59,-55.5"/>
</g>
<!-- Node2&#45;&gt;Node4 -->
<g id="edge3" class="edge">
<title>Node2&#45;&gt;Node4</title>
<path fill="none" stroke="midnightblue" d="M186.06,-51.18C203.36,-41.24 226.15,-28.15 240.93,-19.65"/>
<polygon fill="midnightblue" stroke="midnightblue" points="184.03,-48.31 177.1,-56.32 187.52,-54.38 184.03,-48.31"/>
</g>
<!-- Node5 -->
<g id="node5" class="node">
<title>Node5</title>
<g id="a_node5"><a xlink:href="network_8cpp.html" target="_top" xlink:title=" ">
<polygon fill="white" stroke="black" points="104,-0.5 104,-19.5 198,-19.5 198,-0.5 104,-0.5"/>
<text text-anchor="middle" x="151" y="-7.5" font-family="Helvetica,sans-Serif" font-size="10.00">src/network.cpp</text>
</a>
</g>
</g>
<!-- Node2&#45;&gt;Node5 -->
<g id="edge4" class="edge">
<title>Node2&#45;&gt;Node5</title>
<path fill="none" stroke="midnightblue" d="M158.15,-46.1C156.32,-37.14 154.23,-26.86 152.78,-19.75"/>
<polygon fill="midnightblue" stroke="midnightblue" points="154.76,-46.98 160.18,-56.08 161.62,-45.59 154.76,-46.98"/>
</g>
</g>
</svg>
