<?xml version="1.0" encoding="UTF-8" standalone="no"?>
<!DOCTYPE svg PUBLIC "-//W3C//DTD SVG 1.1//EN"
 "http://www.w3.org/Graphics/SVG/1.1/DTD/svg11.dtd">
<!-- Generated by graphviz version 2.42.3 (0)
 -->
<!-- Title: include/gamechange.hpp Pages: 1 -->
<svg width="457pt" height="196pt"
 viewBox="0.00 0.00 456.50 196.00" xmlns="http://www.w3.org/2000/svg" xmlns:xlink="http://www.w3.org/1999/xlink">
<g id="graph0" class="graph" transform="scale(1 1) rotate(0) translate(4 192)">
<title>include/gamechange.hpp</title>
<polygon fill="white" stroke="transparent" points="-4,4 -4,-192 452.5,-192 452.5,4 -4,4"/>
<!-- Node1 -->
<g id="node1" class="node">
<title>Node1</title>
<g id="a_node1"><a xlink:title=" ">
<polygon fill="#bfbfbf" stroke="black" points="179.5,-168.5 179.5,-187.5 318.5,-187.5 318.5,-168.5 179.5,-168.5"/>
<text text-anchor="middle" x="249" y="-175.5" font-family="Helvetica,sans-Serif" font-size="10.00">include/gamechange.hpp</text>
</a>
</g>
</g>
<!-- Node2 -->
<g id="node2" class="node">
<title>Node2</title>
<g id="a_node2"><a xlink:href="galaxy_8hpp.html" target="_top" xlink:title=" ">
<polygon fill="white" stroke="black" points="103.5,-56.5 103.5,-75.5 210.5,-75.5 210.5,-56.5 103.5,-56.5"/>
<text text-anchor="middle" x="157" y="-63.5" font-family="Helvetica,sans-Serif" font-size="10.00">include/galaxy.hpp</text>
</a>
</g>
</g>
<!-- Node1&#45;&gt;Node2 -->
<g id="edge1" class="edge">
<title>Node1&#45;&gt;Node2</title>
<path fill="none" stroke="midnightblue" d="M217.56,-164.07C203.03,-156.65 186.66,-145.99 176,-132 163.03,-114.98 158.9,-89.31 157.59,-75.89"/>
<polygon fill="midnightblue" stroke="midnightblue" points="216.24,-167.32 226.77,-168.49 219.27,-161.01 216.24,-167.32"/>
</g>
<!-- Node6 -->
<g id="node6" class="node">
<title>Node6</title>
<g id="a_node6"><a xlink:href="gamestate_8hpp.html" target="_top" xlink:title=" ">
<polygon fill="white" stroke="black" points="185,-112.5 185,-131.5 313,-131.5 313,-112.5 185,-112.5"/>
<text text-anchor="middle" x="249" y="-119.5" font-family="Helvetica,sans-Serif" font-size="10.00">include/gamestate.hpp</text>
</a>
</g>
</g>
<!-- Node1&#45;&gt;Node6 -->
<g id="edge5" class="edge">
<title>Node1&#45;&gt;Node6</title>
<path fill="none" stroke="midnightblue" d="M249,-157.8C249,-148.91 249,-138.78 249,-131.75"/>
<polygon fill="midnightblue" stroke="midnightblue" points="245.5,-158.08 249,-168.08 252.5,-158.08 245.5,-158.08"/>
</g>
<!-- Node8 -->
<g id="node8" class="node">
<title>Node8</title>
<g id="a_node8"><a xlink:href="gamechange_8cpp.html" target="_top" xlink:title=" ">
<polygon fill="white" stroke="black" points="331.5,-112.5 331.5,-131.5 448.5,-131.5 448.5,-112.5 331.5,-112.5"/>
<text text-anchor="middle" x="390" y="-119.5" font-family="Helvetica,sans-Serif" font-size="10.00">src/gamechange.cpp</text>
</a>
</g>
</g>
<!-- Node1&#45;&gt;Node8 -->
<g id="edge9" class="edge">
<title>Node1&#45;&gt;Node8</title>
<path fill="none" stroke="midnightblue" d="M280.93,-164.77C307.41,-154.63 344.39,-140.47 367.76,-131.52"/>
<polygon fill="midnightblue" stroke="midnightblue" points="279.43,-161.6 271.34,-168.44 281.93,-168.14 279.43,-161.6"/>
</g>
<!-- Node3 -->
<g id="node3" class="node">
<title>Node3</title>
<g id="a_node3"><a xlink:href="galaxy_8cpp.html" target="_top" xlink:title=" ">
<polygon fill="white" stroke="black" points="0,-0.5 0,-19.5 86,-19.5 86,-0.5 0,-0.5"/>
<text text-anchor="middle" x="43" y="-7.5" font-family="Helvetica,sans-Serif" font-size="10.00">src/galaxy.cpp</text>
</a>
</g>
</g>
<!-- Node2&#45;&gt;Node3 -->
<g id="edge2" class="edge">
<title>Node2&#45;&gt;Node3</title>
<path fill="none" stroke="midnightblue" d="M129.76,-52.1C108.46,-42.01 79.46,-28.27 60.98,-19.52"/>
<polygon fill="midnightblue" stroke="midnightblue" points="128.4,-55.33 138.94,-56.44 131.4,-49 128.4,-55.33"/>
</g>
<!-- Node4 -->
<g id="node4" class="node">
<title>Node4</title>
<g id="a_node4"><a xlink:href="main_8cpp.html" target="_top" xlink:title=" ">
<polygon fill="white" stroke="black" points="216.5,-0.5 216.5,-19.5 295.5,-19.5 295.5,-0.5 216.5,-0.5"/>
<text text-anchor="middle" x="256" y="-7.5" font-family="Helvetica,sans-Serif" font-size="10.00">src/main.cpp</text>
</a>
</g>
</g>
<!-- Node2&#45;&gt;Node4 -->
<g id="edge3" class="edge">
<title>Node2&#45;&gt;Node4</title>
<path fill="none" stroke="midnightblue" d="M181.84,-51.45C200.11,-41.48 224.42,-28.23 240.13,-19.65"/>
<polygon fill="midnightblue" stroke="midnightblue" points="180.01,-48.46 172.91,-56.32 183.36,-54.61 180.01,-48.46"/>
</g>
<!-- Node5 -->
<g id="node5" class="node">
<title>Node5</title>
<g id="a_node5"><a xlink:href="network_8cpp.html" target="_top" xlink:title=" ">
<polygon fill="white" stroke="black" points="104,-0.5 104,-19.5 198,-19.5 198,-0.5 104,-0.5"/>
<text text-anchor="middle" x="151" y="-7.5" font-family="Helvetica,sans-Serif" font-size="10.00">src/network.cpp</text>
</a>
</g>
</g>
<!-- Node2&#45;&gt;Node5 -->
<g id="edge4" class="edge">
<title>Node2&#45;&gt;Node5</title>
<path fill="none" stroke="midnightblue" d="M154.9,-46.1C153.9,-37.14 152.76,-26.86 151.97,-19.75"/>
<polygon fill="midnightblue" stroke="midnightblue" points="151.43,-46.53 156.01,-56.08 158.38,-45.76 151.43,-46.53"/>
</g>
<!-- Node6&#45;&gt;Node2 -->
<g id="edge6" class="edge">
<title>Node6&#45;&gt;Node2</title>
<path fill="none" stroke="midnightblue" d="M225.45,-107.18C208.52,-97.24 186.22,-84.15 171.74,-75.65"/>
<polygon fill="midnightblue" stroke="midnightblue" points="223.82,-110.28 234.22,-112.32 227.37,-104.24 223.82,-110.28"/>
</g>
<!-- Node6&#45;&gt;Node4 -->
<g id="edge8" class="edge">
<title>Node6&#45;&gt;Node4</title>
<path fill="none" stroke="midnightblue" d="M250.19,-102.35C251.72,-78.25 254.33,-37.31 255.45,-19.59"/>
<polygon fill="midnightblue" stroke="midnightblue" points="246.69,-102.17 249.55,-112.37 253.68,-102.61 246.69,-102.17"/>
</g>
<!-- Node7 -->
<g id="node7" class="node">
<title>Node7</title>
<g id="a_node7"><a xlink:href="gamestate_8cpp.html" target="_top" xlink:title=" ">
<polygon fill="white" stroke="black" points="277.5,-56.5 277.5,-75.5 384.5,-75.5 384.5,-56.5 277.5,-56.5"/>
<text text-anchor="middle" x="331" y="-63.5" font-family="Helvetica,sans-Serif" font-size="10.00">src/gamestate.cpp</text>
</a>
</g>
</g>
<!-- Node6&#45;&gt;Node7 -->
<g id="edge7" class="edge">
<title>Node6&#45;&gt;Node7</title>
<path fill="none" stroke="midnightblue" d="M270.83,-106.62C285.81,-96.76 305.2,-83.99 317.86,-75.65"/>
<polygon fill="midnightblue" stroke="midnightblue" points="268.6,-103.9 262.17,-112.32 272.45,-109.75 268.6,-103.9"/>
</g>
</g>
</svg>
