<?xml version="1.0" encoding="UTF-8" standalone="no"?>
<!DOCTYPE svg PUBLIC "-//W3C//DTD SVG 1.1//EN"
 "http://www.w3.org/Graphics/SVG/1.1/DTD/svg11.dtd">
<!-- Generated by graphviz version 2.42.3 (0)
 -->
<!-- Title: include/gamechange.hpp Pages: 1 -->
<svg width="716pt" height="140pt"
 viewBox="0.00 0.00 716.00 140.00" xmlns="http://www.w3.org/2000/svg" xmlns:xlink="http://www.w3.org/1999/xlink">
<g id="graph0" class="graph" transform="scale(1 1) rotate(0) translate(4 136)">
<title>include/gamechange.hpp</title>
<polygon fill="white" stroke="transparent" points="-4,4 -4,-136 712,-136 712,4 -4,4"/>
<!-- Node1 -->
<g id="node1" class="node">
<title>Node1</title>
<g id="a_node1"><a xlink:title=" ">
<polygon fill="#bfbfbf" stroke="black" points="401.5,-112.5 401.5,-131.5 540.5,-131.5 540.5,-112.5 401.5,-112.5"/>
<text text-anchor="middle" x="471" y="-119.5" font-family="Helvetica,sans-Serif" font-size="10.00">include/gamechange.hpp</text>
</a>
</g>
</g>
<!-- Node2 -->
<g id="node2" class="node">
<title>Node2</title>
<g id="a_node2"><a xlink:href="player_8hpp.html" target="_top" xlink:title=" ">
<polygon fill="white" stroke="black" points="116,-56.5 116,-75.5 184,-75.5 184,-56.5 116,-56.5"/>
<text text-anchor="middle" x="150" y="-63.5" font-family="Helvetica,sans-Serif" font-size="10.00">player.hpp</text>
</a>
</g>
</g>
<!-- Node1&#45;&gt;Node2 -->
<g id="edge1" class="edge">
<title>Node1&#45;&gt;Node2</title>
<path fill="none" stroke="midnightblue" d="M420.14,-112.44C357.93,-101.98 253.64,-84.43 194.49,-74.48"/>
<polygon fill="midnightblue" stroke="midnightblue" points="194.78,-70.98 184.34,-72.78 193.62,-77.89 194.78,-70.98"/>
</g>
<!-- Node6 -->
<g id="node6" class="node">
<title>Node6</title>
<g id="a_node6"><a xlink:href="field_8hpp.html" target="_top" xlink:title=" ">
<polygon fill="white" stroke="black" points="441.5,-56.5 441.5,-75.5 500.5,-75.5 500.5,-56.5 441.5,-56.5"/>
<text text-anchor="middle" x="471" y="-63.5" font-family="Helvetica,sans-Serif" font-size="10.00">field.hpp</text>
</a>
</g>
</g>
<!-- Node1&#45;&gt;Node6 -->
<g id="edge5" class="edge">
<title>Node1&#45;&gt;Node6</title>
<path fill="none" stroke="midnightblue" d="M471,-112.08C471,-105.01 471,-94.86 471,-85.99"/>
<polygon fill="midnightblue" stroke="midnightblue" points="474.5,-85.75 471,-75.75 467.5,-85.75 474.5,-85.75"/>
</g>
<!-- Node10 -->
<g id="node10" class="node">
<title>Node10</title>
<g id="a_node10"><a xlink:href="dot_8hpp.html" target="_top" xlink:title=" ">
<polygon fill="white" stroke="black" points="532.5,-56.5 532.5,-75.5 585.5,-75.5 585.5,-56.5 532.5,-56.5"/>
<text text-anchor="middle" x="559" y="-63.5" font-family="Helvetica,sans-Serif" font-size="10.00">dot.hpp</text>
</a>
</g>
</g>
<!-- Node1&#45;&gt;Node10 -->
<g id="edge9" class="edge">
<title>Node1&#45;&gt;Node10</title>
<path fill="none" stroke="midnightblue" d="M485.14,-112.32C498.87,-103.9 519.94,-90.97 536.06,-81.07"/>
<polygon fill="midnightblue" stroke="midnightblue" points="538.2,-83.87 544.9,-75.65 534.54,-77.9 538.2,-83.87"/>
</g>
<!-- Node3 -->
<g id="node3" class="node">
<title>Node3</title>
<g id="a_node3"><a xlink:title=" ">
<polygon fill="white" stroke="#bfbfbf" points="0,-0.5 0,-19.5 44,-19.5 44,-0.5 0,-0.5"/>
<text text-anchor="middle" x="22" y="-7.5" font-family="Helvetica,sans-Serif" font-size="10.00">string</text>
</a>
</g>
</g>
<!-- Node2&#45;&gt;Node3 -->
<g id="edge2" class="edge">
<title>Node2&#45;&gt;Node3</title>
<path fill="none" stroke="midnightblue" d="M129.72,-56.44C108.65,-47.56 75.48,-33.56 51.51,-23.45"/>
<polygon fill="midnightblue" stroke="midnightblue" points="52.76,-20.18 42.19,-19.52 50.04,-26.63 52.76,-20.18"/>
</g>
<!-- Node4 -->
<g id="node4" class="node">
<title>Node4</title>
<g id="a_node4"><a xlink:title=" ">
<polygon fill="white" stroke="#bfbfbf" points="62,-0.5 62,-19.5 122,-19.5 122,-0.5 62,-0.5"/>
<text text-anchor="middle" x="92" y="-7.5" font-family="Helvetica,sans-Serif" font-size="10.00">iostream</text>
</a>
</g>
</g>
<!-- Node2&#45;&gt;Node4 -->
<g id="edge3" class="edge">
<title>Node2&#45;&gt;Node4</title>
<path fill="none" stroke="midnightblue" d="M140.68,-56.32C132.11,-48.34 119.19,-36.31 108.81,-26.65"/>
<polygon fill="midnightblue" stroke="midnightblue" points="111.19,-24.09 101.49,-19.83 106.42,-29.21 111.19,-24.09"/>
</g>
<!-- Node5 -->
<g id="node5" class="node">
<title>Node5</title>
<g id="a_node5"><a xlink:title=" ">
<polygon fill="white" stroke="#bfbfbf" points="140.5,-0.5 140.5,-19.5 275.5,-19.5 275.5,-0.5 140.5,-0.5"/>
<text text-anchor="middle" x="208" y="-7.5" font-family="Helvetica,sans-Serif" font-size="10.00">websocketpp/server.hpp</text>
</a>
</g>
</g>
<!-- Node2&#45;&gt;Node5 -->
<g id="edge4" class="edge">
<title>Node2&#45;&gt;Node5</title>
<path fill="none" stroke="midnightblue" d="M159.32,-56.32C167.89,-48.34 180.81,-36.31 191.19,-26.65"/>
<polygon fill="midnightblue" stroke="midnightblue" points="193.58,-29.21 198.51,-19.83 188.81,-24.09 193.58,-29.21"/>
</g>
<!-- Node7 -->
<g id="node7" class="node">
<title>Node7</title>
<g id="a_node7"><a xlink:href="position__type_8hpp.html" target="_top" xlink:title=" ">
<polygon fill="white" stroke="black" points="294,-0.5 294,-19.5 398,-19.5 398,-0.5 294,-0.5"/>
<text text-anchor="middle" x="346" y="-7.5" font-family="Helvetica,sans-Serif" font-size="10.00">position_type.hpp</text>
</a>
</g>
</g>
<!-- Node6&#45;&gt;Node7 -->
<g id="edge6" class="edge">
<title>Node6&#45;&gt;Node7</title>
<path fill="none" stroke="midnightblue" d="M451.19,-56.44C430.71,-47.6 398.52,-33.69 375.14,-23.59"/>
<polygon fill="midnightblue" stroke="midnightblue" points="376.28,-20.27 365.71,-19.52 373.51,-26.7 376.28,-20.27"/>
</g>
<!-- Node8 -->
<g id="node8" class="node">
<title>Node8</title>
<g id="a_node8"><a xlink:title=" ">
<polygon fill="white" stroke="#bfbfbf" points="416,-0.5 416,-19.5 526,-19.5 526,-0.5 416,-0.5"/>
<text text-anchor="middle" x="471" y="-7.5" font-family="Helvetica,sans-Serif" font-size="10.00">nlohmann/json.hpp</text>
</a>
</g>
</g>
<!-- Node6&#45;&gt;Node8 -->
<g id="edge7" class="edge">
<title>Node6&#45;&gt;Node8</title>
<path fill="none" stroke="midnightblue" d="M471,-56.08C471,-49.01 471,-38.86 471,-29.99"/>
<polygon fill="midnightblue" stroke="midnightblue" points="474.5,-29.75 471,-19.75 467.5,-29.75 474.5,-29.75"/>
</g>
<!-- Node9 -->
<g id="node9" class="node">
<title>Node9</title>
<g id="a_node9"><a xlink:title=" ">
<polygon fill="white" stroke="#bfbfbf" points="544,-0.5 544,-19.5 602,-19.5 602,-0.5 544,-0.5"/>
<text text-anchor="middle" x="573" y="-7.5" font-family="Helvetica,sans-Serif" font-size="10.00">memory</text>
</a>
</g>
</g>
<!-- Node6&#45;&gt;Node9 -->
<g id="edge8" class="edge">
<title>Node6&#45;&gt;Node9</title>
<path fill="none" stroke="midnightblue" d="M487.39,-56.32C503.67,-47.7 528.87,-34.36 547.72,-24.39"/>
<polygon fill="midnightblue" stroke="midnightblue" points="549.45,-27.43 556.65,-19.65 546.18,-21.24 549.45,-27.43"/>
</g>
<!-- Node10&#45;&gt;Node7 -->
<g id="edge10" class="edge">
<title>Node10&#45;&gt;Node7</title>
<path fill="none" stroke="midnightblue" d="M532.45,-58.27C496.63,-49.19 432.36,-32.89 389.44,-22.01"/>
<polygon fill="midnightblue" stroke="midnightblue" points="390.11,-18.57 379.55,-19.51 388.39,-25.36 390.11,-18.57"/>
</g>
<!-- Node10&#45;&gt;Node8 -->
<g id="edge14" class="edge">
<title>Node10&#45;&gt;Node8</title>
<path fill="none" stroke="midnightblue" d="M544.86,-56.32C531.13,-47.9 510.06,-34.97 493.94,-25.07"/>
<polygon fill="midnightblue" stroke="midnightblue" points="495.46,-21.9 485.1,-19.65 491.8,-27.87 495.46,-21.9"/>
</g>
<!-- Node10&#45;&gt;Node9 -->
<g id="edge13" class="edge">
<title>Node10&#45;&gt;Node9</title>
<path fill="none" stroke="midnightblue" d="M561.31,-56.08C563.17,-48.93 565.84,-38.64 568.15,-29.69"/>
<polygon fill="midnightblue" stroke="midnightblue" points="571.61,-30.31 570.73,-19.75 564.83,-28.55 571.61,-30.31"/>
</g>
<!-- Node11 -->
<g id="node11" class="node">
<title>Node11</title>
<g id="a_node11"><a xlink:title=" ">
<polygon fill="white" stroke="#bfbfbf" points="620,-0.5 620,-19.5 652,-19.5 652,-0.5 620,-0.5"/>
<text text-anchor="middle" x="636" y="-7.5" font-family="Helvetica,sans-Serif" font-size="10.00">set</text>
</a>
</g>
</g>
<!-- Node10&#45;&gt;Node11 -->
<g id="edge11" class="edge">
<title>Node10&#45;&gt;Node11</title>
<path fill="none" stroke="midnightblue" d="M571.37,-56.32C583.16,-48.06 601.13,-35.45 615.14,-25.63"/>
<polygon fill="midnightblue" stroke="midnightblue" points="617.48,-28.26 623.66,-19.65 613.46,-22.53 617.48,-28.26"/>
</g>
<!-- Node12 -->
<g id="node12" class="node">
<title>Node12</title>
<g id="a_node12"><a xlink:title=" ">
<polygon fill="white" stroke="#bfbfbf" points="670,-0.5 670,-19.5 708,-19.5 708,-0.5 670,-0.5"/>
<text text-anchor="middle" x="689" y="-7.5" font-family="Helvetica,sans-Serif" font-size="10.00">map</text>
</a>
</g>
</g>
<!-- Node10&#45;&gt;Node12 -->
<g id="edge12" class="edge">
<title>Node10&#45;&gt;Node12</title>
<path fill="none" stroke="midnightblue" d="M579.6,-56.44C601.37,-47.4 635.87,-33.07 660.3,-22.92"/>
<polygon fill="midnightblue" stroke="midnightblue" points="661.88,-26.06 669.77,-18.99 659.19,-19.59 661.88,-26.06"/>
</g>
</g>
</svg>
