<?xml version="1.0" encoding="UTF-8" standalone="no"?>
<!DOCTYPE svg PUBLIC "-//W3C//DTD SVG 1.1//EN"
 "http://www.w3.org/Graphics/SVG/1.1/DTD/svg11.dtd">
<!-- Generated by graphviz version 2.42.3 (0)
 -->
<!-- Title: src/gamestate.cpp Pages: 1 -->
<!--zoomable 252 -->
<svg id="main" version="1.1" xmlns="http://www.w3.org/2000/svg" xmlns:xlink="http://www.w3.org/1999/xlink" xml:space="preserve" onload="init(evt)">
<style type="text/css"><![CDATA[
.edge:hover path { stroke: red; }
.edge:hover polygon { stroke: red; fill: red; }
]]></style>
<script type="text/javascript"><![CDATA[
var edges = document.getElementsByTagName('g');
if (edges && edges.length) {
  for (var i=0;i<edges.length;i++) {
    if (edges[i].id.substr(0,4)=='edge') {
      edges[i].setAttribute('class','edge');
    }
  }
}
]]></script>
        <defs>
                <circle id="rim" cx="0" cy="0" r="7"/>
                <circle id="rim2" cx="0" cy="0" r="3.5"/>
                <g id="zoomPlus">
                        <use xlink:href="#rim" fill="#404040">
                                <set attributeName="fill" to="#808080" begin="zoomplus.mouseover" end="zoomplus.mouseout"/>
                        </use>
                        <path d="M-4,0h8M0,-4v8" fill="none" stroke="white" stroke-width="1.5" pointer-events="none"/>
                </g>
                <g id="zoomMin">
                        <use xlink:href="#rim" fill="#404040">
                                <set attributeName="fill" to="#808080" begin="zoomminus.mouseover" end="zoomminus.mouseout"/>
                        </use>
                        <path d="M-4,0h8" fill="none" stroke="white" stroke-width="1.5" pointer-events="none"/>
                </g>
                <g id="dirArrow">
                        <path fill="none" stroke="white" stroke-width="1.5" d="M0,-3.0v7 M-2.5,-0.5L0,-3.0L2.5,-0.5"/>
                </g>
               <g id="resetDef">
                       <use xlink:href="#rim2" fill="#404040">
                               <set attributeName="fill" to="#808080" begin="reset.mouseover" end="reset.mouseout"/>
                       </use>
               </g>
        </defs>

<script type="text/javascript">
var viewWidth = 803;
var viewHeight = 252;
var sectionId = 'dynsection-0';
</script>
<script xlink:href="svgpan.js"/>
<svg id="graph" class="graph">
<g id="viewport">
<title>src/gamestate.cpp</title>
<polygon fill="white" stroke="transparent" points="-4,4 -4,-248 799.39,-248 799.39,4 -4,4"/>
<!-- Node1 -->
<g id="node1" class="node">
<title>Node1</title>
<g id="a_node1"><a xlink:title=" ">
<polygon fill="#bfbfbf" stroke="black" points="408.89,-224.5 408.89,-243.5 515.89,-243.5 515.89,-224.5 408.89,-224.5"/>
<text text-anchor="middle" x="462.39" y="-231.5" font-family="Helvetica,sans-Serif" font-size="10.00">src/gamestate.cpp</text>
</a>
</g>
</g>
<!-- Node2 -->
<g id="node2" class="node">
<title>Node2</title>
<g id="a_node2"><a xlink:href="gamegen_8hpp.html" target="_top" xlink:title=" ">
<polygon fill="white" stroke="black" points="28.89,-168.5 28.89,-187.5 111.89,-187.5 111.89,-168.5 28.89,-168.5"/>
<text text-anchor="middle" x="70.39" y="-175.5" font-family="Helvetica,sans-Serif" font-size="10.00">gamegen.hpp</text>
</a>
</g>
</g>
<!-- Node1&#45;&gt;Node2 -->
<g id="edge1" class="edge">
<title>Node1&#45;&gt;Node2</title>
<path fill="none" stroke="midnightblue" d="M408.7,-225.6C333.2,-215.2 196.58,-196.38 122.14,-186.13"/>
<polygon fill="midnightblue" stroke="midnightblue" points="122.44,-182.64 112.06,-184.74 121.49,-189.57 122.44,-182.64"/>
</g>
<!-- Node6 -->
<g id="node6" class="node">
<title>Node6</title>
<g id="a_node6"><a xlink:href="gamestate_8hpp.html" target="_top" xlink:title=" ">
<polygon fill="white" stroke="black" points="226.39,-168.5 226.39,-187.5 316.39,-187.5 316.39,-168.5 226.39,-168.5"/>
<text text-anchor="middle" x="271.39" y="-175.5" font-family="Helvetica,sans-Serif" font-size="10.00">gamestate.hpp</text>
</a>
</g>
</g>
<!-- Node1&#45;&gt;Node6 -->
<g id="edge5" class="edge">
<title>Node1&#45;&gt;Node6</title>
<path fill="none" stroke="midnightblue" d="M432.12,-224.44C399.43,-215.2 347.2,-200.44 311.2,-190.26"/>
<polygon fill="midnightblue" stroke="midnightblue" points="312.08,-186.87 301.51,-187.52 310.18,-193.61 312.08,-186.87"/>
</g>
<!-- Node16 -->
<g id="node16" class="node">
<title>Node16</title>
<g id="a_node16"><a xlink:title=" ">
<polygon fill="white" stroke="#bfbfbf" points="735.39,-0.5 735.39,-19.5 795.39,-19.5 795.39,-0.5 735.39,-0.5"/>
<text text-anchor="middle" x="765.39" y="-7.5" font-family="Helvetica,sans-Serif" font-size="10.00">iostream</text>
</a>
</g>
</g>
<!-- Node1&#45;&gt;Node16 -->
<g id="edge29" class="edge">
<title>Node1&#45;&gt;Node16</title>
<path fill="none" stroke="midnightblue" d="M474.26,-224.3C520.27,-190.59 687.08,-68.37 745.23,-25.77"/>
<polygon fill="midnightblue" stroke="midnightblue" points="747.59,-28.38 753.59,-19.64 743.46,-22.73 747.59,-28.38"/>
</g>
<!-- Node18 -->
<g id="node18" class="node">
<title>Node18</title>
<g id="a_node18"><a xlink:title=" ">
<polygon fill="white" stroke="#bfbfbf" points="677.39,-168.5 677.39,-187.5 733.39,-187.5 733.39,-168.5 677.39,-168.5"/>
<text text-anchor="middle" x="705.39" y="-175.5" font-family="Helvetica,sans-Serif" font-size="10.00">iomanip</text>
</a>
</g>
</g>
<!-- Node1&#45;&gt;Node18 -->
<g id="edge30" class="edge">
<title>Node1&#45;&gt;Node18</title>
<path fill="none" stroke="midnightblue" d="M500.89,-224.44C546.46,-214.32 621.85,-197.56 667.25,-187.47"/>
<polygon fill="midnightblue" stroke="midnightblue" points="668.29,-190.83 677.29,-185.24 666.77,-184 668.29,-190.83"/>
</g>
<!-- Node3 -->
<g id="node3" class="node">
<title>Node3</title>
<g id="a_node3"><a xlink:title=" ">
<polygon fill="white" stroke="#bfbfbf" points="87.39,-0.5 87.39,-19.5 145.39,-19.5 145.39,-0.5 87.39,-0.5"/>
<text text-anchor="middle" x="116.39" y="-7.5" font-family="Helvetica,sans-Serif" font-size="10.00">memory</text>
</a>
</g>
</g>
<!-- Node2&#45;&gt;Node3 -->
<g id="edge2" class="edge">
<title>Node2&#45;&gt;Node3</title>
<path fill="none" stroke="midnightblue" d="M48.66,-168.49C24.72,-157.67 -9.01,-137.32 2.39,-112 20.42,-71.92 63.09,-41.31 90.81,-24.77"/>
<polygon fill="midnightblue" stroke="midnightblue" points="92.67,-27.74 99.58,-19.7 89.17,-21.67 92.67,-27.74"/>
</g>
<!-- Node4 -->
<g id="node4" class="node">
<title>Node4</title>
<g id="a_node4"><a xlink:title=" ">
<polygon fill="white" stroke="#bfbfbf" points="77.39,-112.5 77.39,-131.5 131.39,-131.5 131.39,-112.5 77.39,-112.5"/>
<text text-anchor="middle" x="104.39" y="-119.5" font-family="Helvetica,sans-Serif" font-size="10.00">random</text>
</a>
</g>
</g>
<!-- Node2&#45;&gt;Node4 -->
<g id="edge3" class="edge">
<title>Node2&#45;&gt;Node4</title>
<path fill="none" stroke="midnightblue" d="M76,-168.08C80.75,-160.53 87.7,-149.49 93.54,-140.23"/>
<polygon fill="midnightblue" stroke="midnightblue" points="96.51,-142.08 98.88,-131.75 90.59,-138.35 96.51,-142.08"/>
</g>
<!-- Node5 -->
<g id="node5" class="node">
<title>Node5</title>
<g id="a_node5"><a xlink:title=" ">
<polygon fill="white" stroke="#bfbfbf" points="11.89,-112.5 11.89,-131.5 58.89,-131.5 58.89,-112.5 11.89,-112.5"/>
<text text-anchor="middle" x="35.39" y="-119.5" font-family="Helvetica,sans-Serif" font-size="10.00">vector</text>
</a>
</g>
</g>
<!-- Node2&#45;&gt;Node5 -->
<g id="edge4" class="edge">
<title>Node2&#45;&gt;Node5</title>
<path fill="none" stroke="midnightblue" d="M64.61,-168.08C59.71,-160.53 52.56,-149.49 46.55,-140.23"/>
<polygon fill="midnightblue" stroke="midnightblue" points="49.43,-138.24 41.06,-131.75 43.56,-142.05 49.43,-138.24"/>
</g>
<!-- Node6&#45;&gt;Node3 -->
<g id="edge8" class="edge">
<title>Node6&#45;&gt;Node3</title>
<path fill="none" stroke="midnightblue" d="M263.05,-168.08C238.02,-141.27 163.25,-61.19 131.22,-26.89"/>
<polygon fill="midnightblue" stroke="midnightblue" points="133.77,-24.49 124.39,-19.57 128.65,-29.27 133.77,-24.49"/>
</g>
<!-- Node6&#45;&gt;Node4 -->
<g id="edge9" class="edge">
<title>Node6&#45;&gt;Node4</title>
<path fill="none" stroke="midnightblue" d="M244.92,-168.44C216.71,-159.32 171.85,-144.81 140.42,-134.65"/>
<polygon fill="midnightblue" stroke="midnightblue" points="141.32,-131.26 130.72,-131.52 139.16,-137.92 141.32,-131.26"/>
</g>
<!-- Node6&#45;&gt;Node5 -->
<g id="edge6" class="edge">
<title>Node6&#45;&gt;Node5</title>
<path fill="none" stroke="midnightblue" d="M230.04,-168.44C191.01,-160.23 130.63,-147.18 69.04,-132.07"/>
<polygon fill="midnightblue" stroke="midnightblue" points="69.69,-128.62 59.14,-129.63 68.01,-135.42 69.69,-128.62"/>
</g>
<!-- Node7 -->
<g id="node7" class="node">
<title>Node7</title>
<g id="a_node7"><a xlink:title=" ">
<polygon fill="white" stroke="#bfbfbf" points="163.39,-0.5 163.39,-19.5 201.39,-19.5 201.39,-0.5 163.39,-0.5"/>
<text text-anchor="middle" x="182.39" y="-7.5" font-family="Helvetica,sans-Serif" font-size="10.00">map</text>
</a>
</g>
</g>
<!-- Node6&#45;&gt;Node7 -->
<g id="edge7" class="edge">
<title>Node6&#45;&gt;Node7</title>
<path fill="none" stroke="midnightblue" d="M266.63,-168.38C257.04,-150.97 234.72,-110.35 216.39,-76 207.88,-60.06 198.36,-41.83 191.57,-28.74"/>
<polygon fill="midnightblue" stroke="midnightblue" points="194.67,-27.12 186.96,-19.86 188.45,-30.34 194.67,-27.12"/>
</g>
<!-- Node8 -->
<g id="node8" class="node">
<title>Node8</title>
<g id="a_node8"><a xlink:href="field_8hpp.html" target="_top" xlink:title=" ">
<polygon fill="white" stroke="black" points="335.89,-56.5 335.89,-75.5 394.89,-75.5 394.89,-56.5 335.89,-56.5"/>
<text text-anchor="middle" x="365.39" y="-63.5" font-family="Helvetica,sans-Serif" font-size="10.00">field.hpp</text>
</a>
</g>
</g>
<!-- Node6&#45;&gt;Node8 -->
<g id="edge10" class="edge">
<title>Node6&#45;&gt;Node8</title>
<path fill="none" stroke="midnightblue" d="M278.76,-168.37C294.41,-150.05 331.16,-107.05 351.4,-83.36"/>
<polygon fill="midnightblue" stroke="midnightblue" points="354.21,-85.47 358.04,-75.59 348.89,-80.92 354.21,-85.47"/>
</g>
<!-- Node9 -->
<g id="node9" class="node">
<title>Node9</title>
<g id="a_node9"><a xlink:href="position__type_8hpp.html" target="_top" xlink:title=" ">
<polygon fill="white" stroke="black" points="269.39,-0.5 269.39,-19.5 373.39,-19.5 373.39,-0.5 269.39,-0.5"/>
<text text-anchor="middle" x="321.39" y="-7.5" font-family="Helvetica,sans-Serif" font-size="10.00">position_type.hpp</text>
</a>
</g>
</g>
<!-- Node6&#45;&gt;Node9 -->
<g id="edge20" class="edge">
<title>Node6&#45;&gt;Node9</title>
<path fill="none" stroke="midnightblue" d="M274.07,-168.08C281.95,-141.95 305.06,-65.21 315.79,-29.58"/>
<polygon fill="midnightblue" stroke="midnightblue" points="319.27,-30.15 318.81,-19.57 312.57,-28.13 319.27,-30.15"/>
</g>
<!-- Node10 -->
<g id="node10" class="node">
<title>Node10</title>
<g id="a_node10"><a xlink:title=" ">
<polygon fill="white" stroke="#bfbfbf" points="391.39,-0.5 391.39,-19.5 501.39,-19.5 501.39,-0.5 391.39,-0.5"/>
<text text-anchor="middle" x="446.39" y="-7.5" font-family="Helvetica,sans-Serif" font-size="10.00">nlohmann/json.hpp</text>
</a>
</g>
</g>
<!-- Node6&#45;&gt;Node10 -->
<g id="edge21" class="edge">
<title>Node6&#45;&gt;Node10</title>
<path fill="none" stroke="midnightblue" d="M316.62,-173.04C368.53,-167.44 448.9,-155.21 467.39,-132 491.31,-101.96 471.18,-54.31 457.14,-28.68"/>
<polygon fill="midnightblue" stroke="midnightblue" points="460.01,-26.66 451.99,-19.74 453.95,-30.15 460.01,-26.66"/>
</g>
<!-- Node11 -->
<g id="node11" class="node">
<title>Node11</title>
<g id="a_node11"><a xlink:href="dot_8hpp.html" target="_top" xlink:title=" ">
<polygon fill="white" stroke="black" points="225.89,-56.5 225.89,-75.5 278.89,-75.5 278.89,-56.5 225.89,-56.5"/>
<text text-anchor="middle" x="252.39" y="-63.5" font-family="Helvetica,sans-Serif" font-size="10.00">dot.hpp</text>
</a>
</g>
</g>
<!-- Node6&#45;&gt;Node11 -->
<g id="edge14" class="edge">
<title>Node6&#45;&gt;Node11</title>
<path fill="none" stroke="midnightblue" d="M269.9,-168.37C266.83,-150.62 259.76,-109.67 255.6,-85.6"/>
<polygon fill="midnightblue" stroke="midnightblue" points="259.02,-84.85 253.87,-75.59 252.12,-86.04 259.02,-84.85"/>
</g>
<!-- Node13 -->
<g id="node13" class="node">
<title>Node13</title>
<g id="a_node13"><a xlink:href="gamechange_8hpp.html" target="_top" xlink:title=" ">
<polygon fill="white" stroke="black" points="356.89,-112.5 356.89,-131.5 457.89,-131.5 457.89,-112.5 356.89,-112.5"/>
<text text-anchor="middle" x="407.39" y="-119.5" font-family="Helvetica,sans-Serif" font-size="10.00">gamechange.hpp</text>
</a>
</g>
</g>
<!-- Node6&#45;&gt;Node13 -->
<g id="edge22" class="edge">
<title>Node6&#45;&gt;Node13</title>
<path fill="none" stroke="midnightblue" d="M292.94,-168.44C315.42,-159.52 350.87,-145.44 376.37,-135.32"/>
<polygon fill="midnightblue" stroke="midnightblue" points="377.94,-138.46 385.94,-131.52 375.35,-131.95 377.94,-138.46"/>
</g>
<!-- Node8&#45;&gt;Node3 -->
<g id="edge13" class="edge">
<title>Node8&#45;&gt;Node3</title>
<path fill="none" stroke="midnightblue" d="M335.64,-58.88C296.58,-50.79 225.63,-35.93 155.33,-20.17"/>
<polygon fill="midnightblue" stroke="midnightblue" points="155.94,-16.72 145.42,-17.95 154.41,-23.55 155.94,-16.72"/>
</g>
<!-- Node8&#45;&gt;Node9 -->
<g id="edge11" class="edge">
<title>Node8&#45;&gt;Node9</title>
<path fill="none" stroke="midnightblue" d="M358.12,-56.08C351.84,-48.38 342.6,-37.03 334.96,-27.65"/>
<polygon fill="midnightblue" stroke="midnightblue" points="337.55,-25.29 328.52,-19.75 332.12,-29.71 337.55,-25.29"/>
</g>
<!-- Node8&#45;&gt;Node10 -->
<g id="edge12" class="edge">
<title>Node8&#45;&gt;Node10</title>
<path fill="none" stroke="midnightblue" d="M378.4,-56.32C390.92,-47.98 410.07,-35.21 424.86,-25.35"/>
<polygon fill="midnightblue" stroke="midnightblue" points="427.03,-28.11 433.4,-19.65 423.14,-22.29 427.03,-28.11"/>
</g>
<!-- Node11&#45;&gt;Node3 -->
<g id="edge18" class="edge">
<title>Node11&#45;&gt;Node3</title>
<path fill="none" stroke="midnightblue" d="M230.84,-56.44C208.36,-47.52 172.9,-33.44 147.41,-23.32"/>
<polygon fill="midnightblue" stroke="midnightblue" points="148.42,-19.95 137.84,-19.52 145.84,-26.46 148.42,-19.95"/>
</g>
<!-- Node11&#45;&gt;Node7 -->
<g id="edge17" class="edge">
<title>Node11&#45;&gt;Node7</title>
<path fill="none" stroke="midnightblue" d="M241.14,-56.32C230.59,-48.18 214.59,-35.84 201.94,-26.09"/>
<polygon fill="midnightblue" stroke="midnightblue" points="203.89,-23.17 193.84,-19.83 199.62,-28.71 203.89,-23.17"/>
</g>
<!-- Node11&#45;&gt;Node9 -->
<g id="edge15" class="edge">
<title>Node11&#45;&gt;Node9</title>
<path fill="none" stroke="midnightblue" d="M263.47,-56.32C273.87,-48.18 289.65,-35.84 302.11,-26.09"/>
<polygon fill="midnightblue" stroke="midnightblue" points="304.38,-28.75 310.1,-19.83 300.07,-23.24 304.38,-28.75"/>
</g>
<!-- Node11&#45;&gt;Node10 -->
<g id="edge19" class="edge">
<title>Node11&#45;&gt;Node10</title>
<path fill="none" stroke="midnightblue" d="M278.95,-57.6C311.72,-48.48 367.76,-32.89 405.9,-22.27"/>
<polygon fill="midnightblue" stroke="midnightblue" points="406.97,-25.6 415.67,-19.55 405.09,-18.86 406.97,-25.6"/>
</g>
<!-- Node12 -->
<g id="node12" class="node">
<title>Node12</title>
<g id="a_node12"><a xlink:title=" ">
<polygon fill="white" stroke="#bfbfbf" points="219.39,-0.5 219.39,-19.5 251.39,-19.5 251.39,-0.5 219.39,-0.5"/>
<text text-anchor="middle" x="235.39" y="-7.5" font-family="Helvetica,sans-Serif" font-size="10.00">set</text>
</a>
</g>
</g>
<!-- Node11&#45;&gt;Node12 -->
<g id="edge16" class="edge">
<title>Node11&#45;&gt;Node12</title>
<path fill="none" stroke="midnightblue" d="M249.58,-56.08C247.3,-48.85 244.02,-38.41 241.18,-29.4"/>
<polygon fill="midnightblue" stroke="midnightblue" points="244.48,-28.24 238.14,-19.75 237.81,-30.34 244.48,-28.24"/>
</g>
<!-- Node13&#45;&gt;Node8 -->
<g id="edge27" class="edge">
<title>Node13&#45;&gt;Node8</title>
<path fill="none" stroke="midnightblue" d="M400.45,-112.08C394.46,-104.38 385.63,-93.03 378.34,-83.65"/>
<polygon fill="midnightblue" stroke="midnightblue" points="381.1,-81.5 372.19,-75.75 375.57,-85.79 381.1,-81.5"/>
</g>
<!-- Node13&#45;&gt;Node11 -->
<g id="edge28" class="edge">
<title>Node13&#45;&gt;Node11</title>
<path fill="none" stroke="midnightblue" d="M382.83,-112.44C356.86,-103.4 315.72,-89.06 286.59,-78.92"/>
<polygon fill="midnightblue" stroke="midnightblue" points="287.43,-75.5 276.83,-75.52 285.12,-82.11 287.43,-75.5"/>
</g>
<!-- Node14 -->
<g id="node14" class="node">
<title>Node14</title>
<g id="a_node14"><a xlink:href="player_8hpp.html" target="_top" xlink:title=" ">
<polygon fill="white" stroke="black" points="553.39,-56.5 553.39,-75.5 621.39,-75.5 621.39,-56.5 553.39,-56.5"/>
<text text-anchor="middle" x="587.39" y="-63.5" font-family="Helvetica,sans-Serif" font-size="10.00">player.hpp</text>
</a>
</g>
</g>
<!-- Node13&#45;&gt;Node14 -->
<g id="edge23" class="edge">
<title>Node13&#45;&gt;Node14</title>
<path fill="none" stroke="midnightblue" d="M435.91,-112.44C466.45,-103.28 515.09,-88.69 548.99,-78.52"/>
<polygon fill="midnightblue" stroke="midnightblue" points="550.43,-81.74 559,-75.52 548.41,-75.04 550.43,-81.74"/>
</g>
<!-- Node15 -->
<g id="node15" class="node">
<title>Node15</title>
<g id="a_node15"><a xlink:title=" ">
<polygon fill="white" stroke="#bfbfbf" points="673.39,-0.5 673.39,-19.5 717.39,-19.5 717.39,-0.5 673.39,-0.5"/>
<text text-anchor="middle" x="695.39" y="-7.5" font-family="Helvetica,sans-Serif" font-size="10.00">string</text>
</a>
</g>
</g>
<!-- Node14&#45;&gt;Node15 -->
<g id="edge24" class="edge">
<title>Node14&#45;&gt;Node15</title>
<path fill="none" stroke="midnightblue" d="M604.74,-56.32C622.06,-47.66 648.9,-34.24 668.89,-24.25"/>
<polygon fill="midnightblue" stroke="midnightblue" points="670.7,-27.26 678.08,-19.65 667.57,-21 670.7,-27.26"/>
</g>
<!-- Node14&#45;&gt;Node16 -->
<g id="edge25" class="edge">
<title>Node14&#45;&gt;Node16</title>
<path fill="none" stroke="midnightblue" d="M615.59,-56.44C645.8,-47.28 693.9,-32.69 727.42,-22.52"/>
<polygon fill="midnightblue" stroke="midnightblue" points="728.76,-25.77 737.31,-19.52 726.73,-19.07 728.76,-25.77"/>
</g>
<!-- Node17 -->
<g id="node17" class="node">
<title>Node17</title>
<g id="a_node17"><a xlink:title=" ">
<polygon fill="white" stroke="#bfbfbf" points="519.89,-0.5 519.89,-19.5 654.89,-19.5 654.89,-0.5 519.89,-0.5"/>
<text text-anchor="middle" x="587.39" y="-7.5" font-family="Helvetica,sans-Serif" font-size="10.00">websocketpp/server.hpp</text>
</a>
</g>
</g>
<!-- Node14&#45;&gt;Node17 -->
<g id="edge26" class="edge">
<title>Node14&#45;&gt;Node17</title>
<path fill="none" stroke="midnightblue" d="M587.39,-56.08C587.39,-49.01 587.39,-38.86 587.39,-29.99"/>
<polygon fill="midnightblue" stroke="midnightblue" points="590.89,-29.75 587.39,-19.75 583.89,-29.75 590.89,-29.75"/>
</g>
</g>
</svg>
        <g id="navigator" transform="translate(0 0)" fill="#404254">
                <rect fill="#f2f5e9" fill-opacity="0.5" stroke="#606060" stroke-width=".5" x="0" y="0" width="60" height="60"/>
                <use id="zoomplus" xlink:href="#zoomPlus" x="17" y="9" onmousedown="handleZoom(evt,'in')"/>
                <use id="zoomminus" xlink:href="#zoomMin" x="42" y="9" onmousedown="handleZoom(evt,'out')"/>
                <use id="reset" xlink:href="#resetDef" x="30" y="36" onmousedown="handleReset()"/>
                <g id="arrowUp" xlink:href="#dirArrow" transform="translate(30 24)" onmousedown="handlePan(0,-1)">
                  <use xlink:href="#rim" fill="#404040">
                        <set attributeName="fill" to="#808080" begin="arrowUp.mouseover" end="arrowUp.mouseout"/>
                  </use>
                  <path fill="none" stroke="white" stroke-width="1.5" d="M0,-3.0v7 M-2.5,-0.5L0,-3.0L2.5,-0.5"/>
                </g>
                <g id="arrowRight" xlink:href="#dirArrow" transform="rotate(90) translate(36 -43)" onmousedown="handlePan(1,0)">
                  <use xlink:href="#rim" fill="#404040">
                        <set attributeName="fill" to="#808080" begin="arrowRight.mouseover" end="arrowRight.mouseout"/>
                  </use>
                  <path fill="none" stroke="white" stroke-width="1.5" d="M0,-3.0v7 M-2.5,-0.5L0,-3.0L2.5,-0.5"/>
                </g>
                <g id="arrowDown" xlink:href="#dirArrow" transform="rotate(180) translate(-30 -48)" onmousedown="handlePan(0,1)">
                  <use xlink:href="#rim" fill="#404040">
                        <set attributeName="fill" to="#808080" begin="arrowDown.mouseover" end="arrowDown.mouseout"/>
                  </use>
                  <path fill="none" stroke="white" stroke-width="1.5" d="M0,-3.0v7 M-2.5,-0.5L0,-3.0L2.5,-0.5"/>
                </g>
                <g id="arrowLeft" xlink:href="#dirArrow" transform="rotate(270) translate(-36 17)" onmousedown="handlePan(-1,0)">
                  <use xlink:href="#rim" fill="#404040">
                        <set attributeName="fill" to="#808080" begin="arrowLeft.mouseover" end="arrowLeft.mouseout"/>
                  </use>
                  <path fill="none" stroke="white" stroke-width="1.5" d="M0,-3.0v7 M-2.5,-0.5L0,-3.0L2.5,-0.5"/>
                </g>
        </g>
        <svg viewBox="0 0 15 15" width="100%" height="30px" preserveAspectRatio="xMaxYMin meet">
         <g id="arrow_out" transform="scale(0.3 0.3)">
          <a xlink:href="gamestate_8cpp__incl_org.svg" target="_base">
           <rect id="button" ry="5" rx="5" y="6" x="6" height="38" width="38"
                fill="#f2f5e9" fill-opacity="0.5" stroke="#606060" stroke-width="1.0"/>
           <path id="arrow"
             d="M 11.500037,31.436501 C 11.940474,20.09759 22.043105,11.32322 32.158766,21.979434 L 37.068811,17.246167 C 37.068811,17.246167 37.088388,32 37.088388,32 L 22.160133,31.978069 C 22.160133,31.978069 26.997745,27.140456 26.997745,27.140456 C 18.528582,18.264221 13.291696,25.230495 11.500037,31.436501 z"
             style="fill:#404040;"/>
          </a>
         </g>
        </svg>
</svg>
