<?xml version="1.0" encoding="UTF-8" standalone="no"?>
<!DOCTYPE svg PUBLIC "-//W3C//DTD SVG 1.1//EN"
 "http://www.w3.org/Graphics/SVG/1.1/DTD/svg11.dtd">
<!-- Generated by graphviz version 2.42.3 (0)
 -->
<!-- Title: src/main.cpp Pages: 1 -->
<svg width="879pt" height="319pt"
 viewBox="0.00 0.00 879.00 319.00" xmlns="http://www.w3.org/2000/svg" xmlns:xlink="http://www.w3.org/1999/xlink">
<g id="graph0" class="graph" transform="scale(1 1) rotate(0) translate(4 315)">
<title>src/main.cpp</title>
<polygon fill="white" stroke="transparent" points="-4,4 -4,-315 875,-315 875,4 -4,4"/>
<!-- Node1 -->
<g id="node1" class="node">
<title>Node1</title>
<g id="a_node1"><a xlink:title=" ">
<polygon fill="#bfbfbf" stroke="black" points="455.5,-291.5 455.5,-310.5 534.5,-310.5 534.5,-291.5 455.5,-291.5"/>
<text text-anchor="middle" x="495" y="-298.5" font-family="Helvetica,sans-Serif" font-size="10.00">src/main.cpp</text>
</a>
</g>
</g>
<!-- Node2 -->
<g id="node2" class="node">
<title>Node2</title>
<g id="a_node2"><a xlink:title=" ">
<polygon fill="white" stroke="#bfbfbf" points="42,-0.5 42,-19.5 102,-19.5 102,-0.5 42,-0.5"/>
<text text-anchor="middle" x="72" y="-7.5" font-family="Helvetica,sans-Serif" font-size="10.00">iostream</text>
</a>
</g>
</g>
<!-- Node1&#45;&gt;Node2 -->
<g id="edge1" class="edge">
<title>Node1&#45;&gt;Node2</title>
<path fill="none" stroke="midnightblue" d="M455.33,-299.62C337.87,-297.45 0,-283.1 0,-190 0,-190 0,-190 0,-132 0,-97.18 0.63,-85.57 19,-56 26.56,-43.82 38.52,-33.26 49.16,-25.44"/>
<polygon fill="midnightblue" stroke="midnightblue" points="51.44,-28.11 57.66,-19.53 47.45,-22.36 51.44,-28.11"/>
</g>
<!-- Node3 -->
<g id="node3" class="node">
<title>Node3</title>
<g id="a_node3"><a xlink:href="gamestate_8hpp.html" target="_top" xlink:title=" ">
<polygon fill="white" stroke="black" points="580,-179.5 580,-198.5 670,-198.5 670,-179.5 580,-179.5"/>
<text text-anchor="middle" x="625" y="-186.5" font-family="Helvetica,sans-Serif" font-size="10.00">gamestate.hpp</text>
</a>
</g>
</g>
<!-- Node1&#45;&gt;Node3 -->
<g id="edge2" class="edge">
<title>Node1&#45;&gt;Node3</title>
<path fill="none" stroke="midnightblue" d="M483.65,-291.34C468.12,-278.42 443.71,-253.66 458,-235 471.69,-217.13 526.66,-204.75 569.84,-197.57"/>
<polygon fill="midnightblue" stroke="midnightblue" points="570.65,-200.98 579.97,-195.94 569.54,-194.07 570.65,-200.98"/>
</g>
<!-- Node17 -->
<g id="node17" class="node">
<title>Node17</title>
<g id="a_node17"><a xlink:href="galaxy_8hpp.html" target="_top" xlink:title=" ">
<polygon fill="white" stroke="black" points="341.5,-235.5 341.5,-254.5 410.5,-254.5 410.5,-235.5 341.5,-235.5"/>
<text text-anchor="middle" x="376" y="-242.5" font-family="Helvetica,sans-Serif" font-size="10.00">galaxy.hpp</text>
</a>
</g>
</g>
<!-- Node1&#45;&gt;Node17 -->
<g id="edge26" class="edge">
<title>Node1&#45;&gt;Node17</title>
<path fill="none" stroke="midnightblue" d="M476.14,-291.44C456.73,-282.64 426.27,-268.81 404.04,-258.72"/>
<polygon fill="midnightblue" stroke="midnightblue" points="405.32,-255.46 394.77,-254.52 402.43,-261.84 405.32,-255.46"/>
</g>
<!-- Node22 -->
<g id="node22" class="node">
<title>Node22</title>
<g id="a_node22"><a xlink:title=" ">
<polygon fill="white" stroke="#bfbfbf" points="467.5,-235.5 467.5,-254.5 522.5,-254.5 522.5,-235.5 467.5,-235.5"/>
<text text-anchor="middle" x="495" y="-242.5" font-family="Helvetica,sans-Serif" font-size="10.00">signal.h</text>
</a>
</g>
</g>
<!-- Node1&#45;&gt;Node22 -->
<g id="edge38" class="edge">
<title>Node1&#45;&gt;Node22</title>
<path fill="none" stroke="midnightblue" d="M495,-291.08C495,-284.01 495,-273.86 495,-264.99"/>
<polygon fill="midnightblue" stroke="midnightblue" points="498.5,-264.75 495,-254.75 491.5,-264.75 498.5,-264.75"/>
</g>
<!-- Node23 -->
<g id="node23" class="node">
<title>Node23</title>
<g id="a_node23"><a xlink:title=" ">
<polygon fill="white" stroke="#bfbfbf" points="540.5,-235.5 540.5,-254.5 593.5,-254.5 593.5,-235.5 540.5,-235.5"/>
<text text-anchor="middle" x="567" y="-242.5" font-family="Helvetica,sans-Serif" font-size="10.00">stdlib.h</text>
</a>
</g>
</g>
<!-- Node1&#45;&gt;Node23 -->
<g id="edge39" class="edge">
<title>Node1&#45;&gt;Node23</title>
<path fill="none" stroke="midnightblue" d="M506.57,-291.32C517.42,-283.18 533.88,-270.84 546.88,-261.09"/>
<polygon fill="midnightblue" stroke="midnightblue" points="549.32,-263.63 555.22,-254.83 545.12,-258.03 549.32,-263.63"/>
</g>
<!-- Node24 -->
<g id="node24" class="node">
<title>Node24</title>
<g id="a_node24"><a xlink:title=" ">
<polygon fill="white" stroke="#bfbfbf" points="612,-235.5 612,-254.5 662,-254.5 662,-235.5 612,-235.5"/>
<text text-anchor="middle" x="637" y="-242.5" font-family="Helvetica,sans-Serif" font-size="10.00">stdio.h</text>
</a>
</g>
</g>
<!-- Node1&#45;&gt;Node24 -->
<g id="edge40" class="edge">
<title>Node1&#45;&gt;Node24</title>
<path fill="none" stroke="midnightblue" d="M517.5,-291.44C541.08,-282.48 578.32,-268.31 604.96,-258.18"/>
<polygon fill="midnightblue" stroke="midnightblue" points="606.5,-261.34 614.6,-254.52 604.01,-254.8 606.5,-261.34"/>
</g>
<!-- Node25 -->
<g id="node25" class="node">
<title>Node25</title>
<g id="a_node25"><a xlink:title=" ">
<polygon fill="white" stroke="#bfbfbf" points="680,-235.5 680,-254.5 736,-254.5 736,-235.5 680,-235.5"/>
<text text-anchor="middle" x="708" y="-242.5" font-family="Helvetica,sans-Serif" font-size="10.00">unistd.h</text>
</a>
</g>
</g>
<!-- Node1&#45;&gt;Node25 -->
<g id="edge41" class="edge">
<title>Node1&#45;&gt;Node25</title>
<path fill="none" stroke="midnightblue" d="M528.75,-291.44C567.17,-281.7 629.78,-265.83 669.91,-255.66"/>
<polygon fill="midnightblue" stroke="midnightblue" points="671.02,-258.99 679.85,-253.14 669.3,-252.2 671.02,-258.99"/>
</g>
<!-- Node4 -->
<g id="node4" class="node">
<title>Node4</title>
<g id="a_node4"><a xlink:title=" ">
<polygon fill="white" stroke="#bfbfbf" points="691.5,-123.5 691.5,-142.5 738.5,-142.5 738.5,-123.5 691.5,-123.5"/>
<text text-anchor="middle" x="715" y="-130.5" font-family="Helvetica,sans-Serif" font-size="10.00">vector</text>
</a>
</g>
</g>
<!-- Node3&#45;&gt;Node4 -->
<g id="edge3" class="edge">
<title>Node3&#45;&gt;Node4</title>
<path fill="none" stroke="midnightblue" d="M639.46,-179.32C653.5,-170.9 675.05,-157.97 691.54,-148.07"/>
<polygon fill="midnightblue" stroke="midnightblue" points="693.8,-150.8 700.58,-142.65 690.2,-144.8 693.8,-150.8"/>
</g>
<!-- Node5 -->
<g id="node5" class="node">
<title>Node5</title>
<g id="a_node5"><a xlink:title=" ">
<polygon fill="white" stroke="#bfbfbf" points="833,-0.5 833,-19.5 871,-19.5 871,-0.5 833,-0.5"/>
<text text-anchor="middle" x="852" y="-7.5" font-family="Helvetica,sans-Serif" font-size="10.00">map</text>
</a>
</g>
</g>
<!-- Node3&#45;&gt;Node5 -->
<g id="edge4" class="edge">
<title>Node3&#45;&gt;Node5</title>
<path fill="none" stroke="midnightblue" d="M670.29,-184.51C704.25,-179.81 750.17,-168.8 782,-143 819,-113.01 838.94,-58.13 847.25,-29.49"/>
<polygon fill="midnightblue" stroke="midnightblue" points="850.7,-30.17 849.96,-19.6 843.94,-28.32 850.7,-30.17"/>
</g>
<!-- Node6 -->
<g id="node6" class="node">
<title>Node6</title>
<g id="a_node6"><a xlink:title=" ">
<polygon fill="white" stroke="#bfbfbf" points="585,-0.5 585,-19.5 643,-19.5 643,-0.5 585,-0.5"/>
<text text-anchor="middle" x="614" y="-7.5" font-family="Helvetica,sans-Serif" font-size="10.00">memory</text>
</a>
</g>
</g>
<!-- Node3&#45;&gt;Node6 -->
<g id="edge5" class="edge">
<title>Node3&#45;&gt;Node6</title>
<path fill="none" stroke="midnightblue" d="M628.58,-179.48C636.98,-158.21 656.32,-101.26 643,-56 639.99,-45.76 633.85,-35.66 627.99,-27.63"/>
<polygon fill="midnightblue" stroke="midnightblue" points="630.59,-25.27 621.67,-19.54 625.07,-29.58 630.59,-25.27"/>
</g>
<!-- Node7 -->
<g id="node7" class="node">
<title>Node7</title>
<g id="a_node7"><a xlink:title=" ">
<polygon fill="white" stroke="#bfbfbf" points="543,-123.5 543,-142.5 597,-142.5 597,-123.5 543,-123.5"/>
<text text-anchor="middle" x="570" y="-130.5" font-family="Helvetica,sans-Serif" font-size="10.00">random</text>
</a>
</g>
</g>
<!-- Node3&#45;&gt;Node7 -->
<g id="edge6" class="edge">
<title>Node3&#45;&gt;Node7</title>
<path fill="none" stroke="midnightblue" d="M615.92,-179.08C607.83,-171.14 595.8,-159.34 586.09,-149.8"/>
<polygon fill="midnightblue" stroke="midnightblue" points="588.5,-147.26 578.91,-142.75 583.6,-152.25 588.5,-147.26"/>
</g>
<!-- Node8 -->
<g id="node8" class="node">
<title>Node8</title>
<g id="a_node8"><a xlink:href="field_8hpp.html" target="_top" xlink:title=" ">
<polygon fill="white" stroke="black" points="575.5,-62 575.5,-81 634.5,-81 634.5,-62 575.5,-62"/>
<text text-anchor="middle" x="605" y="-69" font-family="Helvetica,sans-Serif" font-size="10.00">field.hpp</text>
</a>
</g>
</g>
<!-- Node3&#45;&gt;Node8 -->
<g id="edge7" class="edge">
<title>Node3&#45;&gt;Node8</title>
<path fill="none" stroke="midnightblue" d="M623.5,-179.32C620.28,-160.76 612.68,-116.84 608.29,-91.47"/>
<polygon fill="midnightblue" stroke="midnightblue" points="611.68,-90.54 606.52,-81.28 604.78,-91.73 611.68,-90.54"/>
</g>
<!-- Node9 -->
<g id="node9" class="node">
<title>Node9</title>
<g id="a_node9"><a xlink:href="position__type_8hpp.html" target="_top" xlink:title=" ">
<polygon fill="white" stroke="black" points="661,-0.5 661,-19.5 765,-19.5 765,-0.5 661,-0.5"/>
<text text-anchor="middle" x="713" y="-7.5" font-family="Helvetica,sans-Serif" font-size="10.00">position_type.hpp</text>
</a>
</g>
</g>
<!-- Node3&#45;&gt;Node9 -->
<g id="edge17" class="edge">
<title>Node3&#45;&gt;Node9</title>
<path fill="none" stroke="midnightblue" d="M670.2,-186.54C702.08,-182.86 742.74,-172.23 764,-143 774.91,-128 773.94,-99.94 753,-56 747.81,-45.1 739.16,-34.88 731.23,-26.94"/>
<polygon fill="midnightblue" stroke="midnightblue" points="733.36,-24.14 723.69,-19.82 728.56,-29.23 733.36,-24.14"/>
</g>
<!-- Node10 -->
<g id="node10" class="node">
<title>Node10</title>
<g id="a_node10"><a xlink:title=" ">
<polygon fill="white" stroke="#bfbfbf" points="457,-0.5 457,-19.5 567,-19.5 567,-0.5 457,-0.5"/>
<text text-anchor="middle" x="512" y="-7.5" font-family="Helvetica,sans-Serif" font-size="10.00">nlohmann/json.hpp</text>
</a>
</g>
</g>
<!-- Node3&#45;&gt;Node10 -->
<g id="edge18" class="edge">
<title>Node3&#45;&gt;Node10</title>
<path fill="none" stroke="midnightblue" d="M590.49,-179.4C570.91,-172.72 547.65,-161.4 534,-143 509.05,-109.37 508.33,-57.66 510.08,-30"/>
<polygon fill="midnightblue" stroke="midnightblue" points="513.6,-29.99 510.93,-19.74 506.62,-29.42 513.6,-29.99"/>
</g>
<!-- Node11 -->
<g id="node11" class="node">
<title>Node11</title>
<g id="a_node11"><a xlink:href="dot_8hpp.html" target="_top" xlink:title=" ">
<polygon fill="white" stroke="black" points="691.5,-62 691.5,-81 744.5,-81 744.5,-62 691.5,-62"/>
<text text-anchor="middle" x="718" y="-69" font-family="Helvetica,sans-Serif" font-size="10.00">dot.hpp</text>
</a>
</g>
</g>
<!-- Node3&#45;&gt;Node11 -->
<g id="edge11" class="edge">
<title>Node3&#45;&gt;Node11</title>
<path fill="none" stroke="midnightblue" d="M670.23,-183.93C697.33,-178.9 729.77,-167.72 747,-143 758.64,-126.3 745.82,-104.22 733.74,-89.25"/>
<polygon fill="midnightblue" stroke="midnightblue" points="736.09,-86.62 726.9,-81.35 730.8,-91.2 736.09,-86.62"/>
</g>
<!-- Node13 -->
<g id="node13" class="node">
<title>Node13</title>
<g id="a_node13"><a xlink:href="gamechange_8hpp.html" target="_top" xlink:title=" ">
<polygon fill="white" stroke="black" points="385.5,-123.5 385.5,-142.5 486.5,-142.5 486.5,-123.5 385.5,-123.5"/>
<text text-anchor="middle" x="436" y="-130.5" font-family="Helvetica,sans-Serif" font-size="10.00">gamechange.hpp</text>
</a>
</g>
</g>
<!-- Node3&#45;&gt;Node13 -->
<g id="edge19" class="edge">
<title>Node3&#45;&gt;Node13</title>
<path fill="none" stroke="midnightblue" d="M595.05,-179.44C562.84,-170.24 511.47,-155.56 475.86,-145.39"/>
<polygon fill="midnightblue" stroke="midnightblue" points="476.38,-141.9 465.81,-142.52 474.46,-148.63 476.38,-141.9"/>
</g>
<!-- Node8&#45;&gt;Node6 -->
<g id="edge10" class="edge">
<title>Node8&#45;&gt;Node6</title>
<path fill="none" stroke="midnightblue" d="M606.29,-61.98C607.56,-53.58 609.54,-40.48 611.18,-29.66"/>
<polygon fill="midnightblue" stroke="midnightblue" points="614.68,-29.92 612.71,-19.51 607.76,-28.87 614.68,-29.92"/>
</g>
<!-- Node8&#45;&gt;Node9 -->
<g id="edge8" class="edge">
<title>Node8&#45;&gt;Node9</title>
<path fill="none" stroke="midnightblue" d="M620.47,-61.98C638.28,-52.17 667.74,-35.93 688.63,-24.42"/>
<polygon fill="midnightblue" stroke="midnightblue" points="690.49,-27.4 697.55,-19.51 687.11,-21.27 690.49,-27.4"/>
</g>
<!-- Node8&#45;&gt;Node10 -->
<g id="edge9" class="edge">
<title>Node8&#45;&gt;Node10</title>
<path fill="none" stroke="midnightblue" d="M591.68,-61.98C576.62,-52.34 551.88,-36.52 533.96,-25.05"/>
<polygon fill="midnightblue" stroke="midnightblue" points="535.61,-21.95 525.3,-19.51 531.84,-27.85 535.61,-21.95"/>
</g>
<!-- Node11&#45;&gt;Node5 -->
<g id="edge14" class="edge">
<title>Node11&#45;&gt;Node5</title>
<path fill="none" stroke="midnightblue" d="M737.2,-61.98C759.79,-51.95 797.5,-35.2 823.5,-23.65"/>
<polygon fill="midnightblue" stroke="midnightblue" points="825.12,-26.77 832.84,-19.51 822.28,-20.37 825.12,-26.77"/>
</g>
<!-- Node11&#45;&gt;Node6 -->
<g id="edge15" class="edge">
<title>Node11&#45;&gt;Node6</title>
<path fill="none" stroke="midnightblue" d="M703.1,-61.98C686.03,-52.21 657.84,-36.08 637.74,-24.58"/>
<polygon fill="midnightblue" stroke="midnightblue" points="639.29,-21.44 628.87,-19.51 635.81,-27.51 639.29,-21.44"/>
</g>
<!-- Node11&#45;&gt;Node9 -->
<g id="edge12" class="edge">
<title>Node11&#45;&gt;Node9</title>
<path fill="none" stroke="midnightblue" d="M717.28,-61.98C716.58,-53.58 715.48,-40.48 714.57,-29.66"/>
<polygon fill="midnightblue" stroke="midnightblue" points="718.04,-29.18 713.72,-19.51 711.06,-29.77 718.04,-29.18"/>
</g>
<!-- Node11&#45;&gt;Node10 -->
<g id="edge16" class="edge">
<title>Node11&#45;&gt;Node10</title>
<path fill="none" stroke="midnightblue" d="M691.49,-62.84C655.95,-52.58 592.58,-34.28 551.44,-22.39"/>
<polygon fill="midnightblue" stroke="midnightblue" points="552.32,-19 541.74,-19.59 550.38,-25.73 552.32,-19"/>
</g>
<!-- Node12 -->
<g id="node12" class="node">
<title>Node12</title>
<g id="a_node12"><a xlink:title=" ">
<polygon fill="white" stroke="#bfbfbf" points="783,-0.5 783,-19.5 815,-19.5 815,-0.5 783,-0.5"/>
<text text-anchor="middle" x="799" y="-7.5" font-family="Helvetica,sans-Serif" font-size="10.00">set</text>
</a>
</g>
</g>
<!-- Node11&#45;&gt;Node12 -->
<g id="edge13" class="edge">
<title>Node11&#45;&gt;Node12</title>
<path fill="none" stroke="midnightblue" d="M729.61,-61.98C742.48,-52.52 763.47,-37.1 779.01,-25.69"/>
<polygon fill="midnightblue" stroke="midnightblue" points="781.43,-28.25 787.42,-19.51 777.28,-22.61 781.43,-28.25"/>
</g>
<!-- Node13&#45;&gt;Node8 -->
<g id="edge24" class="edge">
<title>Node13&#45;&gt;Node8</title>
<path fill="none" stroke="midnightblue" d="M460.21,-123.48C489.33,-113.22 538.37,-95.96 571.2,-84.4"/>
<polygon fill="midnightblue" stroke="midnightblue" points="572.56,-87.63 580.83,-81.01 570.24,-81.03 572.56,-87.63"/>
</g>
<!-- Node13&#45;&gt;Node11 -->
<g id="edge25" class="edge">
<title>Node13&#45;&gt;Node11</title>
<path fill="none" stroke="midnightblue" d="M476.4,-123.48C531.23,-111.91 628.4,-91.41 681.26,-80.25"/>
<polygon fill="midnightblue" stroke="midnightblue" points="682.15,-83.64 691.22,-78.15 680.71,-76.79 682.15,-83.64"/>
</g>
<!-- Node14 -->
<g id="node14" class="node">
<title>Node14</title>
<g id="a_node14"><a xlink:href="player_8hpp.html" target="_top" xlink:title=" ">
<polygon fill="white" stroke="black" points="225,-62 225,-81 293,-81 293,-62 225,-62"/>
<text text-anchor="middle" x="259" y="-69" font-family="Helvetica,sans-Serif" font-size="10.00">player.hpp</text>
</a>
</g>
</g>
<!-- Node13&#45;&gt;Node14 -->
<g id="edge20" class="edge">
<title>Node13&#45;&gt;Node14</title>
<path fill="none" stroke="midnightblue" d="M410.64,-123.48C380.02,-113.18 328.34,-95.81 293.95,-84.25"/>
<polygon fill="midnightblue" stroke="midnightblue" points="294.91,-80.88 284.31,-81.01 292.68,-87.51 294.91,-80.88"/>
</g>
<!-- Node14&#45;&gt;Node2 -->
<g id="edge22" class="edge">
<title>Node14&#45;&gt;Node2</title>
<path fill="none" stroke="midnightblue" d="M232.96,-61.85C227.06,-59.91 220.82,-57.87 215,-56 179.1,-44.44 138.02,-31.55 109.13,-22.53"/>
<polygon fill="midnightblue" stroke="midnightblue" points="110.04,-19.15 99.45,-19.52 107.95,-25.83 110.04,-19.15"/>
</g>
<!-- Node15 -->
<g id="node15" class="node">
<title>Node15</title>
<g id="a_node15"><a xlink:title=" ">
<polygon fill="white" stroke="#bfbfbf" points="191,-0.5 191,-19.5 235,-19.5 235,-0.5 191,-0.5"/>
<text text-anchor="middle" x="213" y="-7.5" font-family="Helvetica,sans-Serif" font-size="10.00">string</text>
</a>
</g>
</g>
<!-- Node14&#45;&gt;Node15 -->
<g id="edge21" class="edge">
<title>Node14&#45;&gt;Node15</title>
<path fill="none" stroke="midnightblue" d="M252.41,-61.98C245.51,-53.05 234.5,-38.81 225.87,-27.64"/>
<polygon fill="midnightblue" stroke="midnightblue" points="228.46,-25.28 219.58,-19.51 222.93,-29.56 228.46,-25.28"/>
</g>
<!-- Node16 -->
<g id="node16" class="node">
<title>Node16</title>
<g id="a_node16"><a xlink:title=" ">
<polygon fill="white" stroke="#bfbfbf" points="253.5,-0.5 253.5,-19.5 388.5,-19.5 388.5,-0.5 253.5,-0.5"/>
<text text-anchor="middle" x="321" y="-7.5" font-family="Helvetica,sans-Serif" font-size="10.00">websocketpp/server.hpp</text>
</a>
</g>
</g>
<!-- Node14&#45;&gt;Node16 -->
<g id="edge23" class="edge">
<title>Node14&#45;&gt;Node16</title>
<path fill="none" stroke="midnightblue" d="M267.88,-61.98C277.46,-52.78 292.91,-37.96 304.69,-26.66"/>
<polygon fill="midnightblue" stroke="midnightblue" points="307.34,-28.96 312.13,-19.51 302.49,-23.91 307.34,-28.96"/>
</g>
<!-- Node17&#45;&gt;Node3 -->
<g id="edge31" class="edge">
<title>Node17&#45;&gt;Node3</title>
<path fill="none" stroke="midnightblue" d="M410.62,-236.49C453.54,-227.18 526.96,-211.26 575.74,-200.68"/>
<polygon fill="midnightblue" stroke="midnightblue" points="576.72,-204.05 585.75,-198.51 575.24,-197.21 576.72,-204.05"/>
</g>
<!-- Node17&#45;&gt;Node10 -->
<g id="edge28" class="edge">
<title>Node17&#45;&gt;Node10</title>
<path fill="none" stroke="midnightblue" d="M373.58,-235.24C368.36,-214.53 357.89,-161.38 376,-123 398.34,-75.67 451.57,-41.57 484.42,-24.17"/>
<polygon fill="midnightblue" stroke="midnightblue" points="486.21,-27.18 493.51,-19.5 483.01,-20.96 486.21,-27.18"/>
</g>
<!-- Node17&#45;&gt;Node13 -->
<g id="edge30" class="edge">
<title>Node17&#45;&gt;Node13</title>
<path fill="none" stroke="midnightblue" d="M380.71,-235.37C390.52,-217.38 413.34,-175.55 426.39,-151.63"/>
<polygon fill="midnightblue" stroke="midnightblue" points="429.6,-153.05 431.31,-142.59 423.45,-149.69 429.6,-153.05"/>
</g>
<!-- Node17&#45;&gt;Node14 -->
<g id="edge29" class="edge">
<title>Node17&#45;&gt;Node14</title>
<path fill="none" stroke="midnightblue" d="M354.81,-235.46C323.4,-221.48 265.65,-190.45 242,-143 233.6,-126.15 240.81,-104.94 248.26,-90.21"/>
<polygon fill="midnightblue" stroke="midnightblue" points="251.48,-91.62 253.27,-81.17 245.36,-88.22 251.48,-91.62"/>
</g>
<!-- Node18 -->
<g id="node18" class="node">
<title>Node18</title>
<g id="a_node18"><a xlink:title=" ">
<polygon fill="white" stroke="#bfbfbf" points="423,-179.5 423,-198.5 455,-198.5 455,-179.5 423,-179.5"/>
<text text-anchor="middle" x="439" y="-186.5" font-family="Helvetica,sans-Serif" font-size="10.00">list</text>
</a>
</g>
</g>
<!-- Node17&#45;&gt;Node18 -->
<g id="edge27" class="edge">
<title>Node17&#45;&gt;Node18</title>
<path fill="none" stroke="midnightblue" d="M386.12,-235.32C395.53,-227.26 409.74,-215.08 421.07,-205.37"/>
<polygon fill="midnightblue" stroke="midnightblue" points="423.38,-208 428.69,-198.83 418.82,-202.68 423.38,-208"/>
</g>
<!-- Node19 -->
<g id="node19" class="node">
<title>Node19</title>
<g id="a_node19"><a xlink:href="network_8hpp.html" target="_top" xlink:title=" ">
<polygon fill="white" stroke="black" points="251.5,-123.5 251.5,-142.5 328.5,-142.5 328.5,-123.5 251.5,-123.5"/>
<text text-anchor="middle" x="290" y="-130.5" font-family="Helvetica,sans-Serif" font-size="10.00">network.hpp</text>
</a>
</g>
</g>
<!-- Node17&#45;&gt;Node19 -->
<g id="edge32" class="edge">
<title>Node17&#45;&gt;Node19</title>
<path fill="none" stroke="midnightblue" d="M369.25,-235.37C355,-217.14 321.61,-174.43 303.04,-150.68"/>
<polygon fill="midnightblue" stroke="midnightblue" points="305.63,-148.31 296.72,-142.59 300.12,-152.63 305.63,-148.31"/>
</g>
<!-- Node19&#45;&gt;Node10 -->
<g id="edge33" class="edge">
<title>Node19&#45;&gt;Node10</title>
<path fill="none" stroke="midnightblue" d="M298.46,-123.31C313.95,-107.84 348.43,-75.35 383,-56 409.49,-41.17 441.75,-29.92 467.37,-22.37"/>
<polygon fill="midnightblue" stroke="midnightblue" points="468.55,-25.68 477.2,-19.57 466.62,-18.95 468.55,-25.68"/>
</g>
<!-- Node19&#45;&gt;Node14 -->
<g id="edge36" class="edge">
<title>Node19&#45;&gt;Node14</title>
<path fill="none" stroke="midnightblue" d="M285.56,-123.48C281.05,-114.82 273.93,-101.15 268.19,-90.15"/>
<polygon fill="midnightblue" stroke="midnightblue" points="271.16,-88.26 263.43,-81.01 264.95,-91.49 271.16,-88.26"/>
</g>
<!-- Node19&#45;&gt;Node16 -->
<g id="edge35" class="edge">
<title>Node19&#45;&gt;Node16</title>
<path fill="none" stroke="midnightblue" d="M292.34,-123.38C294.79,-114.33 298.72,-99.68 302,-87 307.04,-67.5 312.6,-45.14 316.4,-29.74"/>
<polygon fill="midnightblue" stroke="midnightblue" points="319.83,-30.45 318.82,-19.9 313.03,-28.78 319.83,-30.45"/>
</g>
<!-- Node20 -->
<g id="node20" class="node">
<title>Node20</title>
<g id="a_node20"><a xlink:title=" ">
<polygon fill="white" stroke="#bfbfbf" points="28.5,-56.5 28.5,-86.5 141.5,-86.5 141.5,-56.5 28.5,-56.5"/>
<text text-anchor="start" x="36.5" y="-74.5" font-family="Helvetica,sans-Serif" font-size="10.00">websocketpp/config</text>
<text text-anchor="middle" x="85" y="-63.5" font-family="Helvetica,sans-Serif" font-size="10.00">/asio_no_tls.hpp</text>
</a>
</g>
</g>
<!-- Node19&#45;&gt;Node20 -->
<g id="edge34" class="edge">
<title>Node19&#45;&gt;Node20</title>
<path fill="none" stroke="midnightblue" d="M260.63,-123.48C230.14,-114.63 181.64,-100.55 143.32,-89.43"/>
<polygon fill="midnightblue" stroke="midnightblue" points="143.89,-85.95 133.31,-86.52 141.94,-92.67 143.89,-85.95"/>
</g>
<!-- Node21 -->
<g id="node21" class="node">
<title>Node21</title>
<g id="a_node21"><a xlink:title=" ">
<polygon fill="white" stroke="#bfbfbf" points="159.5,-62 159.5,-81 206.5,-81 206.5,-62 159.5,-62"/>
<text text-anchor="middle" x="183" y="-69" font-family="Helvetica,sans-Serif" font-size="10.00">queue</text>
</a>
</g>
</g>
<!-- Node19&#45;&gt;Node21 -->
<g id="edge37" class="edge">
<title>Node19&#45;&gt;Node21</title>
<path fill="none" stroke="midnightblue" d="M274.67,-123.48C257.03,-113.67 227.84,-97.43 207.14,-85.92"/>
<polygon fill="midnightblue" stroke="midnightblue" points="208.74,-82.81 198.3,-81.01 205.34,-88.93 208.74,-82.81"/>
</g>
</g>
</svg>
