<?xml version="1.0" encoding="UTF-8" standalone="no"?>
<!DOCTYPE svg PUBLIC "-//W3C//DTD SVG 1.1//EN"
 "http://www.w3.org/Graphics/SVG/1.1/DTD/svg11.dtd">
<!-- Generated by graphviz version 2.42.3 (0)
 -->
<!-- Title: my_handler Pages: 1 -->
<svg width="339pt" height="66pt"
 viewBox="0.00 0.00 339.00 66.00" xmlns="http://www.w3.org/2000/svg" xmlns:xlink="http://www.w3.org/1999/xlink">
<g id="graph0" class="graph" transform="scale(1 1) rotate(0) translate(4 62)">
<title>my_handler</title>
<polygon fill="white" stroke="transparent" points="-4,4 -4,-62 335,-62 335,4 -4,4"/>
<!-- Node1 -->
<g id="node1" class="node">
<title>Node1</title>
<g id="a_node1"><a xlink:title=" ">
<polygon fill="#bfbfbf" stroke="black" points="0,-19.5 0,-38.5 74,-38.5 74,-19.5 0,-19.5"/>
<text text-anchor="middle" x="37" y="-26.5" font-family="Helvetica,sans-Serif" font-size="10.00">my_handler</text>
</a>
</g>
</g>
<!-- Node2 -->
<g id="node2" class="node">
<title>Node2</title>
<g id="a_node2"><a xlink:href="classGalaxy.html#a58d3ec1dd980cd3adfc1eeb83c41f8e4" target="_top" xlink:title=" ">
<polygon fill="white" stroke="black" points="110,-19.5 110,-38.5 187,-38.5 187,-19.5 110,-19.5"/>
<text text-anchor="middle" x="148.5" y="-26.5" font-family="Helvetica,sans-Serif" font-size="10.00">Galaxy::stop</text>
</a>
</g>
</g>
<!-- Node1&#45;&gt;Node2 -->
<g id="edge1" class="edge">
<title>Node1&#45;&gt;Node2</title>
<path fill="none" stroke="midnightblue" d="M74.16,-29C82.31,-29 91.08,-29 99.62,-29"/>
<polygon fill="midnightblue" stroke="midnightblue" points="99.88,-32.5 109.88,-29 99.88,-25.5 99.88,-32.5"/>
</g>
<!-- Node3 -->
<g id="node3" class="node">
<title>Node3</title>
<g id="a_node3"><a xlink:href="classNetwork.html#a14eee72429fc77613fb20692b2101836" target="_top" xlink:title=" ">
<polygon fill="white" stroke="black" points="223,-38.5 223,-57.5 331,-57.5 331,-38.5 223,-38.5"/>
<text text-anchor="middle" x="277" y="-45.5" font-family="Helvetica,sans-Serif" font-size="10.00">Network::closeCon</text>
</a>
</g>
</g>
<!-- Node2&#45;&gt;Node3 -->
<g id="edge2" class="edge">
<title>Node2&#45;&gt;Node3</title>
<path fill="none" stroke="midnightblue" d="M187.11,-34.65C195.26,-35.87 204.09,-37.2 212.92,-38.53"/>
<polygon fill="midnightblue" stroke="midnightblue" points="212.44,-41.99 222.85,-40.02 213.48,-35.07 212.44,-41.99"/>
</g>
<!-- Node4 -->
<g id="node4" class="node">
<title>Node4</title>
<g id="a_node4"><a xlink:href="classNetwork.html#a223d8aca05065fb5a5c80b119c077831" target="_top" xlink:title=" ">
<polygon fill="white" stroke="black" points="234.5,-0.5 234.5,-19.5 319.5,-19.5 319.5,-0.5 234.5,-0.5"/>
<text text-anchor="middle" x="277" y="-7.5" font-family="Helvetica,sans-Serif" font-size="10.00">Network::stop</text>
</a>
</g>
</g>
<!-- Node2&#45;&gt;Node4 -->
<g id="edge3" class="edge">
<title>Node2&#45;&gt;Node4</title>
<path fill="none" stroke="midnightblue" d="M187.11,-23.35C198.72,-21.61 211.71,-19.66 224.11,-17.79"/>
<polygon fill="midnightblue" stroke="midnightblue" points="224.96,-21.21 234.33,-16.26 223.92,-14.28 224.96,-21.21"/>
</g>
</g>
</svg>
