<?xml version="1.0" encoding="UTF-8" standalone="no"?>
<!DOCTYPE svg PUBLIC "-//W3C//DTD SVG 1.1//EN"
 "http://www.w3.org/Graphics/SVG/1.1/DTD/svg11.dtd">
<!-- Generated by graphviz version 2.42.3 (0)
 -->
<!-- Title: src/network.cpp Pages: 1 -->
<svg width="906pt" height="319pt"
 viewBox="0.00 0.00 905.50 319.00" xmlns="http://www.w3.org/2000/svg" xmlns:xlink="http://www.w3.org/1999/xlink">
<g id="graph0" class="graph" transform="scale(1 1) rotate(0) translate(4 315)">
<title>src/network.cpp</title>
<polygon fill="white" stroke="transparent" points="-4,4 -4,-315 901.5,-315 901.5,4 -4,4"/>
<!-- Node1 -->
<g id="node1" class="node">
<title>Node1</title>
<g id="a_node1"><a xlink:title=" ">
<polygon fill="#bfbfbf" stroke="black" points="266.5,-291.5 266.5,-310.5 360.5,-310.5 360.5,-291.5 266.5,-291.5"/>
<text text-anchor="middle" x="313.5" y="-298.5" font-family="Helvetica,sans-Serif" font-size="10.00">src/network.cpp</text>
</a>
</g>
</g>
<!-- Node2 -->
<g id="node2" class="node">
<title>Node2</title>
<g id="a_node2"><a xlink:href="network_8hpp.html" target="_top" xlink:title=" ">
<polygon fill="white" stroke="black" points="214,-123.5 214,-142.5 291,-142.5 291,-123.5 214,-123.5"/>
<text text-anchor="middle" x="252.5" y="-130.5" font-family="Helvetica,sans-Serif" font-size="10.00">network.hpp</text>
</a>
</g>
</g>
<!-- Node1&#45;&gt;Node2 -->
<g id="edge1" class="edge">
<title>Node1&#45;&gt;Node2</title>
<path fill="none" stroke="midnightblue" d="M310.22,-291.08C300.58,-264.83 272.18,-187.55 259.16,-152.12"/>
<polygon fill="midnightblue" stroke="midnightblue" points="262.38,-150.75 255.65,-142.57 255.81,-153.16 262.38,-150.75"/>
</g>
<!-- Node10 -->
<g id="node10" class="node">
<title>Node10</title>
<g id="a_node10"><a xlink:href="galaxy_8hpp.html" target="_top" xlink:title=" ">
<polygon fill="white" stroke="black" points="344,-235.5 344,-254.5 413,-254.5 413,-235.5 344,-235.5"/>
<text text-anchor="middle" x="378.5" y="-242.5" font-family="Helvetica,sans-Serif" font-size="10.00">galaxy.hpp</text>
</a>
</g>
</g>
<!-- Node1&#45;&gt;Node10 -->
<g id="edge10" class="edge">
<title>Node1&#45;&gt;Node10</title>
<path fill="none" stroke="midnightblue" d="M323.94,-291.32C333.65,-283.26 348.32,-271.08 360,-261.37"/>
<polygon fill="midnightblue" stroke="midnightblue" points="362.41,-263.92 367.87,-254.83 357.94,-258.53 362.41,-263.92"/>
</g>
<!-- Node3 -->
<g id="node3" class="node">
<title>Node3</title>
<g id="a_node3"><a xlink:title=" ">
<polygon fill="white" stroke="#bfbfbf" points="405.5,-0.5 405.5,-19.5 515.5,-19.5 515.5,-0.5 405.5,-0.5"/>
<text text-anchor="middle" x="460.5" y="-7.5" font-family="Helvetica,sans-Serif" font-size="10.00">nlohmann/json.hpp</text>
</a>
</g>
</g>
<!-- Node2&#45;&gt;Node3 -->
<g id="edge2" class="edge">
<title>Node2&#45;&gt;Node3</title>
<path fill="none" stroke="midnightblue" d="M251.98,-123.32C251.54,-107.58 253.03,-74.27 271.5,-56 288.97,-38.73 347.73,-26.55 395.15,-19.25"/>
<polygon fill="midnightblue" stroke="midnightblue" points="395.7,-22.71 405.08,-17.77 394.67,-15.78 395.7,-22.71"/>
</g>
<!-- Node4 -->
<g id="node4" class="node">
<title>Node4</title>
<g id="a_node4"><a xlink:title=" ">
<polygon fill="white" stroke="#bfbfbf" points="281,-56.5 281,-86.5 394,-86.5 394,-56.5 281,-56.5"/>
<text text-anchor="start" x="289" y="-74.5" font-family="Helvetica,sans-Serif" font-size="10.00">websocketpp/config</text>
<text text-anchor="middle" x="337.5" y="-63.5" font-family="Helvetica,sans-Serif" font-size="10.00">/asio_no_tls.hpp</text>
</a>
</g>
</g>
<!-- Node2&#45;&gt;Node4 -->
<g id="edge3" class="edge">
<title>Node2&#45;&gt;Node4</title>
<path fill="none" stroke="midnightblue" d="M264.68,-123.48C276.19,-115.42 293.9,-103.02 308.97,-92.47"/>
<polygon fill="midnightblue" stroke="midnightblue" points="311.28,-95.12 317.47,-86.52 307.27,-89.39 311.28,-95.12"/>
</g>
<!-- Node5 -->
<g id="node5" class="node">
<title>Node5</title>
<g id="a_node5"><a xlink:title=" ">
<polygon fill="white" stroke="#bfbfbf" points="0,-0.5 0,-19.5 135,-19.5 135,-0.5 0,-0.5"/>
<text text-anchor="middle" x="67.5" y="-7.5" font-family="Helvetica,sans-Serif" font-size="10.00">websocketpp/server.hpp</text>
</a>
</g>
</g>
<!-- Node2&#45;&gt;Node5 -->
<g id="edge4" class="edge">
<title>Node2&#45;&gt;Node5</title>
<path fill="none" stroke="midnightblue" d="M213.97,-126.72C169.24,-119.78 99.3,-106.19 81.5,-87 67.34,-71.73 65.2,-47.05 65.72,-29.97"/>
<polygon fill="midnightblue" stroke="midnightblue" points="69.24,-29.78 66.38,-19.58 62.25,-29.33 69.24,-29.78"/>
</g>
<!-- Node6 -->
<g id="node6" class="node">
<title>Node6</title>
<g id="a_node6"><a xlink:href="player_8hpp.html" target="_top" xlink:title=" ">
<polygon fill="white" stroke="black" points="156.5,-62 156.5,-81 224.5,-81 224.5,-62 156.5,-62"/>
<text text-anchor="middle" x="190.5" y="-69" font-family="Helvetica,sans-Serif" font-size="10.00">player.hpp</text>
</a>
</g>
</g>
<!-- Node2&#45;&gt;Node6 -->
<g id="edge5" class="edge">
<title>Node2&#45;&gt;Node6</title>
<path fill="none" stroke="midnightblue" d="M243.62,-123.48C234.04,-114.28 218.59,-99.46 206.81,-88.16"/>
<polygon fill="midnightblue" stroke="midnightblue" points="209.01,-85.41 199.37,-81.01 204.16,-90.46 209.01,-85.41"/>
</g>
<!-- Node9 -->
<g id="node9" class="node">
<title>Node9</title>
<g id="a_node9"><a xlink:title=" ">
<polygon fill="white" stroke="#bfbfbf" points="91,-62 91,-81 138,-81 138,-62 91,-62"/>
<text text-anchor="middle" x="114.5" y="-69" font-family="Helvetica,sans-Serif" font-size="10.00">queue</text>
</a>
</g>
</g>
<!-- Node2&#45;&gt;Node9 -->
<g id="edge9" class="edge">
<title>Node2&#45;&gt;Node9</title>
<path fill="none" stroke="midnightblue" d="M232.35,-123.43C211.19,-114.41 176.97,-99.79 147.5,-87 146.14,-86.41 144.74,-85.8 143.33,-85.19"/>
<polygon fill="midnightblue" stroke="midnightblue" points="144.6,-81.92 134.03,-81.12 141.79,-88.33 144.6,-81.92"/>
</g>
<!-- Node6&#45;&gt;Node5 -->
<g id="edge8" class="edge">
<title>Node6&#45;&gt;Node5</title>
<path fill="none" stroke="midnightblue" d="M172.88,-61.98C152.33,-52.03 118.14,-35.49 94.29,-23.96"/>
<polygon fill="midnightblue" stroke="midnightblue" points="95.62,-20.71 85.09,-19.51 92.57,-27.01 95.62,-20.71"/>
</g>
<!-- Node7 -->
<g id="node7" class="node">
<title>Node7</title>
<g id="a_node7"><a xlink:title=" ">
<polygon fill="white" stroke="#bfbfbf" points="163.5,-0.5 163.5,-19.5 207.5,-19.5 207.5,-0.5 163.5,-0.5"/>
<text text-anchor="middle" x="185.5" y="-7.5" font-family="Helvetica,sans-Serif" font-size="10.00">string</text>
</a>
</g>
</g>
<!-- Node6&#45;&gt;Node7 -->
<g id="edge6" class="edge">
<title>Node6&#45;&gt;Node7</title>
<path fill="none" stroke="midnightblue" d="M189.78,-61.98C189.08,-53.58 187.98,-40.48 187.07,-29.66"/>
<polygon fill="midnightblue" stroke="midnightblue" points="190.54,-29.18 186.22,-19.51 183.56,-29.77 190.54,-29.18"/>
</g>
<!-- Node8 -->
<g id="node8" class="node">
<title>Node8</title>
<g id="a_node8"><a xlink:title=" ">
<polygon fill="white" stroke="#bfbfbf" points="225.5,-0.5 225.5,-19.5 285.5,-19.5 285.5,-0.5 225.5,-0.5"/>
<text text-anchor="middle" x="255.5" y="-7.5" font-family="Helvetica,sans-Serif" font-size="10.00">iostream</text>
</a>
</g>
</g>
<!-- Node6&#45;&gt;Node8 -->
<g id="edge7" class="edge">
<title>Node6&#45;&gt;Node8</title>
<path fill="none" stroke="midnightblue" d="M199.81,-61.98C209.95,-52.7 226.36,-37.67 238.75,-26.33"/>
<polygon fill="midnightblue" stroke="midnightblue" points="241.19,-28.84 246.2,-19.51 236.46,-23.68 241.19,-28.84"/>
</g>
<!-- Node10&#45;&gt;Node2 -->
<g id="edge36" class="edge">
<title>Node10&#45;&gt;Node2</title>
<path fill="none" stroke="midnightblue" d="M366.42,-235.44C354.26,-226.67 335.12,-212.45 319.5,-199 301.02,-183.09 281.12,-163.43 267.85,-149.92"/>
<polygon fill="midnightblue" stroke="midnightblue" points="270.35,-147.47 260.86,-142.75 265.34,-152.36 270.35,-147.47"/>
</g>
<!-- Node10&#45;&gt;Node3 -->
<g id="edge12" class="edge">
<title>Node10&#45;&gt;Node3</title>
<path fill="none" stroke="midnightblue" d="M384.06,-235.32C389.55,-226.45 397.92,-212.17 403.5,-199 428.84,-139.19 448.03,-64.31 456.19,-29.89"/>
<polygon fill="midnightblue" stroke="midnightblue" points="459.67,-30.39 458.53,-19.85 452.85,-28.8 459.67,-30.39"/>
</g>
<!-- Node10&#45;&gt;Node6 -->
<g id="edge13" class="edge">
<title>Node10&#45;&gt;Node6</title>
<path fill="none" stroke="midnightblue" d="M373.69,-235.35C359.82,-210.62 319.42,-140.23 299.5,-123 279.16,-105.41 251.67,-92.73 229.38,-84.47"/>
<polygon fill="midnightblue" stroke="midnightblue" points="230.46,-81.14 219.87,-81.1 228.12,-87.74 230.46,-81.14"/>
</g>
<!-- Node11 -->
<g id="node11" class="node">
<title>Node11</title>
<g id="a_node11"><a xlink:title=" ">
<polygon fill="white" stroke="#bfbfbf" points="362.5,-179.5 362.5,-198.5 394.5,-198.5 394.5,-179.5 362.5,-179.5"/>
<text text-anchor="middle" x="378.5" y="-186.5" font-family="Helvetica,sans-Serif" font-size="10.00">list</text>
</a>
</g>
</g>
<!-- Node10&#45;&gt;Node11 -->
<g id="edge11" class="edge">
<title>Node10&#45;&gt;Node11</title>
<path fill="none" stroke="midnightblue" d="M378.5,-235.08C378.5,-228.01 378.5,-217.86 378.5,-208.99"/>
<polygon fill="midnightblue" stroke="midnightblue" points="382,-208.75 378.5,-198.75 375,-208.75 382,-208.75"/>
</g>
<!-- Node12 -->
<g id="node12" class="node">
<title>Node12</title>
<g id="a_node12"><a xlink:href="gamechange_8hpp.html" target="_top" xlink:title=" ">
<polygon fill="white" stroke="black" points="703,-123.5 703,-142.5 804,-142.5 804,-123.5 703,-123.5"/>
<text text-anchor="middle" x="753.5" y="-130.5" font-family="Helvetica,sans-Serif" font-size="10.00">gamechange.hpp</text>
</a>
</g>
</g>
<!-- Node10&#45;&gt;Node12 -->
<g id="edge14" class="edge">
<title>Node10&#45;&gt;Node12</title>
<path fill="none" stroke="midnightblue" d="M413.07,-243.83C468.47,-242.42 579.64,-234.88 665.5,-199 693.26,-187.4 720.35,-165.27 736.98,-150.08"/>
<polygon fill="midnightblue" stroke="midnightblue" points="739.77,-152.26 744.67,-142.87 734.98,-147.16 739.77,-152.26"/>
</g>
<!-- Node19 -->
<g id="node19" class="node">
<title>Node19</title>
<g id="a_node19"><a xlink:href="gamestate_8hpp.html" target="_top" xlink:title=" ">
<polygon fill="white" stroke="black" points="566.5,-179.5 566.5,-198.5 656.5,-198.5 656.5,-179.5 566.5,-179.5"/>
<text text-anchor="middle" x="611.5" y="-186.5" font-family="Helvetica,sans-Serif" font-size="10.00">gamestate.hpp</text>
</a>
</g>
</g>
<!-- Node10&#45;&gt;Node19 -->
<g id="edge26" class="edge">
<title>Node10&#45;&gt;Node19</title>
<path fill="none" stroke="midnightblue" d="M413.13,-235.97C453.44,-226.63 520.18,-211.16 564.99,-200.78"/>
<polygon fill="midnightblue" stroke="midnightblue" points="565.8,-204.18 574.75,-198.52 564.22,-197.36 565.8,-204.18"/>
</g>
<!-- Node12&#45;&gt;Node6 -->
<g id="edge15" class="edge">
<title>Node12&#45;&gt;Node6</title>
<path fill="none" stroke="midnightblue" d="M702.79,-124.16C699.65,-123.75 696.53,-123.36 693.5,-123 506.55,-101.03 458.12,-111.61 271.5,-87 259.56,-85.43 246.7,-83.32 234.82,-81.19"/>
<polygon fill="midnightblue" stroke="midnightblue" points="235.15,-77.7 224.68,-79.34 233.89,-84.58 235.15,-77.7"/>
</g>
<!-- Node13 -->
<g id="node13" class="node">
<title>Node13</title>
<g id="a_node13"><a xlink:href="field_8hpp.html" target="_top" xlink:title=" ">
<polygon fill="white" stroke="black" points="558,-62 558,-81 617,-81 617,-62 558,-62"/>
<text text-anchor="middle" x="587.5" y="-69" font-family="Helvetica,sans-Serif" font-size="10.00">field.hpp</text>
</a>
</g>
</g>
<!-- Node12&#45;&gt;Node13 -->
<g id="edge16" class="edge">
<title>Node12&#45;&gt;Node13</title>
<path fill="none" stroke="midnightblue" d="M729.72,-123.48C701.12,-113.22 652.95,-95.96 620.7,-84.4"/>
<polygon fill="midnightblue" stroke="midnightblue" points="621.83,-81.09 611.24,-81.01 619.47,-87.68 621.83,-81.09"/>
</g>
<!-- Node16 -->
<g id="node16" class="node">
<title>Node16</title>
<g id="a_node16"><a xlink:href="dot_8hpp.html" target="_top" xlink:title=" ">
<polygon fill="white" stroke="black" points="727,-62 727,-81 780,-81 780,-62 727,-62"/>
<text text-anchor="middle" x="753.5" y="-69" font-family="Helvetica,sans-Serif" font-size="10.00">dot.hpp</text>
</a>
</g>
</g>
<!-- Node12&#45;&gt;Node16 -->
<g id="edge20" class="edge">
<title>Node12&#45;&gt;Node16</title>
<path fill="none" stroke="midnightblue" d="M753.5,-123.48C753.5,-115.08 753.5,-101.98 753.5,-91.16"/>
<polygon fill="midnightblue" stroke="midnightblue" points="757,-91.01 753.5,-81.01 750,-91.01 757,-91.01"/>
</g>
<!-- Node13&#45;&gt;Node3 -->
<g id="edge18" class="edge">
<title>Node13&#45;&gt;Node3</title>
<path fill="none" stroke="midnightblue" d="M569.3,-61.98C547.99,-51.99 512.47,-35.35 487.84,-23.81"/>
<polygon fill="midnightblue" stroke="midnightblue" points="489.2,-20.58 478.66,-19.51 486.23,-26.92 489.2,-20.58"/>
</g>
<!-- Node14 -->
<g id="node14" class="node">
<title>Node14</title>
<g id="a_node14"><a xlink:href="position__type_8hpp.html" target="_top" xlink:title=" ">
<polygon fill="white" stroke="black" points="658.5,-0.5 658.5,-19.5 762.5,-19.5 762.5,-0.5 658.5,-0.5"/>
<text text-anchor="middle" x="710.5" y="-7.5" font-family="Helvetica,sans-Serif" font-size="10.00">position_type.hpp</text>
</a>
</g>
</g>
<!-- Node13&#45;&gt;Node14 -->
<g id="edge17" class="edge">
<title>Node13&#45;&gt;Node14</title>
<path fill="none" stroke="midnightblue" d="M605.12,-61.98C625.67,-52.03 659.86,-35.49 683.71,-23.96"/>
<polygon fill="midnightblue" stroke="midnightblue" points="685.43,-27.01 692.91,-19.51 682.38,-20.71 685.43,-27.01"/>
</g>
<!-- Node15 -->
<g id="node15" class="node">
<title>Node15</title>
<g id="a_node15"><a xlink:title=" ">
<polygon fill="white" stroke="#bfbfbf" points="558.5,-0.5 558.5,-19.5 616.5,-19.5 616.5,-0.5 558.5,-0.5"/>
<text text-anchor="middle" x="587.5" y="-7.5" font-family="Helvetica,sans-Serif" font-size="10.00">memory</text>
</a>
</g>
</g>
<!-- Node13&#45;&gt;Node15 -->
<g id="edge19" class="edge">
<title>Node13&#45;&gt;Node15</title>
<path fill="none" stroke="midnightblue" d="M587.5,-61.98C587.5,-53.58 587.5,-40.48 587.5,-29.66"/>
<polygon fill="midnightblue" stroke="midnightblue" points="591,-29.51 587.5,-19.51 584,-29.51 591,-29.51"/>
</g>
<!-- Node16&#45;&gt;Node3 -->
<g id="edge25" class="edge">
<title>Node16&#45;&gt;Node3</title>
<path fill="none" stroke="midnightblue" d="M726.98,-65.11C678.68,-55.31 575.54,-34.36 512.69,-21.6"/>
<polygon fill="midnightblue" stroke="midnightblue" points="513.08,-18.11 502.58,-19.55 511.69,-24.97 513.08,-18.11"/>
</g>
<!-- Node16&#45;&gt;Node14 -->
<g id="edge21" class="edge">
<title>Node16&#45;&gt;Node14</title>
<path fill="none" stroke="midnightblue" d="M747.34,-61.98C740.89,-53.05 730.6,-38.81 722.53,-27.64"/>
<polygon fill="midnightblue" stroke="midnightblue" points="725.34,-25.56 716.65,-19.51 719.67,-29.66 725.34,-25.56"/>
</g>
<!-- Node16&#45;&gt;Node15 -->
<g id="edge24" class="edge">
<title>Node16&#45;&gt;Node15</title>
<path fill="none" stroke="midnightblue" d="M729.72,-61.98C701.12,-51.72 652.95,-34.46 620.7,-22.9"/>
<polygon fill="midnightblue" stroke="midnightblue" points="621.83,-19.59 611.24,-19.51 619.47,-26.18 621.83,-19.59"/>
</g>
<!-- Node17 -->
<g id="node17" class="node">
<title>Node17</title>
<g id="a_node17"><a xlink:title=" ">
<polygon fill="white" stroke="#bfbfbf" points="780.5,-0.5 780.5,-19.5 812.5,-19.5 812.5,-0.5 780.5,-0.5"/>
<text text-anchor="middle" x="796.5" y="-7.5" font-family="Helvetica,sans-Serif" font-size="10.00">set</text>
</a>
</g>
</g>
<!-- Node16&#45;&gt;Node17 -->
<g id="edge22" class="edge">
<title>Node16&#45;&gt;Node17</title>
<path fill="none" stroke="midnightblue" d="M759.66,-61.98C766.11,-53.05 776.4,-38.81 784.47,-27.64"/>
<polygon fill="midnightblue" stroke="midnightblue" points="787.33,-29.66 790.35,-19.51 781.66,-25.56 787.33,-29.66"/>
</g>
<!-- Node18 -->
<g id="node18" class="node">
<title>Node18</title>
<g id="a_node18"><a xlink:title=" ">
<polygon fill="white" stroke="#bfbfbf" points="859.5,-0.5 859.5,-19.5 897.5,-19.5 897.5,-0.5 859.5,-0.5"/>
<text text-anchor="middle" x="878.5" y="-7.5" font-family="Helvetica,sans-Serif" font-size="10.00">map</text>
</a>
</g>
</g>
<!-- Node16&#45;&gt;Node18 -->
<g id="edge23" class="edge">
<title>Node16&#45;&gt;Node18</title>
<path fill="none" stroke="midnightblue" d="M771.41,-61.98C792.39,-51.99 827.35,-35.35 851.59,-23.81"/>
<polygon fill="midnightblue" stroke="midnightblue" points="853.1,-26.97 860.62,-19.51 850.09,-20.65 853.1,-26.97"/>
</g>
<!-- Node19&#45;&gt;Node3 -->
<g id="edge34" class="edge">
<title>Node19&#45;&gt;Node3</title>
<path fill="none" stroke="midnightblue" d="M591.75,-179.37C575.69,-171.61 553.2,-158.99 537.5,-143 503.7,-108.57 479.06,-56.44 467.63,-29.14"/>
<polygon fill="midnightblue" stroke="midnightblue" points="470.79,-27.62 463.78,-19.68 464.31,-30.26 470.79,-27.62"/>
</g>
<!-- Node19&#45;&gt;Node12 -->
<g id="edge35" class="edge">
<title>Node19&#45;&gt;Node12</title>
<path fill="none" stroke="midnightblue" d="M634,-179.44C657.58,-170.48 694.82,-156.31 721.46,-146.18"/>
<polygon fill="midnightblue" stroke="midnightblue" points="723,-149.34 731.1,-142.52 720.51,-142.8 723,-149.34"/>
</g>
<!-- Node19&#45;&gt;Node13 -->
<g id="edge31" class="edge">
<title>Node19&#45;&gt;Node13</title>
<path fill="none" stroke="midnightblue" d="M594,-179.46C580.71,-171.92 563.42,-159.53 555.5,-143 546.66,-124.56 559.63,-103.14 571.61,-88.79"/>
<polygon fill="midnightblue" stroke="midnightblue" points="574.31,-91.02 578.37,-81.24 569.09,-86.35 574.31,-91.02"/>
</g>
<!-- Node19&#45;&gt;Node14 -->
<g id="edge33" class="edge">
<title>Node19&#45;&gt;Node14</title>
<path fill="none" stroke="midnightblue" d="M656.75,-185.21C714.11,-180.62 808.14,-169.22 829.5,-143 866.34,-97.78 783.87,-47.36 738.22,-24.08"/>
<polygon fill="midnightblue" stroke="midnightblue" points="739.6,-20.86 729.09,-19.54 736.48,-27.13 739.6,-20.86"/>
</g>
<!-- Node19&#45;&gt;Node15 -->
<g id="edge29" class="edge">
<title>Node19&#45;&gt;Node15</title>
<path fill="none" stroke="midnightblue" d="M591.36,-179.45C576.86,-172.1 558.35,-159.98 549.5,-143 531.63,-108.71 534.98,-92.23 548.5,-56 552.67,-44.81 561.02,-34.56 568.92,-26.68"/>
<polygon fill="midnightblue" stroke="midnightblue" points="571.56,-29 576.51,-19.63 566.8,-23.87 571.56,-29"/>
</g>
<!-- Node19&#45;&gt;Node16 -->
<g id="edge32" class="edge">
<title>Node19&#45;&gt;Node16</title>
<path fill="none" stroke="midnightblue" d="M656.94,-184.3C710.13,-178.93 793.39,-166.86 812.5,-143 828.53,-122.98 801.2,-100.32 778.62,-86.22"/>
<polygon fill="midnightblue" stroke="midnightblue" points="780.37,-83.19 769.99,-81.08 776.79,-89.21 780.37,-83.19"/>
</g>
<!-- Node19&#45;&gt;Node18 -->
<g id="edge28" class="edge">
<title>Node19&#45;&gt;Node18</title>
<path fill="none" stroke="midnightblue" d="M656.63,-185.22C717.57,-180.53 821.68,-168.88 848.5,-143 879.42,-113.17 881.48,-58.63 880.13,-29.88"/>
<polygon fill="midnightblue" stroke="midnightblue" points="883.6,-29.35 879.44,-19.6 876.61,-29.81 883.6,-29.35"/>
</g>
<!-- Node20 -->
<g id="node20" class="node">
<title>Node20</title>
<g id="a_node20"><a xlink:title=" ">
<polygon fill="white" stroke="#bfbfbf" points="565,-123.5 565,-142.5 612,-142.5 612,-123.5 565,-123.5"/>
<text text-anchor="middle" x="588.5" y="-130.5" font-family="Helvetica,sans-Serif" font-size="10.00">vector</text>
</a>
</g>
</g>
<!-- Node19&#45;&gt;Node20 -->
<g id="edge27" class="edge">
<title>Node19&#45;&gt;Node20</title>
<path fill="none" stroke="midnightblue" d="M607.7,-179.08C604.59,-171.77 600.08,-161.18 596.21,-152.1"/>
<polygon fill="midnightblue" stroke="midnightblue" points="599.37,-150.58 592.23,-142.75 592.93,-153.32 599.37,-150.58"/>
</g>
<!-- Node21 -->
<g id="node21" class="node">
<title>Node21</title>
<g id="a_node21"><a xlink:title=" ">
<polygon fill="white" stroke="#bfbfbf" points="630.5,-123.5 630.5,-142.5 684.5,-142.5 684.5,-123.5 630.5,-123.5"/>
<text text-anchor="middle" x="657.5" y="-130.5" font-family="Helvetica,sans-Serif" font-size="10.00">random</text>
</a>
</g>
</g>
<!-- Node19&#45;&gt;Node21 -->
<g id="edge30" class="edge">
<title>Node19&#45;&gt;Node21</title>
<path fill="none" stroke="midnightblue" d="M619.1,-179.08C625.73,-171.3 635.52,-159.8 643.56,-150.37"/>
<polygon fill="midnightblue" stroke="midnightblue" points="646.23,-152.63 650.05,-142.75 640.9,-148.09 646.23,-152.63"/>
</g>
</g>
</svg>
