<?xml version="1.0" encoding="UTF-8" standalone="no"?>
<!DOCTYPE svg PUBLIC "-//W3C//DTD SVG 1.1//EN"
 "http://www.w3.org/Graphics/SVG/1.1/DTD/svg11.dtd">
<!-- Generated by graphviz version 2.42.3 (0)
 -->
<!-- Title: include/network.hpp Pages: 1 -->
<svg width="463pt" height="151pt"
 viewBox="0.00 0.00 463.00 151.00" xmlns="http://www.w3.org/2000/svg" xmlns:xlink="http://www.w3.org/1999/xlink">
<g id="graph0" class="graph" transform="scale(1 1) rotate(0) translate(4 147)">
<title>include/network.hpp</title>
<polygon fill="white" stroke="transparent" points="-4,4 -4,-147 459,-147 459,4 -4,4"/>
<!-- Node1 -->
<g id="node1" class="node">
<title>Node1</title>
<g id="a_node1"><a xlink:title=" ">
<polygon fill="#bfbfbf" stroke="black" points="212,-123.5 212,-142.5 328,-142.5 328,-123.5 212,-123.5"/>
<text text-anchor="middle" x="270" y="-130.5" font-family="Helvetica,sans-Serif" font-size="10.00">include/network.hpp</text>
</a>
</g>
</g>
<!-- Node2 -->
<g id="node2" class="node">
<title>Node2</title>
<g id="a_node2"><a xlink:title=" ">
<polygon fill="white" stroke="#bfbfbf" points="0,-62 0,-81 110,-81 110,-62 0,-62"/>
<text text-anchor="middle" x="55" y="-69" font-family="Helvetica,sans-Serif" font-size="10.00">nlohmann/json.hpp</text>
</a>
</g>
</g>
<!-- Node1&#45;&gt;Node2 -->
<g id="edge1" class="edge">
<title>Node1&#45;&gt;Node2</title>
<path fill="none" stroke="midnightblue" d="M239.2,-123.48C201.44,-113.03 137.34,-95.29 95.59,-83.73"/>
<polygon fill="midnightblue" stroke="midnightblue" points="96.32,-80.3 85.75,-81.01 94.45,-87.05 96.32,-80.3"/>
</g>
<!-- Node3 -->
<g id="node3" class="node">
<title>Node3</title>
<g id="a_node3"><a xlink:title=" ">
<polygon fill="white" stroke="#bfbfbf" points="128.5,-56.5 128.5,-86.5 241.5,-86.5 241.5,-56.5 128.5,-56.5"/>
<text text-anchor="start" x="136.5" y="-74.5" font-family="Helvetica,sans-Serif" font-size="10.00">websocketpp/config</text>
<text text-anchor="middle" x="185" y="-63.5" font-family="Helvetica,sans-Serif" font-size="10.00">/asio_no_tls.hpp</text>
</a>
</g>
</g>
<!-- Node1&#45;&gt;Node3 -->
<g id="edge2" class="edge">
<title>Node1&#45;&gt;Node3</title>
<path fill="none" stroke="midnightblue" d="M257.82,-123.48C246.31,-115.42 228.6,-103.02 213.53,-92.47"/>
<polygon fill="midnightblue" stroke="midnightblue" points="215.23,-89.39 205.03,-86.52 211.22,-95.12 215.23,-89.39"/>
</g>
<!-- Node4 -->
<g id="node4" class="node">
<title>Node4</title>
<g id="a_node4"><a xlink:title=" ">
<polygon fill="white" stroke="#bfbfbf" points="179.5,-0.5 179.5,-19.5 314.5,-19.5 314.5,-0.5 179.5,-0.5"/>
<text text-anchor="middle" x="247" y="-7.5" font-family="Helvetica,sans-Serif" font-size="10.00">websocketpp/server.hpp</text>
</a>
</g>
</g>
<!-- Node1&#45;&gt;Node4 -->
<g id="edge3" class="edge">
<title>Node1&#45;&gt;Node4</title>
<path fill="none" stroke="midnightblue" d="M268.35,-123.3C264.63,-103.76 255.57,-56.06 250.53,-29.55"/>
<polygon fill="midnightblue" stroke="midnightblue" points="253.95,-28.79 248.64,-19.62 247.07,-30.1 253.95,-28.79"/>
</g>
<!-- Node5 -->
<g id="node5" class="node">
<title>Node5</title>
<g id="a_node5"><a xlink:href="player_8hpp.html" target="_top" xlink:title=" ">
<polygon fill="white" stroke="black" points="298,-62 298,-81 366,-81 366,-62 298,-62"/>
<text text-anchor="middle" x="332" y="-69" font-family="Helvetica,sans-Serif" font-size="10.00">player.hpp</text>
</a>
</g>
</g>
<!-- Node1&#45;&gt;Node5 -->
<g id="edge4" class="edge">
<title>Node1&#45;&gt;Node5</title>
<path fill="none" stroke="midnightblue" d="M278.88,-123.48C288.46,-114.28 303.91,-99.46 315.69,-88.16"/>
<polygon fill="midnightblue" stroke="midnightblue" points="318.34,-90.46 323.13,-81.01 313.49,-85.41 318.34,-90.46"/>
</g>
<!-- Node8 -->
<g id="node8" class="node">
<title>Node8</title>
<g id="a_node8"><a xlink:title=" ">
<polygon fill="white" stroke="#bfbfbf" points="384.5,-62 384.5,-81 431.5,-81 431.5,-62 384.5,-62"/>
<text text-anchor="middle" x="408" y="-69" font-family="Helvetica,sans-Serif" font-size="10.00">queue</text>
</a>
</g>
</g>
<!-- Node1&#45;&gt;Node8 -->
<g id="edge8" class="edge">
<title>Node1&#45;&gt;Node8</title>
<path fill="none" stroke="midnightblue" d="M290.15,-123.43C311.31,-114.41 345.53,-99.79 375,-87 376.36,-86.41 377.76,-85.8 379.17,-85.19"/>
<polygon fill="midnightblue" stroke="midnightblue" points="380.71,-88.33 388.47,-81.12 377.9,-81.92 380.71,-88.33"/>
</g>
<!-- Node5&#45;&gt;Node4 -->
<g id="edge7" class="edge">
<title>Node5&#45;&gt;Node4</title>
<path fill="none" stroke="midnightblue" d="M319.82,-61.98C306.19,-52.43 283.87,-36.81 267.53,-25.37"/>
<polygon fill="midnightblue" stroke="midnightblue" points="269.36,-22.38 259.16,-19.51 265.34,-28.11 269.36,-22.38"/>
</g>
<!-- Node6 -->
<g id="node6" class="node">
<title>Node6</title>
<g id="a_node6"><a xlink:title=" ">
<polygon fill="white" stroke="#bfbfbf" points="333,-0.5 333,-19.5 377,-19.5 377,-0.5 333,-0.5"/>
<text text-anchor="middle" x="355" y="-7.5" font-family="Helvetica,sans-Serif" font-size="10.00">string</text>
</a>
</g>
</g>
<!-- Node5&#45;&gt;Node6 -->
<g id="edge5" class="edge">
<title>Node5&#45;&gt;Node6</title>
<path fill="none" stroke="midnightblue" d="M335.3,-61.98C338.61,-53.4 343.82,-39.93 348.05,-28.98"/>
<polygon fill="midnightblue" stroke="midnightblue" points="351.37,-30.1 351.71,-19.51 344.84,-27.57 351.37,-30.1"/>
</g>
<!-- Node7 -->
<g id="node7" class="node">
<title>Node7</title>
<g id="a_node7"><a xlink:title=" ">
<polygon fill="white" stroke="#bfbfbf" points="395,-0.5 395,-19.5 455,-19.5 455,-0.5 395,-0.5"/>
<text text-anchor="middle" x="425" y="-7.5" font-family="Helvetica,sans-Serif" font-size="10.00">iostream</text>
</a>
</g>
</g>
<!-- Node5&#45;&gt;Node7 -->
<g id="edge6" class="edge">
<title>Node5&#45;&gt;Node7</title>
<path fill="none" stroke="midnightblue" d="M345.32,-61.98C360.38,-52.34 385.12,-36.52 403.04,-25.05"/>
<polygon fill="midnightblue" stroke="midnightblue" points="405.16,-27.85 411.7,-19.51 401.39,-21.95 405.16,-27.85"/>
</g>
</g>
</svg>
