<?xml version="1.0" encoding="UTF-8" standalone="no"?>
<!DOCTYPE svg PUBLIC "-//W3C//DTD SVG 1.1//EN"
 "http://www.w3.org/Graphics/SVG/1.1/DTD/svg11.dtd">
<!-- Generated by graphviz version 2.42.3 (0)
 -->
<!-- Title: include/player.hpp Pages: 1 -->
<svg width="496pt" height="252pt"
 viewBox="0.00 0.00 495.50 252.00" xmlns="http://www.w3.org/2000/svg" xmlns:xlink="http://www.w3.org/1999/xlink">
<g id="graph0" class="graph" transform="scale(1 1) rotate(0) translate(4 248)">
<title>include/player.hpp</title>
<polygon fill="white" stroke="transparent" points="-4,4 -4,-248 491.5,-248 491.5,4 -4,4"/>
<!-- Node1 -->
<g id="node1" class="node">
<title>Node1</title>
<g id="a_node1"><a xlink:title=" ">
<polygon fill="#bfbfbf" stroke="black" points="153.5,-224.5 153.5,-243.5 260.5,-243.5 260.5,-224.5 153.5,-224.5"/>
<text text-anchor="middle" x="207" y="-231.5" font-family="Helvetica,sans-Serif" font-size="10.00">include/player.hpp</text>
</a>
</g>
</g>
<!-- Node2 -->
<g id="node2" class="node">
<title>Node2</title>
<g id="a_node2"><a xlink:href="galaxy_8hpp.html" target="_top" xlink:title=" ">
<polygon fill="white" stroke="black" points="107.5,-56.5 107.5,-75.5 214.5,-75.5 214.5,-56.5 107.5,-56.5"/>
<text text-anchor="middle" x="161" y="-63.5" font-family="Helvetica,sans-Serif" font-size="10.00">include/galaxy.hpp</text>
</a>
</g>
</g>
<!-- Node1&#45;&gt;Node2 -->
<g id="edge1" class="edge">
<title>Node1&#45;&gt;Node2</title>
<path fill="none" stroke="midnightblue" d="M193.66,-216.16C187.93,-208.08 181.72,-198 178,-188 163.06,-147.84 161.11,-95.72 160.96,-75.52"/>
<polygon fill="midnightblue" stroke="midnightblue" points="190.96,-218.4 199.75,-224.32 196.57,-214.21 190.96,-218.4"/>
</g>
<!-- Node6 -->
<g id="node6" class="node">
<title>Node6</title>
<g id="a_node6"><a xlink:href="gamechange_8hpp.html" target="_top" xlink:title=" ">
<polygon fill="white" stroke="black" points="186.5,-168.5 186.5,-187.5 325.5,-187.5 325.5,-168.5 186.5,-168.5"/>
<text text-anchor="middle" x="256" y="-175.5" font-family="Helvetica,sans-Serif" font-size="10.00">include/gamechange.hpp</text>
</a>
</g>
</g>
<!-- Node1&#45;&gt;Node6 -->
<g id="edge5" class="edge">
<title>Node1&#45;&gt;Node6</title>
<path fill="none" stroke="midnightblue" d="M222.03,-216.43C230.62,-206.97 241.04,-195.48 248.06,-187.75"/>
<polygon fill="midnightblue" stroke="midnightblue" points="219.22,-214.33 215.09,-224.08 224.4,-219.03 219.22,-214.33"/>
</g>
<!-- Node10 -->
<g id="node10" class="node">
<title>Node10</title>
<g id="a_node10"><a xlink:href="network_8hpp.html" target="_top" xlink:title=" ">
<polygon fill="white" stroke="black" points="14,-112.5 14,-131.5 130,-131.5 130,-112.5 14,-112.5"/>
<text text-anchor="middle" x="72" y="-119.5" font-family="Helvetica,sans-Serif" font-size="10.00">include/network.hpp</text>
</a>
</g>
</g>
<!-- Node1&#45;&gt;Node10 -->
<g id="edge12" class="edge">
<title>Node1&#45;&gt;Node10</title>
<path fill="none" stroke="midnightblue" d="M185.77,-218.74C173.34,-210.16 157.49,-198.85 144,-188 120.38,-169 94.38,-144.59 81.02,-131.76"/>
<polygon fill="midnightblue" stroke="midnightblue" points="183.9,-221.7 194.14,-224.45 187.85,-215.92 183.9,-221.7"/>
</g>
<!-- Node11 -->
<g id="node11" class="node">
<title>Node11</title>
<g id="a_node11"><a xlink:href="player_8cpp.html" target="_top" xlink:title=" ">
<polygon fill="white" stroke="black" points="343.5,-168.5 343.5,-187.5 428.5,-187.5 428.5,-168.5 343.5,-168.5"/>
<text text-anchor="middle" x="386" y="-175.5" font-family="Helvetica,sans-Serif" font-size="10.00">src/player.cpp</text>
</a>
</g>
</g>
<!-- Node1&#45;&gt;Node11 -->
<g id="edge16" class="edge">
<title>Node1&#45;&gt;Node11</title>
<path fill="none" stroke="midnightblue" d="M245.33,-221.44C279.08,-211.26 327.45,-196.66 357.77,-187.52"/>
<polygon fill="midnightblue" stroke="midnightblue" points="243.93,-218.2 235.36,-224.44 245.95,-224.91 243.93,-218.2"/>
</g>
<!-- Node3 -->
<g id="node3" class="node">
<title>Node3</title>
<g id="a_node3"><a xlink:href="galaxy_8cpp.html" target="_top" xlink:title=" ">
<polygon fill="white" stroke="black" points="115,-0.5 115,-19.5 201,-19.5 201,-0.5 115,-0.5"/>
<text text-anchor="middle" x="158" y="-7.5" font-family="Helvetica,sans-Serif" font-size="10.00">src/galaxy.cpp</text>
</a>
</g>
</g>
<!-- Node2&#45;&gt;Node3 -->
<g id="edge2" class="edge">
<title>Node2&#45;&gt;Node3</title>
<path fill="none" stroke="midnightblue" d="M159.93,-45.8C159.44,-36.91 158.88,-26.78 158.49,-19.75"/>
<polygon fill="midnightblue" stroke="midnightblue" points="156.46,-46.29 160.5,-56.08 163.44,-45.9 156.46,-46.29"/>
</g>
<!-- Node4 -->
<g id="node4" class="node">
<title>Node4</title>
<g id="a_node4"><a xlink:href="main_8cpp.html" target="_top" xlink:title=" ">
<polygon fill="white" stroke="black" points="273.5,-0.5 273.5,-19.5 352.5,-19.5 352.5,-0.5 273.5,-0.5"/>
<text text-anchor="middle" x="313" y="-7.5" font-family="Helvetica,sans-Serif" font-size="10.00">src/main.cpp</text>
</a>
</g>
</g>
<!-- Node2&#45;&gt;Node4 -->
<g id="edge3" class="edge">
<title>Node2&#45;&gt;Node4</title>
<path fill="none" stroke="midnightblue" d="M194.67,-53.04C223.27,-42.88 263.61,-28.55 289.03,-19.52"/>
<polygon fill="midnightblue" stroke="midnightblue" points="193.34,-49.8 185.08,-56.44 195.68,-56.39 193.34,-49.8"/>
</g>
<!-- Node5 -->
<g id="node5" class="node">
<title>Node5</title>
<g id="a_node5"><a xlink:href="network_8cpp.html" target="_top" xlink:title=" ">
<polygon fill="white" stroke="black" points="0,-0.5 0,-19.5 94,-19.5 94,-0.5 0,-0.5"/>
<text text-anchor="middle" x="47" y="-7.5" font-family="Helvetica,sans-Serif" font-size="10.00">src/network.cpp</text>
</a>
</g>
</g>
<!-- Node2&#45;&gt;Node5 -->
<g id="edge4" class="edge">
<title>Node2&#45;&gt;Node5</title>
<path fill="none" stroke="midnightblue" d="M133.76,-52.1C112.46,-42.01 83.46,-28.27 64.98,-19.52"/>
<polygon fill="midnightblue" stroke="midnightblue" points="132.4,-55.33 142.94,-56.44 135.4,-49 132.4,-55.33"/>
</g>
<!-- Node6&#45;&gt;Node2 -->
<g id="edge6" class="edge">
<title>Node6&#45;&gt;Node2</title>
<path fill="none" stroke="midnightblue" d="M241.16,-161.07C233.29,-152.54 223.52,-141.79 215,-132 197.67,-112.08 178.01,-88.04 167.87,-75.52"/>
<polygon fill="midnightblue" stroke="midnightblue" points="238.66,-163.52 248.02,-168.48 243.79,-158.76 238.66,-163.52"/>
</g>
<!-- Node7 -->
<g id="node7" class="node">
<title>Node7</title>
<g id="a_node7"><a xlink:href="gamestate_8hpp.html" target="_top" xlink:title=" ">
<polygon fill="white" stroke="black" points="224,-112.5 224,-131.5 352,-131.5 352,-112.5 224,-112.5"/>
<text text-anchor="middle" x="288" y="-119.5" font-family="Helvetica,sans-Serif" font-size="10.00">include/gamestate.hpp</text>
</a>
</g>
</g>
<!-- Node6&#45;&gt;Node7 -->
<g id="edge7" class="edge">
<title>Node6&#45;&gt;Node7</title>
<path fill="none" stroke="midnightblue" d="M266.5,-159.27C271.97,-150.05 278.42,-139.17 282.81,-131.75"/>
<polygon fill="midnightblue" stroke="midnightblue" points="263.37,-157.7 261.28,-168.08 269.39,-161.26 263.37,-157.7"/>
</g>
<!-- Node9 -->
<g id="node9" class="node">
<title>Node9</title>
<g id="a_node9"><a xlink:href="gamechange_8cpp.html" target="_top" xlink:title=" ">
<polygon fill="white" stroke="black" points="370.5,-112.5 370.5,-131.5 487.5,-131.5 487.5,-112.5 370.5,-112.5"/>
<text text-anchor="middle" x="429" y="-119.5" font-family="Helvetica,sans-Serif" font-size="10.00">src/gamechange.cpp</text>
</a>
</g>
</g>
<!-- Node6&#45;&gt;Node9 -->
<g id="edge11" class="edge">
<title>Node6&#45;&gt;Node9</title>
<path fill="none" stroke="midnightblue" d="M293.05,-165.44C325.66,-155.26 372.41,-140.66 401.72,-131.52"/>
<polygon fill="midnightblue" stroke="midnightblue" points="291.92,-162.12 283.41,-168.44 294,-168.8 291.92,-162.12"/>
</g>
<!-- Node7&#45;&gt;Node2 -->
<g id="edge8" class="edge">
<title>Node7&#45;&gt;Node2</title>
<path fill="none" stroke="midnightblue" d="M258.61,-108.5C234.8,-98.38 201.89,-84.39 181.03,-75.52"/>
<polygon fill="midnightblue" stroke="midnightblue" points="257.3,-111.75 267.88,-112.44 260.04,-105.31 257.3,-111.75"/>
</g>
<!-- Node7&#45;&gt;Node4 -->
<g id="edge10" class="edge">
<title>Node7&#45;&gt;Node4</title>
<path fill="none" stroke="midnightblue" d="M317,-107.33C329.23,-99.92 342.19,-89.48 349,-76 359.35,-55.5 337.9,-32.08 323.87,-19.72"/>
<polygon fill="midnightblue" stroke="midnightblue" points="314.93,-104.48 307.91,-112.41 318.34,-110.59 314.93,-104.48"/>
</g>
<!-- Node8 -->
<g id="node8" class="node">
<title>Node8</title>
<g id="a_node8"><a xlink:href="gamestate_8cpp.html" target="_top" xlink:title=" ">
<polygon fill="white" stroke="black" points="232.5,-56.5 232.5,-75.5 339.5,-75.5 339.5,-56.5 232.5,-56.5"/>
<text text-anchor="middle" x="286" y="-63.5" font-family="Helvetica,sans-Serif" font-size="10.00">src/gamestate.cpp</text>
</a>
</g>
</g>
<!-- Node7&#45;&gt;Node8 -->
<g id="edge9" class="edge">
<title>Node7&#45;&gt;Node8</title>
<path fill="none" stroke="midnightblue" d="M287.29,-101.8C286.96,-92.91 286.58,-82.78 286.32,-75.75"/>
<polygon fill="midnightblue" stroke="midnightblue" points="283.8,-102.22 287.67,-112.08 290.8,-101.96 283.8,-102.22"/>
</g>
<!-- Node10&#45;&gt;Node2 -->
<g id="edge13" class="edge">
<title>Node10&#45;&gt;Node2</title>
<path fill="none" stroke="midnightblue" d="M95.24,-106.9C111.56,-97 132.87,-84.07 146.74,-75.65"/>
<polygon fill="midnightblue" stroke="midnightblue" points="93.03,-104.14 86.3,-112.32 96.66,-110.13 93.03,-104.14"/>
</g>
<!-- Node10&#45;&gt;Node3 -->
<g id="edge14" class="edge">
<title>Node10&#45;&gt;Node3</title>
<path fill="none" stroke="midnightblue" d="M76.49,-102.43C80.5,-88.62 87.38,-69.85 98,-56 109.96,-40.39 128.69,-27.54 142.03,-19.62"/>
<polygon fill="midnightblue" stroke="midnightblue" points="73.07,-101.68 73.89,-112.25 79.84,-103.48 73.07,-101.68"/>
</g>
<!-- Node10&#45;&gt;Node5 -->
<g id="edge15" class="edge">
<title>Node10&#45;&gt;Node5</title>
<path fill="none" stroke="midnightblue" d="M67.76,-102.35C62.28,-78.25 52.98,-37.31 48.95,-19.59"/>
<polygon fill="midnightblue" stroke="midnightblue" points="64.41,-103.39 70.04,-112.37 71.23,-101.84 64.41,-103.39"/>
</g>
</g>
</svg>
