<?xml version="1.0" encoding="UTF-8" standalone="no"?>
<!DOCTYPE svg PUBLIC "-//W3C//DTD SVG 1.1//EN"
 "http://www.w3.org/Graphics/SVG/1.1/DTD/svg11.dtd">
<!-- Generated by graphviz version 2.42.3 (0)
 -->
<!-- Title: include/position_type.hpp Pages: 1 -->
<svg width="437pt" height="308pt"
 viewBox="0.00 0.00 436.62 308.00" xmlns="http://www.w3.org/2000/svg" xmlns:xlink="http://www.w3.org/1999/xlink">
<g id="graph0" class="graph" transform="scale(1 1) rotate(0) translate(4 304)">
<title>include/position_type.hpp</title>
<polygon fill="white" stroke="transparent" points="-4,4 -4,-304 432.62,-304 432.62,4 -4,4"/>
<!-- Node1 -->
<g id="node1" class="node">
<title>Node1</title>
<g id="a_node1"><a xlink:title=" ">
<polygon fill="#bfbfbf" stroke="black" points="285.5,-280.5 285.5,-299.5 427.5,-299.5 427.5,-280.5 285.5,-280.5"/>
<text text-anchor="middle" x="356.5" y="-287.5" font-family="Helvetica,sans-Serif" font-size="10.00">include/position_type.hpp</text>
</a>
</g>
</g>
<!-- Node2 -->
<g id="node2" class="node">
<title>Node2</title>
<g id="a_node2"><a xlink:href="dot_8hpp.html" target="_top" xlink:title=" ">
<polygon fill="white" stroke="black" points="197.5,-224.5 197.5,-243.5 289.5,-243.5 289.5,-224.5 197.5,-224.5"/>
<text text-anchor="middle" x="243.5" y="-231.5" font-family="Helvetica,sans-Serif" font-size="10.00">include/dot.hpp</text>
</a>
</g>
</g>
<!-- Node1&#45;&gt;Node2 -->
<g id="edge1" class="edge">
<title>Node1&#45;&gt;Node2</title>
<path fill="none" stroke="midnightblue" d="M329.5,-276.1C308.39,-266.01 279.64,-252.27 261.32,-243.52"/>
<polygon fill="midnightblue" stroke="midnightblue" points="328.06,-279.29 338.59,-280.44 331.08,-272.97 328.06,-279.29"/>
</g>
<!-- Node8 -->
<g id="node8" class="node">
<title>Node8</title>
<g id="a_node8"><a xlink:href="gamestate_8hpp.html" target="_top" xlink:title=" ">
<polygon fill="white" stroke="black" points="206.5,-112.5 206.5,-131.5 334.5,-131.5 334.5,-112.5 206.5,-112.5"/>
<text text-anchor="middle" x="270.5" y="-119.5" font-family="Helvetica,sans-Serif" font-size="10.00">include/gamestate.hpp</text>
</a>
</g>
</g>
<!-- Node1&#45;&gt;Node8 -->
<g id="edge20" class="edge">
<title>Node1&#45;&gt;Node8</title>
<path fill="none" stroke="midnightblue" d="M383.52,-275.27C395.27,-267.76 407.86,-257.26 414.5,-244 429.63,-213.8 435.54,-195.2 415.5,-168 396.9,-142.75 364.26,-131.25 334.65,-126.17"/>
<polygon fill="midnightblue" stroke="midnightblue" points="381.63,-272.32 374.81,-280.43 385.2,-278.35 381.63,-272.32"/>
</g>
<!-- Node13 -->
<g id="node13" class="node">
<title>Node13</title>
<g id="a_node13"><a xlink:href="field_8hpp.html" target="_top" xlink:title=" ">
<polygon fill="white" stroke="black" points="307.5,-224.5 307.5,-243.5 405.5,-243.5 405.5,-224.5 307.5,-224.5"/>
<text text-anchor="middle" x="356.5" y="-231.5" font-family="Helvetica,sans-Serif" font-size="10.00">include/field.hpp</text>
</a>
</g>
</g>
<!-- Node1&#45;&gt;Node13 -->
<g id="edge15" class="edge">
<title>Node1&#45;&gt;Node13</title>
<path fill="none" stroke="midnightblue" d="M356.5,-269.8C356.5,-260.91 356.5,-250.78 356.5,-243.75"/>
<polygon fill="midnightblue" stroke="midnightblue" points="353,-270.08 356.5,-280.08 360,-270.08 353,-270.08"/>
</g>
<!-- Node3 -->
<g id="node3" class="node">
<title>Node3</title>
<g id="a_node3"><a xlink:href="gamechange_8hpp.html" target="_top" xlink:title=" ">
<polygon fill="white" stroke="black" points="32,-168.5 32,-187.5 171,-187.5 171,-168.5 32,-168.5"/>
<text text-anchor="middle" x="101.5" y="-175.5" font-family="Helvetica,sans-Serif" font-size="10.00">include/gamechange.hpp</text>
</a>
</g>
</g>
<!-- Node2&#45;&gt;Node3 -->
<g id="edge2" class="edge">
<title>Node2&#45;&gt;Node3</title>
<path fill="none" stroke="midnightblue" d="M211.34,-220.77C184.67,-210.63 147.43,-196.47 123.9,-187.52"/>
<polygon fill="midnightblue" stroke="midnightblue" points="210.41,-224.16 221,-224.44 212.9,-217.62 210.41,-224.16"/>
</g>
<!-- Node2&#45;&gt;Node8 -->
<g id="edge12" class="edge">
<title>Node2&#45;&gt;Node8</title>
<path fill="none" stroke="midnightblue" d="M229.6,-216.27C220.36,-203 211.15,-184.08 218.5,-168 225.89,-151.82 242.3,-139.23 254.72,-131.53"/>
<polygon fill="midnightblue" stroke="midnightblue" points="226.97,-218.6 235.81,-224.45 232.55,-214.37 226.97,-218.6"/>
</g>
<!-- Node11 -->
<g id="node11" class="node">
<title>Node11</title>
<g id="a_node11"><a xlink:href="dot_8cpp.html" target="_top" xlink:title=" ">
<polygon fill="white" stroke="black" points="321.5,-168.5 321.5,-187.5 391.5,-187.5 391.5,-168.5 321.5,-168.5"/>
<text text-anchor="middle" x="356.5" y="-175.5" font-family="Helvetica,sans-Serif" font-size="10.00">src/dot.cpp</text>
</a>
</g>
</g>
<!-- Node2&#45;&gt;Node11 -->
<g id="edge13" class="edge">
<title>Node2&#45;&gt;Node11</title>
<path fill="none" stroke="midnightblue" d="M270.5,-220.1C291.61,-210.01 320.36,-196.27 338.68,-187.52"/>
<polygon fill="midnightblue" stroke="midnightblue" points="268.92,-216.97 261.41,-224.44 271.94,-223.29 268.92,-216.97"/>
</g>
<!-- Node12 -->
<g id="node12" class="node">
<title>Node12</title>
<g id="a_node12"><a xlink:href="field_8cpp.html" target="_top" xlink:title=" ">
<polygon fill="white" stroke="black" points="227.5,-168.5 227.5,-187.5 303.5,-187.5 303.5,-168.5 227.5,-168.5"/>
<text text-anchor="middle" x="265.5" y="-175.5" font-family="Helvetica,sans-Serif" font-size="10.00">src/field.cpp</text>
</a>
</g>
</g>
<!-- Node2&#45;&gt;Node12 -->
<g id="edge14" class="edge">
<title>Node2&#45;&gt;Node12</title>
<path fill="none" stroke="midnightblue" d="M250.96,-214.69C254.67,-205.59 258.98,-195.01 261.93,-187.75"/>
<polygon fill="midnightblue" stroke="midnightblue" points="247.66,-213.5 247.13,-224.08 254.15,-216.14 247.66,-213.5"/>
</g>
<!-- Node4 -->
<g id="node4" class="node">
<title>Node4</title>
<g id="a_node4"><a xlink:href="galaxy_8hpp.html" target="_top" xlink:title=" ">
<polygon fill="white" stroke="black" points="92,-56.5 92,-75.5 199,-75.5 199,-56.5 92,-56.5"/>
<text text-anchor="middle" x="145.5" y="-63.5" font-family="Helvetica,sans-Serif" font-size="10.00">include/galaxy.hpp</text>
</a>
</g>
</g>
<!-- Node3&#45;&gt;Node4 -->
<g id="edge3" class="edge">
<title>Node3&#45;&gt;Node4</title>
<path fill="none" stroke="midnightblue" d="M111.91,-159.37C116.46,-151.22 121.63,-141.3 125.5,-132 133.66,-112.38 140.23,-88.21 143.42,-75.6"/>
<polygon fill="midnightblue" stroke="midnightblue" points="108.74,-157.86 106.8,-168.28 114.81,-161.35 108.74,-157.86"/>
</g>
<!-- Node3&#45;&gt;Node8 -->
<g id="edge7" class="edge">
<title>Node3&#45;&gt;Node8</title>
<path fill="none" stroke="midnightblue" d="M138.1,-165.3C169.95,-155.13 215.34,-140.62 243.85,-131.52"/>
<polygon fill="midnightblue" stroke="midnightblue" points="136.74,-162.07 128.28,-168.44 138.87,-168.73 136.74,-162.07"/>
</g>
<!-- Node10 -->
<g id="node10" class="node">
<title>Node10</title>
<g id="a_node10"><a xlink:href="gamechange_8cpp.html" target="_top" xlink:title=" ">
<polygon fill="white" stroke="black" points="0,-112.5 0,-131.5 117,-131.5 117,-112.5 0,-112.5"/>
<text text-anchor="middle" x="58.5" y="-119.5" font-family="Helvetica,sans-Serif" font-size="10.00">src/gamechange.cpp</text>
</a>
</g>
</g>
<!-- Node3&#45;&gt;Node10 -->
<g id="edge11" class="edge">
<title>Node3&#45;&gt;Node10</title>
<path fill="none" stroke="midnightblue" d="M88.08,-160.14C80.59,-150.74 71.56,-139.4 65.47,-131.75"/>
<polygon fill="midnightblue" stroke="midnightblue" points="85.43,-162.44 94.4,-168.08 90.91,-158.08 85.43,-162.44"/>
</g>
<!-- Node5 -->
<g id="node5" class="node">
<title>Node5</title>
<g id="a_node5"><a xlink:href="galaxy_8cpp.html" target="_top" xlink:title=" ">
<polygon fill="white" stroke="black" points="129.5,-0.5 129.5,-19.5 215.5,-19.5 215.5,-0.5 129.5,-0.5"/>
<text text-anchor="middle" x="172.5" y="-7.5" font-family="Helvetica,sans-Serif" font-size="10.00">src/galaxy.cpp</text>
</a>
</g>
</g>
<!-- Node4&#45;&gt;Node5 -->
<g id="edge4" class="edge">
<title>Node4&#45;&gt;Node5</title>
<path fill="none" stroke="midnightblue" d="M154.51,-46.98C159.09,-37.82 164.45,-27.09 168.12,-19.75"/>
<polygon fill="midnightblue" stroke="midnightblue" points="151.3,-45.57 149.96,-56.08 157.56,-48.7 151.3,-45.57"/>
</g>
<!-- Node6 -->
<g id="node6" class="node">
<title>Node6</title>
<g id="a_node6"><a xlink:href="main_8cpp.html" target="_top" xlink:title=" ">
<polygon fill="white" stroke="black" points="287,-0.5 287,-19.5 366,-19.5 366,-0.5 287,-0.5"/>
<text text-anchor="middle" x="326.5" y="-7.5" font-family="Helvetica,sans-Serif" font-size="10.00">src/main.cpp</text>
</a>
</g>
</g>
<!-- Node4&#45;&gt;Node6 -->
<g id="edge5" class="edge">
<title>Node4&#45;&gt;Node6</title>
<path fill="none" stroke="midnightblue" d="M183.82,-53.57C217.96,-43.38 267.16,-28.7 297.95,-19.52"/>
<polygon fill="midnightblue" stroke="midnightblue" points="182.76,-50.23 174.18,-56.44 184.76,-56.94 182.76,-50.23"/>
</g>
<!-- Node7 -->
<g id="node7" class="node">
<title>Node7</title>
<g id="a_node7"><a xlink:href="network_8cpp.html" target="_top" xlink:title=" ">
<polygon fill="white" stroke="black" points="17.5,-0.5 17.5,-19.5 111.5,-19.5 111.5,-0.5 17.5,-0.5"/>
<text text-anchor="middle" x="64.5" y="-7.5" font-family="Helvetica,sans-Serif" font-size="10.00">src/network.cpp</text>
</a>
</g>
</g>
<!-- Node4&#45;&gt;Node7 -->
<g id="edge6" class="edge">
<title>Node4&#45;&gt;Node7</title>
<path fill="none" stroke="midnightblue" d="M123.93,-50.62C109.14,-40.76 89.99,-27.99 77.48,-19.65"/>
<polygon fill="midnightblue" stroke="midnightblue" points="122.22,-53.69 132.49,-56.32 126.11,-47.86 122.22,-53.69"/>
</g>
<!-- Node8&#45;&gt;Node4 -->
<g id="edge8" class="edge">
<title>Node8&#45;&gt;Node4</title>
<path fill="none" stroke="midnightblue" d="M241.26,-108.37C217.85,-98.26 185.66,-84.35 165.21,-75.52"/>
<polygon fill="midnightblue" stroke="midnightblue" points="240.13,-111.69 250.69,-112.44 242.9,-105.26 240.13,-111.69"/>
</g>
<!-- Node8&#45;&gt;Node6 -->
<g id="edge10" class="edge">
<title>Node8&#45;&gt;Node6</title>
<path fill="none" stroke="midnightblue" d="M300.32,-107.61C312.98,-100.23 326.42,-89.75 333.5,-76 342.95,-57.63 335.43,-32.53 330.29,-19.55"/>
<polygon fill="midnightblue" stroke="midnightblue" points="298.5,-104.61 291.35,-112.43 301.81,-110.78 298.5,-104.61"/>
</g>
<!-- Node9 -->
<g id="node9" class="node">
<title>Node9</title>
<g id="a_node9"><a xlink:href="gamestate_8cpp.html" target="_top" xlink:title=" ">
<polygon fill="white" stroke="black" points="217,-56.5 217,-75.5 324,-75.5 324,-56.5 217,-56.5"/>
<text text-anchor="middle" x="270.5" y="-63.5" font-family="Helvetica,sans-Serif" font-size="10.00">src/gamestate.cpp</text>
</a>
</g>
</g>
<!-- Node8&#45;&gt;Node9 -->
<g id="edge9" class="edge">
<title>Node8&#45;&gt;Node9</title>
<path fill="none" stroke="midnightblue" d="M270.5,-101.8C270.5,-92.91 270.5,-82.78 270.5,-75.75"/>
<polygon fill="midnightblue" stroke="midnightblue" points="267,-102.08 270.5,-112.08 274,-102.08 267,-102.08"/>
</g>
<!-- Node13&#45;&gt;Node3 -->
<g id="edge16" class="edge">
<title>Node13&#45;&gt;Node3</title>
<path fill="none" stroke="midnightblue" d="M306.19,-222.35C258,-212.14 186.22,-196.94 141.72,-187.52"/>
<polygon fill="midnightblue" stroke="midnightblue" points="305.59,-225.8 316.09,-224.44 307.04,-218.95 305.59,-225.8"/>
</g>
<!-- Node13&#45;&gt;Node8 -->
<g id="edge17" class="edge">
<title>Node13&#45;&gt;Node8</title>
<path fill="none" stroke="midnightblue" d="M377.92,-218.22C394.45,-204.96 412.62,-185.01 400.5,-168 385.33,-146.7 359.35,-135.38 334.59,-129.41"/>
<polygon fill="midnightblue" stroke="midnightblue" points="375.47,-215.68 369.59,-224.5 379.69,-221.27 375.47,-215.68"/>
</g>
<!-- Node13&#45;&gt;Node11 -->
<g id="edge18" class="edge">
<title>Node13&#45;&gt;Node11</title>
<path fill="none" stroke="midnightblue" d="M356.5,-213.8C356.5,-204.91 356.5,-194.78 356.5,-187.75"/>
<polygon fill="midnightblue" stroke="midnightblue" points="353,-214.08 356.5,-224.08 360,-214.08 353,-214.08"/>
</g>
<!-- Node13&#45;&gt;Node12 -->
<g id="edge19" class="edge">
<title>Node13&#45;&gt;Node12</title>
<path fill="none" stroke="midnightblue" d="M333.21,-219.18C316.46,-209.24 294.4,-196.15 280.08,-187.65"/>
<polygon fill="midnightblue" stroke="midnightblue" points="331.49,-222.23 341.88,-224.32 335.07,-216.21 331.49,-222.23"/>
</g>
</g>
</svg>
